<svg xmlns="http://www.w3.org/2000/svg" width="14" height="13" viewBox="0 0 14 13">
    <path fill="#A6B9C8" fill-rule="evenodd" d="M6.67 0a.512.512 0 0 0-.052.001.512.512 0 0 0-.368.19L1.702 4.285.169 5.664a.512.512 0 1 0 .686.76l.169-.151v4.48c0 .383-.002.677.028.942.03.266.099.545.315.761.216.216.495.286.76.316.266.03.56.028.944.028h.512c.383 0 .678.002.943-.028.266-.03.545-.1.761-.316.216-.216.285-.495.315-.76.03-.266.028-.56.028-.943V9.729c0-.382.002-.663.021-.828a.814.814 0 0 1 .027-.147.802.802 0 0 1 .147-.027c.166-.02.446-.021.829-.021.382 0 .662.002.828.02a.8.8 0 0 1 .147.028c.006.02.018.064.027.147.019.165.021.446.021.828v1.024c0 .383-.002.678.028.943.03.266.1.545.316.761.216.216.495.285.76.315.266.03.56.028.943.028h.512c.383 0 .678.002.944-.028.265-.03.544-.1.76-.316.216-.216.285-.495.315-.76.03-.266.028-.56.028-.943v-4.48l.17.152a.512.512 0 1 0 .685-.761l-1.532-1.379A44280.767 44280.767 0 0 1 7.058.192.512.512 0 0 0 6.671 0zm-.016 1.207L8.737 3.08l2.186 1.967c.214.194.337.47.337.759v4.946c0 .382-.003.663-.021.828a.814.814 0 0 1-.027.147.802.802 0 0 1-.147.027 9.103 9.103 0 0 1-.829.021h-.512c-.382 0-.662-.002-.828-.02a.814.814 0 0 1-.147-.028.802.802 0 0 1-.027-.147 9.103 9.103 0 0 1-.021-.828V9.729c0-.383.002-.677-.028-.942-.03-.266-.099-.545-.315-.761-.216-.216-.495-.286-.76-.316-.266-.03-.561-.028-.944-.028-.384 0-.678-.002-.944.028-.266.03-.545.1-.76.316-.217.216-.286.495-.316.76-.03.266-.028.56-.028.943v1.024c0 .382-.002.663-.02.828a.814.814 0 0 1-.028.147.802.802 0 0 1-.147.027 9.103 9.103 0 0 1-.828.021H3.07c-.383 0-.663-.002-.829-.02a.8.8 0 0 1-.147-.028.814.814 0 0 1-.027-.147 9.14 9.14 0 0 1-.02-.828V5.807c0-.29.123-.567.338-.76L4.57 3.08l2.084-1.874z"/>
</svg>
