<svg xmlns="http://www.w3.org/2000/svg" width="27" height="17" viewBox="0 0 27 17">
    <path fill="#FFF" fill-rule="nonzero" d="M24.43 8.583a7.123 7.123 0 0 0-13.506-4.278 5.367 5.367 0 0 0-2.94-.875 5.393 5.393 0 0 0-5.378 5.02 4.46 4.46 0 0 0 1.857 8.518h6.448c.316 0 .331-.35.331-.35v-2.864c0-.245-.2-.445-.444-.445h-1.22c-.245 0-.326-.161-.18-.357l3.717-5.019c.146-.196.384-.196.53 0l3.717 5.019c.146.196.065.357-.18.357h-1.22c-.244 0-.444.2-.444.445v2.869s.018.345.346.345h6.433a4.464 4.464 0 0 0 2.132-8.385z"/>
</svg>
