<?xml version="1.0" encoding="UTF-8"?>
<svg width="40px" height="40px" viewBox="0 0 40 40" version="1.1" xmlns="http://www.w3.org/2000/svg" xmlns:xlink="http://www.w3.org/1999/xlink">
    <!-- Generator: Sketch 55.2 (78181) - https://sketchapp.com -->
    <title>Full Screen</title>
    <desc>Created with Sketch.</desc>
    <defs>
        <circle id="path-1" cx="18" cy="18" r="18"></circle>
        <filter x="-11.1%" y="-5.6%" width="122.2%" height="122.2%" filterUnits="objectBoundingBox" id="filter-2">
            <feOffset dx="0" dy="2" in="SourceAlpha" result="shadowOffsetOuter1"></feOffset>
            <feGaussianBlur stdDeviation="1" in="shadowOffsetOuter1" result="shadowBlurOuter1"></feGaussianBlur>
            <feColorMatrix values="0 0 0 0 0   0 0 0 0 0   0 0 0 0 0  0 0 0 0.292572464 0" type="matrix" in="shadowBlurOuter1"></feColorMatrix>
        </filter>
    </defs>
    <g id="Page-1" stroke="none" stroke-width="1" fill="none" fill-rule="evenodd">
        <g id="09_AnnotationTag_DeleteTag" transform="translate(-938.000000, -587.000000)">
            <g id="PDFViewer" transform="translate(52.000000, 19.000000)">
                <g id="Action-Group" transform="translate(888.000000, 568.000000)">
                    <g id="Full-Screen">
                        <g id="Oval" fill-rule="nonzero">
                            <use fill="black" fill-opacity="1" filter="url(#filter-2)" xlink:href="#path-1"></use>
                            <use fill="#F2F2F2" xlink:href="#path-1"></use>
                        </g>
                        <g id="Group-5" transform="translate(8.000000, 8.000000)">
                            <polygon id="Stroke-1" stroke-opacity="0.0117647061" stroke="#000000" stroke-width="1.33333336e-11" points="0 0 19.9999992 0 19.9999992 19.9999992 0 19.9999992"></polygon>
                            <path d="M8.33333283,14.1666658 L5.83333283,14.1666658 L5.83333283,11.666666 L4.16666642,11.666666 L4.16666642,15.8333324 L8.33333283,15.8333324 L8.33333283,14.1666658 Z M5.83333283,5.83333283 L8.33333283,5.83333283 L8.33333283,4.16666642 L4.16666642,4.16666642 L4.16666642,8.33333283 L5.83333283,8.33333283 L5.83333283,5.83333283 Z M15.8333324,11.666666 L14.1666658,11.666666 L14.1666658,14.1666658 L11.666666,14.1666658 L11.666666,15.8333324 L15.8333324,15.8333324 L15.8333324,11.666666 Z M14.1666658,5.83333283 L14.1666658,8.33333283 L15.8333324,8.33333283 L15.8333324,4.16666642 L11.666666,4.16666642 L11.666666,5.83333283 L14.1666658,5.83333283 Z" id="Fill-3-Copy" fill="#616161"></path>
                        </g>
                    </g>
                </g>
            </g>
        </g>
    </g>
</svg>