<?xml version="1.0" encoding="UTF-8"?>
<svg width="18px" height="16px" viewBox="0 0 18 16" version="1.1" xmlns="http://www.w3.org/2000/svg" xmlns:xlink="http://www.w3.org/1999/xlink">
    <!-- Generator: Sketch 55.2 (78181) - https://sketchapp.com -->
    <title>Group 5</title>
    <desc>Created with Sketch.</desc>
    <g id="Page-1" stroke="none" stroke-width="1" fill="none" fill-rule="evenodd">
        <g id="09_AnnotationTag_DeleteTag" transform="translate(-955.000000, -70.000000)">
            <g id="PDFViewer" transform="translate(52.000000, 19.000000)">
                <g id="PDF-Header" transform="translate(0.000000, 35.000000)">
                    <g id="Group" transform="translate(808.000000, 14.000000)">
                        <g id="Group-5" transform="translate(94.000000, 0.000000)">
                            <polygon id="Stroke-1" stroke-opacity="0.0117647061" stroke="#000000" stroke-width="1.33333336e-11" points="0 0 19.9999992 0 19.9999992 19.9999992 0 19.9999992"></polygon>
                            <path d="M15.8333324,6.66666627 L4.16666657,6.66666627 C2.78333308,6.66666627 1.66666657,7.78333303 1.66666657,9.16666627 L1.66666657,14.1666663 L4.9999997,14.1666663 L4.9999997,17.4999989 L14.9999991,17.4999989 L14.9999991,14.1666663 L18.3333322,14.1666663 L18.3333322,9.16666627 C18.3333322,7.78333303 17.2166656,6.66666627 15.8333324,6.66666627 Z M13.3333325,15.8333324 L6.66666627,15.8333324 L6.66666627,11.666666 L13.3333325,11.666666 L13.3333325,15.8333324 Z M15.8333324,9.9999994 C15.3749999,9.9999994 14.9999991,9.62499959 14.9999991,9.16666612 C14.9999991,8.70833264 15.3749999,8.33333283 15.8333324,8.33333283 C16.2916649,8.33333283 16.6666657,8.70833264 16.6666657,9.16666612 C16.6666657,9.62499959 16.2916649,9.9999994 15.8333324,9.9999994 Z M14.9999997,2.49999985 L4.9999997,2.49999985 L4.9999997,5.83333298 L14.9999997,5.83333298 L14.9999997,2.49999985 Z" id="Fill-3" fill="#FFFFFF"></path>
                        </g>
                    </g>
                </g>
            </g>
        </g>
    </g>
</svg>