<?xml version="1.0" encoding="UTF-8"?>
<svg width="14px" height="17px" viewBox="0 0 14 17" version="1.1" xmlns="http://www.w3.org/2000/svg" xmlns:xlink="http://www.w3.org/1999/xlink">
    <!-- Generator: Sketch 55.2 (78181) - https://sketchapp.com -->
    <title>Group 5</title>
    <desc>Created with Sketch.</desc>
    <g id="Page-1" stroke="none" stroke-width="1" fill="none" fill-rule="evenodd">
        <g id="09_AnnotationTag_DeleteTag" transform="translate(-863.000000, -68.000000)">
            <g id="PDFViewer" transform="translate(52.000000, 19.000000)">
                <g id="PDF-Header" transform="translate(0.000000, 35.000000)">
                    <g id="Group" transform="translate(808.000000, 14.000000)">
                        <g id="Group-5">
                            <polygon id="Stroke-1" stroke-opacity="0.0117647061" stroke="#000000" stroke-width="1.33333336e-11" points="0 0 19.9999992 0 19.9999992 19.9999992 0 19.9999992"></polygon>
                            <path d="M12.9583327,4.62499989 L9.16666612,0.833333283 L9.16666612,3.39166621 C5.8833329,3.79999969 3.33333313,6.59999969 3.33333313,9.9999994 C3.33333313,13.3999991 5.87499981,16.1999999 9.16666612,16.6083323 L9.16666612,14.9249991 C6.79999943,14.5249991 4.9999997,12.4749987 4.9999997,9.9999994 C4.9999997,7.52500013 6.79999943,5.47499984 9.16666612,5.07499986 L9.16666612,8.33333328 L12.9583327,4.62499989 Z M16.6083323,9.16666695 C16.4666657,8.0083326 16.0083332,6.89166667 15.2583316,5.92499973 L14.0749983,7.10833349 C14.5249991,7.73333345 14.8083316,8.44166708 14.9249991,9.16666695 L16.6083323,9.16666695 L16.6083323,9.16666695 Z M10.8333319,14.9166658 L10.8333319,16.599999 C11.9916662,16.4583323 13.1166657,16.0083332 14.0833325,15.2583316 L12.8833318,14.0583317 C12.2583318,14.5083325 11.5583317,14.7999974 10.8333319,14.9166658 L10.8333319,14.9166658 Z M14.0749983,12.8999988 L15.2583316,14.0749983 C16.0083315,13.1083321 16.4666657,11.9916654 16.6083323,10.8333327 L14.9249991,10.8333327 C14.8083324,11.5583326 14.5249991,12.2666662 14.0749983,12.8999988 Z" id="Fill-3" fill="#FFFFFF"></path>
                        </g>
                    </g>
                </g>
            </g>
        </g>
    </g>
</svg>