<svg xmlns="http://www.w3.org/2000/svg" width="18" height="21" viewBox="0 0 18 21">
    <g fill="none" fill-rule="nonzero">
        <path fill="#E2E5E7" d="M3.857 0a1.29 1.29 0 0 0-1.286 1.286v18a1.29 1.29 0 0 0 1.286 1.285h12.857A1.29 1.29 0 0 0 18 19.286V5.143L12.857 0h-9z"/>
        <path fill="#B0B7BD" d="M14.143 5.143H18L12.857 0v3.857a1.29 1.29 0 0 0 1.286 1.286z"/>
        <path fill="#CAD1D8" d="M18 9l-3.857-3.857H18z"/>
        <path fill="#F15642" d="M15.429 16.714c0 .354-.29.643-.643.643H.643A.645.645 0 0 1 0 16.714v-6.428c0-.354.29-.643.643-.643h14.143c.353 0 .643.29.643.643v6.428z"/>
        <g fill="#FFF">
            <path d="M2.802 12.18c0-.17.134-.355.35-.355h1.187c.668 0 1.27.448 1.27 1.305 0 .813-.602 1.265-1.27 1.265H3.48v.68c0 .226-.144.354-.329.354a.346.346 0 0 1-.349-.355V12.18zm.678.293v1.28h.859a.634.634 0 0 0 .617-.623c0-.359-.273-.657-.617-.657H3.48zM6.616 15.429c-.17 0-.355-.093-.355-.319v-2.92c0-.184.185-.318.355-.318h1.177c2.349 0 2.297 3.557.046 3.557H6.616zm.324-2.93v2.303h.853c1.388 0 1.45-2.303 0-2.303H6.94zM10.923 12.54v.817h1.311c.185 0 .37.185.37.365 0 .17-.185.308-.37.308h-1.31v1.08c0 .18-.129.318-.309.318-.226 0-.364-.138-.364-.318v-2.92c0-.185.139-.319.364-.319h1.805c.226 0 .36.134.36.319 0 .164-.134.35-.36.35h-1.497z"/>
        </g>
        <path fill="#CAD1D8" d="M14.786 17.357H2.57V18h12.215c.353 0 .643-.29.643-.643v-.643c0 .354-.29.643-.643.643z"/>
    </g>
</svg>
