<svg xmlns="http://www.w3.org/2000/svg" width="18" height="18" viewBox="0 0 18 18">
    <g fill="none" fill-rule="nonzero">
        <g fill="#FF5722">
            <path d="M13.125 3.775a.375.375 0 0 0-.375.375V6.4c0 .207.168.375.375.375h2.25a.375.375 0 0 0 .375-.375 2.625 2.625 0 0 0-2.625-2.625z"/>
            <path d="M13.125 7.525A1.125 1.125 0 0 1 12 6.4V4.563a2.619 2.619 0 1 0 2.962 2.962h-1.837z"/>
            <path d="M10.359.106a.375.375 0 0 0-.318-.075l-9.75 2.25A.375.375 0 0 0 0 2.65V15.4c0 .185.135.342.318.37l9.75 1.5a.375.375 0 0 0 .432-.37V.4a.375.375 0 0 0-.141-.294z"/>
            <path d="M17.625 15.775h-7.5a.375.375 0 0 1 0-.75h7.125V2.275h-7.125a.375.375 0 0 1 0-.75h7.5c.207 0 .375.168.375.375v13.5a.375.375 0 0 1-.375.375z"/>
            <path d="M15.375 13.525h-5.25a.375.375 0 0 1 0-.75h5.25a.375.375 0 0 1 0 .75zM15.375 11.275h-5.25a.375.375 0 0 1 0-.75h5.25a.375.375 0 0 1 0 .75z"/>
        </g>
        <path fill="#FAFAFA" d="M3.375 12.025A.375.375 0 0 1 3 11.65v-6c0-.207.168-.375.375-.375h1.5c1.036 0 1.875.84 1.875 1.875v.75c0 1.035-.84 1.875-1.875 1.875H3.75v1.875a.375.375 0 0 1-.375.375zm.375-3h1.125C5.496 9.025 6 8.521 6 7.9v-.75c0-.621-.504-1.125-1.125-1.125H3.75v3z"/>
    </g>
</svg>
