<svg xmlns="http://www.w3.org/2000/svg" width="14" height="14" viewBox="0 0 14 14">
    <path fill="#F8E52D" fill-rule="nonzero" d="M12.007 11.039c-.068-.019-.187-.043-.301-.084-.546-.194-1.124.212-1.11.789.003.103.03.21.066.306.158.427.014.837-.384 1.062-.461.26-.948.46-1.457.604-.433.121-.832-.07-1.017-.488a.825.825 0 0 0-1.532.015c-.15.344-.478.549-.84.503-.177-.022-.35-.084-.52-.14a6.246 6.246 0 0 1-1.099-.49c-.407-.227-.55-.635-.387-1.073.127-.336.07-.645-.187-.898-.25-.248-.556-.302-.885-.18-.445.166-.848.023-1.08-.389a6.632 6.632 0 0 1-.596-1.442.825.825 0 0 1 .477-1.015.81.81 0 0 0 .496-.581.814.814 0 0 0-.482-.946.834.834 0 0 1-.499-.99 6.54 6.54 0 0 1 .609-1.483c.225-.401.637-.549 1.067-.384A.825.825 0 0 0 3.427 2.66c-.169-.434-.02-.843.386-1.072A6.572 6.572 0 0 1 5.28.983a.823.823 0 0 1 .993.478c.124.282.331.462.638.51a.81.81 0 0 0 .892-.496c.117-.266.31-.448.596-.5a.97.97 0 0 1 .404.012 6.107 6.107 0 0 1 1.475.605c.397.224.545.636.381 1.06-.206.537.121 1.084.693 1.14a.88.88 0 0 0 .368-.054c.463-.165.858-.025 1.097.403.248.445.44.913.58 1.403.133.458-.05.852-.484 1.047-.526.237-.674.895-.288 1.312a.97.97 0 0 0 .297.21c.421.197.606.59.478 1.038a6.459 6.459 0 0 1-.613 1.462c-.16.278-.407.414-.78.426zm.607-5.226a5.783 5.783 0 0 0-.522-1.278c-.028-.051-.06-.027-.093-.015a1.635 1.635 0 0 1-.951.06 1.647 1.647 0 0 1-1.176-2.175c.024-.066.012-.095-.05-.123-.246-.111-.488-.233-.737-.337-.164-.07-.337-.116-.502-.17-.318.655-.817 1.03-1.54 1.03-.727 0-1.228-.376-1.54-1.026a5.66 5.66 0 0 0-1.314.544c.237.681.15 1.302-.365 1.815-.514.512-1.134.601-1.811.361-.237.42-.42.856-.544 1.314.646.312 1.02.807 1.025 1.527.004.73-.371 1.234-1.025 1.55.127.462.308.902.545 1.315.657-.231 1.26-.157 1.768.32.55.514.65 1.15.408 1.855.416.236.854.421 1.313.543.317-.651.817-1.024 1.54-1.024.727 0 1.227.379 1.538 1.025a5.657 5.657 0 0 0 1.313-.544c-.239-.681-.148-1.299.361-1.81.513-.515 1.133-.603 1.815-.366.237-.416.42-.854.544-1.314-.657-.319-1.031-.824-1.025-1.555.006-.715.38-1.21 1.025-1.522zM7.042 4.456c.365.005.715.075 1.053.207.226.089.333.318.252.535a.409.409 0 0 1-.548.235 2.063 2.063 0 0 0-2.678 1.16C4.628 7.838 5.446 9.23 6.769 9.4c1.167.15 2.22-.69 2.329-1.86a2.082 2.082 0 0 0-.138-.948.409.409 0 0 1 .214-.537.41.41 0 0 1 .55.23c.183.454.255.926.184 1.41-.174 1.185-.827 2.002-1.956 2.394-1.688.587-3.508-.541-3.768-2.31a2.892 2.892 0 0 1 2.44-3.287c.139-.02.28-.025.418-.036z"/>
</svg>
