<svg xmlns="http://www.w3.org/2000/svg" width="15" height="13" viewBox="0 0 15 13">
    <g fill="#A6B9C8" fill-rule="nonzero">
        <path d="M5.934 6.3a3.15 3.15 0 1 0 0-6.3 3.15 3.15 0 0 0 0 6.3zm0-5.362a2.211 2.211 0 1 1 0 4.42 2.211 2.211 0 0 1 0-4.418V.938zM.94 12.8H0a5.895 5.895 0 0 1 1.738-4.196A5.934 5.934 0 0 1 11.867 12.8h-.94a5 5 0 0 0-4.993-4.994A5 5 0 0 0 .94 12.8z"/>
        <path d="M9.41 6.886a5.934 5.934 0 0 1 5.456 5.914h-.938a4.999 4.999 0 0 0-2.667-4.418 7.03 7.03 0 0 0-1.85-1.496zM8.52.026a3.15 3.15 0 1 1 .197 6.266c.3-.292.557-.629.76-.999A2.212 2.212 0 0 0 9.341.976a4.272 4.272 0 0 0-.82-.95z"/>
    </g>
</svg>
