<svg xmlns="http://www.w3.org/2000/svg" width="88" height="18" viewBox="0 0 88 18">
    <g fill="none" fill-rule="nonzero">
        <path fill="#FEFEFE" d="M16.643 13.16c-1.27.546-2.54.64-3.83.53-1.446-.123-2.144-.9-1.884-2.265.434-2.272.964-4.528 1.466-6.785.107-.482.639-.65 1.427-.488.551.114.326.493.263.795-.428 2.003-.883 4.002-1.296 6.008-.175.853.16 1.226 1.074 1.299.275.017.551.021.827.012 1.955-.043 2.296-.33 2.688-2.159.372-1.745.768-3.485 1.162-5.226.138-.628 1.086-1.02 1.654-.684.275.17.16.424.108.656l-1.322 6.07c-.199.904-.394 1.81-.615 2.71-.67 2.732-2.066 3.891-4.992 4.157-.689.062-1.378.094-2.058.133-.45.025-.763-.088-.718-.623.039-.443-.04-.89.689-.887.756.003 1.51-.057 2.256-.177 2.063-.354 2.69-.975 3.101-3.075zM3.704 13.846a9.028 9.028 0 0 1-3.196-.482c-.606-.21-.565-.596-.41-1.1.164-.533.438-.72.969-.513 1.34.521 2.719.717 4.143.452 1.153-.216 1.777-.933 1.835-2.07.038-.734-.229-1.284-.838-1.68-.7-.455-1.487-.71-2.244-1.032-1.772-.755-2.5-1.83-2.364-3.528C1.758 1.894 2.73.65 4.532.237a9.96 9.96 0 0 1 4.63.074c.484.119.714.303.576.873-.13.55-.31.933-.949.742a9.244 9.244 0 0 0-3.082-.374c-1.24.064-1.993.657-2.213 1.752-.216 1.073.102 1.83 1.053 2.327.603.3 1.22.567 1.85.8 2.02.799 2.624 1.676 2.482 3.656-.13 1.898-1.247 3.182-3.106 3.586a8.69 8.69 0 0 1-2.07.173zM53.972 5.003c.221.1.388-.021.562-.094 1.107-.462 2.268-.515 3.432-.366 1.164.15 1.684.84 1.468 1.984-.425 2.268-.915 4.525-1.391 6.784-.1.468-.628.636-1.357.468-.507-.117-.312-.474-.249-.771.378-1.778.768-3.553 1.146-5.331.055-.272.092-.548.111-.825.04-.514-.238-.822-.727-.891a5.005 5.005 0 0 0-2.9.403c-.35.163-.476.461-.551.815-.42 1.985-.844 3.97-1.274 5.953-.12.563-1.106.932-1.578.586-.22-.162-.137-.386-.094-.592.74-3.47 1.485-6.94 2.232-10.41.158-.73.298-1.466.47-2.192.108-.45.69-.635 1.366-.457.504.129.288.485.224.78-.29 1.38-.59 2.759-.89 4.156zM84.7 5.568c-.302.025-.606.03-.905.078-1.325.214-1.571.45-1.858 1.793-.398 1.87-.781 3.733-1.178 5.598-.13.637-1.025 1.029-1.557.69-.199-.133-.18-.327-.138-.534.508-2.454 1.004-4.91 1.523-7.36.1-.469.432-.849.873-1.004a9.593 9.593 0 0 1 4.966-.675c1.248.167 1.76.957 1.514 2.365-.27 1.55-.61 3.089-.924 4.632-.142.696-.314 1.385-.436 2.084-.11.62-.424.58-1.33.518-.578-.039-.33-.518-.26-.827.377-1.87.8-3.729 1.156-5.602.273-1.453 0-1.746-1.446-1.756zM27.493 5.588c-.064 0-.28.014-.497.037-1.487.156-1.794.441-2.102 1.92a1414.64 1414.64 0 0 1-1.164 5.537c-.13.6-1.112.992-1.588.632-.197-.148-.143-.365-.106-.552.492-2.39.993-4.78 1.488-7.17.1-.56.487-1.02 1.014-1.202a9.582 9.582 0 0 1 4.85-.638c1.204.159 1.696.833 1.55 2.073-.286 2.386-.937 4.7-1.38 7.053-.093.495-.632.669-1.363.49-.515-.126-.296-.511-.236-.802a718.93 718.93 0 0 1 1.15-5.54c.315-1.508.045-1.854-1.616-1.838zM46.194 13.852c-.426-.028-.896-.012-1.345-.097-1.598-.303-2.454-1.294-2.478-3.046-.023-1.629.347-3.192 1.291-4.592.863-1.278 2.078-1.972 3.672-2.023.875-.028 1.748-.053 2.618.124.46.096.659.294.526.73-.125.407-.147.927-.849.77a7.99 7.99 0 0 0-2.2-.154c-1.085.066-1.875.57-2.389 1.465a6.25 6.25 0 0 0-.774 3.771c.094 1.006.817 1.57 2.007 1.62a6.727 6.727 0 0 0 2.051-.245c.432-.118.675-.026.744.397.062.382.236.816-.38.953-.36.08-.717.18-1.08.225-.455.058-.918.069-1.414.102zM66.902 4.075h.64c.928.021 1.02.158.807.995-.102.402-.315.555-.74.536a8.564 8.564 0 0 0-1.973.101c-.71.134-1.116.478-1.262 1.16-.426 1.984-.885 3.961-1.32 5.943-.198.898-.757 1.224-1.664.945-.3-.092-.307-.295-.253-.536.554-2.46 1.097-4.92 1.667-7.371.142-.61.619-.98 1.208-1.227a7.413 7.413 0 0 1 2.89-.546z"/>
        <path fill="#F8E52D" d="M73.595 4.074c.852.038 1.723.045 2.492.528.665.415.656.641.078 1.144-.472.407-.798.591-1.464.136-1.241-.857-3.14-.183-3.78 1.195a7.789 7.789 0 0 0-.698 2.732c-.063.882-.78 1.138-1.33 1.54-.239.174-.461-.077-.448-.313.112-2.034.266-4.068 1.686-5.695.926-1.06 2.163-1.241 3.464-1.267z"/>
        <path fill="#FEFEFE" d="M72.323 13.852c-1.113-.008-1.915-.078-2.654-.427-.528-.248-.538-.503-.073-.86.464-.357.835-.547 1.566-.322 1.741.53 3.32.084 3.86-1.688.131-.434.355-.87.36-1.307.015-.931.697-1.347 1.384-1.78.417-.26.678-.138.637.325-.139 1.558-.466 3.08-1.377 4.427-.928 1.375-2.419 1.611-3.703 1.632z"/>
        <path fill="#FBFBFB" d="M73.365 9.777a.825.825 0 0 1-.846-.796.837.837 0 0 1 .813-.833c.481.018.748.316.81.775.059.437-.334.84-.777.854z"/>
        <path fill="#FEFEFE" d="M40.7 5.964c-.086-.792-.493-1.39-1.243-1.618-1.884-.574-4.377-.363-5.714 1.849-.843 1.392-1.178 2.922-1.149 4.523.033 1.74.794 2.722 2.334 3a8.227 8.227 0 0 0 4.091-.293c.472-.157.568-.416.449-.9-.13-.529-.413-.546-.813-.428a7.116 7.116 0 0 1-2.291.311c-1.655-.068-2.27-.854-2.055-2.527.044-.35.14-.485.505-.472.798.03 1.598.01 2.396.01.821 0 1.642-.012 2.464 0 .464.009.705-.192.818-.653a8.065 8.065 0 0 0 .207-2.802zm-2.705 2.123h-1.167c-.606 0-1.21-.01-1.815 0-.278 0-.32-.101-.274-.354.296-1.653 2.193-2.742 3.743-2.152.597.227.702.7.698 1.268-.005 1.238.004 1.238-1.185 1.238z"/>
    </g>
</svg>
