<svg xmlns="http://www.w3.org/2000/svg" width="20" height="21" viewBox="0 0 20 21">
    <g fill="none" fill-rule="nonzero">
        <path fill="#F8E52D" d="M10.747 0c1.777.083 3.593.098 5.198 1.151 1.388.905 1.369 1.4.164 2.497-.986.888-1.666 1.29-3.055.296-2.59-1.87-6.553-.4-7.888 2.607a17.621 17.621 0 0 0-1.455 5.962c-.13 1.923-1.627 2.482-2.777 3.361-.497.379-.96-.169-.933-.684.233-4.438.556-8.876 3.518-12.426C5.452.453 8.031.056 10.747 0z"/>
        <path fill="#FEFEFE" d="M9.392 21c-2.323-.016-3.995-.155-5.536-.852-1.104-.495-1.124-1.002-.154-1.714.97-.712 1.742-1.09 3.269-.642 3.632 1.056 6.927.168 8.05-3.367.276-.865.743-1.735.755-2.607.03-1.857 1.452-2.686 2.886-3.55.87-.518 1.414-.275 1.33.65-.29 3.107-.973 6.142-2.875 8.827-1.936 2.742-5.045 3.214-7.725 3.255z"/>
        <path fill="#FBFBFB" d="M11.558 12A1.519 1.519 0 0 1 10 10.533 1.541 1.541 0 0 1 11.498 9c.886.033 1.377.58 1.491 1.426.108.804-.616 1.547-1.43 1.573z"/>
    </g>
</svg>
