<svg xmlns="http://www.w3.org/2000/svg" width="35" height="28" viewBox="0 0 35 28">
    <g fill="#5991E7" fill-rule="nonzero">
        <path d="M22.034 19h-7.068a.956.956 0 0 0-.966.942v2.115c0 .52.433.943.966.943h7.068a.956.956 0 0 0 .966-.943v-2.115a.956.956 0 0 0-.966-.942zm-.276 2.788h-6.516v-1.576h6.516v1.576z"/>
        <path d="M34.657 13.364l.01-.005-5.086-10.344a2.383 2.383 0 0 0-2.143-1.356h-.966V.698A.688.688 0 0 0 25.793 0H9.207a.688.688 0 0 0-.679.698v.961h-.966c-.91 0-1.732.52-2.143 1.356L.333 13.359l.01.005c-.217.37-.343.802-.343 1.265v10.927C0 26.904 1.066 28 2.376 28h30.248C33.934 28 35 26.904 35 25.556V14.63c0-.463-.126-.896-.343-1.265zM26.472 3.21h.966c.34 0 .645.193.798.504l4.165 8.471H29.57V9.579a.688.688 0 0 0-.678-.698h-.84V5.138a.688.688 0 0 0-.678-.697h-.901V3.21zm1.74 7.066v1.909h-3.579c-.614 0-1.174.372-1.426.948l-.977 2.23a.057.057 0 0 1-.052.034h-9.355a.057.057 0 0 1-.053-.034l-.977-2.23a1.566 1.566 0 0 0-1.426-.948h-3.58v-1.909h21.426zM9.886 1.396h15.23V4.44H9.885V1.395zm16.81 4.44V8.88H8.305V5.836h18.39zM6.764 3.714a.887.887 0 0 1 .798-.504h.966v1.23h-.901a.688.688 0 0 0-.679.698v3.743H6.11a.688.688 0 0 0-.678.698v2.606H2.599l4.165-8.47zm25.86 22.736H2.376a.882.882 0 0 1-.869-.894V14.63c0-.493.39-.894.869-.894h7.99c.023 0 .044.014.053.035l.977 2.23c.253.576.812.948 1.427.948h9.354c.615 0 1.174-.372 1.427-.948l.977-2.23a.057.057 0 0 1 .052-.035h7.991c.48 0 .869.401.869.894v10.927c0 .493-.39.894-.869.894z"/>
    </g>
</svg>
