<svg xmlns="http://www.w3.org/2000/svg" width="69" height="66" viewBox="0 0 69 66">
    <g fill="none" fill-rule="evenodd">
        <path fill="#5DD89B" d="M54.397.905l6.344 2.061a5 5 0 0 1 2.413 1.7l3.944 5.108a5 5 0 0 1 .797 4.6L62.53 30.886a5 5 0 0 1-6.3 3.21l-11.413-3.708a5 5 0 0 1-3.21-6.3l6.49-19.972a5 5 0 0 1 6.3-3.21z"/>
        <text fill="#23764D" font-family="Carnas-Bold, Carnas" font-size="9" font-weight="bold" transform="rotate(18 26.843 156.392)">
            <tspan x="4" y="20">PDF</tspan>
        </text>
        <path fill="#FEC200" d="M2.963 7.743l5.89-3.132a5 5 0 0 1 2.9-.555l6.414.712A5 5 0 0 1 22.03 7.39l8.15 15.329a5 5 0 0 1-2.068 6.762l-10.595 5.633a5 5 0 0 1-6.762-2.067L.896 14.505a5 5 0 0 1 2.067-6.762z"/>
        <text fill="#8C721E" font-family="Carnas-Bold, Carnas" font-size="9" font-weight="bold" transform="rotate(-28 19.51 7.956)">
            <tspan x="2" y="20">PPT</tspan>
        </text>
        <path fill="#056BEF" d="M32 4.427h6.67a5 5 0 0 1 2.821.871l5.33 3.64A5 5 0 0 1 49 13.067v17.36a5 5 0 0 1-5 5H32a5 5 0 0 1-5-5v-21a5 5 0 0 1 5-5z"/>
        <text fill="#0A448F" font-family="Carnas-Bold, Carnas" font-size="9" font-weight="bold" transform="translate(27 4.427)">
            <tspan x="2" y="20">DOC</tspan>
        </text>
        <path fill="#10418F" d="M1 27.98c.42-4.369 2.3-6.553 5.636-6.553h21.008c1.842.345 3.136.978 3.883 1.897.746.92 2.116 2.562 4.109 4.928 1.375 2.05 2.812 3.076 4.31 3.076h19.44c4.138.236 6.207 2.187 6.207 5.851v22.746c.06 3.832-2.01 5.748-6.206 5.748H8.38C3.46 65.462 1 63.21 1 58.918V27.979z"/>
        <g fill="#FFF" fill-rule="nonzero">
            <path d="M33.75 53.427v-13.15l4.2 4.2 1.05-1.05-6-6-6 6 1.05 1.05 4.2-4.2v13.15z"/>
        </g>
    </g>
</svg>
