<svg xmlns="http://www.w3.org/2000/svg" width="34" height="34" viewBox="0 0 34 34">
    <g fill="none" fill-rule="nonzero" transform="translate(1 1)">
        <circle cx="16" cy="16" r="16.5" fill="#62C7A4" stroke="#1C202B"/>
        <g fill="#84DBFF">
            <path d="M16.076 22.865c-.026 0-.05.04-.076.04-.025 0-.05-.04-.076-.04h.152z"/>
            <path d="M28.422 26.079A15.975 15.975 0 0 1 16 32c-5.014 0-9.5-2.318-12.422-5.921 2.091-2.797 5.291-4.183 7.912-4.863-.202 1.663.655 3.88.68 3.83.882-2.016 3.83-2.192 3.83-2.192s2.948.176 3.805 2.192c.025.05.907-2.167.68-3.83 2.646.68 5.87 2.066 7.937 4.863z"/>
        </g>
        <path fill="#FFF" d="M19.603 19.654v.025c0 .252-.126 1.864-3.527 3.15h-.152c-3.401-1.286-3.527-2.898-3.527-3.15v-.025c0-.328.075-.656.151-.983.983 1.235 2.167 2.066 3.452 2.066 1.285 0 2.47-.831 3.452-2.066.076.327.151.655.151.983z"/>
        <g fill="#54C0EB">
            <path d="M19.603 19.654s.177 1.814-3.603 3.225c0 0 2.948.176 3.805 2.192.05.05 1.738-4.334-.202-5.417zM12.397 19.654c-1.94 1.083-.252 5.467-.202 5.392C13.077 23.03 16 22.854 16 22.854c-3.78-1.386-3.603-3.2-3.603-3.2z"/>
        </g>
        <g fill="#FFF">
            <path d="M21.291 13.279c-.226 1.562-.907 3.023-2.04 4.132a4.877 4.877 0 0 1-.68.58l-.404-1.285h-4.334l-.403 1.285c-.806-.605-2.495-2.293-2.52-3.88-.705-9.046 6.224-7.131 6.224-7.131 4.661-.328 4.51 3.78 4.157 6.299zM22.224 14.917c-.353.58-.832.982-1.285 1.133.176-.403.327-.831.453-1.26v-.025l.302-1.134h-.025c.101-.377.202-.755.277-1.133.101 0 .202.05.303.1.554.353.529 1.386-.025 2.319zM11.061 16.05c-.453-.15-.932-.554-1.285-1.133-.58-.933-.58-1.966-.025-2.293.05-.026.076-.05.126-.05.303 1.183.655 2.065.73 2.242.127.403.278.831.454 1.234z"/>
        </g>
        <path fill="#324A5E" d="M18.746 4.46c.202-2.318-3.477-2.167-3.477-2.167-5.568.806-6.173 5.997-6.173 5.997l.756-.907c-1.184 2.595.605 7.055.756 7.408.932 3.099 2.998 5.946 5.392 5.946s4.46-2.847 5.392-5.946v-.026c.1-.378.202-.756.277-1.134h-.025c.504-2.015 1.058-4.056 1.058-4.056 1.437-7.232-3.956-5.115-3.956-5.115zm2.545 8.819c-.226 1.562-.907 3.023-2.04 4.132-.227.227-.454.403-.68.58l-.404-1.26h-4.334l-.403 1.285c-.806-.605-1.487-1.436-2.041-2.394a5.35 5.35 0 0 1-.479-1.487c-.705-9.045 6.224-7.13 6.224-7.13 4.661-.353 4.51 3.754 4.157 6.274z"/>
        <path fill="#324A5E" d="M18.746 4.46c.202-2.318-3.477-2.167-3.477-2.167-5.568.806-6.173 5.997-6.173 5.997l.756-.907c-1.184 2.595.605 7.055.756 7.408.932 3.099 2.998 5.946 5.392 5.946s4.46-2.847 5.392-5.946v-.026c.1-.378.202-.756.277-1.134h-.025c.504-2.015 1.058-4.056 1.058-4.056 1.437-7.232-3.956-5.115-3.956-5.115zm2.545 8.819c-.226 1.562-.907 3.023-2.04 4.132-.227.227-.454.403-.68.58l-.404-1.26h-4.334l-.403 1.285c-.806-.605-1.487-1.436-2.041-2.394a5.35 5.35 0 0 1-.479-1.487c-.705-9.045 6.224-7.13 6.224-7.13 4.661-.353 4.51 3.754 4.157 6.274z"/>
        <path fill="#324A5E" d="M18.746 4.46c.202-2.318-3.477-2.167-3.477-2.167-5.568.806-6.173 5.997-6.173 5.997l.756-.907c-1.184 2.595.605 7.055.756 7.408.932 3.099 2.998 5.946 5.392 5.946s4.46-2.847 5.392-5.946v-.026c.1-.378.202-.756.277-1.134h-.025c.504-2.015 1.058-4.056 1.058-4.056 1.437-7.232-3.956-5.115-3.956-5.115zm2.545 8.819c-.226 1.562-.907 3.023-2.04 4.132-.227.227-.454.403-.68.58l-.404-1.26h-4.334l-.403 1.285c-.806-.605-2.495-2.293-2.52-3.88-.705-9.046 6.224-7.131 6.224-7.131 4.661-.353 4.51 3.754 4.157 6.274z"/>
        <path fill="#FFF" d="M14.236 17.587a2.38 2.38 0 0 0 1.764.807c.706 0 1.335-.303 1.764-.807h-3.528z"/>
    </g>
</svg>
