<svg xmlns="http://www.w3.org/2000/svg" width="18" height="18" viewBox="0 0 18 18">
    <g fill="none" fill-rule="nonzero">
        <g fill="#1565C0">
            <path d="M10.359.106a.375.375 0 0 0-.318-.075l-9.75 2.25A.375.375 0 0 0 0 2.65V15.4c0 .185.135.342.318.37l9.75 1.5a.375.375 0 0 0 .432-.37V.4a.375.375 0 0 0-.141-.294z"/>
            <path d="M17.625 15.775h-7.5a.375.375 0 0 1 0-.75h7.125V2.275h-7.125a.375.375 0 0 1 0-.75h7.5c.207 0 .375.168.375.375v13.5a.375.375 0 0 1-.375.375z"/>
        </g>
        <path fill="#FAFAFA" d="M6.375 12.025a.375.375 0 0 1-.36-.272l-1.14-3.988-1.14 3.988a.39.39 0 0 1-.72 0l-1.5-5.25a.375.375 0 1 1 .72-.206l1.14 3.988 1.14-3.989a.39.39 0 0 1 .72 0l1.14 3.989 1.14-3.988a.37.37 0 0 1 .455-.26l.009.003a.375.375 0 0 1 .257.463l-1.5 5.25a.375.375 0 0 1-.361.272z"/>
        <g fill="#1565C0">
            <path d="M16.125 4.525h-6a.375.375 0 0 1 0-.75h6a.375.375 0 0 1 0 .75zM16.125 6.775h-6a.375.375 0 0 1 0-.75h6a.375.375 0 0 1 0 .75zM16.125 9.025h-6a.375.375 0 0 1 0-.75h6a.375.375 0 0 1 0 .75zM16.125 11.275h-6a.375.375 0 0 1 0-.75h6a.375.375 0 0 1 0 .75zM16.125 13.525h-6a.375.375 0 0 1 0-.75h6a.375.375 0 0 1 0 .75z"/>
        </g>
    </g>
</svg>
