<?xml version="1.0" standalone="no"?>
<!DOCTYPE svg PUBLIC "-//W3C//DTD SVG 1.1//EN" "http://www.w3.org/Graphics/SVG/1.1/DTD/svg11.dtd" >
<svg>
<metadata>
Created by FontForge 20090622 at Tue Dec  1 11:16:17 2015
 By deploy user
Copyright (c) 2015 by Dieter Hofrichter. All rights reserved.
</metadata>
<defs>
<font id="Carnas-Light" horiz-adv-x="382" >
  <font-face 
    font-family="Carnas Light"
    font-weight="300"
    font-stretch="normal"
    units-per-em="1000"
    panose-1="2 0 5 3 0 0 0 2 0 4"
    ascent="750"
    descent="-250"
    x-height="498"
    cap-height="709"
    bbox="-153 -274 1178 982"
    underline-thickness="50"
    underline-position="-50"
    unicode-range="U+0020-U+FB04"
  />
<missing-glyph horiz-adv-x="501" 
d="M0 0v707h501v-707h-501zM251 399l170 257h-341zM280 354l172 -257v514zM80 50h341l-170 258zM50 611v-514l171 257z" />
    <glyph glyph-name="f_f" unicode="ff" horiz-adv-x="638" 
d="M184 18q0 -20 -19 -20h-34q-19 0 -19 21v415h-64q-18 0 -18 18v26q0 20 19 20h63v47q0 98 39 139q49 53 173 55q23 0 24 -15q1 -9 1 -29q0 -18 -19 -19q-58 -3 -87 -13t-44 -34q-15 -27 -15 -85v-46h247v66q0 100 38 140q51 53 172 55q23 0 24 -15q3 -24 3 -29
q0 -18 -19 -19q-59 -4 -88.5 -13.5t-43.5 -33.5q-15 -27 -15 -87v-64h116q18 0 18 -18v-29q0 -17 -19 -17h-115v-416q0 -20 -18 -20h-35q-18 0 -18 21v415h-247v-416z" />
    <glyph glyph-name="fi" unicode="fi" horiz-adv-x="562" 
d="M184 18q0 -20 -19 -20h-34q-19 0 -19 21v415h-64q-18 0 -18 18v26q0 20 19 20h63v66q0 99 39 140q49 53 167 55q23 0 24 -15q2 -20 2 -29q0 -18 -19 -19q-54 -3 -82.5 -13t-43.5 -34q-15 -27 -15 -87v-64h271q22 0 22 -24v-456q0 -20 -19 -20h-33q-19 0 -19 20v416h-222
v-416zM487 662q0 -49 -46 -49q-47 0 -47 48q0 51 47 51q46 0 46 -50z" />
    <glyph glyph-name="fl" unicode="fl" horiz-adv-x="577" 
d="M184 18q0 -20 -19 -20h-34q-19 0 -19 21v415h-64q-18 0 -18 18v26q0 20 19 20h63v51q0 101 51 147q30 27 76.5 40.5t139.5 13.5q46 0 73 -5q22 -3 22 -24v-583q0 -41 13 -59q14 -18 54 -24q16 -1 16 -17q0 -18 -4 -30q-3 -12 -20 -12q-85 0 -115 50q-15 27 -15 83v555
q-24 2 -52 2q-105 0 -140 -40q-27 -31 -27 -97v-51h115q18 0 18 -18v-29q0 -17 -18 -17h-115v-416z" />
    <glyph glyph-name="f_f_i" unicode="ffi" horiz-adv-x="881" 
d="M184 18q0 -20 -19 -20h-34q-19 0 -19 21v415h-64q-18 0 -18 18v26q0 20 19 20h63v47q0 98 39 139q49 53 173 55q23 0 24 -15q1 -9 1 -29q0 -18 -19 -19q-58 -3 -87 -13t-44 -34q-15 -27 -15 -85v-46h247v66q0 100 38 140q49 53 169 55q22 0 24 -15q1 -9 1 -29
q0 -18 -19 -19q-55 -4 -83.5 -13.5t-43.5 -33.5q-15 -27 -15 -87v-64h274q19 0 19 -23v-457q0 -20 -19 -20h-33q-19 0 -19 20v416h-222v-416q0 -20 -18 -20h-35q-18 0 -18 21v415h-247v-416zM806 662q0 -49 -47 -49t-47 48q0 51 47 51q23 0 35 -11t12 -39z" />
    <glyph glyph-name="f_f_l" unicode="ffl" horiz-adv-x="896" 
d="M184 18q0 -20 -19 -20h-34q-19 0 -19 21v415h-64q-18 0 -18 18v26q0 20 19 20h63v47q0 98 39 139q49 53 173 55q22 0 23 -15q2 -18 2 -29q0 -18 -19 -19q-59 -4 -87.5 -13.5t-43.5 -33.5q-15 -27 -15 -85v-46h247v51q0 102 50 147q30 27 76.5 40.5t140.5 13.5q45 0 72 -5
q22 -3 22 -24v-583q0 -42 13 -58q15 -19 54 -25q17 -1 17 -17q0 -18 -4 -30q-3 -12 -21 -12q-84 0 -115 50q-15 27 -15 83v555q-24 2 -52 2q-102 0 -139 -40q-28 -30 -28 -97v-51h116q18 0 18 -18v-29q0 -17 -19 -17h-115v-416q0 -20 -18 -20h-35q-18 0 -18 21v415h-247
v-416z" />
    <glyph glyph-name="T_h" unicode="Th" horiz-adv-x="1121" 
d="M325 19q0 -21 -20 -21h-36q-20 0 -20 21v619h-202q-20 0 -20 18v31q0 19 20 19h587v24q0 21 18 21h36q10 0 13.5 -4.5t3.5 -16.5v-261q28 20 81.5 30.5t104.5 10.5q64 0 94.5 -15t42.5 -47q9 -26 9 -98v-332q0 -20 -19 -20h-33q-20 0 -20 20v320q0 50 -6 68
q-8 21 -27.5 30t-63.5 9q-95 0 -139 -24q-14 -9 -18 -16q-6 -12 -6 -31v-356q0 -20 -19 -20h-33q-19 0 -19 20v620h-309v-619z" />
    <glyph glyph-name="Tcaron_h" unicode="&#x164;h" horiz-adv-x="1119" 
d="M325 19q0 -21 -20 -21h-36q-20 0 -20 21v619h-202q-20 0 -20 18v31q0 19 20 19h587v24q0 21 18 21h36q10 0 13.5 -4.5t3.5 -16.5v-261q28 20 81.5 30.5t104.5 10.5q64 0 94.5 -15t42.5 -47q9 -26 9 -98v-332q0 -20 -19 -20h-33q-20 0 -20 20v320q0 50 -6 68
q-8 21 -27.5 30t-63.5 9q-95 0 -139 -24q-14 -9 -18 -16q-6 -12 -6 -31v-356q0 -20 -19 -20h-33q-19 0 -19 20v620h-309v-619zM404 916q15 0 27 -3q12 -4 12 -14q0 -8 -9 -17l-102 -100q-20 -18 -34 -18h-28q-14 0 -31 15l-107 106q-6 6 -6 14q0 10 13 14q14 3 29 3
q13 0 33 -16l85 -71l84 71q17 16 34 16z" />
    <glyph glyph-name="f_b" unicode="fb" horiz-adv-x="877" 
d="M184 18q0 -20 -19 -20h-34q-19 0 -19 21v415h-64q-18 0 -18 18v26q0 20 19 20h63v51q0 101 51 147q30 27 76.5 40.5t139.5 13.5q46 0 73 -5q22 -3 22 -24v-256q56 45 175 45q90 0 132 -60t42 -195q0 -82 -14 -134.5t-45.5 -82t-72.5 -40.5t-104 -11q-85 0 -143 20
q-23 8 -34 25q-7 13 -7 44v608q-24 2 -52 2q-105 0 -140 -40q-27 -31 -27 -97v-51h115q18 0 18 -18v-29q0 -17 -18 -17h-115v-416zM474 99q0 -19 6 -26q7 -10 22 -13q40 -10 87 -10q99 0 130.5 42t31.5 156q0 107 -24 151.5t-102 44.5q-89 0 -133 -27q-12 -7 -15 -14t-3 -22
v-282z" />
    <glyph glyph-name="f_f_b" unicode="ffb" horiz-adv-x="1195" 
d="M184 18q0 -20 -19 -20h-34q-19 0 -19 21v415h-64q-18 0 -18 18v26q0 20 19 20h63v47q0 98 39 139q49 53 172 55q21 0 24 -15q2 -14 2 -29q0 -18 -19 -19q-59 -4 -87.5 -13.5t-43.5 -33.5q-15 -27 -15 -85v-46h247v51q0 102 50 147q30 27 76.5 40.5t140.5 13.5q45 0 72 -5
q22 -3 22 -24v-256q56 45 175 45q90 0 132 -60t42 -195q0 -82 -14 -134.5t-45 -82t-72.5 -40.5t-104.5 -11q-86 0 -143 20q-24 8 -33 25q-8 12 -8 44v608q-24 2 -52 2q-103 0 -139 -39q-28 -30 -28 -98v-51h116q18 0 18 -18v-29q0 -17 -19 -17h-115v-416q0 -20 -18 -20h-35
q-18 0 -18 21v415h-247v-416zM792 99q0 -19 6 -26q6 -10 23 -13q38 -10 85 -10q100 0 131.5 42t31.5 156q0 107 -24 151.5t-102 44.5q-87 0 -132 -27q-13 -8 -16 -14q-3 -7 -3 -22v-282z" />
    <glyph glyph-name="f_f_h" unicode="ffh" horiz-adv-x="1208" 
d="M184 18q0 -20 -19 -20h-34q-19 0 -19 21v415h-64q-18 0 -18 18v26q0 20 19 20h63v47q0 98 39 139q49 53 173 55q23 0 24 -15q1 -9 1 -29q0 -18 -19 -19q-59 -4 -87.5 -13.5t-43.5 -33.5q-15 -27 -15 -85v-46h247v51q0 102 50 147q30 27 76.5 40.5t140.5 13.5q45 0 72 -5
q22 -3 22 -24v-252q27 20 81.5 30.5t103.5 10.5q64 0 95 -15t43 -46q9 -26 9 -98v-333q0 -20 -19 -20h-34q-18 0 -18 20v320q0 49 -8 68q-7 21 -26.5 30t-63.5 9q-84 0 -139 -24q-12 -6 -18 -16q-6 -9 -6 -31v-356q0 -20 -19 -20h-33q-19 0 -19 20v666q-24 2 -52 2
q-102 0 -139 -40q-28 -30 -28 -97v-51h116q18 0 18 -18v-29q0 -17 -19 -17h-115v-416q0 -20 -18 -20h-35q-18 0 -18 21v415h-247v-416z" />
    <glyph glyph-name="f_f_j" unicode="ffj" horiz-adv-x="881" 
d="M184 18q0 -20 -19 -20h-34q-19 0 -19 21v415h-64q-18 0 -18 18v26q0 20 19 20h63v47q0 98 39 139q49 53 173 55q23 0 24 -15q1 -9 1 -29q0 -18 -19 -19q-60 -5 -88 -14t-43 -33q-15 -27 -15 -85v-46h247v66q0 100 38 140q49 53 169 55q23 0 24 -15q1 -9 1 -29
q0 -18 -19 -19q-57 -5 -84.5 -14t-42.5 -33q-15 -27 -15 -87v-64h274q19 0 19 -23v-524q0 -92 -38 -130q-22 -24 -65 -39.5t-79 -15.5q-16 0 -19 14q-4 16 -4 27q0 18 22 22q52 7 84 31q28 22 28 90v484h-222v-416q0 -20 -18 -20h-35q-18 0 -18 21v415h-247v-416zM806 662
q0 -49 -47 -49t-47 48q0 51 47 51q23 0 35 -11t12 -39z" />
    <glyph glyph-name="f_f_k" unicode="ffk" horiz-adv-x="1148" 
d="M184 18q0 -20 -19 -20h-34q-19 0 -19 21v415h-64q-18 0 -18 18v26q0 20 19 20h63v47q0 98 39 139q49 53 172 55q21 0 24 -15q2 -18 2 -29q0 -18 -19 -19q-60 -5 -88 -14t-43 -33q-15 -27 -15 -85v-46h247v51q0 102 50 147q30 27 76.5 40.5t140.5 13.5q45 0 72 -5
q22 -3 22 -24v-414h66q30 0 44 18l130 159q14 17 29 17q3 0 18 -1t17 -1q14 -1 14 -13q0 -9 -10 -21l-155 -184l184 -244q12 -15 12 -24q0 -11 -15 -14q-4 -2 -39 -2q-15 0 -27 17l-162 213q-14 18 -39 18h-67v-227q0 -20 -19 -20h-33q-19 0 -19 20v665q-19 3 -52 3
q-102 0 -139 -40q-28 -30 -28 -97v-51h116q18 0 18 -18v-29q0 -17 -19 -17h-115v-416q0 -20 -18 -20h-35q-18 0 -18 21v415h-247v-416z" />
    <glyph glyph-name="f_h" unicode="fh" horiz-adv-x="890" 
d="M184 18q0 -20 -19 -20h-34q-19 0 -19 21v415h-64q-18 0 -18 18v26q0 20 19 20h63v51q0 101 51 147q30 27 76.5 40.5t139.5 13.5q46 0 73 -5q22 -3 22 -24v-252q27 20 81 30.5t103 10.5q65 0 95.5 -15t42.5 -46q10 -26 10 -98v-333q0 -20 -19 -20h-34q-19 0 -19 20v320
q0 51 -7 68q-7 21 -26.5 30t-63.5 9q-94 0 -138 -24q-17 -11 -20 -16q-5 -10 -5 -31v-356q0 -20 -19 -20h-33q-19 0 -19 20v666q-22 2 -52 2q-105 0 -140 -40q-27 -31 -27 -97v-51h115q18 0 18 -18v-29q0 -17 -18 -17h-115v-416z" />
    <glyph glyph-name="f_j" unicode="fj" horiz-adv-x="562" 
d="M184 18q0 -20 -19 -20h-34q-19 0 -19 21v415h-64q-18 0 -18 18v26q0 20 19 20h63v66q0 99 39 140q49 53 168 55q23 0 24 -15q1 -9 1 -29q0 -18 -19 -19q-55 -4 -83 -13.5t-43 -33.5q-15 -27 -15 -87v-64h273q20 0 20 -23v-524q0 -92 -38 -130q-22 -24 -65 -39.5
t-79 -15.5q-16 0 -19 14q-3 10 -3 27q0 18 20 22q56 9 84 31q29 23 29 90v484h-222v-416zM487 662q0 -49 -46 -49q-47 0 -47 48q0 51 47 51q46 0 46 -50z" />
    <glyph glyph-name="f_k" unicode="fk" horiz-adv-x="830" 
d="M184 18q0 -20 -19 -20h-34q-19 0 -19 21v415h-64q-18 0 -18 18v26q0 20 19 20h63v51q0 101 51 147q30 27 76.5 40.5t139.5 13.5q46 0 73 -5q22 -3 22 -25v-413h66q30 0 44 18l130 159q14 17 28 17q24 0 36 -2q14 -3 14 -13q0 -9 -10 -21l-155 -185l184 -243
q11 -14 11 -24q0 -12 -15 -15q-1 0 -18 -0.5t-20 -0.5q-16 0 -28 17l-162 213q-13 18 -38 18h-67v-227q0 -20 -19 -20h-33q-19 0 -19 20v666q-26 2 -53 2q-104 0 -139 -40q-27 -31 -27 -97v-51h115q18 0 18 -18v-29q0 -17 -18 -17h-115v-416z" />
    <glyph glyph-name="uni0162_h" unicode="&#x162;h" horiz-adv-x="1119" 
d="M301 -61q59 -1 78.5 -25.5t19.5 -67.5q0 -98 -126 -98q-29 0 -52 5q-15 4 -15 18q0 9 3 22q4 15 19 15q4 0 22 -3q13 -2 27 -2q54 0 54 41q0 23 -11.5 32.5t-41.5 9.5h-17q-19 0 -19 18q0 11 5 33l13 63q-11 3 -11 19v619h-202q-20 0 -20 18v31q0 19 20 19h587v24
q0 21 18 21h36q10 0 13.5 -4.5t3.5 -16.5v-261q28 20 81.5 30.5t104.5 10.5q64 0 94.5 -15t42.5 -47q9 -26 9 -98v-332q0 -20 -19 -20h-33q-20 0 -20 20v320q0 50 -6 68q-8 21 -27.5 30t-63.5 9q-95 0 -139 -24q-14 -9 -18 -16q-6 -12 -6 -31v-356q0 -20 -19 -20h-33
q-19 0 -19 20v620h-309v-619q0 -18 -14 -20z" />
    <glyph glyph-name="uni021A_h" unicode="&#x21a;h" horiz-adv-x="1119" 
d="M325 19q0 -21 -20 -21h-36q-20 0 -20 21v619h-202q-20 0 -20 18v31q0 19 20 19h587v24q0 21 18 21h36q10 0 13.5 -4.5t3.5 -16.5v-261q28 20 81.5 30.5t104.5 10.5q64 0 94.5 -15t42.5 -47q9 -26 9 -98v-332q0 -20 -19 -20h-33q-20 0 -20 20v320q0 50 -6 68
q-8 21 -27.5 30t-63.5 9q-95 0 -139 -24q-14 -9 -18 -16q-6 -12 -6 -31v-356q0 -20 -19 -20h-33q-19 0 -19 20v620h-309v-619zM280 -64h21q23 0 23 -26q0 -105 -63 -171q-11 -13 -23 -13q-11 0 -19 7q-11 8 -11 17q0 7 7 16q36 50 38 143q0 27 27 27z" />
    <glyph glyph-name=".notdef" horiz-adv-x="501" 
d="M0 0v707h501v-707h-501zM251 399l170 257h-341zM280 354l172 -257v514zM80 50h341l-170 258zM50 611v-514l171 257z" />
    <glyph glyph-name=".null" horiz-adv-x="0" 
 />
    <glyph glyph-name="nonmarkingreturn" horiz-adv-x="333" 
 />
    <glyph glyph-name="space" unicode=" " horiz-adv-x="224" 
 />
    <glyph glyph-name="exclam" unicode="!" horiz-adv-x="287" 
d="M215 47q0 -56 -56 -56q-55 0 -55 56q0 30 16 44t40 14q55 0 55 -58zM195 238q0 -21 -21 -21h-21q-23 0 -23 23q-7 394 -7 439q0 27 23 27h35q22 0 22 -26q0 -45 -8 -442z" />
    <glyph glyph-name="quotedbl" unicode="&#x22;" horiz-adv-x="353" 
d="M125 472q-1 -23 -21 -23h-13q-11 0 -16.5 5.5t-6.5 19.5q-8 138 -8 212q0 30 27 30h22q25 0 25 -27q0 -57 -9 -217zM284 472q0 -23 -21 -23h-14q-21 0 -22 25q-8 138 -8 212q0 30 27 30h21q25 0 25 -27q0 -75 -8 -217z" />
    <glyph glyph-name="numbersign" unicode="#" horiz-adv-x="596" 
d="M167 3q-3 -19 -21 -19q-17 0 -22.5 4t-5.5 13q0 8 2 20l28 195h-87q-18 0 -18 16v33q0 18 19 18h96l18 120h-94q-18 0 -18 16v33q0 17 19 17h102l30 199q4 23 22 23q29 0 29 -15q0 -9 -2 -21l-28 -186h158l30 199q3 23 20 23q19 0 24.5 -3t5.5 -12t-2 -21l-28 -186h90
q19 0 19 -17v-33q0 -16 -18 -16h-101l-18 -120h96q19 0 19 -18v-33q0 -16 -18 -16h-107l-31 -213q-3 -19 -21 -19q-17 0 -22.5 4t-5.5 13q0 8 2 20l29 195h-159zM226 403l-18 -120h159l18 120h-159z" />
    <glyph glyph-name="dollar" unicode="$" horiz-adv-x="548" 
d="M310 -85q0 -19 -16 -19h-25q-17 0 -17 19v79q-103 2 -172 32q-17 8 -17 20q0 11 6 31q7 16 20 16q6 0 25 -7q68 -28 149 -28q50 0 82.5 11t46 31t18 37.5t4.5 41.5q0 45 -23 72t-100 45l-86 21q-66 16 -99.5 61t-33.5 111q0 168 180 185v83q0 20 18 20h24q16 0 16 -20
v-81q81 -2 136 -20q17 -6 17 -21q0 -8 -7 -31q-3 -13 -16 -13q-8 0 -24 4q-63 17 -127 17q-83 0 -113 -30t-30 -87q0 -47 21 -74t91 -44l79 -20q84 -26 117.5 -62t33.5 -109q0 -170 -178 -189v-82z" />
    <glyph glyph-name="percent" unicode="%" horiz-adv-x="847" 
d="M342 474q0 -126 -34.5 -172t-118.5 -46q-80 0 -114.5 45t-34.5 169t39.5 169t115.5 45q82 0 114.5 -41.5t32.5 -168.5zM285 473q0 98 -19.5 130t-72.5 32q-51 0 -74 -34.5t-23 -130.5q0 -100 21.5 -132.5t71.5 -32.5q54 0 75 32.5t21 135.5zM278 -15q-8 -17 -22 -17
q-15 0 -19 2q-6 3 -6 10q0 8 7 22l331 687q11 23 24 23q10 0 18 -2q9 -1 9 -10q0 -8 -9 -26zM809 210q0 -126 -35 -172t-118 -46q-81 0 -115.5 45t-34.5 169t39.5 169t115.5 45q55 0 85 -15.5t46.5 -61.5t16.5 -133zM752 209q0 98 -20 130t-73 32q-51 0 -73.5 -34
t-22.5 -131q0 -100 21 -132.5t72 -32.5q53 0 74.5 32.5t21.5 135.5z" />
    <glyph glyph-name="ampersand" unicode="&#x26;" horiz-adv-x="720" 
d="M543 68q-74 -81 -223 -81q-251 0 -251 201q0 76 37 121t124 77q-78 77 -78 160q0 76 45.5 122t144.5 46q63 0 110 -11q27 -6 27 -21t-7 -36q-4 -12 -16 -12q-5 0 -38 7q-30 7 -79 7q-67 0 -90.5 -26.5t-23.5 -71.5q0 -34 18 -65t60 -75q61 -65 233 -232q23 50 23 123
q0 15 -2 34.5t-2 21.5q0 17 14 20q14 4 33 4q11 0 15.5 -4.5t7.5 -16.5t3 -49q0 -114 -41 -186q36 -36 86 -81q16 -14 16 -23q0 -11 -13 -17q-20 -8 -39 -8q-17 0 -35 17q-38 33 -59 55zM498 116q-139 132 -227 225q-66 -23 -96 -57t-30 -92q0 -66 44 -103t134 -37
q126 0 175 64z" />
    <glyph glyph-name="quotesingle" unicode="'" horiz-adv-x="194" 
d="M125 472q-1 -23 -21 -23h-13q-11 0 -16.5 5.5t-6.5 19.5q-8 138 -8 212q0 30 27 30h22q25 0 25 -27q0 -57 -9 -217z" />
    <glyph glyph-name="parenleft" unicode="(" horiz-adv-x="315" 
d="M129 313q0 -79 11.5 -143.5t25 -103.5t42 -77.5t45 -55t51.5 -47.5q6 -4 6 -13q0 -7 -10 -19q-8 -9 -16 -9q-7 0 -23 10q-202 126 -202 456q0 313 201 447q14 9 23 9q7 0 16 -11q9 -9 9 -18q0 -6 -6 -12q-52 -40 -87 -85t-60.5 -129.5t-25.5 -198.5z" />
    <glyph glyph-name="parenright" unicode=")" horiz-adv-x="315" 
d="M185 300q0 77 -11 140.5t-25 103t-41.5 78t-45.5 56.5t-51 48q-7 5 -7 13q0 5 11 20q7 8 15 8q9 0 22 -9q203 -127 203 -456q0 -314 -201 -447q-13 -10 -22 -10q-8 0 -17 12q-9 9 -9 17q0 7 6 13q54 43 88.5 87.5t59.5 128t25 197.5z" />
    <glyph glyph-name="asterisk" unicode="*" horiz-adv-x="410" 
d="M203 464q-48 -72 -72 -104q-7 -10 -16 -10q-8 0 -26 14q-10 7 -10 17q0 6 6 16q17 24 80 100q-76 20 -120 33q-18 5 -18 19q0 11 7 26q6 15 20 15q7 0 17 -4l110 -39q-6 120 -6 122q0 14 6 20.5t25 6.5q18 0 23.5 -5.5t5.5 -20.5q0 -68 -4 -124q80 30 113 41q9 3 19 3
q12 0 16 -13q5 -14 5 -26q0 -15 -16 -20q-40 -12 -124 -35l81 -100q6 -10 6 -15q0 -10 -11 -18q-18 -12 -26 -12q-10 0 -17 9z" />
    <glyph glyph-name="plus" unicode="+" horiz-adv-x="701" 
d="M380 53q0 -18 -19 -18h-22q-18 0 -18 18v212h-213q-18 0 -18 20v20q0 20 18 20h212v210q0 19 19 19h22q19 0 19 -19v-210h213q18 0 18 -20v-20q0 -20 -18 -20h-213v-212z" />
    <glyph glyph-name="comma" unicode="," horiz-adv-x="220" 
d="M116 111h27q24 0 24 -26q0 -62 -25 -127.5t-67 -109.5q-16 -16 -25 -16q-10 0 -23 9q-13 10 -13 19q0 10 9 21q59 74 65 198q2 32 28 32z" />
    <glyph glyph-name="hyphen" unicode="-" horiz-adv-x="308" 
d="M252 234h-196q-21 0 -21 18v31q0 19 21 19h195q21 0 21 -19v-32q0 -17 -20 -17z" />
    <glyph glyph-name="period" unicode="." horiz-adv-x="220" 
d="M166 47q0 -56 -57 -56q-54 0 -54 56q0 58 56 58q55 0 55 -58z" />
    <glyph glyph-name="slash" unicode="/" horiz-adv-x="381" 
d="M73 -82q-8 -19 -22 -19q-15 0 -29 3q-9 3 -9 13q0 6 5 18l286 795q8 24 23 24q21 0 31 -3q9 -3 9 -12q0 -7 -6 -25z" />
    <glyph glyph-name="zero" unicode="0" horiz-adv-x="559" 
d="M515 344q0 -141 -25.5 -219.5t-75.5 -108t-137 -29.5q-84 0 -132.5 28.5t-74.5 105.5t-26 215q0 107 17 178.5t51.5 108.5t75.5 51t98 14q51 0 86 -8t64 -29.5t45 -60t25 -99t9 -147.5zM440 344q0 115 -16 175t-48.5 81.5t-93.5 21.5q-57 0 -90.5 -22t-53 -85t-19.5 -177
q0 -118 18.5 -181.5t50.5 -83.5t90 -20q45 0 73 10.5t49.5 41.5t30.5 88.5t9 150.5z" />
    <glyph glyph-name="one" unicode="1" horiz-adv-x="559" 
d="M435 0h-270q-19 0 -19 19v29q0 19 19 19h106v530l-109 -43q-14 -6 -21 -6q-9 0 -13 10q-13 34 -13 37q0 9 13 15l127 54q27 12 49 12h4q36 0 36 -39v-570h90q21 0 21 -19v-30q0 -18 -20 -18z" />
    <glyph glyph-name="two" unicode="2" horiz-adv-x="559" 
d="M468 0h-380q-29 0 -41.5 10.5t-12.5 36.5q0 35 29 58q196 162 259 224q81 79 81 154q0 67 -33 103t-119 36q-61 0 -118 -19q-28 -10 -33 -10q-10 0 -15 11q-8 22 -8 32q0 15 24 23q73 29 164 29q119 0 165.5 -51.5t46.5 -143.5q0 -108 -88 -193q-74 -74 -278 -234
q59 1 357 1q20 0 20 -18v-30q0 -19 -20 -19z" />
    <glyph glyph-name="three" unicode="3" horiz-adv-x="559" 
d="M329 357q67 -5 105.5 -47t38.5 -118q0 -104 -58.5 -154.5t-180.5 -50.5q-94 0 -151 17q-24 8 -24 23q0 11 9 36q5 10 16 10q5 0 33 -8q45 -12 116 -12q97 0 131.5 35.5t34.5 100.5q0 66 -38 97t-137 33q-19 0 -27.5 7t-8.5 26t9 26.5t27 8.5q89 1 123.5 31t34.5 84
q0 66 -31.5 93t-114.5 27q-51 0 -105 -15q-5 -2 -12.5 -4.5l-12 -4t-8.5 -1.5q-10 0 -13 9q-10 28 -10 34q0 14 24 22q68 26 152 26q119 0 162.5 -43.5t43.5 -138.5q0 -58 -34.5 -97.5t-93.5 -51.5z" />
    <glyph glyph-name="four" unicode="4" horiz-adv-x="559" 
d="M361 177h-284q-36 0 -36 40q0 21 15 54l201 389q13 25 28 25q24 0 44 -4q9 -4 9 -12q0 -10 -8 -26l-212 -398h243v169q0 23 19 23h33q20 0 20 -22v-170h90q21 0 21 -20v-29q0 -19 -21 -19h-90v-158q0 -21 -20 -21h-33q-19 0 -19 21v158z" />
    <glyph glyph-name="five" unicode="5" horiz-adv-x="559" 
d="M163 404q62 8 118 8q114 0 161.5 -45t47.5 -160q0 -220 -246 -220q-95 0 -153 17q-24 8 -24 23q0 5 9 34q3 12 16 12q4 0 39 -10q45 -10 118 -10q89 0 128 37.5t39 114.5q0 83 -37.5 112.5t-114.5 29.5q-32 0 -77.5 -4.5t-51.5 -4.5q-38 0 -38 42q0 17 2 65l11 205
q2 26 22 26h302q20 0 20 -18v-31q0 -18 -21 -18h-260z" />
    <glyph glyph-name="six" unicode="6" horiz-adv-x="559" 
d="M131 358q20 28 68.5 47t112.5 19q104 0 151.5 -50t47.5 -163q0 -224 -226 -224q-111 0 -169 70t-58 238q0 78 6 133.5t23.5 107.5t48 83.5t81 50t120.5 18.5q83 0 120 -14q12 -4 12 -16q0 -5 -8 -37q-4 -10 -12 -10q-5 0 -15.5 2t-12.5 2q-35 7 -81 7q-38 0 -67 -6
t-50 -15.5t-36 -28t-24.5 -37t-15.5 -49.5t-9.5 -58t-6.5 -70zM133 258q0 -44 5 -71q21 -135 152 -135q77 0 113.5 39t36.5 122q0 71 -32 108.5t-106 37.5q-122 0 -160 -59q-9 -16 -9 -42z" />
    <glyph glyph-name="seven" unicode="7" horiz-adv-x="559" 
d="M419 611q-15 0 -125 -0.5t-223 -0.5q-22 0 -22 18v30q0 18 21 18h376q28 0 39.5 -10t11.5 -30q0 -22 -16 -61l-222 -553q-10 -27 -29 -27q-23 0 -39 3q-13 3 -13 17q0 11 9 31z" />
    <glyph glyph-name="eight" unicode="8" horiz-adv-x="559" 
d="M374 356q133 -23 133 -170q0 -101 -56 -150t-172 -49q-118 0 -172.5 47t-54.5 148q0 139 131 173q-110 29 -110 158q0 175 212 175q107 0 155.5 -40.5t48.5 -132.5q0 -126 -115 -159zM433 187q0 133 -153 133q-154 0 -154 -132q0 -78 40 -107.5t113 -29.5q74 0 114 31
t40 105zM416 507q0 59 -30 87.5t-106 28.5q-75 0 -104.5 -30t-29.5 -90q0 -62 37.5 -90.5t96.5 -28.5q53 0 94.5 29t41.5 94z" />
    <glyph glyph-name="nine" unicode="9" horiz-adv-x="559" 
d="M427 312q-49 -57 -178 -57q-104 0 -151.5 49.5t-47.5 160.5q0 107 57.5 165t173.5 58q111 0 165 -67.5t54 -240.5q0 -78 -5.5 -133t-22.5 -107.5t-47 -84t-80 -50.5t-121 -19q-88 0 -132 16q-11 4 -11 14q0 8 8 40q3 11 13 11q5 0 14.5 -2t10.5 -2q51 -11 96 -11
q44 0 77 8t54.5 26.5t34.5 37.5t21 53.5t11 61.5t6 73zM426 414q0 50 -6 82q-10 58 -42 92.5t-103 34.5q-154 0 -154 -160q0 -71 32 -107.5t106 -36.5q60 0 103.5 16.5t54.5 35.5q9 16 9 43z" />
    <glyph glyph-name="colon" unicode=":" horiz-adv-x="240" 
d="M186 47q0 -56 -57 -56q-54 0 -54 56q0 58 56 58q55 0 55 -58zM186 441q0 -58 -57 -58q-22 0 -38 13t-16 44q0 58 56 58q55 0 55 -57z" />
    <glyph glyph-name="semicolon" unicode=";" horiz-adv-x="240" 
d="M186 441q0 -58 -57 -58q-53 0 -53 57q0 58 55 58t55 -57zM127 111h26q25 0 25 -26q0 -62 -25.5 -127.5t-67.5 -109.5q-14 -16 -24 -16q-11 0 -24 9q-13 10 -13 19q0 10 9 21q61 73 65 198q2 32 29 32z" />
    <glyph glyph-name="less" unicode="&#x3c;" horiz-adv-x="701" 
d="M177 295l378 -173q15 -6 15 -24q0 -13 -2 -29q-3 -14 -15 -14q-3 0 -18 6l-407 192q-15 7 -15 29v23q0 20 15 27l410 198q8 5 17 5t12 -13q3 -14 3 -28q0 -17 -16 -25z" />
    <glyph glyph-name="equal" unicode="=" horiz-adv-x="701" 
d="M611 186q0 -20 -18 -20h-485q-18 0 -18 20v19q0 19 18 19h485q18 0 18 -19v-19zM611 380q0 -19 -18 -19h-485q-18 0 -18 19v21q0 19 18 19h485q18 0 18 -19v-21z" />
    <glyph glyph-name="greater" unicode="&#x3e;" horiz-adv-x="701" 
d="M524 295l-378 172q-15 7 -15 25q0 17 3 29q3 14 15 14q7 0 17 -5l407 -193q15 -7 15 -29v-23q0 -21 -15 -28l-410 -198q-10 -4 -16 -4q-9 0 -13 13q-2 9 -2 28q0 18 15 24z" />
    <glyph glyph-name="question" unicode="?" horiz-adv-x="409" 
d="M185 217h-22q-20 0 -20 15q-1 23 -1 52q0 48 14.5 75t58.5 56q49 32 67.5 63.5t18.5 76.5q0 98 -112 98q-60 0 -109 -13q-12 -3 -19 -3q-12 0 -16 12q-6 20 -6 29q0 13 15 20q61 22 143 22q100 0 140 -40.5t40 -114.5q0 -62 -19.5 -97t-80.5 -77q-43 -30 -56 -49t-15 -57
q-1 -14 -2 -32.5t-1 -20.5q0 -6 -5.5 -10.5t-12.5 -4.5zM226 47q0 -56 -56 -56q-55 0 -55 56q0 58 55 58q56 0 56 -58z" />
    <glyph glyph-name="at" unicode="@" horiz-adv-x="805" 
d="M483 110q-48 -53 -131 -53q-130 0 -130 126q0 68 27.5 136.5t74.5 109.5q53 46 144 46q58 0 107 -18q20 -8 20 -26t-5 -38l-48 -220q-5 -22 -5 -40q0 -24 23 -24q21 0 44 14q49 32 76.5 98.5t27.5 139.5q0 245 -256 245q-152 0 -248.5 -107.5t-96.5 -273.5
q0 -143 76 -221.5t226 -78.5q117 0 214 35q22 8 28 8q8 0 15 -16q3 -8 3 -14q0 -10 -23 -19q-106 -42 -239 -42q-167 0 -259.5 89.5t-92.5 258.5q0 185 110.5 304.5t288.5 119.5q146 0 225.5 -70.5t79.5 -214.5q0 -123 -62.5 -213.5t-153.5 -90.5q-59 0 -60 50zM489 181
l44 200q0 2 1.5 7.5t2 10t0.5 6.5q0 12 -13 16q-28 7 -62 7q-66 0 -106 -35q-34 -31 -55.5 -88t-21.5 -111q0 -46 21.5 -67.5t67.5 -21.5q54 0 96 33q8 6 15 15q6 8 10 28z" />
    <glyph glyph-name="A" unicode="A" horiz-adv-x="598" 
d="M159 222l-70 -199q-5 -15 -9.5 -20.5t-14.5 -5.5q-33 0 -47 3q-10 2 -10 14q0 6 7 27l222 619q10 28 22.5 39t37.5 11h15q23 0 34 -10.5t21 -39.5l215 -618q7 -18 7 -28t-9 -14q-9 -3 -47 -3q-10 0 -15 6t-10 20l-70 199h-279zM179 289h239l-118 352z" />
    <glyph glyph-name="B" unicode="B" horiz-adv-x="636" 
d="M297 0h-104q-49 0 -70 21t-21 71v519q0 47 19.5 71t68.5 24h108q52 0 104 -6q78 -8 115 -49.5t37 -119.5q0 -66 -25 -104.5t-80 -56.5q128 -30 128 -165q0 -142 -103 -183q-56 -22 -177 -22zM177 335v-228q0 -41 39 -41h93q88 0 125 15q66 28 66 129q0 80 -68 111
q-33 14 -109 14h-146zM177 399h144q77 0 100 12q57 27 57 109q0 52 -18.5 75.5t-52.5 36.5q-26 9 -100 9h-98q-32 0 -32 -38v-204z" />
    <glyph glyph-name="C" unicode="C" horiz-adv-x="594" 
d="M138 357q0 -56 4 -97t16.5 -82t34 -66.5t59.5 -41.5t91 -16q81 0 160 21q25 7 33 7q13 0 17 -14q6 -18 6 -29q0 -14 -22 -22q-91 -30 -203 -30q-138 0 -206 79.5t-68 275.5q0 202 64.5 289.5t231.5 87.5q105 0 165 -15q23 -5 23 -22q0 -18 -8 -37q-3 -10 -16 -10
q-4 0 -32 6q-53 11 -135 11q-56 0 -96 -15.5t-63 -39.5t-36 -64.5t-16.5 -80t-3.5 -95.5z" />
    <glyph glyph-name="D" unicode="D" horiz-adv-x="700" 
d="M272 0h-81q-48 0 -68.5 21t-20.5 69v523q0 49 20.5 71t70.5 22h87q117 0 181 -19q178 -51 178 -326q0 -131 -41 -215.5t-142 -121.5q-64 -24 -184 -24zM177 109q0 -41 38 -41h75q96 0 148 24q68 32 95.5 99.5t27.5 169.5q0 200 -115 254q-52 24 -159 24h-76
q-34 0 -34 -39v-491z" />
    <glyph glyph-name="E" unicode="E" horiz-adv-x="557" 
d="M499 0h-303q-50 0 -72 20t-22 73v518q0 51 20.5 73t72.5 22h290q20 0 20 -19v-31q0 -18 -20 -18h-275q-33 0 -33 -38v-198h278q20 0 20 -20v-30q0 -18 -20 -18h-278v-225q0 -41 39 -41h283q21 0 21 -19v-31q0 -18 -21 -18z" />
    <glyph glyph-name="F" unicode="F" horiz-adv-x="530" 
d="M177 20q0 -22 -20 -22h-36q-19 0 -19 21v592q0 50 20.5 72.5t70.5 22.5h289q21 0 21 -19v-31q0 -18 -21 -18h-271q-34 0 -34 -40v-220h263q21 0 21 -19v-31q0 -18 -21 -18h-263v-290z" />
    <glyph glyph-name="G" unicode="G" horiz-adv-x="663" 
d="M595 76q0 -22 -7 -34q-7 -11 -25 -20q-79 -35 -224 -35q-143 0 -211 79t-68 276q0 201 68 289t240 88q105 0 169 -16q24 -5 24 -21q0 -17 -8 -38q-3 -10 -14 -10q-9 0 -34 5q-75 13 -150 13q-55 0 -95 -16t-63 -41.5t-36.5 -65.5t-18 -79.5t-4.5 -92.5q0 -39 1.5 -68
t6.5 -62t13.5 -57t24 -47.5t37 -37.5t52.5 -23t70 -9q91 0 158 18q13 4 18.5 11t5.5 24v198h-159q-17 0 -17 17v34q0 17 18 17h207q21 0 21 -23v-273z" />
    <glyph glyph-name="H" unicode="H" horiz-adv-x="708" 
d="M177 19q0 -21 -20 -21h-36q-19 0 -19 21v669q0 21 20 21h37q18 0 18 -21v-286h354v286q0 21 21 21h36q18 0 18 -21v-669q0 -21 -20 -21h-35q-20 0 -20 21v315h-354v-315z" />
    <glyph glyph-name="I" unicode="I" horiz-adv-x="279" 
d="M177 19q0 -21 -20 -21h-36q-19 0 -19 21v669q0 21 20 21h37q18 0 18 -21v-669z" />
    <glyph glyph-name="J" unicode="J" horiz-adv-x="308" 
d="M207 51q0 -95 -44 -136q-25 -23 -71.5 -42t-75.5 -19q-17 0 -21 14q-4 15 -4 30q0 17 20 21q61 13 86 33q34 26 34 97v639q0 21 21 21h36q19 0 19 -21v-637z" />
    <glyph glyph-name="K" unicode="K" horiz-adv-x="611" 
d="M177 19q0 -21 -20 -21h-36q-19 0 -19 21v669q0 21 20 21h37q18 0 18 -21v-287h83q32 0 44 17l198 274q12 17 28 17q31 0 41 -2q12 -1 12 -13q0 -9 -10 -23q-178 -243 -223 -299l241 -333q13 -17 13 -25q0 -12 -13 -14q-15 -2 -48 -2q-15 0 -27 17l-218 302q-12 17 -39 17
h-82v-315z" />
    <glyph glyph-name="L" unicode="L" horiz-adv-x="545" 
d="M497 0h-303q-49 0 -70.5 20.5t-21.5 68.5v599q0 21 20 21h37q18 0 18 -21v-579q0 -41 38 -41h282q21 0 21 -19v-31q0 -18 -21 -18z" />
    <glyph glyph-name="M" unicode="M" horiz-adv-x="828" 
d="M176 19q0 -21 -20 -21h-36q-18 0 -18 21v627q0 64 54 64h18q28 0 38.5 -11.5t27.5 -49.5q148 -333 175 -405q22 55 175 404q7 17 11.5 25.5t12 18.5t18 14t24.5 4h19q31 0 41 -14.5t10 -49.5v-626q0 -22 -20 -22h-35q-19 0 -19 22q0 496 3 617q-33 -87 -195 -453
q-9 -20 -17.5 -28t-22.5 -8h-11q-26 0 -41 35q-179 413 -195 454q3 -126 3 -618z" />
    <glyph glyph-name="N" unicode="N" horiz-adv-x="716" 
d="M175 19q0 -21 -20 -21h-34q-19 0 -19 21v635q0 30 12 43t38 13h19q22 0 32.5 -9t23.5 -32q265 -473 316 -581q-1 78 -1 596q0 24 21 24h32q19 0 19 -22v-646q0 -45 -43 -45h-18q-23 0 -33.5 9t-24.5 34q-283 506 -322 585q2 -182 2 -604z" />
    <glyph glyph-name="O" unicode="O" horiz-adv-x="693" 
d="M632 358q0 -145 -32.5 -227t-93 -113t-164.5 -31q-75 0 -125 16.5t-86.5 58t-53.5 114t-17 181.5q0 88 14.5 152.5t39.5 104.5t63 63.5t79 32.5t94 9q61 0 102.5 -8t78 -30.5t57.5 -62.5t32.5 -104t11.5 -156zM554 356q0 95 -10.5 153t-37.5 90t-63 42.5t-96 10.5
q-72 0 -115 -22t-68.5 -88t-25.5 -185q0 -96 12.5 -156.5t40.5 -92.5t63 -43t90 -11t89.5 10.5t64 41.5t43 92.5t13.5 157.5z" />
    <glyph glyph-name="P" unicode="P" horiz-adv-x="620" 
d="M177 19q0 -21 -21 -21h-35q-19 0 -19 21v594q0 48 19.5 70.5t69.5 22.5h89q122 0 178 -22q102 -42 102 -180q0 -151 -133 -189q-52 -15 -142 -15h-108v-281zM177 364h114q87 0 125 16q66 28 66 120q0 97 -65 124q-37 16 -132 16h-74q-18 0 -26 -8.5t-8 -30.5v-237z" />
    <glyph glyph-name="Q" unicode="Q" horiz-adv-x="693" 
d="M632 358q0 -250 -102 -325l143 -93q9 -7 9 -15q0 -7 -22 -41q-6 -9 -14 -9q-7 0 -13 5l-180 119q-49 -12 -111 -12q-75 0 -125 16.5t-86.5 58t-53.5 114t-17 181.5q0 88 14.5 152.5t39.5 104.5t63 63.5t79 32.5t94 9q61 0 102.5 -8t78 -30.5t57.5 -62.5t32.5 -104
t11.5 -156zM554 356q0 95 -10.5 153t-37.5 90t-63 42.5t-96 10.5q-72 0 -115 -22t-68.5 -88t-25.5 -185q0 -96 12.5 -156.5t40.5 -92.5t63 -43t90 -11t89.5 10.5t64 41.5t43 92.5t13.5 157.5z" />
    <glyph glyph-name="R" unicode="R" horiz-adv-x="623" 
d="M177 19q0 -21 -21 -21h-35q-19 0 -19 21v593q0 49 20 71.5t70 22.5h79q125 0 178 -21q55 -22 78 -65t23 -110q0 -149 -137 -190l160 -281q10 -20 10 -26q0 -10 -10 -12q-14 -4 -46 -4q-17 0 -28 20l-159 291q-40 -2 -64 -2h-99v-287zM177 371h104q84 0 126 17
q66 28 66 119q0 53 -16.5 79t-48.5 39q-34 15 -129 15h-64q-38 0 -38 -39v-230z" />
    <glyph glyph-name="S" unicode="S" horiz-adv-x="563" 
d="M348 375q91 -27 126.5 -65.5t35.5 -117.5q0 -100 -57 -152.5t-188 -52.5q-110 0 -196 31q-20 7 -20 22q0 10 9 33q6 17 20 17q4 0 28 -8q70 -27 159 -27q55 0 91 11.5t51.5 32.5t20.5 40t5 44q0 44 -25 72t-109 53l-97 28q-142 41 -142 182q0 98 57 149.5t184 51.5
q99 0 163 -20q18 -5 18 -21q0 -12 -7 -33q-4 -14 -18 -14q-3 0 -25 5q-76 16 -137 16q-91 0 -124.5 -33t-33.5 -94q0 -45 24 -73.5t99 -50.5z" />
    <glyph glyph-name="T" unicode="T" horiz-adv-x="574" 
d="M325 19q0 -21 -20 -21h-36q-20 0 -20 21v619h-202q-20 0 -20 18v31q0 19 20 19h480q21 0 21 -19v-31q0 -18 -21 -18h-202v-619z" />
    <glyph glyph-name="U" unicode="U" horiz-adv-x="692" 
d="M597 688v-406q0 -83 -5 -125.5t-23 -73.5q-55 -97 -227 -97q-85 0 -141.5 23t-83.5 81q-22 48 -22 190v408q0 21 20 21h37q18 0 18 -21v-435q0 -103 22 -138q38 -61 154 -61q123 0 154 57q24 42 24 138v439q0 21 20 21h35q18 0 18 -21z" />
    <glyph glyph-name="V" unicode="V" horiz-adv-x="590" 
d="M294 74l211 609q5 14 10 20t15 6q27 0 45 -4q11 -3 11 -14q0 -7 -8 -27l-223 -625q-16 -42 -53 -42h-19q-23 0 -34.5 11t-19.5 33l-218 622q-7 19 -7 28q0 10 10 14q11 4 48 4q10 0 14.5 -5.5t9.5 -20.5q175 -503 208 -609z" />
    <glyph glyph-name="W" unicode="W" horiz-adv-x="935" 
d="M468 593q-30 -118 -163 -557q-12 -39 -51 -39h-20q-38 0 -47 39l-154 627q-4 16 -4 28t13 15q12 3 44 3q17 0 22 -20q122 -506 143 -604q27 105 166 558q12 39 45 39h17q19 0 28.5 -8.5t15.5 -29.5q139 -464 163 -560q13 69 143 600q6 25 22 25q32 0 44 -3q11 -2 11 -15
q0 -6 -5 -29l-157 -625q-10 -40 -48 -40h-19q-38 0 -50 40q-129 442 -159 556z" />
    <glyph glyph-name="X" unicode="X" horiz-adv-x="636" 
d="M110 19q-14 -21 -34 -21q-37 0 -43 3q-9 1 -9 12q0 9 13 28l230 325l-210 296q-15 22 -15 30q0 11 12 14q9 2 48 2q14 0 27 -18l190 -272l190 271q15 20 30 20q36 0 44 -3q9 -3 9 -11t-12 -27l-213 -305l227 -322q13 -20 13 -28q0 -9 -9 -12q-10 -3 -47 -3q-11 0 -18 4.5
t-17 20.5q-156 219 -202 290z" />
    <glyph glyph-name="Y" unicode="Y" horiz-adv-x="558" 
d="M317 20q0 -22 -20 -22h-36q-19 0 -19 22v287l-225 356q-13 22 -13 30q0 9 10 14q5 2 49 2q16 0 29 -20q134 -213 190 -309q33 60 188 305q15 24 32 24q36 0 42 -2q10 -3 10 -12q0 -10 -10 -27l-227 -359v-289z" />
    <glyph glyph-name="Z" unicode="Z" horiz-adv-x="598" 
d="M547 0h-477q-47 0 -47 46q0 25 14 44l427 548h-385q-22 0 -22 20v27q0 21 23 21h416q53 0 53 -45q0 -31 -18 -53l-422 -540h438q22 0 22 -19v-30q0 -19 -22 -19z" />
    <glyph glyph-name="bracketleft" unicode="[" horiz-adv-x="283" 
d="M144 -96h104q13 0 13 -13v-16q0 -15 -13 -15h-153q-15 0 -15 17v859q0 7 4.5 12t10.5 5h153q13 0 13 -13v-18q0 -13 -13 -13h-104v-805z" />
    <glyph glyph-name="backslash" unicode="\" horiz-adv-x="381" 
d="M306 -80l-287 792q-6 18 -6 25q0 9 9 12q12 3 31 3q15 0 23 -24l286 -794q5 -13 5 -19q0 -10 -9 -13q-14 -3 -29 -3t-23 21z" />
    <glyph glyph-name="bracketright" unicode="]" horiz-adv-x="283" 
d="M139 709h-104q-14 0 -14 12v16q0 16 14 16h153q6 0 10.5 -5.5t4.5 -12.5v-859q0 -7 -4.5 -11.5t-10.5 -4.5h-153q-14 0 -14 12v18q0 13 14 13h104v806z" />
    <glyph glyph-name="asciicircum" unicode="^" horiz-adv-x="708" 
d="M353 612q-41 -94 -147 -317q-8 -15 -21 -15q-18 0 -30 3q-14 4 -14 14q0 6 5 16l164 342q8 20 31 20h25q22 0 32 -21l165 -343q4 -10 4 -14q0 -11 -10 -14q-9 -3 -33 -3q-13 0 -21 16q-113 232 -150 316z" />
    <glyph glyph-name="underscore" unicode="_" horiz-adv-x="493" 
d="M0 -77h493v-46h-493v46z" />
    <glyph glyph-name="grave" unicode="`" horiz-adv-x="197" 
d="M127 592l-117 126q-10 12 -10 19q0 12 15 15t40 3q21 0 34 -17l100 -125q7 -9 7 -18q0 -10 -11 -13q-12 -3 -28 -3q-17 0 -30 13z" />
    <glyph glyph-name="a" unicode="a" horiz-adv-x="526" 
d="M443 84q0 -28 -9 -42q-10 -15 -27 -23q-62 -32 -183 -32q-99 0 -136.5 43t-37.5 116q0 84 58 118q50 28 154 28q78 0 110 -5v49q0 51 -8 69q-16 42 -106 42q-45 0 -108 -13q-35 -8 -40 -8q-11 0 -14 12q-6 16 -6 31q0 14 16 19q80 24 164 24q106 0 141 -36
q32 -32 32 -130v-262zM372 230q-46 4 -103 4q-88 0 -122 -21q-27 -18 -27 -66t24 -74t91 -26q70 0 112 17q15 6 20 17t5 34v115z" />
    <glyph glyph-name="b" unicode="b" horiz-adv-x="558" 
d="M85 76v651q0 21 19 21h34q18 0 18 -21v-262q56 45 175 45q90 0 132 -60t42 -195q0 -82 -14 -134.5t-45.5 -82t-73 -40.5t-104.5 -11q-85 0 -142 20q-25 8 -34 25q-7 13 -7 44zM156 99q0 -19 6 -26q7 -10 22 -13q38 -10 86 -10q100 0 131 42t31 156q0 107 -24 151.5
t-102 44.5q-92 0 -132 -27q-11 -6 -15 -14q-3 -7 -3 -22v-282z" />
    <glyph glyph-name="c" unicode="c" horiz-adv-x="459" 
d="M126 251q0 -100 29 -150t113 -50q64 0 110 12q25 5 26 5q9 0 12 -10q7 -19 7 -30q0 -15 -15 -20q-60 -21 -145 -21q-104 0 -156.5 57.5t-52.5 196.5q0 141 52.5 206t176.5 65q62 0 114 -13q17 -4 17 -19t-7 -34q-4 -12 -15 -12q-10 0 -27 5q-38 8 -85 8
q-40 0 -68.5 -10.5t-45 -27t-25.5 -43.5t-12 -53t-3 -62z" />
    <glyph glyph-name="d" unicode="d" horiz-adv-x="559" 
d="M474 82q0 -26 -5 -36q-6 -16 -31 -28q-64 -31 -178 -31q-109 0 -157.5 56.5t-48.5 194.5q0 155 56 214.5t180 59.5q72 0 113 -18v234q0 20 21 20h32q18 0 18 -20v-646zM403 117v281q0 28 -18 36q-29 13 -93 13q-98 0 -132 -45t-34 -159q0 -102 29.5 -147.5t106.5 -45.5
q82 0 118 16q14 6 19 18q4 12 4 33z" />
    <glyph glyph-name="e" unicode="e" horiz-adv-x="515" 
d="M126 229q1 -104 39.5 -141t122.5 -37q64 0 117 15q17 5 26 5t14 -10q8 -21 8 -31q0 -11 -16 -18q-63 -25 -157 -25q-124 0 -176 61t-52 200t56.5 201.5t169.5 62.5q50 0 85 -12.5t54.5 -32t30.5 -53.5t14 -66.5t3 -82.5q0 -24 -7 -30q-8 -6 -20 -6h-312zM126 288h268
q1 8 1 25q0 69 -25 102.5t-97 33.5q-79 0 -112 -41t-35 -120z" />
    <glyph glyph-name="f" unicode="f" horiz-adv-x="320" 
d="M184 18q0 -20 -19 -20h-34q-19 0 -19 21v415h-64q-18 0 -18 18v26q0 20 19 20h63v58q0 98 39 139q50 54 172 56q24 0 25 -16q2 -18 2 -29q0 -18 -18 -19q-59 -4 -88.5 -13.5t-44.5 -33.5q-15 -25 -15 -87v-55h115q18 0 18 -18v-29q0 -17 -18 -17h-115v-416z" />
    <glyph glyph-name="g" unicode="g" horiz-adv-x="557" 
d="M398 16q-42 -28 -142 -28q-106 0 -154 56.5t-48 193.5q0 154 54 213.5t177 59.5q95 0 157 -19q30 -9 30 -41v-432q0 -75 -15 -125q-40 -128 -308 -128q-22 0 -25 14q-1 9 -1 29q0 21 18 21q120 4 171.5 22.5t69.5 54.5q16 31 16 87v22zM401 110v295q0 24 -17 30
q-32 11 -99 11q-96 0 -127.5 -45t-31.5 -158q0 -101 28.5 -146.5t104.5 -45.5q75 0 118 18q17 7 21 18q3 6 3 23z" />
    <glyph glyph-name="h" unicode="h" horiz-adv-x="572" 
d="M156 18q0 -20 -19 -20h-33q-19 0 -19 20v711q0 22 18 22h35q18 0 18 -22v-260q27 20 81 30.5t103 10.5q65 0 95.5 -15t42.5 -46q9 -26 9 -98v-333q0 -20 -19 -20h-33q-19 0 -19 20v320q0 47 -7 68t-26.5 30t-63.5 9q-90 0 -140 -25q-12 -7 -18 -15q-5 -10 -5 -31v-356z
" />
    <glyph glyph-name="i" unicode="i" horiz-adv-x="241" 
d="M156 18q0 -20 -19 -20h-33q-19 0 -19 20v460q0 22 19 22h33q19 0 19 -21v-461zM166 662q0 -49 -47 -49q-46 0 -46 48q0 51 46 51q23 0 35 -11t12 -39z" />
    <glyph glyph-name="j" unicode="j" horiz-adv-x="241" 
d="M156 479v-528q0 -91 -39 -130q-22 -24 -65 -39.5t-79 -15.5q-16 0 -19 14t-3 27q0 19 20 22q53 7 85 31q28 23 28 90v528q0 22 19 22h34q19 0 19 -21zM166 662q0 -49 -46 -49q-47 0 -47 48q0 51 47 51q46 0 46 -50z" />
    <glyph glyph-name="k" unicode="k" horiz-adv-x="512" 
d="M156 18q0 -20 -19 -20h-33q-19 0 -19 20v701q0 22 19 22h33q19 0 19 -21v-413h65q30 0 44 18l131 159q14 17 28 17q3 0 19 -1t17 -1q13 -3 13 -14q0 -9 -9 -20l-156 -185l185 -243q11 -14 11 -23q0 -14 -15 -15q-6 -2 -38 -2q-16 0 -28 17l-162 213q-13 18 -39 18h-66
v-227z" />
    <glyph glyph-name="l" unicode="l" horiz-adv-x="259" 
d="M156 138q0 -41 12 -58q14 -19 56 -25q15 -1 15 -17q0 -21 -3 -30q-3 -12 -21 -12q-85 0 -115 50q-15 24 -15 83v598q0 21 20 21h33q18 0 18 -21v-589z" />
    <glyph glyph-name="m" unicode="m" horiz-adv-x="876" 
d="M156 18q0 -20 -19 -20h-33q-19 0 -19 20v392q0 42 30 57q95 43 215 43q92 0 122 -50q59 50 198 50q61 0 90.5 -15t41.5 -46q9 -23 9 -98v-333q0 -20 -18 -20h-34q-19 0 -19 20v320q0 51 -7 69q-7 20 -24.5 29t-60.5 9q-72 0 -130 -26q-12 -5 -19 -15q-5 -8 -5 -24
q0 -3 0.5 -19.5t0.5 -20.5v-322q0 -20 -19 -20h-34q-19 0 -19 20v324q0 47 -7 65q-8 21 -25 29.5t-59 8.5q-79 0 -130 -23q-15 -8 -20 -16q-6 -7 -6 -32v-356z" />
    <glyph glyph-name="n" unicode="n" horiz-adv-x="572" 
d="M156 18q0 -20 -19 -20h-33q-19 0 -19 20v391q0 44 31 58q89 43 223 43q65 0 96 -15t43 -46q9 -26 9 -98v-333q0 -20 -19 -20h-33q-19 0 -19 20v320q0 46 -7 69q-7 20 -26.5 29t-63.5 9q-84 0 -138 -23q-13 -6 -19 -15q-6 -10 -6 -30v-359z" />
    <glyph glyph-name="o" unicode="o" horiz-adv-x="544" 
d="M491 253q0 -153 -51 -209.5t-171 -56.5q-117 0 -166 55t-49 208q0 79 16 132t47 80.5t68.5 38.5t90.5 11q60 0 96.5 -9t65.5 -36t41 -79t12 -135zM418 249q0 84 -14.5 126.5t-43.5 57t-86 14.5q-77 0 -112.5 -40t-35.5 -154q0 -85 16 -129.5t45 -58.5t84 -14
q40 0 64.5 6.5t45 26.5t29 60t8.5 105z" />
    <glyph glyph-name="p" unicode="p" horiz-adv-x="559" 
d="M156 -214q0 -20 -21 -20h-32q-10 0 -14 4.5t-4 15.5v618q0 32 5 42q7 16 30 27q31 15 85 26t107 11q103 0 148 -56t45 -195q0 -82 -14 -135.5t-44.5 -83.5t-72.5 -41.5t-105 -11.5q-70 0 -113 20v-221zM156 102q0 -29 17 -36q35 -15 93 -15q99 0 133 42.5t34 161.5
q0 103 -26.5 146.5t-103.5 43.5t-124 -21q-14 -6 -19 -17q-4 -8 -4 -31v-274z" />
    <glyph glyph-name="q" unicode="q" horiz-adv-x="558" 
d="M474 -214q0 -20 -19 -20h-34q-18 0 -18 20v246q-55 -45 -175 -45q-90 0 -132 60.5t-42 195.5q0 81 14.5 134t46.5 82.5t73.5 41t104.5 11.5q83 0 140 -21q23 -8 33 -25q8 -14 8 -44v-636zM403 115v283q0 19 -6 28q-5 7 -23 12q-38 10 -83 10q-99 0 -132 -43t-33 -155
q0 -107 24 -152t102 -45q92 0 132 26q14 10 16 15q3 8 3 21z" />
    <glyph glyph-name="r" unicode="r" horiz-adv-x="363" 
d="M156 18q0 -20 -19 -20h-33q-19 0 -19 20v386q0 38 22 57q20 17 74 33t101 16q27 0 49 -4q13 -3 13 -15q0 -21 -3 -37q-3 -13 -17 -13q-3 0 -19.5 1t-22.5 1q-67 0 -104 -22q-12 -6 -17 -16q-5 -7 -5 -29v-358z" />
    <glyph glyph-name="s" unicode="s" horiz-adv-x="431" 
d="M237 208l-79 24q-111 32 -111 133q0 146 182 146q77 0 130 -14q18 -5 18 -20q0 -7 -9 -34q-3 -11 -14 -11l-18 3q-51 13 -108 13q-65 0 -87.5 -20.5t-22.5 -57.5q0 -26 17.5 -44.5t69.5 -34.5l70 -22q64 -20 92.5 -49t28.5 -86q0 -147 -188 -147q-103 0 -156 24
q-14 6 -14 18q0 9 9 31q6 14 17 14q3 0 21 -6q51 -17 125 -17q70 0 93 22.5t23 58.5q0 27 -17 43t-72 33z" />
    <glyph glyph-name="t" unicode="t" horiz-adv-x="331" 
d="M181 185q0 -65 16 -91q21 -35 112 -39q17 -1 17 -18q0 -12 -2 -30q-1 -15 -21 -15q-64 0 -101 10.5t-61 38.5q-32 40 -32 148v245h-65q-17 0 -17 18v26q0 20 19 20h64q0 31 3 114q2 22 17 22h34q17 0 17 -22v-114h112q21 0 21 -19v-26q0 -19 -21 -19h-112v-249z" />
    <glyph glyph-name="u" unicode="u" horiz-adv-x="572" 
d="M85 161v318q0 21 19 21h33q19 0 19 -21v-310q0 -57 9 -77q17 -41 102 -41q83 0 124 16q12 4 19 14q6 10 6 32v366q0 21 19 21h33q19 0 19 -21v-400q0 -45 -31 -60q-71 -32 -204 -32q-129 0 -155 65q-12 33 -12 109z" />
    <glyph glyph-name="v" unicode="v" horiz-adv-x="469" 
d="M235 72q18 57 150 406q9 23 23 23q22 0 40 -3q14 -3 14 -15q0 -7 -6 -24l-167 -426q-14 -36 -47 -36h-18q-21 0 -30 8.5t-17 28.5l-162 424q-7 18 -7 24q0 13 14 16q12 3 43 3q15 0 22 -22q125 -336 148 -407z" />
    <glyph glyph-name="w" unicode="w" horiz-adv-x="735" 
d="M368 392q-6 -22 -113 -358q-11 -37 -48 -37h-15q-35 0 -46 36l-123 425q-5 17 -5 24q0 13 14 16q16 3 43 3q15 0 21 -23q83 -294 111 -406q45 159 112 363q7 23 17 32t27 9h11q18 0 27.5 -8t17.5 -31q96 -280 120 -365q29 125 104 403q7 26 22 26q27 0 41 -3
q12 -3 12 -14q0 -4 -6 -28l-116 -420q-11 -39 -46 -39h-17q-21 0 -31 9t-16 28q-108 322 -118 358z" />
    <glyph glyph-name="x" unicode="x" horiz-adv-x="500" 
d="M248 208l-141 -192q-14 -18 -29 -18q-28 0 -42 2q-11 2 -11 13q0 7 12 24l164 218l-151 205q-13 16 -13 25t10 11q16 4 49 4q8 0 13.5 -4.5t16.5 -18.5l126 -174q34 51 128 177q15 20 29 20q35 0 45 -3q8 -4 8 -12q0 -7 -12 -24l-152 -205l165 -220q11 -14 11 -23
t-10 -12q-6 -3 -45 -3q-18 0 -30 17z" />
    <glyph glyph-name="y" unicode="y" horiz-adv-x="572" 
d="M85 149v330q0 21 19 21h33q19 0 19 -21v-318q0 -48 8 -70q16 -39 96 -39q83 0 131 25q14 7 19 14q6 10 6 29v359q0 21 19 21h33q19 0 19 -21v-464q0 -76 -15 -122q-40 -127 -301 -127q-23 0 -25 15q-2 10 -2 29q0 21 19 21q84 2 134.5 12.5t71 26t31.5 40.5q14 34 14 86
v28q-63 -37 -175 -37q-118 0 -142 64q-12 31 -12 98z" />
    <glyph glyph-name="z" unicode="z" horiz-adv-x="477" 
d="M425 0h-346q-48 0 -48 45q0 28 21 51q266 297 305 337h-289q-20 0 -20 17v28q0 20 20 20h315q54 0 54 -46q0 -30 -21 -53l-306 -335h315q19 0 19 -18v-31q0 -15 -19 -15z" />
    <glyph glyph-name="braceleft" unicode="{" horiz-adv-x="313" 
d="M98 307q43 -11 65.5 -42.5t22.5 -100.5v-157q0 -58 16 -81q17 -25 86 -27q12 0 12 -16v-15q0 -15 -15 -15q-59 1 -91 10t-50 34q-23 32 -23 107v154q0 64 -20 91.5t-65 33.5q-14 1 -14 16v13q0 16 13 17q47 8 66.5 36.5t19.5 87.5v145q0 74 23 110q37 51 140 51
q16 0 16 -18v-10q0 -18 -15 -18q-69 -2 -86 -34q-13 -23 -13 -76v-150q0 -71 -21.5 -100.5t-66.5 -45.5z" />
    <glyph glyph-name="bar" unicode="|" horiz-adv-x="223" 
d="M143 -128q0 -21 -19 -21h-25q-19 0 -19 21v864q0 21 20 21h25q18 0 18 -20v-865z" />
    <glyph glyph-name="braceright" unicode="}" horiz-adv-x="313" 
d="M212 305q-42 11 -64.5 42.5t-22.5 100.5v157q0 60 -16 81q-17 23 -86 27q-12 0 -12 16v15q0 15 15 15q59 -1 91 -10t50 -34q23 -32 23 -107v-154q0 -64 20.5 -91.5t64.5 -33.5q14 -1 14 -16v-13q0 -16 -13 -17q-47 -8 -66.5 -36.5t-19.5 -87.5v-145q0 -77 -24 -110
q-35 -51 -138 -51q-17 0 -17 18v10q0 18 15 18q69 2 87 34q12 21 12 76v150q0 70 21 100t66 46z" />
    <glyph glyph-name="asciitilde" unicode="~" horiz-adv-x="701" 
d="M141 248q-9 -11 -17 -11q-10 0 -22 11q-10 10 -10 17t7 16q38 48 72 67t73 19q42 0 120 -45q58 -34 96 -34q29 0 50.5 13.5t46.5 48.5q9 12 18 12q8 0 22 -11q10 -7 10 -16q0 -10 -7 -20q-33 -45 -64.5 -66.5t-76.5 -21.5q-48 0 -117 40q-70 39 -103 39q-48 0 -98 -58z
" />
    <glyph glyph-name="exclamdown" unicode="&#xa1;" horiz-adv-x="284" 
d="M69 453q0 57 56 57q55 0 55 -57q0 -58 -56 -58q-55 0 -55 58zM89 263q0 21 21 21h21q23 0 23 -23q7 -395 7 -439q0 -27 -23 -27h-35q-22 0 -22 25q0 46 8 443z" />
    <glyph glyph-name="cent" unicode="&#xa2;" horiz-adv-x="502" 
d="M320 -85q0 -19 -16 -19h-24q-17 0 -17 19v80q-94 5 -140 62t-46 189q0 126 43 187t143 71v78q0 19 18 19h23q16 0 16 -19v-76q67 -2 102 -11q17 -4 17 -19q0 -20 -6 -34q-4 -10 -13 -10q-10 0 -25 3q-35 7 -89 7q-50 0 -82 -13.5t-47 -41t-20 -57t-5 -74.5
q0 -95 28 -146.5t108 -51.5q65 0 112 11q28 7 29 7q9 0 14 -11q6 -21 6 -30q0 -14 -15 -19q-46 -16 -114 -21v-80z" />
    <glyph glyph-name="sterling" unicode="&#xa3;" horiz-adv-x="598" 
d="M542 0h-430q-17 0 -17 16v34q0 17 18 17h59v217h-71q-20 0 -20 18v27q0 17 20 17h71v133q0 92 32 136q28 39 71 56t113 17q84 0 144 -15q18 -4 18 -20q0 -15 -6 -36q-4 -11 -18 -11q-9 0 -27 4q-60 12 -113 12q-84 0 -116 -38q-25 -27 -25 -107v-131h187q20 0 20 -17v-28
q0 -17 -20 -17h-187v-217h296q18 0 18 -18v-33q0 -16 -17 -16z" />
    <glyph glyph-name="currency" unicode="&#xa4;" horiz-adv-x="541" 
d="M468 123q-7 -7 -14 -7t-14 7l-52 50q-50 -37 -118 -37q-67 0 -119 37l-48 -50q-8 -8 -15 -8q-9 0 -15 7l-9 9q-7 9 -7 15t7 15l52 52q-39 50 -39 119q0 65 39 118l-52 51q-7 9 -7 15q0 8 6 14l9 8q8 8 16 8q6 0 13 -7l51 -51q50 40 118 40q69 0 117 -39l51 50q8 8 14 8
q8 0 15 -8l8 -8q7 -7 7 -14q0 -8 -7 -15l-52 -51q40 -49 40 -119q0 -68 -40 -119l54 -52q6 -5 6 -15q0 -8 -7 -15zM409 332q0 63 -39.5 102.5t-99.5 39.5t-100 -40t-40 -101q0 -64 39.5 -104t100.5 -40q60 0 99.5 40t39.5 103z" />
    <glyph glyph-name="yen" unicode="&#xa5;" horiz-adv-x="602" 
d="M489 339h-122l-29 -44v-41h151q19 0 19 -18v-12q0 -17 -19 -17h-151v-187q0 -22 -20 -22h-34q-20 0 -20 22v187h-148q-19 0 -19 17v12q0 18 19 18h148v40l-30 45h-118q-19 0 -19 18v12q0 17 19 17h87l-160 244q-13 20 -13 29t10 14q8 3 46 3q14 0 28 -21
q136 -205 189 -295q47 78 187 291q16 25 34 25q29 0 39 -2t10 -13q0 -12 -10 -27l-165 -248h91q19 0 19 -17v-12q0 -18 -19 -18z" />
    <glyph glyph-name="brokenbar" unicode="&#xa6;" horiz-adv-x="237" 
d="M143 432q0 -21 -19 -21h-25q-19 0 -19 21v265q0 21 20 21h25q18 0 18 -21v-265zM143 3q0 -21 -19 -21h-25q-19 0 -19 21v265q0 21 20 21h25q18 0 18 -21v-265z" />
    <glyph glyph-name="section" unicode="&#xa7;" horiz-adv-x="496" 
d="M357 113q31 -20 46 -47t15 -72q0 -67 -43 -111.5t-146 -44.5q-99 0 -166 28q-12 5 -12 16q0 12 12 39q3 7 13 7q2 0 11 -3l12 -4q57 -19 133 -19q113 0 113 87q0 41 -22 63.5t-92 51.5l-60 26q-75 32 -100.5 67.5t-25.5 88.5q0 109 107 136q-55 31 -55 120q0 26 7 50
t24.5 48.5t53.5 39t86 14.5q80 0 132 -17q11 -4 11 -16q0 -20 -11 -40q-3 -6 -11 -6q-4 0 -24 4q-46 11 -103 11q-95 0 -95 -86q0 -39 19.5 -60.5t81.5 -48.5l64 -27q73 -30 98 -64t25 -91q0 -55 -27 -91t-71 -49zM386 247q0 34 -15.5 53t-59.5 41q-16 8 -48.5 21t-43.5 18
q-12 6 -24 6q-10 0 -19 -3q-27 -7 -45.5 -29.5t-18.5 -61.5q0 -33 15 -51t55 -38q18 -9 58 -26l54 -23q12 -4 20 -4q9 0 18 4q23 9 38.5 35t15.5 58z" />
    <glyph glyph-name="dieresis" unicode="&#xa8;" horiz-adv-x="197" 
d="M53 661q0 -48 -45 -48t-45 47q0 49 45 49t45 -48zM232 661q0 -48 -44 -48t-44 47q0 49 44 49t44 -48z" />
    <glyph glyph-name="copyright" unicode="&#xa9;" horiz-adv-x="830" 
d="M769 345q0 -155 -98 -257t-257 -102t-257 102t-98 257t98 257.5t256 102.5q163 0 259.5 -101.5t96.5 -258.5zM731 345q0 141 -87 232.5t-231 91.5q-142 0 -228.5 -91.5t-86.5 -232.5q0 -140 86.5 -231.5t229.5 -91.5q144 0 230.5 91t86.5 232zM292 348q0 -89 25 -130.5
t99 -41.5q55 0 96 12q13 4 22 4q11 0 14 -12q5 -17 5 -23q0 -10 -14 -15q-47 -20 -131 -20q-90 0 -135.5 49t-45.5 168q0 121 47 176t155 55q57 0 97 -8q16 -3 16 -16q0 -17 -6 -31q-4 -8 -11 -8q-3 0 -10 1.5t-11 1.5q-32 5 -75 5q-45 0 -73.5 -12t-42 -37t-17.5 -51
t-4 -67z" />
    <glyph glyph-name="ordfeminine" unicode="&#xaa;" horiz-adv-x="342" 
d="M289 320q0 -21 -7 -31q-5 -8 -18 -14q-41 -19 -118 -19q-112 0 -112 97q0 52 37 73q30 18 96 18q43 0 67 -3v26q0 29 -5 39q-9 22 -63 22q-37 0 -68 -7q-18 -4 -23 -4q-10 0 -12 10q-4 16 -4 21q0 11 10 14q39 14 105 14q73 0 95 -22q20 -20 20 -79v-155zM234 402
q-22 3 -60 3q-54 0 -71 -13q-15 -10 -15 -37q0 -26 14 -40.5t52 -14.5q43 0 65 10q8 3 12 10q3 9 3 22v60z" />
    <glyph glyph-name="guillemotleft" unicode="&#xab;" horiz-adv-x="491" 
d="M116 265l129 -163q10 -13 10 -21q0 -10 -10 -13q-17 -3 -37 -3q-14 0 -30 19l-125 153q-13 17 -13 27t9 22l127 157q17 22 31 22q23 0 39 -3q10 -2 10 -11q0 -7 -12 -24zM310 265l128 -163q10 -13 10 -21q0 -10 -9 -13q-13 -3 -38 -3q-13 0 -29 19l-125 153
q-13 17 -13 27q0 11 8 22l127 157q17 22 32 22q23 0 39 -3q10 -2 10 -11q0 -7 -12 -24z" />
    <glyph glyph-name="logicalnot" unicode="&#xac;" horiz-adv-x="701" 
d="M601 53q0 -18 -18 -18h-21q-18 0 -18 18v212h-445q-18 0 -18 20v20q0 20 18 20h484q18 0 18 -20v-252z" />
    <glyph glyph-name="uni00AD" unicode="&#xad;" horiz-adv-x="302" 
d="M249 234h-196q-18 0 -18 17v32q0 18 19 18h194q19 0 19 -18v-34q0 -15 -18 -15z" />
    <glyph glyph-name="registered" unicode="&#xae;" horiz-adv-x="830" 
d="M769 345q0 -155 -98 -257t-257 -102t-257 102t-98 257t98 257.5t256 102.5q163 0 259.5 -101.5t96.5 -258.5zM731 345q0 141 -87 232.5t-231 91.5q-142 0 -228.5 -91.5t-86.5 -232.5q0 -140 86.5 -231.5t229.5 -91.5q144 0 230.5 91t86.5 232zM339 147q0 -15 -17 -15h-27
q-17 0 -17 16v354q0 70 67 70h42q85 0 121 -15q61 -25 61 -112q0 -91 -79 -119l93 -161q7 -14 7 -21q0 -10 -12 -11q-14 -3 -31 -3q-14 0 -23 17l-93 169q-12 -1 -39 -1h-53v-168zM339 365h59q53 0 71 9q18 7 29.5 26t11.5 43q0 55 -39 69q-22 8 -76 8h-30q-26 0 -26 -29
v-126z" />
    <glyph glyph-name="macron" unicode="&#xaf;" horiz-adv-x="197" 
d="M216 610h-234q-20 0 -20 18v29q0 19 21 19h232q20 0 20 -19v-30q0 -17 -19 -17z" />
    <glyph glyph-name="degree" unicode="&#xb0;" horiz-adv-x="336" 
d="M306 575q0 -65 -38 -101.5t-101 -36.5q-61 0 -98.5 36t-37.5 101t38.5 101.5t102.5 36.5q63 0 98.5 -35.5t35.5 -101.5zM263 574q0 49 -24.5 75t-68.5 26t-69.5 -27t-25.5 -76q0 -46 26 -72t70 -26q43 0 67.5 26.5t24.5 73.5z" />
    <glyph glyph-name="plusminus" unicode="&#xb1;" horiz-adv-x="701" 
d="M380 150q0 -18 -19 -18h-22q-18 0 -18 18v206h-213q-18 0 -18 19v20q0 19 18 19h212v203q0 19 19 19h22q19 0 19 -19v-203h213q18 0 18 -19v-20q0 -19 -18 -19h-213v-206zM611 20q0 -20 -18 -20h-485q-18 0 -18 20v20q0 19 18 19h485q18 0 18 -19v-20z" />
    <glyph glyph-name="twosuperior" unicode="&#xb2;" 
d="M313 420h-248q-16 0 -22.5 6.5t-6.5 22.5q0 19 20 34q83 64 155 131q50 47 50 97q0 38 -20.5 59t-70.5 21q-34 0 -71 -10q-18 -6 -23 -6q-8 0 -11 7q-5 16 -5 26t15 15q51 17 107 17q77 0 106.5 -32t29.5 -90q0 -66 -53 -119q-52 -53 -155 -130q37 1 203 1q14 0 14 -12
v-24q0 -14 -14 -14z" />
    <glyph glyph-name="threesuperior" unicode="&#xb3;" 
d="M220 638q93 -9 93 -101q0 -63 -37 -94t-117 -31q-63 0 -97 10q-17 6 -17 15t8 28q3 8 11 8q2 0 5.5 -1t8.5 -2t8 -2q37 -7 71 -7q60 0 79.5 20.5t19.5 55.5q0 37 -22 53.5t-83 17.5q-26 1 -26 24q0 16 5.5 21.5t21.5 7.5q51 2 71 18.5t20 46.5q0 38 -18 51.5t-67 13.5
q-31 0 -63 -9q-23 -5 -24 -5q-5 0 -9 7q-6 14 -6 25t14 15q44 16 100 16q75 0 102.5 -26.5t27.5 -84.5q0 -35 -21 -59t-59 -32z" />
    <glyph glyph-name="acute" unicode="&#xb4;" horiz-adv-x="197" 
d="M69 592q-12 -13 -30 -13q-17 0 -27 3q-12 3 -12 13q0 9 7 18l100 125q13 17 34 17q25 0 40 -3q15 -2 15 -14q0 -8 -10 -20z" />
    <glyph glyph-name="mu" unicode="&#xb5;" horiz-adv-x="600" 
d="M171 -184q0 -20 -19 -20h-34q-19 0 -19 20v663q0 21 19 21h33q19 0 19 -21v-311q0 -56 9 -77q17 -40 102 -40q83 0 124 16q12 4 19 14q6 10 6 32v366q0 21 20 21h33q19 0 19 -21v-400q0 -45 -32 -60q-69 -31 -194 -31q-81 0 -105 31v-203z" />
    <glyph glyph-name="paragraph" unicode="&#xb6;" horiz-adv-x="560" 
d="M314 -110q0 -18 -16 -18h-13q-17 0 -17 18v349q-116 0 -169 60.5t-53 162.5q0 57 12 99t41 76t83.5 51.5t133.5 17.5h129q25 0 25 -24v-792q0 -18 -16 -18h-13q-17 0 -17 18v770h-110v-770z" />
    <glyph glyph-name="periodcentered" unicode="&#xb7;" horiz-adv-x="220" 
d="M166 268q0 -57 -57 -57q-22 0 -38 13t-16 44q0 58 56 58q55 0 55 -58z" />
    <glyph glyph-name="cedilla" unicode="&#xb8;" horiz-adv-x="197" 
d="M99 -59q56 0 74.5 -23.5t18.5 -65.5q0 -94 -120 -94q-32 0 -49 4q-15 4 -15 17q0 11 3 21q4 14 18 14q6 0 20 -2q11 -1 26 -1q52 0 52 39q0 23 -11 32t-39 9h-16q-18 0 -18 16q0 8 4 32l14 71h49z" />
    <glyph glyph-name="onesuperior" unicode="&#xb9;" 
d="M286 420h-175q-13 0 -13 12v25q0 13 13 13h65v304l-63 -24q-12 -3 -15 -3q-5 0 -8 6q-10 26 -10 29q0 7 9 11l79 32q22 8 34 8h6q24 0 24 -31v-332h53q15 0 15 -12v-27q0 -11 -14 -11z" />
    <glyph glyph-name="ordmasculine" unicode="&#xba;" horiz-adv-x="355" 
d="M319 419q0 -94 -33 -128.5t-111 -34.5q-75 0 -107 34t-32 127q0 92 36.5 125.5t106.5 33.5q78 0 109 -30t31 -127zM262 417q0 69 -17.5 90.5t-66.5 21.5q-45 0 -65.5 -23t-20.5 -88q0 -70 18.5 -92t65.5 -22q48 0 67 21t19 92z" />
    <glyph glyph-name="guillemotright" unicode="&#xbb;" horiz-adv-x="491" 
d="M375 266l-129 162q-10 13 -10 22t10 12q16 3 37 3q15 0 30 -18l124 -153q14 -19 14 -28q0 -12 -9 -22l-127 -156q-18 -23 -31 -23q-25 0 -38 3q-11 2 -11 12q0 6 12 23zM181 266l-128 162q-10 13 -10 22q0 10 9 12q14 3 38 3q14 0 29 -18l125 -154q13 -15 13 -26
q0 -13 -9 -23l-126 -156q-18 -23 -32 -23q-26 0 -38 3q-11 4 -11 12q0 6 12 23z" />
    <glyph glyph-name="onequarter" unicode="&#xbc;" horiz-adv-x="847" 
d="M702 13q0 -14 -14 -14h-27q-13 0 -13 14v90h-172q-29 0 -29 25q0 14 13 40l120 229q8 16 19 16q28 0 33 -1q7 -2 7 -9q0 -6 -5 -16l-124 -233h138v94q0 14 13 14h28q13 0 13 -14v-94h52q15 0 15 -13v-25q0 -13 -15 -13h-52v-90zM261 -15q-9 -17 -23 -17q-16 0 -19 2
q-6 3 -6 9q0 7 8 23l331 687q11 23 24 23q9 0 19 -2q8 -1 8 -10q0 -8 -9 -26zM284 264h-175q-13 0 -13 12v25q0 13 13 13h65v304l-63 -24q-12 -3 -15 -3q-5 0 -8 6q-10 26 -10 29q0 7 9 11l79 32q22 8 34 8h6q24 0 24 -31v-332h53q15 0 15 -12v-27q0 -11 -14 -11z" />
    <glyph glyph-name="onehalf" unicode="&#xbd;" horiz-adv-x="847" 
d="M755 0h-248q-16 0 -22.5 6.5t-6.5 22.5q0 19 20 34q83 64 155 131q50 47 50 97q0 38 -20.5 59t-70.5 21q-34 0 -71 -10q-18 -6 -23 -6q-8 0 -11 7q-5 16 -5 26t15 15q51 17 107 17q77 0 106.5 -32t29.5 -90q0 -66 -53 -119q-52 -53 -155 -130q37 1 203 1q14 0 14 -12v-24
q0 -14 -14 -14zM248 -15q-8 -17 -23 -17q-16 0 -19 2q-6 3 -6 9q0 7 8 23l331 687q11 23 24 23q9 0 19 -2q8 -1 8 -10q0 -8 -9 -26zM275 264h-175q-13 0 -13 12v25q0 13 13 13h65v304l-63 -24q-12 -3 -15 -3q-5 0 -8 6q-10 26 -10 29q0 7 9 11l79 32q22 8 34 8h6
q24 0 24 -31v-332h53q15 0 15 -12v-27q0 -11 -14 -11z" />
    <glyph glyph-name="threequarters" unicode="&#xbe;" horiz-adv-x="847" 
d="M302 -15q-8 -17 -23 -17q-16 0 -19 2q-6 3 -6 9q0 7 8 23l331 687q11 23 24 23q9 0 19 -2q8 -1 8 -10q0 -8 -9 -26zM263 482q87 -9 87 -101q0 -64 -36 -94.5t-118 -30.5q-60 0 -96 10q-18 4 -18 15q0 9 8 28q3 8 11 8q1 0 23 -5q32 -7 70 -7q60 0 79.5 20.5t19.5 55.5
q0 38 -22 55t-78 17h-15q-13 0 -13 14v23q0 13 13 13h16q86 0 86 67q0 38 -18 51.5t-67 13.5q-31 0 -63 -9q-23 -5 -24 -5q-6 0 -9 7q-6 14 -6 25q0 10 14 15q46 16 100 16q75 0 102.5 -26t27.5 -85q0 -35 -19.5 -59t-54.5 -32zM737 13q0 -14 -14 -14h-27q-13 0 -13 14v90
h-172q-29 0 -29 25q0 14 13 40l120 229q8 16 19 16q28 0 33 -1q7 -2 7 -9q0 -6 -5 -16l-124 -233h138v94q0 14 13 14h28q13 0 13 -14v-94h52q15 0 15 -13v-25q0 -13 -15 -13h-52v-90z" />
    <glyph glyph-name="questiondown" unicode="&#xbf;" horiz-adv-x="409" 
d="M224 284h22q18 0 19 -16q2 -22 2 -52q0 -48 -14.5 -75t-58.5 -56q-49 -32 -67.5 -63.5t-18.5 -76.5q0 -98 112 -98q61 0 108 13q2 0 5.5 1.5t7 2t6.5 0.5q12 0 16 -13q6 -20 6 -29q0 -14 -14 -19q-59 -22 -144 -22q-99 0 -139 40.5t-40 113.5q0 62 20 97.5t80 77.5
q43 30 56 49t15 57q1 9 3 51q0 17 18 17zM183 453q0 57 56 57q55 0 55 -57q0 -58 -55 -58q-56 0 -56 58z" />
    <glyph glyph-name="Agrave" unicode="&#xc0;" horiz-adv-x="598" 
d="M159 222l-70 -199q-5 -15 -9.5 -20.5t-14.5 -5.5q-33 0 -47 3q-10 2 -10 14q0 6 7 27l222 619q10 28 22.5 39t37.5 11h15q23 0 34 -10.5t21 -39.5l215 -618q7 -18 7 -28t-9 -14q-9 -3 -47 -3q-10 0 -15 6t-10 20l-70 199h-279zM179 289h239l-118 352zM305 772l-149 103
q-12 7 -12 20q0 11 16 14q28 4 48 4q17 0 37 -15l128 -103q11 -10 11 -19t-12 -13q-16 -4 -30 -4q-18 0 -37 13z" />
    <glyph glyph-name="Aacute" unicode="&#xc1;" horiz-adv-x="598" 
d="M159 222l-70 -199q-5 -15 -9.5 -20.5t-14.5 -5.5q-33 0 -47 3q-10 2 -10 14q0 6 7 27l222 619q10 28 22.5 39t37.5 11h15q23 0 34 -10.5t21 -39.5l215 -618q7 -18 7 -28t-9 -14q-9 -3 -47 -3q-10 0 -15 6t-10 20l-70 199h-279zM179 289h239l-118 352zM292 763
q-17 -13 -36 -13q-15 0 -31 4q-12 4 -12 13t12 19l127 103q20 15 37 15q18 0 48 -4q16 -3 16 -14t-13 -20z" />
    <glyph glyph-name="Acircumflex" unicode="&#xc2;" horiz-adv-x="598" 
d="M159 222l-70 -199q-5 -15 -9.5 -20.5t-14.5 -5.5q-33 0 -47 3q-10 2 -10 14q0 6 7 27l222 619q10 28 22.5 39t37.5 11h15q23 0 34 -10.5t21 -39.5l215 -618q7 -18 7 -28t-9 -14q-9 -3 -47 -3q-10 0 -15 6t-10 20l-70 199h-279zM179 289h239l-118 352zM182 759
q-15 0 -26 4q-13 4 -13 14q0 9 9 17l102 99q19 19 35 19h27q14 0 32 -16l105 -103q7 -6 7 -15q0 -11 -14 -15q-16 -4 -28 -4q-14 0 -33 17l-84 71l-84 -71q-20 -17 -35 -17z" />
    <glyph glyph-name="Atilde" unicode="&#xc3;" horiz-adv-x="598" 
d="M159 222l-70 -199q-5 -15 -9.5 -20.5t-14.5 -5.5q-33 0 -47 3q-10 2 -10 14q0 6 7 27l222 619q10 28 22.5 39t37.5 11h15q23 0 34 -10.5t21 -39.5l215 -618q7 -18 7 -28t-9 -14q-9 -3 -47 -3q-10 0 -15 6t-10 20l-70 199h-279zM179 289h239l-118 352zM170 769
q-13 0 -22 3q-11 3 -11 15q0 8 6 26q31 76 87 76q25 0 80 -28q40 -22 61 -22q27 0 43 37q7 19 22 19q13 0 22 -3q12 -3 12 -14q0 -8 -5 -25q-28 -82 -88 -82q-29 0 -82 27q-48 24 -63 24q-25 0 -39 -35q-7 -18 -23 -18z" />
    <glyph glyph-name="Adieresis" unicode="&#xc4;" horiz-adv-x="598" 
d="M159 222l-70 -199q-5 -15 -9.5 -20.5t-14.5 -5.5q-33 0 -47 3q-10 2 -10 14q0 6 7 27l222 619q10 28 22.5 39t37.5 11h15q23 0 34 -10.5t21 -39.5l215 -618q7 -18 7 -28t-9 -14q-9 -3 -47 -3q-10 0 -15 6t-10 20l-70 199h-279zM179 289h239l-118 352zM250 821
q0 -49 -45 -49t-45 48q0 49 45 49t45 -48zM439 821q0 -49 -44 -49t-44 48q0 49 44 49t44 -48z" />
    <glyph glyph-name="Aring" unicode="&#xc5;" horiz-adv-x="598" 
d="M159 222l-70 -199q-5 -15 -9.5 -20.5t-14.5 -5.5q-33 0 -47 3q-10 2 -10 14q0 6 7 27l222 619q10 28 22.5 39t37.5 11h15q23 0 34 -10.5t21 -39.5l215 -618q7 -18 7 -28t-9 -14q-9 -3 -47 -3q-10 0 -15 6t-10 20l-70 199h-279zM179 289h239l-118 352zM390 827
q0 -44 -25 -67.5t-67 -23.5q-40 0 -64 23.5t-24 67.5q0 43 25 68t66 25t65 -25t24 -68zM355 828q0 58 -56 58q-25 0 -40 -15t-15 -43t15 -44t41 -16t40.5 16t14.5 44z" />
    <glyph glyph-name="AE" unicode="&#xc6;" horiz-adv-x="949" 
d="M236 232l-141 -212q-15 -22 -33 -22q-27 0 -43 2q-14 2 -14 14q0 6 12 25l400 607q22 34 41 47t49 13h370q21 0 21 -19v-31q0 -18 -21 -18h-308v-236h278q20 0 20 -20v-30q0 -18 -20 -18h-278v-225q0 -41 39 -41h284q20 0 20 -19v-31q0 -18 -20 -18h-304
q-49 0 -71.5 19.5t-22.5 72.5v140h-258zM275 298h219v336z" />
    <glyph glyph-name="Ccedilla" unicode="&#xc7;" horiz-adv-x="594" 
d="M341 -61q59 -1 78.5 -25.5t19.5 -67.5q0 -98 -126 -98q-29 0 -52 5q-15 4 -15 18q0 9 3 22q4 15 19 15q4 0 22 -3q13 -2 27 -2q54 0 54 41q0 23 -11.5 32.5t-41.5 9.5h-17q-19 0 -19 18q0 11 5 33l10 52q-119 9 -178 89.5t-59 263.5q0 202 64.5 289.5t231.5 87.5
q105 0 165 -15q23 -5 23 -22q0 -18 -8 -37q-3 -10 -16 -10q-4 0 -32 6q-53 11 -135 11q-56 0 -96 -15.5t-63 -39.5t-36 -64.5t-16.5 -80t-3.5 -95.5t4 -97t16.5 -82t34 -66.5t59.5 -41.5t91 -16q81 0 160 21q25 7 33 7q13 0 17 -14q6 -18 6 -29q0 -14 -22 -22
q-90 -29 -188 -30z" />
    <glyph glyph-name="Egrave" unicode="&#xc8;" horiz-adv-x="557" 
d="M499 0h-303q-50 0 -72 20t-22 73v518q0 51 20.5 73t72.5 22h290q20 0 20 -19v-31q0 -18 -20 -18h-275q-33 0 -33 -38v-198h278q20 0 20 -20v-30q0 -18 -20 -18h-278v-225q0 -41 39 -41h283q21 0 21 -19v-31q0 -18 -21 -18zM308 772l-149 103q-12 7 -12 20q0 11 16 14
q28 4 48 4q17 0 37 -15l128 -103q11 -10 11 -19t-12 -13q-16 -4 -30 -4q-18 0 -37 13z" />
    <glyph glyph-name="Eacute" unicode="&#xc9;" horiz-adv-x="557" 
d="M499 0h-303q-50 0 -72 20t-22 73v518q0 51 20.5 73t72.5 22h290q20 0 20 -19v-31q0 -18 -20 -18h-275q-33 0 -33 -38v-198h278q20 0 20 -20v-30q0 -18 -20 -18h-278v-225q0 -41 39 -41h283q21 0 21 -19v-31q0 -18 -21 -18zM329 763q-17 -13 -36 -13q-15 0 -31 4
q-12 4 -12 13t12 19l127 103q20 15 37 15q18 0 48 -4q16 -3 16 -14t-13 -20z" />
    <glyph glyph-name="Ecircumflex" unicode="&#xca;" horiz-adv-x="557" 
d="M499 0h-303q-50 0 -72 20t-22 73v518q0 51 20.5 73t72.5 22h290q20 0 20 -19v-31q0 -18 -20 -18h-275q-33 0 -33 -38v-198h278q20 0 20 -20v-30q0 -18 -20 -18h-278v-225q0 -41 39 -41h283q21 0 21 -19v-31q0 -18 -21 -18zM191 759q-15 0 -26 4q-13 4 -13 14q0 9 9 17
l102 99q19 19 35 19h27q14 0 32 -16l105 -103q7 -6 7 -15q0 -11 -14 -15q-16 -4 -28 -4q-14 0 -33 17l-84 71l-84 -71q-20 -17 -35 -17z" />
    <glyph glyph-name="Edieresis" unicode="&#xcb;" horiz-adv-x="557" 
d="M499 0h-303q-50 0 -72 20t-22 73v518q0 51 20.5 73t72.5 22h290q20 0 20 -19v-31q0 -18 -20 -18h-275q-33 0 -33 -38v-198h278q20 0 20 -20v-30q0 -18 -20 -18h-278v-225q0 -41 39 -41h283q21 0 21 -19v-31q0 -18 -21 -18zM260 821q0 -49 -45 -49t-45 48q0 49 45 49
t45 -48zM449 821q0 -49 -44 -49t-44 48q0 49 44 49t44 -48z" />
    <glyph glyph-name="Igrave" unicode="&#xcc;" horiz-adv-x="279" 
d="M177 19q0 -21 -20 -21h-36q-19 0 -19 21v669q0 21 20 21h37q18 0 18 -21v-669zM140 772l-149 103q-12 7 -12 20q0 11 16 14q28 4 48 4q17 0 37 -15l128 -103q11 -10 11 -19t-12 -13q-16 -4 -30 -4q-18 0 -37 13z" />
    <glyph glyph-name="Iacute" unicode="&#xcd;" horiz-adv-x="279" 
d="M177 19q0 -21 -20 -21h-36q-19 0 -19 21v669q0 21 20 21h37q18 0 18 -21v-669zM139 772q-17 -13 -36 -13q-15 0 -31 4q-12 4 -12 13q0 8 12 19l127 103q20 15 37 15q18 0 48 -4q16 -3 16 -14t-13 -20z" />
    <glyph glyph-name="Icircumflex" unicode="&#xce;" horiz-adv-x="279" 
d="M177 19q0 -21 -20 -21h-36q-19 0 -19 21v669q0 21 20 21h37q18 0 18 -21v-669zM19 759q-15 0 -26 4q-13 4 -13 14q0 9 9 17l102 99q19 19 35 19h27q14 0 32 -16l105 -103q7 -6 7 -15q0 -11 -14 -15q-16 -4 -28 -4q-14 0 -33 17l-84 71l-84 -71q-20 -17 -35 -17z" />
    <glyph glyph-name="Idieresis" unicode="&#xcf;" horiz-adv-x="279" 
d="M177 19q0 -21 -20 -21h-36q-19 0 -19 21v669q0 21 20 21h37q18 0 18 -21v-669zM89 821q0 -49 -45 -49t-45 48q0 49 45 49t45 -48zM278 821q0 -49 -44 -49t-44 48q0 49 44 49t44 -48z" />
    <glyph glyph-name="Eth" unicode="&#xd0;" horiz-adv-x="700" 
d="M272 0h-81q-48 0 -68.5 21t-20.5 69v246h-61q-18 0 -18 16v29q0 17 19 17h60v215q0 49 20.5 71t70.5 22h87q117 0 181 -19q178 -51 178 -326q0 -131 -41 -215.5t-142 -121.5q-64 -24 -184 -24zM177 109q0 -41 38 -41h75q96 0 148 24q68 32 95.5 99.5t27.5 169.5
q0 200 -115 254q-52 24 -159 24h-76q-34 0 -34 -39v-202h184q19 0 19 -17v-29q0 -16 -18 -16h-185v-227z" />
    <glyph glyph-name="Ntilde" unicode="&#xd1;" horiz-adv-x="716" 
d="M175 19q0 -21 -20 -21h-34q-19 0 -19 21v635q0 30 12 43t38 13h19q22 0 32.5 -9t23.5 -32q265 -473 316 -581q-1 78 -1 596q0 24 21 24h32q19 0 19 -22v-646q0 -45 -43 -45h-18q-23 0 -33.5 9t-24.5 34q-283 506 -322 585q2 -182 2 -604zM229 769q-13 0 -22 3
q-11 3 -11 15q0 8 6 26q31 76 87 76q25 0 80 -28q40 -22 61 -22q27 0 43 37q7 19 22 19q13 0 22 -3q12 -3 12 -14q0 -8 -5 -25q-28 -82 -88 -82q-29 0 -82 27q-48 24 -63 24q-25 0 -39 -35q-7 -18 -23 -18z" />
    <glyph glyph-name="Ograve" unicode="&#xd2;" horiz-adv-x="693" 
d="M632 358q0 -145 -32.5 -227t-93 -113t-164.5 -31q-75 0 -125 16.5t-86.5 58t-53.5 114t-17 181.5q0 88 14.5 152.5t39.5 104.5t63 63.5t79 32.5t94 9q61 0 102.5 -8t78 -30.5t57.5 -62.5t32.5 -104t11.5 -156zM554 356q0 95 -10.5 153t-37.5 90t-63 42.5t-96 10.5
q-72 0 -115 -22t-68.5 -88t-25.5 -185q0 -96 12.5 -156.5t40.5 -92.5t63 -43t90 -11t89.5 10.5t64 41.5t43 92.5t13.5 157.5zM358 772l-149 103q-12 7 -12 20q0 11 16 14q28 4 48 4q17 0 37 -15l128 -103q11 -10 11 -19t-12 -13q-16 -4 -30 -4q-18 0 -37 13z" />
    <glyph glyph-name="Oacute" unicode="&#xd3;" horiz-adv-x="693" 
d="M632 358q0 -145 -32.5 -227t-93 -113t-164.5 -31q-75 0 -125 16.5t-86.5 58t-53.5 114t-17 181.5q0 88 14.5 152.5t39.5 104.5t63 63.5t79 32.5t94 9q61 0 102.5 -8t78 -30.5t57.5 -62.5t32.5 -104t11.5 -156zM554 356q0 95 -10.5 153t-37.5 90t-63 42.5t-96 10.5
q-72 0 -115 -22t-68.5 -88t-25.5 -185q0 -96 12.5 -156.5t40.5 -92.5t63 -43t90 -11t89.5 10.5t64 41.5t43 92.5t13.5 157.5zM343 772q-17 -13 -36 -13q-15 0 -31 4q-12 4 -12 13q0 8 12 19l127 103q20 15 37 15q18 0 48 -4q16 -3 16 -14t-13 -20z" />
    <glyph glyph-name="Ocircumflex" unicode="&#xd4;" horiz-adv-x="693" 
d="M632 358q0 -145 -32.5 -227t-93 -113t-164.5 -31q-75 0 -125 16.5t-86.5 58t-53.5 114t-17 181.5q0 88 14.5 152.5t39.5 104.5t63 63.5t79 32.5t94 9q61 0 102.5 -8t78 -30.5t57.5 -62.5t32.5 -104t11.5 -156zM554 356q0 95 -10.5 153t-37.5 90t-63 42.5t-96 10.5
q-72 0 -115 -22t-68.5 -88t-25.5 -185q0 -96 12.5 -156.5t40.5 -92.5t63 -43t90 -11t89.5 10.5t64 41.5t43 92.5t13.5 157.5zM230 759q-15 0 -26 4q-13 4 -13 14q0 9 9 17l102 99q19 19 35 19h27q14 0 32 -16l105 -103q7 -6 7 -15q0 -11 -14 -15q-16 -4 -28 -4q-14 0 -33 17
l-84 71l-84 -71q-20 -17 -35 -17z" />
    <glyph glyph-name="Otilde" unicode="&#xd5;" horiz-adv-x="693" 
d="M632 358q0 -145 -32.5 -227t-93 -113t-164.5 -31q-75 0 -125 16.5t-86.5 58t-53.5 114t-17 181.5q0 88 14.5 152.5t39.5 104.5t63 63.5t79 32.5t94 9q61 0 102.5 -8t78 -30.5t57.5 -62.5t32.5 -104t11.5 -156zM554 356q0 95 -10.5 153t-37.5 90t-63 42.5t-96 10.5
q-72 0 -115 -22t-68.5 -88t-25.5 -185q0 -96 12.5 -156.5t40.5 -92.5t63 -43t90 -11t89.5 10.5t64 41.5t43 92.5t13.5 157.5zM219 769q-13 0 -22 3q-11 3 -11 15q0 8 6 26q31 76 87 76q25 0 80 -28q40 -22 61 -22q27 0 43 37q7 19 22 19q13 0 22 -3q12 -3 12 -14
q0 -8 -5 -25q-28 -82 -88 -82q-29 0 -82 27q-48 24 -63 24q-25 0 -39 -35q-7 -18 -23 -18z" />
    <glyph glyph-name="Odieresis" unicode="&#xd6;" horiz-adv-x="693" 
d="M632 358q0 -145 -32.5 -227t-93 -113t-164.5 -31q-75 0 -125 16.5t-86.5 58t-53.5 114t-17 181.5q0 88 14.5 152.5t39.5 104.5t63 63.5t79 32.5t94 9q61 0 102.5 -8t78 -30.5t57.5 -62.5t32.5 -104t11.5 -156zM554 356q0 95 -10.5 153t-37.5 90t-63 42.5t-96 10.5
q-72 0 -115 -22t-68.5 -88t-25.5 -185q0 -96 12.5 -156.5t40.5 -92.5t63 -43t90 -11t89.5 10.5t64 41.5t43 92.5t13.5 157.5zM304 821q0 -49 -45 -49t-45 48q0 49 45 49t45 -48zM493 821q0 -49 -44 -49t-44 48q0 49 44 49t44 -48z" />
    <glyph glyph-name="multiply" unicode="&#xd7;" horiz-adv-x="701" 
d="M551 138q7 -7 7 -13q0 -7 -7 -14l-15 -16q-8 -8 -14 -8q-5 0 -12 7l-161 157l-159 -158q-6 -6 -13 -6q-8 0 -13 6l-16 15q-6 10 -6 13q0 8 6 14l161 161l-162 161q-7 6 -7 14q0 6 7 13l16 16q8 6 13 6q7 0 14 -7l160 -160l163 161q6 6 13 6q6 0 12 -6l16 -16q6 -8 6 -14
t-6 -14l-164 -160z" />
    <glyph glyph-name="Oslash" unicode="&#xd8;" horiz-adv-x="693" 
d="M103 -20q-6 -8 -13 -8q-8 0 -28 17q-7 6 -7 11t6 13l53 73q-51 86 -51 271q0 109 21 182.5t62 111.5t90 53t117 15q131 0 190 -45l41 57q6 9 13 9t12 -4q23 -16 23 -23t-5 -13l-48 -66q55 -80 55 -276q0 -145 -32.5 -227t-93 -113t-163.5 -31q-134 0 -196 57zM557 356
q0 144 -28 209l-335 -459q43 -52 152 -52q43 0 73 6t58 24.5t44.5 51.5t26 87.5t9.5 132.5zM140 357q0 -131 26 -200l331 455q-43 40 -147 40q-54 0 -90.5 -12t-65 -43.5t-41.5 -90.5t-13 -149z" />
    <glyph glyph-name="Ugrave" unicode="&#xd9;" horiz-adv-x="692" 
d="M597 688v-406q0 -83 -5 -125.5t-23 -73.5q-55 -97 -227 -97q-85 0 -141.5 23t-83.5 81q-22 48 -22 190v408q0 21 20 21h37q18 0 18 -21v-435q0 -103 22 -138q38 -61 154 -61q123 0 154 57q24 42 24 138v439q0 21 20 21h35q18 0 18 -21zM350 772l-149 103q-12 7 -12 20
q0 11 16 14q28 4 48 4q17 0 37 -15l128 -103q11 -10 11 -19t-12 -13q-16 -4 -30 -4q-18 0 -37 13z" />
    <glyph glyph-name="Uacute" unicode="&#xda;" horiz-adv-x="692" 
d="M597 688v-406q0 -83 -5 -125.5t-23 -73.5q-55 -97 -227 -97q-85 0 -141.5 23t-83.5 81q-22 48 -22 190v408q0 21 20 21h37q18 0 18 -21v-435q0 -103 22 -138q38 -61 154 -61q123 0 154 57q24 42 24 138v439q0 21 20 21h35q18 0 18 -21zM340 772q-17 -13 -36 -13
q-15 0 -31 4q-12 4 -12 13q0 8 12 19l127 103q20 15 37 15q18 0 48 -4q16 -3 16 -14t-13 -20z" />
    <glyph glyph-name="Ucircumflex" unicode="&#xdb;" horiz-adv-x="692" 
d="M597 688v-406q0 -83 -5 -125.5t-23 -73.5q-55 -97 -227 -97q-85 0 -141.5 23t-83.5 81q-22 48 -22 190v408q0 21 20 21h37q18 0 18 -21v-435q0 -103 22 -138q38 -61 154 -61q123 0 154 57q24 42 24 138v439q0 21 20 21h35q18 0 18 -21zM229 759q-15 0 -26 4q-13 4 -13 14
q0 9 9 17l102 99q19 19 35 19h27q14 0 32 -16l105 -103q7 -6 7 -15q0 -11 -14 -15q-16 -4 -28 -4q-14 0 -33 17l-84 71l-84 -71q-20 -17 -35 -17z" />
    <glyph glyph-name="Udieresis" unicode="&#xdc;" horiz-adv-x="692" 
d="M597 688v-406q0 -83 -5 -125.5t-23 -73.5q-55 -97 -227 -97q-85 0 -141.5 23t-83.5 81q-22 48 -22 190v408q0 21 20 21h37q18 0 18 -21v-435q0 -103 22 -138q38 -61 154 -61q123 0 154 57q24 42 24 138v439q0 21 20 21h35q18 0 18 -21zM300 821q0 -49 -45 -49t-45 48
q0 49 45 49t45 -48zM489 821q0 -49 -44 -49t-44 48q0 49 44 49t44 -48z" />
    <glyph glyph-name="Yacute" unicode="&#xdd;" horiz-adv-x="558" 
d="M317 20q0 -22 -20 -22h-36q-19 0 -19 22v287l-225 356q-13 22 -13 30q0 9 10 14q5 2 49 2q16 0 29 -20q134 -213 190 -309q33 60 188 305q15 24 32 24q36 0 42 -2q10 -3 10 -12q0 -10 -10 -27l-227 -359v-289zM286 771q-17 -13 -36 -13q-15 0 -31 4q-12 4 -12 13t12 19
l127 103q20 15 37 15q18 0 48 -4q16 -3 16 -14t-13 -20z" />
    <glyph glyph-name="Thorn" unicode="&#xde;" horiz-adv-x="620" 
d="M177 159v-140q0 -21 -20 -21h-36q-19 0 -19 21v669q0 21 20 21h36q19 0 19 -21v-122h103q123 0 178 -23q102 -41 102 -179q0 -152 -132 -190q-52 -15 -143 -15h-108zM177 224h114q87 0 125 16q67 28 67 120q0 97 -66 125q-35 15 -132 15h-108v-276z" />
    <glyph glyph-name="germandbls" unicode="&#xdf;" horiz-adv-x="552" 
d="M162 18q0 -20 -19 -20h-34q-19 0 -19 20v477q0 112 19 155q45 101 194 101q92 0 136 -42t44 -134q0 -77 -29 -118.5t-91 -59.5q86 -10 120.5 -52.5t34.5 -130.5q0 -113 -51 -161q-67 -60 -205 -60q-22 0 -24 14q-1 11 -1 30t18 19q126 3 166 51q25 29 25 107
q0 75 -37 106.5t-137 34.5q-20 1 -28.5 8t-8.5 26q0 30 36 32q140 7 140 148q0 62 -28.5 90t-85.5 28q-94 0 -120 -59q-15 -31 -15 -125v-485z" />
    <glyph glyph-name="agrave" unicode="&#xe0;" horiz-adv-x="526" 
d="M443 84q0 -28 -9 -42q-10 -15 -27 -23q-62 -32 -183 -32q-99 0 -136.5 43t-37.5 116q0 84 58 118q50 28 154 28q78 0 110 -5v49q0 51 -8 69q-16 42 -106 42q-45 0 -108 -13q-35 -8 -40 -8q-11 0 -14 12q-6 16 -6 31q0 14 16 19q80 24 164 24q106 0 141 -36
q32 -32 32 -130v-262zM372 230q-46 4 -103 4q-88 0 -122 -21q-27 -18 -27 -66t24 -74t91 -26q70 0 112 17q15 6 20 17t5 34v115zM253 592l-117 126q-10 12 -10 19q0 12 15 15t40 3q21 0 34 -17l100 -125q7 -9 7 -18q0 -10 -11 -13q-12 -3 -28 -3q-17 0 -30 13z" />
    <glyph glyph-name="aacute" unicode="&#xe1;" horiz-adv-x="526" 
d="M443 84q0 -28 -9 -42q-10 -15 -27 -23q-62 -32 -183 -32q-99 0 -136.5 43t-37.5 116q0 84 58 118q50 28 154 28q78 0 110 -5v49q0 51 -8 69q-16 42 -106 42q-45 0 -108 -13q-35 -8 -40 -8q-11 0 -14 12q-6 16 -6 31q0 14 16 19q80 24 164 24q106 0 141 -36
q32 -32 32 -130v-262zM372 230q-46 4 -103 4q-88 0 -122 -21q-27 -18 -27 -66t24 -74t91 -26q70 0 112 17q15 6 20 17t5 34v115zM274 592q-12 -13 -30 -13q-17 0 -27 3q-12 3 -12 13q0 9 7 18l100 125q13 17 34 17q25 0 40 -3q15 -2 15 -14q0 -8 -10 -20z" />
    <glyph glyph-name="acircumflex" unicode="&#xe2;" horiz-adv-x="526" 
d="M443 84q0 -28 -9 -42q-10 -15 -27 -23q-62 -32 -183 -32q-99 0 -136.5 43t-37.5 116q0 84 58 118q50 28 154 28q78 0 110 -5v49q0 51 -8 69q-16 42 -106 42q-45 0 -108 -13q-35 -8 -40 -8q-11 0 -14 12q-6 16 -6 31q0 14 16 19q80 24 164 24q106 0 141 -36
q32 -32 32 -130v-262zM372 230q-46 4 -103 4q-88 0 -122 -21q-27 -18 -27 -66t24 -74t91 -26q70 0 112 17q15 6 20 17t5 34v115zM154 573q-12 0 -24 2q-13 3 -13 13q0 9 7 17l94 130q13 18 31 18h26q17 0 28 -15l95 -132q7 -10 7 -17q0 -10 -12 -13t-26 -3q-16 0 -27 14
l-80 102l-78 -100q-12 -16 -28 -16z" />
    <glyph glyph-name="atilde" unicode="&#xe3;" horiz-adv-x="526" 
d="M443 84q0 -28 -9 -42q-10 -15 -27 -23q-62 -32 -183 -32q-99 0 -136.5 43t-37.5 116q0 84 58 118q50 28 154 28q78 0 110 -5v49q0 51 -8 69q-16 42 -106 42q-45 0 -108 -13q-35 -8 -40 -8q-11 0 -14 12q-6 16 -6 31q0 14 16 19q80 24 164 24q106 0 141 -36
q32 -32 32 -130v-262zM372 230q-46 4 -103 4q-88 0 -122 -21q-27 -18 -27 -66t24 -74t91 -26q70 0 112 17q15 6 20 17t5 34v115zM133 598q-14 0 -21 2q-12 4 -12 15q0 7 5 22q32 79 84 79q24 0 76 -28q40 -22 60 -22q13 0 21.5 7t17.5 30q6 18 22 18q10 0 20 -2
q13 -3 13 -15q0 -8 -6 -26q-15 -42 -34.5 -60.5t-48.5 -18.5q-28 0 -79 27q-46 23 -59 23q-12 0 -19 -6.5t-17 -26.5q-8 -18 -23 -18z" />
    <glyph glyph-name="adieresis" unicode="&#xe4;" horiz-adv-x="526" 
d="M443 84q0 -28 -9 -42q-10 -15 -27 -23q-62 -32 -183 -32q-99 0 -136.5 43t-37.5 116q0 84 58 118q50 28 154 28q78 0 110 -5v49q0 51 -8 69q-16 42 -106 42q-45 0 -108 -13q-35 -8 -40 -8q-11 0 -14 12q-6 16 -6 31q0 14 16 19q80 24 164 24q106 0 141 -36
q32 -32 32 -130v-262zM372 230q-46 4 -103 4q-88 0 -122 -21q-27 -18 -27 -66t24 -74t91 -26q70 0 112 17q15 6 20 17t5 34v115zM224 661q0 -48 -45 -48t-45 47q0 49 45 49t45 -48zM403 661q0 -48 -44 -48t-44 47q0 49 44 49t44 -48z" />
    <glyph glyph-name="aring" unicode="&#xe5;" horiz-adv-x="526" 
d="M443 84q0 -28 -9 -42q-10 -15 -27 -23q-62 -32 -183 -32q-99 0 -136.5 43t-37.5 116q0 84 58 118q50 28 154 28q78 0 110 -5v49q0 51 -8 69q-16 42 -106 42q-45 0 -108 -13q-35 -8 -40 -8q-11 0 -14 12q-6 16 -6 31q0 14 16 19q80 24 164 24q106 0 141 -36
q32 -32 32 -130v-262zM372 230q-46 4 -103 4q-88 0 -122 -21q-27 -18 -27 -66t24 -74t91 -26q70 0 112 17q15 6 20 17t5 34v115zM357 670q0 -45 -26.5 -70t-70.5 -25q-42 0 -67.5 25t-25.5 70t26.5 71t69.5 26q44 0 69 -25.5t25 -71.5zM321 672q0 62 -60 62q-27 0 -43 -16
t-16 -47q0 -30 16.5 -46.5t43.5 -16.5t43 17t16 47z" />
    <glyph glyph-name="ae" unicode="&#xe6;" horiz-adv-x="831" 
d="M421 53q-67 -66 -195 -66q-97 0 -136.5 43t-39.5 119q0 77 59 113q49 28 164 30q73 0 99 -1v44q0 50 -8 69q-17 43 -109 43q-53 0 -113 -14q-30 -7 -33 -7q-8 0 -14 13q-6 16 -6 30t16 18q83 25 162 25q71 0 108.5 -18t46.5 -66q46 84 170 84q62 0 101 -16.5t58 -52.5
t25 -76.5t6 -104.5q0 -17 -8 -25q-5 -5 -20 -5h-312q0 -105 37.5 -143t119.5 -38q76 0 126 16q20 4 23 4q10 0 14 -12q8 -24 8 -29q0 -12 -16 -19q-60 -24 -157 -24q-127 0 -176 66zM372 232q-24 1 -99 1q-99 -2 -128 -25q-25 -20 -25 -60q0 -49 26 -75t93 -26q43 0 88 14
t67 38q-22 45 -22 133zM442 292h270q1 8 1 21q0 71 -25.5 106t-99.5 35q-78 0 -111 -41t-35 -121z" />
    <glyph glyph-name="ccedilla" unicode="&#xe7;" horiz-adv-x="459" 
d="M259 -59q56 0 74.5 -23.5t18.5 -65.5q0 -94 -120 -94q-32 0 -49 4q-15 4 -15 17q0 11 3 21q4 14 18 14q6 0 20 -2q11 -1 26 -1q52 0 52 39q0 23 -11 32t-39 9h-16q-18 0 -18 16q0 8 4 32l10 51q-81 11 -122 69.5t-41 181.5q0 141 52.5 206t176.5 65q62 0 114 -13
q17 -4 17 -19t-7 -34q-4 -12 -15 -12q-10 0 -27 5q-38 8 -85 8q-40 0 -68.5 -10.5t-45 -27t-25.5 -43.5t-12 -53t-3 -62q0 -100 29 -150t113 -50q64 0 110 12q25 5 26 5q9 0 12 -10q7 -19 7 -30q0 -15 -15 -20q-63 -21 -142 -21z" />
    <glyph glyph-name="egrave" unicode="&#xe8;" horiz-adv-x="515" 
d="M126 229q1 -104 39.5 -141t122.5 -37q64 0 117 15q17 5 26 5t14 -10q8 -21 8 -31q0 -11 -16 -18q-63 -25 -157 -25q-124 0 -176 61t-52 200t56.5 201.5t169.5 62.5q50 0 85 -12.5t54.5 -32t30.5 -53.5t14 -66.5t3 -82.5q0 -24 -7 -30q-8 -6 -20 -6h-312zM126 288h268
q1 8 1 25q0 69 -25 102.5t-97 33.5q-79 0 -112 -41t-35 -120zM266 592l-117 126q-10 12 -10 19q0 12 15 15t40 3q21 0 34 -17l100 -125q7 -9 7 -18q0 -10 -11 -13q-12 -3 -28 -3q-17 0 -30 13z" />
    <glyph glyph-name="eacute" unicode="&#xe9;" horiz-adv-x="515" 
d="M126 229q1 -104 39.5 -141t122.5 -37q64 0 117 15q17 5 26 5t14 -10q8 -21 8 -31q0 -11 -16 -18q-63 -25 -157 -25q-124 0 -176 61t-52 200t56.5 201.5t169.5 62.5q50 0 85 -12.5t54.5 -32t30.5 -53.5t14 -66.5t3 -82.5q0 -24 -7 -30q-8 -6 -20 -6h-312zM126 288h268
q1 8 1 25q0 69 -25 102.5t-97 33.5q-79 0 -112 -41t-35 -120zM270 592q-12 -13 -30 -13q-16 0 -27 3q-12 3 -12 13q0 9 7 18l100 125q13 17 34 17q25 0 40 -3q15 -2 15 -14q0 -8 -10 -20z" />
    <glyph glyph-name="ecircumflex" unicode="&#xea;" horiz-adv-x="515" 
d="M126 229q1 -104 39.5 -141t122.5 -37q64 0 117 15q17 5 26 5t14 -10q8 -21 8 -31q0 -11 -16 -18q-63 -25 -157 -25q-124 0 -176 61t-52 200t56.5 201.5t169.5 62.5q50 0 85 -12.5t54.5 -32t30.5 -53.5t14 -66.5t3 -82.5q0 -24 -7 -30q-8 -6 -20 -6h-312zM126 288h268
q1 8 1 25q0 69 -25 102.5t-97 33.5q-79 0 -112 -41t-35 -120zM164 573q-12 0 -24 2q-13 3 -13 13q0 9 7 17l94 130q13 18 31 18h26q17 0 28 -15l95 -132q7 -10 7 -17q0 -10 -12 -13t-26 -3q-16 0 -27 14l-80 102l-78 -100q-12 -16 -28 -16z" />
    <glyph glyph-name="edieresis" unicode="&#xeb;" horiz-adv-x="515" 
d="M126 229q1 -104 39.5 -141t122.5 -37q64 0 117 15q17 5 26 5t14 -10q8 -21 8 -31q0 -11 -16 -18q-63 -25 -157 -25q-124 0 -176 61t-52 200t56.5 201.5t169.5 62.5q50 0 85 -12.5t54.5 -32t30.5 -53.5t14 -66.5t3 -82.5q0 -24 -7 -30q-8 -6 -20 -6h-312zM126 288h268
q1 8 1 25q0 69 -25 102.5t-97 33.5q-79 0 -112 -41t-35 -120zM224 661q0 -48 -45 -48t-45 47q0 49 45 49t45 -48zM403 661q0 -48 -44 -48t-44 47q0 49 44 49t44 -48z" />
    <glyph glyph-name="igrave" unicode="&#xec;" horiz-adv-x="241" 
d="M116 592l-117 126q-10 12 -10 19q0 12 15 15t40 3q21 0 34 -17l100 -125q7 -9 7 -18q0 -10 -11 -13q-12 -3 -28 -3q-17 0 -30 13zM156 18q0 -20 -19 -20h-33q-19 0 -19 20v460q0 22 19 22h34q18 0 18 -21v-461z" />
    <glyph glyph-name="iacute" unicode="&#xed;" horiz-adv-x="241" 
d="M131 592q-12 -13 -30 -13q-17 0 -27 3q-12 3 -12 13q0 9 7 18l100 125q13 17 34 17q25 0 40 -3q15 -2 15 -14q0 -8 -10 -20zM156 18q0 -20 -19 -20h-33q-19 0 -19 20v460q0 22 19 22h34q18 0 18 -21v-461z" />
    <glyph glyph-name="icircumflex" unicode="&#xee;" horiz-adv-x="241" 
d="M156 18q0 -20 -19 -20h-33q-19 0 -19 20v460q0 22 19 22h34q18 0 18 -21v-461zM14 573q-12 0 -24 2q-13 3 -13 13q0 9 7 17l94 130q13 18 31 18h26q17 0 28 -15l95 -132q7 -10 7 -17q0 -10 -12 -13t-26 -3q-16 0 -27 14l-80 102l-78 -100q-12 -16 -28 -16z" />
    <glyph glyph-name="idieresis" unicode="&#xef;" horiz-adv-x="241" 
d="M75 661q0 -48 -45 -48t-45 47q0 49 45 49t45 -48zM254 661q0 -48 -44 -48t-44 47q0 49 44 49t44 -48zM156 18q0 -20 -19 -20h-33q-19 0 -19 20v460q0 22 19 22h34q18 0 18 -21v-461z" />
    <glyph glyph-name="eth" unicode="&#xf0;" horiz-adv-x="542" 
d="M473 699l-67 -44q52 -62 68.5 -158t16.5 -243q0 -154 -51.5 -210.5t-168.5 -56.5q-58 0 -96 11t-66.5 39.5t-41.5 80.5t-13 132q0 78 16 130.5t47 79t68 37t88 10.5q40 0 81.5 -13t58.5 -44q-16 111 -66 166l-81 -53q-11 -8 -18 -8q-8 0 -18 16q-8 13 -8 18q0 7 9 14
l74 49q-51 33 -136 39q-16 2 -16 14q0 17 3 29q4 13 18 13q17 0 28 -1q102 -9 164 -55l76 50q10 6 15 6q6 0 11 -8q15 -22 15 -26q0 -7 -10 -14zM418 248q0 120 -30.5 158t-111.5 38q-80 0 -115 -39.5t-35 -152.5q0 -86 16.5 -130t45.5 -57.5t85 -13.5q39 0 63 6t44.5 26
t29 60t8.5 105z" />
    <glyph glyph-name="ntilde" unicode="&#xf1;" horiz-adv-x="572" 
d="M156 18q0 -20 -19 -20h-33q-19 0 -19 20v391q0 44 31 58q89 43 223 43q65 0 96 -15t43 -46q9 -26 9 -98v-333q0 -20 -19 -20h-33q-19 0 -19 20v320q0 46 -7 69q-7 20 -26.5 29t-63.5 9q-84 0 -138 -23q-13 -6 -19 -15q-6 -10 -6 -30v-359zM163 598q-14 0 -21 2
q-12 4 -12 15q0 7 5 22q32 79 84 79q24 0 76 -28q40 -22 60 -22q13 0 21.5 7t17.5 30q6 18 22 18q10 0 20 -2q13 -3 13 -15q0 -8 -6 -26q-15 -42 -34.5 -60.5t-48.5 -18.5q-28 0 -79 27q-46 23 -59 23q-12 0 -19 -6.5t-17 -26.5q-8 -18 -23 -18z" />
    <glyph glyph-name="ograve" unicode="&#xf2;" horiz-adv-x="544" 
d="M491 253q0 -153 -51 -209.5t-171 -56.5q-117 0 -166 55t-49 208q0 79 16 132t47 80.5t68.5 38.5t90.5 11q60 0 96.5 -9t65.5 -36t41 -79t12 -135zM418 249q0 84 -14.5 126.5t-43.5 57t-86 14.5q-77 0 -112.5 -40t-35.5 -154q0 -85 16 -129.5t45 -58.5t84 -14
q40 0 64.5 6.5t45 26.5t29 60t8.5 105zM267 592l-117 126q-10 12 -10 19q0 12 15 15t40 3q21 0 34 -17l100 -125q7 -9 7 -18q0 -10 -11 -13q-12 -3 -28 -3q-17 0 -30 13z" />
    <glyph glyph-name="oacute" unicode="&#xf3;" horiz-adv-x="544" 
d="M491 253q0 -153 -51 -209.5t-171 -56.5q-117 0 -166 55t-49 208q0 79 16 132t47 80.5t68.5 38.5t90.5 11q60 0 96.5 -9t65.5 -36t41 -79t12 -135zM418 249q0 84 -14.5 126.5t-43.5 57t-86 14.5q-77 0 -112.5 -40t-35.5 -154q0 -85 16 -129.5t45 -58.5t84 -14
q40 0 64.5 6.5t45 26.5t29 60t8.5 105zM278 592q-12 -13 -30 -13q-16 0 -27 3q-12 3 -12 13q0 9 7 18l100 125q13 17 34 17q25 0 40 -3q15 -2 15 -14q0 -8 -10 -20z" />
    <glyph glyph-name="ocircumflex" unicode="&#xf4;" horiz-adv-x="544" 
d="M491 253q0 -153 -51 -209.5t-171 -56.5q-117 0 -166 55t-49 208q0 79 16 132t47 80.5t68.5 38.5t90.5 11q60 0 96.5 -9t65.5 -36t41 -79t12 -135zM418 249q0 84 -14.5 126.5t-43.5 57t-86 14.5q-77 0 -112.5 -40t-35.5 -154q0 -85 16 -129.5t45 -58.5t84 -14
q40 0 64.5 6.5t45 26.5t29 60t8.5 105zM172 573q-12 0 -24 2q-13 3 -13 13q0 9 7 17l94 130q13 18 31 18h26q17 0 28 -15l95 -132q7 -10 7 -17q0 -10 -12 -13t-26 -3q-16 0 -27 14l-80 102l-78 -100q-12 -16 -28 -16z" />
    <glyph glyph-name="otilde" unicode="&#xf5;" horiz-adv-x="544" 
d="M491 253q0 -153 -51 -209.5t-171 -56.5q-117 0 -166 55t-49 208q0 79 16 132t47 80.5t68.5 38.5t90.5 11q60 0 96.5 -9t65.5 -36t41 -79t12 -135zM418 249q0 84 -14.5 126.5t-43.5 57t-86 14.5q-77 0 -112.5 -40t-35.5 -154q0 -85 16 -129.5t45 -58.5t84 -14
q40 0 64.5 6.5t45 26.5t29 60t8.5 105zM149 598q-14 0 -21 2q-12 4 -12 15q0 7 5 22q32 79 84 79q24 0 76 -28q40 -22 60 -22q13 0 21.5 7t17.5 30q6 18 22 18q10 0 20 -2q13 -3 13 -15q0 -8 -6 -26q-15 -42 -34.5 -60.5t-48.5 -18.5q-28 0 -79 27q-46 23 -59 23
q-12 0 -19 -6.5t-17 -26.5q-8 -18 -23 -18z" />
    <glyph glyph-name="odieresis" unicode="&#xf6;" horiz-adv-x="544" 
d="M491 253q0 -153 -51 -209.5t-171 -56.5q-117 0 -166 55t-49 208q0 79 16 132t47 80.5t68.5 38.5t90.5 11q60 0 96.5 -9t65.5 -36t41 -79t12 -135zM418 249q0 84 -14.5 126.5t-43.5 57t-86 14.5q-77 0 -112.5 -40t-35.5 -154q0 -85 16 -129.5t45 -58.5t84 -14
q40 0 64.5 6.5t45 26.5t29 60t8.5 105zM231 661q0 -48 -45 -48t-45 47q0 49 45 49t45 -48zM410 661q0 -48 -44 -48t-44 47q0 49 44 49t44 -48z" />
    <glyph glyph-name="divide" unicode="&#xf7;" horiz-adv-x="701" 
d="M350 412q-40 0 -40 45t42 45q39 0 39 -45q0 -22 -11.5 -33.5t-29.5 -11.5zM594 265h-487q-17 0 -17 20v21q0 19 17 19h487q16 0 16 -19v-21q0 -20 -16 -20zM350 83q-40 0 -40 45t42 45q39 0 39 -45q0 -22 -11.5 -33.5t-29.5 -11.5z" />
    <glyph glyph-name="oslash" unicode="&#xf8;" horiz-adv-x="544" 
d="M101 -31q-6 -8 -12 -8q-9 0 -26 15q-7 6 -7 11q0 6 5 13l38 52q-45 60 -45 198q0 79 17 132.5t49.5 81t70.5 38t91 10.5q88 0 135 -24l37 51q5 8 13 8q7 0 12 -4q20 -14 20 -20t-4 -13l-39 -54q46 -58 46 -203q0 -79 -13.5 -131.5t-43 -82t-70 -41t-99.5 -11.5
q-92 0 -140 30zM431 249q0 103 -21 145l-234 -322q32 -23 101 -23q41 0 66.5 6.5t47 26.5t31 61t9.5 106zM125 253q0 -94 19 -139l232 318q-30 17 -96 17q-82 0 -118.5 -40t-36.5 -156z" />
    <glyph glyph-name="ugrave" unicode="&#xf9;" horiz-adv-x="572" 
d="M85 161v318q0 21 19 21h33q19 0 19 -21v-310q0 -57 9 -77q17 -41 102 -41q83 0 124 16q12 4 19 14q6 10 6 32v366q0 21 19 21h33q19 0 19 -21v-400q0 -45 -31 -60q-71 -32 -204 -32q-129 0 -155 65q-12 33 -12 109zM278 594l-117 126q-10 12 -10 19q0 12 15 15t40 3
q21 0 34 -17l100 -125q7 -9 7 -18q0 -10 -11 -13q-12 -3 -28 -3q-17 0 -30 13z" />
    <glyph glyph-name="uacute" unicode="&#xfa;" horiz-adv-x="572" 
d="M85 161v318q0 21 19 21h33q19 0 19 -21v-310q0 -57 9 -77q17 -41 102 -41q83 0 124 16q12 4 19 14q6 10 6 32v366q0 21 19 21h33q19 0 19 -21v-400q0 -45 -31 -60q-71 -32 -204 -32q-129 0 -155 65q-12 33 -12 109zM293 592q-12 -13 -30 -13q-17 0 -27 3q-12 3 -12 13
q0 9 7 18l100 125q13 17 34 17q25 0 40 -3q15 -2 15 -14q0 -8 -10 -20z" />
    <glyph glyph-name="ucircumflex" unicode="&#xfb;" horiz-adv-x="572" 
d="M85 161v318q0 21 19 21h33q19 0 19 -21v-310q0 -57 9 -77q17 -41 102 -41q83 0 124 16q12 4 19 14q6 10 6 32v366q0 21 19 21h33q19 0 19 -21v-400q0 -45 -31 -60q-71 -32 -204 -32q-129 0 -155 65q-12 33 -12 109zM180 573q-12 0 -24 2q-13 3 -13 13q0 9 7 17l94 130
q13 18 31 18h26q17 0 28 -15l95 -132q7 -10 7 -17q0 -10 -12 -13t-26 -3q-16 0 -27 14l-80 102l-78 -100q-12 -16 -28 -16z" />
    <glyph glyph-name="udieresis" unicode="&#xfc;" horiz-adv-x="572" 
d="M85 161v318q0 21 19 21h33q19 0 19 -21v-310q0 -57 9 -77q17 -41 102 -41q83 0 124 16q12 4 19 14q6 10 6 32v366q0 21 19 21h33q19 0 19 -21v-400q0 -45 -31 -60q-71 -32 -204 -32q-129 0 -155 65q-12 33 -12 109zM241 661q0 -48 -45 -48t-45 47q0 49 45 49t45 -48z
M420 661q0 -48 -44 -48t-44 47q0 49 44 49t44 -48z" />
    <glyph glyph-name="yacute" unicode="&#xfd;" horiz-adv-x="572" 
d="M85 149v330q0 21 19 21h33q19 0 19 -21v-318q0 -48 8 -70q16 -39 96 -39q83 0 131 25q14 7 19 14q6 10 6 29v359q0 21 19 21h33q19 0 19 -21v-464q0 -76 -15 -122q-40 -127 -301 -127q-23 0 -25 15q-2 10 -2 29q0 21 19 21q84 2 134.5 12.5t71 26t31.5 40.5q14 34 14 86
v28q-63 -37 -175 -37q-118 0 -142 64q-12 31 -12 98zM294 592q-12 -13 -30 -13q-16 0 -27 3q-12 3 -12 13q0 9 7 18l100 125q13 17 34 17q25 0 40 -3q15 -2 15 -14q0 -8 -10 -20z" />
    <glyph glyph-name="thorn" unicode="&#xfe;" horiz-adv-x="559" 
d="M156 -224q0 -20 -20 -20h-32q-19 0 -19 20v951q0 21 19 21h33q11 0 15 -4.5t4 -15.5v-264q50 46 164 46q100 0 143 -58t43 -198q0 -105 -25.5 -163t-74.5 -80t-135 -22q-73 0 -115 19v-232zM157 102q0 -18 3.5 -25t13.5 -11q33 -15 92 -15q100 0 134 42.5t34 160.5
q0 104 -26.5 147.5t-104.5 43.5q-76 0 -123 -21q-15 -6 -20 -17q-3 -6 -3 -31v-274z" />
    <glyph glyph-name="ydieresis" unicode="&#xff;" horiz-adv-x="572" 
d="M85 149v330q0 21 19 21h33q19 0 19 -21v-318q0 -48 8 -70q16 -39 96 -39q83 0 131 25q14 7 19 14q6 10 6 29v359q0 21 19 21h33q19 0 19 -21v-464q0 -76 -15 -122q-40 -127 -301 -127q-23 0 -25 15q-2 10 -2 29q0 21 19 21q84 2 134.5 12.5t71 26t31.5 40.5q14 34 14 86
v28q-63 -37 -175 -37q-118 0 -142 64q-12 31 -12 98zM246 661q0 -48 -45 -48t-45 47q0 49 45 49t45 -48zM425 661q0 -48 -44 -48t-44 47q0 49 44 49t44 -48z" />
    <glyph glyph-name="Amacron" unicode="&#x100;" horiz-adv-x="598" 
d="M159 222l-70 -199q-5 -15 -9.5 -20.5t-14.5 -5.5q-33 0 -47 3q-10 2 -10 14q0 6 7 27l222 619q10 28 22.5 39t37.5 11h15q23 0 34 -10.5t21 -39.5l215 -618q7 -18 7 -28t-9 -14q-9 -3 -47 -3q-10 0 -15 6t-10 20l-70 199h-279zM179 289h239l-118 352zM424 791h-251
q-20 0 -20 19v29q0 19 21 19h249q21 0 21 -19v-30q0 -18 -20 -18z" />
    <glyph glyph-name="amacron" unicode="&#x101;" horiz-adv-x="526" 
d="M443 84q0 -28 -9 -42q-10 -15 -27 -23q-62 -32 -183 -32q-99 0 -136.5 43t-37.5 116q0 84 58 118q50 28 154 28q78 0 110 -5v49q0 51 -8 69q-16 42 -106 42q-45 0 -108 -13q-35 -8 -40 -8q-11 0 -14 12q-6 16 -6 31q0 14 16 19q80 24 164 24q106 0 141 -36
q32 -32 32 -130v-262zM372 230q-46 4 -103 4q-88 0 -122 -21q-27 -18 -27 -66t24 -74t91 -26q70 0 112 17q15 6 20 17t5 34v115zM379 610h-234q-20 0 -20 18v29q0 19 21 19h232q20 0 20 -19v-30q0 -17 -19 -17z" />
    <glyph glyph-name="Abreve" unicode="&#x102;" horiz-adv-x="598" 
d="M159 222l-70 -199q-5 -15 -9.5 -20.5t-14.5 -5.5q-33 0 -47 3q-10 2 -10 14q0 6 7 27l222 619q10 28 22.5 39t37.5 11h15q23 0 34 -10.5t21 -39.5l215 -618q7 -18 7 -28t-9 -14q-9 -3 -47 -3q-10 0 -15 6t-10 20l-70 199h-279zM179 289h239l-118 352zM296 759
q-122 0 -140 98q-3 14 -3 27q0 16 14 20q12 4 26 4q13 0 16 -16q6 -36 25.5 -54t63.5 -18q46 0 66 18t27 53q3 17 19 17q14 0 25 -3q10 -3 10 -17q0 -17 -4 -34q-26 -95 -145 -95z" />
    <glyph glyph-name="abreve" unicode="&#x103;" horiz-adv-x="526" 
d="M443 84q0 -28 -9 -42q-10 -15 -27 -23q-62 -32 -183 -32q-99 0 -136.5 43t-37.5 116q0 84 58 118q50 28 154 28q78 0 110 -5v49q0 51 -8 69q-16 42 -106 42q-45 0 -108 -13q-35 -8 -40 -8q-11 0 -14 12q-6 16 -6 31q0 14 16 19q80 24 164 24q106 0 141 -36
q32 -32 32 -130v-262zM372 230q-46 4 -103 4q-88 0 -122 -21q-27 -18 -27 -66t24 -74t91 -26q70 0 112 17q15 6 20 17t5 34v115zM370 727q14 0 21 -3q12 -3 12 -17q0 -10 -6 -38q-24 -97 -137 -97q-117 0 -135 103q-3 27 -3 28q0 17 14 20q10 4 22 4q15 0 18 -17
q10 -76 85 -76q43 0 63 19t27 56q3 18 19 18z" />
    <glyph glyph-name="Aogonek" unicode="&#x104;" horiz-adv-x="598" 
d="M159 222l-70 -199q-5 -15 -9.5 -20.5t-14.5 -5.5q-33 0 -47 3q-10 2 -10 14q0 6 7 27l222 619q10 28 22.5 39t37.5 11h15q23 0 34 -10.5t21 -39.5l215 -618q6 -15 6 -26q0 -9 -13 -18q-54 -39 -74.5 -63.5t-20.5 -62.5q0 -55 57 -55q11 0 29 1.5t20 1.5q11 0 15 -13
q3 -11 3 -23t-17 -18q-24 -7 -62 -7q-111 0 -111 103q0 53 26 83t78 57q-5 5 -10 21l-70 199h-279zM179 289h239l-118 352z" />
    <glyph glyph-name="aogonek" unicode="&#x105;" horiz-adv-x="526" 
d="M443 85q0 -29 -8 -45q-7 -13 -25 -26q-63 -50 -83 -74.5t-20 -61.5q0 -52 54 -52q11 0 27 1t18 1q13 0 15 -12q3 -13 3 -23q0 -13 -16 -17q-23 -5 -59 -5q-106 0 -106 98q0 79 88 128q-35 -10 -107 -10q-99 0 -136.5 43t-37.5 116q0 84 58 118q50 28 154 28q78 0 110 -5
v49q0 51 -8 69q-16 42 -106 42q-45 0 -108 -13q-35 -8 -40 -8q-11 0 -14 12q-6 16 -6 31q0 14 16 19q80 24 164 24q106 0 141 -36q32 -32 32 -130v-261zM372 230q-46 4 -103 4q-88 0 -122 -21q-27 -18 -27 -66t24 -74t91 -26q70 0 112 17q15 6 20 17t5 34v115z" />
    <glyph glyph-name="Cacute" unicode="&#x106;" horiz-adv-x="594" 
d="M138 357q0 -56 4 -97t16.5 -82t34 -66.5t59.5 -41.5t91 -16q81 0 160 21q25 7 33 7q13 0 17 -14q6 -18 6 -29q0 -14 -22 -22q-91 -30 -203 -30q-138 0 -206 79.5t-68 275.5q0 202 64.5 289.5t231.5 87.5q105 0 165 -15q23 -5 23 -22q0 -18 -8 -37q-3 -10 -16 -10
q-4 0 -32 6q-53 11 -135 11q-56 0 -96 -15.5t-63 -39.5t-36 -64.5t-16.5 -80t-3.5 -95.5zM358 772q-17 -13 -36 -13q-15 0 -31 4q-12 4 -12 13q0 8 12 19l127 103q20 15 37 15q18 0 48 -4q16 -3 16 -14t-13 -20z" />
    <glyph glyph-name="cacute" unicode="&#x107;" horiz-adv-x="459" 
d="M126 251q0 -100 29 -150t113 -50q64 0 110 12q25 5 26 5q9 0 12 -10q7 -19 7 -30q0 -15 -15 -20q-60 -21 -145 -21q-104 0 -156.5 57.5t-52.5 196.5q0 141 52.5 206t176.5 65q62 0 114 -13q17 -4 17 -19t-7 -34q-4 -12 -15 -12q-10 0 -27 5q-38 8 -85 8
q-40 0 -68.5 -10.5t-45 -27t-25.5 -43.5t-12 -53t-3 -62zM286 592q-12 -13 -30 -13q-16 0 -27 3q-12 3 -12 13q0 9 7 18l100 125q13 17 34 17q25 0 40 -3q15 -2 15 -14q0 -8 -10 -20z" />
    <glyph glyph-name="Ccircumflex" unicode="&#x108;" horiz-adv-x="594" 
d="M138 357q0 -56 4 -97t16.5 -82t34 -66.5t59.5 -41.5t91 -16q81 0 160 21q25 7 33 7q13 0 17 -14q6 -18 6 -29q0 -14 -22 -22q-91 -30 -203 -30q-138 0 -206 79.5t-68 275.5q0 202 64.5 289.5t231.5 87.5q105 0 165 -15q23 -5 23 -22q0 -18 -8 -37q-3 -10 -16 -10
q-4 0 -32 6q-53 11 -135 11q-56 0 -96 -15.5t-63 -39.5t-36 -64.5t-16.5 -80t-3.5 -95.5zM233 759q-15 0 -26 4q-13 4 -13 14q0 9 9 17l102 99q19 19 35 19h27q14 0 32 -16l105 -103q7 -6 7 -15q0 -11 -14 -15q-16 -4 -28 -4q-14 0 -33 17l-84 71l-84 -71q-20 -17 -35 -17z
" />
    <glyph glyph-name="ccircumflex" unicode="&#x109;" horiz-adv-x="459" 
d="M126 251q0 -100 29 -150t113 -50q64 0 110 12q25 5 26 5q9 0 12 -10q7 -19 7 -30q0 -15 -15 -20q-60 -21 -145 -21q-104 0 -156.5 57.5t-52.5 196.5q0 141 52.5 206t176.5 65q62 0 114 -13q17 -4 17 -19t-7 -34q-4 -12 -15 -12q-10 0 -27 5q-38 8 -85 8
q-40 0 -68.5 -10.5t-45 -27t-25.5 -43.5t-12 -53t-3 -62zM161 573q-12 0 -24 2q-13 3 -13 13q0 9 7 17l94 130q13 18 31 18h26q18 0 28 -15l95 -132q7 -10 7 -17q0 -10 -12 -13t-26 -3q-16 0 -27 14l-80 102l-78 -100q-12 -16 -28 -16z" />
    <glyph glyph-name="Cdotaccent" unicode="&#x10a;" horiz-adv-x="594" 
d="M138 357q0 -56 4 -97t16.5 -82t34 -66.5t59.5 -41.5t91 -16q81 0 160 21q25 7 33 7q13 0 17 -14q6 -18 6 -29q0 -14 -22 -22q-91 -30 -203 -30q-138 0 -206 79.5t-68 275.5q0 202 64.5 289.5t231.5 87.5q105 0 165 -15q23 -5 23 -22q0 -18 -8 -37q-3 -10 -16 -10
q-4 0 -32 6q-53 11 -135 11q-56 0 -96 -15.5t-63 -39.5t-36 -64.5t-16.5 -80t-3.5 -95.5zM395 821q0 -49 -44 -49q-45 0 -45 48q0 49 45 49q44 0 44 -48z" />
    <glyph glyph-name="cdotaccent" unicode="&#x10b;" horiz-adv-x="459" 
d="M126 251q0 -100 29 -150t113 -50q64 0 110 12q25 5 26 5q9 0 12 -10q7 -19 7 -30q0 -15 -15 -20q-60 -21 -145 -21q-104 0 -156.5 57.5t-52.5 196.5q0 141 52.5 206t176.5 65q62 0 114 -13q17 -4 17 -19t-7 -34q-4 -12 -15 -12q-10 0 -27 5q-38 8 -85 8
q-40 0 -68.5 -10.5t-45 -27t-25.5 -43.5t-12 -53t-3 -62zM317 661q0 -48 -45 -48t-45 47q0 49 45 49t45 -48z" />
    <glyph glyph-name="Ccaron" unicode="&#x10c;" horiz-adv-x="594" 
d="M138 357q0 -56 4 -97t16.5 -82t34 -66.5t59.5 -41.5t91 -16q81 0 160 21q25 7 33 7q13 0 17 -14q6 -18 6 -29q0 -14 -22 -22q-91 -30 -203 -30q-138 0 -206 79.5t-68 275.5q0 202 64.5 289.5t231.5 87.5q105 0 165 -15q23 -5 23 -22q0 -18 -8 -37q-3 -10 -16 -10
q-4 0 -32 6q-53 11 -135 11q-56 0 -96 -15.5t-63 -39.5t-36 -64.5t-16.5 -80t-3.5 -95.5zM467 916q15 0 27 -3q12 -4 12 -14q0 -8 -9 -17l-102 -100q-20 -18 -34 -18h-28q-14 0 -31 15l-107 106q-6 6 -6 14q0 10 13 14q14 3 29 3q13 0 33 -16l85 -71l84 71q17 16 34 16z" />
    <glyph glyph-name="ccaron" unicode="&#x10d;" horiz-adv-x="459" 
d="M126 251q0 -100 29 -150t113 -50q64 0 110 12q25 5 26 5q9 0 12 -10q7 -19 7 -30q0 -15 -15 -20q-60 -21 -145 -21q-104 0 -156.5 57.5t-52.5 196.5q0 141 52.5 206t176.5 65q62 0 114 -13q17 -4 17 -19t-7 -34q-4 -12 -15 -12q-10 0 -27 5q-38 8 -85 8
q-40 0 -68.5 -10.5t-45 -27t-25.5 -43.5t-12 -53t-3 -62zM378 756q14 0 24 -3q13 -3 13 -13q0 -8 -7 -16l-94 -130q-12 -18 -31 -18h-26q-17 0 -29 15l-94 131q-7 11 -7 18q0 10 12 13t26 3q16 0 27 -15l80 -101l78 100q12 16 28 16z" />
    <glyph glyph-name="Dcaron" unicode="&#x10e;" horiz-adv-x="700" 
d="M272 0h-81q-48 0 -68.5 21t-20.5 69v523q0 49 20.5 71t70.5 22h87q117 0 181 -19q178 -51 178 -326q0 -131 -41 -215.5t-142 -121.5q-64 -24 -184 -24zM177 109q0 -41 38 -41h75q96 0 148 24q68 32 95.5 99.5t27.5 169.5q0 200 -115 254q-52 24 -159 24h-76
q-34 0 -34 -39v-491zM446 916q15 0 27 -3q12 -4 12 -14q0 -8 -9 -17l-102 -100q-20 -18 -34 -18h-28q-14 0 -31 15l-107 106q-6 6 -6 14q0 10 13 14q14 3 29 3q13 0 33 -16l85 -71l84 71q17 16 34 16z" />
    <glyph glyph-name="dcaron" unicode="&#x10f;" horiz-adv-x="559" 
d="M474 82q0 -26 -5 -36q-6 -16 -31 -28q-64 -31 -178 -31q-109 0 -157.5 56.5t-48.5 194.5q0 155 56 214.5t180 59.5q72 0 113 -18v234q0 20 21 20h32q18 0 18 -20v-646zM403 117v281q0 28 -18 36q-29 13 -93 13q-98 0 -132 -45t-34 -159q0 -102 29.5 -147.5t106.5 -45.5
q82 0 118 16q14 6 19 18q4 12 4 33zM591 748h21q23 0 23 -26q0 -107 -63 -171q-11 -13 -23 -13q-9 0 -19 7q-11 8 -11 17q0 7 7 16q36 50 38 143q0 27 27 27z" />
    <glyph glyph-name="Dcroat" unicode="&#x110;" horiz-adv-x="700" 
d="M272 0h-81q-48 0 -68.5 21t-20.5 69v246h-61q-18 0 -18 16v29q0 17 19 17h60v215q0 49 20.5 71t70.5 22h87q117 0 181 -19q178 -51 178 -326q0 -131 -41 -215.5t-142 -121.5q-64 -24 -184 -24zM177 109q0 -41 38 -41h75q96 0 148 24q68 32 95.5 99.5t27.5 169.5
q0 200 -115 254q-52 24 -159 24h-76q-34 0 -34 -39v-202h184q19 0 19 -17v-29q0 -16 -18 -16h-185v-227z" />
    <glyph glyph-name="dcroat" unicode="&#x111;" horiz-adv-x="559" 
d="M474 82q0 -26 -5 -36q-6 -16 -31 -28q-64 -31 -178 -31q-109 0 -157.5 56.5t-48.5 194.5q0 155 56 214.5t180 59.5q72 0 113 -18v92h-107q-18 0 -18 16v22q0 18 19 18h106v86q0 20 21 20h32q18 0 18 -20v-86h62q20 0 20 -18v-23q0 -15 -19 -15h-63v-504zM403 117v281
q0 28 -18 36q-29 13 -93 13q-98 0 -132 -45t-34 -159q0 -102 29.5 -147.5t106.5 -45.5q82 0 118 16q14 6 19 18q4 12 4 33z" />
    <glyph glyph-name="Emacron" unicode="&#x112;" horiz-adv-x="557" 
d="M499 0h-303q-50 0 -72 20t-22 73v518q0 51 20.5 73t72.5 22h290q20 0 20 -19v-31q0 -18 -20 -18h-275q-33 0 -33 -38v-198h278q20 0 20 -20v-30q0 -18 -20 -18h-278v-225q0 -41 39 -41h283q21 0 21 -19v-31q0 -18 -21 -18zM440 791h-251q-20 0 -20 19v29q0 19 21 19h249
q21 0 21 -19v-30q0 -18 -20 -18z" />
    <glyph glyph-name="emacron" unicode="&#x113;" horiz-adv-x="515" 
d="M126 229q1 -104 39.5 -141t122.5 -37q64 0 117 15q17 5 26 5t14 -10q8 -21 8 -31q0 -11 -16 -18q-63 -25 -157 -25q-124 0 -176 61t-52 200t56.5 201.5t169.5 62.5q50 0 85 -12.5t54.5 -32t30.5 -53.5t14 -66.5t3 -82.5q0 -24 -7 -30q-8 -6 -20 -6h-312zM126 288h268
q1 8 1 25q0 69 -25 102.5t-97 33.5q-79 0 -112 -41t-35 -120zM392 610h-234q-20 0 -20 18v29q0 19 21 19h232q20 0 20 -19v-30q0 -17 -19 -17z" />
    <glyph glyph-name="Ebreve" unicode="&#x114;" horiz-adv-x="557" 
d="M499 0h-303q-50 0 -72 20t-22 73v518q0 51 20.5 73t72.5 22h290q20 0 20 -19v-31q0 -18 -20 -18h-275q-33 0 -33 -38v-198h278q20 0 20 -20v-30q0 -18 -20 -18h-278v-225q0 -41 39 -41h283q21 0 21 -19v-31q0 -18 -21 -18zM306 759q-122 0 -140 98q-3 14 -3 27
q0 16 14 20q12 4 26 4q13 0 16 -16q6 -36 25.5 -54t63.5 -18q46 0 66 18t27 53q3 17 19 17q14 0 25 -3q10 -3 10 -17q0 -17 -4 -34q-26 -95 -145 -95z" />
    <glyph glyph-name="ebreve" unicode="&#x115;" horiz-adv-x="515" 
d="M126 229q1 -104 39.5 -141t122.5 -37q64 0 117 15q17 5 26 5t14 -10q8 -21 8 -31q0 -11 -16 -18q-63 -25 -157 -25q-124 0 -176 61t-52 200t56.5 201.5t169.5 62.5q50 0 85 -12.5t54.5 -32t30.5 -53.5t14 -66.5t3 -82.5q0 -24 -7 -30q-8 -6 -20 -6h-312zM126 288h268
q1 8 1 25q0 69 -25 102.5t-97 33.5q-79 0 -112 -41t-35 -120zM379 727q13 0 21 -3q12 -3 12 -17q0 -10 -6 -38q-24 -97 -137 -97q-117 0 -135 103q-3 27 -3 28q0 17 14 20q10 4 22 4q15 0 18 -17q10 -76 85 -76q43 0 63 19t27 56q3 18 19 18z" />
    <glyph glyph-name="Edotaccent" unicode="&#x116;" horiz-adv-x="557" 
d="M499 0h-303q-50 0 -72 20t-22 73v518q0 51 20.5 73t72.5 22h290q20 0 20 -19v-31q0 -18 -20 -18h-275q-33 0 -33 -38v-198h278q20 0 20 -20v-30q0 -18 -20 -18h-278v-225q0 -41 39 -41h283q21 0 21 -19v-31q0 -18 -21 -18zM358 821q0 -49 -44 -49q-45 0 -45 48
q0 49 45 49q44 0 44 -48z" />
    <glyph glyph-name="edotaccent" unicode="&#x117;" horiz-adv-x="515" 
d="M126 229q1 -104 39.5 -141t122.5 -37q64 0 117 15q17 5 26 5t14 -10q8 -21 8 -31q0 -11 -16 -18q-63 -25 -157 -25q-124 0 -176 61t-52 200t56.5 201.5t169.5 62.5q50 0 85 -12.5t54.5 -32t30.5 -53.5t14 -66.5t3 -82.5q0 -24 -7 -30q-8 -6 -20 -6h-312zM126 288h268
q1 8 1 25q0 69 -25 102.5t-97 33.5q-79 0 -112 -41t-35 -120zM318 661q0 -48 -45 -48t-45 47q0 49 45 49t45 -48z" />
    <glyph glyph-name="Eogonek" unicode="&#x118;" horiz-adv-x="557" 
d="M499 0h-17q-56 -38 -77 -64t-21 -64q0 -55 57 -55q12 0 29.5 1.5t19.5 1.5q11 0 15 -13q3 -11 3 -23t-17 -18q-24 -7 -62 -7q-111 0 -111 103q0 51 25 81t74 57h-221q-50 0 -72 20t-22 73v518q0 51 20.5 73t72.5 22h290q20 0 20 -19v-31q0 -18 -20 -18h-275
q-33 0 -33 -38v-198h278q20 0 20 -20v-30q0 -18 -20 -18h-278v-225q0 -41 39 -41h283q21 0 21 -19v-31q0 -18 -21 -18z" />
    <glyph glyph-name="eogonek" unicode="&#x119;" horiz-adv-x="515" 
d="M126 229q1 -104 39.5 -141t122.5 -37q64 0 117 15q17 5 26 5t14 -10q8 -21 8 -31q0 -11 -16 -18q-24 -9 -57 -16q-49 -34 -67.5 -58t-18.5 -60q0 -52 54 -52q11 0 27 1t18 1q13 0 15 -12q3 -13 3 -23q0 -13 -16 -17q-23 -5 -59 -5q-106 0 -106 98q0 43 18.5 69.5
t54.5 48.5h-23q-124 0 -176 61t-52 200t56.5 201.5t169.5 62.5q50 0 85 -12.5t54.5 -32t30.5 -53.5t14 -66.5t3 -82.5q0 -24 -7 -30q-8 -6 -20 -6h-312zM126 288h268q1 8 1 25q0 69 -25 102.5t-97 33.5q-79 0 -112 -41t-35 -120z" />
    <glyph glyph-name="Ecaron" unicode="&#x11a;" horiz-adv-x="557" 
d="M499 0h-303q-50 0 -72 20t-22 73v518q0 51 20.5 73t72.5 22h290q20 0 20 -19v-31q0 -18 -20 -18h-275q-33 0 -33 -38v-198h278q20 0 20 -20v-30q0 -18 -20 -18h-278v-225q0 -41 39 -41h283q21 0 21 -19v-31q0 -18 -21 -18zM427 916q15 0 27 -3q12 -4 12 -14q0 -8 -9 -17
l-102 -100q-20 -18 -34 -18h-28q-14 0 -31 15l-107 106q-6 6 -6 14q0 10 13 14q14 3 29 3q13 0 33 -16l85 -71l84 71q17 16 34 16z" />
    <glyph glyph-name="ecaron" unicode="&#x11b;" horiz-adv-x="515" 
d="M126 229q1 -104 39.5 -141t122.5 -37q64 0 117 15q17 5 26 5t14 -10q8 -21 8 -31q0 -11 -16 -18q-63 -25 -157 -25q-124 0 -176 61t-52 200t56.5 201.5t169.5 62.5q50 0 85 -12.5t54.5 -32t30.5 -53.5t14 -66.5t3 -82.5q0 -24 -7 -30q-8 -6 -20 -6h-312zM126 288h268
q1 8 1 25q0 69 -25 102.5t-97 33.5q-79 0 -112 -41t-35 -120zM380 756q14 0 24 -3q13 -3 13 -13q0 -8 -7 -16l-94 -130q-12 -18 -31 -18h-26q-17 0 -29 15l-94 131q-7 11 -7 18q0 10 12 13t26 3q17 0 27 -15l80 -101l78 100q12 16 28 16z" />
    <glyph glyph-name="Gcircumflex" unicode="&#x11c;" horiz-adv-x="663" 
d="M595 76q0 -22 -7 -34q-7 -11 -25 -20q-79 -35 -224 -35q-143 0 -211 79t-68 276q0 201 68 289t240 88q105 0 169 -16q24 -5 24 -21q0 -17 -8 -38q-3 -10 -14 -10q-9 0 -34 5q-75 13 -150 13q-55 0 -95 -16t-63 -41.5t-36.5 -65.5t-18 -79.5t-4.5 -92.5q0 -39 1.5 -68
t6.5 -62t13.5 -57t24 -47.5t37 -37.5t52.5 -23t70 -9q91 0 158 18q13 4 18.5 11t5.5 24v198h-159q-17 0 -17 17v34q0 17 18 17h207q21 0 21 -23v-273zM239 759q-15 0 -26 4q-13 4 -13 14q0 9 9 17l102 99q19 19 35 19h27q14 0 32 -16l105 -103q7 -6 7 -15q0 -11 -14 -15
q-16 -4 -28 -4q-14 0 -33 17l-84 71l-84 -71q-20 -17 -35 -17z" />
    <glyph glyph-name="gcircumflex" unicode="&#x11d;" horiz-adv-x="557" 
d="M398 16q-42 -28 -142 -28q-106 0 -154 56.5t-48 193.5q0 154 54 213.5t177 59.5q95 0 157 -19q30 -9 30 -41v-432q0 -75 -15 -125q-40 -128 -308 -128q-22 0 -25 14q-1 9 -1 29q0 21 18 21q120 4 171.5 22.5t69.5 54.5q16 31 16 87v22zM401 110v295q0 24 -17 30
q-32 11 -99 11q-96 0 -127.5 -45t-31.5 -158q0 -101 28.5 -146.5t104.5 -45.5q75 0 118 18q17 7 21 18q3 6 3 23zM185 573q-12 0 -24 2q-13 3 -13 13q0 9 7 17l94 130q13 18 31 18h26q18 0 28 -15l95 -132q7 -10 7 -17q0 -10 -12 -13t-26 -3q-16 0 -27 14l-80 102l-78 -100
q-12 -16 -28 -16z" />
    <glyph glyph-name="Gbreve" unicode="&#x11e;" horiz-adv-x="663" 
d="M595 76q0 -22 -7 -34q-7 -11 -25 -20q-79 -35 -224 -35q-143 0 -211 79t-68 276q0 201 68 289t240 88q105 0 169 -16q24 -5 24 -21q0 -17 -8 -38q-3 -10 -14 -10q-9 0 -34 5q-75 13 -150 13q-55 0 -95 -16t-63 -41.5t-36.5 -65.5t-18 -79.5t-4.5 -92.5q0 -39 1.5 -68
t6.5 -62t13.5 -57t24 -47.5t37 -37.5t52.5 -23t70 -9q91 0 158 18q13 4 18.5 11t5.5 24v198h-159q-17 0 -17 17v34q0 17 18 17h207q21 0 21 -23v-273zM355 759q-122 0 -140 98q-3 14 -3 27q0 16 14 20q12 4 26 4q13 0 16 -16q6 -36 25.5 -54t63.5 -18q46 0 66 18t27 53
q3 17 19 17q15 0 25 -3t10 -17q0 -17 -4 -34q-26 -95 -145 -95z" />
    <glyph glyph-name="gbreve" unicode="&#x11f;" horiz-adv-x="557" 
d="M398 16q-42 -28 -142 -28q-106 0 -154 56.5t-48 193.5q0 154 54 213.5t177 59.5q95 0 157 -19q30 -9 30 -41v-432q0 -75 -15 -125q-40 -128 -308 -128q-22 0 -25 14q-1 9 -1 29q0 21 18 21q120 4 171.5 22.5t69.5 54.5q16 31 16 87v22zM401 110v295q0 24 -17 30
q-32 11 -99 11q-96 0 -127.5 -45t-31.5 -158q0 -101 28.5 -146.5t104.5 -45.5q75 0 118 18q17 7 21 18q3 6 3 23zM391 727q13 0 21 -3q12 -3 12 -17q0 -10 -6 -38q-24 -97 -137 -97q-117 0 -135 103q-3 27 -3 28q0 17 14 20q10 4 22 4q15 0 18 -17q10 -76 85 -76q43 0 63 19
t27 56q3 18 19 18z" />
    <glyph glyph-name="Gdotaccent" unicode="&#x120;" horiz-adv-x="663" 
d="M595 76q0 -22 -7 -34q-7 -11 -25 -20q-79 -35 -224 -35q-143 0 -211 79t-68 276q0 201 68 289t240 88q105 0 169 -16q24 -5 24 -21q0 -17 -8 -38q-3 -10 -14 -10q-9 0 -34 5q-75 13 -150 13q-55 0 -95 -16t-63 -41.5t-36.5 -65.5t-18 -79.5t-4.5 -92.5q0 -39 1.5 -68
t6.5 -62t13.5 -57t24 -47.5t37 -37.5t52.5 -23t70 -9q91 0 158 18q13 4 18.5 11t5.5 24v198h-159q-17 0 -17 17v34q0 17 18 17h207q21 0 21 -23v-273zM408 821q0 -49 -44 -49q-45 0 -45 48q0 49 45 49q44 0 44 -48z" />
    <glyph glyph-name="gdotaccent" unicode="&#x121;" horiz-adv-x="557" 
d="M398 16q-42 -28 -142 -28q-106 0 -154 56.5t-48 193.5q0 154 54 213.5t177 59.5q95 0 157 -19q30 -9 30 -41v-432q0 -75 -15 -125q-40 -128 -308 -128q-22 0 -25 14q-1 9 -1 29q0 21 18 21q120 4 171.5 22.5t69.5 54.5q16 31 16 87v22zM401 110v295q0 24 -17 30
q-32 11 -99 11q-96 0 -127.5 -45t-31.5 -158q0 -101 28.5 -146.5t104.5 -45.5q75 0 118 18q17 7 21 18q3 6 3 23zM333 661q0 -48 -45 -48t-45 47q0 49 45 49t45 -48z" />
    <glyph glyph-name="Gcommaaccent" unicode="&#x122;" horiz-adv-x="663" 
d="M595 76q0 -22 -7 -34q-7 -11 -25 -20q-79 -35 -224 -35q-143 0 -211 79t-68 276q0 201 68 289t240 88q105 0 169 -16q24 -5 24 -21q0 -17 -8 -38q-3 -10 -14 -10q-9 0 -34 5q-75 13 -150 13q-55 0 -95 -16t-63 -41.5t-36.5 -65.5t-18 -79.5t-4.5 -92.5q0 -39 1.5 -68
t6.5 -62t13.5 -57t24 -47.5t37 -37.5t52.5 -23t70 -9q91 0 158 18q13 4 18.5 11t5.5 24v198h-159q-17 0 -17 17v34q0 17 18 17h207q21 0 21 -23v-273zM354 -64h21q23 0 23 -26q0 -105 -63 -171q-11 -13 -23 -13q-11 0 -19 7q-11 8 -11 17q0 7 7 16q36 50 38 143q0 27 27 27z
" />
    <glyph glyph-name="gcommaaccent" unicode="&#x123;" horiz-adv-x="557" 
d="M398 16q-42 -28 -142 -28q-106 0 -154 56.5t-48 193.5q0 154 54 213.5t177 59.5q95 0 157 -19q30 -9 30 -41v-432q0 -75 -15 -125q-40 -128 -307 -128q-22 0 -25 16q-2 18 -2 27q0 19 20 21q119 3 170 22t69 55q16 31 16 87v22zM401 110v295q0 24 -17 30q-32 11 -99 11
q-96 0 -127.5 -45t-31.5 -158q0 -101 28.5 -146.5t104.5 -45.5q75 0 118 18q17 7 21 18q3 6 3 23zM292 578h-23q-23 0 -23 25q0 105 63 173q13 13 23 13q9 0 20 -8q10 -6 10 -16q0 -8 -6 -18q-37 -53 -38 -140q0 -29 -26 -29z" />
    <glyph glyph-name="Hcircumflex" unicode="&#x124;" horiz-adv-x="708" 
d="M177 19q0 -21 -20 -21h-36q-19 0 -19 21v669q0 21 20 21h37q18 0 18 -21v-286h354v286q0 21 21 21h36q18 0 18 -21v-669q0 -21 -20 -21h-35q-20 0 -20 21v315h-354v-315zM235 759q-15 0 -26 4q-13 4 -13 14q0 9 9 17l102 99q19 19 35 19h27q14 0 32 -16l105 -103
q7 -6 7 -15q0 -11 -14 -15q-16 -4 -28 -4q-14 0 -33 17l-84 71l-84 -71q-20 -17 -35 -17z" />
    <glyph glyph-name="hcircumflex" unicode="&#x125;" horiz-adv-x="572" 
d="M156 18q0 -20 -19 -20h-33q-19 0 -19 20v711q0 22 18 22h35q18 0 18 -22v-260q27 20 81 30.5t103 10.5q65 0 95.5 -15t42.5 -46q9 -26 9 -98v-333q0 -20 -19 -20h-33q-19 0 -19 20v320q0 47 -7 68t-26.5 30t-63.5 9q-90 0 -140 -25q-12 -7 -18 -15q-5 -10 -5 -31v-356z
M24 773q-15 0 -26 4q-13 4 -13 14q0 9 9 17l102 99q19 19 35 19h27q14 0 32 -16l105 -103q7 -6 7 -15q0 -11 -14 -15q-16 -4 -28 -4q-14 0 -33 17l-84 71l-84 -71q-20 -17 -35 -17z" />
    <glyph glyph-name="Hbar" unicode="&#x126;" horiz-adv-x="708" 
d="M177 19q0 -21 -20 -21h-36q-19 0 -19 21v472h-60q-18 0 -18 17v28q0 18 19 18h59v134q0 21 20 21h37q18 0 18 -21v-134h354v134q0 21 21 21h36q18 0 18 -21v-134h56q20 0 20 -18v-28q0 -17 -19 -17h-57v-472q0 -21 -20 -21h-35q-20 0 -20 21v315h-354v-315zM177 402h354
v89h-354v-89z" />
    <glyph glyph-name="hbar" unicode="&#x127;" horiz-adv-x="572" 
d="M156 18q0 -20 -19 -20h-33q-19 0 -19 20v568h-50q-18 0 -18 16v22q0 18 19 18h49v87q0 22 18 22h35q18 0 18 -22v-87h120q18 0 18 -18v-23q0 -15 -17 -15h-121v-117q27 20 81 30.5t103 10.5q65 0 95.5 -15t42.5 -46q9 -26 9 -98v-333q0 -20 -19 -20h-33q-19 0 -19 20v320
q0 47 -7 68t-26.5 30t-63.5 9q-90 0 -140 -25q-12 -7 -18 -15q-5 -10 -5 -31v-356z" />
    <glyph glyph-name="Itilde" unicode="&#x128;" horiz-adv-x="279" 
d="M177 19q0 -21 -20 -21h-36q-19 0 -19 21v669q0 21 20 21h37q18 0 18 -21v-669zM5 769q-13 0 -22 3q-11 3 -11 15q0 8 6 26q31 76 87 76q25 0 80 -28q40 -22 61 -22q27 0 43 37q7 19 22 19q13 0 22 -3q12 -3 12 -14q0 -8 -5 -25q-28 -82 -88 -82q-29 0 -82 27
q-48 24 -63 24q-25 0 -39 -35q-7 -18 -23 -18z" />
    <glyph glyph-name="itilde" unicode="&#x129;" horiz-adv-x="241" 
d="M-6 598q-14 0 -21 2q-12 4 -12 15q0 7 5 22q32 79 84 79q24 0 76 -28q40 -22 60 -22q13 0 21.5 7t17.5 30q6 18 22 18q10 0 20 -2q13 -3 13 -15q0 -8 -6 -26q-15 -42 -34.5 -60.5t-48.5 -18.5q-28 0 -79 27q-46 23 -59 23q-12 0 -19 -6.5t-17 -26.5q-8 -18 -23 -18z
M156 18q0 -20 -19 -20h-33q-19 0 -19 20v460q0 22 19 22h34q18 0 18 -21v-461z" />
    <glyph glyph-name="Imacron" unicode="&#x12a;" horiz-adv-x="279" 
d="M177 19q0 -21 -20 -21h-36q-19 0 -19 21v669q0 21 20 21h37q18 0 18 -21v-669zM264 791h-251q-20 0 -20 19v29q0 19 21 19h249q21 0 21 -19v-30q0 -18 -20 -18z" />
    <glyph glyph-name="imacron" unicode="&#x12b;" horiz-adv-x="241" 
d="M239 610h-234q-20 0 -20 18v29q0 19 21 19h232q20 0 20 -19v-30q0 -17 -19 -17zM156 18q0 -20 -19 -20h-33q-19 0 -19 20v460q0 22 19 22h34q18 0 18 -21v-461z" />
    <glyph glyph-name="Ibreve" unicode="&#x12c;" horiz-adv-x="279" 
d="M177 19q0 -21 -20 -21h-36q-19 0 -19 21v669q0 21 20 21h37q18 0 18 -21v-669zM136 759q-122 0 -140 98q-3 13 -3 27q0 16 14 20q12 4 26 4q13 0 16 -16q6 -36 25.5 -54t63.5 -18q46 0 66 18t27 53q3 17 19 17q14 0 25 -3q10 -3 10 -17q0 -17 -4 -34q-26 -95 -145 -95z
" />
    <glyph glyph-name="ibreve" unicode="&#x12d;" horiz-adv-x="241" 
d="M234 727q14 0 21 -3q12 -3 12 -17q0 -10 -6 -38q-24 -97 -137 -97q-117 0 -135 103q-3 27 -3 28q0 17 14 20q10 4 22 4q15 0 18 -17q10 -76 85 -76q43 0 63 19t27 56q3 18 19 18zM156 18q0 -20 -19 -20h-33q-19 0 -19 20v460q0 22 19 22h34q18 0 18 -21v-461z" />
    <glyph glyph-name="Iogonek" unicode="&#x12e;" horiz-adv-x="279" 
d="M177 22q0 -15 -9 -21q-57 -39 -78.5 -65t-21.5 -64q0 -55 57 -55q11 0 29 1.5t20 1.5q11 0 15 -13q3 -11 3 -23t-17 -18q-24 -7 -62 -7q-111 0 -111 103q0 53 26 83t78 58q-4 7 -4 19v666q0 21 20 21h37q18 0 18 -21v-666z" />
    <glyph glyph-name="iogonek" unicode="&#x12f;" horiz-adv-x="241" 
d="M156 23q-1 -17 -13 -25q-54 -34 -71 -56.5t-17 -63.5q0 -52 54 -52q11 0 27 1t18 1q13 0 15 -12q3 -13 3 -23q0 -13 -16 -17q-23 -5 -59 -5q-106 0 -106 98q0 50 25 79t76 55q-7 6 -7 21v454q0 22 19 22h33q19 0 19 -21v-456zM166 662q0 -49 -47 -49q-46 0 -46 48
q0 51 46 51q23 0 35 -11t12 -39z" />
    <glyph glyph-name="Idotaccent" unicode="&#x130;" horiz-adv-x="279" 
d="M177 19q0 -21 -20 -21h-36q-19 0 -19 21v669q0 21 20 21h37q18 0 18 -21v-669zM182 821q0 -49 -44 -49q-45 0 -45 48q0 49 45 49q44 0 44 -48z" />
    <glyph glyph-name="dotlessi" unicode="&#x131;" horiz-adv-x="241" 
d="M156 18q0 -20 -19 -20h-33q-19 0 -19 20v460q0 22 19 22h34q18 0 18 -21v-461z" />
    <glyph glyph-name="IJ" unicode="&#x132;" horiz-adv-x="587" 
d="M177 19q0 -21 -20 -21h-36q-19 0 -19 21v669q0 21 20 21h37q18 0 18 -21v-669zM485 51q0 -95 -44 -136q-25 -23 -71.5 -42t-75.5 -19q-17 0 -21 14q-4 15 -4 30q0 17 20 21q61 13 86 33q34 26 34 97v639q0 21 21 21h36q19 0 19 -21v-637z" />
    <glyph glyph-name="ij" unicode="&#x133;" horiz-adv-x="507" 
d="M156 18q0 -20 -19 -20h-33q-19 0 -19 20v460q0 22 19 22h33q19 0 19 -21v-461zM166 662q0 -49 -47 -49q-46 0 -46 48q0 51 46 51q23 0 35 -11t12 -39zM407 479v-528q0 -91 -39 -130q-22 -24 -65 -39.5t-79 -15.5q-16 0 -19 14t-3 27q0 19 20 22q53 7 85 31q28 23 28 90
v528q0 22 19 22h34q19 0 19 -21zM417 662q0 -49 -46 -49q-47 0 -47 48q0 51 47 51q46 0 46 -50z" />
    <glyph glyph-name="Jcircumflex" unicode="&#x134;" horiz-adv-x="308" 
d="M207 51q0 -95 -44 -136q-25 -23 -71.5 -42t-75.5 -19q-17 0 -21 14q-4 15 -4 30q0 17 20 21q61 13 86 33q34 26 34 97v639q0 21 21 21h36q19 0 19 -21v-637zM49 759q-15 0 -26 4q-13 4 -13 14q0 9 9 17l102 99q19 19 35 19h27q14 0 32 -16l105 -103q7 -6 7 -15
q0 -11 -14 -15q-16 -4 -28 -4q-14 0 -33 17l-84 71l-84 -71q-20 -17 -35 -17z" />
    <glyph glyph-name="jcircumflex" unicode="&#x135;" horiz-adv-x="241" 
d="M162 484v-563q0 -94 -34 -128q-41 -42 -144 -42q-27 0 -27 18q0 20 1 29q2 16 21 16q64 2 87 21q24 20 24 84v565q0 21 19 21h35q18 0 18 -21zM20 573q-12 0 -24 2q-13 3 -13 13q0 9 7 17l94 130q13 18 31 18h26q17 0 28 -15l95 -132q7 -10 7 -17q0 -10 -12 -13t-26 -3
q-16 0 -27 14l-80 102l-78 -100q-12 -16 -28 -16z" />
    <glyph glyph-name="Kcommaaccent" unicode="&#x136;" horiz-adv-x="611" 
d="M177 19q0 -21 -20 -21h-36q-19 0 -19 21v669q0 21 20 21h37q18 0 18 -21v-287h83q32 0 44 17l198 274q12 17 28 17q31 0 41 -2q12 -1 12 -13q0 -9 -10 -23q-178 -243 -223 -299l241 -333q13 -17 13 -25q0 -12 -13 -14q-15 -2 -48 -2q-15 0 -27 17l-218 302q-12 17 -39 17
h-82v-315zM315 -64h21q23 0 23 -26q0 -105 -63 -171q-11 -13 -23 -13q-11 0 -19 7q-11 8 -11 17q0 7 7 16q36 50 38 143q0 27 27 27z" />
    <glyph glyph-name="kcommaaccent" unicode="&#x137;" horiz-adv-x="512" 
d="M156 18q0 -20 -19 -20h-33q-19 0 -19 20v701q0 22 19 22h33q19 0 19 -21v-413h65q30 0 44 18l131 159q14 17 28 17q3 0 19 -1t17 -1q13 -3 13 -14q0 -9 -9 -20l-156 -185l185 -243q11 -14 11 -23q0 -14 -15 -15q-6 -2 -38 -2q-16 0 -28 17l-162 213q-13 18 -39 18h-66
v-227zM269 -64h21q23 0 23 -26q0 -105 -63 -171q-11 -13 -23 -13q-11 0 -19 7q-11 8 -11 17q0 7 7 16q36 50 38 143q0 27 27 27z" />
    <glyph glyph-name="kgreenlandic" unicode="&#x138;" horiz-adv-x="512" 
d="M156 18q0 -20 -19 -20h-33q-19 0 -19 20v460q0 22 19 22h33q19 0 19 -21v-182h65q30 0 44 18l131 169q14 17 28 17q19 0 36 -2q13 -1 13 -14q0 -9 -9 -20l-159 -195q62 -71 188 -233q12 -15 12 -24q0 -12 -16 -14q-14 -2 -38 -2q-16 0 -28 17l-162 203q-14 18 -39 18h-66
v-217z" />
    <glyph glyph-name="Lacute" unicode="&#x139;" horiz-adv-x="545" 
d="M497 0h-303q-49 0 -70.5 20.5t-21.5 68.5v599q0 21 20 21h37q18 0 18 -21v-579q0 -41 38 -41h282q21 0 21 -19v-31q0 -18 -21 -18zM156 772q-17 -13 -36 -13q-15 0 -31 4q-12 4 -12 13q0 8 12 19l127 103q20 15 37 15q18 0 48 -4q16 -3 16 -14t-13 -20z" />
    <glyph glyph-name="lacute" unicode="&#x13a;" horiz-adv-x="259" 
d="M156 138q0 -41 12 -58q14 -19 56 -25q15 -1 15 -17q0 -21 -3 -30q-3 -12 -21 -12q-85 0 -115 50q-15 24 -15 83v598q0 21 20 21h33q18 0 18 -21v-589zM134 792q-17 -13 -36 -13q-15 0 -31 4q-12 4 -12 13q0 8 12 19l127 103q20 15 37 15q18 0 48 -4q16 -3 16 -14t-13 -20
z" />
    <glyph glyph-name="Lcommaaccent" unicode="&#x13b;" horiz-adv-x="545" 
d="M497 0h-303q-49 0 -70.5 20.5t-21.5 68.5v599q0 21 20 21h37q18 0 18 -21v-579q0 -41 38 -41h282q21 0 21 -19v-31q0 -18 -21 -18zM294 -64h21q23 0 23 -26q0 -105 -63 -171q-11 -13 -23 -13q-11 0 -19 7q-11 8 -11 17q0 7 7 16q36 50 38 143q0 27 27 27z" />
    <glyph glyph-name="lcommaaccent" unicode="&#x13c;" horiz-adv-x="259" 
d="M156 138q0 -41 12 -58q14 -19 56 -25q15 -1 15 -17q0 -21 -3 -30q-3 -12 -21 -12q-85 0 -115 50q-15 24 -15 83v598q0 21 20 21h33q18 0 18 -21v-589zM142 -64h21q23 0 23 -26q0 -105 -63 -171q-11 -13 -23 -13q-11 0 -19 7q-11 8 -11 17q0 7 7 16q36 50 38 143
q0 27 27 27z" />
    <glyph glyph-name="Lcaron" unicode="&#x13d;" horiz-adv-x="545" 
d="M497 0h-303q-49 0 -70.5 20.5t-21.5 68.5v599q0 21 20 21h37q18 0 18 -21v-579q0 -41 38 -41h282q21 0 21 -19v-31q0 -18 -21 -18zM331 722h21q23 0 23 -26q0 -107 -63 -171q-11 -13 -23 -13q-9 0 -19 7q-11 8 -11 17q0 7 7 16q36 50 38 143q0 27 27 27z" />
    <glyph glyph-name="lcaron" unicode="&#x13e;" horiz-adv-x="259" 
d="M156 138q0 -41 12 -58q14 -19 56 -25q15 -1 15 -17q0 -21 -3 -30q-3 -12 -21 -12q-85 0 -115 50q-15 24 -15 83v598q0 21 20 21h33q18 0 18 -21v-589zM285 748h21q23 0 23 -26q0 -107 -63 -171q-11 -13 -23 -13q-8 0 -19 7q-11 8 -11 17q0 7 7 16q36 50 38 143
q0 27 27 27z" />
    <glyph glyph-name="Ldot" unicode="&#x13f;" horiz-adv-x="545" 
d="M497 0h-303q-49 0 -70.5 20.5t-21.5 68.5v599q0 21 20 21h37q18 0 18 -21v-579q0 -41 38 -41h282q21 0 21 -19v-31q0 -18 -21 -18zM455 344q0 -56 -56 -56q-54 0 -54 56q0 58 55 58q26 0 40.5 -12t14.5 -46z" />
    <glyph glyph-name="ldot" unicode="&#x140;" horiz-adv-x="352" 
d="M348 345q0 -55 -53 -55q-54 0 -54 55t54 55q25 0 39 -11.5t14 -43.5zM156 138q0 -41 12 -58q14 -19 56 -25q15 -1 15 -17q0 -21 -3 -30q-3 -12 -21 -12q-85 0 -115 50q-15 24 -15 83v598q0 21 20 21h33q18 0 18 -21v-589z" />
    <glyph glyph-name="Lslash" unicode="&#x141;" horiz-adv-x="545" 
d="M497 0h-303q-49 0 -70.5 20.5t-21.5 68.5v161l-53 -37q-9 -6 -15 -6q-8 0 -15 12q-15 22 -15 29q0 8 9 15l89 62v363q0 21 20 21h37q18 0 18 -21v-311l144 101q6 5 15 5q7 0 16 -12q15 -21 15 -29q0 -7 -8 -14l-182 -126v-193q0 -41 38 -41h282q21 0 21 -19v-31
q0 -18 -21 -18z" />
    <glyph glyph-name="lslash" unicode="&#x142;" horiz-adv-x="259" 
d="M156 138q0 -41 12 -58q14 -19 56 -25q15 -1 15 -17q0 -21 -3 -30q-3 -12 -21 -12q-85 0 -115 50q-15 24 -15 83v163l-44 -29q-9 -6 -14 -6q-8 1 -15 13q-13 20 -13 26q0 8 9 14l77 51v366q0 21 20 21h33q18 0 18 -21v-318l55 37q8 5 14 5q7 0 16 -13q14 -19 14 -25
q0 -8 -10 -14l-89 -59v-202z" />
    <glyph glyph-name="Nacute" unicode="&#x143;" horiz-adv-x="716" 
d="M175 19q0 -21 -20 -21h-34q-19 0 -19 21v635q0 30 12 43t38 13h19q22 0 32.5 -9t23.5 -32q265 -473 316 -581q-1 78 -1 596q0 24 21 24h32q19 0 19 -22v-646q0 -45 -43 -45h-18q-23 0 -33.5 9t-24.5 34q-283 506 -322 585q2 -182 2 -604zM376 772q-17 -13 -36 -13
q-15 0 -31 4q-12 4 -12 13q0 8 12 19l127 103q20 15 37 15q18 0 48 -4q16 -3 16 -14t-13 -20z" />
    <glyph glyph-name="nacute" unicode="&#x144;" horiz-adv-x="572" 
d="M156 18q0 -20 -19 -20h-33q-19 0 -19 20v391q0 44 31 58q89 43 223 43q65 0 96 -15t43 -46q9 -26 9 -98v-333q0 -20 -19 -20h-33q-19 0 -19 20v320q0 46 -7 69q-7 20 -26.5 29t-63.5 9q-84 0 -138 -23q-13 -6 -19 -15q-6 -10 -6 -30v-359zM294 592q-12 -13 -30 -13
q-16 0 -27 3q-12 3 -12 13q0 9 7 18l100 125q13 17 34 17q25 0 40 -3q15 -2 15 -14q0 -8 -10 -20z" />
    <glyph glyph-name="Ncommaaccent" unicode="&#x145;" horiz-adv-x="716" 
d="M175 19q0 -21 -20 -21h-34q-19 0 -19 21v635q0 30 12 43t38 13h19q22 0 32.5 -9t23.5 -32q265 -473 316 -581q-1 78 -1 596q0 24 21 24h32q19 0 19 -22v-646q0 -45 -43 -45h-18q-23 0 -33.5 9t-24.5 34q-283 506 -322 585q2 -182 2 -604zM353 -64h21q23 0 23 -26
q0 -105 -63 -171q-11 -13 -23 -13q-11 0 -19 7q-11 8 -11 17q0 7 7 16q36 50 38 143q0 27 27 27z" />
    <glyph glyph-name="ncommaaccent" unicode="&#x146;" horiz-adv-x="572" 
d="M156 18q0 -20 -19 -20h-33q-19 0 -19 20v391q0 44 31 58q89 43 223 43q65 0 96 -15t43 -46q9 -26 9 -98v-333q0 -20 -19 -20h-33q-19 0 -19 20v320q0 46 -7 69q-7 20 -26.5 29t-63.5 9q-84 0 -138 -23q-13 -6 -19 -15q-6 -10 -6 -30v-359zM286 -64h21q23 0 23 -26
q0 -105 -63 -171q-11 -13 -23 -13q-11 0 -19 7q-11 8 -11 17q0 7 7 16q36 50 38 143q0 27 27 27z" />
    <glyph glyph-name="Ncaron" unicode="&#x147;" horiz-adv-x="716" 
d="M175 19q0 -21 -20 -21h-34q-19 0 -19 21v635q0 30 12 43t38 13h19q22 0 32.5 -9t23.5 -32q265 -473 316 -581q-1 78 -1 596q0 24 21 24h32q19 0 19 -22v-646q0 -45 -43 -45h-18q-23 0 -33.5 9t-24.5 34q-283 506 -322 585q2 -182 2 -604zM481 916q15 0 27 -3
q12 -4 12 -14q0 -8 -9 -17l-102 -100q-20 -18 -34 -18h-28q-14 0 -31 15l-107 106q-6 6 -6 14q0 10 13 14q14 3 29 3q13 0 33 -16l85 -71l84 71q17 16 34 16z" />
    <glyph glyph-name="ncaron" unicode="&#x148;" horiz-adv-x="572" 
d="M156 18q0 -20 -19 -20h-33q-19 0 -19 20v391q0 44 31 58q89 43 223 43q65 0 96 -15t43 -46q9 -26 9 -98v-333q0 -20 -19 -20h-33q-19 0 -19 20v320q0 46 -7 69q-7 20 -26.5 29t-63.5 9q-84 0 -138 -23q-13 -6 -19 -15q-6 -10 -6 -30v-359zM387 756q13 0 24 -3
q13 -3 13 -13q0 -8 -7 -16l-94 -130q-12 -18 -31 -18h-26q-17 0 -29 15l-94 131q-7 11 -7 18q0 10 12 13t26 3q16 0 27 -15l80 -101l78 100q12 16 28 16z" />
    <glyph glyph-name="napostrophe" unicode="&#x149;" horiz-adv-x="572" 
d="M156 18q0 -20 -19 -20h-33q-19 0 -19 20v391q0 44 31 58q89 43 223 43q65 0 96 -15t43 -46q9 -26 9 -98v-333q0 -20 -19 -20h-33q-19 0 -19 20v320q0 46 -7 69q-7 20 -26.5 29t-63.5 9q-84 0 -138 -23q-13 -6 -19 -15q-6 -10 -6 -30v-359zM118 781h21q23 0 23 -26
q0 -105 -63 -171q-11 -13 -23 -13q-11 0 -19 7q-11 8 -11 17q0 7 7 16q36 50 38 143q0 27 27 27z" />
    <glyph glyph-name="Eng" unicode="&#x14a;" horiz-adv-x="716" 
d="M175 19q0 -21 -20 -21h-34q-19 0 -19 21v634q0 30 12 43.5t38 13.5h19q21 0 31.5 -9t24.5 -32q263 -448 316 -553q-1 99 -1 568q0 24 21 24h32q19 0 19 -22v-709q0 -101 -47 -140q-26 -23 -69.5 -42t-74.5 -19q-16 0 -20 14q-6 18 -6 30q0 18 22 22q56 12 84 32
q36 27 36 92v11q-298 518 -366 645q2 -182 2 -603z" />
    <glyph glyph-name="eng" unicode="&#x14b;" horiz-adv-x="572" 
d="M156 18q0 -20 -19 -20h-33q-19 0 -19 20v391q0 44 31 58q89 43 223 43q65 0 96 -15t43 -46q9 -26 9 -98v-399q0 -92 -39 -131q-23 -23 -65.5 -39t-77.5 -16q-16 0 -20 14q-4 18 -4 27q0 18 21 22q55 8 85 31q29 23 29 90v388q0 46 -7 69q-7 20 -26.5 29t-63.5 9
q-84 0 -138 -23q-13 -6 -19 -15q-6 -10 -6 -30v-359z" />
    <glyph glyph-name="Omacron" unicode="&#x14c;" horiz-adv-x="693" 
d="M632 358q0 -145 -32.5 -227t-93 -113t-164.5 -31q-75 0 -125 16.5t-86.5 58t-53.5 114t-17 181.5q0 88 14.5 152.5t39.5 104.5t63 63.5t79 32.5t94 9q61 0 102.5 -8t78 -30.5t57.5 -62.5t32.5 -104t11.5 -156zM554 356q0 95 -10.5 153t-37.5 90t-63 42.5t-96 10.5
q-72 0 -115 -22t-68.5 -88t-25.5 -185q0 -96 12.5 -156.5t40.5 -92.5t63 -43t90 -11t89.5 10.5t64 41.5t43 92.5t13.5 157.5zM479 791h-251q-20 0 -20 19v29q0 19 21 19h249q21 0 21 -19v-30q0 -18 -20 -18z" />
    <glyph glyph-name="omacron" unicode="&#x14d;" horiz-adv-x="544" 
d="M491 253q0 -153 -51 -209.5t-171 -56.5q-117 0 -166 55t-49 208q0 79 16 132t47 80.5t68.5 38.5t90.5 11q60 0 96.5 -9t65.5 -36t41 -79t12 -135zM418 249q0 84 -14.5 126.5t-43.5 57t-86 14.5q-77 0 -112.5 -40t-35.5 -154q0 -85 16 -129.5t45 -58.5t84 -14
q40 0 64.5 6.5t45 26.5t29 60t8.5 105zM396 610h-234q-20 0 -20 18v29q0 19 21 19h232q20 0 20 -19v-30q0 -17 -19 -17z" />
    <glyph glyph-name="Obreve" unicode="&#x14e;" horiz-adv-x="693" 
d="M632 358q0 -145 -32.5 -227t-93 -113t-164.5 -31q-75 0 -125 16.5t-86.5 58t-53.5 114t-17 181.5q0 88 14.5 152.5t39.5 104.5t63 63.5t79 32.5t94 9q61 0 102.5 -8t78 -30.5t57.5 -62.5t32.5 -104t11.5 -156zM554 356q0 95 -10.5 153t-37.5 90t-63 42.5t-96 10.5
q-72 0 -115 -22t-68.5 -88t-25.5 -185q0 -96 12.5 -156.5t40.5 -92.5t63 -43t90 -11t89.5 10.5t64 41.5t43 92.5t13.5 157.5zM349 759q-122 0 -140 98q-3 14 -3 27q0 16 14 20q12 4 26 4q13 0 16 -16q6 -36 25.5 -54t63.5 -18q46 0 66 18t27 53q3 17 19 17q15 0 25 -3
t10 -17q0 -17 -4 -34q-26 -95 -145 -95z" />
    <glyph glyph-name="obreve" unicode="&#x14f;" horiz-adv-x="544" 
d="M491 253q0 -153 -51 -209.5t-171 -56.5q-117 0 -166 55t-49 208q0 79 16 132t47 80.5t68.5 38.5t90.5 11q60 0 96.5 -9t65.5 -36t41 -79t12 -135zM418 249q0 84 -14.5 126.5t-43.5 57t-86 14.5q-77 0 -112.5 -40t-35.5 -154q0 -85 16 -129.5t45 -58.5t84 -14
q40 0 64.5 6.5t45 26.5t29 60t8.5 105zM386 727q14 0 21 -3q12 -3 12 -17q0 -10 -6 -38q-24 -97 -137 -97q-117 0 -135 103q-3 27 -3 28q0 17 14 20q10 4 22 4q15 0 18 -17q10 -76 85 -76q43 0 63 19t27 56q3 18 19 18z" />
    <glyph glyph-name="Ohungarumlaut" unicode="&#x150;" horiz-adv-x="693" 
d="M632 358q0 -145 -32.5 -227t-93 -113t-164.5 -31q-75 0 -125 16.5t-86.5 58t-53.5 114t-17 181.5q0 88 14.5 152.5t39.5 104.5t63 63.5t79 32.5t94 9q61 0 102.5 -8t78 -30.5t57.5 -62.5t32.5 -104t11.5 -156zM554 356q0 95 -10.5 153t-37.5 90t-63 42.5t-96 10.5
q-72 0 -115 -22t-68.5 -88t-25.5 -185q0 -96 12.5 -156.5t40.5 -92.5t63 -43t90 -11t89.5 10.5t64 41.5t43 92.5t13.5 157.5zM285 772q-17 -13 -35 -13q-17 0 -29 4q-12 3 -12 13t12 20l124 102q18 15 37 15q22 0 41 -4q14 -3 14 -13q0 -11 -12 -21zM466 772
q-17 -13 -35 -13q-17 0 -29 4q-12 3 -12 13t12 20l123 102q20 15 38 15q21 0 40 -4q15 -3 15 -14t-12 -20z" />
    <glyph glyph-name="ohungarumlaut" unicode="&#x151;" horiz-adv-x="544" 
d="M491 253q0 -153 -51 -209.5t-171 -56.5q-117 0 -166 55t-49 208q0 79 16 132t47 80.5t68.5 38.5t90.5 11q60 0 96.5 -9t65.5 -36t41 -79t12 -135zM418 249q0 84 -14.5 126.5t-43.5 57t-86 14.5q-77 0 -112.5 -40t-35.5 -154q0 -85 16 -129.5t45 -58.5t84 -14
q40 0 64.5 6.5t45 26.5t29 60t8.5 105zM218 592q-13 -13 -28 -13q-16 0 -23 3q-11 4 -11 13q0 6 8 18l91 125q13 17 32 17q18 0 33 -3t15 -15q0 -7 -9 -19zM369 592q-13 -13 -28 -13q-16 0 -22 3q-11 4 -11 13q0 7 7 18l92 125q13 17 32 17t32 -3q16 -3 16 -15q0 -8 -10 -19
z" />
    <glyph glyph-name="OE" unicode="&#x152;" horiz-adv-x="997" 
d="M940 0h-302q-43 0 -62 17t-22 69q-29 -56 -77.5 -77.5t-136.5 -21.5q-75 0 -125 16.5t-86 58t-52.5 113.5t-16.5 182q0 109 21 182.5t62 111.5t89.5 53t115.5 15q83 0 131.5 -20t75.5 -75q2 46 20.5 64t62.5 18h286q21 0 21 -19v-31q0 -18 -21 -18h-274q-33 0 -33 -38
v-198h278q20 0 20 -20v-30q0 -18 -20 -18h-278v-220q0 -46 38 -46h285q20 0 20 -19v-31q0 -18 -20 -18zM543 356q0 96 -10.5 154.5t-36.5 90t-60 41.5t-91 10q-72 0 -114.5 -22t-67.5 -88t-25 -185q0 -96 12 -156.5t39.5 -92.5t62 -43t88.5 -11q30 0 48 1.5t42 7.5t38.5 18
t30.5 34t24.5 53.5t14 79t5.5 108.5z" />
    <glyph glyph-name="oe" unicode="&#x153;" horiz-adv-x="880" 
d="M455 84q-23 -53 -67 -75t-119 -22q-117 0 -166 55t-49 208q0 79 16 132t47 80.5t68.5 38.5t90.5 11q77 0 120 -20.5t63 -77.5q50 98 184 98q50 0 84.5 -12.5t54.5 -31.5t31 -53t14 -67t3 -83q0 -24 -7 -30q-6 -6 -21 -6h-312q1 -105 40 -141.5t123 -36.5q69 0 117 15
q22 5 26 5q9 0 14 -10q8 -21 8 -31q0 -11 -16 -18q-64 -25 -156 -25q-145 0 -191 97zM418 249q0 84 -14.5 126.5t-43.5 57t-86 14.5q-77 0 -112.5 -40t-35.5 -154q0 -85 16 -129.5t45 -58.5t84 -14q40 0 64.5 6.5t45 26.5t29 60t8.5 105zM491 288h268q1 8 1 23
q0 70 -25.5 104t-96.5 34q-79 0 -112 -40.5t-35 -120.5z" />
    <glyph glyph-name="Racute" unicode="&#x154;" horiz-adv-x="623" 
d="M177 19q0 -21 -21 -21h-35q-19 0 -19 21v593q0 49 20 71.5t70 22.5h79q125 0 178 -21q55 -22 78 -65t23 -110q0 -149 -133 -189q-1 -1 -4 -1l160 -281q10 -20 10 -26q0 -10 -10 -12q-14 -4 -46 -4q-17 0 -28 20l-159 291q-40 -2 -64 -2h-99v-287zM177 371h104
q84 0 126 17q66 28 66 119q0 53 -16.5 79t-48.5 39q-34 15 -129 15h-64q-38 0 -38 -39v-230zM319 772q-17 -13 -36 -13q-15 0 -31 4q-12 4 -12 13q0 8 12 19l127 103q20 15 37 15q18 0 48 -4q16 -3 16 -14t-13 -20z" />
    <glyph glyph-name="racute" unicode="&#x155;" horiz-adv-x="363" 
d="M156 18q0 -20 -19 -20h-33q-19 0 -19 20v386q0 38 22 57q20 17 74 33t101 16q27 0 49 -4q13 -3 13 -15q0 -21 -3 -37q-3 -13 -17 -13q-3 0 -19.5 1t-22.5 1q-67 0 -104 -22q-12 -6 -17 -16q-5 -7 -5 -29v-358zM226 592q-12 -13 -30 -13q-16 0 -27 3q-12 3 -12 13
q0 9 7 18l100 125q13 17 34 17q25 0 40 -3q15 -2 15 -14q0 -8 -10 -20z" />
    <glyph glyph-name="Rcommaaccent" unicode="&#x156;" horiz-adv-x="623" 
d="M177 19q0 -21 -21 -21h-35q-19 0 -19 21v593q0 49 20 71.5t70 22.5h79q125 0 178 -21q55 -22 78 -65t23 -110q0 -149 -133 -189q-1 -1 -4 -1l160 -281q10 -20 10 -26q0 -10 -10 -12q-14 -4 -46 -4q-17 0 -28 20l-159 291q-40 -2 -64 -2h-99v-287zM177 371h104
q84 0 126 17q66 28 66 119q0 53 -16.5 79t-48.5 39q-34 15 -129 15h-64q-38 0 -38 -39v-230zM310 -64h21q23 0 23 -26q0 -105 -63 -171q-11 -13 -23 -13q-11 0 -19 7q-11 8 -11 17q0 7 7 16q36 50 38 143q0 27 27 27z" />
    <glyph glyph-name="rcommaaccent" unicode="&#x157;" horiz-adv-x="363" 
d="M156 18q0 -20 -19 -20h-33q-19 0 -19 20v386q0 38 22 57q20 17 74 33t101 16q27 0 49 -4q13 -3 13 -15q0 -21 -3 -37q-3 -13 -17 -13q-3 0 -19.5 1t-22.5 1q-67 0 -104 -22q-12 -6 -17 -16q-5 -7 -5 -29v-358zM115 -64h21q23 0 23 -26q0 -105 -63 -171q-11 -13 -23 -13
q-11 0 -19 7q-11 8 -11 17q0 7 7 16q36 50 38 143q0 27 27 27z" />
    <glyph glyph-name="Rcaron" unicode="&#x158;" horiz-adv-x="623" 
d="M177 19q0 -21 -21 -21h-35q-19 0 -19 21v593q0 49 20 71.5t70 22.5h79q125 0 178 -21q55 -22 78 -65t23 -110q0 -149 -133 -189q-1 -1 -4 -1l160 -281q10 -20 10 -26q0 -10 -10 -12q-14 -4 -46 -4q-17 0 -28 20l-159 291q-40 -2 -64 -2h-99v-287zM177 371h104
q84 0 126 17q66 28 66 119q0 53 -16.5 79t-48.5 39q-34 15 -129 15h-64q-38 0 -38 -39v-230zM419 916q15 0 27 -3q12 -4 12 -14q0 -8 -9 -17l-102 -100q-20 -18 -34 -18h-28q-14 0 -31 15l-107 106q-6 6 -6 14q0 10 13 14q14 3 29 3q13 0 33 -16l85 -71l84 71q17 16 34 16z
" />
    <glyph glyph-name="rcaron" unicode="&#x159;" horiz-adv-x="363" 
d="M156 18q0 -20 -19 -20h-33q-19 0 -19 20v386q0 38 22 57q20 17 74 33t101 16q27 0 49 -4q13 -3 13 -15q0 -21 -3 -37q-3 -13 -17 -13q-3 0 -19.5 1t-22.5 1q-67 0 -104 -22q-12 -6 -17 -16q-5 -7 -5 -29v-358zM320 756q14 0 24 -3q13 -3 13 -13q0 -8 -7 -16l-94 -130
q-12 -18 -31 -18h-26q-17 0 -29 15l-94 131q-7 11 -7 18q0 10 12 13t26 3q17 0 27 -15l80 -101l78 100q12 16 28 16z" />
    <glyph glyph-name="Sacute" unicode="&#x15a;" horiz-adv-x="563" 
d="M348 375q91 -27 126.5 -65.5t35.5 -117.5q0 -100 -57 -152.5t-188 -52.5q-110 0 -196 31q-20 7 -20 22q0 10 9 33q6 17 20 17q4 0 28 -8q70 -27 159 -27q55 0 91 11.5t51.5 32.5t20.5 40t5 44q0 44 -25 72t-109 53l-97 28q-142 41 -142 182q0 98 57 149.5t184 51.5
q99 0 163 -20q18 -5 18 -21q0 -12 -7 -33q-4 -14 -18 -14q-3 0 -25 5q-76 16 -137 16q-91 0 -124.5 -33t-33.5 -94q0 -45 24 -73.5t99 -50.5zM293 772q-17 -13 -36 -13q-15 0 -31 4q-12 4 -12 13q0 8 12 19l127 103q20 15 37 15q18 0 48 -4q16 -3 16 -14t-13 -20z" />
    <glyph glyph-name="sacute" unicode="&#x15b;" horiz-adv-x="431" 
d="M237 208l-79 24q-111 32 -111 133q0 146 182 146q77 0 130 -14q18 -5 18 -20q0 -7 -9 -34q-3 -11 -14 -11l-18 3q-51 13 -108 13q-65 0 -87.5 -20.5t-22.5 -57.5q0 -26 17.5 -44.5t69.5 -34.5l70 -22q64 -20 92.5 -49t28.5 -86q0 -147 -188 -147q-103 0 -156 24
q-14 6 -14 18q0 9 9 31q6 14 17 14q3 0 21 -6q51 -17 125 -17q70 0 93 22.5t23 58.5q0 27 -17 43t-72 33zM239 592q-12 -13 -30 -13q-17 0 -27 3q-12 3 -12 13q0 9 7 18l100 125q13 17 34 17q25 0 40 -3q15 -2 15 -14q0 -8 -10 -20z" />
    <glyph glyph-name="Scircumflex" unicode="&#x15c;" horiz-adv-x="563" 
d="M348 375q91 -27 126.5 -65.5t35.5 -117.5q0 -100 -57 -152.5t-188 -52.5q-110 0 -196 31q-20 7 -20 22q0 10 9 33q6 17 20 17q4 0 28 -8q70 -27 159 -27q55 0 91 11.5t51.5 32.5t20.5 40t5 44q0 44 -25 72t-109 53l-97 28q-142 41 -142 182q0 98 57 149.5t184 51.5
q99 0 163 -20q18 -5 18 -21q0 -12 -7 -33q-4 -14 -18 -14q-3 0 -25 5q-76 16 -137 16q-91 0 -124.5 -33t-33.5 -94q0 -45 24 -73.5t99 -50.5zM166 759q-15 0 -26 4q-13 4 -13 14q0 9 9 17l102 99q19 19 35 19h27q14 0 32 -16l105 -103q7 -6 7 -15q0 -11 -14 -15
q-16 -4 -28 -4q-14 0 -33 17l-84 71l-84 -71q-20 -17 -35 -17z" />
    <glyph glyph-name="scircumflex" unicode="&#x15d;" horiz-adv-x="431" 
d="M237 208l-79 24q-111 32 -111 133q0 146 182 146q77 0 130 -14q18 -5 18 -20q0 -7 -9 -34q-3 -11 -14 -11l-18 3q-51 13 -108 13q-65 0 -87.5 -20.5t-22.5 -57.5q0 -26 17.5 -44.5t69.5 -34.5l70 -22q64 -20 92.5 -49t28.5 -86q0 -147 -188 -147q-103 0 -156 24
q-14 6 -14 18q0 9 9 31q6 14 17 14q3 0 21 -6q51 -17 125 -17q70 0 93 22.5t23 58.5q0 27 -17 43t-72 33zM116 573q-12 0 -24 2q-13 3 -13 13q0 9 7 17l94 130q13 18 31 18h26q17 0 28 -15l95 -132q7 -10 7 -17q0 -10 -12 -13t-26 -3q-16 0 -27 14l-80 102l-78 -100
q-12 -16 -28 -16z" />
    <glyph glyph-name="Scedilla" unicode="&#x15e;" horiz-adv-x="563" 
d="M284 -61q59 -1 78.5 -25.5t19.5 -67.5q0 -98 -126 -98q-29 0 -52 5q-15 4 -15 18q0 9 3 22q4 15 19 15q4 0 22 -3q13 -2 27 -2q54 0 54 41q0 23 -11.5 32.5t-41.5 9.5h-17q-19 0 -19 18q0 11 5 33l10 51q-95 3 -171 30q-20 7 -20 22q0 10 9 33q6 17 20 17q4 0 28 -8
q70 -27 159 -27q55 0 91 11.5t51.5 32.5t20.5 40t5 44q0 44 -25 72t-109 53l-97 28q-142 41 -142 182q0 98 57 149.5t184 51.5q99 0 163 -20q18 -5 18 -21q0 -12 -7 -33q-4 -14 -18 -14q-3 0 -25 5q-76 16 -137 16q-91 0 -124.5 -33t-33.5 -94q0 -45 24 -73.5t99 -50.5
l88 -26q91 -27 126.5 -65.5t35.5 -117.5q0 -95 -50.5 -147t-167.5 -57z" />
    <glyph glyph-name="scedilla" unicode="&#x15f;" horiz-adv-x="431" 
d="M215 -59q56 0 74.5 -23.5t18.5 -65.5q0 -94 -120 -94q-32 0 -49 4q-15 4 -15 17q0 11 3 21q4 14 18 14q6 0 20 -2q11 -1 26 -1q52 0 52 39q0 23 -11 32t-39 9h-16q-18 0 -18 16q0 8 4 32l9 49q-80 5 -120 23q-14 6 -14 18q0 9 9 31q6 14 17 14q3 0 21 -6q51 -17 125 -17
q70 0 93 22.5t23 58.5q0 27 -17 43t-72 33l-79 24q-111 32 -111 133q0 146 182 146q77 0 130 -14q18 -5 18 -20q0 -7 -9 -34q-3 -11 -14 -11l-18 3q-51 13 -108 13q-65 0 -87.5 -20.5t-22.5 -57.5q0 -26 17.5 -44.5t69.5 -34.5l70 -22q64 -20 92.5 -49t28.5 -86
q0 -141 -174 -147z" />
    <glyph glyph-name="Scaron" unicode="&#x160;" horiz-adv-x="563" 
d="M348 375q91 -27 126.5 -65.5t35.5 -117.5q0 -100 -57 -152.5t-188 -52.5q-110 0 -196 31q-20 7 -20 22q0 10 9 33q6 17 20 17q4 0 28 -8q70 -27 159 -27q55 0 91 11.5t51.5 32.5t20.5 40t5 44q0 44 -25 72t-109 53l-97 28q-142 41 -142 182q0 98 57 149.5t184 51.5
q99 0 163 -20q18 -5 18 -21q0 -12 -7 -33q-4 -14 -18 -14q-3 0 -25 5q-76 16 -137 16q-91 0 -124.5 -33t-33.5 -94q0 -45 24 -73.5t99 -50.5zM402 916q15 0 27 -3q12 -4 12 -14q0 -8 -9 -17l-102 -100q-20 -18 -34 -18h-28q-14 0 -31 15l-107 106q-6 6 -6 14q0 10 13 14
q14 3 29 3q13 0 33 -16l85 -71l84 71q17 16 34 16z" />
    <glyph glyph-name="scaron" unicode="&#x161;" horiz-adv-x="431" 
d="M237 208l-79 24q-111 32 -111 133q0 146 182 146q77 0 130 -14q18 -5 18 -20q0 -7 -9 -34q-3 -11 -14 -11l-18 3q-51 13 -108 13q-65 0 -87.5 -20.5t-22.5 -57.5q0 -26 17.5 -44.5t69.5 -34.5l70 -22q64 -20 92.5 -49t28.5 -86q0 -147 -188 -147q-103 0 -156 24
q-14 6 -14 18q0 9 9 31q6 14 17 14q3 0 21 -6q51 -17 125 -17q70 0 93 22.5t23 58.5q0 27 -17 43t-72 33zM332 756q14 0 24 -3q13 -3 13 -13q0 -8 -7 -16l-94 -130q-12 -18 -31 -18h-26q-17 0 -29 15l-94 131q-7 11 -7 18q0 10 12 13t26 3q17 0 27 -15l80 -101l78 100
q12 16 28 16z" />
    <glyph glyph-name="uni0162" unicode="&#x162;" horiz-adv-x="574" 
d="M294 -61q59 -1 78.5 -25.5t19.5 -67.5q0 -98 -126 -98q-29 0 -52 5q-15 4 -15 18q0 9 3 22q4 15 19 15q4 0 22 -3q13 -2 27 -2q54 0 54 41q0 23 -11.5 32.5t-41.5 9.5h-17q-19 0 -19 18q0 11 5 33l13 63q-10 3 -10 19v619h-202q-20 0 -20 18v31q0 19 20 19h480
q21 0 21 -19v-31q0 -18 -21 -18h-202v-619q0 -18 -15 -20z" />
    <glyph glyph-name="uni0163" unicode="&#x163;" horiz-adv-x="331" 
d="M211 -59q56 0 74.5 -23.5t18.5 -65.5q0 -94 -120 -94q-32 0 -49 4q-15 4 -15 17q0 11 3 21q4 14 18 14q6 0 20 -2q11 -1 26 -1q52 0 52 39q0 23 -11 32t-39 9h-16q-18 0 -18 16q0 8 4 32l14 75q-19 11 -32 27q-32 40 -32 148v245h-65q-17 0 -17 18v26q0 20 19 20h64
q0 31 3 114q2 22 17 22h34q17 0 17 -22v-114h112q21 0 21 -19v-26q0 -19 -21 -19h-112v-249q0 -65 16 -91q21 -35 112 -39q17 -1 17 -18q0 -12 -2 -30q-1 -15 -21 -15q-48 0 -83 6z" />
    <glyph glyph-name="Tcaron" unicode="&#x164;" horiz-adv-x="574" 
d="M319 19q0 -21 -20 -21h-36q-20 0 -20 21v619h-202q-20 0 -20 18v31q0 19 20 19h480q21 0 21 -19v-31q0 -18 -21 -18h-202v-619zM399 916q15 0 27 -3q12 -4 12 -14q0 -8 -9 -17l-102 -100q-20 -18 -34 -18h-28q-14 0 -31 15l-107 106q-6 6 -6 14q0 10 13 14q13 3 29 3
q13 0 33 -16l85 -71l84 71q17 16 34 16z" />
    <glyph glyph-name="tcaron" unicode="&#x165;" horiz-adv-x="331" 
d="M181 185q0 -65 16 -91q21 -35 112 -39q17 -1 17 -18q0 -12 -2 -30q-1 -15 -21 -15q-64 0 -101 10.5t-61 38.5q-32 40 -32 148v245h-65q-17 0 -17 18v26q0 20 19 20h64q0 31 3 114q2 22 17 22h34q17 0 17 -22v-114h112q21 0 21 -19v-26q0 -19 -21 -19h-112v-249zM298 756
h21q23 0 23 -26q0 -107 -63 -171q-11 -13 -23 -13q-8 0 -19 7q-11 8 -11 17q0 7 7 16q36 50 38 143q0 27 27 27z" />
    <glyph glyph-name="Tbar" unicode="&#x166;" horiz-adv-x="574" 
d="M325 19q0 -21 -20 -21h-36q-20 0 -20 21v344h-130q-18 0 -18 16v28q0 18 19 18h129v213h-202q-20 0 -20 18v31q0 19 20 19h480q21 0 21 -19v-31q0 -18 -21 -18h-202v-213h133q19 0 19 -18v-28q0 -16 -18 -16h-134v-344z" />
    <glyph glyph-name="tbar" unicode="&#x167;" horiz-adv-x="331" 
d="M181 185q0 -65 16 -91q21 -35 112 -39q17 -1 17 -18q0 -12 -2 -30q-1 -15 -21 -15q-64 0 -101 10.5t-61 38.5q-32 40 -32 148v89h-60q-18 0 -18 16v22q0 19 19 19h59v99h-65q-17 0 -17 18v26q0 20 19 20h64q0 31 3 114q2 22 17 22h34q17 0 17 -22v-114h112q21 0 21 -19
v-26q0 -19 -21 -19h-112v-99h83q18 0 18 -18v-23q0 -16 -17 -16h-84v-93z" />
    <glyph glyph-name="Utilde" unicode="&#x168;" horiz-adv-x="692" 
d="M597 688v-406q0 -83 -5 -125.5t-23 -73.5q-55 -97 -227 -97q-85 0 -141.5 23t-83.5 81q-22 48 -22 190v408q0 21 20 21h37q18 0 18 -21v-435q0 -103 22 -138q38 -61 154 -61q123 0 154 57q24 42 24 138v439q0 21 20 21h35q18 0 18 -21zM219 769q-13 0 -22 3q-11 3 -11 15
q0 8 6 26q31 76 87 76q25 0 80 -28q40 -22 61 -22q27 0 43 37q7 19 22 19q13 0 22 -3q12 -3 12 -14q0 -8 -5 -25q-28 -82 -88 -82q-29 0 -82 27q-48 24 -63 24q-25 0 -39 -35q-7 -18 -23 -18z" />
    <glyph glyph-name="utilde" unicode="&#x169;" horiz-adv-x="572" 
d="M85 161v318q0 21 19 21h33q19 0 19 -21v-310q0 -57 9 -77q17 -41 102 -41q83 0 124 16q12 4 19 14q6 10 6 32v366q0 21 19 21h33q19 0 19 -21v-400q0 -45 -31 -60q-71 -32 -204 -32q-129 0 -155 65q-12 33 -12 109zM164 598q-14 0 -21 2q-12 4 -12 15q0 7 5 22
q32 79 84 79q24 0 76 -28q40 -22 60 -22q13 0 21.5 7t17.5 30q6 18 22 18q10 0 20 -2q13 -3 13 -15q0 -8 -6 -26q-15 -42 -34.5 -60.5t-48.5 -18.5q-28 0 -79 27q-46 23 -59 23q-12 0 -19 -6.5t-17 -26.5q-7 -18 -23 -18z" />
    <glyph glyph-name="Umacron" unicode="&#x16a;" horiz-adv-x="692" 
d="M597 688v-406q0 -83 -5 -125.5t-23 -73.5q-55 -97 -227 -97q-85 0 -141.5 23t-83.5 81q-22 48 -22 190v408q0 21 20 21h37q18 0 18 -21v-435q0 -103 22 -138q38 -61 154 -61q123 0 154 57q24 42 24 138v439q0 21 20 21h35q18 0 18 -21zM475 791h-251q-20 0 -20 19v29
q0 19 21 19h249q21 0 21 -19v-30q0 -18 -20 -18z" />
    <glyph glyph-name="umacron" unicode="&#x16b;" horiz-adv-x="572" 
d="M85 161v318q0 21 19 21h33q19 0 19 -21v-310q0 -57 9 -77q17 -41 102 -41q83 0 124 16q12 4 19 14q6 10 6 32v366q0 21 19 21h33q19 0 19 -21v-400q0 -45 -31 -60q-71 -32 -204 -32q-129 0 -155 65q-12 33 -12 109zM406 610h-234q-20 0 -20 18v29q0 19 21 19h232
q20 0 20 -19v-30q0 -17 -19 -17z" />
    <glyph glyph-name="Ubreve" unicode="&#x16c;" horiz-adv-x="692" 
d="M597 688v-406q0 -83 -5 -125.5t-23 -73.5q-55 -97 -227 -97q-85 0 -141.5 23t-83.5 81q-22 48 -22 190v408q0 21 20 21h37q18 0 18 -21v-435q0 -103 22 -138q38 -61 154 -61q123 0 154 57q24 42 24 138v439q0 21 20 21h35q18 0 18 -21zM342 759q-122 0 -140 98
q-3 14 -3 27q0 16 14 20q12 4 26 4q13 0 16 -16q6 -36 25.5 -54t63.5 -18q46 0 66 18t27 53q3 17 19 17q14 0 25 -3q10 -3 10 -17q0 -17 -4 -34q-26 -95 -145 -95z" />
    <glyph glyph-name="ubreve" unicode="&#x16d;" horiz-adv-x="572" 
d="M85 161v318q0 21 19 21h33q19 0 19 -21v-310q0 -57 9 -77q17 -41 102 -41q83 0 124 16q12 4 19 14q6 10 6 32v366q0 21 19 21h33q19 0 19 -21v-400q0 -45 -31 -60q-71 -32 -204 -32q-129 0 -155 65q-12 33 -12 109zM395 727q14 0 21 -3q12 -3 12 -17q0 -10 -6 -38
q-24 -97 -137 -97q-117 0 -135 103q-3 27 -3 28q0 17 14 20q10 4 22 4q15 0 18 -17q10 -76 85 -76q43 0 63 19t27 56q3 18 19 18z" />
    <glyph glyph-name="Uring" unicode="&#x16e;" horiz-adv-x="692" 
d="M597 688v-406q0 -83 -5 -125.5t-23 -73.5q-55 -97 -227 -97q-85 0 -141.5 23t-83.5 81q-22 48 -22 190v408q0 21 20 21h37q18 0 18 -21v-435q0 -103 22 -138q38 -61 154 -61q123 0 154 57q24 42 24 138v439q0 21 20 21h35q18 0 18 -21zM436 827q0 -44 -25 -67.5
t-67 -23.5q-40 0 -64 23.5t-24 67.5q0 43 25 68t66 25t65 -25t24 -68zM401 828q0 58 -56 58q-25 0 -40 -15t-15 -43t15 -44t41 -16t40.5 16t14.5 44z" />
    <glyph glyph-name="uring" unicode="&#x16f;" horiz-adv-x="572" 
d="M85 161v318q0 21 19 21h33q19 0 19 -21v-310q0 -57 9 -77q17 -41 102 -41q83 0 124 16q12 4 19 14q6 10 6 32v366q0 21 19 21h33q19 0 19 -21v-400q0 -45 -31 -60q-71 -32 -204 -32q-129 0 -155 65q-12 33 -12 109zM382 670q0 -45 -26.5 -70t-70.5 -25q-42 0 -67.5 25
t-25.5 70t26.5 71t69.5 26q44 0 69 -25.5t25 -71.5zM346 672q0 62 -60 62q-27 0 -43 -16t-16 -47q0 -30 16.5 -46.5t43.5 -16.5t43 17t16 47z" />
    <glyph glyph-name="Uhungarumlaut" unicode="&#x170;" horiz-adv-x="692" 
d="M597 688v-406q0 -83 -5 -125.5t-23 -73.5q-55 -97 -227 -97q-85 0 -141.5 23t-83.5 81q-22 48 -22 190v408q0 21 20 21h37q18 0 18 -21v-435q0 -103 22 -138q38 -61 154 -61q123 0 154 57q24 42 24 138v439q0 21 20 21h35q18 0 18 -21zM273 772q-17 -13 -35 -13
q-17 0 -29 4q-12 3 -12 13t12 20l124 102q18 15 37 15q22 0 41 -4q14 -3 14 -13q0 -11 -12 -21zM454 772q-17 -13 -35 -13q-17 0 -29 4q-12 3 -12 13t12 20l123 102q20 15 38 15q21 0 40 -4q15 -3 15 -14t-12 -20z" />
    <glyph glyph-name="uhungarumlaut" unicode="&#x171;" horiz-adv-x="572" 
d="M85 161v318q0 21 19 21h33q19 0 19 -21v-310q0 -57 9 -77q17 -41 102 -41q83 0 124 16q12 4 19 14q6 10 6 32v366q0 21 19 21h33q19 0 19 -21v-400q0 -45 -31 -60q-71 -32 -204 -32q-129 0 -155 65q-12 33 -12 109zM228 592q-13 -13 -28 -13q-16 0 -23 3q-11 4 -11 13
q0 6 8 18l91 125q13 17 32 17q18 0 33 -3t15 -15q0 -7 -9 -19zM379 592q-13 -13 -28 -13q-16 0 -22 3q-11 4 -11 13q0 7 7 18l92 125q13 17 32 17t32 -3q16 -3 16 -15q0 -8 -10 -19z" />
    <glyph glyph-name="Uogonek" unicode="&#x172;" horiz-adv-x="692" 
d="M597 688v-406q0 -83 -5 -125.5t-23 -73.5q-44 -78 -164 -93q-46 -33 -64.5 -57.5t-18.5 -60.5q0 -55 57 -55q11 0 28.5 1.5t20.5 1.5q11 0 15 -13q3 -11 3 -23t-17 -18q-24 -7 -62 -7q-111 0 -111 103q0 79 74 124q-167 3 -213 104q-22 48 -22 190v408q0 21 20 21h37
q18 0 18 -21v-435q0 -103 22 -138q38 -61 154 -61q123 0 154 57q24 42 24 138v439q0 21 20 21h35q18 0 18 -21z" />
    <glyph glyph-name="uogonek" unicode="&#x173;" horiz-adv-x="572" 
d="M85 161v318q0 21 19 21h33q19 0 19 -21v-310q0 -57 9 -77q17 -41 102 -41q83 0 124 16q12 4 19 14q6 10 6 32v366q0 21 19 21h33q19 0 19 -21v-400q0 -45 -31 -60q-15 -7 -27 -11q-54 -36 -78 -64.5t-24 -65.5q0 -52 54 -52q11 0 27 1t18 1q13 0 15 -12q3 -13 3 -23
q0 -13 -16 -17q-22 -5 -59 -5q-106 0 -106 98q0 72 81 125q-54 -7 -92 -7q-129 0 -155 65q-12 33 -12 109z" />
    <glyph glyph-name="Wcircumflex" unicode="&#x174;" horiz-adv-x="935" 
d="M468 593q-30 -118 -163 -557q-12 -39 -51 -39h-20q-38 0 -47 39l-154 627q-4 16 -4 28t13 15q12 3 44 3q17 0 22 -20q122 -506 143 -604q27 105 166 558q12 39 45 39h17q19 0 28.5 -8.5t15.5 -29.5q139 -464 163 -560q13 69 143 600q6 25 22 25q32 0 44 -3q11 -2 11 -15
q0 -6 -5 -29l-157 -625q-10 -40 -48 -40h-19q-38 0 -50 40q-129 442 -159 556zM348 759q-15 0 -26 4q-13 4 -13 14q0 9 9 17l102 99q19 19 35 19h27q14 0 32 -16l105 -103q7 -6 7 -15q0 -11 -14 -15q-16 -4 -28 -4q-14 0 -33 17l-84 71l-84 -71q-20 -17 -35 -17z" />
    <glyph glyph-name="wcircumflex" unicode="&#x175;" horiz-adv-x="735" 
d="M368 392q-6 -22 -113 -358q-11 -37 -48 -37h-15q-35 0 -46 36l-123 425q-5 17 -5 24q0 13 14 16q16 3 43 3q15 0 21 -23q83 -294 111 -406q45 159 112 363q7 23 17 32t27 9h11q18 0 27.5 -8t17.5 -31q96 -280 120 -365q29 125 104 403q7 26 22 26q27 0 41 -3
q12 -3 12 -14q0 -4 -6 -28l-116 -420q-11 -39 -46 -39h-17q-21 0 -31 9t-16 28q-108 322 -118 358zM261 573q-12 0 -24 2q-13 3 -13 13q0 9 7 17l94 130q13 18 31 18h26q18 0 28 -15l95 -132q7 -10 7 -17q0 -10 -12 -13t-26 -3q-16 0 -27 14l-80 102l-78 -100
q-12 -16 -28 -16z" />
    <glyph glyph-name="Ycircumflex" unicode="&#x176;" horiz-adv-x="558" 
d="M317 20q0 -22 -20 -22h-36q-19 0 -19 22v287l-225 356q-13 22 -13 30q0 9 10 14q5 2 49 2q16 0 29 -20q134 -213 190 -309q33 60 188 305q15 24 32 24q36 0 42 -2q10 -3 10 -12q0 -10 -10 -27l-227 -359v-289zM162 759q-15 0 -26 4q-13 4 -13 14q0 9 9 17l102 99
q19 19 35 19h27q14 0 32 -16l105 -103q7 -6 7 -15q0 -11 -14 -15q-16 -4 -28 -4q-14 0 -33 17l-84 71l-84 -71q-20 -17 -35 -17z" />
    <glyph glyph-name="ycircumflex" unicode="&#x177;" horiz-adv-x="572" 
d="M85 149v330q0 21 19 21h33q19 0 19 -21v-318q0 -48 8 -70q16 -39 96 -39q83 0 131 25q14 7 19 14q6 10 6 29v359q0 21 19 21h33q19 0 19 -21v-464q0 -76 -15 -122q-40 -127 -301 -127q-23 0 -25 15q-2 10 -2 29q0 21 19 21q84 2 134.5 12.5t71 26t31.5 40.5q14 34 14 86
v28q-63 -37 -175 -37q-118 0 -142 64q-12 31 -12 98zM185 573q-12 0 -24 2q-13 3 -13 13q0 9 7 17l94 130q13 18 31 18h26q18 0 28 -15l95 -132q7 -10 7 -17q0 -10 -12 -13t-26 -3q-16 0 -27 14l-80 102l-78 -100q-12 -16 -28 -16z" />
    <glyph glyph-name="Ydieresis" unicode="&#x178;" horiz-adv-x="558" 
d="M317 20q0 -22 -20 -22h-36q-19 0 -19 22v287l-225 356q-13 22 -13 30q0 9 10 14q5 2 49 2q16 0 29 -20q134 -213 190 -309q33 60 188 305q15 24 32 24q36 0 42 -2q10 -3 10 -12q0 -10 -10 -27l-227 -359v-289zM233 821q0 -49 -45 -49t-45 48q0 49 45 49t45 -48zM422 821
q0 -49 -44 -49t-44 48q0 49 44 49t44 -48z" />
    <glyph glyph-name="Zacute" unicode="&#x179;" horiz-adv-x="598" 
d="M547 0h-477q-47 0 -47 46q0 25 14 44l427 548h-385q-22 0 -22 20v27q0 21 23 21h416q53 0 53 -45q0 -31 -18 -53l-422 -540h438q22 0 22 -19v-30q0 -19 -22 -19zM321 772q-17 -13 -36 -13q-15 0 -31 4q-12 4 -12 13q0 8 12 19l127 103q20 15 37 15q18 0 48 -4
q16 -3 16 -14t-13 -20z" />
    <glyph glyph-name="zacute" unicode="&#x17a;" horiz-adv-x="477" 
d="M425 0h-346q-48 0 -48 45q0 28 21 51q266 297 305 337h-289q-20 0 -20 17v28q0 20 20 20h315q54 0 54 -46q0 -30 -21 -53l-306 -335h315q19 0 19 -18v-31q0 -15 -19 -15zM262 592q-12 -13 -30 -13q-16 0 -27 3q-12 3 -12 13q0 9 7 18l100 125q13 17 34 17q25 0 40 -3
q15 -2 15 -14q0 -8 -10 -20z" />
    <glyph glyph-name="Zdotaccent" unicode="&#x17b;" horiz-adv-x="598" 
d="M547 0h-477q-47 0 -47 46q0 25 14 44l427 548h-385q-22 0 -22 20v27q0 21 23 21h416q53 0 53 -45q0 -31 -18 -53l-422 -540h438q22 0 22 -19v-30q0 -19 -22 -19zM360 821q0 -49 -44 -49q-45 0 -45 48q0 49 45 49q44 0 44 -48z" />
    <glyph glyph-name="zdotaccent" unicode="&#x17c;" horiz-adv-x="477" 
d="M425 0h-346q-48 0 -48 45q0 28 21 51q266 297 305 337h-289q-20 0 -20 17v28q0 20 20 20h315q54 0 54 -46q0 -30 -21 -53l-306 -335h315q19 0 19 -18v-31q0 -15 -19 -15zM298 661q0 -48 -45 -48t-45 47q0 49 45 49t45 -48z" />
    <glyph glyph-name="Zcaron" unicode="&#x17d;" horiz-adv-x="598" 
d="M547 0h-477q-47 0 -47 46q0 25 14 44l427 548h-385q-22 0 -22 20v27q0 21 23 21h416q53 0 53 -45q0 -31 -18 -53l-422 -540h438q22 0 22 -19v-30q0 -19 -22 -19zM424 916q15 0 27 -3q12 -4 12 -14q0 -8 -9 -17l-102 -100q-20 -18 -34 -18h-28q-14 0 -31 15l-107 106
q-6 6 -6 14q0 10 13 14q13 3 29 3q13 0 33 -16l85 -71l84 71q17 16 34 16z" />
    <glyph glyph-name="zcaron" unicode="&#x17e;" horiz-adv-x="477" 
d="M425 0h-346q-48 0 -48 45q0 28 21 51q266 297 305 337h-289q-20 0 -20 17v28q0 20 20 20h315q54 0 54 -46q0 -30 -21 -53l-306 -335h315q19 0 19 -18v-31q0 -15 -19 -15zM347 756q13 0 24 -3q13 -3 13 -13q0 -8 -7 -16l-94 -130q-12 -18 -31 -18h-26q-17 0 -29 15
l-94 131q-7 11 -7 18q0 10 12 13t26 3q16 0 27 -15l80 -101l78 100q12 16 28 16z" />
    <glyph glyph-name="longs" unicode="&#x17f;" horiz-adv-x="264" 
d="M162 18q0 -20 -18 -20h-35q-19 0 -19 21v537q0 98 39 139q52 54 172 56q22 0 23 -15q1 -10 1 -30q0 -18 -18 -19q-58 -4 -86.5 -13.5t-43.5 -33.5q-15 -25 -15 -87v-535z" />
    <glyph glyph-name="florin" unicode="&#x192;" horiz-adv-x="468" 
d="M389 384h-116l-28 -323q-5 -60 -16 -91.5t-33 -52.5q-41 -38 -120 -38q-45 0 -60 5q-11 3 -11 17q0 18 4 35q3 13 18 13q1 0 18 -2t30 -2q56 0 72 26q18 30 24 95l28 318h-86q-18 0 -18 17v20q0 17 18 17h90l7 74q9 99 51 139q41 38 119 38q47 0 68 -7q11 -5 11 -17
q0 -18 -4 -34q-5 -12 -17 -12q-2 0 -21.5 2.5t-34.5 2.5q-54 0 -75 -30q-19 -30 -24 -92l-6 -64h112q20 0 20 -17v-20q0 -17 -20 -17z" />
    <glyph glyph-name="Aringacute" unicode="&#x1fa;" horiz-adv-x="598" 
d="M380 757q0 -44 -29 -65q5 -5 16 -32l215 -618q7 -18 7 -28t-9 -14q-9 -3 -47 -3q-10 0 -15 6t-10 20l-70 199h-279l-69 -198q-9 -27 -25 -27q-33 0 -47 3q-10 2 -10 14q0 6 7 27l222 619q9 23 15 30q-30 21 -30 67q0 39 21.5 61t58.5 22q36 0 57 -22t21 -61zM179 289h239
l-118 352zM311 868q-12 -9 -26 -9q-19 0 -26 1q-11 1 -11 9t8 15l96 86q12 12 30 12q28 0 42 -2q13 -3 13 -12q0 -10 -10 -17zM347 759q0 49 -47 49q-20 0 -33 -13t-13 -37t13 -37.5t34 -13.5q46 0 46 52z" />
    <glyph glyph-name="aringacute" unicode="&#x1fb;" horiz-adv-x="526" 
d="M443 86q0 -27 -10 -44q-8 -15 -26 -23q-64 -32 -183 -32q-99 0 -136.5 43t-37.5 116q0 84 58 118q50 28 154 28q78 0 110 -5v49q0 51 -8 69q-16 42 -106 42q-59 0 -114 -13q-26 -8 -34 -8q-11 0 -14 12q-6 16 -6 31q0 14 16 19q80 24 164 24q106 0 141 -36
q32 -32 32 -130v-260zM372 230q-46 4 -103 4q-88 0 -122 -21q-27 -18 -27 -66t24 -74t91 -26q70 0 112 17q14 6 20 18q5 13 5 34v114zM362 670q0 -45 -26.5 -69.5t-69.5 -24.5t-68 24.5t-25 69.5t26 71t70 26q43 0 68 -26t25 -71zM327 672q0 30 -16 46.5t-44 16.5t-44 -16.5
t-16 -47.5q0 -30 16.5 -46.5t44.5 -16.5q27 0 43 17t16 47zM281 811q-12 -12 -25 -12q-14 0 -23 3q-12 3 -12 12q0 7 7 16l100 125q14 16 32 16q19 0 35 -2q12 -2 12 -14q0 -6 -9 -17z" />
    <glyph glyph-name="AEacute" unicode="&#x1fc;" horiz-adv-x="949" 
d="M236 232l-141 -212q-15 -22 -33 -22q-27 0 -43 2q-14 2 -14 14q0 6 12 25l400 607q22 34 41 47t49 13h370q21 0 21 -19v-31q0 -18 -21 -18h-308v-236h278q20 0 20 -20v-30q0 -18 -20 -18h-278v-225q0 -41 39 -41h284q20 0 20 -19v-31q0 -18 -20 -18h-304
q-49 0 -71.5 19.5t-22.5 72.5v140h-258zM275 298h219v336zM652 772q-17 -13 -36 -13q-15 0 -31 4q-12 4 -12 13q0 8 12 19l127 103q20 15 37 15q18 0 48 -4q16 -3 16 -14t-13 -20z" />
    <glyph glyph-name="aeacute" unicode="&#x1fd;" horiz-adv-x="831" 
d="M421 53q-67 -66 -195 -66q-97 0 -136.5 43t-39.5 119q0 77 59 113q49 28 164 30q73 0 99 -1v44q0 50 -8 69q-17 43 -109 43q-53 0 -113 -14q-30 -7 -33 -7q-8 0 -14 13q-6 16 -6 30t16 18q83 25 162 25q71 0 108.5 -18t46.5 -66q46 84 170 84q62 0 101 -16.5t58 -52.5
t25 -76.5t6 -104.5q0 -17 -8 -25q-5 -5 -20 -5h-312q0 -105 37.5 -143t119.5 -38q76 0 126 16q20 4 23 4q10 0 14 -12q8 -24 8 -29q0 -12 -16 -19q-60 -24 -157 -24q-127 0 -176 66zM372 232q-24 1 -99 1q-99 -2 -128 -25q-25 -20 -25 -60q0 -49 26 -75t93 -26q43 0 88 14
t67 38q-22 45 -22 133zM442 292h270q1 8 1 21q0 71 -25.5 106t-99.5 35q-78 0 -111 -41t-35 -121zM451 592q-12 -13 -30 -13q-17 0 -27 3q-12 3 -12 13q0 9 7 18l100 125q13 17 34 17q25 0 40 -3q15 -2 15 -14q0 -8 -10 -20z" />
    <glyph glyph-name="Oslashacute" unicode="&#x1fe;" horiz-adv-x="693" 
d="M103 -20q-6 -8 -13 -8q-8 0 -28 17q-7 6 -7 11t6 13l53 73q-51 86 -51 271q0 109 21 182.5t62 111.5t90 53t117 15q131 0 190 -45l41 57q6 9 13 9t12 -4q23 -16 23 -23t-5 -13l-48 -66q55 -80 55 -276q0 -145 -32.5 -227t-93 -113t-163.5 -31q-134 0 -196 57zM557 356
q0 144 -28 209l-335 -459q43 -52 152 -52q43 0 73 6t58 24.5t44.5 51.5t26 87.5t9.5 132.5zM140 357q0 -131 26 -200l331 455q-43 40 -147 40q-54 0 -90.5 -12t-65 -43.5t-41.5 -90.5t-13 -149zM371 772q-17 -13 -36 -13q-15 0 -31 4q-12 4 -12 13q0 8 12 19l127 103
q20 15 37 15q18 0 48 -4q16 -3 16 -14t-13 -20z" />
    <glyph glyph-name="oslashacute" unicode="&#x1ff;" horiz-adv-x="544" 
d="M101 -31q-6 -8 -12 -8q-9 0 -26 15q-7 6 -7 11q0 6 5 13l38 52q-45 60 -45 198q0 79 17 132.5t49.5 81t70.5 38t91 10.5q88 0 135 -24l37 51q5 8 13 8q7 0 12 -4q20 -14 20 -20t-4 -13l-39 -54q46 -58 46 -203q0 -79 -13.5 -131.5t-43 -82t-70 -41t-99.5 -11.5
q-92 0 -140 30zM431 249q0 103 -21 145l-234 -322q32 -23 101 -23q41 0 66.5 6.5t47 26.5t31 61t9.5 106zM125 253q0 -94 19 -139l232 318q-30 17 -96 17q-82 0 -118.5 -40t-36.5 -156zM289 592q-12 -13 -30 -13q-16 0 -27 3q-12 3 -12 13q0 9 7 18l100 125q13 17 34 17
q25 0 40 -3q15 -2 15 -14q0 -8 -10 -20z" />
    <glyph glyph-name="uni0218" unicode="&#x218;" horiz-adv-x="563" 
d="M348 375q91 -27 126.5 -65.5t35.5 -117.5q0 -100 -57 -152.5t-188 -52.5q-110 0 -196 31q-20 7 -20 22q0 10 9 33q6 17 20 17q4 0 28 -8q70 -27 159 -27q55 0 91 11.5t51.5 32.5t20.5 40t5 44q0 44 -25 72t-109 53l-97 28q-142 41 -142 182q0 98 57 149.5t184 51.5
q99 0 163 -20q18 -5 18 -21q0 -12 -7 -33q-4 -14 -18 -14q-3 0 -25 5q-76 16 -137 16q-91 0 -124.5 -33t-33.5 -94q0 -45 24 -73.5t99 -50.5zM273 -64h21q23 0 23 -26q0 -105 -63 -171q-11 -13 -23 -13q-11 0 -19 7q-11 8 -11 17q0 7 7 16q36 50 38 143q0 27 27 27z" />
    <glyph glyph-name="uni0219" unicode="&#x219;" horiz-adv-x="431" 
d="M237 208l-79 24q-111 32 -111 133q0 146 182 146q77 0 130 -14q18 -5 18 -20q0 -7 -9 -34q-3 -11 -14 -11l-18 3q-51 13 -108 13q-65 0 -87.5 -20.5t-22.5 -57.5q0 -26 17.5 -44.5t69.5 -34.5l70 -22q64 -20 92.5 -49t28.5 -86q0 -147 -188 -147q-103 0 -156 24
q-14 6 -14 18q0 9 9 31q6 14 17 14q3 0 21 -6q51 -17 125 -17q70 0 93 22.5t23 58.5q0 27 -17 43t-72 33zM213 -64h21q23 0 23 -26q0 -105 -63 -171q-11 -13 -23 -13q-11 0 -19 7q-11 8 -11 17q0 7 7 16q36 50 38 143q0 27 27 27z" />
    <glyph glyph-name="uni021A" unicode="&#x21a;" horiz-adv-x="574" 
d="M319 19q0 -21 -20 -21h-36q-20 0 -20 21v619h-202q-20 0 -20 18v31q0 19 20 19h480q21 0 21 -19v-31q0 -18 -21 -18h-202v-619zM275 -64h21q23 0 23 -26q0 -105 -63 -171q-11 -13 -23 -13q-11 0 -19 7q-11 8 -11 17q0 7 7 16q36 50 38 143q0 27 27 27z" />
    <glyph glyph-name="uni021B" unicode="&#x21b;" horiz-adv-x="331" 
d="M181 185q0 -65 16 -91q21 -35 112 -39q17 -1 17 -18q0 -12 -2 -30q-1 -15 -21 -15q-64 0 -101 10.5t-61 38.5q-32 40 -32 148v245h-65q-17 0 -17 18v26q0 20 19 20h64q0 31 3 114q2 22 17 22h34q17 0 17 -22v-114h112q21 0 21 -19v-26q0 -19 -21 -19h-112v-249zM183 -64
h21q23 0 23 -26q0 -105 -63 -171q-11 -13 -23 -13q-11 0 -19 7q-11 8 -11 17q0 7 7 16q36 50 38 143q0 27 27 27z" />
    <glyph glyph-name="circumflex" unicode="&#x2c6;" horiz-adv-x="197" 
d="M-8 573q-12 0 -24 2q-13 3 -13 13q0 9 7 17l94 130q13 18 31 18h26q17 0 28 -15l95 -132q7 -10 7 -17q0 -10 -12 -13t-26 -3q-16 0 -27 14l-80 102l-78 -100q-12 -16 -28 -16z" />
    <glyph glyph-name="caron" unicode="&#x2c7;" horiz-adv-x="197" 
d="M206 756q14 0 24 -3q13 -3 13 -13q0 -8 -7 -16l-94 -130q-12 -18 -31 -18h-26q-17 0 -29 15l-94 131q-7 10 -7 18q0 10 12 13t26 3q17 0 27 -15l80 -101l78 100q12 16 28 16z" />
    <glyph glyph-name="breve" unicode="&#x2d8;" horiz-adv-x="197" 
d="M208 727q14 0 21 -3q12 -3 12 -17q0 -10 -6 -38q-24 -97 -137 -97q-117 0 -135 103q-3 27 -3 28q0 17 14 20q10 4 22 4q15 0 18 -17q10 -76 85 -76q43 0 63 19t27 56q3 18 19 18z" />
    <glyph glyph-name="dotaccent" unicode="&#x2d9;" horiz-adv-x="197" 
d="M144 661q0 -48 -45 -48t-45 47q0 49 45 49t45 -48z" />
    <glyph glyph-name="ring" unicode="&#x2da;" horiz-adv-x="197" 
d="M193 670q0 -45 -26.5 -70t-70.5 -25q-42 0 -67.5 25t-25.5 70t26.5 71t69.5 26q44 0 69 -25.5t25 -71.5zM157 672q0 62 -60 62q-27 0 -43 -16t-16 -47q0 -30 16.5 -46.5t43.5 -16.5t43 17t16 47z" />
    <glyph glyph-name="ogonek" unicode="&#x2db;" horiz-adv-x="197" 
d="M180 6q-59 -40 -80.5 -65t-21.5 -63q0 -52 54 -52q11 0 27 1t18 1q13 0 15 -12q3 -13 3 -23q0 -13 -16 -17q-23 -5 -59 -5q-106 0 -106 98q0 51 26 79.5t80 57.5h60z" />
    <glyph glyph-name="tilde" unicode="&#x2dc;" horiz-adv-x="197" 
d="M-27 598q-14 0 -21 2q-12 4 -12 15q0 7 5 22q32 79 84 79q24 0 76 -28q40 -22 60 -22q13 0 21.5 7t17.5 30q6 18 22 18q10 0 20 -2q13 -3 13 -15q0 -8 -6 -26q-15 -42 -34.5 -60.5t-48.5 -18.5q-28 0 -79 27q-46 23 -59 23q-12 0 -19 -6.5t-17 -26.5q-7 -18 -23 -18z" />
    <glyph glyph-name="hungarumlaut" unicode="&#x2dd;" horiz-adv-x="197" 
d="M-5 592q-13 -13 -28 -13t-23 3q-11 4 -11 13q0 6 8 18l91 125q13 17 32 17q18 0 33 -3t15 -15q0 -7 -9 -19zM146 592q-13 -13 -28 -13q-16 0 -22 3q-11 4 -11 13q0 7 7 18l92 125q13 17 32 17q18 0 32 -3q16 -3 16 -15q0 -8 -10 -19z" />
    <glyph glyph-name="uni0394" unicode="&#x394;" horiz-adv-x="656" 
d="M638 33q4 -8 4 -17q0 -16 -18 -16h-593q-19 0 -19 16q0 6 4 14l263 628q7 18 26 18h50q17 0 24 -18zM328 599q-33 -90 -219 -532h436q-204 496 -217 532z" />
    <glyph glyph-name="uni03A9" unicode="&#x3a9;" horiz-adv-x="727" 
d="M325 19q0 -19 -21 -19h-214q-19 0 -19 18v28q0 21 18 21h172q-97 38 -140.5 108t-43.5 194q0 161 70.5 240.5t222.5 79.5q151 0 214 -77t63 -237q0 -120 -42 -192t-137 -116h167q20 0 20 -21v-27q0 -11 -4 -15t-15 -4h-213q-22 0 -22 19v51q0 21 16 28q76 33 114 96
t38 174q0 135 -46 194t-156 59q-112 0 -161.5 -61t-49.5 -195q0 -205 152 -267q17 -7 17 -28v-51z" />
    <glyph glyph-name="uni03BC" unicode="&#x3bc;" horiz-adv-x="600" 
d="M171 -184q0 -20 -19 -20h-34q-19 0 -19 20v663q0 21 19 21h33q19 0 19 -21v-311q0 -56 9 -77q17 -40 102 -40q83 0 124 16q12 4 19 14q6 10 6 32v366q0 21 20 21h33q19 0 19 -21v-400q0 -45 -32 -60q-69 -31 -194 -31q-81 0 -105 31v-203z" />
    <glyph glyph-name="pi" unicode="&#x3c0;" horiz-adv-x="596" 
d="M198 19q0 -21 -21 -21h-28q-22 0 -22 22v413h-47q-19 0 -19 19v25q0 21 19 21h463q19 0 19 -21v-24q0 -20 -18 -20h-49v-248q0 -85 12 -136q5 -20 5 -32q0 -15 -13 -17q-15 -3 -35 -3q-16 0 -22 21q-17 57 -17 165v250h-227v-414z" />
    <glyph glyph-name="Wgrave" unicode="&#x1e80;" horiz-adv-x="935" 
d="M468 593q-30 -118 -163 -557q-12 -39 -51 -39h-20q-38 0 -47 39l-154 627q-4 16 -4 28t13 15q12 3 44 3q17 0 22 -20q122 -506 143 -604q27 105 166 558q12 39 45 39h17q19 0 28.5 -8.5t15.5 -29.5q139 -464 163 -560q13 69 143 600q6 25 22 25q32 0 44 -3q11 -2 11 -15
q0 -6 -5 -29l-157 -625q-10 -40 -48 -40h-19q-38 0 -50 40q-129 442 -159 556zM451 772l-149 103q-12 7 -12 20q0 11 16 14q28 4 48 4q17 0 37 -15l128 -103q11 -10 11 -19t-12 -13q-16 -4 -30 -4q-18 0 -37 13z" />
    <glyph glyph-name="wgrave" unicode="&#x1e81;" horiz-adv-x="735" 
d="M368 392q-6 -22 -113 -358q-11 -37 -48 -37h-15q-35 0 -46 36l-123 425q-5 17 -5 24q0 13 14 16q16 3 43 3q15 0 21 -23q83 -294 111 -406q45 159 112 363q7 23 17 32t27 9h11q18 0 27.5 -8t17.5 -31q96 -280 120 -365q29 125 104 403q7 26 22 26q27 0 41 -3
q12 -3 12 -14q0 -4 -6 -28l-116 -420q-11 -39 -46 -39h-17q-21 0 -31 9t-16 28q-108 322 -118 358zM353 592l-117 126q-10 12 -10 19q0 12 15 15t40 3q21 0 34 -17l100 -125q7 -9 7 -18q0 -10 -11 -13q-12 -3 -28 -3q-17 0 -30 13z" />
    <glyph glyph-name="Wacute" unicode="&#x1e82;" horiz-adv-x="935" 
d="M468 593q-30 -118 -163 -557q-12 -39 -51 -39h-20q-38 0 -47 39l-154 627q-4 16 -4 28t13 15q12 3 44 3q17 0 22 -20q122 -506 143 -604q27 105 166 558q12 39 45 39h17q19 0 28.5 -8.5t15.5 -29.5q139 -464 163 -560q13 69 143 600q6 25 22 25q32 0 44 -3q11 -2 11 -15
q0 -6 -5 -29l-157 -625q-10 -40 -48 -40h-19q-38 0 -50 40q-129 442 -159 556zM484 772q-17 -13 -36 -13q-15 0 -31 4q-12 4 -12 13q0 8 12 19l127 103q20 15 37 15q18 0 48 -4q16 -3 16 -14t-13 -20z" />
    <glyph glyph-name="wacute" unicode="&#x1e83;" horiz-adv-x="735" 
d="M368 392q-6 -22 -113 -358q-11 -37 -48 -37h-15q-35 0 -46 36l-123 425q-5 17 -5 24q0 13 14 16q16 3 43 3q15 0 21 -23q83 -294 111 -406q45 159 112 363q7 23 17 32t27 9h11q18 0 27.5 -8t17.5 -31q96 -280 120 -365q29 125 104 403q7 26 22 26q27 0 41 -3
q12 -3 12 -14q0 -4 -6 -28l-116 -420q-11 -39 -46 -39h-17q-21 0 -31 9t-16 28q-108 322 -118 358zM379 592q-12 -13 -30 -13q-17 0 -27 3q-12 3 -12 13q0 9 7 18l100 125q13 17 34 17q25 0 40 -3q15 -2 15 -14q0 -8 -10 -20z" />
    <glyph glyph-name="Wdieresis" unicode="&#x1e84;" horiz-adv-x="935" 
d="M468 593q-30 -118 -163 -557q-12 -39 -51 -39h-20q-38 0 -47 39l-154 627q-4 16 -4 28t13 15q12 3 44 3q17 0 22 -20q122 -506 143 -604q27 105 166 558q12 39 45 39h17q19 0 28.5 -8.5t15.5 -29.5q139 -464 163 -560q13 69 143 600q6 25 22 25q32 0 44 -3q11 -2 11 -15
q0 -6 -5 -29l-157 -625q-10 -40 -48 -40h-19q-38 0 -50 40q-129 442 -159 556zM416 821q0 -49 -45 -49t-45 48q0 49 45 49t45 -48zM605 821q0 -49 -44 -49t-44 48q0 49 44 49t44 -48z" />
    <glyph glyph-name="wdieresis" unicode="&#x1e85;" horiz-adv-x="735" 
d="M368 392q-6 -22 -113 -358q-11 -37 -48 -37h-15q-35 0 -46 36l-123 425q-5 17 -5 24q0 13 14 16q16 3 43 3q15 0 21 -23q83 -294 111 -406q45 159 112 363q7 23 17 32t27 9h11q18 0 27.5 -8t17.5 -31q96 -280 120 -365q29 125 104 403q7 26 22 26q27 0 41 -3
q12 -3 12 -14q0 -4 -6 -28l-116 -420q-11 -39 -46 -39h-17q-21 0 -31 9t-16 28q-108 322 -118 358zM322 661q0 -48 -45 -48t-45 47q0 49 45 49t45 -48zM501 661q0 -48 -44 -48t-44 47q0 49 44 49t44 -48z" />
    <glyph glyph-name="Ygrave" unicode="&#x1ef2;" horiz-adv-x="558" 
d="M317 20q0 -22 -20 -22h-36q-19 0 -19 22v287l-225 356q-13 22 -13 30q0 9 10 14q5 2 49 2q16 0 29 -20q134 -213 190 -309q33 60 188 305q15 24 32 24q36 0 42 -2q10 -3 10 -12q0 -10 -10 -27l-227 -359v-289zM269 772l-149 103q-12 7 -12 20q0 11 16 14q28 4 48 4
q17 0 37 -15l128 -103q11 -10 11 -19t-12 -13q-16 -4 -30 -4q-18 0 -37 13z" />
    <glyph glyph-name="ygrave" unicode="&#x1ef3;" horiz-adv-x="572" 
d="M85 149v330q0 21 19 21h33q19 0 19 -21v-318q0 -48 8 -70q16 -39 96 -39q83 0 131 25q14 7 19 14q6 10 6 29v359q0 21 19 21h33q19 0 19 -21v-464q0 -76 -15 -122q-40 -127 -301 -127q-23 0 -25 15q-2 10 -2 29q0 21 19 21q84 2 134.5 12.5t71 26t31.5 40.5q14 34 14 86
v28q-63 -37 -175 -37q-118 0 -142 64q-12 31 -12 98zM282 592l-117 126q-10 12 -10 19q0 12 15 15t40 3q21 0 34 -17l100 -125q7 -9 7 -18q0 -10 -11 -13q-12 -3 -28 -3q-17 0 -30 13z" />
    <glyph glyph-name="endash" unicode="&#x2013;" horiz-adv-x="544" 
d="M491 235h-438q-18 0 -18 17v30q0 18 19 18h436q19 0 19 -18v-31q0 -16 -18 -16z" />
    <glyph glyph-name="emdash" unicode="&#x2014;" horiz-adv-x="838" 
d="M785 235h-732q-18 0 -18 17v30q0 18 19 18h730q18 0 18 -18v-31q0 -16 -17 -16z" />
    <glyph glyph-name="quoteleft" unicode="&#x2018;" horiz-adv-x="188" 
d="M85 489h-28q-25 0 -25 25q0 56 20.5 118.5t60.5 102.5q16 14 25 14q12 0 22 -9q12 -9 12 -17q0 -7 -8 -19q-49 -65 -52 -184q0 -31 -27 -31z" />
    <glyph glyph-name="quoteright" unicode="&#x2019;" horiz-adv-x="188" 
d="M103 749h28q25 0 25 -26q0 -57 -20 -118t-61 -102q-13 -15 -24 -15t-22 9q-12 8 -12 18q0 6 8 18q48 66 51 185q0 31 27 31z" />
    <glyph glyph-name="quotesinglbase" unicode="&#x201a;" horiz-adv-x="189" 
d="M103 94h28q25 0 25 -26q0 -57 -20.5 -118.5t-60.5 -101.5q-14 -14 -24 -14q-11 0 -22 8q-12 9 -12 18q0 8 8 18q48 70 51 185q0 31 27 31z" />
    <glyph glyph-name="quotedblleft" unicode="&#x201c;" horiz-adv-x="350" 
d="M85 489h-28q-25 0 -25 26q0 56 20.5 118t60.5 102q16 14 25 14q12 0 22 -9q12 -9 12 -17q0 -7 -8 -19q-49 -65 -52 -184q0 -31 -27 -31zM246 489h-28q-25 0 -25 26q0 56 20.5 118t60.5 102q14 14 24 14q12 0 23 -9q12 -9 12 -17q0 -7 -8 -19q-49 -65 -52 -184
q0 -31 -27 -31z" />
    <glyph glyph-name="quotedblright" unicode="&#x201d;" horiz-adv-x="350" 
d="M264 749h28q25 0 25 -26q0 -56 -20.5 -118t-60.5 -102q-15 -15 -24 -15q-10 0 -23 9q-11 8 -11 18q0 9 7 18q49 64 52 185q0 31 27 31zM103 749h28q25 0 25 -26q0 -55 -20.5 -117t-59.5 -103q-13 -15 -25 -15q-11 0 -22 9q-12 8 -12 18q0 8 8 18q48 64 51 185q0 31 27 31
z" />
    <glyph glyph-name="quotedblbase" unicode="&#x201e;" horiz-adv-x="350" 
d="M103 94h28q25 0 25 -26q0 -57 -20 -117.5t-61 -102.5q-14 -14 -24 -14q-12 0 -22 8q-12 8 -12 18q0 8 8 18q48 70 51 185q0 31 27 31zM264 94h28q25 0 25 -26q0 -56 -20 -116.5t-61 -103.5q-14 -14 -25 -14t-22 8q-12 9 -12 18q0 8 8 18q49 70 52 185q0 31 27 31z" />
    <glyph glyph-name="dagger" unicode="&#x2020;" horiz-adv-x="468" 
d="M268 -66q0 -20 -18 -20h-32q-19 0 -19 20v505h-148q-16 0 -16 15v34q0 16 16 16h148v192q0 20 20 20h32q17 0 17 -20v-192h148q17 0 17 -15v-35q0 -15 -16 -15h-149v-505z" />
    <glyph glyph-name="daggerdbl" unicode="&#x2021;" horiz-adv-x="468" 
d="M268 -66q0 -20 -18 -20h-32q-19 0 -19 20v197h-148q-16 0 -16 15v33q0 17 16 17h148v243h-148q-16 0 -16 15v34q0 16 16 16h148v192q0 20 20 20h32q17 0 17 -20v-192h148q17 0 17 -15v-35q0 -15 -16 -15h-149v-243h148q17 0 17 -16v-35q0 -14 -16 -14h-149v-197z" />
    <glyph glyph-name="bullet" unicode="&#x2022;" horiz-adv-x="343" 
d="M290 264q0 -124 -119 -124q-118 0 -118 123q0 125 118 125q58 0 88.5 -28.5t30.5 -95.5z" />
    <glyph glyph-name="ellipsis" unicode="&#x2026;" horiz-adv-x="945" 
d="M235 47q0 -56 -57 -56q-55 0 -55 56q0 30 16 44t41 14q55 0 55 -58zM528 47q0 -56 -56 -56q-55 0 -55 56q0 30 16 44t41 14q54 0 54 -58zM822 47q0 -56 -55 -56t-55 56q0 58 55 58q26 0 40.5 -12t14.5 -46z" />
    <glyph glyph-name="perthousand" unicode="&#x2030;" horiz-adv-x="1217" 
d="M342 474q0 -126 -34.5 -172t-118.5 -46q-80 0 -114.5 45t-34.5 169t39.5 169t115.5 45q82 0 114.5 -41.5t32.5 -168.5zM285 473q0 98 -19.5 130t-72.5 32q-51 0 -74 -34.5t-23 -130.5q0 -100 21.5 -132.5t71.5 -32.5q54 0 75 32.5t21 135.5zM278 -15q-8 -17 -22 -17
q-15 0 -19 2q-6 3 -6 9q0 9 7 23l331 687q11 23 25 23q10 0 18 -2q9 -1 9 -10q0 -6 -10 -26zM809 210q0 -126 -35 -172t-118 -46q-81 0 -115.5 45t-34.5 169t39.5 169t115.5 45q55 0 85 -15.5t46.5 -61.5t16.5 -133zM752 209q0 98 -20 130t-73 32q-51 0 -73.5 -34
t-22.5 -131q0 -100 21 -132.5t72 -32.5q53 0 74.5 32.5t21.5 135.5zM1178 210q0 -126 -34.5 -172t-118.5 -46q-81 0 -115.5 45t-34.5 169t40 169t116 45q82 0 114.5 -41.5t32.5 -168.5zM1121 209q0 98 -19.5 130t-72.5 32q-51 0 -74 -34.5t-23 -130.5q0 -100 21.5 -132.5
t71.5 -32.5q54 0 75 32.5t21 135.5z" />
    <glyph glyph-name="guilsinglleft" unicode="&#x2039;" horiz-adv-x="298" 
d="M116 265l129 -163q10 -13 10 -21q0 -10 -10 -13q-17 -3 -37 -3q-14 0 -30 19l-125 153q-13 17 -13 27t9 22l127 157q17 22 31 22q23 0 39 -3q10 -2 10 -11q0 -7 -12 -24z" />
    <glyph glyph-name="guilsinglright" unicode="&#x203a;" horiz-adv-x="298" 
d="M181 266l-128 162q-10 13 -10 21q0 10 10 13q12 3 37 3q14 0 29 -18l125 -154q13 -15 13 -26q0 -13 -9 -23l-126 -156q-18 -23 -34 -23q-21 0 -35 3q-12 2 -12 12q0 6 12 23z" />
    <glyph glyph-name="fraction" unicode="&#x2044;" horiz-adv-x="84" 
d="M-105 -15q-9 -17 -23 -17q-16 0 -19 2q-6 3 -6 9q0 7 8 23l331 687q11 23 24 23q9 0 19 -2q8 -1 8 -10q0 -8 -9 -26z" />
    <glyph glyph-name="zero.superior" unicode="&#x2070;" 
d="M342 630q0 -126 -34.5 -172t-118.5 -46q-80 0 -114.5 45t-34.5 169t39.5 169t115.5 45q82 0 114.5 -41.5t32.5 -168.5zM285 629q0 98 -19.5 130t-72.5 32q-51 0 -74 -34.5t-23 -130.5q0 -100 21.5 -132.5t71.5 -32.5q54 0 75 32.5t21 135.5z" />
    <glyph glyph-name="four.superior" unicode="&#x2074;" 
d="M287 433q0 -14 -14 -14h-27q-13 0 -13 14v90h-172q-29 0 -29 25q0 14 13 40l120 229q8 16 19 16q28 0 33 -1q7 -2 7 -9q0 -6 -5 -16l-124 -233h138v94q0 14 13 14h28q13 0 13 -14v-94h52q15 0 15 -13v-25q0 -13 -15 -13h-52v-90z" />
    <glyph glyph-name="five.superior" unicode="&#x2075;" 
d="M115 669q57 5 74 5q72 0 102 -27t30 -99q0 -69 -38.5 -102.5t-119.5 -33.5q-67 0 -100 10q-15 5 -15 15q0 1 7 27q5 9 12 9q2 0 6 -1l10 -2.5l10 -2.5q28 -6 71 -6q52 0 75 21t23 64q0 48 -22 63t-71 15q-17 0 -42.5 -2.5t-31.5 -2.5q-29 0 -29 28q0 18 1 32l7 136
q2 17 15 17h194q14 0 14 -12v-26q0 -12 -14 -12h-162z" />
    <glyph glyph-name="six.superior" unicode="&#x2076;" 
d="M101 643q13 16 42.5 27t67.5 11q66 0 95.5 -31t29.5 -101q0 -138 -145 -138q-73 0 -109.5 44t-36.5 149q0 121 36.5 178.5t140.5 57.5q48 0 79 -9q9 -3 9 -12q0 -8 -6 -28q-2 -7 -9 -7q-6 0 -21 3q-32 4 -49 4q-73 0 -95.5 -32t-28.5 -116zM102 574q0 -24 2 -37
q11 -77 89 -77q88 0 88 90q0 82 -81 82q-69 0 -92 -32q-6 -10 -6 -26z" />
    <glyph glyph-name="seven.superior" unicode="&#x2077;" 
d="M261 783h-210q-15 0 -15 12v25q0 12 15 12h256q17 0 17 -15v-12q0 -16 -5 -28l-141 -341q-7 -18 -20 -18q-18 0 -32 3q-10 3 -10 11t5 20z" />
    <glyph glyph-name="eight.superior" unicode="&#x2078;" 
d="M249 637q83 -14 83 -104q0 -121 -147 -121q-77 0 -112 29t-35 91q0 85 83 105q-69 18 -69 95q0 56 33.5 82t102.5 26q70 0 101.5 -25t31.5 -82q0 -76 -72 -96zM274 536q0 74 -89 74q-91 0 -91 -73q0 -44 23.5 -61t67.5 -17q89 0 89 77zM264 726q0 34 -17.5 49.5
t-61.5 15.5t-61.5 -16.5t-17.5 -49.5q0 -67 79 -67q32 0 55.5 16t23.5 52z" />
    <glyph glyph-name="nine.superior" unicode="&#x2079;" 
d="M271 607q-32 -34 -108 -34q-64 0 -95 30.5t-31 99.5q0 137 149 137q72 0 106.5 -43t34.5 -149q0 -59 -7 -99t-25.5 -73t-54 -48.5t-90.5 -15.5q-59 0 -85 8q-9 4 -9 13q0 10 6 28q3 8 9 8q10 0 20 -2q30 -6 59 -6q72 0 94 34t27 112zM270 675q0 25 -3 44q-6 34 -25 53.5
t-60 19.5q-91 0 -91 -90q0 -41 18.5 -60.5t63.5 -19.5q33 0 57.5 8.5t33.5 19.5q6 8 6 25z" />
    <glyph glyph-name="parenleft.superior" unicode="&#x207d;" horiz-adv-x="208" 
d="M93 610q0 -57 8 -100t25.5 -73.5t32 -47t40.5 -40.5q4 -3 4 -9q0 -4 -5 -9q-7 -5 -11 -5q-7 0 -17 6q-131 77 -131 277q0 108 37.5 174.5t91.5 98.5q10 7 17 7t12 -5q6 -6 6 -11t-4 -8q-51 -40 -78.5 -98t-27.5 -157z" />
    <glyph glyph-name="parenright.superior" unicode="&#x207e;" horiz-adv-x="208" 
d="M116 604q0 75 -17.5 129.5t-36 78t-52.5 54.5q-4 3 -4 8t5 10q7 5 11 5q5 0 17 -6q131 -79 131 -278q0 -195 -129 -272q-12 -7 -18 -7q-7 0 -12 5q-6 6 -6 11q0 4 5 8q51 40 78.5 98t27.5 156z" />
    <glyph glyph-name="n.superior" unicode="&#x207f;" horiz-adv-x="371" 
d="M111 277q0 -14 -15 -14h-28q-13 0 -13 14v237q0 27 20 36q56 26 147 26q74 0 88 -38q6 -14 6 -60v-201q0 -14 -13 -14h-29q-13 0 -13 14v191q0 29 -4 38q-7 21 -53 21q-49 0 -78 -12q-8 -3 -12 -9q-3 -3 -3 -17v-212z" />
    <glyph glyph-name="zero.inferior" unicode="&#x2080;" 
d="M342 84q0 -126 -34.5 -172t-118.5 -46q-80 0 -114.5 45t-34.5 169t39.5 169t115.5 45q82 0 114.5 -41.5t32.5 -168.5zM285 83q0 98 -19.5 130t-72.5 32q-51 0 -74 -34.5t-23 -130.5q0 -100 21.5 -132.5t71.5 -32.5q54 0 75 32.5t21 135.5z" />
    <glyph glyph-name="one.inferior" unicode="&#x2081;" 
d="M286 -126h-175q-13 0 -13 12v25q0 13 13 13h65v304l-63 -24q-12 -3 -15 -3q-5 0 -8 6q-10 26 -10 29q0 7 9 11l79 32q22 8 34 8h6q24 0 24 -31v-332h53q15 0 15 -12v-27q0 -11 -14 -11z" />
    <glyph glyph-name="two.inferior" unicode="&#x2082;" 
d="M313 -126h-248q-16 0 -22.5 6.5t-6.5 22.5q0 19 20 34q83 64 155 131q50 47 50 97q0 38 -20.5 59t-70.5 21q-34 0 -71 -10q-18 -6 -23 -6q-8 0 -11 7q-5 16 -5 26t15 15q51 17 107 17q77 0 106.5 -32t29.5 -90q0 -66 -53 -119q-52 -53 -155 -130q37 1 203 1q14 0 14 -12
v-24q0 -14 -14 -14z" />
    <glyph glyph-name="three.inferior" unicode="&#x2083;" 
d="M226 92q87 -9 87 -101q0 -64 -36 -94.5t-118 -30.5q-63 0 -97 10q-17 6 -17 15t8 28q3 8 11 8q2 0 5.5 -1t8.5 -2t8 -2q37 -7 71 -7q60 0 79.5 20.5t19.5 55.5q0 38 -22 55t-78 17h-15q-13 0 -13 14v23q0 13 13 13h16q86 0 86 67q0 38 -18 51.5t-67 13.5q-31 0 -63 -9
q-22 -5 -24 -5q-5 0 -9 7q-6 14 -6 25t14 15q50 16 100 16q75 0 102.5 -26t27.5 -85q0 -35 -19.5 -59t-54.5 -32z" />
    <glyph glyph-name="four.inferior" unicode="&#x2084;" 
d="M287 -113q0 -14 -14 -14h-27q-13 0 -13 14v90h-172q-29 0 -29 25q0 14 13 40l120 229q8 16 19 16q28 0 33 -1q7 -2 7 -9q0 -6 -5 -16l-124 -233h138v94q0 14 13 14h28q13 0 13 -14v-94h52q15 0 15 -13v-25q0 -13 -15 -13h-52v-90z" />
    <glyph glyph-name="five.inferior" unicode="&#x2085;" 
d="M115 123q57 5 74 5q72 0 102 -27t30 -99q0 -69 -38.5 -102.5t-119.5 -33.5q-67 0 -100 10q-15 5 -15 15q0 1 7 27q5 9 12 9q2 0 6 -1l10 -2.5l10 -2.5q28 -6 71 -6q52 0 75 21t23 64q0 48 -22 63t-71 15q-17 0 -42.5 -2.5t-31.5 -2.5q-29 0 -29 28q0 18 1 32l7 136
q2 17 15 17h194q14 0 14 -12v-26q0 -12 -14 -12h-162z" />
    <glyph glyph-name="six.inferior" unicode="&#x2086;" 
d="M101 97q13 16 42.5 27t67.5 11q66 0 95.5 -31t29.5 -101q0 -138 -145 -138q-73 0 -109.5 44t-36.5 149q0 121 36.5 178.5t140.5 57.5q48 0 79 -9q9 -3 9 -12q0 -8 -6 -28q-2 -7 -9 -7q-6 0 -21 3q-32 4 -49 4q-73 0 -95.5 -32t-28.5 -116zM102 28q0 -24 2 -37
q11 -77 89 -77q88 0 88 90q0 82 -81 82q-69 0 -92 -32q-6 -10 -6 -26z" />
    <glyph glyph-name="seven.inferior" unicode="&#x2087;" 
d="M261 237h-210q-15 0 -15 12v25q0 12 15 12h256q17 0 17 -15v-12q0 -16 -5 -28l-141 -341q-7 -18 -20 -18q-18 0 -32 3q-10 3 -10 11t5 20z" />
    <glyph glyph-name="eight.inferior" unicode="&#x2088;" 
d="M249 91q83 -14 83 -104q0 -121 -147 -121q-77 0 -112 29t-35 91q0 85 83 105q-69 18 -69 95q0 56 33.5 82t102.5 26q70 0 101.5 -25t31.5 -82q0 -76 -72 -96zM274 -10q0 74 -89 74q-91 0 -91 -73q0 -44 23.5 -61t67.5 -17q89 0 89 77zM264 180q0 34 -17.5 49.5
t-61.5 15.5t-61.5 -16.5t-17.5 -49.5q0 -67 79 -67q32 0 55.5 16t23.5 52z" />
    <glyph glyph-name="nine.inferior" unicode="&#x2089;" 
d="M271 61q-32 -34 -108 -34q-64 0 -95 30.5t-31 99.5q0 137 149 137q72 0 106.5 -43t34.5 -149q0 -59 -7 -99t-25.5 -73t-54 -48.5t-90.5 -15.5q-59 0 -85 8q-9 4 -9 13q0 10 6 28q3 8 9 8q10 0 20 -2q30 -6 59 -6q72 0 94 34t27 112zM270 129q0 25 -3 44q-6 34 -25 53.5
t-60 19.5q-91 0 -91 -90q0 -41 18.5 -60.5t63.5 -19.5q33 0 57.5 8.5t33.5 19.5q6 8 6 25z" />
    <glyph glyph-name="parenleft.inferior" unicode="&#x208d;" horiz-adv-x="208" 
d="M93 64q0 -57 8 -100t25.5 -73.5t32 -47t40.5 -40.5q4 -3 4 -9q0 -4 -5 -9q-7 -5 -11 -5q-7 0 -17 6q-131 77 -131 277q0 108 37.5 174.5t91.5 98.5q10 7 17 7t12 -5q6 -6 6 -11t-4 -8q-51 -40 -78.5 -98t-27.5 -157z" />
    <glyph glyph-name="parenright.inferior" unicode="&#x208e;" horiz-adv-x="208" 
d="M116 58q0 75 -17.5 129.5t-36 78t-52.5 54.5q-4 3 -4 8t5 10q7 5 11 5q5 0 17 -6q131 -79 131 -278q0 -195 -129 -272q-12 -7 -18 -7q-7 0 -12 5q-6 6 -6 11q0 4 5 8q51 40 78.5 98t27.5 156z" />
    <glyph glyph-name="Euro" unicode="&#x20ac;" horiz-adv-x="618" 
d="M451 384h-224v-43v-43h224q18 0 18 -17v-12q0 -18 -18 -18h-222q8 -95 46.5 -146t131.5 -51q77 0 129 15q23 7 30 7q10 0 15 -12q8 -20 8 -33q0 -12 -21 -19q-75 -24 -166 -24q-115 0 -174.5 59t-71.5 204h-71q-18 0 -18 18v12q0 17 18 17h68v29q0 39 1 57h-69
q-18 0 -18 16v13q0 17 18 17h72q13 136 74.5 197t196.5 61q72 0 127 -11q20 -5 20 -19q0 -11 -8 -37q-4 -9 -14 -9q-1 0 -34 5q-31 5 -102 5q-96 0 -137.5 -49.5t-49.5 -142.5h221q18 0 18 -17v-13q0 -16 -18 -16z" />
    <glyph glyph-name="afii61289" unicode="&#x2113;" horiz-adv-x="445" 
d="M166 217q6 -166 121 -166q57 0 104 32q12 7 19 7q10 0 16 -10q13 -20 13 -28q0 -10 -10 -16q-64 -49 -155 -49q-70 0 -115 47t-56 137q-25 -18 -44 -29q-5 -5 -15 -5q-9 0 -21 18q-7 9 -7 18q0 11 11 17q47 31 66 45q-5 65 -5 127q0 142 20 205q21 63 59 92t100 29
q127 0 127 -137q0 -88 -66 -178q-27 -37 -60 -68t-102 -88zM158 287q87 76 124 127q48 65 48 134q0 79 -69 79q-56 0 -81 -55q-25 -54 -25 -190q0 -32 3 -95z" />
    <glyph glyph-name="trademark" unicode="&#x2122;" horiz-adv-x="787" 
d="M202 378q0 -15 -13 -15h-25q-12 0 -12 15v284h-94q-14 0 -14 12v18q0 14 14 14h236q16 0 16 -13v-19q0 -12 -16 -12h-92v-284zM425 378q0 -15 -12 -15h-25q-12 0 -12 16v294q0 35 32 35h15q22 -1 31 -23q67 -147 85 -192q13 35 79 190q10 25 35 25h14q29 0 29 -36v-293
q0 -16 -13 -16h-24q-12 0 -12 16q0 226 1 281q-17 -49 -85 -206q-6 -15 -23 -15h-8q-15 0 -23 16q-73 167 -86 205q2 -98 2 -282z" />
    <glyph glyph-name="Omega" unicode="&#x2126;" horiz-adv-x="727" 
d="M325 19q0 -19 -21 -19h-214q-19 0 -19 18v28q0 21 18 21h172q-97 38 -140.5 108t-43.5 194q0 161 70.5 240.5t222.5 79.5q151 0 214 -77t63 -237q0 -120 -42 -192t-137 -116h167q20 0 20 -21v-27q0 -11 -4 -15t-15 -4h-213q-22 0 -22 19v51q0 21 16 28q76 33 114 96
t38 174q0 135 -46 194t-156 59q-112 0 -161.5 -61t-49.5 -195q0 -205 152 -267q17 -7 17 -28v-51z" />
    <glyph glyph-name="estimated" unicode="&#x212e;" horiz-adv-x="845" 
d="M803 336h-616q-6 0 -6 -4v-195q0 -10 10 -22q95 -106 233 -106q147 0 244 118h57q-54 -64 -133 -101.5t-169 -37.5q-158 0 -269.5 105t-111.5 253t111.5 252.5t269.5 104.5t269 -104.5t111 -252.5v-10zM665 362v195q0 13 -11 24q-98 101 -230 101q-135 0 -232 -105
q-11 -9 -11 -24v-191q0 -5 6 -5h472q6 0 6 5z" />
    <glyph glyph-name="onethird" unicode="&#x2153;" horiz-adv-x="847" 
d="M688 218q93 -9 93 -101q0 -63 -37 -94t-117 -31q-63 0 -97 10q-17 6 -17 15t8 28q3 8 11 8q2 0 5.5 -1t8.5 -2t8 -2q37 -7 71 -7q60 0 79.5 20.5t19.5 55.5q0 37 -22 53.5t-83 17.5q-26 1 -26 24q0 16 5.5 21.5t21.5 7.5q51 2 71 18.5t20 46.5q0 38 -18 51.5t-67 13.5
q-31 0 -63 -9q-23 -5 -24 -5q-5 0 -9 7q-6 14 -6 25t14 15q44 16 100 16q75 0 102.5 -26.5t27.5 -84.5q0 -35 -21 -59t-59 -32zM263 -15q-9 -17 -23 -17q-16 0 -19 2q-6 3 -6 9q0 7 8 23l331 687q11 23 24 23q9 0 19 -2q8 -1 8 -10q0 -8 -9 -26zM288 264h-175q-13 0 -13 12
v25q0 13 13 13h65v304l-63 -24q-12 -3 -15 -3q-5 0 -8 6q-10 26 -10 29q0 7 9 11l79 32q22 8 34 8h6q24 0 24 -31v-332h53q15 0 15 -12v-27q0 -11 -14 -11z" />
    <glyph glyph-name="twothirds" unicode="&#x2154;" horiz-adv-x="847" 
d="M302 -15q-8 -17 -23 -17q-16 0 -19 2q-6 3 -6 9q0 7 8 23l331 687q11 23 24 23q9 0 19 -2q8 -1 8 -10q0 -8 -9 -26zM331 264h-248q-16 0 -22.5 6.5t-6.5 22.5q0 19 20 34q83 64 155 131q50 47 50 97q0 38 -20.5 59t-70.5 21q-34 0 -71 -10q-18 -6 -23 -6q-8 0 -11 7
q-5 16 -5 26t15 15q51 17 107 17q77 0 106.5 -32t29.5 -90q0 -66 -53 -119q-52 -53 -155 -130q37 1 203 1q14 0 14 -12v-24q0 -14 -14 -14zM713 218q93 -9 93 -101q0 -63 -37 -94t-117 -31q-63 0 -97 10q-17 6 -17 15t8 28q3 8 11 8q2 0 5.5 -1t8.5 -2t8 -2q37 -7 71 -7
q60 0 79.5 20.5t19.5 55.5q0 37 -22 53.5t-83 17.5q-26 1 -26 24q0 16 5.5 21.5t21.5 7.5q51 2 71 18.5t20 46.5q0 38 -18 51.5t-67 13.5q-31 0 -63 -9q-22 -5 -24 -5q-6 0 -9 7q-6 14 -6 25t14 15q44 16 100 16q75 0 102.5 -26.5t27.5 -84.5q0 -35 -21 -59t-59 -32z" />
    <glyph glyph-name="oneeighth" unicode="&#x215b;" horiz-adv-x="847" 
d="M702 217q83 -14 83 -104q0 -121 -147 -121q-77 0 -112 29t-35 91q0 85 83 105q-69 18 -69 95q0 56 33.5 82t102.5 26q70 0 101.5 -25t31.5 -82q0 -76 -72 -96zM244 -15q-8 -17 -23 -17q-16 0 -19 2q-6 3 -6 9q0 7 8 23l331 687q11 23 24 23q9 0 19 -2q8 -1 8 -10
q0 -8 -9 -26zM269 264h-175q-13 0 -13 12v25q0 13 13 13h65v304l-63 -24q-12 -3 -15 -3q-5 0 -8 6q-10 26 -10 29q0 7 9 11l79 32q22 8 34 8h6q24 0 24 -31v-332h53q15 0 15 -12v-27q0 -11 -14 -11zM727 116q0 74 -89 74q-91 0 -91 -73q0 -44 23.5 -61t67.5 -17q89 0 89 77z
M717 306q0 34 -17.5 49.5t-61.5 15.5t-61.5 -16.5t-17.5 -49.5q0 -67 79 -67q32 0 55.5 16t23.5 52z" />
    <glyph glyph-name="threeeighths" unicode="&#x215c;" horiz-adv-x="847" 
d="M266 -15q-8 -17 -23 -17q-16 0 -19 2q-6 3 -6 9q0 7 8 23l331 687q11 23 24 23q9 0 19 -2q8 -1 8 -10q0 -8 -9 -26zM234 482q87 -9 87 -101q0 -64 -36 -94.5t-118 -30.5q-60 0 -96 10q-18 4 -18 15q0 9 8 28q3 8 11 8l23 -5q32 -7 70 -7q60 0 79.5 20.5t19.5 55.5
q0 38 -22 55t-78 17h-15q-13 0 -13 14v23q0 13 13 13h16q86 0 86 67q0 38 -18 51.5t-67 13.5q-31 0 -63 -9q-22 -5 -24 -5q-5 0 -9 7q-6 14 -6 25q0 10 14 15q46 16 100 16q75 0 102.5 -26t27.5 -85q0 -35 -19.5 -59t-54.5 -32zM707 217q83 -14 83 -104q0 -121 -147 -121
q-77 0 -112 29t-35 91q0 85 83 105q-69 18 -69 95q0 56 33.5 82t102.5 26q70 0 101.5 -25t31.5 -82q0 -76 -72 -96zM732 116q0 74 -89 74q-91 0 -91 -73q0 -44 23.5 -61t67.5 -17q89 0 89 77zM722 306q0 34 -17.5 49.5t-61.5 15.5t-61.5 -16.5t-17.5 -49.5q0 -67 79 -67
q32 0 55.5 16t23.5 52z" />
    <glyph glyph-name="fiveeighths" unicode="&#x215d;" horiz-adv-x="847" 
d="M272 -15q-8 -17 -23 -17q-16 0 -19 2q-6 3 -6 9q0 7 8 23l331 687q11 23 24 23q9 0 19 -2q8 -1 8 -10q0 -8 -9 -26zM123 513q57 5 74 5q72 0 102 -27t30 -99q0 -69 -38.5 -102.5t-119.5 -33.5q-67 0 -100 10q-15 5 -15 15q0 1 7 27q5 9 12 9q2 0 6 -1l10 -2.5l10 -2.5
q28 -6 71 -6q52 0 75 21t23 64q0 48 -22 63t-71 15q-17 0 -42.5 -2.5t-31.5 -2.5q-29 0 -29 28q0 18 1 32l7 136q2 17 15 17h194q14 0 14 -12v-26q0 -12 -14 -12h-162zM709 217q83 -14 83 -104q0 -121 -147 -121q-77 0 -112 29t-35 91q0 85 83 105q-69 18 -69 95
q0 56 33.5 82t102.5 26q70 0 101.5 -25t31.5 -82q0 -76 -72 -96zM734 116q0 74 -89 74q-91 0 -91 -73q0 -44 23.5 -61t67.5 -17q89 0 89 77zM724 306q0 34 -17.5 49.5t-61.5 15.5t-61.5 -16.5t-17.5 -49.5q0 -67 79 -67q32 0 55.5 16t23.5 52z" />
    <glyph glyph-name="seveneighths" unicode="&#x215e;" horiz-adv-x="847" 
d="M225 -15q-9 -17 -23 -17q-16 0 -19 2q-6 3 -6 9q0 7 8 23l331 687q11 23 24 23q9 0 19 -2q8 -1 8 -10q0 -8 -9 -26zM281 627h-210q-15 0 -15 12v25q0 12 15 12h256q17 0 17 -15v-12q0 -15 -5 -27l-141 -342q-7 -18 -20 -18q-18 0 -32 3q-10 3 -10 12q0 7 5 19zM672 217
q83 -14 83 -104q0 -121 -147 -121q-77 0 -112 29t-35 91q0 85 83 105q-69 18 -69 95q0 56 33.5 82t102.5 26q70 0 101.5 -25t31.5 -82q0 -76 -72 -96zM697 116q0 74 -89 74q-91 0 -91 -73q0 -44 23.5 -61t67.5 -17q89 0 89 77zM687 306q0 34 -17.5 49.5t-61.5 15.5
t-61.5 -16.5t-17.5 -49.5q0 -67 79 -67q32 0 55.5 16t23.5 52z" />
    <glyph glyph-name="arrowleft" unicode="&#x2190;" horiz-adv-x="768" 
d="M706 372q27 0 27 -23v-24q0 -24 -23 -24q-477 0 -563 1q73 -63 250 -234q14 -12 14 -22q0 -7 -6 -15l-17 -18q-10 -10 -17 -10q-6 0 -16 8l-311 308q-7 6 -7 17q0 12 7 18l314 312q8 8 14 8q7 0 15 -8l16 -18q9 -11 9 -16q0 -9 -8 -17l-257 -245q82 2 559 2z" />
    <glyph glyph-name="arrowup" unicode="&#x2191;" horiz-adv-x="768" 
d="M348 26q0 466 2 549q-97 -103 -248 -247q-9 -7 -15 -7q-10 0 -15 6l-16 17q-8 10 -8 16q0 10 8 17l313 310q9 9 17 9q10 0 17 -8l309 -309q8 -10 8 -16q0 -8 -8 -18l-16 -16q-7 -7 -14 -7q-11 0 -23 12l-237 241q1 -85 1 -551q0 -24 -21 -24h-33q-21 0 -21 26z" />
    <glyph glyph-name="arrowright" unicode="&#x2192;" horiz-adv-x="768" 
d="M63 372q474 0 557 -2l-257 245q-8 8 -8 17q0 8 8 16l16 18q8 8 16 8q6 0 14 -8l314 -312q8 -7 8 -18q0 -10 -8 -17l-311 -308q-7 -7 -16 -7q-8 0 -16 8l-16 19q-7 5 -7 15q0 12 12 22l251 234q-86 -1 -563 -1q-22 0 -22 24v24q0 23 28 23z" />
    <glyph glyph-name="arrowdown" unicode="&#x2193;" horiz-adv-x="768" 
d="M348 647q0 28 21 28h33q21 0 21 -24q0 -467 -1 -552l238 242q12 12 22 12q8 0 13 -6l17 -17q8 -10 8 -17t-8 -17l-308 -309q-9 -9 -18 -9q-6 0 -17 9l-313 312q-7 7 -7 16t7 16l18 17q8 6 16 6q6 0 15 -7q185 -181 245 -247q-2 85 -2 547z" />
    <glyph glyph-name="uni2196" unicode="&#x2196;" horiz-adv-x="768" 
d="M649 130q11 -11 11 -20q0 -10 -12 -23q-22 -23 -30 -23t-16 8l-393 392q6 -180 6 -339q0 -14 -8 -23q-6 -6 -14 -6h-26q-11 0 -17 6q-6 8 -6 20v433q0 13 8 19q9 7 20 7h440q11 0 16 -5q6 -5 6 -18v-24q0 -12 -6 -18q-4 -5 -18 -5q-291 0 -356 5z" />
    <glyph glyph-name="uni2197" unicode="&#x2197;" horiz-adv-x="768" 
d="M171 76q-11 -11 -19 -11q-11 0 -21 10q-23 25 -23 35q0 9 8 17l399 387q-180 -6 -347 -6q-15 0 -21 5q-7 7 -7 17v28q0 11 6 17t18 6h437q7 0 18 -7q5 -4 5 -21v-437q0 -14 -4 -18q-6 -6 -17 -6h-27q-7 0 -14 5q-6 6 -6 19q0 293 4 345z" />
    <glyph glyph-name="uni2198" unicode="&#x2198;" horiz-adv-x="768" 
d="M119 540q-11 11 -11 21q0 9 10 19q24 24 33 24q8 0 16 -8q330 -323 394 -390q0 6 -1.5 43.5t-2.5 114.5t-1 179q0 16 6 23t14 7h28q9 0 15 -7q6 -6 6 -19v-433q0 -11 -6 -19q-6 -7 -21 -7h-440q-13 0 -17 5q-5 6 -5 18v22q0 14 5 19q6 6 18 6q249 0 357 -4z" />
    <glyph glyph-name="uni2199" unicode="&#x2199;" horiz-adv-x="768" 
d="M600 596q10 10 17 10q10 0 32 -24q12 -12 12 -21q0 -11 -10 -20l-397 -386q112 4 353 4q13 0 19 -6q5 -5 5 -17v-25q0 -10 -5 -17q-5 -5 -17 -5h-438q-15 0 -21 7q-6 8 -6 19v436q0 13 6 18q6 6 17 6h25q12 0 16 -6q6 -8 6 -23q0 -260 -5 -338q60 64 391 388z" />
    <glyph glyph-name="partialdiff" unicode="&#x2202;" horiz-adv-x="549" 
d="M412 383q-5 135 -35.5 190.5t-113.5 55.5q-68 0 -107 -13q-8 -4 -16 -4q-13 0 -18 13q-5 15 -5 25q0 13 14 18q49 20 144 20q122 0 165.5 -87t43.5 -308q0 -158 -53 -232t-170 -74q-198 0 -198 215q0 223 207 223q94 0 142 -42zM415 311q-41 57 -143 57q-71 0 -107.5 -37
t-36.5 -127q0 -158 136 -158q56 0 89 23.5t49 83.5q13 47 13 158z" />
    <glyph glyph-name="Delta" unicode="&#x2206;" horiz-adv-x="656" 
d="M636 39q4 -11 4 -20q0 -19 -21 -19h-583q-21 0 -21 18q0 5 5 20l259 620q7 18 26 18h50q17 0 24 -18zM328 599q-24 -68 -219 -532h436q-204 496 -217 532z" />
    <glyph glyph-name="product" unicode="&#x220f;" horiz-adv-x="708" 
d="M182 -110q0 -23 -22 -23h-30q-22 0 -22 23v763q0 23 25 23h443q24 0 24 -24v-762q0 -23 -22 -23h-32q-21 0 -21 23v719h-343v-719z" />
    <glyph glyph-name="summation" unicode="&#x2211;" horiz-adv-x="593" 
d="M534 -131h-449q-47 0 -47 45q0 25 19 50l247 323l-229 300q-15 19 -15 40q0 49 46 49h408q23 0 23 -22v-26q0 -11 -5.5 -15t-19.5 -4h-367l229 -292q10 -15 10 -27q0 -16 -13 -30l-252 -323h416q12 0 17.5 -4t5.5 -17v-27q0 -12 -5.5 -16t-18.5 -4z" />
    <glyph glyph-name="minus" unicode="&#x2212;" horiz-adv-x="701" 
d="M611 284q0 -19 -18 -19h-486q-17 0 -17 19v22q0 20 17 20h486q18 0 18 -20v-22z" />
    <glyph glyph-name="uni2215" unicode="&#x2215;" horiz-adv-x="84" 
d="M-105 -15q-9 -17 -23 -17q-16 0 -19 2q-6 3 -6 9q0 7 8 23l331 687q11 23 24 23q9 0 19 -2q8 -1 8 -10q0 -8 -9 -26z" />
    <glyph glyph-name="uni2219" unicode="&#x2219;" horiz-adv-x="214" 
d="M157 268q0 -50 -50 -50t-50 50q0 52 50 52t50 -52z" />
    <glyph glyph-name="radical" unicode="&#x221a;" horiz-adv-x="638" 
d="M346 -163q-4 -18 -22 -18h-26q-15 0 -22 16l-134 268l-52 -24q-6 -3 -12 -3q-7 0 -13 11q-10 20 -10 26q0 10 12 15l88 43q7 3 17 3q8 0 14 -13l126 -253l234 772q5 18 20 18q18 0 29 -3q12 -2 12 -13q0 -2 -0.5 -6t-2 -8.5t-1.5 -5.5z" />
    <glyph glyph-name="infinity" unicode="&#x221e;" horiz-adv-x="730" 
d="M365 334q45 54 85.5 79t88.5 25q61 0 98 -40.5t37 -104.5q0 -67 -39 -109t-104 -42q-47 0 -82.5 23.5t-83.5 80.5q-49 -56 -86 -79.5t-85 -23.5q-62 0 -100.5 39t-38.5 104q0 68 40 110.5t104 42.5q46 0 82.5 -23.5t83.5 -81.5zM330 290q-42 52 -68 72.5t-64 20.5
t-63.5 -26t-25.5 -66q0 -41 24.5 -67t62.5 -26q37 0 68 23t66 69zM399 292q33 -38 48 -53.5t37.5 -28t47.5 -12.5q39 0 63 25t24 66t-23 66.5t-60 25.5q-66 0 -137 -89z" />
    <glyph glyph-name="integral" unicode="&#x222b;" horiz-adv-x="323" 
d="M144 -38q0 42 -2 90l-19 453q-2 48 -2 80q0 59 29 91.5t85 32.5q28 0 46 -3q15 -3 15 -17q0 -18 -2 -27q-5 -14 -17 -14q-1 0 -16 1.5t-27 1.5q-53 0 -53 -72q0 -9 3 -72l20 -455q2 -50 2 -90q0 -65 -29 -94t-89 -29q-27 0 -42 3t-15 17q0 6 2 24q3 17 18 17
q1 0 13.5 -1.5t24.5 -1.5q27 0 41 13.5t14 51.5z" />
    <glyph glyph-name="approxequal" unicode="&#x2248;" horiz-adv-x="701" 
d="M141 350q-9 -11 -17 -11q-10 0 -22 11q-10 10 -10 17t7 16q38 48 72 67t73 19q42 0 120 -45q58 -34 96 -34q29 0 50.5 13.5t46.5 48.5q9 12 18 12q8 0 22 -11q10 -7 10 -16q0 -10 -7 -20q-33 -45 -64.5 -66.5t-76.5 -21.5q-48 0 -117 40q-70 39 -103 39q-48 0 -98 -58z
" />
    <glyph glyph-name="notequal" unicode="&#x2260;" horiz-adv-x="701" 
d="M243 20q-6 -13 -19 -13q-14 0 -21 2q-9 3 -9 11q0 2 5 15l67 131h-159q-17 0 -17 20v20q0 19 17 19h186l66 136h-252q-17 0 -17 19v21q0 19 17 19h280l68 134q8 16 21 16q10 0 20 -2q9 -3 9 -12q0 -7 -4 -15l-62 -121h154q18 0 18 -19v-21q0 -19 -18 -19h-182l-67 -136
h249q18 0 18 -19v-20q0 -20 -18 -20h-276z" />
    <glyph glyph-name="lessequal" unicode="&#x2264;" horiz-adv-x="701" 
d="M571 20q0 -20 -18 -20h-418q-18 0 -18 20v20q0 19 18 19h418q18 0 18 -19v-20zM184 386l372 -162q16 -8 16 -25q0 -21 -2 -29q-3 -15 -16 -15q-6 0 -16 5l-405 185q-16 7 -16 29v22q0 21 16 28l408 190q8 4 15 4q9 0 13 -14q3 -11 3 -30q0 -16 -17 -23z" />
    <glyph glyph-name="greaterequal" unicode="&#x2265;" horiz-adv-x="701" 
d="M583 20q0 -20 -17 -20h-419q-18 0 -18 20v20q0 19 18 19h419q17 0 17 -19v-20zM517 387l-372 162q-16 8 -16 24q0 22 2 30q4 15 16 15q6 0 16 -5l405 -185q16 -7 16 -29v-22q0 -21 -16 -28l-408 -190q-8 -4 -15 -4q-9 0 -13 13q-3 12 -3 31q0 16 17 23z" />
    <glyph glyph-name="lozenge" unicode="&#x25ca;" horiz-adv-x="708" 
d="M314 670q6 16 24 16h37q15 0 22 -15l151 -311q3 -6 3 -15q0 -11 -4 -19l-151 -312q-7 -14 -21 -14h-40q-13 0 -20 14l-157 314q-3 6 -3 16q0 8 3 16zM219 344l138 -278l132 279l-134 276z" />
    <glyph glyph-name="commaaccent" unicode="&#xf6c3;" horiz-adv-x="185" 
d="M106 -64h21q23 0 23 -26q0 -105 -63 -171q-11 -13 -23 -13q-11 0 -19 7q-11 8 -11 17q0 7 7 16q36 50 38 143q0 27 27 27z" />
    <glyph glyph-name="Dotlessi" horiz-adv-x="279" 
d="M177 19q0 -21 -20 -21h-36q-19 0 -19 21v669q0 21 20 21h37q18 0 18 -21v-669z" />
    <glyph glyph-name="Euro.denominator" horiz-adv-x="411" 
d="M297 232h-137v-24v-24h137q12 0 12 -12v-10q0 -12 -12 -12h-135q6 -53 30 -80.5t78 -27.5q46 0 79 9q16 4 19 4q7 0 10 -8q5 -15 5 -26q0 -10 -13 -14q-43 -14 -107 -14q-72 0 -110.5 35t-46.5 122h-44q-11 0 -11 12v10q0 12 11 12h42v16v32h-42q-11 0 -11 12v10
q0 10 11 10h45q8 82 47.5 119t124.5 37q43 0 82 -7q13 -3 13 -13q0 -14 -5 -29q-3 -7 -10 -7q-2 0 -5.5 0.5t-8 1.5t-7.5 1q-19 3 -62 3q-57 0 -82.5 -26.5t-31.5 -79.5h135q12 0 12 -10v-10q0 -12 -12 -12z" />
    <glyph glyph-name="Euro.inferior" horiz-adv-x="411" 
d="M297 106h-137v-24v-24h137q12 0 12 -12v-10q0 -12 -12 -12h-135q6 -53 30 -80.5t78 -27.5q46 0 79 9q16 4 19 4q7 0 10 -8q5 -15 5 -26q0 -10 -13 -14q-43 -14 -107 -14q-72 0 -110.5 35t-46.5 122h-44q-11 0 -11 12v10q0 12 11 12h42v16v32h-42q-11 0 -11 12v10
q0 10 11 10h45q8 82 47.5 119t124.5 37q43 0 82 -7q13 -3 13 -13q0 -14 -5 -29q-3 -7 -10 -7q-2 0 -5.5 0.5t-8 1.5t-7.5 1q-19 3 -62 3q-57 0 -82.5 -26.5t-31.5 -79.5h135q12 0 12 -10v-10q0 -12 -12 -12z" />
    <glyph glyph-name="Euro.numerator" horiz-adv-x="411" 
d="M297 496h-137v-24v-24h137q12 0 12 -12v-10q0 -12 -12 -12h-135q6 -53 30 -80.5t78 -27.5q46 0 79 9q16 4 19 4q7 0 10 -8q5 -15 5 -26q0 -9 -13 -14q-49 -14 -107 -14q-72 0 -110.5 35t-46.5 122h-44q-11 0 -11 12v10q0 12 11 12h42v16v32h-42q-11 0 -11 12v10
q0 10 11 10h45q8 82 47.5 119t124.5 37q43 0 82 -7q13 -3 13 -13q0 -14 -5 -29q-3 -7 -10 -7q-2 0 -5.5 0.5t-8 1.5t-7.5 1q-19 3 -62 3q-57 0 -82.5 -26.5t-31.5 -79.5h135q12 0 12 -10v-10q0 -12 -12 -12z" />
    <glyph glyph-name="Euro.oldstyle" horiz-adv-x="598" 
d="M451 341h-218v-39v-41h218q18 0 18 -16v-13q0 -17 -18 -17h-215q8 -79 42 -122t112 -43q63 0 118 11q22 4 26 4q9 0 13 -11q6 -22 6 -31q0 -13 -19 -18q-64 -18 -149 -18q-103 0 -157 51.5t-66 176.5h-64q-18 0 -18 17v12q0 17 18 17h61v29q0 35 1 51h-62q-18 0 -18 17
v12q0 17 18 17h65q13 118 69.5 170.5t176.5 52.5q69 0 115 -9q17 -2 17 -17t-6 -35q-3 -10 -14 -10q-3 0 -17 2l-21 3q-31 3 -86 3q-81 0 -116.5 -41t-43.5 -119h214q18 0 18 -17v-12q0 -17 -18 -17z" />
    <glyph glyph-name="Euro.superior" horiz-adv-x="411" 
d="M297 652h-137v-24v-24h137q12 0 12 -12v-10q0 -12 -12 -12h-135q6 -53 30 -80.5t78 -27.5q46 0 79 9q16 4 19 4q7 0 10 -8q5 -15 5 -26q0 -10 -13 -14q-43 -14 -107 -14q-72 0 -110.5 35t-46.5 122h-44q-11 0 -11 12v10q0 12 11 12h42v16v32h-42q-11 0 -11 12v10
q0 10 11 10h45q8 82 47.5 119t124.5 37q43 0 82 -7q13 -3 13 -13q0 -14 -5 -29q-3 -7 -10 -7q-2 0 -5.5 0.5t-8 1.5t-7.5 1q-19 3 -62 3q-57 0 -82.5 -26.5t-31.5 -79.5h135q12 0 12 -10v-10q0 -12 -12 -12z" />
    <glyph glyph-name="Kgreenlandic" horiz-adv-x="693" 
d="M612 480q-22 0 -22 21q0 59 23 123.5t62 101.5q14 12 21 12t19 -7q11 -6 11 -16q0 -9 -7 -19q-24 -25 -41.5 -73.5t-17.5 -113.5q0 -29 -23 -29h-25zM177 19q0 -21 -20 -21h-36q-19 0 -19 21v669q0 21 20 21h37q18 0 18 -21v-287h83q32 0 44 17l198 274q12 17 28 17
q31 0 41 -2q12 -1 12 -13q0 -9 -10 -23q-178 -243 -223 -299l241 -333q13 -17 13 -25q0 -12 -13 -14q-15 -2 -48 -2q-15 0 -27 17l-218 302q-12 17 -39 17h-82v-315z" />
    <glyph glyph-name="S_S" horiz-adv-x="1125" 
d="M348 375q91 -27 126.5 -65.5t35.5 -117.5q0 -100 -57 -152.5t-188 -52.5q-110 0 -196 31q-20 7 -20 22q0 10 9 33q6 17 20 17q4 0 28 -8q70 -27 159 -27q55 0 91 11.5t51.5 32.5t20.5 40t5 44q0 44 -25 72t-109 53l-97 28q-142 41 -142 182q0 98 57 149.5t184 51.5
q99 0 163 -20q18 -5 18 -21q0 -12 -7 -33q-4 -14 -18 -14q-3 0 -25 5q-76 16 -137 16q-91 0 -124.5 -33t-33.5 -94q0 -45 24 -73.5t99 -50.5zM909 375q91 -27 126.5 -65.5t35.5 -117.5q0 -100 -57 -152.5t-188 -52.5q-110 0 -196 31q-20 7 -20 22q0 10 9 33q6 17 20 17
q4 0 28 -8q71 -27 159 -27q55 0 91 11.5t51.5 32.5t20.5 40t5 44q0 44 -25 72t-109 53l-97 28q-142 41 -142 182q0 98 57 149.5t184 51.5q99 0 163 -20q18 -5 18 -21q0 -12 -7 -33q-4 -14 -18 -14q-2 0 -25 5q-76 16 -137 16q-91 0 -124.5 -33t-33.5 -94q0 -45 24 -73.5
t99 -50.5z" />
    <glyph glyph-name="a.superior" horiz-adv-x="342" 
d="M289 320q0 -25 -5 -32q-6 -9 -20 -14q-45 -18 -118 -18q-112 0 -112 97q0 53 37 74q30 18 96 18q35 0 67 -2v24q0 29 -5 39q-9 22 -63 22q-36 0 -67 -6q-20 -5 -25 -5q-9 0 -12 9q-4 16 -4 23q0 9 11 13q45 14 105 14q72 0 94 -22q21 -21 21 -79v-155zM234 401
q-15 2 -60 2q-51 0 -71 -12q-15 -9 -15 -37q0 -26 14 -40t52 -14q43 0 65 9q8 3 12 10q3 9 3 22v60z" />
    <glyph glyph-name="acute.cap" horiz-adv-x="197" 
d="M57 772q-17 -13 -36 -13q-15 0 -31 4q-12 4 -12 13q0 8 12 19l127 103q20 15 37 15q18 0 48 -4q16 -3 16 -14t-13 -20z" />
    <glyph glyph-name="b.superior" horiz-adv-x="364" 
d="M55 312v394q0 14 14 14h28q14 0 14 -14v-156q32 26 107 26q57 0 83 -36.5t26 -118.5q0 -97 -35.5 -131t-115.5 -34q-58 0 -95 13q-16 5 -22 16q-4 7 -4 27zM111 332q0 -13 3 -16q4 -5 13 -7q17 -5 50 -5q58 0 76 23.5t18 87.5q0 61 -14 86.5t-59 25.5q-54 0 -77 -15
q-8 -4 -9 -8q-1 -3 -1 -13v-159z" />
    <glyph glyph-name="braceleft.cap" horiz-adv-x="313" 
d="M98 342q43 -11 65.5 -42.5t22.5 -100.5v-132q0 -58 16 -81q17 -25 86 -27q12 0 12 -16v-15q0 -15 -15 -15q-59 1 -91 10t-50 34q-23 32 -23 107v129q0 64 -20 91t-65 34q-14 3 -14 16v13q0 16 13 17q47 8 66.5 36.5t19.5 87.5v120q0 76 23 110q34 51 140 51q16 0 16 -18
v-10q0 -18 -15 -18q-69 -2 -86 -34q-13 -23 -13 -76v-125q0 -71 -21.5 -100.5t-66.5 -45.5z" />
    <glyph glyph-name="braceright.cap" horiz-adv-x="313" 
d="M212 340q-42 11 -64.5 42.5t-22.5 100.5v132q0 60 -16 81q-18 25 -86 27q-12 0 -12 16v15q0 15 15 15q59 -1 91 -10t50 -34q23 -32 23 -107v-129q0 -64 20 -91t65 -34q14 -3 14 -16v-13q0 -16 -13 -17q-47 -8 -66.5 -36.5t-19.5 -87.5v-120q0 -77 -24 -110
q-35 -51 -138 -51q-17 0 -17 18v10q0 18 15 18q69 2 87 34q12 21 12 76v125q0 70 21 100t66 46z" />
    <glyph glyph-name="bracketleft.cap" horiz-adv-x="283" 
d="M144 -39h104q13 0 13 -12v-17q0 -15 -13 -15h-153q-6 0 -10.5 5.5t-4.5 12.5v809q0 7 4.5 11.5t10.5 4.5h153q13 0 13 -12v-18q0 -13 -13 -13h-104v-756z" />
    <glyph glyph-name="bracketright.cap" horiz-adv-x="283" 
d="M138 716h-104q-13 0 -13 13v16q0 15 13 15h153q6 0 10.5 -5t4.5 -12v-809q0 -7 -4.5 -12t-10.5 -5h-153q-13 0 -13 13v18q0 13 13 13h104v755z" />
    <glyph glyph-name="breve.cap" horiz-adv-x="197" 
d="M96 759q-122 0 -140 98q-3 13 -3 27q0 16 14 20q12 4 26 4q13 0 16 -16q6 -36 25.5 -54t63.5 -18q46 0 66 18t27 53q3 17 19 17q14 0 25 -3q10 -3 10 -17q0 -17 -4 -34q-26 -95 -145 -95z" />
    <glyph glyph-name="bullet.cap" horiz-adv-x="343" 
d="M290 314q0 -124 -119 -124q-118 0 -118 123q0 125 118 125q58 0 88.5 -28.5t30.5 -95.5z" />
    <glyph glyph-name="caron.alt" horiz-adv-x="188" 
d="M106 724h21q23 0 23 -26q0 -107 -63 -171q-11 -13 -23 -13q-8 0 -19 7q-11 8 -11 17q0 7 7 16q36 50 38 143q0 27 27 27z" />
    <glyph glyph-name="caron.cap" horiz-adv-x="197" 
d="M218 916q15 0 27 -3q12 -4 12 -14q0 -8 -9 -17l-102 -100q-20 -18 -34 -18h-28q-14 0 -31 15l-107 106q-6 6 -6 14q0 10 13 14q13 3 29 3q13 0 33 -16l85 -71l84 71q17 16 34 16z" />
    <glyph glyph-name="cedilla.cap" horiz-adv-x="197" 
d="M99 -61q59 -1 78.5 -25.5t19.5 -67.5q0 -98 -126 -98q-29 0 -52 5q-15 4 -15 18q0 9 3 22q4 15 19 15q4 0 22 -3q13 -2 27 -2q54 0 54 41q0 23 -11.5 32.5t-41.5 9.5h-17q-19 0 -19 18q0 11 5 33l15 73h51z" />
    <glyph glyph-name="cent.denominator" horiz-adv-x="324" 
d="M213 -50q0 -13 -11 -13h-20q-11 0 -11 13v47q-60 3 -88.5 38t-28.5 115q0 76 27 113.5t90 43.5v47q0 14 12 14h20q10 0 10 -14v-45q34 -1 62 -8q11 -3 11 -13q0 -8 -5 -26q-2 -7 -9 -7q-5 0 -17 2q-24 4 -53 4q-55 0 -73 -26t-18 -79q0 -55 17 -83.5t64 -28.5q38 0 66 6
q16 4 19 4q7 0 10 -8q6 -15 6 -22q0 -10 -10 -14q-24 -9 -70 -13v-47z" />
    <glyph glyph-name="cent.inferior" horiz-adv-x="324" 
d="M213 -176q0 -13 -11 -13h-20q-11 0 -11 13v47q-59 3 -88 38t-29 115q0 76 27 113.5t90 43.5v47q0 14 12 14h20q10 0 10 -14v-45q34 -1 62 -8q11 -3 11 -13q0 -8 -5 -26q-2 -7 -9 -7q-5 0 -17 2q-24 4 -53 4q-55 0 -73 -26t-18 -79q0 -55 17 -83.5t64 -28.5q38 0 66 6
q16 4 19 4q7 0 10 -8q6 -15 6 -22q0 -10 -10 -14q-29 -10 -70 -13v-47z" />
    <glyph glyph-name="cent.numerator" horiz-adv-x="324" 
d="M213 214q0 -13 -11 -13h-20q-11 0 -11 13v46q-60 4 -88.5 39t-28.5 115q0 76 27 113.5t90 43.5v47q0 14 12 14h20q10 0 10 -14v-45q34 -1 62 -8q11 -3 11 -13q0 -8 -5 -26q-2 -7 -9 -7q-5 0 -17 2q-24 4 -53 4q-55 0 -73 -26t-18 -79q0 -55 17 -83.5t64 -28.5q31 0 65 6
q4 0 11 2t9 2q7 0 10 -8q6 -15 6 -22q0 -10 -10 -14q-30 -11 -70 -13v-47z" />
    <glyph glyph-name="cent.oldstyle" horiz-adv-x="465" 
d="M308 -1v-84q0 -19 -16 -19h-24q-17 0 -17 19v83q-85 5 -129 56.5t-44 167.5q0 111 40 165t133 63v82q0 21 18 21h23q16 0 16 -21v-80q56 0 94 -10q17 -5 17 -16q0 -17 -7 -35q-4 -10 -13 -10q-10 0 -22 3q-35 7 -83 7q-88 0 -117 -40t-29 -121q0 -82 27.5 -127t102.5 -45
q65 0 110 15q13 5 20 5t12 -10q8 -19 8 -31q0 -13 -15 -18q-47 -18 -105 -20z" />
    <glyph glyph-name="cent.superior" horiz-adv-x="324" 
d="M213 370q0 -13 -11 -13h-20q-11 0 -11 13v46q-60 4 -88.5 39t-28.5 115q0 76 27 113.5t90 43.5v47q0 14 12 14h20q10 0 10 -14v-45q34 -1 62 -8q11 -3 11 -13q0 -8 -5 -26q-2 -7 -9 -7q-5 0 -17 2q-24 4 -53 4q-55 0 -73 -26t-18 -79q0 -55 17 -83.5t64 -28.5q38 0 66 6
q16 4 19 4q7 0 10 -8q6 -15 6 -22q0 -10 -10 -14q-30 -11 -70 -13v-47z" />
    <glyph glyph-name="circumflex.cap" horiz-adv-x="197" 
d="M-21 759q-15 0 -26 4q-13 4 -13 14q0 9 9 17l102 99q19 19 35 19h27q14 0 32 -16l105 -103q7 -6 7 -15q0 -11 -14 -15q-16 -4 -28 -4q-14 0 -33 17l-84 71l-84 -71q-20 -17 -35 -17z" />
    <glyph glyph-name="comma.denominator" horiz-adv-x="156" 
d="M97 75q19 0 19 -17q0 -38 -17 -82.5t-43 -70.5q-9 -11 -18 -11q-6 0 -20 7q-8 7 -8 13q0 7 5 15q35 44 35 125q0 21 21 21h26z" />
    <glyph glyph-name="comma.inferior" horiz-adv-x="156" 
d="M97 -51q19 0 19 -17q0 -38 -17 -82.5t-43 -70.5q-9 -11 -18 -11q-6 0 -20 7q-8 7 -8 13q0 7 5 15q35 44 35 125q0 21 21 21h26z" />
    <glyph glyph-name="comma.numerator" horiz-adv-x="156" 
d="M97 339q19 0 19 -17q0 -38 -17 -82.5t-43 -70.5q-9 -11 -18 -11q-6 0 -20 7q-8 7 -8 13q0 7 5 15q35 44 35 125q0 21 21 21h26z" />
    <glyph glyph-name="comma.superior" horiz-adv-x="156" 
d="M97 495q19 0 19 -17q0 -38 -17 -82.5t-43 -70.5q-9 -11 -18 -11q-6 0 -20 7q-8 7 -8 13q0 7 5 15q35 44 35 125q0 21 21 21h26z" />
    <glyph glyph-name="d.superior" horiz-adv-x="364" 
d="M309 315q0 -15 -3 -22q-5 -12 -21 -18q-40 -19 -116 -19q-70 0 -101.5 34t-31.5 120q0 95 35.5 130.5t115.5 35.5q46 0 67 -8v138q0 14 15 14h27q13 0 13 -14v-391zM254 341v159q0 16 -11 22q-19 7 -53 7q-58 0 -78 -26t-20 -92q0 -57 18 -82.5t62 -25.5q46 0 68 10
q9 4 11 9q3 6 3 19z" />
    <glyph glyph-name="dieresis.cap" horiz-adv-x="197" 
d="M48 821q0 -49 -45 -49t-45 48q0 49 45 49t45 -48zM237 821q0 -49 -44 -49t-44 48q0 49 44 49t44 -48z" />
    <glyph glyph-name="dollar.denominator" horiz-adv-x="365" 
d="M211 -50q0 -13 -11 -13h-20q-12 0 -12 13v46q-72 2 -110 19q-11 5 -11 15q0 8 7 22q4 12 14 12q6 0 16 -5q45 -15 94 -15q29 0 48 6t27 16.5t10.5 20.5t2.5 23q0 25 -13 39.5t-58 24.5l-53 12q-87 20 -87 110q0 103 113 114v50q0 13 13 13h20q10 0 10 -13v-48
q51 -2 86 -12q11 -3 11 -14q0 -2 -1 -5.5t-2 -9.5t-2 -10q-3 -9 -12 -9q-2 0 -17 3q-41 10 -79 10q-48 0 -66 -17t-18 -48q0 -25 12.5 -39t52.5 -24l48 -12q54 -14 76.5 -38t22.5 -71q0 -106 -112 -118v-48z" />
    <glyph glyph-name="dollar.inferior" horiz-adv-x="365" 
d="M211 -176q0 -13 -11 -13h-20q-12 0 -12 13v46q-72 2 -110 19q-11 5 -11 15q0 8 7 22q4 12 14 12q6 0 16 -5q45 -15 94 -15q29 0 48 6t27 16.5t10.5 20.5t2.5 23q0 25 -13 39.5t-58 24.5l-53 12q-87 20 -87 110q0 103 113 114v50q0 13 13 13h20q10 0 10 -13v-48
q51 -2 86 -12q11 -3 11 -14l-5 -25q-3 -9 -12 -9q-2 0 -17 3q-41 10 -79 10q-48 0 -66 -17t-18 -48q0 -25 12.5 -39t52.5 -24l48 -12q54 -14 76.5 -38t22.5 -71q0 -106 -112 -118v-48z" />
    <glyph glyph-name="dollar.numerator" horiz-adv-x="365" 
d="M211 214q0 -13 -11 -13h-20q-12 0 -12 13v46q-75 2 -110 19q-11 5 -11 15q0 8 7 22q4 12 14 12q6 0 16 -5q45 -15 94 -15q29 0 48 6t27 16.5t10.5 20.5t2.5 23q0 25 -13 39.5t-58 24.5l-53 12q-87 20 -87 110q0 103 113 114v50q0 13 13 13h20q10 0 10 -13v-48
q51 -2 86 -12q11 -3 11 -14l-5 -25q-3 -9 -12 -9q-2 0 -17 3q-41 10 -79 10q-48 0 -66 -17t-18 -48q0 -25 12.5 -39t52.5 -24l50 -12q54 -13 75.5 -37t21.5 -72q0 -106 -112 -118v-48z" />
    <glyph glyph-name="dollar.oldstyle" horiz-adv-x="508" 
d="M286 -3v-82q0 -19 -17 -19h-24q-17 0 -17 19v79q-100 2 -158 27q-15 7 -15 20q0 11 8 29q6 15 18 15q5 0 23 -6q59 -23 138 -23q45 0 74.5 9.5t42.5 26.5t17.5 32.5t4.5 35.5q0 35 -21 57.5t-92 41.5l-80 22q-123 33 -123 153q0 145 163 162v82q0 20 18 20h24
q16 0 16 -20v-80q78 -2 128 -18q15 -5 15 -18q0 -6 -8 -35q-4 -11 -15 -11q-8 0 -24 4q-64 16 -117 16q-74 0 -101.5 -25t-27.5 -71q0 -35 19.5 -58.5t81.5 -41.5l74 -21q77 -22 108.5 -55.5t31.5 -99.5q0 -149 -165 -167z" />
    <glyph glyph-name="dollar.superior" horiz-adv-x="365" 
d="M211 370q0 -13 -11 -13h-20q-12 0 -12 13v46q-72 2 -110 19q-11 5 -11 15q0 8 7 22q4 12 14 12q6 0 16 -5q45 -15 94 -15q29 0 48 6t27 16.5t10.5 20.5t2.5 23q0 25 -13 39.5t-58 24.5l-53 12q-87 20 -87 110q0 103 113 114v50q0 13 13 13h20q10 0 10 -13v-48
q51 -2 86 -12q11 -3 11 -14l-5 -25q-3 -9 -12 -9q-2 0 -17 3q-41 10 -79 10q-48 0 -66 -17t-18 -48q0 -25 12.5 -39t52.5 -24l48 -12q54 -14 76.5 -38t22.5 -71q0 -106 -112 -118v-48z" />
    <glyph glyph-name="dotaccent.cap" horiz-adv-x="197" 
d="M161 821q0 -49 -44 -49q-45 0 -45 48q0 49 45 49q44 0 44 -48z" />
    <glyph glyph-name="e.superior" horiz-adv-x="335" 
d="M91 400q1 -57 24.5 -76.5t72.5 -19.5q43 0 73 8q10 4 17 4q8 0 10 -7q5 -12 5 -25q0 -9 -10 -12q-42 -16 -101 -16q-80 0 -113 37.5t-33 121.5t36 122.5t108 38.5q76 0 98.5 -36.5t22.5 -116.5q0 -16 -5 -20q-4 -3 -13 -3h-192zM92 443h155q1 4 1 13q0 39 -14.5 58.5
t-57.5 19.5q-46 0 -64 -22.5t-20 -68.5z" />
    <glyph glyph-name="egrave.superior" horiz-adv-x="341" 
d="M91 400q1 -57 24.5 -76.5t72.5 -19.5q43 0 73 8q10 4 17 4q8 0 10 -7q5 -12 5 -25q0 -9 -10 -12q-42 -16 -101 -16q-80 0 -113 37.5t-33 121.5t36 122.5t108 38.5q76 0 98.5 -36.5t22.5 -116.5q0 -16 -5 -20q-4 -3 -13 -3h-192zM92 443h155q1 4 1 13q0 39 -14.5 58.5
t-57.5 19.5q-46 0 -64 -22.5t-20 -68.5zM168 625l-75 76q-6 6 -6 11q0 8 10 11q14 2 36 2q12 0 21 -12l60 -73q5 -7 5 -12q0 -7 -8 -9q-15 -3 -25 -3q-9 0 -18 9z" />
    <glyph glyph-name="eight.denominator" 
d="M249 217q83 -14 83 -104q0 -121 -147 -121q-77 0 -112 29t-35 91q0 85 83 105q-69 18 -69 95q0 56 33.5 82t102.5 26q70 0 101.5 -25t31.5 -82q0 -76 -72 -96zM274 116q0 74 -89 74q-91 0 -91 -73q0 -44 23.5 -61t67.5 -17q89 0 89 77zM264 306q0 34 -17.5 49.5
t-61.5 15.5t-61.5 -16.5t-17.5 -49.5q0 -67 79 -67q32 0 55.5 16t23.5 52z" />
    <glyph glyph-name="eight.fitted" horiz-adv-x="559" 
d="M374 356q133 -23 133 -170q0 -101 -56 -150t-172 -49q-118 0 -172.5 47t-54.5 148q0 139 131 173q-110 29 -110 158q0 175 212 175q107 0 155.5 -40.5t48.5 -132.5q0 -126 -115 -159zM416 507q0 59 -30 87.5t-106 28.5q-75 0 -104.5 -30t-29.5 -90q0 -62 37.5 -90.5
t96.5 -28.5q53 0 94.5 29t41.5 94zM433 187q0 133 -153 133q-154 0 -154 -132q0 -78 40 -107.5t113 -29.5q74 0 114 31t40 105z" />
    <glyph glyph-name="eight.numerator" 
d="M249 481q83 -14 83 -104q0 -121 -147 -121q-77 0 -112 29t-35 91q0 85 83 105q-69 18 -69 95q0 56 33.5 82t102.5 26q70 0 101.5 -25t31.5 -82q0 -76 -72 -96zM274 380q0 74 -89 74q-91 0 -91 -73q0 -44 23.5 -61t67.5 -17q89 0 89 77zM264 570q0 34 -17.5 49.5
t-61.5 15.5t-61.5 -16.5t-17.5 -49.5q0 -67 79 -67q32 0 55.5 16t23.5 52z" />
    <glyph glyph-name="eight.oldstyle" horiz-adv-x="541" 
d="M363 350q128 -23 128 -168q0 -99 -54 -147t-166 -48q-114 0 -167 46t-53 146q0 136 127 170q-106 29 -106 156q0 171 205 171q104 0 150.5 -39.5t46.5 -129.5q0 -126 -111 -157zM404 499q0 58 -29.5 86t-102.5 28t-101 -29.5t-28 -88.5q0 -61 36.5 -89.5t92.5 -28.5
q52 0 92 29t40 93zM420 184q0 130 -148 130q-149 0 -149 -129q0 -77 39 -106t109 -29q71 0 110 30.5t39 103.5z" />
    <glyph glyph-name="eight.taboldstyle" horiz-adv-x="541" 
d="M363 350q128 -23 128 -168q0 -99 -54 -147t-166 -48q-114 0 -167 46t-53 146q0 136 127 170q-106 29 -106 156q0 171 205 171q104 0 150.5 -39.5t46.5 -129.5q0 -126 -111 -157zM404 499q0 58 -29.5 86t-102.5 28t-101 -29.5t-28 -88.5q0 -61 36.5 -89.5t92.5 -28.5
q52 0 92 29t40 93zM420 184q0 130 -148 130q-149 0 -149 -129q0 -77 39 -106t109 -29q71 0 110 30.5t39 103.5z" />
    <glyph glyph-name="emdash.cap" horiz-adv-x="838" 
d="M785 285h-732q-18 0 -18 17v30q0 18 19 18h730q18 0 18 -18v-31q0 -16 -17 -16z" />
    <glyph glyph-name="endash.cap" horiz-adv-x="544" 
d="M491 285h-438q-18 0 -18 17v30q0 18 19 18h436q19 0 19 -18v-31q0 -16 -18 -16z" />
    <glyph glyph-name="estimated.alt" horiz-adv-x="753" 
d="M132 317q1 -80 20.5 -133t59 -80.5t86 -38t112.5 -10.5q113 0 216 33q6 1 13 3.5l11.5 4t8.5 1.5q13 0 16 -12q9 -23 9 -33q0 -15 -23 -23q-121 -42 -260 -42q-185 0 -265.5 82.5t-80.5 265.5t89 268t258 85q90 0 150.5 -23t92 -69t44 -101.5t12.5 -134.5q0 -28 -10 -36
q-8 -7 -30 -7h-529zM132 382h493q1 10 1 36q0 206 -230 206q-132 0 -196 -64t-68 -178z" />
    <glyph glyph-name="exclamdown.cap" horiz-adv-x="284" 
d="M69 657q0 57 56 57q55 0 55 -57q0 -58 -56 -58q-55 0 -55 58zM89 467q0 21 21 21h21q23 0 23 -23q7 -395 7 -439q0 -27 -23 -27h-35q-22 0 -22 25q0 46 8 443z" />
    <glyph glyph-name="five.denominator" 
d="M115 249q57 5 74 5q72 0 102 -27t30 -99q0 -69 -38.5 -102.5t-119.5 -33.5q-67 0 -100 10q-15 5 -15 15q0 1 7 27q5 9 12 9q2 0 6 -1l10 -2.5l10 -2.5q28 -6 71 -6q52 0 75 21t23 64q0 48 -22 63t-71 15q-17 0 -42.5 -2.5t-31.5 -2.5q-29 0 -29 28q0 18 1 32l7 136
q2 17 15 17h194q14 0 14 -12v-26q0 -12 -14 -12h-162z" />
    <glyph glyph-name="five.fitted" horiz-adv-x="542" 
d="M159 404q62 8 118 8q115 0 162.5 -45t47.5 -160q0 -220 -246 -220q-96 0 -154 17q-24 8 -24 23q0 8 10 34q3 12 16 12q1 0 39 -10q44 -10 117 -10q89 0 128 37.5t39 114.5q0 83 -37.5 112.5t-113.5 29.5q-33 0 -78.5 -4.5t-50.5 -4.5q-39 0 -39 42q0 17 2 65l11 205
q2 26 23 26h302q20 0 20 -18v-31q0 -18 -22 -18h-260z" />
    <glyph glyph-name="five.numerator" 
d="M115 513q57 5 74 5q72 0 102 -27t30 -99q0 -69 -38.5 -102.5t-119.5 -33.5q-67 0 -100 10q-15 5 -15 15q0 1 7 27q5 9 12 9q2 0 6 -1l10 -2.5l10 -2.5q28 -6 71 -6q52 0 75 21t23 64q0 48 -22 63t-71 15q-17 0 -42.5 -2.5t-31.5 -2.5q-29 0 -29 28q0 18 1 32l7 136
q2 17 15 17h194q14 0 14 -12v-26q0 -12 -14 -12h-162z" />
    <glyph glyph-name="five.oldstyle" horiz-adv-x="516" 
d="M149 248q64 10 113 10q114 0 161.5 -44t47.5 -157q0 -218 -237 -218q-96 0 -154 17q-24 8 -24 22q0 6 10 34q4 11 16 11q3 0 9.5 -1.5t15 -4t14.5 -3.5q43 -11 117 -11q84 0 121.5 37.5t37.5 114.5q0 83 -35 110.5t-111 27.5q-33 0 -77 -4t-49 -4q-39 0 -39 41q0 16 2 64
l11 200q2 26 22 26h295q20 0 20 -18v-30q0 -18 -21 -18h-256z" />
    <glyph glyph-name="five.taboldstyle" horiz-adv-x="541" 
d="M160 248q64 10 112 10q115 0 162 -44t47 -157q0 -218 -237 -218q-95 0 -153 17q-24 8 -24 22q0 2 9 34q4 11 16 11q4 0 10 -1.5t15 -4t14 -3.5q44 -11 118 -11q83 0 120 37.5t37 114.5q0 83 -34.5 110.5t-110.5 27.5q-33 0 -76.5 -4t-49.5 -4q-38 0 -38 41q0 16 2 64
l10 200q2 26 23 26h295q20 0 20 -18v-30q0 -18 -21 -18h-257z" />
    <glyph glyph-name="florin.denominator" horiz-adv-x="313" 
d="M259 228h-73l-17 -190q-6 -67 -31 -88q-27 -24 -82 -24q-20 0 -38 4q-9 2 -9 12q0 15 4 27q3 8 11 8q2 0 13 -1t18 -1q32 0 42 15q13 21 16 54l16 184h-52q-13 0 -13 11v16q0 12 13 12h56l4 45q5 60 32 85q27 24 80 24q32 0 45 -5q9 -4 9 -12q0 -6 -5 -26q-1 -9 -11 -9
q-2 0 -14 1.5t-21 1.5q-33 0 -44 -16q-11 -13 -15 -53l-4 -36h70q14 0 14 -12v-16q0 -11 -14 -11z" />
    <glyph glyph-name="florin.inferior" horiz-adv-x="313" 
d="M259 102h-73l-17 -190q-6 -67 -31 -88q-27 -24 -82 -24q-20 0 -38 4q-9 2 -9 12q0 15 4 27q3 8 11 8q2 0 13 -1t18 -1q32 0 42 15q13 21 16 54l16 184h-52q-13 0 -13 11v16q0 12 13 12h56l4 45q5 60 32 85q27 24 80 24q32 0 45 -5q9 -4 9 -12q0 -6 -5 -26q-1 -9 -11 -9
q-2 0 -14 1.5t-21 1.5q-33 0 -44 -16q-11 -13 -15 -53l-4 -36h70q14 0 14 -12v-16q0 -11 -14 -11z" />
    <glyph glyph-name="florin.numerator" horiz-adv-x="313" 
d="M259 492h-73l-17 -190q-6 -67 -31 -88q-27 -24 -82 -24q-20 0 -38 4q-9 2 -9 12q0 15 4 27q3 8 11 8q2 0 13 -1t18 -1q32 0 42 15q13 21 16 54l16 184h-52q-13 0 -13 11v16q0 12 13 12h56l4 45q5 60 32 85q27 24 80 24q32 0 45 -5q9 -4 9 -12q0 -6 -5 -26q-1 -9 -11 -9
q-2 0 -14 1.5t-21 1.5q-33 0 -44 -16q-11 -13 -15 -53l-4 -36h70q14 0 14 -12v-16q0 -11 -14 -11z" />
    <glyph glyph-name="florin.oldstyle" horiz-adv-x="432" 
d="M359 334h-109l-24 -277q-9 -104 -45 -140q-39 -38 -113 -38q-35 0 -58 5q-12 3 -12 16q0 8 5 35q3 12 17 12q2 0 18 -2t29 -2q47 0 64 27q18 27 24 94l23 270h-81q-18 0 -18 17v20q0 17 18 17h85l5 49q8 93 50 135q40 37 114 37q44 0 64 -7q12 -4 12 -15t-6 -33
q-3 -14 -17 -14q-2 0 -19.5 2.5t-31.5 2.5q-54 0 -74 -28q-17 -26 -21 -92l-4 -37h105q20 0 20 -17v-20q0 -17 -20 -17z" />
    <glyph glyph-name="florin.superior" horiz-adv-x="313" 
d="M259 648h-73l-17 -190q-6 -67 -31 -88q-27 -24 -82 -24q-20 0 -38 4q-9 2 -9 12q0 15 4 27q3 8 11 8q2 0 13 -1t18 -1q32 0 42 15q13 21 16 54l16 184h-52q-13 0 -13 11v16q0 12 13 12h56l4 45q5 60 32 85q27 24 80 24q32 0 45 -5q9 -4 9 -12q0 -6 -5 -26q-1 -9 -11 -9
q-2 0 -14 1.5t-21 1.5q-33 0 -44 -16q-11 -13 -15 -53l-4 -36h70q14 0 14 -12v-16q0 -11 -14 -11z" />
    <glyph glyph-name="four.denominator" 
d="M287 13q0 -14 -14 -14h-27q-13 0 -13 14v90h-172q-29 0 -29 25q0 14 13 40l120 229q8 16 19 16q28 0 33 -1q7 -2 7 -9q0 -6 -5 -16l-124 -233h138v94q0 14 13 14h28q13 0 13 -14v-94h52q15 0 15 -13v-25q0 -13 -15 -13h-52v-90z" />
    <glyph glyph-name="four.fitted" horiz-adv-x="568" 
d="M369 177h-287q-37 0 -37 40q0 21 16 53l196 390q13 25 29 25q20 0 44 -4q8 -3 8 -12q0 -10 -8 -26l-208 -398h247v169q0 23 20 23h33q19 0 19 -22v-170h90q22 0 22 -20v-29q0 -19 -22 -19h-90v-158q0 -21 -20 -21h-32q-20 0 -20 21v158z" />
    <glyph glyph-name="four.numerator" 
d="M287 277q0 -14 -14 -14h-27q-13 0 -13 14v90h-172q-29 0 -29 25q0 14 13 40l120 229q8 16 19 16q28 0 33 -1q7 -2 7 -9q0 -6 -5 -16l-124 -233h138v94q0 14 13 14h28q13 0 13 -14v-94h52q15 0 15 -13v-25q0 -13 -15 -13h-52v-90z" />
    <glyph glyph-name="four.oldstyle" horiz-adv-x="558" 
d="M364 26h-287q-31 0 -31 33q0 17 14 47l196 390q11 25 27 25q26 0 38 -2q13 -2 13 -14q0 -11 -8 -27l-200 -386h238v167q0 22 19 22h32q19 0 19 -21v-168h91q21 0 21 -19v-28q0 -19 -21 -19h-91v-165q0 -21 -20 -21h-31q-19 0 -19 21v165z" />
    <glyph glyph-name="four.taboldstyle" horiz-adv-x="541" 
d="M350 26h-276q-32 0 -32 33q0 17 14 47l196 390q12 25 28 25q27 0 37 -2q13 -2 13 -14q0 -11 -8 -27l-199 -386h227v167q0 22 20 22h31q19 0 19 -21v-168h91q21 0 21 -19v-28q0 -19 -21 -19h-91v-165q0 -21 -20 -21h-30q-20 0 -20 21v165z" />
    <glyph glyph-name="fourfifths" horiz-adv-x="847" 
d="M291 -15q-9 -17 -23 -17q-16 0 -19 2q-6 3 -6 9q0 7 8 23l331 687q11 23 24 23q9 0 19 -2q8 -1 8 -10q0 -8 -9 -26zM302 277q0 -14 -14 -14h-27q-13 0 -13 14v90h-172q-29 0 -29 25q0 14 13 40l120 229q8 16 19 16q28 0 33 -1q7 -2 7 -9q0 -6 -5 -16l-124 -233h138v94
q0 14 13 14h28q13 0 13 -14v-94h52q15 0 15 -13v-25q0 -13 -15 -13h-52v-90zM588 249q57 5 74 5q72 0 102 -27t30 -99q0 -69 -38.5 -102.5t-119.5 -33.5q-68 0 -100 10q-15 5 -15 15q0 1 7 27q4 9 12 9q2 0 6 -1l10 -2.5l10 -2.5q28 -6 71 -6q52 0 75 21t23 64q0 48 -22 63
t-71 15q-17 0 -42.5 -2.5t-31.5 -2.5q-29 0 -29 28q0 18 1 32l7 136q2 17 15 17h194q14 0 14 -12v-26q0 -12 -14 -12h-162z" />
    <glyph glyph-name="grave.cap" horiz-adv-x="197" 
d="M139 772l-149 103q-12 7 -12 20q0 11 16 14q28 4 48 4q17 0 37 -15l128 -103q11 -10 11 -19t-12 -13q-16 -4 -30 -4q-18 0 -37 13z" />
    <glyph glyph-name="guillemotleft.cap" horiz-adv-x="491" 
d="M116 315l129 -163q10 -13 10 -21q0 -10 -10 -13q-17 -3 -37 -3q-14 0 -30 19l-125 153q-13 15 -13 27q0 10 9 22l127 157q17 22 31 22q23 0 39 -3q10 -2 10 -11q0 -7 -12 -24zM310 315l128 -163q10 -13 10 -21q0 -10 -9 -13q-13 -3 -38 -3q-13 0 -29 19l-125 153
q-13 15 -13 27q0 11 8 22l127 157q17 22 32 22q23 0 39 -3q10 -2 10 -11q0 -7 -12 -24z" />
    </font>
</defs>
</svg>
