<?xml version="1.0" standalone="no"?>
<!DOCTYPE svg PUBLIC "-//W3C//DTD SVG 1.1//EN" "http://www.w3.org/Graphics/SVG/1.1/DTD/svg11.dtd" >
<svg>
<metadata>
Created by FontForge 20090622 at Fri May 24 10:03:13 2019
 By deploy user
Copyright (c) 2015 by Dieter Hofrichter. All rights reserved.
</metadata>
<defs>
<font id="Carnas-ExtraLight" horiz-adv-x="379" >
  <font-face 
    font-family="Carnas ExtraLight"
    font-weight="200"
    font-stretch="normal"
    units-per-em="1000"
    panose-1="2 0 5 3 0 0 0 2 0 4"
    ascent="750"
    descent="-250"
    x-height="496"
    cap-height="710"
    bbox="-152 -270 1169 980"
    underline-thickness="50"
    underline-position="-50"
    unicode-range="U+0020-U+FB04"
  />
<missing-glyph horiz-adv-x="501" 
d="M0 0v707h501v-707h-501zM251 399l170 257h-341zM280 354l172 -257v514zM80 50h341l-170 258zM50 611v-514l171 257z" />
    <glyph glyph-name="f_f" unicode="ff" horiz-adv-x="624" 
d="M172 16q0 -19 -16 -19h-23q-17 0 -17 20v428h-67q-16 0 -16 15v20q0 16 16 16h67v52q0 96 36 137q50 54 168 56q19 0 20 -13q1 -8 1 -23t-17 -16q-59 -3 -89.5 -13.5t-45.5 -36.5q-17 -27 -17 -91v-52h256v71q0 98 37 138q49 54 166 56q20 0 21 -13q1 -8 1 -23t-17 -16
q-60 -4 -90 -14t-45 -36q-17 -27 -17 -92v-71h122q16 0 16 -15v-22q0 -14 -17 -14h-121v-429q0 -19 -16 -19h-23q-17 0 -17 20v428h-256v-429z" />
    <glyph glyph-name="fi" unicode="fi" horiz-adv-x="549" 
d="M172 16q0 -19 -16 -19h-23q-17 0 -17 20v428h-67q-16 0 -16 15v20q0 16 16 16h67v71q0 97 36 138q49 54 165 56q19 0 20 -13q2 -16 2 -23q0 -15 -17 -16q-57 -3 -87.5 -13.5t-45.5 -36.5q-17 -27 -17 -92v-71h269q19 0 19 -20v-460q0 -19 -18 -19h-21q-18 0 -18 19v429
h-231v-429zM471 664q0 -44 -40 -44q-41 0 -41 43t41 43q20 0 30 -9t10 -33z" />
    <glyph glyph-name="fl" unicode="fl" horiz-adv-x="562" 
d="M172 16q0 -19 -16 -19h-23q-17 0 -17 20v428h-67q-16 0 -16 15v20q0 16 16 16h67v55q0 101 50 146q28 26 72.5 39.5t134.5 13.5q35 0 65 -4q19 -3 19 -23v-598q0 -41 13 -58q16 -18 54 -22q15 -1 15 -15q0 -16 -3 -24q-4 -9 -18 -9q-77 0 -104 47q-14 24 -14 75v577
q-24 2 -53 2q-63 0 -95 -10.5t-50 -31.5q-30 -34 -30 -104v-56h122q16 0 16 -15v-22q0 -14 -17 -14h-121v-429z" />
    <glyph glyph-name="f_f_i" unicode="ffi" horiz-adv-x="861" 
d="M172 16q0 -19 -16 -19h-23q-17 0 -17 20v428h-67q-16 0 -16 15v20q0 16 16 16h67v52q0 96 36 137q50 54 168 56q19 0 20 -13q1 -8 1 -23t-17 -16q-59 -3 -89.5 -13.5t-45.5 -36.5q-17 -27 -17 -91v-52h256v71q0 98 37 138q49 54 164 56q18 0 21 -13q1 -8 1 -23t-17 -16
q-59 -4 -88.5 -14t-44.5 -36q-17 -27 -17 -92v-71h269q19 0 19 -20v-460q0 -19 -17 -19h-22q-17 0 -17 19v429h-232v-429q0 -19 -16 -19h-23q-17 0 -17 20v428h-256v-429zM783 664q0 -44 -40 -44q-41 0 -41 43t41 43q20 0 30 -9t10 -33z" />
    <glyph glyph-name="f_f_l" unicode="ffl" horiz-adv-x="874" 
d="M172 16q0 -19 -16 -19h-23q-17 0 -17 20v428h-67q-16 0 -16 15v20q0 16 16 16h67v52q0 96 36 137q50 54 167 56q20 0 21 -13q1 -8 1 -23t-17 -16q-60 -4 -90 -14t-45 -36q-17 -27 -17 -91v-52h256v55q0 101 50 146q28 26 72.5 39.5t134.5 13.5q36 0 64 -4q20 -3 20 -23
v-598q0 -41 14 -58q14 -18 53 -22q15 -1 15 -15q0 -16 -3 -24q-3 -9 -18 -9q-77 0 -104 47q-13 23 -13 75v577q-24 2 -54 2q-108 0 -145 -42q-30 -32 -30 -104v-56h122q16 0 16 -15v-22q0 -14 -17 -14h-121v-429q0 -19 -16 -19h-23q-17 0 -17 20v428h-256v-429z" />
    <glyph glyph-name="T_h" unicode="Th" horiz-adv-x="1113" 
d="M313 17q0 -20 -18 -20h-25q-17 0 -17 20v634h-209q-19 0 -19 17v21q0 17 19 17h590v27q0 19 15 19h26q15 0 15 -19v-267q54 42 190 42q64 0 94 -14.5t42 -45.5q9 -25 9 -98v-334q0 -19 -17 -19h-22q-18 0 -18 19v326q0 55 -7 73q-8 21 -28.5 31t-67.5 10q-96 0 -152 -27
q-12 -7 -18 -17q-5 -10 -5 -30v-366q0 -19 -17 -19h-22q-17 0 -17 19v635h-321v-634z" />
    <glyph glyph-name="Tcaron_h" unicode="&#x164;h" horiz-adv-x="1110" 
d="M313 17q0 -20 -18 -20h-25q-17 0 -17 20v634h-209q-19 0 -19 17v21q0 17 19 17h590v27q0 19 15 19h26q15 0 15 -19v-267q54 42 190 42q64 0 94 -14.5t42 -45.5q9 -25 9 -98v-334q0 -19 -17 -19h-22q-18 0 -18 19v326q0 55 -7 73q-8 21 -28.5 31t-67.5 10q-96 0 -152 -27
q-12 -7 -18 -17q-5 -10 -5 -30v-366q0 -19 -17 -19h-22q-17 0 -17 19v635h-321v-634zM401 910q12 0 21 -3q10 -3 10 -11q0 -7 -9 -16l-104 -99q-16 -16 -29 -16h-20q-14 0 -27 13l-107 104q-6 4 -6 12q0 10 10 13t23 3q12 0 28 -13l91 -75l89 74q17 14 30 14z" />
    <glyph glyph-name="f_b" unicode="fb" horiz-adv-x="866" 
d="M172 16q0 -19 -16 -19h-23q-17 0 -17 20v428h-67q-16 0 -16 15v20q0 16 16 16h67v55q0 101 50 146q28 26 72.5 39.5t134.5 13.5q35 0 65 -4q19 -3 19 -23v-261q55 46 179 46q90 0 132 -60t42 -195q0 -156 -54 -211t-179 -55q-81 0 -136 20q-23 8 -33 24q-8 12 -8 46v619
q-24 2 -53 2q-63 0 -95 -10.5t-50 -31.5q-30 -34 -30 -104v-56h122q16 0 16 -15v-22q0 -14 -17 -14h-121v-429zM457 89q0 -19 6 -26q6 -9 23 -14q46 -11 93 -11q106 0 139.5 45t33.5 163q0 113 -26 161t-109 48q-97 0 -141 -29q-12 -8 -16 -15q-3 -7 -3 -22v-300z" />
    <glyph glyph-name="f_f_b" unicode="ffb" horiz-adv-x="1178" 
d="M172 16q0 -19 -16 -19h-23q-17 0 -17 20v428h-67q-16 0 -16 15v20q0 16 16 16h67v52q0 96 36 137q50 54 167 56q19 0 20 -13q2 -14 2 -23q0 -15 -17 -16q-60 -4 -90 -14t-45 -36q-17 -27 -17 -91v-52h256v55q0 101 50 146q28 26 72.5 39.5t134.5 13.5q36 0 64 -4
q20 -3 20 -23v-261q56 46 179 46q90 0 132 -60t42 -195q0 -156 -54 -211t-179 -55q-82 0 -135 20q-24 8 -34 24q-7 13 -7 46v619q-26 2 -54 2q-108 0 -145 -42q-30 -32 -30 -104v-56h122q16 0 16 -15v-22q0 -14 -17 -14h-121v-429q0 -19 -16 -19h-23q-17 0 -17 20v428h-256
v-429zM769 89q0 -19 6 -26q6 -9 23 -14q46 -11 93 -11q106 0 140 45t34 163q0 113 -26 161t-109 48q-99 0 -142 -29q-12 -8 -16 -15q-3 -7 -3 -22v-300z" />
    <glyph glyph-name="f_f_h" unicode="ffh" horiz-adv-x="1192" 
d="M172 16q0 -19 -16 -19h-23q-17 0 -17 20v428h-67q-16 0 -16 15v20q0 16 16 16h67v52q0 96 36 137q50 54 168 56q19 0 20 -13q1 -8 1 -23t-17 -16q-60 -4 -90 -14t-45 -36q-17 -27 -17 -91v-52h256v55q0 101 50 146q28 26 72.5 39.5t134.5 13.5q36 0 64 -4q20 -3 20 -23
v-257q28 22 83 32t106 10q65 0 95 -14.5t42 -45.5q9 -25 9 -98v-334q0 -19 -17 -19h-22q-18 0 -18 19v326q0 50 -7 73q-8 22 -28.5 31.5t-68.5 9.5q-95 0 -151 -27q-11 -6 -17 -17q-6 -12 -6 -30v-366q0 -19 -17 -19h-22q-17 0 -17 19v680q-24 2 -54 2q-108 0 -145 -42
q-30 -32 -30 -104v-56h122q16 0 16 -15v-22q0 -14 -17 -14h-121v-429q0 -19 -16 -19h-23q-17 0 -17 20v428h-256v-429z" />
    <glyph glyph-name="f_f_j" unicode="ffj" horiz-adv-x="860" 
d="M172 16q0 -19 -16 -19h-23q-17 0 -17 20v428h-67q-16 0 -16 15v20q0 16 16 16h67v52q0 96 36 137q50 54 168 56q19 0 20 -13q1 -8 1 -23t-17 -16q-60 -4 -90 -14t-45 -36q-17 -27 -17 -91v-52h256v71q0 98 37 138q49 54 164 56q20 0 21 -13q1 -8 1 -23t-17 -16
q-58 -4 -88 -14t-45 -36q-17 -27 -17 -92v-71h269q19 0 19 -20v-533q0 -89 -38 -125q-22 -22 -63.5 -37t-71.5 -15q-13 0 -16 11q-3 18 -3 21q0 15 20 18q56 10 86 33q30 25 30 93v503h-232v-429q0 -19 -16 -19h-23q-17 0 -17 20v428h-256v-429zM783 664q0 -44 -40 -44
q-41 0 -41 43t41 43q20 0 30 -9t10 -33z" />
    <glyph glyph-name="f_f_k" unicode="ffk" horiz-adv-x="1126" 
d="M172 16q0 -19 -16 -19h-23q-17 0 -17 20v428h-67q-16 0 -16 15v20q0 16 16 16h67v52q0 96 36 137q50 54 167 56q17 0 20 -13q2 -12 2 -23q0 -15 -17 -16q-60 -4 -90 -14t-45 -36q-17 -27 -17 -91v-52h256v55q0 101 50 146q28 26 72.5 39.5t134.5 13.5q36 0 64 -4
q20 -3 20 -23v-422h70q31 0 45 17l139 167q11 14 27 14q21 0 23 -1q14 0 14 -11q0 -9 -10 -21l-161 -187l191 -245q12 -15 12 -23q0 -12 -16 -13h-11q-12 -1 -14 -1q-14 0 -26 15l-172 221q-13 18 -38 18h-73v-235q0 -19 -17 -19h-22q-17 0 -17 19v679q-19 3 -54 3
q-108 0 -145 -42q-30 -32 -30 -104v-56h122q16 0 16 -15v-22q0 -14 -17 -14h-121v-429q0 -19 -16 -19h-23q-17 0 -17 20v428h-256v-429z" />
    <glyph glyph-name="f_h" unicode="fh" horiz-adv-x="880" 
d="M172 16q0 -19 -16 -19h-23q-17 0 -17 20v428h-67q-16 0 -16 15v20q0 16 16 16h67v55q0 101 50 146q28 26 72.5 39.5t134.5 13.5q36 0 64 -4q20 -3 20 -23v-257q28 22 83 32t106 10q65 0 95 -14.5t42 -45.5q9 -25 9 -98v-334q0 -19 -18 -19h-21q-18 0 -18 19v326
q0 50 -7 73q-8 22 -29 31.5t-68 9.5q-97 0 -151 -27q-12 -7 -18 -17q-5 -10 -5 -30v-366q0 -19 -18 -19h-21q-18 0 -18 19v680q-22 2 -53 2q-63 0 -95 -10.5t-50 -31.5q-30 -34 -30 -104v-56h122q16 0 16 -15v-22q0 -14 -17 -14h-121v-429z" />
    <glyph glyph-name="f_j" unicode="fj" horiz-adv-x="548" 
d="M172 16q0 -19 -16 -19h-23q-17 0 -17 20v428h-67q-16 0 -16 15v20q0 16 16 16h67v71q0 97 36 138q49 54 165 56q20 0 21 -13q1 -8 1 -23t-17 -16q-59 -4 -88.5 -14t-44.5 -36q-17 -27 -17 -92v-71h269q19 0 19 -20v-533q0 -89 -38 -125q-23 -22 -64 -37t-71 -15
q-13 0 -16 11q-3 18 -3 21q0 15 20 18q56 11 86 33q29 24 29 93v503h-231v-429zM471 664q0 -44 -40 -44q-41 0 -41 43t41 43q20 0 30 -9t10 -33z" />
    <glyph glyph-name="f_k" unicode="fk" horiz-adv-x="814" 
d="M172 16q0 -19 -16 -19h-23q-17 0 -17 20v428h-67q-16 0 -16 15v20q0 16 16 16h67v55q0 101 50 146q28 26 72.5 39.5t134.5 13.5q36 0 64 -4q20 -3 20 -24v-421h70q31 0 44 17l140 167q11 14 27 14q15 0 23 -1q14 -1 14 -11q0 -9 -10 -21l-161 -187l190 -245
q12 -15 12 -23q0 -11 -15 -13q-6 -1 -25 -1q-14 0 -26 15l-172 221q-14 18 -38 18h-73v-235q0 -19 -18 -19h-21q-18 0 -18 19v680q-24 2 -53 2q-109 0 -145 -42q-30 -34 -30 -104v-56h122q16 0 16 -15v-22q0 -14 -17 -14h-121v-429z" />
    <glyph glyph-name="uni0162_h" unicode="&#x162;h" horiz-adv-x="1110" 
d="M293 -64q58 -1 78 -24t20 -64q0 -94 -117 -94q-30 0 -52 5q-13 3 -13 15q0 3 3 18q3 12 16 12q1 0 4.5 -0.5t9 -1.5t7.5 -1q13 -2 27 -2q60 0 60 46q0 25 -13 35.5t-46 10.5h-16q-18 0 -18 15q0 10 5 33l12 60q-7 3 -7 18v634h-209q-19 0 -19 17v21q0 17 19 17h590v27
q0 19 15 19h26q15 0 15 -19v-267q54 42 190 42q64 0 94 -14.5t42 -45.5q9 -25 9 -98v-334q0 -19 -17 -19h-22q-18 0 -18 19v326q0 55 -7 73q-8 21 -28.5 31t-67.5 10q-96 0 -152 -27q-12 -7 -18 -17q-5 -10 -5 -30v-366q0 -19 -17 -19h-22q-17 0 -17 19v635h-321v-634
q0 -16 -10 -19z" />
    <glyph glyph-name="uni021A_h" unicode="&#x21a;h" horiz-adv-x="1110" 
d="M313 17q0 -20 -18 -20h-25q-17 0 -17 20v634h-209q-19 0 -19 17v21q0 17 19 17h590v27q0 19 15 19h26q15 0 15 -19v-267q54 42 190 42q64 0 94 -14.5t42 -45.5q9 -25 9 -98v-334q0 -19 -17 -19h-22q-18 0 -18 19v326q0 55 -7 73q-8 21 -28.5 31t-67.5 10q-96 0 -152 -27
q-12 -7 -18 -17q-5 -10 -5 -30v-366q0 -19 -17 -19h-22q-17 0 -17 19v635h-321v-634zM278 -68h17q20 0 20 -22q0 -105 -65 -170q-10 -10 -18 -10t-16 6q-8 7 -8 14t5 14q41 50 43 144q0 24 22 24z" />
    <glyph glyph-name=".notdef" horiz-adv-x="501" 
d="M0 0v707h501v-707h-501zM251 399l170 257h-341zM280 354l172 -257v514zM80 50h341l-170 258zM50 611v-514l171 257z" />
    <glyph glyph-name=".null" horiz-adv-x="0" 
 />
    <glyph glyph-name="nonmarkingreturn" horiz-adv-x="333" 
 />
    <glyph glyph-name="space" unicode=" " horiz-adv-x="225" 
 />
    <glyph glyph-name="exclam" unicode="!" horiz-adv-x="282" 
d="M204 38q0 -47 -46 -47t-46 47q0 48 46 48t46 -48zM188 229q0 -19 -17 -19h-17q-18 0 -18 20q-7 415 -7 454q0 22 21 22h26q19 0 19 -21q0 -39 -7 -456z" />
    <glyph glyph-name="quotedbl" unicode="&#x22;" horiz-adv-x="340" 
d="M117 479q-1 -20 -16 -20h-13q-17 0 -18 21q-6 138 -6 213q0 23 22 23h18q20 0 20 -22q0 -76 -7 -215zM270 479q-1 -20 -17 -20h-13q-17 0 -18 21q-6 138 -6 213q0 23 22 23h18q20 0 20 -22q0 -76 -6 -215z" />
    <glyph glyph-name="numbersign" unicode="#" horiz-adv-x="597" 
d="M163 2q-3 -18 -18 -18q-16 0 -20 4t-4 12q0 6 2 18l30 205h-93q-16 0 -16 15v25q0 16 17 16h100l18 128h-98q-16 0 -16 14v26q0 15 17 15h105l31 207q4 22 20 22q25 0 25 -14q0 -8 -2 -20l-30 -195h165l31 207q3 22 18 22q16 0 21 -3t5 -11t-2 -20l-29 -195h95
q17 0 17 -16v-25q0 -14 -16 -14h-104l-19 -128h101q17 0 17 -16v-26q0 -14 -16 -14h-111l-32 -221q-3 -18 -19 -18q-24 0 -24 16q0 6 2 18l30 205h-165zM223 407l-19 -128h165l19 128h-165z" />
    <glyph glyph-name="dollar" unicode="$" horiz-adv-x="544" 
d="M304 -86q0 -19 -16 -19h-18q-16 0 -16 19v80q-105 2 -173 33q-15 7 -15 17q0 12 5 25q6 14 18 14q3 0 22 -7q69 -30 149 -30q43 0 74.5 9t48 21.5t26 32t11.5 34.5t2 35q0 23 -3.5 38t-16 32t-40 30.5t-71.5 24.5l-89 22q-62 16 -95 61t-33 106q0 168 180 182v85
q0 18 17 18h18q15 0 15 -18v-83q81 -2 137 -20q15 -6 15 -18q0 -8 -6 -25q-3 -11 -14 -11q-6 0 -22 4q-70 19 -126 19q-90 0 -122.5 -33t-32.5 -95q0 -51 22.5 -80t97.5 -47l79 -20q82 -26 116 -61.5t34 -105.5q0 -169 -178 -187v-82z" />
    <glyph glyph-name="percent" unicode="%" horiz-adv-x="842" 
d="M339 474q0 -126 -34 -172t-117 -46q-79 0 -113 45t-34 168q0 125 38.5 170t114.5 45q54 0 83.5 -15.5t45.5 -61.5t16 -133zM291 474q0 101 -21.5 134.5t-77.5 33.5q-54 0 -78.5 -36t-24.5 -136q0 -104 23 -138t76 -34q57 0 80 34t23 142zM274 -16q-8 -16 -22 -16t-18 2
q-4 3 -4 9q0 8 7 22l331 688q11 22 24 22q12 0 17 -1q8 -1 8 -9q0 -7 -10 -27zM802 210q0 -126 -34 -172t-117 -46q-79 0 -113 45t-34 168q0 125 38.5 170t114.5 45q54 0 83.5 -15.5t45.5 -61.5t16 -133zM754 210q0 101 -21.5 134.5t-77.5 33.5q-54 0 -78.5 -36t-24.5 -136
q0 -104 23 -138t76 -34q57 0 80 34t23 142z" />
    <glyph glyph-name="ampersand" unicode="&#x26;" horiz-adv-x="717" 
d="M547 74q-73 -87 -228 -87q-127 0 -187 52.5t-60 146.5q0 75 39 121.5t127 78.5q-81 81 -81 160q0 76 44 121.5t140 45.5q68 0 111 -12q25 -6 25 -19q0 -12 -7 -29q-4 -10 -13 -10q-4 0 -9 1t-13 3t-13 3q-39 9 -84 9q-72 0 -97.5 -30t-25.5 -80q0 -35 18.5 -67t60.5 -75
l244 -243q25 50 25 135q0 18 -1.5 37.5t-1.5 20.5q0 15 10 18t29 3q9 0 12.5 -4t5.5 -14q3 -18 3 -50q0 -119 -41 -189q56 -54 87 -81q15 -14 15 -22q0 -10 -10 -14q-12 -7 -30 -7q-13 0 -31 15q-40 37 -63 62zM508 114q-164 156 -237 233q-72 -24 -104.5 -60t-32.5 -99
q0 -70 46 -109t142 -39q130 0 186 74z" />
    <glyph glyph-name="quotesingle" unicode="'" horiz-adv-x="188" 
d="M117 479q-1 -20 -16 -20h-13q-17 0 -18 21q-6 138 -6 213q0 23 22 23h18q20 0 20 -22q0 -76 -7 -215z" />
    <glyph glyph-name="parenleft" unicode="(" horiz-adv-x="309" 
d="M119 313q0 -67 6.5 -122.5t22 -98t29 -72t39 -58.5t39.5 -42.5t43 -38.5q6 -6 6 -12q0 -3 -9 -16q-5 -7 -14 -7q-7 0 -19 8q-201 128 -201 458q0 313 199 446q14 8 20 8q7 0 15 -11q7 -9 7 -14q0 -6 -6 -10q-82 -60 -129.5 -156t-47.5 -262z" />
    <glyph glyph-name="parenright" unicode=")" horiz-adv-x="309" 
d="M190 298q0 79 -11.5 143.5t-27 105.5t-43.5 79.5t-46.5 57.5t-51.5 47q-6 6 -6 11t9 16q5 8 13 8t20 -8q201 -128 201 -458q0 -313 -199 -446q-14 -8 -20 -8q-7 0 -15 11q-7 9 -7 14q0 6 6 10q82 60 130 156t48 261z" />
    <glyph glyph-name="asterisk" unicode="*" horiz-adv-x="407" 
d="M201 472q-26 -40 -77 -111q-6 -8 -13 -8t-23 12q-8 7 -8 15q0 5 6 13q29 39 83 106q-20 5 -127 36q-15 6 -15 16q0 8 6 23q6 12 16 12q4 0 16 -3q100 -36 118 -43q-5 107 -5 131q0 12 4.5 17.5t21.5 5.5q15 0 19.5 -5t4.5 -18q0 -65 -3 -132q60 24 119 44q12 3 18 3
q9 0 13 -11q5 -15 5 -22q0 -11 -14 -16l-131 -39l85 -106q5 -7 5 -13q0 -7 -9 -14q-16 -11 -22 -11q-8 0 -14 8q-30 39 -79 110z" />
    <glyph glyph-name="plus" unicode="+" horiz-adv-x="701" 
d="M375 51q0 -16 -15 -16h-20q-15 0 -15 16v218h-220q-15 0 -15 17v18q0 17 15 17h219v216q0 17 16 17h20q15 0 15 -17v-216h220q16 0 16 -17v-18q0 -17 -16 -17h-220v-218z" />
    <glyph glyph-name="comma" unicode="," horiz-adv-x="210" 
d="M115 96h22q20 0 20 -22q0 -61 -23.5 -122t-66.5 -103q-12 -12 -20 -12t-18 8q-10 9 -10 16t7 16q62 69 66 192q0 27 23 27z" />
    <glyph glyph-name="hyphen" unicode="-" horiz-adv-x="298" 
d="M246 239h-193q-17 0 -17 15v25q0 16 17 16h192q17 0 17 -16v-25q0 -15 -16 -15z" />
    <glyph glyph-name="period" unicode="." horiz-adv-x="210" 
d="M151 38q0 -47 -46 -47t-46 47q0 25 13 36.5t33 11.5q21 0 33.5 -10t12.5 -38z" />
    <glyph glyph-name="slash" unicode="/" horiz-adv-x="375" 
d="M66 -82q-6 -18 -21 -18q-16 0 -24 3q-7 2 -7 11q0 6 4 17l287 797q8 23 22 23q16 0 25 -3q8 -3 8 -9q0 -10 -6 -26z" />
    <glyph glyph-name="zero" unicode="0" horiz-adv-x="553" 
d="M508 345q0 -107 -13 -177t-43 -110t-72 -55.5t-106 -15.5q-82 0 -129.5 28.5t-73.5 105.5t-26 215q0 107 17 179t51 108.5t74 50.5t96 14q85 0 130.5 -25t70 -100t24.5 -218zM448 344q0 119 -17.5 182t-52 86t-98.5 23q-60 0 -96.5 -23t-57.5 -90t-21 -185
q0 -75 7 -127.5t20 -85.5t35 -51.5t47 -25.5t61 -7q48 0 78 11t53 43.5t32.5 93t9.5 156.5z" />
    <glyph glyph-name="one" unicode="1" horiz-adv-x="553" 
d="M423 0h-259q-16 0 -16 17v20q0 17 16 17h108v557l-110 -44q-14 -6 -20 -6q-8 0 -11 8q-10 23 -10 28q0 10 11 15l128 54q24 10 39 10h4q28 0 28 -31v-591h92q17 0 17 -16v-22q0 -16 -17 -16z" />
    <glyph glyph-name="two" unicode="2" horiz-adv-x="553" 
d="M459 0h-378q-28 0 -39 8.5t-11 32.5q0 28 22 47q194 158 274 236q82 80 82 163q0 70 -34.5 109t-123.5 39q-60 0 -121 -22q-28 -10 -33 -10q-10 0 -13 10q-7 21 -7 23q0 13 23 22q81 30 159 30q116 0 163 -51t47 -142q0 -106 -91 -197q-83 -83 -287 -245q59 1 368 1
q19 0 19 -16v-21q0 -17 -19 -17z" />
    <glyph glyph-name="three" unicode="3" horiz-adv-x="553" 
d="M321 357q64 -3 104.5 -46.5t40.5 -119.5q0 -105 -58.5 -154.5t-176.5 -49.5q-95 0 -147 17q-24 8 -24 21q0 10 8 28q4 9 14 9q4 0 32 -8q45 -14 117 -14q45 0 77.5 8.5t51 22t29 34t14 39.5t3.5 44q0 70 -41.5 104t-149.5 35q-14 0 -20 5.5t-6 21.5q0 27 28 27
q98 1 135.5 33.5t37.5 90.5q0 71 -33.5 100.5t-119.5 29.5q-50 0 -109 -18q-5 -2 -12 -4.5l-11.5 -4t-8.5 -1.5q-9 0 -12 8q-8 18 -8 25q0 8 4.5 12.5t18.5 9.5q68 26 147 26q116 0 160 -43t44 -138q0 -60 -36 -99.5t-93 -50.5z" />
    <glyph glyph-name="four" unicode="4" horiz-adv-x="553" 
d="M365 184h-291q-30 0 -30 31q0 17 15 48l203 399q11 24 25 24q20 0 32 -3q8 -3 8 -11q0 -10 -8 -26l-213 -408h259v183q0 20 18 20h23q17 0 17 -19v-184h99q19 0 19 -17v-21q0 -16 -19 -16h-99v-167q0 -20 -18 -20h-22q-18 0 -18 20v167z" />
    <glyph glyph-name="five" unicode="5" horiz-adv-x="553" 
d="M152 401q65 9 124 9q114 0 161 -46.5t47 -158.5q0 -218 -240 -218q-94 0 -151 17q-23 7 -23 21q0 6 7 27q3 10 15 10q2 0 39 -10q42 -12 118 -12q92 0 133.5 41t41.5 123q0 89 -39.5 121t-121.5 32q-32 0 -78.5 -5t-49.5 -5q-35 0 -35 37t1 58l11 209q1 25 21 25h297
q18 0 18 -17v-21q0 -16 -19 -16h-266z" />
    <glyph glyph-name="six" unicode="6" horiz-adv-x="553" 
d="M119 351q20 29 70.5 50t117.5 21q102 0 150 -50.5t48 -161.5q0 -106 -55 -164.5t-168 -58.5q-105 0 -163.5 69t-58.5 235q0 79 5.5 133.5t22 108t46 85t80.5 51t122 19.5q76 0 116 -14q9 -3 9 -14t-6 -29q-2 -9 -11 -9q-4 0 -13 2t-11 2q-45 9 -81 9q-40 0 -71 -6.5
t-53 -17t-38 -31t-25.5 -40t-16 -53.5t-9.5 -62t-7 -74zM120 262q0 -40 4 -71q22 -150 163 -150q82 0 120.5 42.5t38.5 129.5q0 156 -145 156q-129 0 -172 -65q-9 -13 -9 -42z" />
    <glyph glyph-name="seven" unicode="7" horiz-adv-x="553" 
d="M427 624q-12 0 -123.5 -0.5t-233.5 -0.5q-19 0 -19 16v20q0 17 19 17h379q41 0 41 -32q0 -16 -13 -48l-230 -578q-10 -25 -25 -25q-18 0 -29 4q-12 4 -12 14q0 9 9 29z" />
    <glyph glyph-name="eight" unicode="8" horiz-adv-x="553" 
d="M366 356q64 -11 98.5 -54t34.5 -118q0 -197 -222 -197q-115 0 -169 46.5t-54 148.5q0 138 132 173q-110 31 -110 160q0 173 206 173q105 0 151.5 -40t46.5 -132q0 -127 -114 -160zM440 185q0 142 -163 142q-164 0 -164 -141q0 -84 43 -115t120 -31q78 0 121 33t43 112z
M422 511q0 63 -32.5 93.5t-112.5 30.5t-111 -32t-31 -96q0 -67 41 -97.5t101 -30.5q56 0 100.5 31t44.5 101z" />
    <glyph glyph-name="nine" unicode="9" horiz-adv-x="553" 
d="M434 317q-50 -60 -185 -60q-102 0 -150 49.5t-48 159.5q0 105 57 163.5t170 58.5q106 0 160.5 -66t54.5 -236q0 -79 -5 -133.5t-21.5 -108.5t-45.5 -86t-79.5 -51.5t-122.5 -19.5q-82 0 -127 15q-9 4 -9 16q0 13 6 28q5 9 11 9q3 0 24 -3q54 -12 95 -12t72.5 8t53 19
t37 33t24 40.5t14.5 53t8.5 57.5t5.5 66zM434 408q0 52 -6 86q-10 64 -44 102t-111 38q-164 0 -164 -171q0 -74 33.5 -113.5t112.5 -39.5q62 0 109 17.5t59 37.5q11 18 11 43z" />
    <glyph glyph-name="colon" unicode=":" horiz-adv-x="230" 
d="M171 38q0 -47 -46 -47t-46 47q0 25 13 36.5t33 11.5q21 0 33.5 -10t12.5 -38zM171 449q0 -48 -46 -48t-46 47q0 25 13 36.5t33 11.5q46 0 46 -47z" />
    <glyph glyph-name="semicolon" unicode=";" horiz-adv-x="230" 
d="M172 449q0 -48 -47 -48q-46 0 -46 47q0 48 47 48q46 0 46 -47zM124 96h23q19 0 19 -22q0 -61 -23.5 -122t-65.5 -103q-14 -12 -21 -12q-6 0 -18 8q-10 9 -10 16q0 6 8 16q61 70 65 192q2 27 23 27z" />
    <glyph glyph-name="less" unicode="&#x3c;" horiz-adv-x="701" 
d="M170 294l387 -177q14 -7 14 -21q0 -16 -3 -26q-3 -12 -14 -12q-4 0 -16 6l-411 194q-14 8 -14 26v18q0 17 14 25l415 200q10 4 14 4q8 0 11 -10t3 -25q0 -14 -14 -21z" />
    <glyph glyph-name="equal" unicode="=" horiz-adv-x="701" 
d="M611 189q0 -17 -16 -17h-490q-15 0 -15 17v16q0 17 15 17h490q16 0 16 -17v-16zM611 379q0 -17 -16 -17h-490q-15 0 -15 17v18q0 16 15 16h490q16 0 16 -16v-18z" />
    <glyph glyph-name="greater" unicode="&#x3e;" horiz-adv-x="701" 
d="M531 295l-387 178q-14 5 -14 21q0 14 3 25q3 12 14 12q9 0 16 -5l411 -195q14 -6 14 -25v-19q0 -16 -14 -24l-415 -201q-8 -4 -14 -4q-9 0 -11 10q-3 11 -3 26q0 14 14 21z" />
    <glyph glyph-name="question" unicode="?" horiz-adv-x="399" 
d="M175 210h-16q-15 0 -17 15q-1 24 -1 54q0 51 15.5 79t63.5 59q49 31 67.5 63.5t18.5 81.5q0 103 -117 103q-63 0 -115 -15q-9 -3 -16 -3q-10 0 -13 10q-5 12 -5 24q0 10 11 15q61 23 143 23q173 0 173 -151q0 -63 -20 -98.5t-79 -76.5q-45 -32 -58 -51.5t-16 -61.5
q-2 -23 -2 -55q0 -15 -17 -15zM209 38q0 -47 -46 -47t-46 47q0 25 13 36.5t33 11.5q46 0 46 -48z" />
    <glyph glyph-name="at" unicode="@" horiz-adv-x="804" 
d="M486 110q-48 -53 -133 -53q-129 0 -129 125q0 69 27.5 137.5t74.5 109.5q53 46 145 46q57 0 103 -19q20 -8 20 -27q0 -15 -5 -35l-48 -226q-5 -21 -5 -39q0 -25 23 -25q21 0 46 15q49 32 77.5 100t28.5 142q0 249 -259 249q-154 0 -251 -109.5t-97 -275.5q0 -145 77 -224
t229 -79q118 0 215 35q22 8 27 8q8 0 13 -14q3 -7 3 -13q0 -10 -23 -19q-104 -41 -238 -41q-166 0 -258 88.5t-92 258.5q0 185 109.5 304.5t287.5 119.5q146 0 224.5 -70.5t78.5 -214.5q0 -122 -61.5 -212.5t-151.5 -90.5q-29 0 -43 11t-15 38zM493 178l45 205q4 24 4 25
q0 12 -13 16q-26 8 -65 8q-68 0 -109 -36q-36 -31 -58 -89t-22 -114q0 -48 21.5 -70t71.5 -22q58 0 99 34q9 6 16 16q6 9 10 27z" />
    <glyph glyph-name="A" unicode="A" horiz-adv-x="585" 
d="M149 232l-75 -211q-4 -13 -8.5 -18.5t-13.5 -5.5q-26 0 -34 3q-9 3 -9 12q0 5 7 26l227 631q8 23 19 32t31 9h11q17 0 26.5 -9t17.5 -33l222 -630q7 -21 7 -26q0 -9 -9 -12q-8 -3 -34 -3q-9 0 -13.5 5.5t-9.5 18.5l-75 211h-287zM166 287h253l-125 367z" />
    <glyph glyph-name="B" unicode="B" horiz-adv-x="632" 
d="M296 0h-102q-48 0 -68 20t-20 68v527q0 46 18 68.5t66 22.5h106q50 0 102 -6q77 -7 113 -49t36 -120q0 -67 -25 -105.5t-80 -55.5q128 -30 128 -165q0 -143 -103 -184q-53 -21 -171 -21zM166 341v-245q0 -42 39 -42h98q102 0 135 16q71 31 71 138q0 86 -72 118
q-31 15 -114 15h-157zM166 394h156q79 0 104 12q27 14 43.5 45t16.5 72q0 56 -19.5 81t-55.5 39q-26 10 -108 10h-104q-33 0 -33 -39v-220z" />
    <glyph glyph-name="C" unicode="C" horiz-adv-x="595" 
d="M125 357q0 -57 3.5 -98t16.5 -85t35.5 -71t62.5 -44.5t96 -17.5q80 0 166 23q28 8 33 8q11 0 16 -14q4 -12 4 -21q0 -13 -23 -20q-90 -30 -200 -30q-138 0 -205 80t-67 275q0 202 63.5 289.5t229.5 87.5q97 0 164 -15q24 -6 24 -20q0 -12 -7 -29q-3 -9 -15 -9q-4 0 -32 6
q-54 13 -140 13q-60 0 -102.5 -17t-66 -43t-36.5 -69.5t-16.5 -82.5t-3.5 -96z" />
    <glyph glyph-name="D" unicode="D" horiz-adv-x="699" 
d="M271 0h-80q-47 0 -66 20t-19 66v531q0 48 19 68.5t68 20.5h84q115 0 179 -19q180 -52 180 -326q0 -128 -41.5 -213.5t-142.5 -123.5q-64 -24 -181 -24zM166 97q0 -42 39 -42h78q105 0 157 24q133 60 133 283q0 207 -122 265q-51 25 -170 25h-80q-35 0 -35 -39v-516z" />
    <glyph glyph-name="E" unicode="E" horiz-adv-x="555" 
d="M497 0h-300q-49 0 -70 18.5t-21 71.5v525q0 50 19.5 70.5t70.5 20.5h287q18 0 18 -17v-21q0 -17 -18 -17h-283q-34 0 -34 -38v-218h286q19 0 19 -17v-21q0 -16 -19 -16h-286v-244q0 -42 39 -42h292q19 0 19 -17v-21q0 -17 -19 -17z" />
    <glyph glyph-name="F" unicode="F" horiz-adv-x="528" 
d="M166 18q0 -21 -18 -21h-25q-17 0 -17 20v598q0 49 19 70t68 21h289q18 0 18 -17v-21q0 -17 -18 -17h-281q-35 0 -35 -41v-238h273q19 0 19 -17v-21q0 -17 -19 -17h-273v-299z" />
    <glyph glyph-name="G" unicode="G" horiz-adv-x="661" 
d="M592 77q0 -21 -8 -34q-6 -10 -25 -20q-74 -36 -220 -36q-141 0 -208.5 79.5t-67.5 275.5q0 201 67 289t238 88q99 0 166 -15q23 -5 23 -20q0 -12 -5 -29q-3 -9 -14 -9q-9 0 -34 5q-65 14 -154 14q-58 0 -100 -17.5t-65.5 -45t-37.5 -70t-18 -82.5t-4 -93q0 -55 3 -93.5
t15 -84t34.5 -73t63 -46.5t98.5 -19q99 0 168 19q15 5 20.5 12.5t5.5 24.5v217h-169q-17 0 -17 16v23q0 16 17 16h207q21 0 21 -23v-269z" />
    <glyph glyph-name="H" unicode="H" horiz-adv-x="705" 
d="M166 17q0 -20 -18 -20h-24q-18 0 -18 20v673q0 20 19 20h24q17 0 17 -20v-295h373v295q0 20 19 20h24q17 0 17 -20v-673q0 -20 -18 -20h-24q-18 0 -18 20v324h-373v-324z" />
    <glyph glyph-name="I" unicode="I" horiz-adv-x="272" 
d="M166 17q0 -20 -18 -20h-24q-18 0 -18 20v673q0 20 19 20h24q17 0 17 -20v-673z" />
    <glyph glyph-name="J" unicode="J" horiz-adv-x="302" 
d="M196 44q0 -94 -44 -132q-25 -21 -70.5 -39.5t-67.5 -18.5q-14 0 -18 11q-4 12 -4 24q0 15 20 19q60 13 88 34q36 26 36 101v647q0 20 19 20h24q17 0 17 -20v-646z" />
    <glyph glyph-name="K" unicode="K" horiz-adv-x="601" 
d="M166 17q0 -20 -18 -20h-24q-18 0 -18 20v673q0 20 19 20h24q17 0 17 -20v-296h88q31 0 44 17l209 283q11 15 27 15q22 0 30 -1q11 -1 11 -12q0 -8 -10 -22l-233 -305l250 -334q12 -16 12 -23q0 -10 -10 -12q-11 -2 -35 -2q-14 0 -26 15l-231 311q-13 17 -38 17h-88v-324z
" />
    <glyph glyph-name="L" unicode="L" horiz-adv-x="541" 
d="M496 0h-301q-49 0 -69 19.5t-20 66.5v604q0 20 19 20h24q17 0 17 -20v-594q0 -41 39 -41h291q19 0 19 -17v-21q0 -17 -19 -17z" />
    <glyph glyph-name="M" unicode="M" horiz-adv-x="821" 
d="M165 17q0 -20 -18 -20h-24q-17 0 -17 20v638q0 55 44 55h14q22 0 31.5 -10t22.5 -40q154 -340 194 -437q30 75 191 436q8 18 13.5 27t16 16.5t25.5 7.5h14q26 0 34.5 -11.5t8.5 -42.5v-639q0 -20 -18 -20h-23q-17 0 -17 20q0 510 3 637q-34 -80 -210 -470
q-14 -30 -34 -30h-10q-21 0 -35 30q-190 424 -209 470q3 -133 3 -637z" />
    <glyph glyph-name="N" unicode="N" horiz-adv-x="711" 
d="M165 17q0 -20 -19 -20h-22q-18 0 -18 20v646q0 25 9.5 36t30.5 11h15q17 0 26 -7.5t21 -27.5q260 -454 340 -608q-2 75 -2 621q0 21 20 21h22q17 0 17 -20v-655q0 -39 -35 -39h-16q-17 0 -26 7.5t-21 27.5q-285 499 -344 611q2 -192 2 -624z" />
    <glyph glyph-name="O" unicode="O" horiz-adv-x="690" 
d="M627 358q0 -109 -17 -181.5t-54 -114t-88 -58.5t-127 -17q-74 0 -123.5 16.5t-85.5 58t-52.5 114t-16.5 181.5t21 182.5t61.5 111.5t88.5 53t115 15q60 0 101 -8t77 -30.5t56.5 -62.5t32 -104t11.5 -156zM564 357q0 99 -11.5 159.5t-39.5 93.5t-66 44t-101 11
q-57 0 -95 -12.5t-68 -45.5t-44 -94t-14 -155q0 -100 13.5 -163.5t43 -96.5t66.5 -45t95 -12q57 0 93.5 11t68 43.5t45.5 96.5t14 165z" />
    <glyph glyph-name="P" unicode="P" horiz-adv-x="617" 
d="M166 17q0 -20 -19 -20h-23q-18 0 -18 20v601q0 45 18 66.5t66 21.5h89q116 0 172 -22q102 -41 102 -178q0 -149 -132 -187q-49 -14 -137 -14h-118v-288zM166 358h124q90 0 131 18q70 30 70 127q0 102 -70 132q-37 17 -139 17h-80q-19 0 -27.5 -8.5t-8.5 -31.5v-254z" />
    <glyph glyph-name="Q" unicode="Q" horiz-adv-x="690" 
d="M627 358q0 -255 -106 -328l149 -98q9 -7 9 -14t-16 -32q-5 -8 -13 -8q-6 0 -13 4l-179 119q-48 -14 -117 -14q-74 0 -123.5 16.5t-85.5 58t-52.5 114t-16.5 181.5t21 182.5t61.5 111.5t88.5 53t115 15q60 0 101 -8t77 -30.5t56.5 -62.5t32 -104t11.5 -156zM564 357
q0 99 -11.5 159.5t-39.5 93.5t-66 44t-101 11q-57 0 -95 -12.5t-68 -45.5t-44 -94t-14 -155q0 -100 13.5 -163.5t43 -96.5t66.5 -45t95 -12q57 0 93.5 11t68 43.5t45.5 96.5t14 165z" />
    <glyph glyph-name="R" unicode="R" horiz-adv-x="618" 
d="M166 17q0 -20 -19 -20h-23q-18 0 -18 20v600q0 46 18.5 67.5t66.5 21.5h79q122 0 173 -20q55 -22 78 -64t23 -108q0 -148 -132 -186l-11 -3l166 -290q9 -18 9 -23q0 -10 -9 -12q-9 -3 -34 -3q-14 0 -25 20l-167 299q-40 -2 -65 -2h-110v-297zM166 367h114q85 0 132 19
q70 29 70 125q0 57 -17.5 84t-50.5 41q-36 16 -138 16h-70q-22 0 -31 -9.5t-9 -30.5v-245z" />
    <glyph glyph-name="S" unicode="S" horiz-adv-x="559" 
d="M343 366q90 -27 125.5 -65t35.5 -113q0 -97 -56 -149t-185 -52q-110 0 -193 32q-18 7 -18 19q0 10 7 26q5 15 18 15q4 0 25 -8q77 -29 161 -29q59 0 97.5 13t55 36.5t21.5 43.5t5 47q0 23 -4 37.5t-17.5 32.5t-44 34t-78.5 30l-99 29q-67 20 -102 66t-35 110
q0 98 56.5 148t181.5 50q88 0 158 -19q17 -6 17 -19q0 -9 -6 -27q-4 -11 -16 -11q-6 0 -24 4q-67 17 -135 17q-99 0 -135 -35.5t-36 -101.5q0 -49 26 -79t107 -55z" />
    <glyph glyph-name="T" unicode="T" horiz-adv-x="566" 
d="M313 17q0 -20 -18 -20h-25q-17 0 -17 20v634h-209q-19 0 -19 17v21q0 17 19 17h478q19 0 19 -17v-21q0 -17 -19 -17h-209v-634z" />
    <glyph glyph-name="U" unicode="U" horiz-adv-x="690" 
d="M591 691v-409q0 -83 -5 -125.5t-23 -74.5q-53 -96 -221 -96q-84 0 -139 23.5t-82 81.5q-22 46 -22 189v411q0 19 19 19h25q16 0 16 -19v-437q0 -108 23 -146q40 -67 163 -67q129 0 163 63q24 44 24 146v441q0 19 18 19h25q16 0 16 -19z" />
    <glyph glyph-name="V" unicode="V" horiz-adv-x="576" 
d="M287 57l220 628q7 24 23 24q22 0 33 -4q9 -3 9 -12q0 -5 -7 -26l-229 -634q-13 -36 -42 -36h-15q-31 0 -45 37l-223 632q-7 19 -7 27q0 9 9 12q11 4 35 4q9 0 13 -5t9 -19q173 -492 217 -628z" />
    <glyph glyph-name="W" unicode="W" horiz-adv-x="931" 
d="M465 615q-38 -137 -175 -587q-9 -31 -42 -31h-15q-30 0 -38 31l-160 640q-4 15 -4 25q0 11 10 14q8 2 33 2q14 0 19 -18q134 -541 153 -630q27 100 177 587q10 33 38 33h14q27 0 37 -33q145 -483 172 -588q41 178 153 626q6 23 21 23q19 0 31 -2q11 -2 11 -14
q0 -5 -5 -27l-164 -637q-8 -32 -40 -32h-15q-31 0 -40 32z" />
    <glyph glyph-name="X" unicode="X" horiz-adv-x="630" 
d="M95 17q-13 -19 -31 -19q-25 0 -31 2q-7 3 -7 11t13 27l234 327l-213 299q-15 22 -15 30q0 10 10 12q7 2 34 2q13 0 24 -16l202 -287l202 286q13 18 28 18q24 0 31 -2q6 -3 6 -10q0 -10 -10 -26l-218 -307l230 -325q14 -19 14 -27q0 -9 -8 -12q-10 -2 -33 -2q-16 0 -33 23
q-176 247 -213 304z" />
    <glyph glyph-name="Y" unicode="Y" horiz-adv-x="546" 
d="M303 18q0 -21 -18 -21h-24q-18 0 -18 21v293l-226 355q-13 20 -13 29q0 10 12 13q9 2 31 2q14 0 26 -19q147 -231 202 -324q31 55 198 319q14 24 30 24q19 0 29 -2q10 -1 10 -11q0 -9 -11 -26l-228 -359v-294z" />
    <glyph glyph-name="Z" unicode="Z" horiz-adv-x="593" 
d="M542 0h-479q-39 0 -39 37q0 19 14 38l436 576h-395q-21 0 -21 18v18q0 19 21 19h423q43 0 43 -36q0 -22 -16 -43l-435 -572h449q20 0 20 -17v-21q0 -17 -21 -17z" />
    <glyph glyph-name="bracketleft" unicode="[" horiz-adv-x="275" 
d="M134 -99h106q13 0 13 -12v-15q0 -5 -4 -9.5t-9 -4.5h-146q-13 0 -13 15v863q0 14 13 14h146q13 0 13 -11v-17q0 -12 -13 -12h-106v-811z" />
    <glyph glyph-name="backslash" unicode="\" horiz-adv-x="375" 
d="M307 -82l-287 795q-6 16 -6 24t7 11q9 3 26 3q13 0 21 -23l288 -797q4 -11 4 -17q0 -8 -8 -11q-7 -3 -23 -3q-14 0 -22 18z" />
    <glyph glyph-name="bracketright" unicode="]" horiz-adv-x="275" 
d="M141 712h-106q-13 0 -13 11v15q0 5 4 9.5t9 4.5h147q12 0 12 -15v-863q0 -14 -12 -14h-147q-13 0 -13 12v16q0 12 13 12h106v812z" />
    <glyph glyph-name="asciicircum" unicode="^" horiz-adv-x="705" 
d="M352 622q-41 -96 -152 -328q-6 -13 -18 -13q-17 0 -26 3q-12 3 -12 12q0 8 5 15l165 346q9 18 28 18h20q22 0 30 -19l166 -347q4 -10 4 -14q0 -8 -8 -11q-10 -3 -30 -3q-11 0 -17 13q-119 245 -155 328z" />
    <glyph glyph-name="underscore" unicode="_" horiz-adv-x="493" 
d="M0 -77h493v-46h-493v46z" />
    <glyph glyph-name="grave" unicode="`" horiz-adv-x="197" 
d="M135 590l-120 130q-9 9 -9 15q0 11 12 14q11 3 31 3q17 0 29 -14l105 -130q7 -7 7 -15t-9 -11q-8 -3 -22 -3t-24 11z" />
    <glyph glyph-name="a" unicode="a" horiz-adv-x="522" 
d="M434 84q0 -26 -8 -41q-6 -14 -24 -23q-61 -33 -179 -33q-97 0 -133.5 42.5t-36.5 115.5q0 82 58 116q50 28 152 28q76 0 115 -6v56q0 55 -8 74q-8 22 -31.5 33.5t-80.5 11.5q-64 0 -117 -14q-26 -8 -32 -8q-10 0 -12 10q-5 15 -5 25t14 15q74 24 163 24q101 0 135 -35
q18 -18 24 -47t6 -81v-263zM378 236q-40 5 -110 5q-94 0 -130 -24q-29 -18 -29 -71t25.5 -81t97.5 -28q77 0 119 17q15 6 22 18q5 10 5 33v131z" />
    <glyph glyph-name="b" unicode="b" horiz-adv-x="554" 
d="M88 77v653q0 18 18 18h22q17 0 17 -18v-268q56 46 179 46q90 0 132 -60t42 -195q0 -156 -54 -211t-179 -55q-81 0 -136 20q-23 8 -33 24q-8 12 -8 46zM145 89q0 -19 6 -26q6 -9 23 -14q46 -11 93 -11q106 0 139.5 45t33.5 163q0 113 -26 161t-109 48q-98 0 -141 -29
q-12 -8 -16 -15q-3 -7 -3 -22v-300z" />
    <glyph glyph-name="c" unicode="c" horiz-adv-x="458" 
d="M114 251q0 -50 5.5 -85t20.5 -66t45.5 -46.5t77.5 -15.5q58 0 116 14q20 6 24 6q8 0 12 -9q5 -15 5 -22q0 -14 -15 -19q-62 -21 -145 -21q-101 0 -152.5 58t-51.5 196q0 140 52 204.5t173 64.5q65 0 113 -12q17 -4 17 -16q0 -9 -6 -27q-4 -11 -13 -11q-3 0 -7 1t-10 2
t-10 2q-47 9 -89 9q-43 0 -73.5 -11.5t-47.5 -29.5t-26.5 -47t-12 -55.5t-2.5 -63.5z" />
    <glyph glyph-name="d" unicode="d" horiz-adv-x="554" 
d="M466 82q0 -26 -5 -36q-8 -17 -30 -28q-64 -31 -173 -31q-106 0 -154 57.5t-48 193.5q0 154 55 213t179 59q79 0 119 -18v238q0 18 18 18h22q17 0 17 -18v-648zM409 109v298q0 29 -18 37q-34 14 -102 14q-103 0 -139 -48t-36 -167q0 -107 31.5 -156.5t112.5 -49.5
q84 0 126 19q15 7 20 18q5 10 5 35z" />
    <glyph glyph-name="e" unicode="e" horiz-adv-x="512" 
d="M113 234q1 -114 42 -155t129 -41q66 0 117 16q20 6 27 6q9 0 12 -8q7 -14 7 -24q0 -12 -16 -17q-65 -24 -152 -24q-122 0 -173 61t-51 199t55.5 200.5t166.5 62.5q60 0 98 -16.5t56 -52t23.5 -73.5t5.5 -99q0 -23 -7 -30q-5 -5 -20 -5h-320zM114 282h288q1 8 1 27
q0 75 -26.5 112.5t-104.5 37.5q-87 0 -121.5 -45.5t-36.5 -131.5z" />
    <glyph glyph-name="f" unicode="f" horiz-adv-x="313" 
d="M172 16q0 -19 -16 -19h-23q-17 0 -17 20v428h-67q-16 0 -16 15v20q0 16 16 16h67v62q0 97 36 138q49 53 167 55q20 0 21 -13q2 -16 2 -23q0 -15 -17 -16q-59 -3 -90 -13.5t-46 -36.5q-17 -27 -17 -92v-61h122q16 0 16 -15v-22q0 -14 -17 -14h-121v-429z" />
    <glyph glyph-name="g" unicode="g" horiz-adv-x="552" 
d="M404 18q-47 -30 -151 -30q-103 0 -150 57t-47 193q0 153 53.5 212t175.5 59q88 0 150 -18q28 -8 28 -38v-442q0 -76 -16 -123q-39 -122 -297 -122q-19 0 -22 13q-1 7 -1 21q0 18 16 18q120 3 173.5 23t71.5 59q16 33 16 94v24zM407 100v315q0 24 -18 30q-36 12 -107 12
q-101 0 -134.5 -48t-33.5 -165q0 -108 30.5 -156.5t111.5 -48.5q84 0 126 19q18 7 22 19q3 6 3 23z" />
    <glyph glyph-name="h" unicode="h" horiz-adv-x="568" 
d="M145 16q0 -19 -18 -19h-21q-18 0 -18 19v716q0 20 16 20h26q15 0 15 -19v-267q54 42 189 42q64 0 94 -14.5t42 -45.5q10 -24 10 -98v-334q0 -19 -18 -19h-22q-17 0 -17 19v326q0 52 -8 73q-7 21 -28 31t-68 10q-95 0 -151 -27q-12 -7 -18 -17q-5 -10 -5 -30v-366z" />
    <glyph glyph-name="i" unicode="i" horiz-adv-x="233" 
d="M145 16q0 -19 -18 -19h-21q-18 0 -18 19v464q0 19 18 19h22q17 0 17 -19v-464zM156 664q0 -44 -40 -44q-41 0 -41 43t41 43q40 0 40 -42z" />
    <glyph glyph-name="j" unicode="j" horiz-adv-x="233" 
d="M144 480v-537q0 -89 -38 -125q-23 -22 -64 -37t-71 -15q-13 0 -16 11q-3 9 -3 21q0 14 20 18q56 11 86 33q30 25 30 93v538q0 19 17 19h22q17 0 17 -19zM156 664q0 -44 -40 -44q-41 0 -41 43t41 43q20 0 30 -9t10 -33z" />
    <glyph glyph-name="k" unicode="k" horiz-adv-x="502" 
d="M145 16q0 -19 -18 -19h-21q-18 0 -18 19v704q0 19 18 19h22q17 0 17 -19v-419h70q31 0 44 17l140 167q11 14 26 14q23 0 24 -1q14 0 14 -11q0 -9 -10 -21l-161 -187l191 -245q11 -14 11 -22q0 -12 -15 -14q-1 0 -12 -0.5t-13 -0.5q-14 0 -26 15l-172 221q-14 18 -38 18
h-73v-235z" />
    <glyph glyph-name="l" unicode="l" horiz-adv-x="250" 
d="M145 125q0 -41 13 -58q16 -18 54 -22q15 -1 15 -15q0 -16 -3 -24q-3 -9 -18 -9q-77 0 -104 47q-14 24 -14 75v610q0 19 19 19h22q16 0 16 -19v-604z" />
    <glyph glyph-name="m" unicode="m" horiz-adv-x="874" 
d="M145 16q0 -19 -18 -19h-21q-18 0 -18 19v393q0 42 30 56q86 43 207 43q92 0 123 -51q55 51 198 51q62 0 90.5 -14.5t40.5 -45.5q9 -25 9 -98v-334q0 -19 -18 -19h-21q-18 0 -18 19v326q0 50 -7 73q-8 22 -26 31.5t-64 9.5q-80 0 -143 -30q-12 -5 -19 -15q-5 -8 -5 -27
q0 -3 0.5 -19t0.5 -21v-328q0 -19 -17 -19h-22q-18 0 -18 19v330q0 51 -7 69q-8 22 -26 31.5t-64 9.5q-88 0 -142 -26q-14 -7 -19 -16q-6 -10 -6 -32v-366z" />
    <glyph glyph-name="n" unicode="n" horiz-adv-x="568" 
d="M145 16q0 -19 -18 -19h-21q-18 0 -18 19v393q0 41 31 57q84 42 215 42q64 0 94 -14.5t42 -45.5q10 -24 10 -98v-334q0 -19 -18 -19h-22q-17 0 -17 19v326q0 52 -8 73q-7 21 -28 31t-68 10q-90 0 -150 -26q-13 -8 -18 -16q-6 -10 -6 -30v-368z" />
    <glyph glyph-name="o" unicode="o" horiz-adv-x="540" 
d="M484 253q0 -154 -49 -210t-168 -56q-116 0 -163.5 54.5t-47.5 208.5q0 79 15.5 131.5t46 80t67.5 38t89 10.5q47 0 78 -5.5t58 -20.5t42 -43.5t23.5 -74.5t8.5 -113zM426 248q0 90 -16 135t-47 60t-91 15q-82 0 -120 -42t-38 -164q0 -90 17 -137t48 -62t89 -15
q43 0 69 6.5t48 28t31.5 64t9.5 111.5z" />
    <glyph glyph-name="p" unicode="p" horiz-adv-x="554" 
d="M145 -216q0 -18 -18 -18h-22q-17 0 -17 18v618q0 30 5 43q7 15 30 26q76 37 188 37q100 0 143.5 -56.5t43.5 -192.5q0 -109 -26.5 -169t-75 -81.5t-132.5 -21.5q-76 0 -119 21v-224zM145 92q0 -29 18 -37q39 -16 100 -16q106 0 142 45t36 169q0 109 -28 155.5t-111 46.5
q-75 0 -132 -23q-16 -6 -21 -17q-4 -8 -4 -34v-289z" />
    <glyph glyph-name="q" unicode="q" horiz-adv-x="554" 
d="M465 -216q0 -18 -17 -18h-22q-17 0 -17 18v249q-56 -46 -179 -46q-90 0 -132 60.5t-42 195.5q0 81 14 133.5t45.5 82t73 40.5t103.5 11q77 0 132 -19q24 -10 34 -24q7 -13 7 -47v-636zM409 106v301q0 19 -6 28q-6 8 -23 13q-46 11 -90 11q-106 0 -141.5 -46t-35.5 -163
q0 -113 26 -161.5t109 -48.5q96 0 142 29q13 10 16 16t3 21z" />
    <glyph glyph-name="r" unicode="r" horiz-adv-x="356" 
d="M145 16q0 -19 -18 -19h-21q-18 0 -18 19v387q0 35 21 56q18 17 71.5 33t103.5 16q27 0 40 -3q11 -2 11 -12q0 -18 -3 -29q-3 -12 -14 -12q-2 0 -16.5 1t-20.5 1q-71 0 -113 -24q-13 -6 -18 -17q-5 -9 -5 -30v-367z" />
    <glyph glyph-name="s" unicode="s" horiz-adv-x="426" 
d="M236 215l-80 24q-108 32 -108 128q0 142 178 142q76 0 125 -13q17 -5 17 -18q0 -5 -6 -25q-3 -10 -12 -10q-8 0 -17 3q-51 13 -108 13q-71 0 -95 -23t-24 -64q0 -29 18.5 -49.5t74.5 -38.5l70 -22q63 -20 91 -48t28 -83q0 -144 -184 -144q-94 0 -150 23q-13 6 -13 17
q0 7 6 23q5 12 16 12q3 0 18 -5q53 -19 124 -19q77 0 102 25.5t25 65.5q0 30 -18 48t-78 38z" />
    <glyph glyph-name="t" unicode="t" horiz-adv-x="323" 
d="M169 179q0 -67 16 -93q12 -21 38.5 -30.5t78.5 -12.5q16 -1 16 -16t-1 -23q-3 -13 -19 -13q-60 1 -95 11.5t-59 37.5q-32 37 -32 143v262h-67q-16 0 -16 16v19q0 16 17 16h67q0 30 3 117q0 21 15 21h23q15 0 15 -20v-118h119q18 0 18 -15v-19q0 -17 -19 -17h-118v-266z
" />
    <glyph glyph-name="u" unicode="u" horiz-adv-x="568" 
d="M88 159v322q0 18 18 18h22q17 0 17 -18v-316q0 -60 10 -83q17 -43 109 -43q88 0 135 18q13 5 18 14q6 10 6 34v376q0 18 18 18h21q18 0 18 -18v-402q0 -45 -30 -59q-69 -33 -200 -33q-124 0 -149 65q-13 31 -13 107z" />
    <glyph glyph-name="v" unicode="v" horiz-adv-x="455" 
d="M228 56q25 74 158 423q7 21 22 21q12 0 28 -2q12 -3 12 -13q0 -9 -6 -24l-171 -435q-11 -29 -37 -29h-15q-17 0 -24.5 7t-13.5 23l-167 433q-6 15 -6 23q0 12 13 15q14 2 31 2q12 0 19 -20z" />
    <glyph glyph-name="w" unicode="w" horiz-adv-x="725" 
d="M362 409q-12 -47 -120 -381q-6 -18 -15 -24.5t-24 -6.5h-14q-29 0 -38 30l-128 434q-5 15 -5 23q0 13 12 14q16 2 31 2q13 0 19 -23q95 -319 120 -422q47 158 120 383q7 20 15.5 28t23.5 8h9q15 0 23.5 -6.5t15.5 -27.5q107 -312 127 -385q35 137 114 419q4 15 8 20.5
t13 5.5q12 0 30 -2q10 -3 10 -12q0 -5 -6 -29l-122 -426q-10 -34 -37 -34h-16q-28 0 -38 31q-112 330 -128 381z" />
    <glyph glyph-name="x" unicode="x" horiz-adv-x="490" 
d="M243 217l-151 -202q-12 -17 -26 -17q-23 0 -29 1q-9 2 -9 12q0 8 12 23l166 221l-154 207q-12 15 -12 23q0 9 8 11q14 2 36 2q11 0 27 -21q118 -158 135 -184l138 187q13 18 27 18q22 0 32 -2q7 -2 7 -10q0 -7 -12 -24l-155 -206l168 -223q11 -14 11 -21q0 -8 -9 -12
q-6 -2 -31 -2q-16 0 -28 16z" />
    <glyph glyph-name="y" unicode="y" horiz-adv-x="568" 
d="M88 149v332q0 18 18 18h22q17 0 17 -18v-324q0 -53 9 -76q16 -41 102 -41q92 0 142 26q15 9 19 16q6 10 6 31v368q0 18 18 18h21q18 0 18 -18v-471q0 -71 -16 -122q-40 -122 -291 -122q-21 0 -22 13q-2 16 -2 22q0 17 17 17q84 2 135 13.5t72 28t33 42.5q15 35 15 93v31
q-63 -39 -179 -39q-118 0 -142 63q-12 33 -12 99z" />
    <glyph glyph-name="z" unicode="z" horiz-adv-x="472" 
d="M420 0h-348q-41 0 -41 37q0 22 21 47l317 360h-303q-17 0 -17 15v20q0 17 19 17h318q46 0 46 -37q0 -22 -19 -45l-319 -362h326q17 0 17 -16v-22q0 -14 -17 -14z" />
    <glyph glyph-name="braceleft" unicode="{" horiz-adv-x="304" 
d="M92 307q41 -11 63 -41.5t22 -100.5v-161q0 -60 15 -82q20 -27 90 -27q10 0 10 -14v-15q0 -12 -13 -12q-58 0 -88.5 9t-47.5 34q-22 32 -22 108v156q0 64 -20.5 90.5t-66.5 34.5q-11 1 -11 13v12q0 14 11 15q47 8 67 36.5t20 87.5v150q0 75 22 107q34 51 135 51
q14 0 14 -15v-10q0 -15 -13 -15q-72 -4 -90 -35q-12 -23 -12 -77v-153q0 -71 -20.5 -100t-64.5 -46z" />
    <glyph glyph-name="bar" unicode="|" horiz-adv-x="214" 
d="M133 -130q0 -19 -18 -19h-17q-17 0 -17 19v868q0 19 18 19h18q16 0 16 -19v-868z" />
    <glyph glyph-name="braceright" unicode="}" horiz-adv-x="304" 
d="M210 305q-41 11 -63 41.5t-22 100.5v161q0 60 -15 82q-19 27 -90 27q-9 0 -9 14v15q0 12 12 12q58 0 89 -9t48 -34q22 -32 22 -108v-156q0 -64 20 -90.5t67 -34.5q11 -1 11 -13v-12q0 -13 -11 -15q-47 -8 -67 -36.5t-20 -87.5v-150q0 -74 -23 -107q-34 -51 -135 -51
q-13 0 -13 15v10q0 15 12 15q73 4 90 35q12 23 12 77v153q0 71 20.5 100t64.5 46z" />
    <glyph glyph-name="asciitilde" unicode="~" horiz-adv-x="701" 
d="M135 249q-8 -9 -13 -9q-10 0 -20 10q-8 6 -8 14q0 7 5 14q39 48 72 67t72 19q42 0 121 -47q61 -35 98 -35q54 0 101 67q8 11 15 11q9 0 19 -9q9 -6 9 -15q0 -6 -7 -18q-32 -45 -63.5 -66.5t-74.5 -21.5q-48 0 -118 41q-72 40 -105 40q-30 0 -52 -13t-51 -49z" />
    <glyph glyph-name="exclamdown" unicode="&#xa1;" horiz-adv-x="281" 
d="M77 461q0 47 47 47q46 0 46 -47q0 -48 -47 -48q-46 0 -46 48zM93 271q0 18 17 18h17q18 0 18 -20q7 -415 7 -454q0 -22 -20 -22h-27q-19 0 -19 22q0 38 7 456z" />
    <glyph glyph-name="cent" unicode="&#xa2;" horiz-adv-x="499" 
d="M314 -86q0 -19 -16 -19h-18q-16 0 -16 19v81q-93 4 -139 61.5t-46 190.5q0 125 43 186t142 71v78q0 19 17 19h18q15 0 15 -19v-76q60 -1 105 -11q17 -4 17 -17q0 -14 -5 -26q-4 -9 -12 -9q-9 0 -23 3q-43 9 -93 9q-53 0 -87.5 -15t-50 -44.5t-21 -61t-5.5 -77.5
q0 -47 5 -80.5t19 -66t44 -49t75 -16.5q60 0 118 13q28 7 29 7q8 0 12 -10q5 -13 5 -22q0 -13 -15 -18q-45 -16 -117 -20v-81z" />
    <glyph glyph-name="sterling" unicode="&#xa3;" horiz-adv-x="593" 
d="M541 0h-429q-16 0 -16 14v25q0 15 17 15h60v233h-72q-19 0 -19 15v20q0 16 19 16h72v145q0 92 32 135q28 38 69.5 54t110.5 16q83 0 144 -16q17 -4 17 -17q0 -11 -6 -29q-4 -10 -16 -10q-6 0 -24 4q-66 14 -119 14q-49 0 -76.5 -9t-46.5 -31q-26 -30 -26 -111v-145h193
q19 0 19 -16v-20q0 -15 -19 -15h-193v-233h308q17 0 17 -16v-24q0 -14 -16 -14z" />
    <glyph glyph-name="currency" unicode="&#xa4;" horiz-adv-x="540" 
d="M465 125q-6 -6 -12 -6q-5 0 -13 6l-53 51q-51 -39 -118 -39t-120 39l-49 -51q-7 -7 -13 -7q-9 0 -14 6l-8 9q-7 7 -7 13t7 13l52 53q-40 53 -40 120q0 65 40 118l-52 53q-7 7 -7 12q0 6 8 14l8 8q7 7 12 7t12 -7l52 -52q51 41 119 41q71 0 117 -40l53 51q9 7 12 7
q6 0 13 -7l8 -8q6 -6 6 -13q0 -6 -6 -12l-52 -53q40 -48 40 -119q0 -69 -40 -119l54 -54q5 -5 5 -12q0 -6 -6 -14zM412 332q0 64 -40.5 105t-102.5 41q-61 0 -102.5 -41t-41.5 -104q0 -65 41 -106.5t103 -41.5t102.5 41.5t40.5 105.5z" />
    <glyph glyph-name="yen" unicode="&#xa5;" horiz-adv-x="590" 
d="M479 344h-124l-31 -47v-43h155q18 0 18 -16v-9q0 -16 -18 -16h-155v-195q0 -21 -18 -21h-23q-18 0 -18 21v195h-151q-18 0 -18 16v9q0 16 18 16h151v43l-32 47h-119q-18 0 -18 16v9q0 16 18 16h92l-164 247q-12 19 -12 29q0 9 9 13q4 2 33 2q13 0 25 -19
q158 -237 199 -307q17 31 197 303q15 23 30 23q16 0 28 -2q10 -1 10 -11q0 -11 -10 -26l-168 -252h96q18 0 18 -16v-9q0 -16 -18 -16z" />
    <glyph glyph-name="brokenbar" unicode="&#xa6;" horiz-adv-x="229" 
d="M133 430q0 -19 -18 -19h-17q-17 0 -17 19v269q0 19 18 19h18q16 0 16 -19v-269zM133 1q0 -19 -18 -19h-17q-17 0 -17 19v269q0 19 18 19h18q16 0 16 -19v-269z" />
    <glyph glyph-name="section" unicode="&#xa7;" horiz-adv-x="487" 
d="M348 109q31 -20 46 -46.5t15 -73.5q0 -63 -41 -107t-140 -44q-101 0 -166 28q-10 4 -10 13q0 11 12 33q2 6 11 6q2 0 5 -1t7 -2.5t7 -2.5q58 -21 137 -21q119 0 119 95q0 44 -24 69t-99 56l-57 24q-75 31 -99.5 67t-24.5 88q0 107 108 135q-55 32 -55 120q0 24 6.5 47
t23 47.5t51.5 39.5t84 15q75 0 127 -17q10 -3 10 -13q0 -18 -9 -34q-3 -4 -9 -4t-22 4q-47 11 -104 11q-101 0 -101 -94q0 -43 21 -66.5t86 -51.5l63 -27q71 -30 95.5 -62.5t24.5 -89.5q0 -56 -27 -92t-71 -49zM390 245q0 38 -17 59t-65 44q-17 9 -49.5 21.5t-42.5 17.5
q-14 6 -25 6q-9 0 -20 -3q-30 -7 -49.5 -31t-19.5 -66q0 -37 16 -56.5t58 -40.5q19 -10 59.5 -26.5l57.5 -23.5q10 -4 19 -4q10 0 19 4q26 10 42.5 37t16.5 62z" />
    <glyph glyph-name="dieresis" unicode="&#xa8;" horiz-adv-x="197" 
d="M49 663q0 -42 -39 -42t-39 41q0 43 39 43t39 -42zM225 663q0 -42 -39 -42t-39 41q0 43 39 43t39 -42z" />
    <glyph glyph-name="copyright" unicode="&#xa9;" horiz-adv-x="830" 
d="M769 345q0 -155 -98 -257t-257 -102t-257 102t-98 257t98 257.5t256 102.5q163 0 259.5 -101.5t96.5 -258.5zM732 345q0 142 -87.5 234t-231.5 92q-142 0 -229 -92.5t-87 -233.5q0 -140 87 -232.5t230 -92.5q144 0 231 92t87 233zM283 348q0 -91 26 -135.5t104 -44.5
q58 0 99 13q13 4 22 4q10 0 13 -12q4 -10 4 -18q0 -10 -13 -15q-48 -20 -129 -20q-90 0 -135.5 49.5t-45.5 168.5q0 120 46.5 175.5t153.5 55.5q62 0 97 -7q15 -2 15 -15q0 -11 -5 -26q-3 -7 -11 -7q-3 0 -9.5 1.5t-10.5 1.5q-40 4 -78 4q-47 0 -77.5 -13t-44 -40t-17.5 -53
t-4 -67z" />
    <glyph glyph-name="ordfeminine" unicode="&#xaa;" horiz-adv-x="339" 
d="M284 320q0 -21 -6 -31q-5 -8 -18 -14q-48 -19 -115 -19q-110 0 -110 97q0 50 37 72q30 17 96 17q44 0 70 -3v30q0 29 -5 41q-10 25 -66 25q-38 0 -72 -8q-20 -5 -22 -5q-7 0 -10 8q-2 12 -2 20q0 9 10 12q42 14 103 14q67 0 90 -22q20 -20 20 -79v-155zM238 405
q-22 3 -64 3q-54 0 -76 -14q-17 -11 -17 -40t15 -44.5t56 -15.5q42 0 70 10q11 4 12 11q4 10 4 22v68z" />
    <glyph glyph-name="guillemotleft" unicode="&#xab;" horiz-adv-x="472" 
d="M101 264l132 -164q10 -13 10 -21t-8 -10q-11 -3 -28 -3q-13 0 -27 17l-126 156q-13 15 -13 25q0 8 9 20l128 158q2 2 5 6t4.5 5.5l4 4t4.5 3.5t5 2t6 1q18 0 30 -3q7 -3 7 -10t-12 -22zM287 264l131 -164q10 -13 10 -21q0 -9 -8 -10q-9 -3 -27 -3q-13 0 -27 17l-127 156
q-13 15 -13 25t9 20l128 158q2 2 5 6t4.5 5.5l4 4t4.5 3.5t5 2t6 1q18 0 30 -3q8 -3 8 -10t-12 -22z" />
    <glyph glyph-name="logicalnot" unicode="&#xac;" horiz-adv-x="701" 
d="M601 51q0 -16 -15 -16h-18q-16 0 -16 16v218h-455q-16 0 -16 17v18q0 17 16 17h489q15 0 15 -17v-253z" />
    <glyph glyph-name="uni00AD" unicode="&#xad;" horiz-adv-x="296" 
d="M244 239h-192q-16 0 -16 15v25q0 16 17 16h190q17 0 17 -16v-26q0 -14 -16 -14z" />
    <glyph glyph-name="registered" unicode="&#xae;" horiz-adv-x="830" 
d="M769 345q0 -155 -98 -257t-257 -102t-257 102t-98 257t98 257.5t256 102.5q163 0 259.5 -101.5t96.5 -258.5zM732 345q0 142 -87.5 234t-231.5 92q-142 0 -229 -92.5t-87 -233.5q0 -140 87 -232.5t230 -92.5q144 0 231 92t87 233zM333 145q0 -15 -15 -15h-22
q-15 0 -15 15v359q0 68 65 68h42q83 0 117 -14q61 -25 61 -112q0 -92 -82 -119l96 -165q7 -14 7 -20q0 -8 -11 -11q-14 -2 -26 -2t-21 16l-98 173q-12 -1 -39 -1h-59v-172zM333 362h64q57 0 76 9q42 17 42 73q0 60 -40 74q-20 8 -81 8h-34q-27 0 -27 -29v-135z" />
    <glyph glyph-name="macron" unicode="&#xaf;" horiz-adv-x="197" 
d="M214 614h-231q-17 0 -17 15v24q0 17 18 17h229q18 0 18 -17v-24q0 -15 -17 -15z" />
    <glyph glyph-name="degree" unicode="&#xb0;" horiz-adv-x="336" 
d="M306 575q0 -65 -38 -101.5t-101 -36.5q-61 0 -98.5 36t-37.5 101t38.5 101.5t102.5 36.5q63 0 98.5 -35.5t35.5 -101.5zM265 574q0 50 -25 76.5t-70 26.5q-44 0 -70 -27t-26 -78q0 -48 26.5 -74t70.5 -26t69 27t25 75z" />
    <glyph glyph-name="plusminus" unicode="&#xb1;" horiz-adv-x="701" 
d="M375 142q0 -16 -15 -16h-20q-15 0 -15 16v213h-220q-15 0 -15 16v18q0 16 15 16h219v210q0 17 16 17h20q15 0 15 -17v-210h220q16 0 16 -16v-18q0 -16 -16 -16h-220v-213zM611 17q0 -17 -16 -17h-490q-15 0 -15 17v17q0 17 15 17h490q16 0 16 -17v-17z" />
    <glyph glyph-name="twosuperior" unicode="&#xb2;" 
d="M308 420h-245q-27 0 -27 26q0 17 19 32q93 71 159 136q52 50 52 99q0 40 -21 62.5t-74 22.5q-35 0 -73 -12l-23 -5q-6 0 -9 6q-5 13 -5 22q0 8 15 13q49 18 104 18q75 0 104.5 -32t29.5 -88q0 -68 -55 -121q-64 -64 -163 -137q37 1 212 1q13 0 13 -11v-20q0 -12 -13 -12z
" />
    <glyph glyph-name="threesuperior" unicode="&#xb3;" 
d="M216 638q92 -8 92 -101q0 -64 -36 -94.5t-114 -30.5q-61 0 -95 10q-17 6 -17 15q0 5 7 23q3 6 10 6q3 0 21 -4q32 -8 73 -8q63 0 83 22.5t20 59.5q0 40 -23 58t-89 19q-22 0 -22 21q0 13 5 17.5t18 5.5q56 1 77.5 19.5t21.5 51.5q0 41 -19 55.5t-71 14.5q-32 0 -64 -9
q-21 -7 -23 -7q-7 0 -10 8q-5 15 -5 19q0 10 14 15q44 16 98 16q73 0 100.5 -26t27.5 -83q0 -36 -22 -60t-58 -33z" />
    <glyph glyph-name="acute" unicode="&#xb4;" horiz-adv-x="197" 
d="M61 590q-10 -11 -24 -11q-13 0 -22 3t-9 11t7 15l104 129q13 15 30 15t31 -2q12 -3 12 -13q0 -8 -9 -17z" />
    <glyph glyph-name="mu" unicode="&#xb5;" horiz-adv-x="597" 
d="M161 -186q0 -18 -18 -18h-22q-18 0 -18 18v667q0 18 18 18h22q17 0 17 -18v-317q0 -60 10 -83q17 -42 109 -42q88 0 135 18q13 5 18 14q6 10 6 34v376q0 18 18 18h21q18 0 18 -18v-403q0 -45 -30 -58q-69 -33 -195 -33q-85 0 -109 35v-208z" />
    <glyph glyph-name="paragraph" unicode="&#xb6;" horiz-adv-x="557" 
d="M311 -110q0 -18 -16 -18h-11q-16 0 -16 18v351q-115 0 -168.5 60t-53.5 162q0 57 12 99t41 75.5t82.5 51t131.5 17.5h128q25 0 25 -22v-794q0 -18 -17 -18h-11q-17 0 -17 18v772h-110v-772z" />
    <glyph glyph-name="periodcentered" unicode="&#xb7;" horiz-adv-x="210" 
d="M151 269q0 -48 -46 -48t-46 47q0 25 13 36.5t33 11.5q46 0 46 -47z" />
    <glyph glyph-name="cedilla" unicode="&#xb8;" horiz-adv-x="197" 
d="M93 -62q57 -1 75.5 -23t18.5 -62q0 -90 -113 -90q-31 0 -48 4q-13 3 -13 14t3 18q3 11 14 11q4 0 22 -3q12 -1 24 -1q58 0 58 44q0 25 -12 35t-44 10h-16q-16 0 -16 15q0 6 4 28l13 72h41z" />
    <glyph glyph-name="onesuperior" unicode="&#xb9;" 
d="M280 420h-170q-12 0 -12 11v20q0 12 12 12h67v319l-65 -25q-12 -3 -14 -3q-6 0 -8 6q-8 17 -8 24q0 6 8 9l79 32q16 7 29 7h5q22 0 22 -25v-344h54q13 0 13 -12v-21q0 -10 -12 -10z" />
    <glyph glyph-name="ordmasculine" unicode="&#xba;" horiz-adv-x="352" 
d="M314 418q0 -93 -32 -127.5t-108 -34.5q-74 0 -105.5 33.5t-31.5 126.5t36 126.5t105 33.5q76 0 106 -30.5t30 -127.5zM267 416q0 73 -19 96t-71 23q-47 0 -69.5 -24t-22.5 -93q0 -74 19.5 -97.5t70.5 -23.5q50 0 71 22.5t21 96.5z" />
    <glyph glyph-name="guillemotright" unicode="&#xbb;" horiz-adv-x="472" 
d="M370 265l-131 164q-10 13 -10 21t8 11q11 3 27 3q12 0 27 -18l126 -155q13 -15 13 -25q0 -9 -8 -20l-128 -159q-18 -21 -29 -21q-22 0 -30 3q-8 2 -8 9q0 6 12 23zM185 265l-132 164q-10 14 -10 21q0 8 8 11q14 3 28 3q12 0 27 -18l126 -155q13 -15 13 -25t-9 -20
l-128 -159q-1 -1 -4 -5t-4 -5l-3.5 -3.5t-4 -3.5t-3.5 -2t-4 -1.5t-5 -0.5q-22 0 -30 3q-8 2 -8 9q0 6 12 23z" />
    <glyph glyph-name="onequarter" unicode="&#xbc;" horiz-adv-x="842" 
d="M694 12q0 -14 -13 -14h-21q-12 0 -12 14v95h-177q-26 0 -26 21q0 14 12 35l123 235q6 15 18 15q6 0 15.5 -0.5t10.5 -0.5q6 -2 6 -9q0 -6 -5 -15l-126 -238h149v102q0 13 12 13h21q13 0 13 -13v-102h57q13 0 13 -12v-20q0 -11 -13 -11h-57v-95zM257 -16q-8 -16 -22 -16
t-18 2q-5 3 -5 9t8 22l331 688q11 22 24 22t17 -1q8 -1 8 -9q0 -7 -10 -27zM280 264h-170q-12 0 -12 11v20q0 12 12 12h67v319l-65 -25q-12 -3 -14 -3q-6 0 -8 6q-8 17 -8 24q0 6 8 9l79 32q16 7 29 7h5q22 0 22 -25v-344h54q13 0 13 -12v-21q0 -10 -12 -10z" />
    <glyph glyph-name="onehalf" unicode="&#xbd;" horiz-adv-x="842" 
d="M747 0h-245q-27 0 -27 26q0 17 19 32q93 71 159 136q52 50 52 99q0 40 -21 62.5t-74 22.5q-35 0 -73 -12q-22 -5 -23 -5q-6 0 -9 6q-5 12 -5 22q0 8 15 13q49 18 104 18q75 0 104.5 -32t29.5 -88q0 -68 -55 -121q-64 -64 -163 -137q37 1 212 1q13 0 13 -11v-20
q0 -12 -13 -12zM244 -16q-8 -16 -22 -16t-18 2q-5 3 -5 9t8 22l331 688q11 22 24 22t17 -1q8 -1 8 -9q0 -7 -10 -27zM270 264h-170q-12 0 -12 11v20q0 12 12 12h67v319l-65 -25q-12 -3 -14 -3q-6 0 -8 6q-8 17 -8 24q0 6 8 9l79 32q16 7 29 7h5q22 0 22 -25v-344h54
q13 0 13 -12v-21q0 -10 -12 -10z" />
    <glyph glyph-name="threequarters" unicode="&#xbe;" horiz-adv-x="842" 
d="M298 -16q-8 -16 -22 -16t-18 2q-5 3 -5 9t8 22l331 688q11 22 24 22t17 -1q8 -1 8 -9q0 -7 -10 -27zM254 482q92 -8 92 -101q0 -64 -36 -94.5t-114 -30.5q-61 0 -95 10q-17 6 -17 15q0 5 7 23q3 6 10 6q3 0 21 -4q32 -8 73 -8q63 0 83 22.5t20 59.5q0 40 -23 58t-89 19
q-22 0 -22 21q0 13 5 17.5t18 5.5q56 1 77.5 19.5t21.5 51.5q0 41 -19 55.5t-71 14.5q-32 0 -64 -9q-21 -7 -23 -7q-7 0 -10 8q-5 15 -5 19q0 10 14 15q44 16 98 16q73 0 100.5 -26t27.5 -83q0 -36 -22 -60t-58 -33zM729 12q0 -14 -13 -14h-21q-12 0 -12 14v95h-177
q-26 0 -26 21q0 14 12 35l123 235q6 15 18 15q6 0 15.5 -0.5t10.5 -0.5q6 -2 6 -9q0 -6 -5 -15l-126 -238h149v102q0 13 12 13h21q13 0 13 -13v-102h57q13 0 13 -12v-20q0 -11 -13 -11h-57v-95z" />
    <glyph glyph-name="questiondown" unicode="&#xbf;" horiz-adv-x="399" 
d="M224 289h16q15 0 17 -15q1 -24 1 -53q0 -52 -15.5 -80t-63.5 -59q-49 -31 -67.5 -63.5t-18.5 -80.5q0 -104 117 -104q63 0 115 15q9 3 16 3q10 0 13 -10q5 -12 5 -24q0 -10 -11 -15q-56 -23 -143 -23q-173 0 -173 151q0 63 20 99t79 77q46 32 59 51.5t15 60.5
q0 7 0.5 25.5t1.5 28.5q2 16 17 16zM189 461q0 47 47 47q46 0 46 -47q0 -25 -13 -36.5t-33 -11.5q-47 0 -47 48z" />
    <glyph glyph-name="Agrave" unicode="&#xc0;" horiz-adv-x="585" 
d="M149 232l-75 -211q-4 -13 -8.5 -18.5t-13.5 -5.5q-26 0 -34 3q-9 3 -9 12q0 5 7 26l227 631q8 23 19 32t31 9h11q17 0 26.5 -9t17.5 -33l222 -630q7 -21 7 -26q0 -9 -9 -12q-8 -3 -34 -3q-9 0 -13.5 5.5t-9.5 18.5l-75 211h-287zM166 287h253l-125 367zM306 773l-149 105
q-11 8 -11 17q0 10 12 13q20 4 38 4q13 0 32 -14l134 -106q10 -7 10 -17q0 -7 -9 -10q-12 -4 -25 -4q-16 0 -32 12z" />
    <glyph glyph-name="Aacute" unicode="&#xc1;" horiz-adv-x="585" 
d="M149 232l-75 -211q-4 -13 -8.5 -18.5t-13.5 -5.5q-26 0 -34 3q-9 3 -9 12q0 5 7 26l227 631q8 23 19 32t31 9h11q17 0 26.5 -9t17.5 -33l222 -630q7 -21 7 -26q0 -9 -9 -12q-8 -3 -34 -3q-9 0 -13.5 5.5t-9.5 18.5l-75 211h-287zM166 287h253l-125 367zM278 764
q-16 -12 -32 -12q-13 0 -25 4q-9 3 -9 10q0 10 10 17l134 106q18 14 32 14q16 0 38 -4q12 -3 12 -13t-11 -17z" />
    <glyph glyph-name="Acircumflex" unicode="&#xc2;" horiz-adv-x="585" 
d="M149 232l-75 -211q-4 -13 -8.5 -18.5t-13.5 -5.5q-26 0 -34 3q-9 3 -9 12q0 5 7 26l227 631q8 23 19 32t31 9h11q17 0 26.5 -9t17.5 -33l222 -630q7 -21 7 -26q0 -9 -9 -12q-8 -3 -34 -3q-9 0 -13.5 5.5t-9.5 18.5l-75 211h-287zM166 287h253l-125 367zM175 761
q-12 0 -21 3t-9 11q0 10 8 16l104 100q17 15 29 15h20q14 0 27 -13l109 -105q5 -4 5 -12q0 -9 -10 -12q-11 -3 -24 -3q-11 0 -28 14l-91 74l-89 -74q-15 -14 -30 -14z" />
    <glyph glyph-name="Atilde" unicode="&#xc3;" horiz-adv-x="585" 
d="M149 232l-75 -211q-4 -13 -8.5 -18.5t-13.5 -5.5q-26 0 -34 3q-9 3 -9 12q0 5 7 26l227 631q8 23 19 32t31 9h11q17 0 26.5 -9t17.5 -33l222 -630q7 -21 7 -26q0 -9 -9 -12q-8 -3 -34 -3q-9 0 -13.5 5.5t-9.5 18.5l-75 211h-287zM166 287h253l-125 367zM163 773
q-13 0 -21 3q-8 4 -8 13q0 6 7 23q30 72 83 72q26 0 80 -30q42 -22 64 -22q28 0 43 40q7 18 20 18q11 0 21 -4q8 -3 8 -11q0 -6 -5 -21q-26 -80 -85 -80q-27 0 -80 27q-49 26 -68 26q-13 0 -21 -8t-18 -30q-6 -16 -20 -16z" />
    <glyph glyph-name="Adieresis" unicode="&#xc4;" horiz-adv-x="585" 
d="M149 232l-75 -211q-4 -13 -8.5 -18.5t-13.5 -5.5q-26 0 -34 3q-9 3 -9 12q0 5 7 26l227 631q8 23 19 32t31 9h11q17 0 26.5 -9t17.5 -33l222 -630q7 -21 7 -26q0 -9 -9 -12q-8 -3 -34 -3q-9 0 -13.5 5.5t-9.5 18.5l-75 211h-287zM166 287h253l-125 367zM240 818
q0 -43 -39 -43t-39 42q0 43 39 43t39 -42zM426 818q0 -43 -39 -43t-39 42q0 43 39 43t39 -42z" />
    <glyph glyph-name="Aring" unicode="&#xc5;" horiz-adv-x="585" 
d="M149 232l-75 -211q-4 -13 -8.5 -18.5t-13.5 -5.5q-26 0 -34 3q-9 3 -9 12q0 5 7 26l227 631q8 23 19 32t31 9h11q17 0 26.5 -9t17.5 -33l222 -630q7 -21 7 -26q0 -9 -9 -12q-8 -3 -34 -3q-9 0 -13.5 5.5t-9.5 18.5l-75 211h-287zM166 287h253l-125 367zM383 825
q0 -43 -25 -66t-66 -23q-40 0 -63.5 23t-23.5 66t24.5 67.5t65.5 24.5t64.5 -24.5t23.5 -67.5zM350 827q0 59 -57 59q-26 0 -41 -15.5t-15 -44.5q0 -28 15.5 -44t41.5 -16t41 16t15 45z" />
    <glyph glyph-name="AE" unicode="&#xc6;" horiz-adv-x="942" 
d="M227 242l-150 -223q-14 -21 -30 -21q-19 0 -30 1q-13 2 -13 13q0 5 12 24l410 613q22 33 39 45t45 12h359q19 0 19 -17v-21q0 -17 -19 -17h-316v-256h286q18 0 18 -17v-21q0 -16 -18 -16h-286v-244q0 -42 38 -42h293q19 0 19 -17v-21q0 -17 -19 -17h-301q-48 0 -69 18.5
t-21 70.5v153h-266zM260 296h233v351z" />
    <glyph glyph-name="Ccedilla" unicode="&#xc7;" horiz-adv-x="595" 
d="M338 -64q58 -1 78 -24t20 -64q0 -94 -117 -94q-30 0 -52 5q-13 3 -13 15q0 3 3 18q3 12 16 12l21 -3q13 -2 27 -2q60 0 60 46q0 25 -13 35.5t-46 10.5h-16q-18 0 -18 15q0 10 5 33l9 49q-121 9 -180 89.5t-59 264.5q0 202 63.5 289.5t229.5 87.5q97 0 164 -15
q24 -6 24 -20q0 -12 -7 -29q-3 -9 -15 -9q-4 0 -32 6q-54 13 -140 13q-60 0 -102.5 -17t-66 -43t-36.5 -69.5t-16.5 -82.5t-3.5 -96t3.5 -98t16.5 -85t35.5 -71t62.5 -44.5t96 -17.5q80 0 166 23q28 8 33 8q11 0 16 -14q4 -12 4 -21q0 -13 -23 -20q-85 -28 -189 -30z" />
    <glyph glyph-name="Egrave" unicode="&#xc8;" horiz-adv-x="555" 
d="M497 0h-300q-49 0 -70 18.5t-21 71.5v525q0 50 19.5 70.5t70.5 20.5h287q18 0 18 -17v-21q0 -17 -18 -17h-283q-34 0 -34 -38v-218h286q19 0 19 -17v-21q0 -16 -19 -16h-286v-244q0 -42 39 -42h292q19 0 19 -17v-21q0 -17 -19 -17zM314 773l-149 105q-11 8 -11 17
q0 10 12 13q20 4 38 4q13 0 32 -14l134 -106q10 -7 10 -17q0 -7 -9 -10q-12 -4 -25 -4q-16 0 -32 12z" />
    <glyph glyph-name="Eacute" unicode="&#xc9;" horiz-adv-x="555" 
d="M497 0h-300q-49 0 -70 18.5t-21 71.5v525q0 50 19.5 70.5t70.5 20.5h287q18 0 18 -17v-21q0 -17 -18 -17h-283q-34 0 -34 -38v-218h286q19 0 19 -17v-21q0 -16 -19 -16h-286v-244q0 -42 39 -42h292q19 0 19 -17v-21q0 -17 -19 -17zM322 764q-16 -12 -32 -12q-13 0 -25 4
q-9 3 -9 10q0 10 10 17l134 106q18 14 32 14q16 0 38 -4q12 -3 12 -13t-11 -17z" />
    <glyph glyph-name="Ecircumflex" unicode="&#xca;" horiz-adv-x="555" 
d="M497 0h-300q-49 0 -70 18.5t-21 71.5v525q0 50 19.5 70.5t70.5 20.5h287q18 0 18 -17v-21q0 -17 -18 -17h-283q-34 0 -34 -38v-218h286q19 0 19 -17v-21q0 -16 -19 -16h-286v-244q0 -42 39 -42h292q19 0 19 -17v-21q0 -17 -19 -17zM190 761q-12 0 -21 3t-9 11q0 10 8 16
l104 100q17 15 29 15h20q14 0 27 -13l109 -105q5 -4 5 -12q0 -9 -10 -12t-24 -3q-10 0 -28 14l-91 74l-89 -74q-15 -14 -30 -14z" />
    <glyph glyph-name="Edieresis" unicode="&#xcb;" horiz-adv-x="555" 
d="M497 0h-300q-49 0 -70 18.5t-21 71.5v525q0 50 19.5 70.5t70.5 20.5h287q18 0 18 -17v-21q0 -17 -18 -17h-283q-34 0 -34 -38v-218h286q19 0 19 -17v-21q0 -16 -19 -16h-286v-244q0 -42 39 -42h292q19 0 19 -17v-21q0 -17 -19 -17zM255 818q0 -43 -39 -43t-39 42
q0 43 39 43t39 -42zM441 818q0 -43 -39 -43t-39 42q0 43 39 43t39 -42z" />
    <glyph glyph-name="Igrave" unicode="&#xcc;" horiz-adv-x="272" 
d="M166 17q0 -20 -18 -20h-24q-18 0 -18 20v673q0 20 19 20h24q17 0 17 -20v-673zM143 773l-149 105q-11 8 -11 17q0 10 12 13q20 4 38 4q13 0 32 -14l134 -106q10 -7 10 -17q0 -7 -9 -10q-12 -4 -25 -4q-15 0 -32 12z" />
    <glyph glyph-name="Iacute" unicode="&#xcd;" horiz-adv-x="272" 
d="M166 17q0 -20 -18 -20h-24q-18 0 -18 20v673q0 20 19 20h24q17 0 17 -20v-673zM128 773q-16 -12 -32 -12q-13 0 -25 4q-9 3 -9 10q0 10 10 17l134 106q18 14 32 14q16 0 38 -4q12 -3 12 -13t-11 -17z" />
    <glyph glyph-name="Icircumflex" unicode="&#xce;" horiz-adv-x="272" 
d="M166 17q0 -20 -18 -20h-24q-18 0 -18 20v673q0 20 19 20h24q17 0 17 -20v-673zM15 761q-12 0 -21 3t-9 11q0 10 8 16l104 100q17 15 29 15h20q14 0 27 -13l109 -105q5 -4 5 -12q0 -9 -10 -12q-11 -3 -24 -3q-11 0 -28 14l-91 74l-89 -74q-15 -14 -30 -14z" />
    <glyph glyph-name="Idieresis" unicode="&#xcf;" horiz-adv-x="272" 
d="M166 17q0 -20 -18 -20h-24q-18 0 -18 20v673q0 20 19 20h24q17 0 17 -20v-673zM82 818q0 -43 -39 -43t-39 42q0 43 39 43t39 -42zM268 818q0 -43 -39 -43t-39 42q0 43 39 43t39 -42z" />
    <glyph glyph-name="Eth" unicode="&#xd0;" horiz-adv-x="699" 
d="M271 0h-80q-47 0 -66 20t-19 66v256h-65q-16 0 -16 14v22q0 16 17 16h64v223q0 48 19 68.5t68 20.5h84q115 0 179 -19q180 -52 180 -326q0 -128 -41.5 -213.5t-142.5 -123.5q-64 -24 -181 -24zM166 97q0 -42 39 -42h78q105 0 157 24q133 60 133 283q0 207 -122 265
q-51 25 -170 25h-80q-35 0 -35 -39v-219h198q17 0 17 -16v-22q0 -14 -16 -14h-199v-245z" />
    <glyph glyph-name="Ntilde" unicode="&#xd1;" horiz-adv-x="711" 
d="M165 17q0 -20 -19 -20h-22q-18 0 -18 20v646q0 25 9.5 36t30.5 11h15q17 0 26 -7.5t21 -27.5q260 -454 340 -608q-2 75 -2 621q0 21 20 21h22q17 0 17 -20v-655q0 -39 -35 -39h-16q-17 0 -26 7.5t-21 27.5q-285 499 -344 611q2 -192 2 -624zM225 773q-13 0 -21 3
q-8 4 -8 13q0 6 7 23q30 72 83 72q26 0 80 -30q42 -22 64 -22q28 0 43 40q7 18 20 18q11 0 21 -4q8 -3 8 -11q0 -6 -5 -21q-26 -80 -85 -80q-27 0 -80 27q-49 26 -68 26q-13 0 -21 -8t-18 -30q-6 -16 -20 -16z" />
    <glyph glyph-name="Ograve" unicode="&#xd2;" horiz-adv-x="690" 
d="M627 358q0 -109 -17 -181.5t-54 -114t-88 -58.5t-127 -17q-74 0 -123.5 16.5t-85.5 58t-52.5 114t-16.5 181.5t21 182.5t61.5 111.5t88.5 53t115 15q60 0 101 -8t77 -30.5t56.5 -62.5t32 -104t11.5 -156zM564 357q0 99 -11.5 159.5t-39.5 93.5t-66 44t-101 11
q-57 0 -95 -12.5t-68 -45.5t-44 -94t-14 -155q0 -100 13.5 -163.5t43 -96.5t66.5 -45t95 -12q57 0 93.5 11t68 43.5t45.5 96.5t14 165zM365 773l-149 105q-11 8 -11 17q0 10 12 13q20 4 38 4q13 0 32 -14l134 -106q10 -7 10 -17q0 -7 -9 -10q-12 -4 -25 -4q-15 0 -32 12z
" />
    <glyph glyph-name="Oacute" unicode="&#xd3;" horiz-adv-x="690" 
d="M627 358q0 -109 -17 -181.5t-54 -114t-88 -58.5t-127 -17q-74 0 -123.5 16.5t-85.5 58t-52.5 114t-16.5 181.5t21 182.5t61.5 111.5t88.5 53t115 15q60 0 101 -8t77 -30.5t56.5 -62.5t32 -104t11.5 -156zM564 357q0 99 -11.5 159.5t-39.5 93.5t-66 44t-101 11
q-57 0 -95 -12.5t-68 -45.5t-44 -94t-14 -155q0 -100 13.5 -163.5t43 -96.5t66.5 -45t95 -12q57 0 93.5 11t68 43.5t45.5 96.5t14 165zM335 773q-17 -12 -32 -12q-13 0 -25 4q-9 3 -9 10q0 10 10 17l134 106q18 14 32 14q16 0 38 -4q12 -3 12 -13t-11 -17z" />
    <glyph glyph-name="Ocircumflex" unicode="&#xd4;" horiz-adv-x="690" 
d="M627 358q0 -109 -17 -181.5t-54 -114t-88 -58.5t-127 -17q-74 0 -123.5 16.5t-85.5 58t-52.5 114t-16.5 181.5t21 182.5t61.5 111.5t88.5 53t115 15q60 0 101 -8t77 -30.5t56.5 -62.5t32 -104t11.5 -156zM564 357q0 99 -11.5 159.5t-39.5 93.5t-66 44t-101 11
q-57 0 -95 -12.5t-68 -45.5t-44 -94t-14 -155q0 -100 13.5 -163.5t43 -96.5t66.5 -45t95 -12q57 0 93.5 11t68 43.5t45.5 96.5t14 165zM228 761q-12 0 -21 3t-9 11q0 10 8 16l104 100q17 15 29 15h20q14 0 27 -13l109 -105q5 -4 5 -12q0 -9 -10 -12t-24 -3q-10 0 -28 14
l-91 74l-89 -74q-15 -14 -30 -14z" />
    <glyph glyph-name="Otilde" unicode="&#xd5;" horiz-adv-x="690" 
d="M627 358q0 -109 -17 -181.5t-54 -114t-88 -58.5t-127 -17q-74 0 -123.5 16.5t-85.5 58t-52.5 114t-16.5 181.5t21 182.5t61.5 111.5t88.5 53t115 15q60 0 101 -8t77 -30.5t56.5 -62.5t32 -104t11.5 -156zM564 357q0 99 -11.5 159.5t-39.5 93.5t-66 44t-101 11
q-57 0 -95 -12.5t-68 -45.5t-44 -94t-14 -155q0 -100 13.5 -163.5t43 -96.5t66.5 -45t95 -12q57 0 93.5 11t68 43.5t45.5 96.5t14 165zM218 773q-14 0 -21 3q-8 4 -8 13q0 6 7 23q30 72 83 72q26 0 80 -30q42 -22 64 -22q28 0 43 40q7 18 20 18q11 0 21 -4q8 -3 8 -11
q0 -6 -5 -21q-26 -80 -85 -80q-27 0 -80 27q-49 26 -68 26q-13 0 -21 -8t-18 -30q-6 -16 -20 -16z" />
    <glyph glyph-name="Odieresis" unicode="&#xd6;" horiz-adv-x="690" 
d="M627 358q0 -109 -17 -181.5t-54 -114t-88 -58.5t-127 -17q-74 0 -123.5 16.5t-85.5 58t-52.5 114t-16.5 181.5t21 182.5t61.5 111.5t88.5 53t115 15q60 0 101 -8t77 -30.5t56.5 -62.5t32 -104t11.5 -156zM564 357q0 99 -11.5 159.5t-39.5 93.5t-66 44t-101 11
q-57 0 -95 -12.5t-68 -45.5t-44 -94t-14 -155q0 -100 13.5 -163.5t43 -96.5t66.5 -45t95 -12q57 0 93.5 11t68 43.5t45.5 96.5t14 165zM299 818q0 -43 -39 -43t-39 42q0 43 39 43t39 -42zM485 818q0 -43 -39 -43t-39 42q0 43 39 43t39 -42z" />
    <glyph glyph-name="multiply" unicode="&#xd7;" horiz-adv-x="701" 
d="M550 133q6 -6 6 -11q0 -3 -6 -11l-14 -15q-5 -7 -11 -7q-5 0 -11 6l-165 162l-163 -163q-6 -6 -12 -6q-7 0 -11 5l-14 15q-5 5 -5 11q0 7 5 12l166 165l-167 165q-6 6 -6 12t6 12l14 14q5 5 11 5t11 -5l166 -166l167 166q5 5 12 5q5 0 10 -5l14 -15q5 -5 5 -11
q0 -7 -6 -13l-167 -164z" />
    <glyph glyph-name="Oslash" unicode="&#xd8;" horiz-adv-x="690" 
d="M102 -16q-5 -9 -13 -9q-9 0 -26 13q-7 6 -7 11t6 13l55 75q-51 86 -51 270q0 109 21 182.5t61.5 111.5t89 53t115.5 15q132 0 189 -47l42 57q6 9 14 9q3 0 11 -4q20 -13 20 -21q0 -5 -4 -12l-49 -67q54 -81 54 -276q0 -109 -17 -181.5t-54 -114t-88 -58.5t-127 -17
q-135 0 -196 60zM568 357q0 155 -32 222l-352 -482q46 -56 162 -56q57 0 94 11t68 43.5t45.5 96.5t14.5 165zM128 358q0 -142 29 -215l349 479q-44 43 -157 43q-57 0 -95 -12.5t-68 -45.5t-44 -94t-14 -155z" />
    <glyph glyph-name="Ugrave" unicode="&#xd9;" horiz-adv-x="690" 
d="M591 691v-409q0 -83 -5 -125.5t-23 -74.5q-53 -96 -221 -96q-84 0 -139 23.5t-82 81.5q-22 46 -22 189v411q0 19 19 19h25q16 0 16 -19v-437q0 -108 23 -146q40 -67 163 -67q129 0 163 63q24 44 24 146v441q0 19 18 19h25q16 0 16 -19zM355 773l-149 105q-11 8 -11 17
q0 10 12 13q20 4 38 4q13 0 32 -14l134 -106q10 -7 10 -17q0 -7 -9 -10q-12 -4 -25 -4q-15 0 -32 12z" />
    <glyph glyph-name="Uacute" unicode="&#xda;" horiz-adv-x="690" 
d="M591 691v-409q0 -83 -5 -125.5t-23 -74.5q-53 -96 -221 -96q-84 0 -139 23.5t-82 81.5q-22 46 -22 189v411q0 19 19 19h25q16 0 16 -19v-437q0 -108 23 -146q40 -67 163 -67q129 0 163 63q24 44 24 146v441q0 19 18 19h25q16 0 16 -19zM332 773q-16 -12 -32 -12
q-13 0 -25 4q-9 3 -9 10q0 10 10 17l134 106q18 14 32 14q16 0 38 -4q12 -3 12 -13t-11 -17z" />
    <glyph glyph-name="Ucircumflex" unicode="&#xdb;" horiz-adv-x="690" 
d="M591 691v-409q0 -83 -5 -125.5t-23 -74.5q-53 -96 -221 -96q-84 0 -139 23.5t-82 81.5q-22 46 -22 189v411q0 19 19 19h25q16 0 16 -19v-437q0 -108 23 -146q40 -67 163 -67q129 0 163 63q24 44 24 146v441q0 19 18 19h25q16 0 16 -19zM226 761q-12 0 -21 3t-9 11
q0 10 8 16l104 100q17 15 29 15h20q14 0 27 -13l109 -105q5 -4 5 -12q0 -9 -10 -12t-24 -3q-10 0 -28 14l-91 74l-89 -74q-15 -14 -30 -14z" />
    <glyph glyph-name="Udieresis" unicode="&#xdc;" horiz-adv-x="690" 
d="M591 691v-409q0 -83 -5 -125.5t-23 -74.5q-53 -96 -221 -96q-84 0 -139 23.5t-82 81.5q-22 46 -22 189v411q0 19 19 19h25q16 0 16 -19v-437q0 -108 23 -146q40 -67 163 -67q129 0 163 63q24 44 24 146v441q0 19 18 19h25q16 0 16 -19zM295 818q0 -43 -39 -43t-39 42
q0 43 39 43t39 -42zM481 818q0 -43 -39 -43t-39 42q0 43 39 43t39 -42z" />
    <glyph glyph-name="Yacute" unicode="&#xdd;" horiz-adv-x="546" 
d="M303 18q0 -21 -18 -21h-24q-18 0 -18 21v293l-226 355q-13 20 -13 29q0 10 12 13q9 2 31 2q14 0 26 -19q147 -231 202 -324q31 55 198 319q14 24 30 24q19 0 29 -2q10 -1 10 -11q0 -9 -11 -26l-228 -359v-294zM273 773q-17 -12 -32 -12q-13 0 -25 4q-9 3 -9 10
q0 10 10 17l134 106q18 14 32 14q16 0 38 -4q12 -3 12 -13t-11 -17z" />
    <glyph glyph-name="Thorn" unicode="&#xde;" horiz-adv-x="617" 
d="M166 162v-145q0 -20 -18 -20h-24q-18 0 -18 20v673q0 20 19 20h24q17 0 17 -20v-127h113q120 0 172 -22q102 -41 102 -177q0 -150 -132 -188q-49 -14 -137 -14h-118zM166 215h124q90 0 131 18q71 29 71 128q0 100 -71 132q-38 16 -139 16h-116v-294z" />
    <glyph glyph-name="germandbls" unicode="&#xdf;" horiz-adv-x="543" 
d="M152 16q0 -19 -18 -19h-22q-17 0 -17 19v482q0 113 18 154q21 46 69.5 72.5t115.5 26.5q89 0 133 -41.5t44 -134.5q0 -77 -30 -119t-91 -60q85 -11 120 -53t35 -130q0 -111 -49 -158q-64 -61 -207 -62q-19 0 -21 12q-1 9 -1 23q0 17 17 17q136 4 176 55q27 35 27 112
q0 78 -40.5 112.5t-145.5 37.5q-15 1 -21.5 6.5t-6.5 20.5q0 24 29 26q64 3 107 39.5t43 118.5q0 126 -122 126q-43 0 -78 -17t-49 -47q-15 -35 -15 -133v-486z" />
    <glyph glyph-name="agrave" unicode="&#xe0;" horiz-adv-x="522" 
d="M434 84q0 -26 -8 -41q-6 -14 -24 -23q-61 -33 -179 -33q-97 0 -133.5 42.5t-36.5 115.5q0 82 58 116q50 28 152 28q76 0 115 -6v56q0 55 -8 74q-8 22 -31.5 33.5t-80.5 11.5q-64 0 -117 -14q-26 -8 -32 -8q-10 0 -12 10q-5 15 -5 25t14 15q74 24 163 24q101 0 135 -35
q18 -18 24 -47t6 -81v-263zM378 236q-40 5 -110 5q-94 0 -130 -24q-29 -18 -29 -71t25.5 -81t97.5 -28q77 0 119 17q15 6 22 18q5 10 5 33v131zM259 590l-120 130q-9 9 -9 15q0 11 12 14q10 3 31 3q17 0 29 -14l105 -130q7 -7 7 -15t-9 -11q-7 -3 -22 -3q-14 0 -24 11z" />
    <glyph glyph-name="aacute" unicode="&#xe1;" horiz-adv-x="522" 
d="M434 84q0 -26 -8 -41q-6 -14 -24 -23q-61 -33 -179 -33q-97 0 -133.5 42.5t-36.5 115.5q0 82 58 116q50 28 152 28q76 0 115 -6v56q0 55 -8 74q-8 22 -31.5 33.5t-80.5 11.5q-64 0 -117 -14q-26 -8 -32 -8q-10 0 -12 10q-5 15 -5 25t14 15q74 24 163 24q101 0 135 -35
q18 -18 24 -47t6 -81v-263zM378 236q-40 5 -110 5q-94 0 -130 -24q-29 -18 -29 -71t25.5 -81t97.5 -28q77 0 119 17q15 6 22 18q5 10 5 33v131zM262 590q-10 -11 -24 -11q-13 0 -22 3t-9 11t7 15l104 129q12 15 30 15q17 0 31 -2q12 -3 12 -13q0 -8 -9 -17z" />
    <glyph glyph-name="acircumflex" unicode="&#xe2;" horiz-adv-x="522" 
d="M434 84q0 -26 -8 -41q-6 -14 -24 -23q-61 -33 -179 -33q-97 0 -133.5 42.5t-36.5 115.5q0 82 58 116q50 28 152 28q76 0 115 -6v56q0 55 -8 74q-8 22 -31.5 33.5t-80.5 11.5q-64 0 -117 -14q-26 -8 -32 -8q-10 0 -12 10q-5 15 -5 25t14 15q74 24 163 24q101 0 135 -35
q18 -18 24 -47t6 -81v-263zM378 236q-40 5 -110 5q-94 0 -130 -24q-29 -18 -29 -71t25.5 -81t97.5 -28q77 0 119 17q15 6 22 18q5 10 5 33v131zM149 571q-13 0 -20 3q-10 3 -10 10q0 4 7 15l97 136q12 15 27 15h19q15 0 24 -13l96 -136q8 -10 8 -16q0 -8 -9 -11
q-8 -3 -21 -3t-24 13l-86 110l-84 -108q-13 -15 -24 -15z" />
    <glyph glyph-name="atilde" unicode="&#xe3;" horiz-adv-x="522" 
d="M434 84q0 -26 -8 -41q-6 -14 -24 -23q-61 -33 -179 -33q-97 0 -133.5 42.5t-36.5 115.5q0 82 58 116q50 28 152 28q76 0 115 -6v56q0 55 -8 74q-8 22 -31.5 33.5t-80.5 11.5q-64 0 -117 -14q-26 -8 -32 -8q-10 0 -12 10q-5 15 -5 25t14 15q74 24 163 24q101 0 135 -35
q18 -18 24 -47t6 -81v-263zM378 236q-40 5 -110 5q-94 0 -130 -24q-29 -18 -29 -71t25.5 -81t97.5 -28q77 0 119 17q15 6 22 18q5 10 5 33v131zM129 604q-12 0 -18 2q-10 3 -10 11q0 6 6 21q31 74 79 74q24 0 77 -30q41 -23 62 -23q14 0 23 8t17 32q7 18 19 18q9 0 19 -2
q9 -3 9 -12t-5 -22q-14 -43 -33 -60.5t-47 -17.5q-27 0 -78 27q-51 26 -63 26t-20.5 -7.5t-17.5 -29.5q-6 -15 -19 -15z" />
    <glyph glyph-name="adieresis" unicode="&#xe4;" horiz-adv-x="522" 
d="M434 84q0 -26 -8 -41q-6 -14 -24 -23q-61 -33 -179 -33q-97 0 -133.5 42.5t-36.5 115.5q0 82 58 116q50 28 152 28q76 0 115 -6v56q0 55 -8 74q-8 22 -31.5 33.5t-80.5 11.5q-64 0 -117 -14q-26 -8 -32 -8q-10 0 -12 10q-5 15 -5 25t14 15q74 24 163 24q101 0 135 -35
q18 -18 24 -47t6 -81v-263zM378 236q-40 5 -110 5q-94 0 -130 -24q-29 -18 -29 -71t25.5 -81t97.5 -28q77 0 119 17q15 6 22 18q5 10 5 33v131zM218 663q0 -42 -39 -42t-39 41q0 43 39 43t39 -42zM394 663q0 -42 -39 -42t-39 41q0 43 39 43t39 -42z" />
    <glyph glyph-name="aring" unicode="&#xe5;" horiz-adv-x="522" 
d="M434 84q0 -26 -8 -41q-6 -14 -24 -23q-61 -33 -179 -33q-97 0 -133.5 42.5t-36.5 115.5q0 82 58 116q50 28 152 28q76 0 115 -6v56q0 55 -8 74q-8 22 -31.5 33.5t-80.5 11.5q-64 0 -117 -14q-26 -8 -32 -8q-10 0 -12 10q-5 15 -5 25t14 15q74 24 163 24q101 0 135 -35
q18 -18 24 -47t6 -81v-263zM378 236q-40 5 -110 5q-94 0 -130 -24q-29 -18 -29 -71t25.5 -81t97.5 -28q77 0 119 17q15 6 22 18q5 10 5 33v131zM353 670q0 -45 -26 -69t-70 -24q-42 0 -67 24t-25 69t26 70.5t69 25.5q44 0 68.5 -25t24.5 -71zM319 672q0 30 -16.5 46.5
t-44.5 16.5q-27 0 -43.5 -16.5t-16.5 -47.5q0 -30 16.5 -47t44.5 -17t44 17t16 48z" />
    <glyph glyph-name="ae" unicode="&#xe6;" horiz-adv-x="833" 
d="M425 55q-70 -68 -198 -68q-97 0 -135.5 42.5t-38.5 117.5q0 76 59 111q49 28 159 28q81 0 107 -1v51q0 55 -8 76q-8 22 -32.5 34t-81.5 12q-56 0 -115 -14q-5 -1 -12 -3l-12 -3.5t-9 -1.5q-8 0 -12 11q-3 15 -3 24q0 11 15 16q75 23 158 23q73 0 110 -18.5t45 -70.5
q45 89 174 89q60 0 98.5 -16t57 -50.5t24.5 -74.5t6 -103q0 -16 -7 -22q-5 -5 -20 -5h-320q1 -115 40.5 -158t126.5 -43q67 0 127 17q17 5 21 5q9 0 13 -9q6 -18 6 -23q0 -12 -15 -17q-64 -24 -152 -24q-127 0 -176 68zM378 239q-68 0 -107 -1q-105 -2 -135 -26
q-27 -22 -27 -65q0 -53 27.5 -81.5t100.5 -28.5q47 0 94.5 15t70.5 42q-24 53 -24 145zM435 287h289q1 8 1 22q0 76 -27.5 114.5t-106.5 38.5q-85 0 -119.5 -44.5t-36.5 -130.5z" />
    <glyph glyph-name="ccedilla" unicode="&#xe7;" horiz-adv-x="458" 
d="M255 -62q57 -1 75.5 -23t18.5 -62q0 -90 -113 -90q-31 0 -48 4q-13 3 -13 14t3 18q3 11 14 11q4 0 22 -3q12 -1 24 -1q58 0 58 44q0 25 -12 35t-44 10h-16q-16 0 -16 15q0 6 4 28l9 51q-82 9 -123.5 68t-41.5 184q0 140 52 204.5t173 64.5q65 0 113 -12q17 -4 17 -16
q0 -9 -6 -27q-4 -11 -13 -11q-3 0 -7 1t-10 2t-10 2q-47 9 -89 9q-43 0 -73.5 -11.5t-47.5 -29.5t-26.5 -47t-12 -55.5t-2.5 -63.5q0 -50 5.5 -85t20.5 -66t45.5 -46.5t77.5 -15.5q58 0 116 14q20 6 24 6q8 0 12 -9q5 -15 5 -22q0 -14 -15 -19q-64 -21 -143 -21z" />
    <glyph glyph-name="egrave" unicode="&#xe8;" horiz-adv-x="512" 
d="M113 234q1 -114 42 -155t129 -41q66 0 117 16q20 6 27 6q9 0 12 -8q7 -14 7 -24q0 -12 -16 -17q-65 -24 -152 -24q-122 0 -173 61t-51 199t55.5 200.5t166.5 62.5q60 0 98 -16.5t56 -52t23.5 -73.5t5.5 -99q0 -23 -7 -30q-5 -5 -20 -5h-320zM114 282h288q1 8 1 27
q0 75 -26.5 112.5t-104.5 37.5q-87 0 -121.5 -45.5t-36.5 -131.5zM274 590l-120 130q-9 9 -9 15q0 11 12 14q10 3 31 3q17 0 29 -14l105 -130q7 -7 7 -15t-9 -11q-8 -3 -22 -3t-24 11z" />
    <glyph glyph-name="eacute" unicode="&#xe9;" horiz-adv-x="512" 
d="M113 234q1 -114 42 -155t129 -41q66 0 117 16q20 6 27 6q9 0 12 -8q7 -14 7 -24q0 -12 -16 -17q-65 -24 -152 -24q-122 0 -173 61t-51 199t55.5 200.5t166.5 62.5q60 0 98 -16.5t56 -52t23.5 -73.5t5.5 -99q0 -23 -7 -30q-5 -5 -20 -5h-320zM114 282h288q1 8 1 27
q0 75 -26.5 112.5t-104.5 37.5q-87 0 -121.5 -45.5t-36.5 -131.5zM259 590q-10 -11 -24 -11q-13 0 -22 3t-9 11t7 15l104 129q13 15 30 15t31 -2q12 -3 12 -13q0 -8 -9 -17z" />
    <glyph glyph-name="ecircumflex" unicode="&#xea;" horiz-adv-x="512" 
d="M113 234q1 -114 42 -155t129 -41q66 0 117 16q20 6 27 6q9 0 12 -8q7 -14 7 -24q0 -12 -16 -17q-65 -24 -152 -24q-122 0 -173 61t-51 199t55.5 200.5t166.5 62.5q60 0 98 -16.5t56 -52t23.5 -73.5t5.5 -99q0 -23 -7 -30q-5 -5 -20 -5h-320zM114 282h288q1 8 1 27
q0 75 -26.5 112.5t-104.5 37.5q-87 0 -121.5 -45.5t-36.5 -131.5zM160 571q-12 0 -20 3q-10 3 -10 10q0 4 7 15l97 136q12 15 27 15h19q15 0 24 -13l96 -136q8 -10 8 -16q0 -8 -9 -11q-7 -3 -21 -3q-13 0 -24 13l-86 110l-84 -108q-13 -15 -24 -15z" />
    <glyph glyph-name="edieresis" unicode="&#xeb;" horiz-adv-x="512" 
d="M113 234q1 -114 42 -155t129 -41q66 0 117 16q20 6 27 6q9 0 12 -8q7 -14 7 -24q0 -12 -16 -17q-65 -24 -152 -24q-122 0 -173 61t-51 199t55.5 200.5t166.5 62.5q60 0 98 -16.5t56 -52t23.5 -73.5t5.5 -99q0 -23 -7 -30q-5 -5 -20 -5h-320zM114 282h288q1 8 1 27
q0 75 -26.5 112.5t-104.5 37.5q-87 0 -121.5 -45.5t-36.5 -131.5zM218 663q0 -42 -39 -42t-39 41q0 43 39 43t39 -42zM394 663q0 -42 -39 -42t-39 41q0 43 39 43t39 -42z" />
    <glyph glyph-name="igrave" unicode="&#xec;" horiz-adv-x="233" 
d="M121 590l-120 130q-9 9 -9 15q0 11 12 14q11 3 31 3q17 0 29 -14l105 -130q7 -7 7 -15t-9 -11q-8 -3 -22 -3t-24 11zM145 16q0 -19 -17 -19h-22q-17 0 -17 19v464q0 19 17 19h22q17 0 17 -19v-464z" />
    <glyph glyph-name="iacute" unicode="&#xed;" horiz-adv-x="233" 
d="M117 590q-10 -11 -24 -11q-13 0 -22 3t-9 11t7 15l104 129q12 15 30 15q17 0 31 -2q12 -3 12 -13q0 -8 -9 -17zM145 16q0 -19 -17 -19h-22q-17 0 -17 19v464q0 19 17 19h22q17 0 17 -19v-464z" />
    <glyph glyph-name="icircumflex" unicode="&#xee;" horiz-adv-x="233" 
d="M145 16q0 -19 -17 -19h-22q-17 0 -17 19v464q0 19 17 19h22q17 0 17 -19v-464zM8 571q-13 0 -20 3q-10 3 -10 10q0 4 7 15l97 136q12 15 27 15h19q15 0 24 -13l96 -136q8 -10 8 -16q0 -8 -9 -11q-7 -3 -21 -3q-13 0 -24 13l-86 110l-84 -108q-13 -15 -24 -15z" />
    <glyph glyph-name="idieresis" unicode="&#xef;" horiz-adv-x="233" 
d="M67 663q0 -42 -39 -42t-39 41q0 43 39 43t39 -42zM243 663q0 -42 -39 -42t-39 41q0 43 39 43t39 -42zM145 16q0 -19 -17 -19h-22q-17 0 -17 19v464q0 19 17 19h22q17 0 17 -19v-464z" />
    <glyph glyph-name="eth" unicode="&#xf0;" horiz-adv-x="539" 
d="M470 704l-72 -48q54 -63 70 -159.5t16 -243.5q0 -105 -24.5 -164t-69.5 -80.5t-121 -21.5q-77 0 -120.5 20t-68 78t-24.5 165q0 79 15.5 131.5t47 79t68 37t87.5 10.5q42 0 85.5 -13.5t60.5 -46.5q-16 117 -69 177l-89 -58q-10 -7 -16 -7q-7 0 -16 15q-7 8 -7 14
q0 7 9 12l84 55q-54 38 -147 45q-15 2 -15 12q0 12 3 24q2 10 15 10q17 0 28 -1q103 -10 165 -58l77 51q8 6 14 6q4 0 10 -7q12 -15 12 -22q0 -6 -8 -12zM426 248q0 89 -16.5 134.5t-46.5 60t-89 14.5q-85 0 -122.5 -42t-37.5 -163q0 -91 17.5 -138t48.5 -61.5t90 -14.5
q42 0 67.5 6.5t47.5 27.5t31.5 64t9.5 112z" />
    <glyph glyph-name="ntilde" unicode="&#xf1;" horiz-adv-x="568" 
d="M145 16q0 -19 -18 -19h-21q-18 0 -18 19v393q0 41 31 57q84 42 215 42q64 0 94 -14.5t42 -45.5q10 -24 10 -98v-334q0 -19 -18 -19h-22q-17 0 -17 19v326q0 52 -8 73q-7 21 -28 31t-68 10q-90 0 -150 -26q-13 -8 -18 -16q-6 -10 -6 -30v-368zM159 604q-12 0 -18 2
q-10 3 -10 11q0 6 6 21q31 74 79 74q24 0 77 -30q41 -23 62 -23q14 0 23 8t17 32q7 18 19 18q9 0 19 -2q9 -3 9 -12t-5 -22q-14 -43 -33 -60.5t-47 -17.5q-27 0 -78 27q-51 26 -63 26t-20.5 -7.5t-17.5 -29.5q-6 -15 -19 -15z" />
    <glyph glyph-name="ograve" unicode="&#xf2;" horiz-adv-x="540" 
d="M484 253q0 -154 -49 -210t-168 -56q-116 0 -163.5 54.5t-47.5 208.5q0 79 15.5 131.5t46 80t67.5 38t89 10.5q47 0 78 -5.5t58 -20.5t42 -43.5t23.5 -74.5t8.5 -113zM426 248q0 90 -16 135t-47 60t-91 15q-82 0 -120 -42t-38 -164q0 -90 17 -137t48 -62t89 -15
q43 0 69 6.5t48 28t31.5 64t9.5 111.5zM273 590l-120 130q-9 9 -9 15q0 11 12 14q10 3 31 3q17 0 29 -14l105 -130q7 -7 7 -15t-9 -11q-7 -3 -22 -3q-14 0 -24 11z" />
    <glyph glyph-name="oacute" unicode="&#xf3;" horiz-adv-x="540" 
d="M484 253q0 -154 -49 -210t-168 -56q-116 0 -163.5 54.5t-47.5 208.5q0 79 15.5 131.5t46 80t67.5 38t89 10.5q47 0 78 -5.5t58 -20.5t42 -43.5t23.5 -74.5t8.5 -113zM426 248q0 90 -16 135t-47 60t-91 15q-82 0 -120 -42t-38 -164q0 -90 17 -137t48 -62t89 -15
q43 0 69 6.5t48 28t31.5 64t9.5 111.5zM265 590q-10 -11 -24 -11q-13 0 -22 3t-9 11t7 15l104 129q13 15 30 15t31 -2q12 -3 12 -13q0 -8 -9 -17z" />
    <glyph glyph-name="ocircumflex" unicode="&#xf4;" horiz-adv-x="540" 
d="M484 253q0 -154 -49 -210t-168 -56q-116 0 -163.5 54.5t-47.5 208.5q0 79 15.5 131.5t46 80t67.5 38t89 10.5q47 0 78 -5.5t58 -20.5t42 -43.5t23.5 -74.5t8.5 -113zM426 248q0 90 -16 135t-47 60t-91 15q-82 0 -120 -42t-38 -164q0 -90 17 -137t48 -62t89 -15
q43 0 69 6.5t48 28t31.5 64t9.5 111.5zM168 571q-12 0 -20 3q-10 3 -10 10q0 4 7 15l97 136q12 15 27 15h19q15 0 24 -13l96 -136q8 -10 8 -16q0 -8 -9 -11q-7 -3 -21 -3q-13 0 -24 13l-86 110l-84 -108q-13 -15 -24 -15z" />
    <glyph glyph-name="otilde" unicode="&#xf5;" horiz-adv-x="540" 
d="M484 253q0 -154 -49 -210t-168 -56q-116 0 -163.5 54.5t-47.5 208.5q0 79 15.5 131.5t46 80t67.5 38t89 10.5q47 0 78 -5.5t58 -20.5t42 -43.5t23.5 -74.5t8.5 -113zM426 248q0 90 -16 135t-47 60t-91 15q-82 0 -120 -42t-38 -164q0 -90 17 -137t48 -62t89 -15
q43 0 69 6.5t48 28t31.5 64t9.5 111.5zM145 604q-12 0 -18 2q-10 3 -10 11q0 6 6 21q31 74 79 74q24 0 77 -30q41 -23 62 -23q14 0 23 8t17 32q7 18 19 18q9 0 19 -2q9 -3 9 -12t-5 -22q-14 -43 -33 -60.5t-47 -17.5q-27 0 -78 27q-51 26 -63 26t-20.5 -7.5t-17.5 -29.5
q-6 -15 -19 -15z" />
    <glyph glyph-name="odieresis" unicode="&#xf6;" horiz-adv-x="540" 
d="M484 253q0 -154 -49 -210t-168 -56q-116 0 -163.5 54.5t-47.5 208.5q0 79 15.5 131.5t46 80t67.5 38t89 10.5q47 0 78 -5.5t58 -20.5t42 -43.5t23.5 -74.5t8.5 -113zM426 248q0 90 -16 135t-47 60t-91 15q-82 0 -120 -42t-38 -164q0 -90 17 -137t48 -62t89 -15
q43 0 69 6.5t48 28t31.5 64t9.5 111.5zM225 663q0 -42 -39 -42t-39 41q0 43 39 43t39 -42zM401 663q0 -42 -39 -42t-39 41q0 43 39 43t39 -42z" />
    <glyph glyph-name="divide" unicode="&#xf7;" horiz-adv-x="701" 
d="M350 413q-15 0 -25.5 10t-10.5 31q0 41 37 41q35 0 35 -41q0 -20 -10 -30.5t-26 -10.5zM596 269h-491q-15 0 -15 17v18q0 17 15 17h491q14 0 14 -17v-18q0 -17 -14 -17zM350 90q-36 0 -36 41q0 40 37 40q35 0 35 -40q0 -20 -10 -30.5t-26 -10.5z" />
    <glyph glyph-name="oslash" unicode="&#xf8;" horiz-adv-x="540" 
d="M101 -28q-6 -8 -12 -8q-9 0 -24 12q-7 6 -7 11t6 13l37 51q-44 61 -44 199q0 79 16.5 132t48.5 80t69.5 37.5t89.5 10.5q90 0 136 -25l38 52q5 8 14 8q6 0 11 -4q17 -11 17 -18q0 -5 -4 -12l-41 -56q45 -57 45 -202q0 -153 -52 -209.5t-170 -56.5q-93 0 -140 32zM440 248
q0 112 -24 157l-249 -342q33 -25 109 -25q44 0 70.5 6.5t50 27.5t33.5 64t10 112zM114 252q0 -102 23 -151l247 338q-33 20 -105 20q-87 0 -126 -42t-39 -165z" />
    <glyph glyph-name="ugrave" unicode="&#xf9;" horiz-adv-x="568" 
d="M88 159v322q0 18 18 18h22q17 0 17 -18v-316q0 -60 10 -83q17 -43 109 -43q88 0 135 18q13 5 18 14q6 10 6 34v376q0 18 18 18h21q18 0 18 -18v-402q0 -45 -30 -59q-69 -33 -200 -33q-124 0 -149 65q-13 31 -13 107zM285 592l-120 130q-9 9 -9 15q0 11 12 14q10 3 31 3
q17 0 29 -14l105 -130q7 -7 7 -15t-9 -11q-7 -3 -22 -3q-14 0 -24 11z" />
    <glyph glyph-name="uacute" unicode="&#xfa;" horiz-adv-x="568" 
d="M88 159v322q0 18 18 18h22q17 0 17 -18v-316q0 -60 10 -83q17 -43 109 -43q88 0 135 18q13 5 18 14q6 10 6 34v376q0 18 18 18h21q18 0 18 -18v-402q0 -45 -30 -59q-69 -33 -200 -33q-124 0 -149 65q-13 31 -13 107zM281 590q-10 -11 -24 -11q-13 0 -22 3t-9 11t7 15
l104 129q13 15 30 15t31 -2q12 -3 12 -13q0 -8 -9 -17z" />
    <glyph glyph-name="ucircumflex" unicode="&#xfb;" horiz-adv-x="568" 
d="M88 159v322q0 18 18 18h22q17 0 17 -18v-316q0 -60 10 -83q17 -43 109 -43q88 0 135 18q13 5 18 14q6 10 6 34v376q0 18 18 18h21q18 0 18 -18v-402q0 -45 -30 -59q-69 -33 -200 -33q-124 0 -149 65q-13 31 -13 107zM176 571q-12 0 -20 3q-10 3 -10 10q0 4 7 15l97 136
q12 15 27 15h19q15 0 24 -13l96 -136q8 -10 8 -16q0 -8 -9 -11q-7 -3 -21 -3q-13 0 -24 13l-86 110l-84 -108q-13 -15 -24 -15z" />
    <glyph glyph-name="udieresis" unicode="&#xfc;" horiz-adv-x="568" 
d="M88 159v322q0 18 18 18h22q17 0 17 -18v-316q0 -60 10 -83q17 -43 109 -43q88 0 135 18q13 5 18 14q6 10 6 34v376q0 18 18 18h21q18 0 18 -18v-402q0 -45 -30 -59q-69 -33 -200 -33q-124 0 -149 65q-13 31 -13 107zM235 663q0 -42 -39 -42t-39 41q0 43 39 43t39 -42z
M411 663q0 -42 -39 -42t-39 41q0 43 39 43t39 -42z" />
    <glyph glyph-name="yacute" unicode="&#xfd;" horiz-adv-x="568" 
d="M88 149v332q0 18 18 18h22q17 0 17 -18v-324q0 -53 9 -76q16 -41 102 -41q92 0 142 26q15 9 19 16q6 10 6 31v368q0 18 18 18h21q18 0 18 -18v-471q0 -71 -16 -122q-40 -122 -291 -122q-21 0 -22 13q-2 16 -2 22q0 17 17 17q84 2 135 13.5t72 28t33 42.5q15 35 15 93v31
q-63 -39 -179 -39q-118 0 -142 63q-12 33 -12 99zM283 590q-10 -11 -24 -11q-13 0 -22 3t-9 11t7 15l104 129q13 15 30 15t31 -2q12 -3 12 -13q0 -8 -9 -17z" />
    <glyph glyph-name="thorn" unicode="&#xfe;" horiz-adv-x="554" 
d="M145 -226q0 -18 -17 -18h-23q-16 0 -16 18v956q0 18 16 18h24q16 0 16 -18v-268q50 46 168 46q101 0 143 -57.5t42 -196.5q0 -153 -52.5 -209.5t-179.5 -56.5q-74 0 -121 21v-235zM145 92q0 -29 19 -37q39 -16 99 -16q106 0 142 45t36 168q0 110 -28 156.5t-110 46.5
t-133 -23q-17 -7 -21 -17q-4 -8 -4 -34v-289z" />
    <glyph glyph-name="ydieresis" unicode="&#xff;" horiz-adv-x="568" 
d="M88 149v332q0 18 18 18h22q17 0 17 -18v-324q0 -53 9 -76q16 -41 102 -41q92 0 142 26q15 9 19 16q6 10 6 31v368q0 18 18 18h21q18 0 18 -18v-471q0 -71 -16 -122q-40 -122 -291 -122q-21 0 -22 13q-2 16 -2 22q0 17 17 17q84 2 135 13.5t72 28t33 42.5q15 35 15 93v31
q-63 -39 -179 -39q-118 0 -142 63q-12 33 -12 99zM240 663q0 -42 -39 -42t-39 41q0 43 39 43t39 -42zM416 663q0 -42 -39 -42t-39 41q0 43 39 43t39 -42z" />
    <glyph glyph-name="Amacron" unicode="&#x100;" horiz-adv-x="585" 
d="M149 232l-75 -211q-4 -13 -8.5 -18.5t-13.5 -5.5q-26 0 -34 3q-9 3 -9 12q0 5 7 26l227 631q8 23 19 32t31 9h11q17 0 26.5 -9t17.5 -33l222 -630q7 -21 7 -26q0 -9 -9 -12q-8 -3 -34 -3q-9 0 -13.5 5.5t-9.5 18.5l-75 211h-287zM166 287h253l-125 367zM417 797h-250
q-17 0 -17 15v24q0 16 18 16h248q18 0 18 -16v-25q0 -14 -17 -14z" />
    <glyph glyph-name="amacron" unicode="&#x101;" horiz-adv-x="522" 
d="M434 84q0 -26 -8 -41q-6 -14 -24 -23q-61 -33 -179 -33q-97 0 -133.5 42.5t-36.5 115.5q0 82 58 116q50 28 152 28q76 0 115 -6v56q0 55 -8 74q-8 22 -31.5 33.5t-80.5 11.5q-64 0 -117 -14q-26 -8 -32 -8q-10 0 -12 10q-5 15 -5 25t14 15q74 24 163 24q101 0 135 -35
q18 -18 24 -47t6 -81v-263zM378 236q-40 5 -110 5q-94 0 -130 -24q-29 -18 -29 -71t25.5 -81t97.5 -28q77 0 119 17q15 6 22 18q5 10 5 33v131zM375 614h-231q-17 0 -17 15v24q0 17 18 17h229q18 0 18 -17v-24q0 -15 -17 -15z" />
    <glyph glyph-name="Abreve" unicode="&#x102;" horiz-adv-x="585" 
d="M149 232l-75 -211q-4 -13 -8.5 -18.5t-13.5 -5.5q-26 0 -34 3q-9 3 -9 12q0 5 7 26l227 631q8 23 19 32t31 9h11q17 0 26.5 -9t17.5 -33l222 -630q7 -21 7 -26q0 -9 -9 -12q-8 -3 -34 -3q-9 0 -13.5 5.5t-9.5 18.5l-75 211h-287zM166 287h253l-125 367zM291 761
q-66 0 -97 25.5t-40 71.5q-3 15 -3 23q0 15 11 19q10 4 24 4q10 0 13 -14q6 -39 26 -58t66 -19q49 0 70.5 19.5t27.5 57.5q3 14 16 14q15 0 22 -3q8 -3 8 -13t-5 -33q-23 -94 -139 -94z" />
    <glyph glyph-name="abreve" unicode="&#x103;" horiz-adv-x="522" 
d="M434 84q0 -26 -8 -41q-6 -14 -24 -23q-61 -33 -179 -33q-97 0 -133.5 42.5t-36.5 115.5q0 82 58 116q50 28 152 28q76 0 115 -6v56q0 55 -8 74q-8 22 -31.5 33.5t-80.5 11.5q-64 0 -117 -14q-26 -8 -32 -8q-10 0 -12 10q-5 15 -5 25t14 15q74 24 163 24q101 0 135 -35
q18 -18 24 -47t6 -81v-263zM378 236q-40 5 -110 5q-94 0 -130 -24q-29 -18 -29 -71t25.5 -81t97.5 -28q77 0 119 17q15 6 22 18q5 10 5 33v131zM368 720q9 0 19 -2q8 -2 8 -14q0 -13 -4 -33q-22 -98 -134 -98q-61 0 -90 25.5t-40 73.5q-3 10 -3 28q0 12 10 16t20 4
q13 0 14 -13q6 -40 26 -61t64 -21q46 0 66.5 20.5t27.5 60.5q3 14 16 14z" />
    <glyph glyph-name="Aogonek" unicode="&#x104;" horiz-adv-x="585" 
d="M149 232l-75 -211q-4 -13 -8.5 -18.5t-13.5 -5.5q-26 0 -34 3q-9 3 -9 12q0 5 7 26l227 631q8 23 19 32t31 9h11q17 0 26.5 -9t17.5 -33l221 -628q7 -21 7 -26q0 -9 -8 -15q-54 -36 -75 -62t-21 -66q0 -57 60 -57q13 0 30 2t20 2q9 0 12 -11q3 -9 3 -18q0 -12 -13 -16
q-24 -7 -61 -7q-52 0 -79.5 25.5t-27.5 73.5q0 51 25 80t78 59q-2 3 -8 17l-75 211h-287zM166 287h253l-125 367z" />
    <glyph glyph-name="aogonek" unicode="&#x105;" horiz-adv-x="522" 
d="M434 84q0 -26 -8 -41q-6 -13 -25 -25q-101 -62 -101 -140q0 -54 58 -54q12 0 28 1t19 1q8 0 11 -9q3 -12 3 -19q0 -13 -13 -15q-25 -6 -58 -6q-49 0 -75 24.5t-26 70.5q0 76 71 121q-39 -6 -95 -6q-97 0 -133.5 42.5t-36.5 115.5q0 82 58 116q50 28 152 28q76 0 115 -6
v56q0 55 -8 74q-8 22 -31.5 33.5t-80.5 11.5q-64 0 -117 -14q-26 -8 -32 -8q-10 0 -12 10q-5 15 -5 25t14 15q74 24 163 24q101 0 135 -35q18 -18 24 -47t6 -81v-263zM378 236q-40 5 -110 5q-94 0 -130 -24q-29 -18 -29 -71t25.5 -81t97.5 -28q77 0 119 17q15 6 22 18
q5 10 5 33v131z" />
    <glyph glyph-name="Cacute" unicode="&#x106;" horiz-adv-x="595" 
d="M125 357q0 -57 3.5 -98t16.5 -85t35.5 -71t62.5 -44.5t96 -17.5q80 0 166 23q28 8 33 8q11 0 16 -14q4 -12 4 -21q0 -13 -23 -20q-90 -30 -200 -30q-138 0 -205 80t-67 275q0 202 63.5 289.5t229.5 87.5q97 0 164 -15q24 -6 24 -20q0 -12 -7 -29q-3 -9 -15 -9q-4 0 -32 6
q-54 13 -140 13q-60 0 -102.5 -17t-66 -43t-36.5 -69.5t-16.5 -82.5t-3.5 -96zM352 773q-16 -12 -32 -12q-13 0 -25 4q-9 3 -9 10q0 10 10 17l134 106q18 14 32 14q16 0 38 -4q12 -3 12 -13t-11 -17z" />
    <glyph glyph-name="cacute" unicode="&#x107;" horiz-adv-x="458" 
d="M114 251q0 -50 5.5 -85t20.5 -66t45.5 -46.5t77.5 -15.5q58 0 116 14q20 6 24 6q8 0 12 -9q5 -15 5 -22q0 -14 -15 -19q-62 -21 -145 -21q-101 0 -152.5 58t-51.5 196q0 140 52 204.5t173 64.5q65 0 113 -12q17 -4 17 -16q0 -9 -6 -27q-4 -11 -13 -11q-3 0 -7 1t-10 2
t-10 2q-47 9 -89 9q-43 0 -73.5 -11.5t-47.5 -29.5t-26.5 -47t-12 -55.5t-2.5 -63.5zM278 590q-10 -11 -24 -11q-13 0 -22 3t-9 11t7 15l104 129q12 15 30 15q17 0 31 -2q12 -3 12 -13q0 -8 -9 -17z" />
    <glyph glyph-name="Ccircumflex" unicode="&#x108;" horiz-adv-x="595" 
d="M125 357q0 -57 3.5 -98t16.5 -85t35.5 -71t62.5 -44.5t96 -17.5q80 0 166 23q28 8 33 8q11 0 16 -14q4 -12 4 -21q0 -13 -23 -20q-90 -30 -200 -30q-138 0 -205 80t-67 275q0 202 63.5 289.5t229.5 87.5q97 0 164 -15q24 -6 24 -20q0 -12 -7 -29q-3 -9 -15 -9q-4 0 -32 6
q-54 13 -140 13q-60 0 -102.5 -17t-66 -43t-36.5 -69.5t-16.5 -82.5t-3.5 -96zM232 761q-12 0 -21 3t-9 11q0 10 8 16l104 100q17 15 29 15h20q14 0 27 -13l109 -105q5 -4 5 -12q0 -9 -10 -12t-24 -3q-10 0 -28 14l-91 74l-89 -74q-15 -14 -30 -14z" />
    <glyph glyph-name="ccircumflex" unicode="&#x109;" horiz-adv-x="458" 
d="M114 251q0 -50 5.5 -85t20.5 -66t45.5 -46.5t77.5 -15.5q58 0 116 14q20 6 24 6q8 0 12 -9q5 -15 5 -22q0 -14 -15 -19q-62 -21 -145 -21q-101 0 -152.5 58t-51.5 196q0 140 52 204.5t173 64.5q65 0 113 -12q17 -4 17 -16q0 -9 -6 -27q-4 -11 -13 -11q-3 0 -7 1t-10 2
t-10 2q-47 9 -89 9q-43 0 -73.5 -11.5t-47.5 -29.5t-26.5 -47t-12 -55.5t-2.5 -63.5zM158 571q-12 0 -20 3q-10 3 -10 10q0 4 7 15l97 136q12 15 27 15h19q15 0 24 -13l96 -136q8 -10 8 -16q0 -8 -9 -11q-7 -3 -21 -3q-13 0 -24 13l-86 110l-84 -108q-13 -15 -24 -15z" />
    <glyph glyph-name="Cdotaccent" unicode="&#x10a;" horiz-adv-x="595" 
d="M125 357q0 -57 3.5 -98t16.5 -85t35.5 -71t62.5 -44.5t96 -17.5q80 0 166 23q28 8 33 8q11 0 16 -14q4 -12 4 -21q0 -13 -23 -20q-90 -30 -200 -30q-138 0 -205 80t-67 275q0 202 63.5 289.5t229.5 87.5q97 0 164 -15q24 -6 24 -20q0 -12 -7 -29q-3 -9 -15 -9q-4 0 -32 6
q-54 13 -140 13q-60 0 -102.5 -17t-66 -43t-36.5 -69.5t-16.5 -82.5t-3.5 -96zM391 818q0 -43 -39 -43t-39 42q0 43 39 43t39 -42z" />
    <glyph glyph-name="cdotaccent" unicode="&#x10b;" horiz-adv-x="458" 
d="M114 251q0 -50 5.5 -85t20.5 -66t45.5 -46.5t77.5 -15.5q58 0 116 14q20 6 24 6q8 0 12 -9q5 -15 5 -22q0 -14 -15 -19q-62 -21 -145 -21q-101 0 -152.5 58t-51.5 196q0 140 52 204.5t173 64.5q65 0 113 -12q17 -4 17 -16q0 -9 -6 -27q-4 -11 -13 -11q-3 0 -7 1t-10 2
t-10 2q-47 9 -89 9q-43 0 -73.5 -11.5t-47.5 -29.5t-26.5 -47t-12 -55.5t-2.5 -63.5zM311 663q0 -42 -39 -42t-39 41q0 43 39 43t39 -42z" />
    <glyph glyph-name="Ccaron" unicode="&#x10c;" horiz-adv-x="595" 
d="M125 357q0 -57 3.5 -98t16.5 -85t35.5 -71t62.5 -44.5t96 -17.5q80 0 166 23q28 8 33 8q11 0 16 -14q4 -12 4 -21q0 -13 -23 -20q-90 -30 -200 -30q-138 0 -205 80t-67 275q0 202 63.5 289.5t229.5 87.5q97 0 164 -15q24 -6 24 -20q0 -12 -7 -29q-3 -9 -15 -9q-4 0 -32 6
q-54 13 -140 13q-60 0 -102.5 -17t-66 -43t-36.5 -69.5t-16.5 -82.5t-3.5 -96zM468 910q12 0 21 -3q10 -3 10 -11q0 -7 -9 -16l-104 -99q-16 -16 -29 -16h-20q-14 0 -27 13l-107 104q-6 4 -6 12q0 10 10 13q11 3 23 3t28 -13l91 -75l89 74q17 14 30 14z" />
    <glyph glyph-name="ccaron" unicode="&#x10d;" horiz-adv-x="458" 
d="M114 251q0 -50 5.5 -85t20.5 -66t45.5 -46.5t77.5 -15.5q58 0 116 14q20 6 24 6q8 0 12 -9q5 -15 5 -22q0 -14 -15 -19q-62 -21 -145 -21q-101 0 -152.5 58t-51.5 196q0 140 52 204.5t173 64.5q65 0 113 -12q17 -4 17 -16q0 -9 -6 -27q-4 -11 -13 -11q-3 0 -7 1t-10 2
t-10 2q-47 9 -89 9q-43 0 -73.5 -11.5t-47.5 -29.5t-26.5 -47t-12 -55.5t-2.5 -63.5zM380 754q12 0 21 -3t9 -10q0 -6 -7 -15l-97 -136q-12 -15 -27 -15h-19q-15 0 -24 13l-96 136q-8 10 -8 16q0 8 9 11t21 3q13 0 24 -13l86 -110l84 108q11 15 24 15z" />
    <glyph glyph-name="Dcaron" unicode="&#x10e;" horiz-adv-x="699" 
d="M271 0h-80q-47 0 -66 20t-19 66v531q0 48 19 68.5t68 20.5h84q115 0 179 -19q180 -52 180 -326q0 -128 -41.5 -213.5t-142.5 -123.5q-64 -24 -181 -24zM166 97q0 -42 39 -42h78q105 0 157 24q133 60 133 283q0 207 -122 265q-51 25 -170 25h-80q-35 0 -35 -39v-516z
M444 910q12 0 21 -3q10 -3 10 -11q0 -7 -9 -16l-104 -99q-16 -16 -29 -16h-20q-14 0 -27 13l-107 104q-6 4 -6 12q0 10 10 13t23 3q12 0 28 -13l91 -75l89 74q17 14 30 14z" />
    <glyph glyph-name="dcaron" unicode="&#x10f;" horiz-adv-x="554" 
d="M466 82q0 -26 -5 -36q-8 -17 -30 -28q-64 -31 -173 -31q-106 0 -154 57.5t-48 193.5q0 154 55 213t179 59q79 0 119 -18v238q0 18 18 18h22q17 0 17 -18v-648zM409 109v298q0 29 -18 37q-34 14 -102 14q-103 0 -139 -48t-36 -167q0 -107 31.5 -156.5t112.5 -49.5
q84 0 126 19q15 7 20 18q5 10 5 35zM583 748h17q20 0 20 -22q0 -106 -65 -170q-10 -10 -18 -10q-7 0 -16 7q-9 8 -9 13q0 6 6 14q41 50 43 144q0 24 22 24z" />
    <glyph glyph-name="Dcroat" unicode="&#x110;" horiz-adv-x="699" 
d="M271 0h-80q-47 0 -66 20t-19 66v256h-65q-16 0 -16 14v22q0 16 17 16h64v223q0 48 19 68.5t68 20.5h84q115 0 179 -19q180 -52 180 -326q0 -128 -41.5 -213.5t-142.5 -123.5q-64 -24 -181 -24zM166 97q0 -42 39 -42h78q105 0 157 24q133 60 133 283q0 207 -122 265
q-51 25 -170 25h-80q-35 0 -35 -39v-219h198q17 0 17 -16v-22q0 -14 -16 -14h-199v-245z" />
    <glyph glyph-name="dcroat" unicode="&#x111;" horiz-adv-x="554" 
d="M466 82q0 -26 -5 -36q-8 -17 -30 -28q-64 -31 -173 -31q-106 0 -154 57.5t-48 193.5q0 154 55 213t179 59q79 0 119 -18v97h-111q-16 0 -16 14v16q0 17 17 17h110v94q0 18 18 18h22q17 0 17 -18v-94h68q17 0 17 -17v-16q0 -14 -16 -14h-69v-507zM409 109v298q0 29 -18 37
q-34 14 -102 14q-103 0 -139 -48t-36 -167q0 -107 31.5 -156.5t112.5 -49.5q84 0 126 19q15 7 20 18q5 10 5 35z" />
    <glyph glyph-name="Emacron" unicode="&#x112;" horiz-adv-x="555" 
d="M497 0h-300q-49 0 -70 18.5t-21 71.5v525q0 50 19.5 70.5t70.5 20.5h287q18 0 18 -17v-21q0 -17 -18 -17h-283q-34 0 -34 -38v-218h286q19 0 19 -17v-21q0 -16 -19 -16h-286v-244q0 -42 39 -42h292q19 0 19 -17v-21q0 -17 -19 -17zM440 797h-250q-17 0 -17 15v24
q0 16 18 16h248q18 0 18 -16v-25q0 -14 -17 -14z" />
    <glyph glyph-name="emacron" unicode="&#x113;" horiz-adv-x="512" 
d="M113 234q1 -114 42 -155t129 -41q66 0 117 16q20 6 27 6q9 0 12 -8q7 -14 7 -24q0 -12 -16 -17q-65 -24 -152 -24q-122 0 -173 61t-51 199t55.5 200.5t166.5 62.5q60 0 98 -16.5t56 -52t23.5 -73.5t5.5 -99q0 -23 -7 -30q-5 -5 -20 -5h-320zM114 282h288q1 8 1 27
q0 75 -26.5 112.5t-104.5 37.5q-87 0 -121.5 -45.5t-36.5 -131.5zM390 614h-231q-17 0 -17 15v24q0 17 18 17h229q18 0 18 -17v-24q0 -15 -17 -15z" />
    <glyph glyph-name="Ebreve" unicode="&#x114;" horiz-adv-x="555" 
d="M497 0h-300q-49 0 -70 18.5t-21 71.5v525q0 50 19.5 70.5t70.5 20.5h287q18 0 18 -17v-21q0 -17 -18 -17h-283q-34 0 -34 -38v-218h286q19 0 19 -17v-21q0 -16 -19 -16h-286v-244q0 -42 39 -42h292q19 0 19 -17v-21q0 -17 -19 -17zM305 761q-66 0 -97 25.5t-40 71.5
q-3 15 -3 23q0 15 11 19q10 4 24 4q10 0 13 -14q6 -39 26 -58t66 -19q49 0 70.5 19.5t27.5 57.5q3 14 16 14q15 0 22 -3q8 -3 8 -13t-5 -33q-23 -94 -139 -94z" />
    <glyph glyph-name="ebreve" unicode="&#x115;" horiz-adv-x="512" 
d="M113 234q1 -114 42 -155t129 -41q66 0 117 16q20 6 27 6q9 0 12 -8q7 -14 7 -24q0 -12 -16 -17q-65 -24 -152 -24q-122 0 -173 61t-51 199t55.5 200.5t166.5 62.5q60 0 98 -16.5t56 -52t23.5 -73.5t5.5 -99q0 -23 -7 -30q-5 -5 -20 -5h-320zM114 282h288q1 8 1 27
q0 75 -26.5 112.5t-104.5 37.5q-87 0 -121.5 -45.5t-36.5 -131.5zM378 720q9 0 19 -2q8 -2 8 -14q0 -13 -4 -33q-22 -98 -134 -98q-61 0 -90 25.5t-40 73.5q-3 10 -3 28q0 12 10 16t20 4q13 0 14 -13q6 -40 26 -61t64 -21q46 0 66.5 20.5t27.5 60.5q3 14 16 14z" />
    <glyph glyph-name="Edotaccent" unicode="&#x116;" horiz-adv-x="555" 
d="M497 0h-300q-49 0 -70 18.5t-21 71.5v525q0 50 19.5 70.5t70.5 20.5h287q18 0 18 -17v-21q0 -17 -18 -17h-283q-34 0 -34 -38v-218h286q19 0 19 -17v-21q0 -16 -19 -16h-286v-244q0 -42 39 -42h292q19 0 19 -17v-21q0 -17 -19 -17zM354 818q0 -43 -39 -43t-39 42
q0 43 39 43t39 -42z" />
    <glyph glyph-name="edotaccent" unicode="&#x117;" horiz-adv-x="512" 
d="M113 234q1 -114 42 -155t129 -41q66 0 117 16q20 6 27 6q9 0 12 -8q7 -14 7 -24q0 -12 -16 -17q-65 -24 -152 -24q-122 0 -173 61t-51 199t55.5 200.5t166.5 62.5q60 0 98 -16.5t56 -52t23.5 -73.5t5.5 -99q0 -23 -7 -30q-5 -5 -20 -5h-320zM114 282h288q1 8 1 27
q0 75 -26.5 112.5t-104.5 37.5q-87 0 -121.5 -45.5t-36.5 -131.5zM310 663q0 -42 -39 -42t-39 41q0 43 39 43t39 -42z" />
    <glyph glyph-name="Eogonek" unicode="&#x118;" horiz-adv-x="555" 
d="M497 0h-20q-56 -38 -76.5 -63.5t-20.5 -65.5q0 -57 60 -57q13 0 30 2t20 2q9 0 12 -11q3 -9 3 -18q0 -12 -13 -16q-24 -7 -61 -7q-52 0 -79.5 25.5t-27.5 73.5q0 50 23.5 78.5t71.5 56.5h-222q-49 0 -70 18.5t-21 71.5v525q0 50 19.5 70.5t70.5 20.5h287q18 0 18 -17v-21
q0 -17 -18 -17h-283q-34 0 -34 -38v-218h286q19 0 19 -17v-21q0 -16 -19 -16h-286v-244q0 -42 39 -42h292q19 0 19 -17v-21q0 -17 -19 -17z" />
    <glyph glyph-name="eogonek" unicode="&#x119;" horiz-adv-x="512" 
d="M113 234q1 -114 42 -155t129 -41q66 0 117 16q20 6 27 6q9 0 12 -8q7 -14 7 -24q0 -12 -16 -17q-25 -9 -59 -16q-48 -32 -66 -56.5t-18 -60.5q0 -54 58 -54q12 0 28 1t19 1q8 0 11 -9q3 -12 3 -19q0 -13 -13 -15q-26 -6 -58 -6q-49 0 -75 24.5t-26 70.5q0 41 17 67.5
t51 48.5q-8 -1 -24 -1q-122 0 -173 61t-51 199t55.5 200.5t166.5 62.5q60 0 98 -16.5t56 -52t23.5 -73.5t5.5 -99q0 -23 -7 -30q-5 -5 -20 -5h-320zM114 282h288q1 8 1 27q0 75 -26.5 112.5t-104.5 37.5q-87 0 -121.5 -45.5t-36.5 -131.5z" />
    <glyph glyph-name="Ecaron" unicode="&#x11a;" horiz-adv-x="555" 
d="M497 0h-300q-49 0 -70 18.5t-21 71.5v525q0 50 19.5 70.5t70.5 20.5h287q18 0 18 -17v-21q0 -17 -18 -17h-283q-34 0 -34 -38v-218h286q19 0 19 -17v-21q0 -16 -19 -16h-286v-244q0 -42 39 -42h292q19 0 19 -17v-21q0 -17 -19 -17zM427 910q12 0 21 -3q10 -3 10 -11
q0 -7 -9 -16l-104 -99q-16 -16 -29 -16h-20q-14 0 -27 13l-107 104q-6 4 -6 12q0 10 10 13q11 3 23 3t28 -13l91 -75l89 74q17 14 30 14z" />
    <glyph glyph-name="ecaron" unicode="&#x11b;" horiz-adv-x="512" 
d="M113 234q1 -114 42 -155t129 -41q66 0 117 16q20 6 27 6q9 0 12 -8q7 -14 7 -24q0 -12 -16 -17q-65 -24 -152 -24q-122 0 -173 61t-51 199t55.5 200.5t166.5 62.5q60 0 98 -16.5t56 -52t23.5 -73.5t5.5 -99q0 -23 -7 -30q-5 -5 -20 -5h-320zM114 282h288q1 8 1 27
q0 75 -26.5 112.5t-104.5 37.5q-87 0 -121.5 -45.5t-36.5 -131.5zM382 754q12 0 21 -3t9 -10q0 -6 -7 -15l-97 -136q-12 -15 -27 -15h-19q-15 0 -24 13l-96 136q-8 10 -8 16q0 8 9 11t21 3q13 0 24 -13l86 -110l84 108q11 15 24 15z" />
    <glyph glyph-name="Gcircumflex" unicode="&#x11c;" horiz-adv-x="661" 
d="M592 77q0 -21 -8 -34q-6 -10 -25 -20q-74 -36 -220 -36q-141 0 -208.5 79.5t-67.5 275.5q0 201 67 289t238 88q99 0 166 -15q23 -5 23 -20q0 -12 -5 -29q-3 -9 -14 -9q-9 0 -34 5q-65 14 -154 14q-58 0 -100 -17.5t-65.5 -45t-37.5 -70t-18 -82.5t-4 -93q0 -55 3 -93.5
t15 -84t34.5 -73t63 -46.5t98.5 -19q99 0 168 19q15 5 20.5 12.5t5.5 24.5v217h-169q-17 0 -17 16v23q0 16 17 16h207q21 0 21 -23v-269zM239 761q-12 0 -21 3t-9 11q0 10 8 16l104 100q17 15 29 15h20q14 0 27 -13l109 -105q5 -4 5 -12q0 -9 -10 -12q-11 -3 -24 -3
q-11 0 -28 14l-91 74l-89 -74q-15 -14 -30 -14z" />
    <glyph glyph-name="gcircumflex" unicode="&#x11d;" horiz-adv-x="552" 
d="M404 18q-47 -30 -151 -30q-103 0 -150 57t-47 193q0 153 53.5 212t175.5 59q88 0 150 -18q28 -8 28 -38v-442q0 -76 -16 -123q-39 -122 -297 -122q-19 0 -22 13q-1 7 -1 21q0 18 16 18q120 3 173.5 23t71.5 59q16 33 16 94v24zM407 100v315q0 24 -18 30q-36 12 -107 12
q-101 0 -134.5 -48t-33.5 -165q0 -108 30.5 -156.5t111.5 -48.5q84 0 126 19q18 7 22 19q3 6 3 23zM181 571q-13 0 -20 3q-10 3 -10 10q0 4 7 15l97 136q12 15 27 15h19q15 0 24 -13l96 -136q8 -10 8 -16q0 -8 -9 -11q-8 -3 -21 -3t-24 13l-86 110l-84 -108q-13 -15 -24 -15
z" />
    <glyph glyph-name="Gbreve" unicode="&#x11e;" horiz-adv-x="661" 
d="M592 77q0 -21 -8 -34q-6 -10 -25 -20q-74 -36 -220 -36q-141 0 -208.5 79.5t-67.5 275.5q0 201 67 289t238 88q99 0 166 -15q23 -5 23 -20q0 -12 -5 -29q-3 -9 -14 -9q-9 0 -34 5q-65 14 -154 14q-58 0 -100 -17.5t-65.5 -45t-37.5 -70t-18 -82.5t-4 -93q0 -55 3 -93.5
t15 -84t34.5 -73t63 -46.5t98.5 -19q99 0 168 19q15 5 20.5 12.5t5.5 24.5v217h-169q-17 0 -17 16v23q0 16 17 16h207q21 0 21 -23v-269zM356 761q-66 0 -97 25.5t-40 71.5q-3 15 -3 23q0 15 11 19q10 4 24 4q10 0 13 -14q6 -39 26 -58t66 -19q49 0 70.5 19.5t27.5 57.5
q3 14 16 14q14 0 22 -3t8 -13t-5 -33q-23 -94 -139 -94z" />
    <glyph glyph-name="gbreve" unicode="&#x11f;" horiz-adv-x="552" 
d="M404 18q-47 -30 -151 -30q-103 0 -150 57t-47 193q0 153 53.5 212t175.5 59q88 0 150 -18q28 -8 28 -38v-442q0 -76 -16 -123q-39 -122 -297 -122q-19 0 -22 13q-1 7 -1 21q0 18 16 18q120 3 173.5 23t71.5 59q16 33 16 94v24zM407 100v315q0 24 -18 30q-36 12 -107 12
q-101 0 -134.5 -48t-33.5 -165q0 -108 30.5 -156.5t111.5 -48.5q84 0 126 19q18 7 22 19q3 6 3 23zM390 720q9 0 19 -2q8 -2 8 -14q0 -13 -4 -33q-22 -98 -134 -98q-61 0 -90 25.5t-40 73.5q-3 10 -3 28q0 12 10 16t20 4q13 0 14 -13q6 -40 26 -61t64 -21q46 0 66.5 20.5
t27.5 60.5q3 14 16 14z" />
    <glyph glyph-name="Gdotaccent" unicode="&#x120;" horiz-adv-x="661" 
d="M592 77q0 -21 -8 -34q-6 -10 -25 -20q-74 -36 -220 -36q-141 0 -208.5 79.5t-67.5 275.5q0 201 67 289t238 88q99 0 166 -15q23 -5 23 -20q0 -12 -5 -29q-3 -9 -14 -9q-9 0 -34 5q-65 14 -154 14q-58 0 -100 -17.5t-65.5 -45t-37.5 -70t-18 -82.5t-4 -93q0 -55 3 -93.5
t15 -84t34.5 -73t63 -46.5t98.5 -19q99 0 168 19q15 5 20.5 12.5t5.5 24.5v217h-169q-17 0 -17 16v23q0 16 17 16h207q21 0 21 -23v-269zM405 818q0 -43 -39 -43t-39 42q0 43 39 43t39 -42z" />
    <glyph glyph-name="gdotaccent" unicode="&#x121;" horiz-adv-x="552" 
d="M404 18q-47 -30 -151 -30q-103 0 -150 57t-47 193q0 153 53.5 212t175.5 59q88 0 150 -18q28 -8 28 -38v-442q0 -76 -16 -123q-39 -122 -297 -122q-19 0 -22 13q-1 7 -1 21q0 18 16 18q120 3 173.5 23t71.5 59q16 33 16 94v24zM407 100v315q0 24 -18 30q-36 12 -107 12
q-101 0 -134.5 -48t-33.5 -165q0 -108 30.5 -156.5t111.5 -48.5q84 0 126 19q18 7 22 19q3 6 3 23zM325 663q0 -42 -39 -42t-39 41q0 43 39 43t39 -42z" />
    <glyph glyph-name="Gcommaaccent" unicode="&#x122;" horiz-adv-x="661" 
d="M592 77q0 -21 -8 -34q-6 -10 -25 -20q-74 -36 -220 -36q-141 0 -208.5 79.5t-67.5 275.5q0 201 67 289t238 88q99 0 166 -15q23 -5 23 -20q0 -12 -5 -29q-3 -9 -14 -9q-9 0 -34 5q-65 14 -154 14q-58 0 -100 -17.5t-65.5 -45t-37.5 -70t-18 -82.5t-4 -93q0 -55 3 -93.5
t15 -84t34.5 -73t63 -46.5t98.5 -19q99 0 168 19q15 5 20.5 12.5t5.5 24.5v217h-169q-17 0 -17 16v23q0 16 17 16h207q21 0 21 -23v-269zM358 -68h17q20 0 20 -22q0 -105 -65 -170q-10 -10 -18 -10t-16 6q-8 7 -8 14t5 14q41 50 43 144q0 24 22 24z" />
    <glyph glyph-name="gcommaaccent" unicode="&#x123;" horiz-adv-x="552" 
d="M404 18q-47 -30 -151 -30q-103 0 -150 57t-47 193q0 153 53.5 212t175.5 59q88 0 150 -18q28 -8 28 -38v-442q0 -76 -16 -123q-39 -122 -297 -122q-20 0 -21 13q-2 7 -2 21q0 17 17 17q122 3 174 23.5t70 59.5q16 33 16 94v24zM407 100v315q0 24 -18 30q-36 12 -107 12
q-101 0 -134.5 -48t-33.5 -165q0 -108 30.5 -156.5t111.5 -48.5q84 0 126 19q18 7 22 19q3 6 3 23zM289 579h-21q-19 0 -19 20q0 105 63 171q9 11 19 11q7 0 16 -7q9 -6 9 -14q0 -7 -6 -15q-40 -57 -40 -140q0 -26 -21 -26z" />
    <glyph glyph-name="Hcircumflex" unicode="&#x124;" horiz-adv-x="705" 
d="M166 17q0 -20 -18 -20h-24q-18 0 -18 20v673q0 20 19 20h24q17 0 17 -20v-295h373v295q0 20 19 20h24q17 0 17 -20v-673q0 -20 -18 -20h-24q-18 0 -18 20v324h-373v-324zM233 761q-12 0 -21 3t-9 11q0 10 8 16l104 100q17 15 29 15h20q14 0 27 -13l109 -105q5 -4 5 -12
q0 -9 -10 -12q-11 -3 -24 -3q-11 0 -28 14l-91 74l-89 -74q-15 -14 -30 -14z" />
    <glyph glyph-name="hcircumflex" unicode="&#x125;" horiz-adv-x="568" 
d="M145 16q0 -19 -18 -19h-21q-18 0 -18 19v716q0 20 16 20h26q15 0 15 -19v-267q54 42 189 42q64 0 94 -14.5t42 -45.5q10 -24 10 -98v-334q0 -19 -18 -19h-22q-17 0 -17 19v326q0 52 -8 73q-7 21 -28 31t-68 10q-95 0 -151 -27q-12 -7 -18 -17q-5 -10 -5 -30v-366zM20 773
q-12 0 -21 3t-9 11q0 10 8 16l104 100q17 15 29 15h20q14 0 27 -13l109 -105q5 -4 5 -12q0 -9 -10 -12t-24 -3q-10 0 -28 14l-91 74l-89 -74q-15 -14 -30 -14z" />
    <glyph glyph-name="Hbar" unicode="&#x126;" horiz-adv-x="705" 
d="M166 17q0 -20 -18 -20h-24q-18 0 -18 20v475h-64q-17 0 -17 15v21q0 16 17 16h64v146q0 20 19 20h24q17 0 17 -20v-146h373v146q0 20 19 20h24q17 0 17 -20v-146h62q17 0 17 -16v-22q0 -14 -16 -14h-63v-475q0 -20 -18 -20h-24q-18 0 -18 20v324h-373v-324zM166 395h373
v97h-373v-97z" />
    <glyph glyph-name="hbar" unicode="&#x127;" horiz-adv-x="568" 
d="M145 16q0 -19 -18 -19h-21q-18 0 -18 19v573h-54q-16 0 -16 14v16q0 17 17 17h53v96q0 20 16 20h26q15 0 15 -19v-97h125q17 0 17 -17v-16q0 -14 -16 -14h-126v-123q54 42 189 42q64 0 94 -14.5t42 -45.5q10 -24 10 -98v-334q0 -19 -18 -19h-22q-17 0 -17 19v326
q0 52 -8 73q-7 21 -28 31t-68 10q-95 0 -151 -27q-12 -7 -18 -17q-5 -10 -5 -30v-366z" />
    <glyph glyph-name="Itilde" unicode="&#x128;" horiz-adv-x="272" 
d="M166 17q0 -20 -18 -20h-24q-18 0 -18 20v673q0 20 19 20h24q17 0 17 -20v-673zM1 773q-13 0 -21 3q-8 4 -8 13q0 6 7 23q30 72 83 72q26 0 80 -30q42 -22 64 -22q28 0 43 40q7 18 20 18q11 0 21 -4q8 -3 8 -11q0 -6 -5 -21q-26 -80 -85 -80q-27 0 -80 27q-49 26 -68 26
q-13 0 -21 -8t-18 -30q-6 -16 -20 -16z" />
    <glyph glyph-name="itilde" unicode="&#x129;" horiz-adv-x="233" 
d="M-11 604q-12 0 -18 2q-10 3 -10 11q0 6 6 21q31 74 79 74q24 0 77 -30q41 -23 62 -23q14 0 23 8t17 32q7 18 19 18q9 0 19 -2q9 -3 9 -12t-5 -22q-14 -43 -33 -60.5t-47 -17.5q-27 0 -78 27q-51 26 -63 26t-20.5 -7.5t-17.5 -29.5q-6 -15 -19 -15zM145 16q0 -19 -17 -19
h-22q-17 0 -17 19v464q0 19 17 19h22q17 0 17 -19v-464z" />
    <glyph glyph-name="Imacron" unicode="&#x12a;" horiz-adv-x="272" 
d="M166 17q0 -20 -18 -20h-24q-18 0 -18 20v673q0 20 19 20h24q17 0 17 -20v-673zM260 797h-250q-17 0 -17 15v24q0 16 18 16h248q18 0 18 -16v-25q0 -14 -17 -14z" />
    <glyph glyph-name="imacron" unicode="&#x12b;" horiz-adv-x="233" 
d="M234 614h-231q-17 0 -17 15v24q0 17 18 17h229q18 0 18 -17v-24q0 -15 -17 -15zM145 16q0 -19 -17 -19h-22q-17 0 -17 19v464q0 19 17 19h22q17 0 17 -19v-464z" />
    <glyph glyph-name="Ibreve" unicode="&#x12c;" horiz-adv-x="272" 
d="M166 17q0 -20 -18 -20h-24q-18 0 -18 20v673q0 20 19 20h24q17 0 17 -20v-673zM134 761q-66 0 -97 25.5t-40 71.5q-3 15 -3 23q0 15 11 19q10 4 24 4q10 0 13 -14q6 -39 26 -58t66 -19q49 0 70.5 19.5t27.5 57.5q3 14 16 14q14 0 22 -3t8 -13t-5 -33q-23 -94 -139 -94z
" />
    <glyph glyph-name="ibreve" unicode="&#x12d;" horiz-adv-x="233" 
d="M232 720q9 0 19 -2q8 -2 8 -14q0 -13 -4 -33q-22 -98 -134 -98q-61 0 -90 25.5t-40 73.5q-3 10 -3 28q0 12 10 16t20 4q13 0 14 -13q6 -40 26 -61t64 -21q46 0 66.5 20.5t27.5 60.5q3 14 16 14zM145 16q0 -19 -17 -19h-22q-17 0 -17 19v464q0 19 17 19h22q17 0 17 -19
v-464z" />
    <glyph glyph-name="Iogonek" unicode="&#x12e;" horiz-adv-x="272" 
d="M166 17q0 -13 -8 -18q-56 -39 -77 -64.5t-21 -63.5q0 -57 60 -57q13 0 30 2t20 2q9 0 12 -11q3 -9 3 -18q0 -12 -13 -16q-24 -7 -61 -7q-52 0 -79.5 25.5t-27.5 73.5q0 51 25 80.5t79 59.5q-2 4 -2 15v670q0 20 19 20h24q17 0 17 -20v-673z" />
    <glyph glyph-name="iogonek" unicode="&#x12f;" horiz-adv-x="233" 
d="M145 16q0 -12 -9 -18q-50 -34 -69.5 -59t-19.5 -61q0 -54 58 -54q11 0 28 1t19 1q8 0 11 -9q3 -12 3 -19q0 -13 -13 -15q-25 -6 -58 -6q-49 0 -75 24.5t-26 70.5q0 49 23.5 76t73.5 56q-3 4 -3 12v464q0 19 18 19h22q17 0 17 -19v-464zM156 664q0 -44 -40 -44
q-41 0 -41 43t41 43q40 0 40 -42z" />
    <glyph glyph-name="Idotaccent" unicode="&#x130;" horiz-adv-x="272" 
d="M166 17q0 -20 -18 -20h-24q-18 0 -18 20v673q0 20 19 20h24q17 0 17 -20v-673zM174 818q0 -43 -39 -43t-39 42q0 43 39 43t39 -42z" />
    <glyph glyph-name="dotlessi" unicode="&#x131;" horiz-adv-x="233" 
d="M145 16q0 -19 -17 -19h-22q-17 0 -17 19v464q0 19 17 19h22q17 0 17 -19v-464z" />
    <glyph glyph-name="IJ" unicode="&#x132;" horiz-adv-x="573" 
d="M166 17q0 -20 -18 -20h-24q-18 0 -18 20v673q0 20 19 20h24q17 0 17 -20v-673zM467 44q0 -94 -44 -132q-25 -21 -70.5 -39.5t-67.5 -18.5q-14 0 -18 11q-4 12 -4 24q0 15 20 19q60 13 88 34q36 26 36 101v647q0 20 19 20h24q17 0 17 -20v-646z" />
    <glyph glyph-name="ij" unicode="&#x133;" horiz-adv-x="494" 
d="M145 16q0 -19 -18 -19h-21q-18 0 -18 19v464q0 19 18 19h22q17 0 17 -19v-464zM156 664q0 -44 -40 -44q-41 0 -41 43t41 43q40 0 40 -42zM389 480v-537q0 -89 -38 -125q-23 -22 -64 -37t-71 -15q-13 0 -16 11q-3 9 -3 21q0 14 20 18q56 11 86 33q30 25 30 93v538
q0 19 17 19h22q17 0 17 -19zM401 664q0 -44 -40 -44q-41 0 -41 43t41 43q20 0 30 -9t10 -33z" />
    <glyph glyph-name="Jcircumflex" unicode="&#x134;" horiz-adv-x="302" 
d="M196 44q0 -94 -44 -132q-25 -21 -70.5 -39.5t-67.5 -18.5q-14 0 -18 11q-4 12 -4 24q0 15 20 19q60 13 88 34q36 26 36 101v647q0 20 19 20h24q17 0 17 -20v-646zM46 761q-12 0 -21 3t-9 11q0 10 8 16l104 100q17 15 29 15h20q14 0 27 -13l109 -105q5 -4 5 -12
q0 -9 -10 -12t-24 -3q-10 0 -28 14l-91 74l-89 -74q-15 -14 -30 -14z" />
    <glyph glyph-name="jcircumflex" unicode="&#x135;" horiz-adv-x="233" 
d="M152 486v-573q0 -90 -34 -123q-40 -40 -135 -40q-24 0 -24 16q0 15 1 22q1 13 20 14q65 0 90 22t25 88v574q0 19 17 19h22q18 0 18 -19zM15 571q-13 0 -20 3q-10 3 -10 10q0 4 7 15l97 136q12 15 27 15h19q15 0 24 -13l96 -136q8 -10 8 -16q0 -8 -9 -11q-8 -3 -21 -3
t-24 13l-86 110l-84 -108q-13 -15 -24 -15z" />
    <glyph glyph-name="Kcommaaccent" unicode="&#x136;" horiz-adv-x="601" 
d="M166 17q0 -20 -18 -20h-24q-18 0 -18 20v673q0 20 19 20h24q17 0 17 -20v-296h88q31 0 44 17l209 283q11 15 27 15q22 0 30 -1q11 -1 11 -12q0 -8 -10 -22l-233 -305l250 -334q12 -16 12 -23q0 -10 -10 -12q-11 -2 -35 -2q-14 0 -26 15l-231 311q-13 17 -38 17h-88v-324z
M313 -68h17q20 0 20 -22q0 -105 -65 -170q-10 -10 -18 -10q-9 0 -16 6q-8 7 -8 14t5 14q41 50 43 144q0 24 22 24z" />
    <glyph glyph-name="kcommaaccent" unicode="&#x137;" horiz-adv-x="502" 
d="M145 16q0 -19 -18 -19h-21q-18 0 -18 19v704q0 19 18 19h22q17 0 17 -19v-419h70q31 0 44 17l140 167q11 14 26 14q23 0 24 -1q14 0 14 -11q0 -9 -10 -21l-161 -187l191 -245q11 -14 11 -22q0 -12 -15 -14q-1 0 -12 -0.5t-13 -0.5q-14 0 -26 15l-172 221q-14 18 -38 18
h-73v-235zM267 -68h17q20 0 20 -22q0 -105 -65 -170q-10 -10 -18 -10q-9 0 -16 6q-8 7 -8 14t5 14q41 50 43 144q0 24 22 24z" />
    <glyph glyph-name="kgreenlandic" unicode="&#x138;" horiz-adv-x="502" 
d="M145 16q0 -19 -18 -19h-21q-18 0 -18 19v464q0 19 18 19h22q17 0 17 -19v-189h70q31 0 44 17l140 177q11 14 26 14q22 0 24 -1q14 0 14 -11q0 -9 -10 -21l-162 -196l192 -236q12 -15 12 -23q0 -12 -16 -13q-10 -1 -25 -1q-14 0 -26 15l-172 211q-14 18 -38 18h-73v-225z
" />
    <glyph glyph-name="Lacute" unicode="&#x139;" horiz-adv-x="541" 
d="M496 0h-301q-49 0 -69 19.5t-20 66.5v604q0 20 19 20h24q17 0 17 -20v-594q0 -41 39 -41h291q19 0 19 -17v-21q0 -17 -19 -17zM147 773q-16 -12 -32 -12q-13 0 -25 4q-9 3 -9 10q0 10 10 17l134 106q18 14 32 14q16 0 38 -4q12 -3 12 -13t-11 -17z" />
    <glyph glyph-name="lacute" unicode="&#x13a;" horiz-adv-x="250" 
d="M145 125q0 -41 13 -58q16 -18 54 -22q15 -1 15 -15q0 -16 -3 -24q-3 -9 -18 -9q-77 0 -104 47q-14 24 -14 75v610q0 19 19 19h22q16 0 16 -19v-604zM124 793q-16 -12 -32 -12q-13 0 -25 4q-9 3 -9 10q0 10 10 17l134 106q18 14 32 14q16 0 38 -4q12 -3 12 -13t-11 -17z
" />
    <glyph glyph-name="Lcommaaccent" unicode="&#x13b;" horiz-adv-x="541" 
d="M496 0h-301q-49 0 -69 19.5t-20 66.5v604q0 20 19 20h24q17 0 17 -20v-594q0 -41 39 -41h291q19 0 19 -17v-21q0 -17 -19 -17zM295 -68h17q20 0 20 -22q0 -105 -65 -170q-10 -10 -18 -10t-16 6q-8 7 -8 14t5 14q41 50 43 144q0 24 22 24z" />
    <glyph glyph-name="lcommaaccent" unicode="&#x13c;" horiz-adv-x="250" 
d="M145 125q0 -41 13 -58q16 -18 54 -22q15 -1 15 -15q0 -16 -3 -24q-3 -9 -18 -9q-77 0 -104 47q-14 24 -14 75v610q0 19 19 19h22q16 0 16 -19v-604zM141 -68h17q20 0 20 -22q0 -105 -65 -170q-10 -10 -18 -10q-9 0 -16 6q-8 7 -8 14t5 14q41 50 43 144q0 24 22 24z" />
    <glyph glyph-name="Lcaron" unicode="&#x13d;" horiz-adv-x="541" 
d="M496 0h-301q-49 0 -69 19.5t-20 66.5v604q0 20 19 20h24q17 0 17 -20v-594q0 -41 39 -41h291q19 0 19 -17v-21q0 -17 -19 -17zM323 720h17q20 0 20 -22q0 -106 -65 -170q-10 -10 -18 -10q-7 0 -16 7t-9 13t6 14q41 50 43 144q0 24 22 24z" />
    <glyph glyph-name="lcaron" unicode="&#x13e;" horiz-adv-x="250" 
d="M145 125q0 -41 13 -58q16 -18 54 -22q15 -1 15 -15q0 -16 -3 -24q-3 -9 -18 -9q-77 0 -104 47q-14 24 -14 75v610q0 19 19 19h22q16 0 16 -19v-604zM275 748h17q20 0 20 -22q0 -106 -65 -170q-10 -10 -18 -10q-7 0 -16 7t-9 13t6 14q41 50 43 144q0 24 22 24z" />
    <glyph glyph-name="Ldot" unicode="&#x13f;" horiz-adv-x="541" 
d="M496 0h-301q-49 0 -69 19.5t-20 66.5v604q0 20 19 20h24q17 0 17 -20v-594q0 -41 39 -41h291q19 0 19 -17v-21q0 -17 -19 -17zM440 342q0 -47 -46 -47t-46 47q0 25 13 36.5t33 11.5q46 0 46 -48z" />
    <glyph glyph-name="ldot" unicode="&#x140;" horiz-adv-x="339" 
d="M329 343q0 -46 -45 -46t-45 46q0 45 45 45q21 0 33 -9t12 -36zM145 125q0 -41 13 -58q16 -18 54 -22q15 -1 15 -15q0 -16 -3 -24q-3 -9 -18 -9q-77 0 -104 47q-14 24 -14 75v610q0 19 19 19h22q16 0 16 -19v-604z" />
    <glyph glyph-name="Lslash" unicode="&#x141;" horiz-adv-x="541" 
d="M496 0h-301q-49 0 -69 19.5t-20 66.5v172l-64 -44q-5 -4 -11 -4q-7 0 -14 12q-11 16 -11 21q0 8 8 13l92 64v370q0 20 19 20h24q17 0 17 -20v-327l155 109q5 4 12 4t15 -12q12 -15 12 -21q0 -7 -8 -13l-186 -130v-204q0 -41 39 -41h291q19 0 19 -17v-21q0 -17 -19 -17z
" />
    <glyph glyph-name="lslash" unicode="&#x142;" horiz-adv-x="250" 
d="M145 125q0 -41 13 -58q16 -18 54 -22q15 -1 15 -15q0 -16 -3 -24q-3 -9 -18 -9q-77 0 -104 47q-14 24 -14 75v180l-50 -34q-6 -5 -12 -5q-8 1 -15 12q-9 15 -9 20q0 7 8 12l78 53v372q0 19 19 19h22q16 0 16 -19v-333l63 43q5 4 11 4t16 -13t10 -19t-9 -12l-91 -62v-212z
" />
    <glyph glyph-name="Nacute" unicode="&#x143;" horiz-adv-x="711" 
d="M165 17q0 -20 -19 -20h-22q-18 0 -18 20v646q0 25 9.5 36t30.5 11h15q17 0 26 -7.5t21 -27.5q260 -454 340 -608q-2 75 -2 621q0 21 20 21h22q17 0 17 -20v-655q0 -39 -35 -39h-16q-17 0 -26 7.5t-21 27.5q-285 499 -344 611q2 -192 2 -624zM366 773q-16 -12 -32 -12
q-13 0 -25 4q-9 3 -9 10q0 10 10 17l134 106q18 14 32 14q16 0 38 -4q12 -3 12 -13t-11 -17z" />
    <glyph glyph-name="nacute" unicode="&#x144;" horiz-adv-x="568" 
d="M145 16q0 -19 -18 -19h-21q-18 0 -18 19v393q0 41 31 57q84 42 215 42q64 0 94 -14.5t42 -45.5q10 -24 10 -98v-334q0 -19 -18 -19h-22q-17 0 -17 19v326q0 52 -8 73q-7 21 -28 31t-68 10q-90 0 -150 -26q-13 -8 -18 -16q-6 -10 -6 -30v-368zM283 590q-10 -11 -24 -11
q-13 0 -22 3t-9 11t7 15l104 129q13 15 30 15t31 -2q12 -3 12 -13q0 -8 -9 -17z" />
    <glyph glyph-name="Ncommaaccent" unicode="&#x145;" horiz-adv-x="711" 
d="M165 17q0 -20 -19 -20h-22q-18 0 -18 20v646q0 25 9.5 36t30.5 11h15q17 0 26 -7.5t21 -27.5q260 -454 340 -608q-2 75 -2 621q0 21 20 21h22q17 0 17 -20v-655q0 -39 -35 -39h-16q-17 0 -26 7.5t-21 27.5q-285 499 -344 611q2 -192 2 -624zM355 -68h17q20 0 20 -22
q0 -105 -65 -170q-10 -10 -18 -10q-9 0 -16 6q-8 7 -8 14t5 14q41 50 43 144q0 24 22 24z" />
    <glyph glyph-name="ncommaaccent" unicode="&#x146;" horiz-adv-x="568" 
d="M145 16q0 -19 -18 -19h-21q-18 0 -18 19v393q0 41 31 57q84 42 215 42q64 0 94 -14.5t42 -45.5q10 -24 10 -98v-334q0 -19 -18 -19h-22q-17 0 -17 19v326q0 52 -8 73q-7 21 -28 31t-68 10q-90 0 -150 -26q-13 -8 -18 -16q-6 -10 -6 -30v-368zM288 -68h17q20 0 20 -22
q0 -105 -65 -170q-10 -10 -18 -10t-16 6q-8 7 -8 14t5 14q41 50 43 144q0 24 22 24z" />
    <glyph glyph-name="Ncaron" unicode="&#x147;" horiz-adv-x="711" 
d="M165 17q0 -20 -19 -20h-22q-18 0 -18 20v646q0 25 9.5 36t30.5 11h15q17 0 26 -7.5t21 -27.5q260 -454 340 -608q-2 75 -2 621q0 21 20 21h22q17 0 17 -20v-655q0 -39 -35 -39h-16q-17 0 -26 7.5t-21 27.5q-285 499 -344 611q2 -192 2 -624zM479 910q12 0 21 -3
q10 -3 10 -11q0 -7 -9 -16l-104 -99q-16 -16 -29 -16h-20q-14 0 -27 13l-107 104q-6 4 -6 12q0 10 10 13t23 3q12 0 28 -13l91 -75l89 74q17 14 30 14z" />
    <glyph glyph-name="ncaron" unicode="&#x148;" horiz-adv-x="568" 
d="M145 16q0 -19 -18 -19h-21q-18 0 -18 19v393q0 41 31 57q84 42 215 42q64 0 94 -14.5t42 -45.5q10 -24 10 -98v-334q0 -19 -18 -19h-22q-17 0 -17 19v326q0 52 -8 73q-7 21 -28 31t-68 10q-90 0 -150 -26q-13 -8 -18 -16q-6 -10 -6 -30v-368zM387 754q12 0 21 -3t9 -10
q0 -6 -7 -15l-97 -136q-12 -15 -27 -15h-19q-15 0 -24 13l-96 136q-8 10 -8 16q0 8 9 11t21 3q13 0 24 -13l86 -110l84 108q11 15 24 15z" />
    <glyph glyph-name="napostrophe" unicode="&#x149;" horiz-adv-x="568" 
d="M145 16q0 -19 -18 -19h-21q-18 0 -18 19v393q0 41 31 57q84 42 215 42q64 0 94 -14.5t42 -45.5q10 -24 10 -98v-334q0 -19 -18 -19h-22q-17 0 -17 19v326q0 52 -8 73q-7 21 -28 31t-68 10q-90 0 -150 -26q-13 -8 -18 -16q-6 -10 -6 -30v-368zM123 776h17q20 0 20 -22
q0 -105 -65 -170q-10 -10 -18 -10q-9 0 -16 6q-8 7 -8 14t5 14q41 50 43 144q0 24 22 24z" />
    <glyph glyph-name="Eng" unicode="&#x14a;" horiz-adv-x="711" 
d="M165 17q0 -20 -19 -20h-22q-18 0 -18 20v646q0 25 9.5 36t30.5 11h15q17 0 26 -7.5t21 -27.5q285 -488 340 -593q-2 170 -2 606q0 21 20 21h22q17 0 17 -20v-719q0 -98 -48 -136q-26 -22 -68 -40t-66 -18q-13 0 -17 11q-5 12 -5 24q0 14 21 18q55 14 84 34q39 30 39 99
v10q-314 542 -382 669q2 -192 2 -624z" />
    <glyph glyph-name="eng" unicode="&#x14b;" horiz-adv-x="568" 
d="M145 16q0 -19 -18 -19h-21q-18 0 -18 19v393q0 41 31 57q84 42 215 42q64 0 94 -14.5t42 -45.5q10 -24 10 -98v-406q0 -87 -39 -126q-23 -22 -64 -37t-71 -15q-13 0 -16 11q-3 10 -3 21q0 15 19 18q59 11 87 33q30 25 30 93v400q0 52 -8 73q-7 21 -28 31t-68 10
q-90 0 -150 -26q-13 -8 -18 -16q-6 -10 -6 -30v-368z" />
    <glyph glyph-name="Omacron" unicode="&#x14c;" horiz-adv-x="690" 
d="M627 358q0 -109 -17 -181.5t-54 -114t-88 -58.5t-127 -17q-74 0 -123.5 16.5t-85.5 58t-52.5 114t-16.5 181.5t21 182.5t61.5 111.5t88.5 53t115 15q60 0 101 -8t77 -30.5t56.5 -62.5t32 -104t11.5 -156zM564 357q0 99 -11.5 159.5t-39.5 93.5t-66 44t-101 11
q-57 0 -95 -12.5t-68 -45.5t-44 -94t-14 -155q0 -100 13.5 -163.5t43 -96.5t66.5 -45t95 -12q57 0 93.5 11t68 43.5t45.5 96.5t14 165zM477 797h-250q-17 0 -17 15v24q0 16 18 16h248q18 0 18 -16v-25q0 -14 -17 -14z" />
    <glyph glyph-name="omacron" unicode="&#x14d;" horiz-adv-x="540" 
d="M484 253q0 -154 -49 -210t-168 -56q-116 0 -163.5 54.5t-47.5 208.5q0 79 15.5 131.5t46 80t67.5 38t89 10.5q47 0 78 -5.5t58 -20.5t42 -43.5t23.5 -74.5t8.5 -113zM426 248q0 90 -16 135t-47 60t-91 15q-82 0 -120 -42t-38 -164q0 -90 17 -137t48 -62t89 -15
q43 0 69 6.5t48 28t31.5 64t9.5 111.5zM393 614h-231q-17 0 -17 15v24q0 17 18 17h229q18 0 18 -17v-24q0 -15 -17 -15z" />
    <glyph glyph-name="Obreve" unicode="&#x14e;" horiz-adv-x="690" 
d="M627 358q0 -109 -17 -181.5t-54 -114t-88 -58.5t-127 -17q-74 0 -123.5 16.5t-85.5 58t-52.5 114t-16.5 181.5t21 182.5t61.5 111.5t88.5 53t115 15q60 0 101 -8t77 -30.5t56.5 -62.5t32 -104t11.5 -156zM564 357q0 99 -11.5 159.5t-39.5 93.5t-66 44t-101 11
q-57 0 -95 -12.5t-68 -45.5t-44 -94t-14 -155q0 -100 13.5 -163.5t43 -96.5t66.5 -45t95 -12q57 0 93.5 11t68 43.5t45.5 96.5t14 165zM349 761q-66 0 -97 25.5t-40 71.5q-3 15 -3 23q0 15 11 19q10 4 24 4q10 0 13 -14q6 -39 26 -58t66 -19q49 0 70.5 19.5t27.5 57.5
q3 14 16 14q15 0 22 -3q8 -3 8 -13t-5 -33q-23 -94 -139 -94z" />
    <glyph glyph-name="obreve" unicode="&#x14f;" horiz-adv-x="540" 
d="M484 253q0 -154 -49 -210t-168 -56q-116 0 -163.5 54.5t-47.5 208.5q0 79 15.5 131.5t46 80t67.5 38t89 10.5q47 0 78 -5.5t58 -20.5t42 -43.5t23.5 -74.5t8.5 -113zM426 248q0 90 -16 135t-47 60t-91 15q-82 0 -120 -42t-38 -164q0 -90 17 -137t48 -62t89 -15
q43 0 69 6.5t48 28t31.5 64t9.5 111.5zM385 720q9 0 19 -2q8 -2 8 -14q0 -13 -4 -33q-22 -98 -134 -98q-61 0 -90 25.5t-40 73.5q-3 10 -3 28q0 12 10 16t20 4q13 0 14 -13q6 -40 26 -61t64 -21q46 0 66.5 20.5t27.5 60.5q3 14 16 14z" />
    <glyph glyph-name="Ohungarumlaut" unicode="&#x150;" horiz-adv-x="690" 
d="M627 358q0 -109 -17 -181.5t-54 -114t-88 -58.5t-127 -17q-74 0 -123.5 16.5t-85.5 58t-52.5 114t-16.5 181.5t21 182.5t61.5 111.5t88.5 53t115 15q60 0 101 -8t77 -30.5t56.5 -62.5t32 -104t11.5 -156zM564 357q0 99 -11.5 159.5t-39.5 93.5t-66 44t-101 11
q-57 0 -95 -12.5t-68 -45.5t-44 -94t-14 -155q0 -100 13.5 -163.5t43 -96.5t66.5 -45t95 -12q57 0 93.5 11t68 43.5t45.5 96.5t14 165zM283 773q-17 -12 -31 -12q-12 0 -24 4q-9 3 -9 11t11 17l131 105q18 14 33 14q14 0 32 -4q11 -3 11 -12q0 -10 -10 -18zM452 773
q-15 -12 -31 -12q-11 0 -23 4q-9 3 -9 11q0 10 10 17l131 104q18 15 33 15q13 0 33 -4q11 -3 11 -12t-11 -18z" />
    <glyph glyph-name="ohungarumlaut" unicode="&#x151;" horiz-adv-x="540" 
d="M484 253q0 -154 -49 -210t-168 -56q-116 0 -163.5 54.5t-47.5 208.5q0 79 15.5 131.5t46 80t67.5 38t89 10.5q47 0 78 -5.5t58 -20.5t42 -43.5t23.5 -74.5t8.5 -113zM426 248q0 90 -16 135t-47 60t-91 15q-82 0 -120 -42t-38 -164q0 -90 17 -137t48 -62t89 -15
q43 0 69 6.5t48 28t31.5 64t9.5 111.5zM212 590q-11 -11 -24 -11q-12 0 -18 3q-8 3 -8 11q0 7 9 18l94 126q12 15 28 15q15 0 27 -3t12 -12q0 -7 -8 -17zM355 590q-11 -11 -23 -11q-13 0 -19 3q-8 3 -8 11q0 6 8 16l95 128q12 15 28 15t27 -3q12 -3 12 -12q0 -7 -8 -17z" />
    <glyph glyph-name="OE" unicode="&#x152;" horiz-adv-x="1002" 
d="M944 0h-299q-45 0 -64.5 18.5t-20.5 75.5q-29 -60 -79 -83.5t-142 -23.5q-74 0 -123 16.5t-85 58t-52 113.5t-16 182q0 109 20.5 182.5t61 111.5t88.5 53t114 15q88 0 137.5 -21.5t76.5 -80.5q2 50 20 69.5t63 19.5h286q19 0 19 -17v-21q0 -17 -19 -17h-283
q-34 0 -34 -38v-218h286q19 0 19 -17v-21q0 -16 -19 -16h-286v-240q0 -46 39 -46h292q19 0 19 -17v-21q0 -17 -19 -17zM554 357q0 100 -11 161t-39 93.5t-64 43t-96 10.5q-57 0 -95 -12.5t-67.5 -45.5t-43 -94t-13.5 -155q0 -100 13 -163.5t42 -96.5t65.5 -45t94.5 -12
q32 0 50.5 1.5t44 7.5t40.5 18t32 35t26 56.5t15 83t6 114.5z" />
    <glyph glyph-name="oe" unicode="&#x153;" horiz-adv-x="883" 
d="M456 92q-21 -57 -66.5 -81t-122.5 -24q-116 0 -163.5 54.5t-47.5 208.5q0 79 15.5 131.5t46 80t67.5 38t89 10.5q80 0 123.5 -21.5t62.5 -83.5q49 105 188 105q60 0 98 -16.5t56 -52t23.5 -73.5t5.5 -99q0 -23 -7 -30q-5 -5 -20 -5h-320q1 -115 42 -155.5t130 -40.5
q64 0 118 17q17 5 25 5q9 0 12 -8q6 -12 6 -24t-16 -17q-64 -24 -151 -24q-148 0 -194 105zM426 248q0 90 -16 135t-47 60t-91 15q-82 0 -120 -42t-38 -164q0 -90 17 -137t48 -62t89 -15q43 0 69 6.5t48 28t31.5 64t9.5 111.5zM485 282h288q1 9 1 26q0 76 -27 113.5
t-104 37.5q-86 0 -121 -45t-37 -132z" />
    <glyph glyph-name="Racute" unicode="&#x154;" horiz-adv-x="618" 
d="M166 17q0 -20 -19 -20h-23q-18 0 -18 20v600q0 46 18.5 67.5t66.5 21.5h79q122 0 173 -20q55 -22 78 -64t23 -108q0 -148 -132 -186l-11 -3l166 -290q9 -18 9 -23q0 -10 -9 -12q-9 -3 -34 -3q-14 0 -25 20l-167 299q-40 -2 -65 -2h-110v-297zM166 367h114q85 0 132 19
q70 29 70 125q0 57 -17.5 84t-50.5 41q-36 16 -138 16h-70q-22 0 -31 -9.5t-9 -30.5v-245zM309 773q-16 -12 -32 -12q-13 0 -25 4q-9 3 -9 10q0 10 10 17l134 106q18 14 32 14q16 0 38 -4q12 -3 12 -13t-11 -17z" />
    <glyph glyph-name="racute" unicode="&#x155;" horiz-adv-x="356" 
d="M145 16q0 -19 -18 -19h-21q-18 0 -18 19v387q0 35 21 56q18 17 71.5 33t103.5 16q27 0 40 -3q11 -2 11 -12q0 -18 -3 -29q-3 -12 -14 -12q-2 0 -16.5 1t-20.5 1q-71 0 -113 -24q-13 -6 -18 -17q-5 -9 -5 -30v-367zM215 590q-10 -11 -24 -11q-13 0 -22 3t-9 11t7 15
l104 129q13 15 30 15t31 -2q12 -3 12 -13q0 -8 -9 -17z" />
    <glyph glyph-name="Rcommaaccent" unicode="&#x156;" horiz-adv-x="618" 
d="M166 17q0 -20 -19 -20h-23q-18 0 -18 20v600q0 46 18.5 67.5t66.5 21.5h79q122 0 173 -20q55 -22 78 -64t23 -108q0 -148 -132 -186l-11 -3l166 -290q9 -18 9 -23q0 -10 -9 -12q-9 -3 -34 -3q-14 0 -25 20l-167 299q-40 -2 -65 -2h-110v-297zM166 367h114q85 0 132 19
q70 29 70 125q0 57 -17.5 84t-50.5 41q-36 16 -138 16h-70q-22 0 -31 -9.5t-9 -30.5v-245zM311 -68h17q20 0 20 -22q0 -105 -65 -170q-10 -10 -18 -10q-9 0 -16 6q-8 7 -8 14t5 14q41 50 43 144q0 24 22 24z" />
    <glyph glyph-name="rcommaaccent" unicode="&#x157;" horiz-adv-x="356" 
d="M145 16q0 -19 -18 -19h-21q-18 0 -18 19v387q0 35 21 56q18 17 71.5 33t103.5 16q27 0 40 -3q11 -2 11 -12q0 -18 -3 -29q-3 -12 -14 -12q-2 0 -16.5 1t-20.5 1q-71 0 -113 -24q-13 -6 -18 -17q-5 -9 -5 -30v-367zM113 -68h17q20 0 20 -22q0 -105 -65 -170
q-10 -10 -18 -10q-9 0 -16 6q-8 7 -8 14t5 14q41 50 43 144q0 24 22 24z" />
    <glyph glyph-name="Rcaron" unicode="&#x158;" horiz-adv-x="618" 
d="M166 17q0 -20 -19 -20h-23q-18 0 -18 20v600q0 46 18.5 67.5t66.5 21.5h79q122 0 173 -20q55 -22 78 -64t23 -108q0 -148 -132 -186l-11 -3l166 -290q9 -18 9 -23q0 -10 -9 -12q-9 -3 -34 -3q-14 0 -25 20l-167 299q-40 -2 -65 -2h-110v-297zM166 367h114q85 0 132 19
q70 29 70 125q0 57 -17.5 84t-50.5 41q-36 16 -138 16h-70q-22 0 -31 -9.5t-9 -30.5v-245zM417 910q12 0 21 -3q10 -3 10 -11q0 -7 -9 -16l-104 -99q-16 -16 -29 -16h-20q-14 0 -27 13l-107 104q-6 4 -6 12q0 10 10 13t23 3q12 0 28 -13l91 -75l89 74q17 14 30 14z" />
    <glyph glyph-name="rcaron" unicode="&#x159;" horiz-adv-x="356" 
d="M145 16q0 -19 -18 -19h-21q-18 0 -18 19v387q0 35 21 56q18 17 71.5 33t103.5 16q27 0 40 -3q11 -2 11 -12q0 -18 -3 -29q-3 -12 -14 -12q-2 0 -16.5 1t-20.5 1q-71 0 -113 -24q-13 -6 -18 -17q-5 -9 -5 -30v-367zM320 754q12 0 21 -3t9 -10q0 -6 -7 -15l-97 -136
q-12 -15 -27 -15h-19q-15 0 -24 13l-96 136q-8 10 -8 16q0 8 9 11t21 3q13 0 24 -13l86 -110l84 108q11 15 24 15z" />
    <glyph glyph-name="Sacute" unicode="&#x15a;" horiz-adv-x="559" 
d="M343 366q90 -27 125.5 -65t35.5 -113q0 -97 -56 -149t-185 -52q-110 0 -193 32q-18 7 -18 19q0 10 7 26q5 15 18 15q4 0 25 -8q77 -29 161 -29q59 0 97.5 13t55 36.5t21.5 43.5t5 47q0 23 -4 37.5t-17.5 32.5t-44 34t-78.5 30l-99 29q-67 20 -102 66t-35 110
q0 98 56.5 148t181.5 50q88 0 158 -19q17 -6 17 -19q0 -9 -6 -27q-4 -11 -16 -11q-6 0 -24 4q-67 17 -135 17q-99 0 -135 -35.5t-36 -101.5q0 -49 26 -79t107 -55zM283 773q-17 -12 -32 -12q-13 0 -25 4q-9 3 -9 10q0 10 10 17l134 106q18 14 32 14q16 0 38 -4q12 -3 12 -13
t-11 -17z" />
    <glyph glyph-name="sacute" unicode="&#x15b;" horiz-adv-x="426" 
d="M236 215l-80 24q-108 32 -108 128q0 142 178 142q76 0 125 -13q17 -5 17 -18q0 -5 -6 -25q-3 -10 -12 -10q-8 0 -17 3q-51 13 -108 13q-71 0 -95 -23t-24 -64q0 -29 18.5 -49.5t74.5 -38.5l70 -22q63 -20 91 -48t28 -83q0 -144 -184 -144q-94 0 -150 23q-13 6 -13 17
q0 7 6 23q5 12 16 12q3 0 18 -5q53 -19 124 -19q77 0 102 25.5t25 65.5q0 30 -18 48t-78 38zM227 590q-10 -11 -24 -11q-13 0 -22 3t-9 11t7 15l104 129q13 15 30 15t31 -2q12 -3 12 -13q0 -8 -9 -17z" />
    <glyph glyph-name="Scircumflex" unicode="&#x15c;" horiz-adv-x="559" 
d="M343 366q90 -27 125.5 -65t35.5 -113q0 -97 -56 -149t-185 -52q-110 0 -193 32q-18 7 -18 19q0 10 7 26q5 15 18 15q4 0 25 -8q77 -29 161 -29q59 0 97.5 13t55 36.5t21.5 43.5t5 47q0 23 -4 37.5t-17.5 32.5t-44 34t-78.5 30l-99 29q-67 20 -102 66t-35 110
q0 98 56.5 148t181.5 50q88 0 158 -19q17 -6 17 -19q0 -9 -6 -27q-4 -11 -16 -11q-6 0 -24 4q-67 17 -135 17q-99 0 -135 -35.5t-36 -101.5q0 -49 26 -79t107 -55zM163 761q-12 0 -21 3t-9 11q0 10 8 16l104 100q17 15 29 15h20q14 0 27 -13l109 -105q5 -4 5 -12
q0 -9 -10 -12q-11 -3 -24 -3q-11 0 -28 14l-91 74l-89 -74q-15 -14 -30 -14z" />
    <glyph glyph-name="scircumflex" unicode="&#x15d;" horiz-adv-x="426" 
d="M236 215l-80 24q-108 32 -108 128q0 142 178 142q76 0 125 -13q17 -5 17 -18q0 -5 -6 -25q-3 -10 -12 -10q-8 0 -17 3q-51 13 -108 13q-71 0 -95 -23t-24 -64q0 -29 18.5 -49.5t74.5 -38.5l70 -22q63 -20 91 -48t28 -83q0 -144 -184 -144q-94 0 -150 23q-13 6 -13 17
q0 7 6 23q5 12 16 12q3 0 18 -5q53 -19 124 -19q77 0 102 25.5t25 65.5q0 30 -18 48t-78 38zM111 571q-13 0 -20 3q-10 3 -10 10q0 4 7 15l97 136q12 15 27 15h19q15 0 24 -13l96 -136q8 -10 8 -16q0 -8 -9 -11q-8 -3 -21 -3t-24 13l-86 110l-84 -108q-13 -15 -24 -15z" />
    <glyph glyph-name="Scedilla" unicode="&#x15e;" horiz-adv-x="559" 
d="M279 -64q58 -1 78 -24t20 -64q0 -94 -117 -94q-30 0 -52 5q-13 3 -13 15q0 3 3 18q3 12 16 12q1 0 4.5 -0.5t9 -1.5t7.5 -1q13 -2 27 -2q60 0 60 46q0 25 -13 35.5t-46 10.5h-16q-18 0 -18 15q0 10 5 33l9 48q-100 3 -173 32q-18 7 -18 19q0 10 7 26q5 15 18 15
q4 0 25 -8q77 -29 161 -29q59 0 97.5 13t55 36.5t21.5 43.5t5 47q0 23 -4 37.5t-17.5 32.5t-44 34t-78.5 30l-99 29q-67 20 -102 66t-35 110q0 98 56.5 148t181.5 50q88 0 158 -19q17 -6 17 -19q0 -9 -6 -27q-4 -11 -16 -11q-6 0 -24 4q-67 17 -135 17q-99 0 -135 -35.5
t-36 -101.5q0 -49 26 -79t107 -55l87 -27q90 -27 125.5 -65t35.5 -113q0 -92 -51 -143.5t-166 -56.5z" />
    <glyph glyph-name="scedilla" unicode="&#x15f;" horiz-adv-x="426" 
d="M208 -62q57 -1 75.5 -23t18.5 -62q0 -90 -113 -90q-31 0 -48 4q-13 3 -13 14t3 18q3 11 14 11q4 0 22 -3q12 -1 24 -1q58 0 58 44q0 25 -12 35t-44 10h-16q-16 0 -16 15q0 6 4 28l9 50q-77 5 -120 22q-13 6 -13 17q0 7 6 23q5 12 16 12q3 0 18 -5q53 -19 124 -19
q77 0 102 25.5t25 65.5q0 30 -18 48t-78 38l-80 24q-108 32 -108 128q0 142 178 142q76 0 125 -13q17 -5 17 -18q0 -5 -6 -25q-3 -10 -12 -10q-8 0 -17 3q-51 13 -108 13q-71 0 -95 -23t-24 -64q0 -29 18.5 -49.5t74.5 -38.5l70 -22q63 -20 91 -48t28 -83q0 -138 -173 -144z
" />
    <glyph glyph-name="Scaron" unicode="&#x160;" horiz-adv-x="559" 
d="M343 366q90 -27 125.5 -65t35.5 -113q0 -97 -56 -149t-185 -52q-110 0 -193 32q-18 7 -18 19q0 10 7 26q5 15 18 15q4 0 25 -8q77 -29 161 -29q59 0 97.5 13t55 36.5t21.5 43.5t5 47q0 23 -4 37.5t-17.5 32.5t-44 34t-78.5 30l-99 29q-67 20 -102 66t-35 110
q0 98 56.5 148t181.5 50q88 0 158 -19q17 -6 17 -19q0 -9 -6 -27q-4 -11 -16 -11q-6 0 -24 4q-67 17 -135 17q-99 0 -135 -35.5t-36 -101.5q0 -49 26 -79t107 -55zM400 910q12 0 21 -3q10 -3 10 -11q0 -7 -9 -16l-104 -99q-16 -16 -29 -16h-20q-14 0 -27 13l-107 104
q-6 4 -6 12q0 10 10 13q11 3 23 3t28 -13l91 -75l89 74q17 14 30 14z" />
    <glyph glyph-name="scaron" unicode="&#x161;" horiz-adv-x="426" 
d="M236 215l-80 24q-108 32 -108 128q0 142 178 142q76 0 125 -13q17 -5 17 -18q0 -5 -6 -25q-3 -10 -12 -10q-8 0 -17 3q-51 13 -108 13q-71 0 -95 -23t-24 -64q0 -29 18.5 -49.5t74.5 -38.5l70 -22q63 -20 91 -48t28 -83q0 -144 -184 -144q-94 0 -150 23q-13 6 -13 17
q0 7 6 23q5 12 16 12q3 0 18 -5q53 -19 124 -19q77 0 102 25.5t25 65.5q0 30 -18 48t-78 38zM332 754q12 0 21 -3t9 -10q0 -6 -7 -15l-97 -136q-12 -15 -27 -15h-19q-15 0 -24 13l-96 136q-8 10 -8 16q0 8 9 11t21 3q13 0 24 -13l86 -110l84 108q11 15 24 15z" />
    <glyph glyph-name="uni0162" unicode="&#x162;" horiz-adv-x="566" 
d="M286 -64q58 -1 78 -24t20 -64q0 -94 -117 -94q-30 0 -52 5q-13 3 -13 15q0 3 3 18q3 12 16 12q1 0 4.5 -0.5t9 -1.5t7.5 -1q13 -2 27 -2q60 0 60 46q0 25 -13 35.5t-46 10.5h-16q-18 0 -18 15q0 10 5 33l12 61q-6 4 -6 17v634h-209q-19 0 -19 17v21q0 17 19 17h478
q19 0 19 -17v-21q0 -17 -19 -17h-209v-634q0 -16 -11 -19z" />
    <glyph glyph-name="uni0163" unicode="&#x163;" horiz-adv-x="323" 
d="M198 -62q57 -1 75.5 -23t18.5 -62q0 -90 -113 -90q-31 0 -48 4q-13 3 -13 14t3 18q3 11 14 11q4 0 22 -3q12 -1 24 -1q58 0 58 44q0 25 -12 35t-44 10h-16q-16 0 -16 15q0 6 4 28l14 79q-11 7 -25 23q-32 37 -32 143v262h-67q-16 0 -16 16v19q0 16 17 16h67q0 30 3 117
q0 21 15 21h23q15 0 15 -20v-118h119q18 0 18 -15v-19q0 -17 -19 -17h-118v-266q0 -67 16 -93q12 -21 38.5 -30.5t78.5 -12.5q16 -1 16 -16t-1 -23q-3 -13 -19 -13q-61 2 -90 9z" />
    <glyph glyph-name="Tcaron" unicode="&#x164;" horiz-adv-x="566" 
d="M307 17q0 -20 -18 -20h-25q-17 0 -17 20v634h-209q-19 0 -19 17v21q0 17 19 17h478q19 0 19 -17v-21q0 -17 -19 -17h-209v-634zM396 910q12 0 21 -3q10 -3 10 -11q0 -7 -9 -16l-104 -99q-16 -16 -29 -16h-20q-14 0 -27 13l-107 104q-6 4 -6 12q0 10 10 13t23 3
q12 0 28 -13l91 -75l89 74q17 14 30 14z" />
    <glyph glyph-name="tcaron" unicode="&#x165;" horiz-adv-x="323" 
d="M169 179q0 -67 16 -93q12 -21 38.5 -30.5t78.5 -12.5q16 -1 16 -16t-1 -23q-3 -13 -19 -13q-60 1 -95 11.5t-59 37.5q-32 37 -32 143v262h-67q-16 0 -16 16v19q0 16 17 16h67q0 30 3 117q0 21 15 21h23q15 0 15 -20v-118h119q18 0 18 -15v-19q0 -17 -19 -17h-118v-266z
M290 751h17q20 0 20 -22q0 -106 -65 -170q-10 -10 -18 -10q-7 0 -16 7q-9 8 -9 13q0 6 6 14q41 50 43 144q0 24 22 24z" />
    <glyph glyph-name="Tbar" unicode="&#x166;" horiz-adv-x="566" 
d="M313 17q0 -20 -18 -20h-25q-17 0 -17 20v356h-135q-16 0 -16 14v22q0 16 17 16h134v226h-209q-19 0 -19 17v21q0 17 19 17h478q19 0 19 -17v-21q0 -17 -19 -17h-209v-226h137q17 0 17 -16v-22q0 -14 -16 -14h-138v-356z" />
    <glyph glyph-name="tbar" unicode="&#x167;" horiz-adv-x="323" 
d="M169 179q0 -67 16 -93q12 -21 38.5 -30.5t78.5 -12.5q16 -1 16 -16t-1 -23q-3 -13 -19 -13q-60 1 -95 11.5t-59 37.5q-32 37 -32 143v107h-62q-16 0 -16 14v17q0 16 17 16h61v108h-67q-16 0 -16 16v19q0 16 17 16h67q0 30 3 117q0 21 15 21h23q15 0 15 -20v-118h119
q18 0 18 -15v-19q0 -17 -19 -17h-118v-108h90q17 0 17 -16v-17q0 -14 -16 -14h-91v-111z" />
    <glyph glyph-name="Utilde" unicode="&#x168;" horiz-adv-x="690" 
d="M591 691v-409q0 -83 -5 -125.5t-23 -74.5q-53 -96 -221 -96q-84 0 -139 23.5t-82 81.5q-22 46 -22 189v411q0 19 19 19h25q16 0 16 -19v-437q0 -108 23 -146q40 -67 163 -67q129 0 163 63q24 44 24 146v441q0 19 18 19h25q16 0 16 -19zM217 773q-13 0 -21 3q-8 4 -8 13
q0 6 7 23q30 72 83 72q26 0 80 -30q42 -22 64 -22q28 0 43 40q7 18 20 18q11 0 21 -4q8 -3 8 -11q0 -6 -5 -21q-26 -80 -85 -80q-27 0 -80 27q-49 26 -68 26q-13 0 -21 -8t-18 -30q-6 -16 -20 -16z" />
    <glyph glyph-name="utilde" unicode="&#x169;" horiz-adv-x="568" 
d="M88 159v322q0 18 18 18h22q17 0 17 -18v-316q0 -60 10 -83q17 -43 109 -43q88 0 135 18q13 5 18 14q6 10 6 34v376q0 18 18 18h21q18 0 18 -18v-402q0 -45 -30 -59q-69 -33 -200 -33q-124 0 -149 65q-13 31 -13 107zM161 604q-12 0 -18 2q-10 3 -10 11q0 6 6 21
q31 74 79 74q24 0 77 -30q41 -23 62 -23q14 0 23 8t17 32q7 18 19 18q9 0 19 -2q9 -3 9 -12t-5 -22q-14 -43 -33 -60.5t-47 -17.5q-27 0 -78 27q-51 26 -63 26t-20.5 -7.5t-17.5 -29.5q-6 -15 -19 -15z" />
    <glyph glyph-name="Umacron" unicode="&#x16a;" horiz-adv-x="690" 
d="M591 691v-409q0 -83 -5 -125.5t-23 -74.5q-53 -96 -221 -96q-84 0 -139 23.5t-82 81.5q-22 46 -22 189v411q0 19 19 19h25q16 0 16 -19v-437q0 -108 23 -146q40 -67 163 -67q129 0 163 63q24 44 24 146v441q0 19 18 19h25q16 0 16 -19zM474 797h-250q-17 0 -17 15v24
q0 16 18 16h248q18 0 18 -16v-25q0 -14 -17 -14z" />
    <glyph glyph-name="umacron" unicode="&#x16b;" horiz-adv-x="568" 
d="M88 159v322q0 18 18 18h22q17 0 17 -18v-316q0 -60 10 -83q17 -43 109 -43q88 0 135 18q13 5 18 14q6 10 6 34v376q0 18 18 18h21q18 0 18 -18v-402q0 -45 -30 -59q-69 -33 -200 -33q-124 0 -149 65q-13 31 -13 107zM403 614h-231q-17 0 -17 15v24q0 17 18 17h229
q18 0 18 -17v-24q0 -15 -17 -15z" />
    <glyph glyph-name="Ubreve" unicode="&#x16c;" horiz-adv-x="690" 
d="M591 691v-409q0 -83 -5 -125.5t-23 -74.5q-53 -96 -221 -96q-84 0 -139 23.5t-82 81.5q-22 46 -22 189v411q0 19 19 19h25q16 0 16 -19v-437q0 -108 23 -146q40 -67 163 -67q129 0 163 63q24 44 24 146v441q0 19 18 19h25q16 0 16 -19zM342 761q-66 0 -97 25.5t-40 71.5
q-3 15 -3 23q0 15 11 19q10 4 24 4q10 0 13 -14q6 -39 26 -58t66 -19q49 0 70.5 19.5t27.5 57.5q3 14 16 14q14 0 22 -3t8 -13t-5 -33q-23 -94 -139 -94z" />
    <glyph glyph-name="ubreve" unicode="&#x16d;" horiz-adv-x="568" 
d="M88 159v322q0 18 18 18h22q17 0 17 -18v-316q0 -60 10 -83q17 -43 109 -43q88 0 135 18q13 5 18 14q6 10 6 34v376q0 18 18 18h21q18 0 18 -18v-402q0 -45 -30 -59q-69 -33 -200 -33q-124 0 -149 65q-13 31 -13 107zM394 720q9 0 19 -2q8 -2 8 -14q0 -13 -4 -33
q-22 -98 -134 -98q-61 0 -90 25.5t-40 73.5q-3 10 -3 28q0 12 10 16t20 4q13 0 14 -13q6 -40 26 -61t64 -21q46 0 66.5 20.5t27.5 60.5q3 14 16 14z" />
    <glyph glyph-name="Uring" unicode="&#x16e;" horiz-adv-x="690" 
d="M591 691v-409q0 -83 -5 -125.5t-23 -74.5q-53 -96 -221 -96q-84 0 -139 23.5t-82 81.5q-22 46 -22 189v411q0 19 19 19h25q16 0 16 -19v-437q0 -108 23 -146q40 -67 163 -67q129 0 163 63q24 44 24 146v441q0 19 18 19h25q16 0 16 -19zM434 825q0 -43 -25 -66t-66 -23
q-40 0 -63.5 23t-23.5 66t24.5 67.5t65.5 24.5t64.5 -24.5t23.5 -67.5zM401 827q0 59 -57 59q-26 0 -41 -15.5t-15 -44.5q0 -28 15.5 -44t41.5 -16t41 16t15 45z" />
    <glyph glyph-name="uring" unicode="&#x16f;" horiz-adv-x="568" 
d="M88 159v322q0 18 18 18h22q17 0 17 -18v-316q0 -60 10 -83q17 -43 109 -43q88 0 135 18q13 5 18 14q6 10 6 34v376q0 18 18 18h21q18 0 18 -18v-402q0 -45 -30 -59q-69 -33 -200 -33q-124 0 -149 65q-13 31 -13 107zM379 670q0 -45 -26 -69t-70 -24q-42 0 -67 24t-25 69
t26 70.5t69 25.5q44 0 68.5 -25t24.5 -71zM345 672q0 30 -16.5 46.5t-44.5 16.5q-27 0 -43.5 -16.5t-16.5 -47.5q0 -30 16.5 -47t44.5 -17t44 17t16 48z" />
    <glyph glyph-name="Uhungarumlaut" unicode="&#x170;" horiz-adv-x="690" 
d="M591 691v-409q0 -83 -5 -125.5t-23 -74.5q-53 -96 -221 -96q-84 0 -139 23.5t-82 81.5q-22 46 -22 189v411q0 19 19 19h25q16 0 16 -19v-437q0 -108 23 -146q40 -67 163 -67q129 0 163 63q24 44 24 146v441q0 19 18 19h25q16 0 16 -19zM271 773q-16 -12 -31 -12
q-12 0 -24 4q-9 3 -9 11t11 17l131 105q17 14 33 14q14 0 32 -4q11 -3 11 -12q0 -10 -10 -18zM440 773q-15 -12 -31 -12q-11 0 -23 4q-9 3 -9 11q0 10 10 17l131 104q18 15 33 15q13 0 33 -4q11 -3 11 -12t-11 -18z" />
    <glyph glyph-name="uhungarumlaut" unicode="&#x171;" horiz-adv-x="568" 
d="M88 159v322q0 18 18 18h22q17 0 17 -18v-316q0 -60 10 -83q17 -43 109 -43q88 0 135 18q13 5 18 14q6 10 6 34v376q0 18 18 18h21q18 0 18 -18v-402q0 -45 -30 -59q-69 -33 -200 -33q-124 0 -149 65q-13 31 -13 107zM222 590q-11 -11 -24 -11q-12 0 -18 3q-8 3 -8 11
q0 7 9 18l94 126q12 15 28 15q15 0 27 -3t12 -12q0 -7 -8 -17zM365 590q-11 -11 -23 -11q-13 0 -19 3q-8 3 -8 11q0 6 8 16l95 128q12 15 28 15q17 0 27 -3q12 -3 12 -12q0 -7 -8 -17z" />
    <glyph glyph-name="Uogonek" unicode="&#x172;" horiz-adv-x="690" 
d="M591 691v-409q0 -83 -5 -125.5t-23 -74.5q-45 -82 -176 -94q-45 -31 -62 -55.5t-17 -61.5q0 -57 60 -57q13 0 30 2t20 2q9 0 12 -11q3 -9 3 -18q0 -12 -13 -16q-24 -7 -61 -7q-52 0 -79.5 25.5t-27.5 73.5q0 44 18 71t54 50q-76 2 -126.5 26t-76.5 79q-22 46 -22 189v411
q0 19 19 19h25q16 0 16 -19v-437q0 -108 23 -146q40 -67 163 -67q129 0 163 63q24 44 24 146v441q0 19 18 19h25q16 0 16 -19z" />
    <glyph glyph-name="uogonek" unicode="&#x173;" horiz-adv-x="568" 
d="M88 159v322q0 18 18 18h22q17 0 17 -18v-316q0 -60 10 -83q17 -43 109 -43q88 0 135 18q13 5 18 14q6 10 6 34v376q0 18 18 18h21q18 0 18 -18v-400q0 -33 -15 -50q-11 -11 -29 -17q-27 -17 -40.5 -27t-33 -28t-28.5 -38t-9 -43q0 -54 58 -54q11 0 28 1t19 1q8 0 11 -9
q3 -12 3 -19q0 -13 -13 -15q-25 -6 -58 -6q-49 0 -75 24.5t-26 70.5q0 44 21 71.5t63 50.5q-43 -7 -106 -7q-124 0 -149 65q-13 31 -13 107z" />
    <glyph glyph-name="Wcircumflex" unicode="&#x174;" horiz-adv-x="931" 
d="M465 615q-38 -137 -175 -587q-9 -31 -42 -31h-15q-30 0 -38 31l-160 640q-4 15 -4 25q0 11 10 14q8 2 33 2q14 0 19 -18q134 -541 153 -630q27 100 177 587q10 33 38 33h14q27 0 37 -33q145 -483 172 -588q41 178 153 626q6 23 21 23q19 0 31 -2q11 -2 11 -14
q0 -5 -5 -27l-164 -637q-8 -32 -40 -32h-15q-31 0 -40 32zM344 761q-12 0 -21 3t-9 11q0 10 8 16l104 100q17 15 29 15h20q14 0 27 -13l109 -105q5 -4 5 -12q0 -9 -10 -12t-24 -3q-10 0 -28 14l-91 74l-89 -74q-15 -14 -30 -14z" />
    <glyph glyph-name="wcircumflex" unicode="&#x175;" horiz-adv-x="725" 
d="M362 409q-12 -47 -120 -381q-6 -18 -15 -24.5t-24 -6.5h-14q-29 0 -38 30l-128 434q-5 15 -5 23q0 13 12 14q16 2 31 2q13 0 19 -23q95 -319 120 -422q47 158 120 383q7 20 15.5 28t23.5 8h9q15 0 23.5 -6.5t15.5 -27.5q107 -312 127 -385q35 137 114 419q4 15 8 20.5
t13 5.5q12 0 30 -2q10 -3 10 -12q0 -5 -6 -29l-122 -426q-10 -34 -37 -34h-16q-28 0 -38 31q-112 330 -128 381zM254 571q-12 0 -20 3q-10 3 -10 10q0 4 7 15l97 136q12 15 27 15h19q15 0 24 -13l96 -136q8 -10 8 -16q0 -8 -9 -11q-7 -3 -21 -3q-13 0 -24 13l-86 110
l-84 -108q-13 -15 -24 -15z" />
    <glyph glyph-name="Ycircumflex" unicode="&#x176;" horiz-adv-x="546" 
d="M303 18q0 -21 -18 -21h-24q-18 0 -18 21v293l-226 355q-13 20 -13 29q0 10 12 13q9 2 31 2q14 0 26 -19q147 -231 202 -324q31 55 198 319q14 24 30 24q19 0 29 -2q10 -1 10 -11q0 -9 -11 -26l-228 -359v-294zM154 761q-12 0 -21 3t-9 11q0 10 8 16l104 100q17 15 29 15
h20q14 0 27 -13l109 -105q5 -4 5 -12q0 -9 -10 -12t-24 -3q-10 0 -28 14l-91 74l-89 -74q-15 -14 -30 -14z" />
    <glyph glyph-name="ycircumflex" unicode="&#x177;" horiz-adv-x="568" 
d="M88 149v332q0 18 18 18h22q17 0 17 -18v-324q0 -53 9 -76q16 -41 102 -41q92 0 142 26q15 9 19 16q6 10 6 31v368q0 18 18 18h21q18 0 18 -18v-471q0 -71 -16 -122q-40 -122 -291 -122q-21 0 -22 13q-2 16 -2 22q0 17 17 17q84 2 135 13.5t72 28t33 42.5q15 35 15 93v31
q-63 -39 -179 -39q-118 0 -142 63q-12 33 -12 99zM181 571q-13 0 -20 3q-10 3 -10 10q0 4 7 15l97 136q12 15 27 15h19q15 0 24 -13l96 -136q8 -10 8 -16q0 -8 -9 -11q-8 -3 -21 -3t-24 13l-86 110l-84 -108q-13 -15 -24 -15z" />
    <glyph glyph-name="Ydieresis" unicode="&#x178;" horiz-adv-x="546" 
d="M303 18q0 -21 -18 -21h-24q-18 0 -18 21v293l-226 355q-13 20 -13 29q0 10 12 13q9 2 31 2q14 0 26 -19q147 -231 202 -324q31 55 198 319q14 24 30 24q19 0 29 -2q10 -1 10 -11q0 -9 -11 -26l-228 -359v-294zM222 818q0 -43 -39 -43t-39 42q0 43 39 43t39 -42zM408 818
q0 -43 -39 -43t-39 42q0 43 39 43t39 -42z" />
    <glyph glyph-name="Zacute" unicode="&#x179;" horiz-adv-x="593" 
d="M542 0h-479q-39 0 -39 37q0 19 14 38l436 576h-395q-21 0 -21 18v18q0 19 21 19h423q43 0 43 -36q0 -22 -16 -43l-435 -572h449q20 0 20 -17v-21q0 -17 -21 -17zM312 773q-16 -12 -32 -12q-13 0 -25 4q-9 3 -9 10q0 10 10 17l134 106q18 14 32 14q16 0 38 -4
q12 -3 12 -13t-11 -17z" />
    <glyph glyph-name="zacute" unicode="&#x17a;" horiz-adv-x="472" 
d="M420 0h-348q-41 0 -41 37q0 22 21 47l317 360h-303q-17 0 -17 15v20q0 17 19 17h318q46 0 46 -37q0 -22 -19 -45l-319 -362h326q17 0 17 -16v-22q0 -14 -17 -14zM252 590q-10 -11 -24 -11q-13 0 -22 3t-9 11t7 15l104 129q12 15 30 15q17 0 31 -2q12 -3 12 -13
q0 -8 -9 -17z" />
    <glyph glyph-name="Zdotaccent" unicode="&#x17b;" horiz-adv-x="593" 
d="M542 0h-479q-39 0 -39 37q0 19 14 38l436 576h-395q-21 0 -21 18v18q0 19 21 19h423q43 0 43 -36q0 -22 -16 -43l-435 -572h449q20 0 20 -17v-21q0 -17 -21 -17zM355 818q0 -43 -39 -43t-39 42q0 43 39 43t39 -42z" />
    <glyph glyph-name="zdotaccent" unicode="&#x17c;" horiz-adv-x="472" 
d="M420 0h-348q-41 0 -41 37q0 22 21 47l317 360h-303q-17 0 -17 15v20q0 17 19 17h318q46 0 46 -37q0 -22 -19 -45l-319 -362h326q17 0 17 -16v-22q0 -14 -17 -14zM291 663q0 -42 -39 -42t-39 41q0 43 39 43t39 -42z" />
    <glyph glyph-name="Zcaron" unicode="&#x17d;" horiz-adv-x="593" 
d="M542 0h-479q-39 0 -39 37q0 19 14 38l436 576h-395q-21 0 -21 18v18q0 19 21 19h423q43 0 43 -36q0 -22 -16 -43l-435 -572h449q20 0 20 -17v-21q0 -17 -21 -17zM423 910q12 0 21 -3q10 -3 10 -11q0 -7 -9 -16l-104 -99q-16 -16 -29 -16h-20q-14 0 -27 13l-107 104
q-6 4 -6 12q0 10 10 13t23 3q12 0 28 -13l91 -75l89 74q17 14 30 14z" />
    <glyph glyph-name="zcaron" unicode="&#x17e;" horiz-adv-x="472" 
d="M420 0h-348q-41 0 -41 37q0 22 21 47l317 360h-303q-17 0 -17 15v20q0 17 19 17h318q46 0 46 -37q0 -22 -19 -45l-319 -362h326q17 0 17 -16v-22q0 -14 -17 -14zM347 754q12 0 21 -3t9 -10q0 -6 -7 -15l-97 -136q-12 -15 -27 -15h-19q-15 0 -24 13l-96 136q-8 10 -8 16
q0 8 9 11t21 3q13 0 24 -13l86 -110l84 108q11 15 24 15z" />
    <glyph glyph-name="longs" unicode="&#x17f;" horiz-adv-x="258" 
d="M152 16q0 -19 -17 -19h-23q-17 0 -17 20v541q0 98 37 138q48 53 166 55q19 0 20 -13q1 -8 1 -23t-17 -16q-58 -3 -88.5 -13.5t-45.5 -36.5q-16 -26 -16 -92v-541z" />
    <glyph glyph-name="florin" unicode="&#x192;" horiz-adv-x="456" 
d="M379 392h-118l-28 -331q-5 -61 -15.5 -92t-32.5 -52q-38 -38 -114 -38q-37 0 -56 5q-10 2 -10 14q0 15 4 28q3 10 15 10q1 0 17.5 -2t30.5 -2q58 0 74 29q22 42 27 101l28 330h-86q-17 0 -17 16v15q0 16 17 16h90l7 74q8 97 50 139q35 36 112 36q45 0 66 -6q11 -3 11 -14
q0 -9 -4 -27q-3 -11 -15 -11q-1 0 -21.5 2.5t-35.5 2.5q-58 0 -79 -32q-20 -30 -25 -98l-6 -66h114q18 0 18 -16v-15q0 -16 -18 -16z" />
    <glyph glyph-name="Aringacute" unicode="&#x1fa;" horiz-adv-x="585" 
d="M372 757q0 -47 -34 -68q7 -11 10 -21l222 -630q7 -21 7 -26q0 -9 -9 -12q-8 -3 -34 -3q-9 0 -13.5 5.5t-9.5 18.5l-75 211h-287l-75 -211q-4 -13 -8.5 -18.5t-13.5 -5.5q-26 0 -34 3q-9 3 -9 12q0 5 7 26l227 631q3 9 8 18q-35 21 -35 70q0 38 21.5 59.5t56.5 21.5
q36 0 57 -21t21 -60zM166 287h253l-125 367zM299 867q-11 -10 -23 -10q-15 0 -21 1q-8 3 -8 9t6 12l98 90q13 11 28 11q21 0 33 -2q12 -3 12 -10q0 -9 -9 -16zM340 759q0 49 -47 49q-46 0 -46 -50q0 -23 13 -37t34 -14t33.5 14t12.5 38z" />
    <glyph glyph-name="aringacute" unicode="&#x1fb;" horiz-adv-x="522" 
d="M434 88q0 -29 -8 -44q-10 -17 -25 -25q-59 -32 -178 -32q-97 0 -133.5 42.5t-36.5 115.5q0 82 58 116q50 28 152 28q76 0 115 -6v56q0 55 -8 74q-8 22 -31.5 33.5t-80.5 11.5q-64 0 -117 -14q-26 -8 -32 -8q-10 0 -12 10q-5 15 -5 25t14 15q74 24 163 24q101 0 135 -35
q18 -18 24 -47t6 -81v-259zM378 236q-40 5 -110 5q-94 0 -130 -24q-29 -18 -29 -71t25.5 -81t97.5 -28q76 0 119 17q17 7 22 19t5 35v128zM359 670q0 -45 -26.5 -69t-69.5 -24q-42 0 -67 24t-25 69t26 70.5t69 25.5t68 -25.5t25 -70.5zM325 672q0 31 -16.5 47t-44.5 16
t-44.5 -16.5t-16.5 -47.5q0 -30 17 -47t45 -17t44 17t16 48zM273 810q-10 -11 -23 -11q-12 0 -19 3q-9 3 -9 11q0 7 7 14l104 129q11 14 28 14t29 -2q10 -2 10 -13q0 -9 -8 -15z" />
    <glyph glyph-name="AEacute" unicode="&#x1fc;" horiz-adv-x="942" 
d="M227 242l-150 -223q-14 -21 -30 -21q-19 0 -30 1q-13 2 -13 13q0 5 12 24l410 613q22 33 39 45t45 12h359q19 0 19 -17v-21q0 -17 -19 -17h-316v-256h286q18 0 18 -17v-21q0 -16 -18 -16h-286v-244q0 -42 38 -42h293q19 0 19 -17v-21q0 -17 -19 -17h-301q-48 0 -69 18.5
t-21 70.5v153h-266zM260 296h233v351zM646 773q-16 -12 -32 -12q-13 0 -25 4q-9 3 -9 10q0 10 10 17l134 106q18 14 32 14q16 0 38 -4q12 -3 12 -13t-11 -17z" />
    <glyph glyph-name="aeacute" unicode="&#x1fd;" horiz-adv-x="833" 
d="M425 55q-70 -68 -198 -68q-97 0 -135.5 42.5t-38.5 117.5q0 76 59 111q49 28 159 28q81 0 107 -1v51q0 55 -8 76q-8 22 -32.5 34t-81.5 12q-56 0 -115 -14q-5 -1 -12 -3l-12 -3.5t-9 -1.5q-8 0 -12 11q-3 15 -3 24q0 11 15 16q75 23 158 23q73 0 110 -18.5t45 -70.5
q45 89 174 89q60 0 98.5 -16t57 -50.5t24.5 -74.5t6 -103q0 -16 -7 -22q-5 -5 -20 -5h-320q1 -115 40.5 -158t126.5 -43q67 0 127 17q17 5 21 5q9 0 13 -9q6 -18 6 -23q0 -12 -15 -17q-64 -24 -152 -24q-127 0 -176 68zM378 239q-68 0 -107 -1q-105 -2 -135 -26
q-27 -22 -27 -65q0 -53 27.5 -81.5t100.5 -28.5q47 0 94.5 15t70.5 42q-24 53 -24 145zM435 287h289q1 8 1 22q0 76 -27.5 114.5t-106.5 38.5q-85 0 -119.5 -44.5t-36.5 -130.5zM444 590q-10 -11 -24 -11q-13 0 -22 3t-9 11t7 15l104 129q12 15 30 15q17 0 31 -2
q12 -3 12 -13q0 -8 -9 -17z" />
    <glyph glyph-name="Oslashacute" unicode="&#x1fe;" horiz-adv-x="690" 
d="M102 -16q-5 -9 -13 -9q-9 0 -26 13q-7 6 -7 11t6 13l55 75q-51 86 -51 270q0 109 21 182.5t61.5 111.5t89 53t115.5 15q132 0 189 -47l42 57q6 9 14 9q3 0 11 -4q20 -13 20 -21q0 -5 -4 -12l-49 -67q54 -81 54 -276q0 -109 -17 -181.5t-54 -114t-88 -58.5t-127 -17
q-135 0 -196 60zM568 357q0 155 -32 222l-352 -482q46 -56 162 -56q57 0 94 11t68 43.5t45.5 96.5t14.5 165zM128 358q0 -142 29 -215l349 479q-44 43 -157 43q-57 0 -95 -12.5t-68 -45.5t-44 -94t-14 -155zM366 773q-16 -12 -32 -12q-13 0 -25 4q-9 3 -9 10q0 10 10 17
l134 106q18 14 32 14q16 0 38 -4q12 -3 12 -13t-11 -17z" />
    <glyph glyph-name="oslashacute" unicode="&#x1ff;" horiz-adv-x="540" 
d="M101 -28q-6 -8 -12 -8q-9 0 -24 12q-7 6 -7 11t6 13l37 51q-44 61 -44 199q0 79 16.5 132t48.5 80t69.5 37.5t89.5 10.5q90 0 136 -25l38 52q5 8 14 8q6 0 11 -4q17 -11 17 -18q0 -5 -4 -12l-41 -56q45 -57 45 -202q0 -153 -52 -209.5t-170 -56.5q-93 0 -140 32zM440 248
q0 112 -24 157l-249 -342q33 -25 109 -25q44 0 70.5 6.5t50 27.5t33.5 64t10 112zM114 252q0 -102 23 -151l247 338q-33 20 -105 20q-87 0 -126 -42t-39 -165zM281 590q-10 -11 -24 -11q-13 0 -22 3t-9 11t7 15l104 129q13 15 30 15t31 -2q12 -3 12 -13q0 -8 -9 -17z" />
    <glyph glyph-name="uni0218" unicode="&#x218;" horiz-adv-x="559" 
d="M343 366q90 -27 125.5 -65t35.5 -113q0 -97 -56 -149t-185 -52q-110 0 -193 32q-18 7 -18 19q0 10 7 26q5 15 18 15q4 0 25 -8q77 -29 161 -29q59 0 97.5 13t55 36.5t21.5 43.5t5 47q0 23 -4 37.5t-17.5 32.5t-44 34t-78.5 30l-99 29q-67 20 -102 66t-35 110
q0 98 56.5 148t181.5 50q88 0 158 -19q17 -6 17 -19q0 -9 -6 -27q-4 -11 -16 -11q-6 0 -24 4q-67 17 -135 17q-99 0 -135 -35.5t-36 -101.5q0 -49 26 -79t107 -55zM274 -68h17q20 0 20 -22q0 -105 -65 -170q-10 -10 -18 -10t-16 6q-8 7 -8 14t5 14q41 50 43 144q0 24 22 24z
" />
    <glyph glyph-name="uni0219" unicode="&#x219;" horiz-adv-x="426" 
d="M236 215l-80 24q-108 32 -108 128q0 142 178 142q76 0 125 -13q17 -5 17 -18q0 -5 -6 -25q-3 -10 -12 -10q-8 0 -17 3q-51 13 -108 13q-71 0 -95 -23t-24 -64q0 -29 18.5 -49.5t74.5 -38.5l70 -22q63 -20 91 -48t28 -83q0 -144 -184 -144q-94 0 -150 23q-13 6 -13 17
q0 7 6 23q5 12 16 12q3 0 18 -5q53 -19 124 -19q77 0 102 25.5t25 65.5q0 30 -18 48t-78 38zM212 -68h17q20 0 20 -22q0 -105 -65 -170q-10 -10 -18 -10t-16 6q-8 7 -8 14t5 14q41 50 43 144q0 24 22 24z" />
    <glyph glyph-name="uni021A" unicode="&#x21a;" horiz-adv-x="566" 
d="M307 17q0 -20 -18 -20h-25q-17 0 -17 20v634h-209q-19 0 -19 17v21q0 17 19 17h478q19 0 19 -17v-21q0 -17 -19 -17h-209v-634zM273 -68h17q20 0 20 -22q0 -105 -65 -170q-10 -10 -18 -10q-9 0 -16 6q-8 7 -8 14t5 14q41 50 43 144q0 24 22 24z" />
    <glyph glyph-name="uni021B" unicode="&#x21b;" horiz-adv-x="323" 
d="M169 179q0 -67 16 -93q12 -21 38.5 -30.5t78.5 -12.5q16 -1 16 -16t-1 -23q-3 -13 -19 -13q-60 1 -95 11.5t-59 37.5q-32 37 -32 143v262h-67q-16 0 -16 16v19q0 16 17 16h67q0 30 3 117q0 21 15 21h23q15 0 15 -20v-118h119q18 0 18 -15v-19q0 -17 -19 -17h-118v-266z
M182 -68h17q20 0 20 -22q0 -105 -65 -170q-10 -10 -18 -10t-16 6q-8 7 -8 14t5 14q41 50 43 144q0 24 22 24z" />
    <glyph glyph-name="circumflex" unicode="&#x2c6;" horiz-adv-x="197" 
d="M-10 571q-12 0 -20 3q-10 3 -10 10q0 4 7 15l97 136q12 15 27 15h19q15 0 24 -13l96 -136q8 -10 8 -16q0 -8 -9 -11q-7 -3 -21 -3q-13 0 -24 13l-86 110l-84 -108q-13 -15 -24 -15z" />
    <glyph glyph-name="caron" unicode="&#x2c7;" horiz-adv-x="197" 
d="M208 754q12 0 21 -3t9 -10q0 -6 -7 -15l-97 -136q-12 -15 -27 -15h-19q-15 0 -24 13l-96 136q-8 10 -8 16q0 8 9 11t21 3q13 0 24 -13l86 -110l84 108q11 15 24 15z" />
    <glyph glyph-name="breve" unicode="&#x2d8;" horiz-adv-x="197" 
d="M209 720q9 0 19 -2q8 -2 8 -14q0 -13 -4 -33q-22 -98 -134 -98q-61 0 -90 25.5t-40 73.5q-3 10 -3 28q0 12 10 16t20 4q13 0 14 -13q6 -40 26 -61t64 -21q46 0 66.5 20.5t27.5 60.5q3 14 16 14z" />
    <glyph glyph-name="dotaccent" unicode="&#x2d9;" horiz-adv-x="197" 
d="M138 663q0 -42 -39 -42t-39 41q0 43 39 43t39 -42z" />
    <glyph glyph-name="ring" unicode="&#x2da;" horiz-adv-x="197" 
d="M192 670q0 -45 -26 -69t-70 -24q-42 0 -67 24t-25 69t26 70.5t69 25.5q44 0 68.5 -25t24.5 -71zM158 672q0 30 -16.5 46.5t-44.5 16.5q-27 0 -43.5 -16.5t-16.5 -47.5q0 -30 16.5 -47t44.5 -17t44 17t16 48z" />
    <glyph glyph-name="ogonek" unicode="&#x2db;" horiz-adv-x="197" 
d="M174 6q-58 -39 -79.5 -64.5t-21.5 -63.5q0 -54 58 -54q11 0 28 1t19 1q8 0 11 -9q3 -12 3 -19q0 -13 -13 -15q-26 -6 -58 -6q-49 0 -75 24.5t-26 70.5q0 49 24 77t76 57h54z" />
    <glyph glyph-name="tilde" unicode="&#x2dc;" horiz-adv-x="197" 
d="M-29 604q-12 0 -18 2q-10 3 -10 11q0 6 6 21q31 74 79 74q24 0 77 -30q41 -23 62 -23q14 0 23 8t17 32q7 18 19 18q9 0 19 -2q9 -3 9 -12t-5 -22q-14 -43 -33 -60.5t-47 -17.5q-27 0 -78 27q-51 26 -63 26t-20.5 -7.5t-17.5 -29.5q-6 -15 -19 -15z" />
    <glyph glyph-name="hungarumlaut" unicode="&#x2dd;" horiz-adv-x="197" 
d="M-8 590q-11 -11 -24 -11q-12 0 -18 3q-8 3 -8 11q0 7 9 18l94 126q12 15 28 15q15 0 27 -3t12 -12q0 -7 -8 -17zM135 590q-11 -11 -23 -11q-13 0 -19 3q-8 3 -8 11q0 6 8 16l95 128q12 15 28 15t27 -3q12 -3 12 -12q0 -7 -8 -17z" />
    <glyph glyph-name="uni0394" unicode="&#x394;" horiz-adv-x="641" 
d="M626 30q4 -8 4 -16q0 -14 -16 -14h-588q-15 0 -15 14q0 5 4 13l267 634q5 16 23 16h36q15 0 21 -16zM320 615q-25 -71 -231 -561h462q-201 481 -231 561z" />
    <glyph glyph-name="uni03A9" unicode="&#x3a9;" horiz-adv-x="722" 
d="M321 16q0 -16 -18 -16h-214q-17 0 -17 16v20q0 18 16 18h177q-99 40 -142.5 112.5t-43.5 198.5q0 164 69.5 244t219.5 80q148 0 210 -78t62 -239q0 -123 -41.5 -197t-139.5 -121h173q17 0 17 -18v-20q0 -16 -16 -16h-215q-18 0 -18 16v40q0 17 14 23q83 38 123 104
t40 184q0 141 -47.5 204t-164.5 63q-118 0 -170.5 -64.5t-52.5 -204.5q0 -114 41 -183t124 -103q14 -5 14 -23v-40z" />
    <glyph glyph-name="uni03BC" unicode="&#x3bc;" horiz-adv-x="597" 
d="M161 -186q0 -18 -18 -18h-22q-18 0 -18 18v667q0 18 18 18h22q17 0 17 -18v-317q0 -60 10 -83q17 -42 109 -42q88 0 135 18q13 5 18 14q6 10 6 34v376q0 18 18 18h21q18 0 18 -18v-403q0 -45 -30 -58q-69 -33 -195 -33q-85 0 -109 35v-208z" />
    <glyph glyph-name="pi" unicode="&#x3c0;" horiz-adv-x="588" 
d="M187 16q0 -19 -18 -19h-19q-20 0 -20 20v427h-50q-17 0 -17 17v18q0 17 17 17h458q17 0 17 -17v-18q0 -17 -16 -17h-53v-260q0 -87 14 -143q5 -17 5 -27q0 -12 -11 -15q-14 -2 -27 -2q-9 0 -12.5 4t-6.5 15q-18 59 -18 166v262h-243v-428z" />
    <glyph glyph-name="Wgrave" unicode="&#x1e80;" horiz-adv-x="931" 
d="M465 615q-38 -137 -175 -587q-9 -31 -42 -31h-15q-30 0 -38 31l-160 640q-4 15 -4 25q0 11 10 14q8 2 33 2q14 0 19 -18q134 -541 153 -630q27 100 177 587q10 33 38 33h14q27 0 37 -33q145 -483 172 -588q41 178 153 626q6 23 21 23q19 0 31 -2q11 -2 11 -14
q0 -5 -5 -27l-164 -637q-8 -32 -40 -32h-15q-31 0 -40 32zM455 773l-149 105q-11 8 -11 17q0 10 12 13q20 4 38 4q13 0 32 -14l134 -106q10 -7 10 -17q0 -7 -9 -10q-12 -4 -25 -4q-16 0 -32 12z" />
    <glyph glyph-name="wgrave" unicode="&#x1e81;" horiz-adv-x="725" 
d="M362 409q-12 -47 -120 -381q-6 -18 -15 -24.5t-24 -6.5h-14q-29 0 -38 30l-128 434q-5 15 -5 23q0 13 12 14q16 2 31 2q13 0 19 -23q95 -319 120 -422q47 158 120 383q7 20 15.5 28t23.5 8h9q15 0 23.5 -6.5t15.5 -27.5q107 -312 127 -385q35 137 114 419q4 15 8 20.5
t13 5.5q12 0 30 -2q10 -3 10 -12q0 -5 -6 -29l-122 -426q-10 -34 -37 -34h-16q-28 0 -38 31q-112 330 -128 381zM357 590l-120 130q-9 9 -9 15q0 11 12 14q10 3 31 3q17 0 29 -14l105 -130q7 -7 7 -15t-9 -11q-7 -3 -22 -3q-14 0 -24 11z" />
    <glyph glyph-name="Wacute" unicode="&#x1e82;" horiz-adv-x="931" 
d="M465 615q-38 -137 -175 -587q-9 -31 -42 -31h-15q-30 0 -38 31l-160 640q-4 15 -4 25q0 11 10 14q8 2 33 2q14 0 19 -18q134 -541 153 -630q27 100 177 587q10 33 38 33h14q27 0 37 -33q145 -483 172 -588q41 178 153 626q6 23 21 23q19 0 31 -2q11 -2 11 -14
q0 -5 -5 -27l-164 -637q-8 -32 -40 -32h-15q-31 0 -40 32zM475 773q-17 -12 -32 -12q-13 0 -25 4q-9 3 -9 10q0 10 10 17l134 106q18 14 32 14q16 0 38 -4q12 -3 12 -13t-11 -17z" />
    <glyph glyph-name="wacute" unicode="&#x1e83;" horiz-adv-x="725" 
d="M362 409q-12 -47 -120 -381q-6 -18 -15 -24.5t-24 -6.5h-14q-29 0 -38 30l-128 434q-5 15 -5 23q0 13 12 14q16 2 31 2q13 0 19 -23q95 -319 120 -422q47 158 120 383q7 20 15.5 28t23.5 8h9q15 0 23.5 -6.5t15.5 -27.5q107 -312 127 -385q35 137 114 419q4 15 8 20.5
t13 5.5q12 0 30 -2q10 -3 10 -12q0 -5 -6 -29l-122 -426q-10 -34 -37 -34h-16q-28 0 -38 31q-112 330 -128 381zM364 590q-10 -11 -24 -11q-13 0 -22 3t-9 11t7 15l104 129q12 15 30 15q17 0 31 -2q12 -3 12 -13q0 -8 -9 -17z" />
    <glyph glyph-name="Wdieresis" unicode="&#x1e84;" horiz-adv-x="931" 
d="M465 615q-38 -137 -175 -587q-9 -31 -42 -31h-15q-30 0 -38 31l-160 640q-4 15 -4 25q0 11 10 14q8 2 33 2q14 0 19 -18q134 -541 153 -630q27 100 177 587q10 33 38 33h14q27 0 37 -33q145 -483 172 -588q41 178 153 626q6 23 21 23q19 0 31 -2q11 -2 11 -14
q0 -5 -5 -27l-164 -637q-8 -32 -40 -32h-15q-31 0 -40 32zM410 818q0 -43 -39 -43t-39 42q0 43 39 43t39 -42zM596 818q0 -43 -39 -43t-39 42q0 43 39 43t39 -42z" />
    <glyph glyph-name="wdieresis" unicode="&#x1e85;" horiz-adv-x="725" 
d="M362 409q-12 -47 -120 -381q-6 -18 -15 -24.5t-24 -6.5h-14q-29 0 -38 30l-128 434q-5 15 -5 23q0 13 12 14q16 2 31 2q13 0 19 -23q95 -319 120 -422q47 158 120 383q7 20 15.5 28t23.5 8h9q15 0 23.5 -6.5t15.5 -27.5q107 -312 127 -385q35 137 114 419q4 15 8 20.5
t13 5.5q12 0 30 -2q10 -3 10 -12q0 -5 -6 -29l-122 -426q-10 -34 -37 -34h-16q-28 0 -38 31q-112 330 -128 381zM313 663q0 -42 -39 -42t-39 41q0 43 39 43t39 -42zM489 663q0 -42 -39 -42t-39 41q0 43 39 43t39 -42z" />
    <glyph glyph-name="Ygrave" unicode="&#x1ef2;" horiz-adv-x="546" 
d="M303 18q0 -21 -18 -21h-24q-18 0 -18 21v293l-226 355q-13 20 -13 29q0 10 12 13q9 2 31 2q14 0 26 -19q147 -231 202 -324q31 55 198 319q14 24 30 24q19 0 29 -2q10 -1 10 -11q0 -9 -11 -26l-228 -359v-294zM270 773l-149 105q-11 8 -11 17q0 10 12 13q20 4 38 4
q13 0 32 -14l134 -106q10 -7 10 -17q0 -7 -9 -10q-12 -4 -25 -4q-16 0 -32 12z" />
    <glyph glyph-name="ygrave" unicode="&#x1ef3;" horiz-adv-x="568" 
d="M88 149v332q0 18 18 18h22q17 0 17 -18v-324q0 -53 9 -76q16 -41 102 -41q92 0 142 26q15 9 19 16q6 10 6 31v368q0 18 18 18h21q18 0 18 -18v-471q0 -71 -16 -122q-40 -122 -291 -122q-21 0 -22 13q-2 16 -2 22q0 17 17 17q84 2 135 13.5t72 28t33 42.5q15 35 15 93v31
q-63 -39 -179 -39q-118 0 -142 63q-12 33 -12 99zM289 590l-120 130q-9 9 -9 15q0 11 12 14q11 3 31 3q17 0 29 -14l105 -130q7 -7 7 -15t-9 -11q-7 -3 -22 -3q-14 0 -24 11z" />
    <glyph glyph-name="endash" unicode="&#x2013;" horiz-adv-x="541" 
d="M490 241h-438q-16 0 -16 14v23q0 16 17 16h436q17 0 17 -16v-24q0 -13 -16 -13z" />
    <glyph glyph-name="emdash" unicode="&#x2014;" horiz-adv-x="833" 
d="M782 241h-730q-16 0 -16 14v23q0 16 17 16h728q17 0 17 -16v-24q0 -13 -16 -13z" />
    <glyph glyph-name="quoteleft" unicode="&#x2018;" horiz-adv-x="177" 
d="M77 504h-22q-21 0 -21 21q0 54 19.5 113.5t59.5 98.5q14 12 20 12q7 0 17 -8q10 -9 10 -15q0 -7 -7 -16q-51 -60 -54 -179q0 -27 -22 -27z" />
    <glyph glyph-name="quoteright" unicode="&#x2019;" horiz-adv-x="177" 
d="M102 748h21q21 0 21 -20q0 -55 -19 -114t-59 -98q-14 -12 -21 -12q-9 0 -17 8q-10 7 -10 15q0 6 7 15q51 61 55 180q0 26 22 26z" />
    <glyph glyph-name="quotesinglbase" unicode="&#x201a;" horiz-adv-x="178" 
d="M102 86h21q21 0 21 -21q0 -128 -78 -212q-10 -11 -21 -11q-8 0 -17 7q-10 9 -10 16q0 6 7 15q51 60 55 180q0 26 22 26z" />
    <glyph glyph-name="quotedblleft" unicode="&#x201c;" horiz-adv-x="329" 
d="M77 504h-22q-21 0 -21 21q0 55 19.5 114t59.5 98q14 12 20 12q7 0 17 -8q10 -9 10 -15q0 -7 -7 -16q-51 -60 -54 -179q0 -27 -22 -27zM227 504h-21q-21 0 -21 21q0 55 19 114t59 98q14 12 20 12q8 0 18 -8q9 -8 9 -15q0 -9 -7 -16q-49 -60 -54 -179q0 -27 -22 -27z" />
    <glyph glyph-name="quotedblright" unicode="&#x201d;" horiz-adv-x="329" 
d="M252 748h22q20 0 20 -20q0 -55 -19 -114t-59 -98q-12 -12 -20 -12q-10 0 -18 8q-9 8 -9 15q0 6 7 15q49 60 54 180q0 26 22 26zM102 748h21q21 0 21 -20q0 -55 -19.5 -114t-58.5 -98q-14 -12 -21 -12q-9 0 -17 8q-10 7 -10 15q0 6 7 15q51 61 55 180q0 26 22 26z" />
    <glyph glyph-name="quotedblbase" unicode="&#x201e;" horiz-adv-x="329" 
d="M102 86h21q21 0 21 -21q0 -55 -19 -113.5t-59 -98.5q-11 -11 -21 -11q-8 0 -17 7q-10 9 -10 16q0 6 7 15q51 60 55 180q0 26 22 26zM252 86h21q21 0 21 -21q0 -55 -18.5 -113t-59.5 -99q-13 -11 -21 -11t-17 7q-9 8 -9 16q0 6 7 15q50 61 54 180q0 26 22 26z" />
    <glyph glyph-name="dagger" unicode="&#x2020;" horiz-adv-x="465" 
d="M260 -68q0 -18 -16 -18h-23q-17 0 -17 18v515h-154q-15 0 -15 13v25q0 15 16 15h153v198q0 18 18 18h23q15 0 15 -18v-198h153q16 0 16 -15v-25q0 -13 -15 -13h-154v-515z" />
    <glyph glyph-name="daggerdbl" unicode="&#x2021;" horiz-adv-x="465" 
d="M260 -68q0 -18 -16 -18h-23q-17 0 -17 18v206h-154q-15 0 -15 13v24q0 15 16 15h153v257h-154q-15 0 -15 13v25q0 15 16 15h153v198q0 18 18 18h23q15 0 15 -18v-198h153q16 0 16 -15v-25q0 -13 -15 -13h-154v-257h153q16 0 16 -15v-24q0 -13 -15 -13h-154v-206z" />
    <glyph glyph-name="bullet" unicode="&#x2022;" horiz-adv-x="335" 
d="M282 266q0 -120 -114 -120q-115 0 -115 119t115 119q56 0 85 -27t29 -91z" />
    <glyph glyph-name="ellipsis" unicode="&#x2026;" horiz-adv-x="917" 
d="M219 38q0 -47 -47 -47q-46 0 -46 47q0 48 47 48q46 0 46 -48zM505 38q0 -47 -46 -47t-46 47q0 48 46 48t46 -48zM792 38q0 -47 -47 -47q-46 0 -46 47q0 48 47 48q46 0 46 -48z" />
    <glyph glyph-name="perthousand" unicode="&#x2030;" horiz-adv-x="1208" 
d="M339 474q0 -126 -34 -172t-117 -46q-79 0 -113 45t-34 168q0 125 38.5 170t114.5 45q54 0 83.5 -15.5t45.5 -61.5t16 -133zM291 474q0 101 -21.5 134.5t-77.5 33.5q-54 0 -78.5 -36t-24.5 -136q0 -104 23 -138t76 -34q57 0 80 34t23 142zM274 -16q-8 -16 -22 -16t-18 2
q-4 3 -4 9q0 8 7 22l331 688q11 22 24 22q12 0 17 -1q8 -1 8 -9q0 -7 -10 -27zM802 210q0 -126 -34 -172t-117 -46q-79 0 -113 45t-34 168q0 125 38.5 170t114.5 45q54 0 83.5 -15.5t45.5 -61.5t16 -133zM754 210q0 101 -21.5 134.5t-77.5 33.5q-54 0 -78.5 -36t-24.5 -136
q0 -104 23 -138t76 -34q57 0 80 34t23 142zM1169 210q0 -126 -34 -172t-117 -46q-79 0 -113 45t-34 168q0 125 38.5 170t114.5 45q54 0 83.5 -15.5t45.5 -61.5t16 -133zM1121 210q0 101 -21.5 134.5t-77.5 33.5q-54 0 -78.5 -36t-24.5 -136q0 -104 23 -138t76 -34
q57 0 80 34t23 142z" />
    <glyph glyph-name="guilsinglleft" unicode="&#x2039;" horiz-adv-x="287" 
d="M101 264l132 -164q10 -13 10 -21t-8 -10q-11 -3 -28 -3q-13 0 -27 17l-126 156q-13 15 -13 25q0 8 9 20l128 158q2 2 5 6t4.5 5.5l4 4t4.5 3.5t5 2t6 1q18 0 30 -3q7 -3 7 -10t-12 -22z" />
    <glyph glyph-name="guilsinglright" unicode="&#x203a;" horiz-adv-x="287" 
d="M185 265l-132 164q-10 13 -10 21t8 11q12 3 28 3q12 0 27 -18l126 -155q13 -15 13 -25t-9 -20l-128 -159q-1 -1 -4 -5t-4 -5l-3.5 -3.5t-4 -3.5t-3.5 -2t-4 -1.5t-5 -0.5q-22 0 -30 3q-8 2 -8 9q0 8 12 23z" />
    <glyph glyph-name="fraction" unicode="&#x2044;" horiz-adv-x="84" 
d="M-107 -16q-8 -16 -22 -16t-18 2q-5 3 -5 9t8 22l331 688q11 22 24 22t17 -1q8 -1 8 -9q0 -7 -10 -27z" />
    <glyph glyph-name="zero.superior" unicode="&#x2070;" 
d="M339 630q0 -126 -34 -172t-117 -46q-79 0 -113 45t-34 168q0 125 38.5 170t114.5 45q54 0 83.5 -15.5t45.5 -61.5t16 -133zM291 630q0 101 -21.5 134.5t-77.5 33.5q-54 0 -78.5 -36t-24.5 -136q0 -104 23 -138t76 -34q57 0 80 34t23 142z" />
    <glyph glyph-name="four.superior" unicode="&#x2074;" 
d="M281 432q0 -14 -13 -14h-21q-12 0 -12 14v95h-186q-14 0 -14 11v17q0 10 5 20l127 243q7 15 18 15q6 0 15.5 -0.5t10.5 -0.5q6 -2 6 -9q0 -6 -5 -15l-126 -238h149v102q0 13 12 13h21q13 0 13 -13v-102h57q13 0 13 -12v-20q0 -11 -13 -11h-57v-95z" />
    <glyph glyph-name="five.superior" unicode="&#x2075;" 
d="M109 667q31 6 75 6q72 0 102 -27.5t30 -98.5q0 -135 -154 -135q-62 0 -98 10q-15 5 -15 13q0 7 6 23q2 8 11 8q1 0 26 -5q32 -7 71 -7q104 0 104 92q0 51 -23 67.5t-74 16.5q-18 0 -46 -3t-33 -3q-24 0 -24 25q0 12 1 28l7 139q0 16 15 16h190q13 0 13 -11v-21
q0 -11 -13 -11h-165z" />
    <glyph glyph-name="six.superior" unicode="&#x2076;" 
d="M92 639q13 17 43.5 28.5t70.5 11.5q66 0 96 -30.5t30 -100.5q0 -137 -144 -137q-70 0 -106.5 43.5t-36.5 146.5q0 122 35.5 180.5t140.5 58.5q48 0 75 -9q8 -3 8 -10q0 -9 -5 -24q-2 -6 -8 -6q-9 0 -17 2q-28 5 -50 5q-42 0 -67.5 -9t-38.5 -32t-17.5 -47t-8.5 -71z
M93 577q0 -18 3 -39q9 -84 95 -84q94 0 94 96q0 87 -86 87q-74 0 -99 -34q-7 -12 -7 -26z" />
    <glyph glyph-name="seven.superior" unicode="&#x2077;" 
d="M266 790h-216q-13 0 -13 11v20q0 11 13 11h240q30 0 30 -22q0 -12 -9 -34l-141 -342q-7 -17 -18 -17q-16 0 -26 3q-8 2 -8 10q0 9 5 19z" />
    <glyph glyph-name="eight.superior" unicode="&#x2078;" 
d="M243 637q84 -12 84 -104q0 -121 -144 -121q-75 0 -110 28.5t-35 90.5q0 85 84 106q-69 18 -69 96q0 107 133 107q69 0 99.5 -24.5t30.5 -81.5q0 -76 -73 -97zM278 535q0 79 -95 79q-97 0 -97 -79q0 -47 25.5 -64.5t71.5 -17.5q95 0 95 82zM268 728q0 35 -19 52.5
t-66 17.5q-46 0 -65 -18t-19 -53q0 -72 84 -72q33 0 59 17t26 56z" />
    <glyph glyph-name="nine.superior" unicode="&#x2079;" 
d="M275 610q-32 -35 -112 -35q-64 0 -94.5 30t-30.5 98q0 137 146 137q70 0 104.5 -42t34.5 -147q0 -60 -6.5 -99.5t-24.5 -73.5t-54 -50t-91 -16q-54 0 -83 9q-7 2 -7 11q0 4 5 24q2 7 8 7q5 0 17 -3q42 -6 60 -6q33 0 56 8t36 19.5t21 34.5t10.5 42t4.5 52zM274 672
q0 25 -3 46q-6 38 -25.5 59t-64.5 21q-98 0 -98 -96q0 -43 20 -64.5t67 -21.5q35 0 61.5 9.5t35.5 20.5q7 7 7 26z" />
    <glyph glyph-name="parenleft.superior" unicode="&#x207d;" horiz-adv-x="205" 
d="M87 611q0 -58 8.5 -101.5t27 -75t32.5 -47.5t40 -40q4 -4 4 -8t-4 -8q-5 -6 -10 -6q-6 0 -16 6q-130 80 -130 279q0 106 37 173t91 99q12 6 16 6t11 -5q5 -5 5 -9q0 -5 -4 -8q-52 -40 -80 -98t-28 -157z" />
    <glyph glyph-name="parenright.superior" unicode="&#x207e;" horiz-adv-x="205" 
d="M118 603q0 58 -8.5 101.5t-27 75t-32.5 47.5t-40 40q-4 4 -4 8t4 8q5 6 10 6q6 0 16 -6q130 -80 130 -279q0 -106 -37 -173t-91 -99q-12 -6 -16 -6q-5 0 -12 5q-4 4 -4 9t4 8q52 40 80 98t28 157z" />
    <glyph glyph-name="n.superior" unicode="&#x207f;" horiz-adv-x="368" 
d="M104 275q0 -13 -13 -13h-22q-12 0 -12 13v238q0 27 19 36q56 26 142 26q74 0 88 -37q6 -17 6 -60v-203q0 -13 -12 -13h-22q-12 0 -12 13v195q0 28 -5 41q-9 23 -56 23q-58 0 -86 -15q-9 -3 -12 -8t-3 -18v-218z" />
    <glyph glyph-name="zero.inferior" unicode="&#x2080;" 
d="M339 84q0 -126 -34 -172t-117 -46q-79 0 -113 45t-34 168q0 125 38.5 170t114.5 45q54 0 83.5 -15.5t45.5 -61.5t16 -133zM291 84q0 101 -21.5 134.5t-77.5 33.5q-54 0 -78.5 -36t-24.5 -136q0 -104 23 -138t76 -34q57 0 80 34t23 142z" />
    <glyph glyph-name="one.inferior" unicode="&#x2081;" 
d="M280 -126h-170q-12 0 -12 11v20q0 12 12 12h67v319l-65 -25q-12 -3 -14 -3q-6 0 -8 6q-8 17 -8 24q0 6 8 9l79 32q16 7 29 7h5q22 0 22 -25v-344h54q13 0 13 -12v-21q0 -10 -12 -10z" />
    <glyph glyph-name="two.inferior" unicode="&#x2082;" 
d="M308 -125h-245q-27 0 -27 26q0 17 19 32q93 71 159 136q52 50 52 99q0 40 -21 62.5t-74 22.5q-35 0 -73 -12l-23 -5q-6 0 -9 6q-5 12 -5 22q0 8 15 13q49 18 104 18q75 0 104.5 -32t29.5 -88q0 -68 -55 -121q-64 -64 -163 -137q37 1 212 1q13 0 13 -11v-20q0 -12 -13 -12
z" />
    <glyph glyph-name="three.inferior" unicode="&#x2083;" 
d="M216 92q92 -8 92 -101q0 -64 -36 -94.5t-114 -30.5q-61 0 -95 10q-17 6 -17 15q0 5 7 23q3 6 10 6q3 0 21 -4q32 -8 73 -8q63 0 83 22.5t20 59.5q0 40 -23 58t-89 19q-22 0 -22 21q0 13 5 17.5t18 5.5q56 1 77.5 19.5t21.5 51.5q0 41 -19 55.5t-71 14.5q-32 0 -64 -9
q-21 -7 -23 -7q-7 0 -10 8q-5 15 -5 19q0 10 14 15q44 16 98 16q73 0 100.5 -26t27.5 -83q0 -36 -22 -60t-58 -33z" />
    <glyph glyph-name="four.inferior" unicode="&#x2084;" 
d="M281 -114q0 -14 -13 -14h-21q-12 0 -12 14v95h-177q-26 0 -26 21q0 14 12 35l123 235q6 15 18 15q6 0 15.5 -0.5t10.5 -0.5q6 -2 6 -9q0 -6 -5 -15l-126 -238h149v102q0 13 12 13h21q13 0 13 -13v-102h57q13 0 13 -12v-20q0 -11 -13 -11h-57v-95z" />
    <glyph glyph-name="five.inferior" unicode="&#x2085;" 
d="M109 121q31 6 75 6q72 0 102 -27.5t30 -98.5q0 -135 -154 -135q-62 0 -98 10q-15 5 -15 13q0 7 6 23q2 8 11 8q1 0 26 -5q32 -7 71 -7q104 0 104 92q0 51 -23 67.5t-74 16.5q-18 0 -46 -3t-33 -3q-24 0 -24 25q0 12 1 28l7 139q0 16 15 16h190q13 0 13 -11v-21
q0 -11 -13 -11h-165z" />
    <glyph glyph-name="six.inferior" unicode="&#x2086;" 
d="M92 93q13 17 43.5 28.5t70.5 11.5q66 0 96 -30.5t30 -100.5q0 -137 -144 -137q-70 0 -106.5 43.5t-36.5 146.5q0 122 35.5 180.5t140.5 58.5q48 0 75 -9q8 -3 8 -10q0 -9 -5 -24q-2 -6 -8 -6q-9 0 -17 2q-28 5 -50 5q-42 0 -67.5 -9t-38.5 -32t-17.5 -47t-8.5 -71zM93 31
q0 -18 3 -39q9 -84 95 -84q94 0 94 96q0 87 -86 87q-74 0 -99 -34q-7 -12 -7 -26z" />
    <glyph glyph-name="seven.inferior" unicode="&#x2087;" 
d="M266 244h-216q-13 0 -13 11v20q0 11 13 11h240q30 0 30 -22q0 -12 -9 -34l-141 -342q-7 -17 -18 -17q-17 0 -26 3q-8 2 -8 10q0 9 5 19z" />
    <glyph glyph-name="eight.inferior" unicode="&#x2088;" 
d="M243 91q84 -12 84 -104q0 -121 -144 -121q-75 0 -110 28.5t-35 90.5q0 85 84 106q-69 18 -69 96q0 107 133 107q69 0 99.5 -24.5t30.5 -81.5q0 -76 -73 -97zM278 -11q0 79 -95 79q-97 0 -97 -79q0 -47 25.5 -64.5t71.5 -17.5q95 0 95 82zM268 182q0 35 -19 52.5t-66 17.5
q-46 0 -65 -18t-19 -53q0 -72 84 -72q33 0 59 17t26 56z" />
    <glyph glyph-name="nine.inferior" unicode="&#x2089;" 
d="M275 64q-32 -35 -112 -35q-64 0 -94.5 30t-30.5 98q0 137 146 137q70 0 104.5 -42t34.5 -147q0 -60 -6.5 -99.5t-24.5 -73.5t-54 -50t-91 -16q-54 0 -83 9q-7 2 -7 11q0 4 5 24q2 7 8 7q5 0 17 -3q42 -6 60 -6q33 0 56 8t36 19.5t21 34.5t10.5 42t4.5 52zM274 126
q0 25 -3 46q-6 38 -25.5 59t-64.5 21q-98 0 -98 -96q0 -43 20 -64.5t67 -21.5q35 0 61.5 9.5t35.5 20.5q7 7 7 26z" />
    <glyph glyph-name="parenleft.inferior" unicode="&#x208d;" horiz-adv-x="205" 
d="M87 65q0 -58 8.5 -101.5t27 -75t32.5 -47.5t40 -40q4 -4 4 -8t-4 -8q-5 -6 -10 -6q-6 0 -16 6q-130 80 -130 279q0 106 37 173t91 99q12 6 16 6t11 -5q5 -5 5 -9q0 -5 -4 -8q-52 -40 -80 -98t-28 -157z" />
    <glyph glyph-name="parenright.inferior" unicode="&#x208e;" horiz-adv-x="205" 
d="M118 57q0 58 -8.5 101.5t-27 75t-32.5 47.5t-40 40q-4 4 -4 8t4 8q5 6 10 6q6 0 16 -6q130 -80 130 -279q0 -106 -37 -173t-91 -99q-12 -6 -16 -6q-5 0 -12 5q-4 4 -4 9t4 8q52 40 80 98t28 157z" />
    <glyph glyph-name="Euro" unicode="&#x20ac;" horiz-adv-x="611" 
d="M444 386h-232v-44v-46h232q17 0 17 -16v-9q0 -17 -17 -17h-230q8 -100 48 -156.5t138 -56.5q79 0 132 15q24 7 30 7q9 0 14 -11q6 -16 6 -23q0 -13 -20 -19q-72 -22 -161 -22q-115 0 -174.5 60t-71.5 206h-71q-18 0 -18 17v9q0 16 18 16h69v32q0 39 1 58h-70
q-18 0 -18 16v9q0 16 18 16h73q12 137 73.5 199t196.5 62q72 0 122 -10q20 -3 20 -18q0 -8 -6 -28q-3 -8 -14 -8q-1 0 -34 5q-32 5 -105 5q-103 0 -145.5 -54.5t-50.5 -152.5h230q17 0 17 -16v-9q0 -16 -17 -16z" />
    <glyph glyph-name="afii61289" unicode="&#x2113;" horiz-adv-x="435" 
d="M154 217q2 -87 33.5 -132t88.5 -45q62 0 111 36q12 7 16 7q9 0 15 -9q9 -13 9 -21q0 -9 -7 -14q-64 -52 -154 -52q-69 0 -112.5 50t-52.5 140q-41 -28 -46 -31l-15 -5q-6 0 -17 15q-6 12 -6 15q0 9 9 15q36 22 68 46q-6 84 -6 130q0 143 21 207q20 63 57 91t95 28
q120 0 120 -133q0 -88 -64 -178q-27 -38 -60 -69.5t-103 -90.5zM147 276q95 83 130 134q50 70 50 142q0 85 -71 85q-59 0 -86 -59q-26 -58 -26 -201q0 -33 3 -101z" />
    <glyph glyph-name="trademark" unicode="&#x2122;" horiz-adv-x="782" 
d="M198 376q0 -13 -11 -13h-21q-10 0 -10 13v292h-99q-13 0 -13 12v14q0 12 13 12h238q15 0 15 -11v-15q0 -12 -15 -12h-97v-292zM419 376q0 -13 -10 -13h-22q-10 0 -10 15v299q0 31 27 31h13q19 -1 28 -20q74 -161 90 -201q21 55 87 199q9 22 31 22h11q26 0 26 -31v-300
q0 -14 -12 -14h-20q-10 0 -10 14q0 232 1 289q-9 -24 -92 -213q-6 -14 -20 -14h-8q-14 0 -20 15q-72 158 -92 212q2 -57 2 -290z" />
    <glyph glyph-name="Omega" unicode="&#x2126;" horiz-adv-x="722" 
d="M321 16q0 -16 -18 -16h-214q-17 0 -17 16v20q0 18 16 18h177q-99 40 -142.5 112.5t-43.5 198.5q0 164 69.5 244t219.5 80q148 0 210 -78t62 -239q0 -123 -41.5 -197t-139.5 -121h173q17 0 17 -18v-20q0 -16 -16 -16h-215q-18 0 -18 16v40q0 17 14 23q83 39 123 104.5
t40 183.5q0 141 -47.5 204t-164.5 63q-118 0 -170.5 -64.5t-52.5 -204.5q0 -114 40.5 -182.5t124.5 -103.5q14 -5 14 -23v-40z" />
    <glyph glyph-name="estimated" unicode="&#x212e;" horiz-adv-x="845" 
d="M803 336h-616q-6 0 -6 -4v-195q0 -10 10 -22q95 -106 233 -106q147 0 244 118h57q-54 -64 -133 -101.5t-169 -37.5q-158 0 -269.5 105t-111.5 253t111.5 252.5t269.5 104.5t269 -104.5t111 -252.5v-10zM665 362v195q0 13 -11 24q-98 101 -230 101t-232 -105
q-11 -11 -11 -24v-191q0 -5 6 -5h472q6 0 6 5z" />
    <glyph glyph-name="onethird" unicode="&#x2153;" horiz-adv-x="842" 
d="M683 218q92 -8 92 -101q0 -64 -36 -94.5t-114 -30.5q-61 0 -95 10q-17 6 -17 15q0 5 7 23q3 6 10 6q3 0 21 -4q32 -8 73 -8q63 0 83 22.5t20 59.5q0 40 -23 58t-89 19q-22 0 -22 21q0 13 5 17.5t18 5.5q56 1 77.5 19.5t21.5 51.5q0 41 -19 55.5t-71 14.5q-32 0 -64 -9
q-21 -7 -23 -7q-7 0 -10 8q-5 15 -5 19q0 10 14 15q44 16 98 16q73 0 100.5 -26t27.5 -83q0 -36 -22 -60t-58 -33zM260 -16q-8 -16 -22 -16t-18 2q-5 3 -5 9t8 22l331 688q11 22 24 22t17 -1q8 -1 8 -9q0 -7 -10 -27zM285 264h-170q-12 0 -12 11v20q0 12 12 12h67v319
l-65 -25q-12 -3 -14 -3q-7 0 -8 6q-8 17 -8 24q0 6 8 9l79 32q16 7 29 7h5q22 0 22 -25v-344h54q13 0 13 -12v-21q0 -10 -12 -10z" />
    <glyph glyph-name="twothirds" unicode="&#x2154;" horiz-adv-x="842" 
d="M298 -16q-8 -16 -22 -16t-18 2q-5 3 -5 9t8 22l331 688q11 22 24 22t17 -1q8 -1 8 -9q0 -7 -10 -27zM328 264h-245q-27 0 -27 26q0 17 19 32q93 71 159 136q52 50 52 99q0 40 -21 62.5t-74 22.5q-35 0 -73 -12q-22 -5 -23 -5q-6 0 -9 6q-5 13 -5 22q0 8 15 13
q49 18 104 18q75 0 104.5 -32t29.5 -88q0 -68 -55 -121q-64 -64 -163 -137q37 1 212 1q13 0 13 -11v-20q0 -12 -13 -12zM707 218q92 -8 92 -101q0 -64 -36 -94.5t-114 -30.5q-61 0 -95 10q-17 6 -17 15q0 5 7 23q3 6 10 6q3 0 21 -4q32 -8 73 -8q63 0 83 22.5t20 59.5
q0 40 -23 58t-89 19q-22 0 -22 21q0 13 5 17.5t18 5.5q56 1 77.5 19.5t21.5 51.5q0 41 -19 55.5t-71 14.5q-32 0 -64 -9q-21 -7 -23 -7q-7 0 -10 8q-5 15 -5 19q0 10 14 15q44 16 98 16q73 0 100.5 -26t27.5 -83q0 -36 -22 -60t-58 -33z" />
    <glyph glyph-name="oneeighth" unicode="&#x215b;" horiz-adv-x="842" 
d="M704 217q84 -12 84 -104q0 -121 -144 -121q-75 0 -110 28.5t-35 90.5q0 85 84 106q-69 18 -69 96q0 107 133 107q69 0 99.5 -24.5t30.5 -81.5q0 -76 -73 -97zM249 -16q-8 -16 -22 -16t-18 2q-5 3 -5 9t8 22l331 688q11 22 24 22t17 -1q8 -1 8 -9q0 -7 -10 -27zM274 264
h-170q-12 0 -12 11v20q0 12 12 12h67v319l-65 -25q-12 -3 -14 -3q-6 0 -8 6q-8 17 -8 24q0 6 8 9l79 32q16 7 29 7h5q22 0 22 -25v-344h54q13 0 13 -12v-21q0 -10 -12 -10zM739 115q0 79 -95 79q-97 0 -97 -79q0 -47 25.5 -64.5t71.5 -17.5q95 0 95 82zM729 308
q0 35 -19 52.5t-66 17.5q-46 0 -65 -18t-19 -53q0 -72 84 -72q33 0 59 17t26 56z" />
    <glyph glyph-name="threeeighths" unicode="&#x215c;" horiz-adv-x="842" 
d="M261 -16q-8 -16 -22 -16t-18 2q-5 3 -5 9t8 22l331 688q11 22 24 22t17 -1q8 -1 8 -9q0 -7 -10 -27zM224 482q92 -8 92 -101q0 -64 -36 -94.5t-114 -30.5q-61 0 -95 10q-17 6 -17 15q0 5 7 23q3 6 10 6q3 0 21 -4q32 -8 73 -8q63 0 83 22.5t20 59.5q0 40 -23 58t-89 19
q-22 0 -22 21q0 13 5 17.5t18 5.5q56 1 77.5 19.5t21.5 51.5q0 41 -19 55.5t-71 14.5q-32 0 -64 -9q-21 -7 -23 -7q-7 0 -10 8q-5 15 -5 19q0 10 14 15q44 16 98 16q73 0 100.5 -26t27.5 -83q0 -36 -22 -60t-58 -33zM698 217q84 -12 84 -104q0 -121 -144 -121
q-75 0 -110 28.5t-35 90.5q0 85 84 106q-69 18 -69 96q0 107 133 107q69 0 99.5 -24.5t30.5 -81.5q0 -76 -73 -97zM733 115q0 79 -95 79q-97 0 -97 -79q0 -47 25.5 -64.5t71.5 -17.5q95 0 95 82zM723 308q0 35 -19 52.5t-66 17.5q-46 0 -65 -18t-19 -53q0 -72 84 -72
q33 0 59 17t26 56z" />
    <glyph glyph-name="fiveeighths" unicode="&#x215d;" horiz-adv-x="842" 
d="M267 -16q-8 -16 -22 -16t-18 2q-5 3 -5 9t8 22l331 688q11 22 24 22t17 -1q8 -1 8 -9q0 -7 -10 -27zM117 511q31 6 75 6q72 0 102 -27.5t30 -98.5q0 -135 -154 -135q-62 0 -98 10q-15 5 -15 13q0 7 6 23q2 8 11 8q1 0 26 -5q32 -7 71 -7q104 0 104 92q0 51 -23 67.5
t-74 16.5q-18 0 -46 -3t-33 -3q-24 0 -24 25q0 12 1 28l7 139q0 16 15 16h190q13 0 13 -11v-21q0 -11 -13 -11h-165zM700 217q84 -12 84 -104q0 -121 -144 -121q-75 0 -110 28.5t-35 90.5q0 85 84 106q-69 18 -69 96q0 107 133 107q69 0 99.5 -24.5t30.5 -81.5
q0 -76 -73 -97zM735 115q0 79 -95 79q-97 0 -97 -79q0 -47 25.5 -64.5t71.5 -17.5q95 0 95 82zM725 308q0 35 -19 52.5t-66 17.5q-46 0 -65 -18t-19 -53q0 -72 84 -72q33 0 59 17t26 56z" />
    <glyph glyph-name="seveneighths" unicode="&#x215e;" horiz-adv-x="842" 
d="M220 -16q-8 -16 -22 -16t-18 2q-5 3 -5 9t8 22l331 688q11 22 24 22t17 -1q8 -1 8 -9q0 -7 -10 -27zM288 634h-216q-13 0 -13 11v20q0 11 13 11h240q30 0 30 -22q0 -12 -9 -34l-141 -342q-7 -17 -18 -17q-18 0 -26 3q-8 4 -8 10q0 9 5 19zM663 217q84 -12 84 -104
q0 -121 -144 -121q-75 0 -110 28.5t-35 90.5q0 85 84 106q-69 18 -69 96q0 107 133 107q69 0 99.5 -24.5t30.5 -81.5q0 -76 -73 -97zM698 115q0 79 -95 79q-97 0 -97 -79q0 -47 25.5 -64.5t71.5 -17.5q95 0 95 82zM688 308q0 35 -19 52.5t-66 17.5q-46 0 -65 -18t-19 -53
q0 -72 84 -72q33 0 59 17t26 56z" />
    <glyph glyph-name="arrowleft" unicode="&#x2190;" horiz-adv-x="768" 
d="M709 365q24 0 24 -19v-18q0 -20 -19 -20q-498 0 -586 1l267 -252q10 -10 10 -18q0 -5 -5 -13l-15 -16q-7 -7 -13 -7q-4 0 -13 7l-315 312q-7 6 -7 14q0 9 7 15l317 317q6 6 12 6t12 -6l15 -15q7 -7 7 -13q0 -7 -7 -14l-272 -263q85 2 581 2z" />
    <glyph glyph-name="arrowup" unicode="&#x2191;" horiz-adv-x="768" 
d="M354 22q0 490 2 574q-25 -29 -264 -263q-6 -6 -12 -6q-7 0 -12 5l-14 13q-6 6 -6 14q0 7 6 13l313 312q10 10 19 10t18 -9l309 -310q7 -7 7 -13q0 -8 -7 -15l-12 -13q-6 -6 -14 -6t-18 10q-193 192 -253 258q1 -88 1 -577q0 -19 -18 -19h-27q-18 0 -18 22z" />
    <glyph glyph-name="arrowright" unicode="&#x2192;" horiz-adv-x="768" 
d="M58 365q493 0 579 -2l-271 262q-6 5 -6 14q0 7 6 13l15 16q6 6 14 6q5 0 11 -6l318 -317q6 -6 6 -15q0 -8 -6 -14l-316 -312q-5 -5 -13 -5q-7 0 -13 6l-14 14q-5 5 -5 12q0 9 10 19l264 253q-89 -1 -584 -1q-18 0 -18 20v18q0 19 23 19z" />
    <glyph glyph-name="arrowdown" unicode="&#x2193;" horiz-adv-x="768" 
d="M354 651q0 24 18 24h27q18 0 18 -19q0 -491 -1 -579l254 260q10 10 18 10t12 -4l13 -15q7 -7 7 -14t-7 -14l-309 -311q-9 -9 -18 -9q-8 0 -16 8l-315 314q-7 6 -7 13t7 14l16 14q7 5 12 5q6 0 12 -6q207 -202 261 -264q-2 88 -2 573z" />
    <glyph glyph-name="uni2196" unicode="&#x2196;" horiz-adv-x="768" 
d="M648 121q9 -7 9 -17t-11 -21q-15 -16 -23 -16q-7 0 -15 8q-377 373 -407 405q0 -5 1 -44t2 -121.5t1 -194.5q0 -12 -6 -19q-5 -5 -12 -5h-22q-9 0 -14 5t-5 17v439q0 10 6 16q5 5 17 5h446q10 0 14 -4q5 -5 5 -14v-20q0 -11 -5 -16q-4 -4 -15 -4q-296 0 -377 3z" />
    <glyph glyph-name="uni2197" unicode="&#x2197;" horiz-adv-x="768" 
d="M163 76q-9 -9 -16 -9q-10 0 -18 9q-18 19 -18 25q0 9 6 15l416 407q-7 0 -46 -1t-123.5 -2t-199.5 -1q-12 0 -17 4q-6 6 -6 15v21q0 7 5 14q5 5 15 5h443q7 0 14 -5q5 -4 5 -18v-443q0 -12 -4 -16q-5 -5 -13 -5h-23q-8 0 -12 4q-6 5 -6 17q0 261 4 369q-72 -77 -406 -405
z" />
    <glyph glyph-name="uni2198" unicode="&#x2198;" horiz-adv-x="768" 
d="M121 548q-10 10 -10 18t9 17q17 17 27 17q4 0 12 -6q332 -324 409 -405q0 6 -1 44.5t-1.5 120t-0.5 193.5q0 13 4 20q5 6 16 6h21q8 0 13 -5t5 -18v-435q0 -13 -6 -19q-7 -7 -20 -7h-443q-10 0 -14 5q-4 4 -4 14v18q0 11 4 15q5 5 15 5q117 0 206.5 -0.5t126.5 -1
t46 -0.5z" />
    <glyph glyph-name="uni2199" unicode="&#x2199;" horiz-adv-x="768" 
d="M603 592q9 9 19 9t25 -16q11 -11 11 -18q0 -9 -8 -17l-413 -404q112 4 369 4q16 0 20 -4t4 -15v-21q0 -8 -4 -14q-5 -5 -16 -5h-438q-14 0 -20 6t-6 19v440q0 11 5 16t15 5h20q10 0 14 -5q4 -7 4 -19q0 -255 -4 -363q116 122 403 402z" />
    <glyph glyph-name="partialdiff" unicode="&#x2202;" horiz-adv-x="545" 
d="M419 379q-6 141 -36.5 200t-118.5 59q-70 0 -109 -14q-1 0 -4.5 -1t-6.5 -2t-4 -1q-12 0 -16 12q-5 12 -5 22t12 15q46 19 144 19q121 0 162 -88.5t41 -308.5q0 -160 -52 -232t-165 -72q-196 0 -196 215q0 222 206 222q97 0 148 -45zM421 314q-42 61 -150 61
q-74 0 -113 -39.5t-39 -133.5q0 -165 144 -165q58 0 93.5 24.5t51.5 86.5q13 48 13 166z" />
    <glyph glyph-name="Delta" unicode="&#x2206;" horiz-adv-x="641" 
d="M623 37q4 -11 4 -20q0 -17 -18 -17h-577q-18 0 -18 16q0 5 5 20l263 625q5 16 23 16h36q15 0 21 -16zM320 615q-25 -71 -231 -561h462q-209 504 -231 561z" />
    <glyph glyph-name="product" unicode="&#x220f;" horiz-adv-x="705" 
d="M172 -113q0 -20 -19 -20h-22q-19 0 -19 20v769q0 20 22 20h439q20 0 20 -21v-768q0 -20 -19 -20h-22q-19 0 -19 20v735h-361v-735z" />
    <glyph glyph-name="summation" unicode="&#x2211;" horiz-adv-x="589" 
d="M534 -130h-456q-38 0 -38 36q0 21 18 45l253 337l-237 314q-11 15 -11 33q0 41 38 41h410q20 0 20 -19v-18q0 -17 -21 -17h-382l237 -308q9 -12 9 -24t-10 -26l-259 -340h429q21 0 21 -18v-19q0 -17 -21 -17z" />
    <glyph glyph-name="minus" unicode="&#x2212;" horiz-adv-x="701" 
d="M611 286q0 -17 -16 -17h-490q-15 0 -15 17v18q0 17 15 17h490q16 0 16 -17v-18z" />
    <glyph glyph-name="uni2215" unicode="&#x2215;" horiz-adv-x="84" 
d="M-107 -16q-8 -16 -22 -16t-18 2q-5 3 -5 9t8 22l331 688q11 22 24 22t17 -1q8 -1 8 -9q0 -7 -10 -27z" />
    <glyph glyph-name="uni2219" unicode="&#x2219;" horiz-adv-x="207" 
d="M147 269q0 -44 -44 -44q-43 0 -43 44q0 23 12.5 33.5t31.5 10.5q43 0 43 -44z" />
    <glyph glyph-name="radical" unicode="&#x221a;" horiz-adv-x="638" 
d="M342 -165q-4 -16 -18 -16h-23q-11 0 -19 14l-137 277l-55 -26q-6 -2 -9 -2q-7 0 -11 9q-9 17 -9 23q0 8 9 13l85 42q6 3 14 3q7 0 14 -12l129 -264l240 786q4 15 18 15q15 0 25 -2t10 -11q0 -3 -4 -19z" />
    <glyph glyph-name="infinity" unicode="&#x221e;" horiz-adv-x="730" 
d="M365 328q46 55 86.5 80.5t88.5 25.5q60 0 96.5 -39.5t36.5 -101.5q0 -66 -39 -107.5t-103 -41.5q-48 0 -83 23.5t-83 83.5q-50 -59 -87 -82.5t-85 -23.5q-61 0 -99 38.5t-38 102.5q0 66 39.5 107.5t103.5 41.5q46 0 82 -23.5t84 -83.5zM335 288q-45 55 -72 76.5t-66 21.5
q-40 0 -67 -27t-27 -69q0 -43 26 -70t66 -27q39 0 71 24t69 71zM395 291q33 -39 49.5 -55.5t40 -30t48.5 -13.5q41 0 66.5 26.5t25.5 69.5t-24 69.5t-64 26.5q-70 0 -142 -93z" />
    <glyph glyph-name="integral" unicode="&#x222b;" horiz-adv-x="320" 
d="M147 -45q0 46 -2 92l-20 464q-2 48 -2 78q0 58 27.5 89t79.5 31q24 0 46 -4q13 -3 13 -14t-3 -23t-14 -12q-1 0 -16.5 1.5t-27.5 1.5q-54 0 -54 -74q0 -5 3 -74l20 -463q3 -75 3 -91q0 -62 -27 -90t-84 -28q-27 0 -43 3q-13 2 -13 15q0 5 2 21q2 14 15 14q1 0 14 -1.5
t25 -1.5q28 0 43 14t15 52z" />
    <glyph glyph-name="approxequal" unicode="&#x2248;" horiz-adv-x="701" 
d="M135 150q-6 -8 -13 -8q-10 0 -20 9q-8 8 -8 14q0 9 5 14q40 49 72.5 68t71.5 19q42 0 121 -47q59 -35 98 -35q29 0 52 15t49 51q9 12 15 12q4 0 19 -10q9 -6 9 -15q0 -5 -7 -17q-32 -46 -63 -67t-75 -21q-49 0 -118 40q-71 41 -105 41q-28 0 -50 -13.5t-53 -49.5z
M135 346q-8 -9 -13 -9q-10 0 -20 10q-8 6 -8 14q0 7 5 14q39 48 72 67t72 19q42 0 121 -47q61 -35 98 -35q54 0 101 67q8 11 15 11q9 0 19 -9q9 -6 9 -15q0 -6 -7 -18q-32 -45 -63.5 -66.5t-74.5 -21.5q-48 0 -118 41q-72 40 -105 40q-30 0 -52 -13t-51 -49z" />
    <glyph glyph-name="notequal" unicode="&#x2260;" horiz-adv-x="701" 
d="M239 18q-6 -11 -16 -11q-13 0 -20 2q-6 2 -6 9q0 6 4 14l71 140h-167q-15 0 -15 17v17q0 17 15 17h190l68 139h-258q-15 0 -15 17v18q0 16 15 16h282l73 143q6 13 17 13t19 -2q7 -1 7 -9q0 -6 -3 -14l-67 -131h162q16 0 16 -16v-18q0 -17 -16 -17h-186l-69 -139h255
q16 0 16 -17v-17q0 -17 -16 -17h-278z" />
    <glyph glyph-name="lessequal" unicode="&#x2264;" horiz-adv-x="701" 
d="M571 17q0 -17 -16 -17h-423q-15 0 -15 17v17q0 17 15 17h423q16 0 16 -17v-17zM175 383l382 -172q15 -7 15 -21q0 -11 -2 -25q-4 -12 -15 -12q-9 0 -16 5l-408 188q-14 6 -14 26v18q0 17 14 25l412 195q6 3 13 3q9 0 12 -11q3 -9 3 -25q0 -14 -15 -21z" />
    <glyph glyph-name="greaterequal" unicode="&#x2265;" horiz-adv-x="701" 
d="M583 17q0 -17 -15 -17h-423q-15 0 -15 17v17q0 17 15 17h423q15 0 15 -17v-17zM526 384l-382 171q-15 7 -15 20q0 20 2 27q4 11 15 11q6 0 16 -5l408 -188q14 -6 14 -26v-18q0 -17 -14 -25l-412 -195q-6 -3 -13 -3q-9 0 -12 10q-3 9 -3 26q0 14 15 21z" />
    <glyph glyph-name="lozenge" unicode="&#x25ca;" horiz-adv-x="705" 
d="M317 670q7 13 22 13h32q13 0 20 -12l152 -314q2 -8 2 -14q0 -8 -4 -16l-151 -315q-6 -12 -18 -12h-36q-12 0 -18 12l-156 316q-3 6 -3 15q0 7 3 13zM214 342l142 -286l135 287l-137 285z" />
    <glyph glyph-name="commaaccent" unicode="&#xf6c3;" horiz-adv-x="185" 
d="M109 -68h17q20 0 20 -22q0 -105 -65 -170q-10 -10 -18 -10t-16 6q-8 7 -8 14t5 14q41 50 43 144q0 24 22 24z" />
    <glyph glyph-name="Dotlessi" horiz-adv-x="272" 
d="M166 17q0 -20 -18 -20h-24q-18 0 -18 20v673q0 20 19 20h24q17 0 17 -20v-673z" />
    <glyph glyph-name="Euro.denominator" horiz-adv-x="406" 
d="M293 654h-141v-25v-27h141q12 0 12 -10v-8q0 -12 -12 -12h-139q5 -56 29.5 -86.5t81.5 -30.5q48 0 81 9q18 4 19 4q7 0 10 -8q4 -12 4 -21q0 -8 -13 -12q-45 -14 -104 -14q-72 0 -110.5 36t-45.5 123h-45q-11 0 -11 12v7q0 11 11 11h43v18v34h-43q-11 0 -11 10v8
q0 11 11 11h46q8 83 47 120t124 37q49 0 80 -7q12 -3 12 -12q0 -10 -4 -24q-3 -6 -10 -6q-2 0 -5.5 0.5t-8 1.5t-7.5 1q-19 3 -64 3q-61 0 -86.5 -29t-30.5 -85h139q12 0 12 -11v-8q0 -10 -12 -10z" />
    <glyph glyph-name="Euro.inferior" horiz-adv-x="406" 
d="M293 108h-141v-25v-27h141q12 0 12 -10v-8q0 -12 -12 -12h-139q5 -56 29.5 -86.5t81.5 -30.5q48 0 81 9q18 4 19 4q7 0 10 -8q4 -12 4 -21q0 -8 -13 -12q-45 -14 -104 -14q-72 0 -110.5 36t-45.5 123h-45q-11 0 -11 12v7q0 11 11 11h43v18v34h-43q-11 0 -11 10v8
q0 11 11 11h46q8 83 47 120t124 37q49 0 80 -7q12 -3 12 -12q0 -10 -4 -24q-3 -6 -10 -6q-2 0 -5.5 0.5t-8 1.5t-7.5 1q-19 3 -64 3q-61 0 -86.5 -29t-30.5 -85h139q12 0 12 -11v-8q0 -10 -12 -10z" />
    <glyph glyph-name="Euro.numerator" horiz-adv-x="406" 
d="M292 498h-140v-25v-27h140q13 0 13 -10v-8q0 -12 -13 -12h-138q5 -56 29.5 -86.5t81.5 -30.5q48 0 81 9q18 4 19 4q7 0 10 -7q4 -14 4 -22t-13 -12q-45 -14 -104 -14q-72 0 -110.5 36t-45.5 123h-44q-12 0 -12 12v7q0 11 12 11h42v18v34h-42q-12 0 -12 10v8q0 11 12 11
h45q8 83 47 120t124 37q49 0 80 -7q12 -3 12 -12q0 -10 -4 -24q-3 -6 -10 -6q-2 0 -5.5 0.5t-8 1.5t-7.5 1q-19 3 -64 3q-61 0 -86.5 -29t-30.5 -85h138q13 0 13 -11v-8q0 -10 -13 -10z" />
    <glyph glyph-name="Euro.oldstyle" horiz-adv-x="589" 
d="M444 343h-224v-41v-43h224q17 0 17 -16v-9q0 -16 -17 -16h-222q7 -85 42 -133t118 -48q65 0 120 11q5 1 14 3.5t12 2.5q8 0 12 -11q4 -12 4 -22q0 -11 -17 -16q-66 -18 -145 -18q-102 0 -155.5 52.5t-64.5 178.5h-64q-18 0 -18 16v9q0 16 18 16h61v31q0 36 1 53h-62
q-18 0 -18 16v9q0 16 18 16h65q12 119 67.5 172t175.5 53q57 0 111 -7q16 -3 16 -16q0 -14 -5 -27q-3 -9 -13 -9q-3 0 -17 2l-21 3q-31 3 -87 3q-86 0 -122.5 -45.5t-44.5 -128.5h221q17 0 17 -16v-9q0 -16 -17 -16z" />
    <glyph glyph-name="Euro.superior" horiz-adv-x="406" 
d="M293 654h-141v-25v-27h141q12 0 12 -10v-8q0 -12 -12 -12h-139q5 -56 29.5 -86.5t81.5 -30.5q48 0 81 9q18 4 19 4q7 0 10 -8q4 -12 4 -21q0 -8 -13 -12q-45 -14 -104 -14q-72 0 -110.5 36t-45.5 123h-45q-11 0 -11 12v7q0 11 11 11h43v18v34h-43q-11 0 -11 10v8
q0 11 11 11h46q8 83 47 120t124 37q49 0 80 -7q12 -3 12 -12q0 -10 -4 -24q-3 -6 -10 -6q-2 0 -5.5 0.5t-8 1.5t-7.5 1q-19 3 -64 3q-61 0 -86.5 -29t-30.5 -85h139q12 0 12 -11v-8q0 -10 -12 -10z" />
    <glyph glyph-name="Kgreenlandic" horiz-adv-x="677" 
d="M602 490q-20 0 -20 18q0 59 22.5 121.5t61.5 98.5q10 10 18 10t17 -6q9 -7 9 -14q0 -9 -7 -16q-24 -25 -42 -73t-18 -113q0 -26 -21 -26h-20zM166 17q0 -20 -18 -20h-24q-18 0 -18 20v673q0 20 19 20h24q17 0 17 -20v-296h88q31 0 44 17l209 283q11 15 27 15q22 0 30 -1
q11 -1 11 -12q0 -8 -10 -22l-233 -305l250 -334q12 -16 12 -23q0 -10 -10 -12q-11 -2 -35 -2q-14 0 -26 15l-231 311q-13 17 -38 17h-88v-324z" />
    <glyph glyph-name="S_S" horiz-adv-x="1116" 
d="M343 366q90 -27 125.5 -65t35.5 -113q0 -97 -56 -149t-185 -52q-110 0 -193 32q-18 7 -18 19q0 10 7 26q5 15 18 15q4 0 25 -8q77 -29 161 -29q59 0 97.5 13t55 36.5t21.5 43.5t5 47q0 23 -4 37.5t-17.5 32.5t-44 34t-78.5 30l-99 29q-67 20 -102 66t-35 110
q0 98 56.5 148t181.5 50q88 0 158 -19q17 -6 17 -19q0 -9 -6 -27q-4 -11 -16 -11q-6 0 -24 4q-67 17 -135 17q-99 0 -135 -35.5t-36 -101.5q0 -49 26 -79t107 -55zM899 366q90 -27 125.5 -65t35.5 -113q0 -97 -56 -149t-185 -52q-110 0 -193 32q-18 7 -18 19q0 10 7 26
q5 15 18 15q4 0 25 -8q77 -29 161 -29q59 0 97.5 13t55 36.5t21.5 43.5t5 47q0 23 -4 37.5t-17.5 32.5t-44 34t-78.5 30l-99 29q-67 20 -102 66t-35 110q0 98 56.5 148t181.5 50q88 0 158 -19q17 -6 17 -19q0 -9 -6 -27q-4 -11 -16 -11q-6 0 -24 4q-67 17 -135 17
q-99 0 -135 -35.5t-36 -101.5q0 -49 26 -79t107 -55z" />
    <glyph glyph-name="a.superior" horiz-adv-x="339" 
d="M284 320q0 -21 -6 -31q-5 -8 -18 -14q-41 -19 -115 -19q-110 0 -110 97q0 52 37 72q31 18 96 18q44 0 70 -3v29q0 29 -5 41q-10 25 -66 25q-37 0 -71 -8q-20 -5 -23 -5q-6 0 -10 9q-3 15 -3 19q0 9 10 12q42 14 104 14q67 0 90 -22q20 -20 20 -79v-155zM238 404
q-22 3 -64 3q-55 0 -76 -14q-17 -9 -17 -39q0 -29 15 -44.5t56 -15.5q42 0 70 10q10 3 13 10q3 8 3 23v67z" />
    <glyph glyph-name="acute.cap" horiz-adv-x="197" 
d="M51 773q-16 -12 -32 -12q-13 0 -25 4q-9 3 -9 10q0 10 10 17l134 106q18 14 32 14q16 0 38 -4q12 -3 12 -13t-11 -17z" />
    <glyph glyph-name="b.superior" horiz-adv-x="361" 
d="M57 311v396q0 13 13 13h22q12 0 12 -13v-159q33 27 109 27q57 0 83 -36.5t26 -118.5q0 -96 -34.5 -130t-113.5 -34q-53 0 -91 12q-15 5 -21 16q-5 8 -5 27zM104 326q0 -12 3 -16q5 -5 14 -8q23 -5 54 -5q62 0 81.5 25t19.5 93q0 64 -15 91.5t-64 27.5q-54 0 -82 -17
q-9 -7 -10 -9q-1 -3 -1 -12v-170z" />
    <glyph glyph-name="braceleft.cap" horiz-adv-x="304" 
d="M92 342q41 -11 63 -41.5t22 -100.5v-136q0 -60 15 -82q20 -27 88 -27q12 0 12 -14v-15q0 -12 -13 -12q-58 0 -88.5 9t-47.5 34q-22 32 -22 108v131q0 64 -20.5 90.5t-66.5 34.5q-11 1 -11 13v12q0 14 11 15q47 8 67 36.5t20 87.5v125q0 75 22 107q34 51 135 51
q14 0 14 -15v-10q0 -15 -13 -15q-72 -4 -90 -35q-12 -23 -12 -77v-128q0 -71 -20.5 -100t-64.5 -46z" />
    <glyph glyph-name="braceright.cap" horiz-adv-x="304" 
d="M210 340q-41 11 -63 41.5t-22 100.5v136q0 60 -15 82q-18 25 -87 27q-12 0 -12 14v15q0 12 12 12q58 0 89 -9t48 -34q22 -32 22 -108v-131q0 -64 20 -90.5t67 -34.5q11 -1 11 -13v-12q0 -13 -11 -15q-47 -8 -67 -36.5t-20 -87.5v-125q0 -74 -23 -107q-34 -51 -135 -51
q-13 0 -13 15v10q0 15 12 15q73 4 90 35q12 23 12 77v128q0 71 20.5 100t64.5 46z" />
    <glyph glyph-name="bracketleft.cap" horiz-adv-x="275" 
d="M134 -41h106q13 0 13 -11v-15q0 -5 -4 -9.5t-9 -4.5h-146q-13 0 -13 15v813q0 14 13 14h146q13 0 13 -12v-16q0 -11 -13 -11h-106v-763z" />
    <glyph glyph-name="bracketright.cap" horiz-adv-x="275" 
d="M140 721h-106q-13 0 -13 11v15q0 5 4 9.5t9 4.5h147q12 0 12 -15v-813q0 -14 -12 -14h-147q-13 0 -13 11v17q0 12 13 12h106v762z" />
    <glyph glyph-name="breve.cap" horiz-adv-x="197" 
d="M97 761q-66 0 -97 25.5t-40 71.5q-3 15 -3 23q0 15 11 19q10 4 24 4q10 0 13 -14q6 -39 26 -58t66 -19q49 0 70.5 19.5t27.5 57.5q3 14 16 14q15 0 22 -3q8 -3 8 -13t-5 -33q-23 -94 -139 -94z" />
    <glyph glyph-name="bullet.cap" horiz-adv-x="335" 
d="M282 316q0 -120 -114 -120q-115 0 -115 119t115 119q56 0 85 -27t29 -91z" />
    <glyph glyph-name="caron.alt" horiz-adv-x="188" 
d="M109 721h17q20 0 20 -22q0 -106 -65 -170q-10 -10 -18 -10q-7 0 -16 7q-9 8 -9 13q0 6 6 14q41 50 43 144q0 24 22 24z" />
    <glyph glyph-name="caron.cap" horiz-adv-x="197" 
d="M219 910q12 0 21 -3q10 -3 10 -11q0 -7 -9 -16l-104 -99q-16 -16 -29 -16h-20q-14 0 -27 13l-107 104q-6 4 -6 12q0 10 10 13q11 3 23 3t28 -13l91 -75l89 74q17 14 30 14z" />
    <glyph glyph-name="cedilla.cap" horiz-adv-x="197" 
d="M93 -64q58 -1 78 -24t20 -64q0 -94 -117 -94q-30 0 -52 5q-13 3 -13 15q0 3 3 18q3 12 16 12q1 0 4.5 -0.5t9 -1.5t7.5 -1q13 -2 27 -2q60 0 60 46q0 25 -13 35.5t-46 10.5h-16q-18 0 -18 15q0 10 5 33l14 71h43z" />
    <glyph glyph-name="cent.denominator" horiz-adv-x="322" 
d="M209 -51q0 -13 -11 -13h-16q-10 0 -10 13v48q-59 2 -88 37.5t-29 116.5q0 76 27 113t90 43v48q0 12 11 12h16q10 0 10 -12v-46q31 -1 64 -7q11 -3 11 -12q0 -12 -4 -22q-3 -7 -9 -7q-3 0 -15 2q-33 5 -56 5q-58 0 -77 -28t-19 -84q0 -57 17.5 -88t67.5 -31q35 0 70 7
q16 4 18 4q7 0 9 -7q5 -13 5 -19q0 -8 -10 -12q-27 -11 -72 -13v-48z" />
    <glyph glyph-name="cent.inferior" horiz-adv-x="322" 
d="M209 -177q0 -13 -11 -13h-16q-10 0 -10 13v48q-59 3 -88 38.5t-29 115.5q0 76 27 113t90 43v48q0 12 11 12h16q10 0 10 -12v-46q31 -1 64 -7q11 -3 11 -12q0 -12 -4 -22q-3 -7 -9 -7q-3 0 -15 2q-33 5 -56 5q-58 0 -77 -28t-19 -84q0 -57 17.5 -88t67.5 -31q35 0 70 7
q16 4 18 4q7 0 9 -7q5 -13 5 -19q0 -8 -10 -12q-31 -11 -72 -13v-48z" />
    <glyph glyph-name="cent.numerator" horiz-adv-x="322" 
d="M209 213q0 -13 -11 -13h-16q-10 0 -10 13v47q-59 3 -88 38.5t-29 116.5q0 76 27 113t90 43v48q0 12 11 12h16q10 0 10 -12v-46q31 -1 64 -7q11 -3 11 -12q0 -12 -4 -22q-3 -7 -9 -7q-3 0 -15 2q-32 5 -56 5q-58 0 -77 -28t-19 -84q0 -57 17.5 -88t67.5 -31q35 0 70 7
q16 4 18 4q7 0 9 -7q5 -13 5 -19q0 -8 -10 -12q-25 -10 -72 -14v-47z" />
    <glyph glyph-name="cent.oldstyle" horiz-adv-x="464" 
d="M302 -2v-84q0 -18 -16 -18h-17q-16 0 -16 18v84q-85 4 -129 55.5t-44 168.5q0 110 40 164.5t133 63.5v83q0 18 17 18h17q15 0 15 -18v-81q63 -2 97 -10q17 -4 17 -16q0 -8 -5 -26q-3 -9 -11 -9q-10 0 -22 3q-51 8 -87 8q-49 0 -81 -12.5t-47.5 -38t-20.5 -53t-5 -68.5
t5 -70.5t19 -57t42 -41.5t70 -14q72 0 116 16q15 5 20 5q7 0 10 -8q6 -12 6 -24q0 -11 -14 -16q-46 -20 -109 -22z" />
    <glyph glyph-name="cent.superior" horiz-adv-x="322" 
d="M209 369q0 -13 -11 -13h-16q-10 0 -10 13v47q-59 3 -88 38.5t-29 116.5q0 76 27 113t90 43v48q0 12 11 12h16q10 0 10 -12v-46q31 -1 64 -7q11 -3 11 -12q0 -12 -4 -22q-3 -7 -9 -7q-3 0 -15 2q-32 5 -56 5q-58 0 -77 -28t-19 -84q0 -57 17.5 -88t67.5 -31q35 0 70 7
q16 4 18 4q7 0 9 -7q5 -12 5 -19q0 -8 -10 -12q-25 -10 -72 -14v-47z" />
    <glyph glyph-name="circumflex.cap" horiz-adv-x="197" 
d="M-22 761q-12 0 -21 3t-9 11q0 10 8 16l104 100q17 15 29 15h20q14 0 27 -13l109 -105q5 -4 5 -12q0 -9 -10 -12t-24 -3q-10 0 -28 14l-91 74l-89 -74q-15 -14 -30 -14z" />
    <glyph glyph-name="comma.denominator" horiz-adv-x="151" 
d="M92 68q17 0 17 -15q0 -38 -16.5 -81t-41.5 -66q-9 -9 -16 -9t-17 6q-8 5 -8 11t7 14q36 48 36 120q0 20 17 20h22z" />
    <glyph glyph-name="comma.inferior" horiz-adv-x="151" 
d="M92 -58q17 0 17 -15q0 -38 -16.5 -81t-41.5 -66q-9 -9 -16 -9t-17 6q-8 5 -8 11t7 14q36 48 36 120q0 20 17 20h22z" />
    <glyph glyph-name="comma.numerator" horiz-adv-x="151" 
d="M92 332q17 0 17 -15q0 -38 -16.5 -81t-41.5 -66q-9 -9 -16 -9q-6 0 -16 6q-9 6 -9 12t6 12q37 43 37 121q0 20 17 20h22z" />
    <glyph glyph-name="comma.superior" horiz-adv-x="151" 
d="M92 488q17 0 17 -15q0 -38 -16.5 -81t-41.5 -66q-9 -9 -16 -9t-17 6q-8 5 -8 11t7 14q36 48 36 120q0 20 17 20h22z" />
    <glyph glyph-name="d.superior" horiz-adv-x="361" 
d="M303 314q0 -17 -3 -22q-4 -10 -19 -17q-41 -19 -113 -19q-69 0 -100 34.5t-31 118.5q0 95 35.5 131t114.5 36q47 0 70 -10v141q0 13 14 13h20q12 0 12 -13v-393zM257 336v169q0 18 -10 22q-17 8 -58 8q-62 0 -83 -27t-21 -96q0 -61 18.5 -88.5t65.5 -27.5q50 0 74 10
q9 4 12 11q2 4 2 19z" />
    <glyph glyph-name="dieresis.cap" horiz-adv-x="197" 
d="M44 818q0 -43 -39 -43t-39 42q0 43 39 43t39 -42zM230 818q0 -43 -39 -43t-39 42q0 43 39 43t39 -42z" />
    <glyph glyph-name="dollar.denominator" horiz-adv-x="362" 
d="M208 -51q0 -13 -11 -13h-16q-11 0 -11 13v47q-69 0 -110 20q-10 4 -10 12q0 5 5 20q5 10 13 10q7 0 15 -4q45 -17 94 -17q31 0 51.5 6.5t29 19t11.5 23t3 24.5q0 26 -14 41.5t-63 27.5l-54 12q-84 19 -84 107q0 102 113 113v50q0 13 12 13h16q10 0 10 -13v-49
q55 -2 85 -12q11 -3 11 -13q0 -7 -5 -20q-3 -9 -10 -9l-15 3q-46 11 -80 11q-52 0 -71 -18t-19 -52q0 -27 13 -43t56 -27l48 -12q53 -13 76 -36.5t23 -69.5q0 -105 -112 -116v-49z" />
    <glyph glyph-name="dollar.inferior" horiz-adv-x="362" 
d="M208 -177q0 -13 -11 -13h-16q-11 0 -11 13v47q-69 0 -110 20q-10 4 -10 12q0 5 5 20q5 10 13 10q7 0 15 -4q45 -17 94 -17q31 0 51.5 6.5t29 19t11.5 23t3 24.5q0 26 -14 41.5t-63 27.5l-54 12q-84 19 -84 107q0 102 113 113v50q0 13 12 13h16q10 0 10 -13v-49
q55 -2 85 -12q11 -3 11 -13q0 -7 -5 -20q-3 -9 -10 -9l-15 3q-46 11 -80 11q-52 0 -71 -18t-19 -52q0 -27 13 -43t56 -27l48 -12q53 -13 76 -36.5t23 -69.5q0 -105 -112 -116v-49z" />
    <glyph glyph-name="dollar.numerator" horiz-adv-x="362" 
d="M208 213q0 -13 -11 -13h-16q-11 0 -11 13v47q-69 0 -110 20q-10 4 -10 12q0 5 5 20q5 10 13 10q7 0 15 -4q45 -17 94 -17q31 0 51.5 6.5t29 19t11.5 23t3 24.5q0 26 -14 41.5t-63 27.5l-54 12q-84 19 -84 107q0 102 113 113v50q0 13 12 13h16q10 0 10 -13v-49
q55 -2 85 -12q11 -3 11 -13q0 -7 -5 -20q-3 -9 -10 -9l-15 3q-46 11 -80 11q-52 0 -71 -18t-19 -52q0 -27 13.5 -43t56.5 -27l50 -12q52 -12 74 -36t22 -70q0 -105 -112 -117v-48z" />
    <glyph glyph-name="dollar.oldstyle" horiz-adv-x="502" 
d="M280 -4v-82q0 -19 -16 -19h-18q-16 0 -16 19v80q-99 2 -158 29q-14 6 -14 18q0 7 6 23q6 12 17 12q2 0 20 -6q63 -26 139 -26q48 0 80 10.5t45.5 29.5t18 35.5t4.5 38.5q0 37 -22.5 61.5t-97.5 46.5l-82 24q-119 37 -119 147q0 144 163 158v84q0 18 17 18h18q15 0 15 -18
v-82q75 -2 128 -17q14 -5 14 -16q0 -7 -6 -27q-3 -9 -14 -9q-4 0 -20 4q-60 15 -117 15q-81 0 -110.5 -27.5t-29.5 -77.5q0 -39 21 -64.5t87 -44.5l74 -21q75 -23 106.5 -55.5t31.5 -95.5q0 -150 -165 -165z" />
    <glyph glyph-name="dollar.superior" horiz-adv-x="362" 
d="M208 369q0 -13 -11 -13h-16q-11 0 -11 13v47q-69 0 -110 20q-10 4 -10 12q0 5 5 20q5 10 13 10q7 0 15 -4q45 -17 94 -17q31 0 51.5 6.5t29 19t11.5 23t3 24.5q0 26 -14 41.5t-63 27.5l-54 12q-84 19 -84 107q0 102 113 113v50q0 13 12 13h16q10 0 10 -13v-49
q55 -2 85 -12q11 -3 11 -13q0 -7 -5 -20q-3 -9 -10 -9l-15 3q-46 11 -80 11q-52 0 -71 -18t-19 -52q0 -27 13 -43t56 -27l48 -12q53 -13 76 -36.5t23 -69.5q0 -105 -112 -116v-49z" />
    <glyph glyph-name="dotaccent.cap" horiz-adv-x="197" 
d="M159 818q0 -43 -39 -43t-39 42q0 43 39 43t39 -42z" />
    <glyph glyph-name="e.superior" horiz-adv-x="333" 
d="M83 403q1 -62 26 -84t77 -22q44 0 74 9q15 3 16 3q8 0 9 -6q5 -15 5 -21q0 -8 -10 -11q-45 -15 -99 -15q-78 0 -111 37.5t-33 121.5t35.5 122.5t107.5 38.5q31 0 53 -7.5t34.5 -19.5t19 -33t8.5 -41t2 -50q0 -15 -4 -19q-5 -3 -13 -3h-197zM85 440h166q1 4 1 14
q0 43 -15 64t-61 21q-50 0 -70 -25t-21 -74z" />
    <glyph glyph-name="egrave.superior" horiz-adv-x="340" 
d="M83 403q1 -62 26 -84t77 -22q44 0 74 9q15 3 16 3q8 0 9 -6q5 -15 5 -21q0 -8 -10 -11q-45 -15 -99 -15q-78 0 -111 37.5t-33 121.5t35.5 122.5t107.5 38.5q31 0 53 -7.5t34.5 -19.5t19 -33t8.5 -41t2 -50q0 -15 -4 -19q-5 -3 -13 -3h-197zM85 440h166q1 4 1 14
q0 43 -15 64t-61 21q-50 0 -70 -25t-21 -74zM171 624l-75 77q-5 7 -5 11q0 7 8 9q15 3 30 3q11 0 20 -10l61 -75q6 -6 6 -12t-7 -8q-12 -3 -22 -3q-6 0 -16 8z" />
    <glyph glyph-name="eight.denominator" 
d="M243 217q84 -12 84 -104q0 -121 -144 -121q-75 0 -110 28.5t-35 90.5q0 85 84 106q-69 18 -69 96q0 107 133 107q69 0 99.5 -24.5t30.5 -81.5q0 -76 -73 -97zM278 115q0 79 -95 79q-97 0 -97 -79q0 -47 25.5 -64.5t71.5 -17.5q95 0 95 82zM268 308q0 35 -19 52.5
t-66 17.5q-46 0 -65 -18t-19 -53q0 -72 84 -72q33 0 59 17t26 56z" />
    <glyph glyph-name="eight.fitted" horiz-adv-x="553" 
d="M366 356q64 -11 98.5 -54t34.5 -118q0 -197 -222 -197q-115 0 -169 46.5t-54 148.5q0 138 132 173q-110 31 -110 160q0 173 206 173q104 0 151 -40t47 -132q0 -127 -114 -160zM422 511q0 63 -32.5 93.5t-112.5 30.5t-111 -32t-31 -96q0 -67 41 -97.5t101 -30.5
q56 0 100.5 31t44.5 101zM440 185q0 142 -163 142q-164 0 -164 -141q0 -84 43 -115t120 -31q78 0 121 33t43 112z" />
    <glyph glyph-name="eight.numerator" 
d="M243 481q84 -12 84 -104q0 -121 -144 -121q-75 0 -110 28.5t-35 90.5q0 85 84 106q-69 18 -69 96q0 107 133 107q69 0 99.5 -24.5t30.5 -81.5q0 -76 -73 -97zM278 379q0 79 -95 79q-97 0 -97 -79q0 -47 25.5 -64.5t71.5 -17.5q95 0 95 82zM268 572q0 35 -19 52.5
t-66 17.5q-46 0 -65 -18t-19 -53q0 -72 84 -72q33 0 59 17t26 56z" />
    <glyph glyph-name="eight.oldstyle" horiz-adv-x="535" 
d="M355 350q129 -23 129 -169q0 -194 -215 -194q-111 0 -163.5 46t-52.5 146q0 135 128 170q-106 31 -106 158q0 169 199 169q102 0 147 -39t45 -129q0 -125 -111 -158zM410 503q0 61 -31.5 91t-109.5 30q-77 0 -107 -31.5t-30 -93.5q0 -66 39.5 -96t97.5 -30q55 0 98 30.5
t43 99.5zM427 182q0 139 -158 139t-158 -138q0 -82 41.5 -113t115.5 -31q76 0 117.5 32.5t41.5 110.5z" />
    <glyph glyph-name="eight.taboldstyle" horiz-adv-x="535" 
d="M355 350q129 -23 129 -169q0 -194 -215 -194q-111 0 -163.5 46t-52.5 146q0 135 128 170q-106 31 -106 158q0 169 199 169q102 0 147 -39t45 -129q0 -125 -111 -158zM410 503q0 61 -31.5 91t-109.5 30q-77 0 -107 -31.5t-30 -93.5q0 -66 39.5 -96t97.5 -30q55 0 98 30.5
t43 99.5zM427 182q0 139 -158 139t-158 -138q0 -82 41.5 -113t115.5 -31q76 0 117.5 32.5t41.5 110.5z" />
    <glyph glyph-name="emdash.cap" horiz-adv-x="833" 
d="M782 291h-730q-16 0 -16 14v23q0 16 17 16h728q17 0 17 -16v-24q0 -13 -16 -13z" />
    <glyph glyph-name="endash.cap" horiz-adv-x="541" 
d="M490 291h-438q-16 0 -16 14v23q0 16 17 16h436q17 0 17 -16v-24q0 -13 -16 -13z" />
    <glyph glyph-name="estimated.alt" horiz-adv-x="749" 
d="M115 324q1 -86 22 -143t62 -86.5t89.5 -41t116.5 -11.5q111 0 220 34q29 9 31 9q12 0 15 -10q7 -16 7 -25q0 -15 -23 -22q-123 -41 -258 -41q-182 0 -262 82.5t-80 266.5q0 352 344 352q89 0 148.5 -22.5t91.5 -68t44.5 -100.5t12.5 -131q0 -28 -10 -36q-7 -6 -29 -6
h-542zM116 376h518q1 11 1 40q0 219 -242 219q-139 0 -206 -69t-71 -190z" />
    <glyph glyph-name="exclamdown.cap" horiz-adv-x="281" 
d="M77 665q0 47 47 47q46 0 46 -47q0 -48 -47 -48q-46 0 -46 48zM93 475q0 18 17 18h17q18 0 18 -20q7 -415 7 -454q0 -22 -20 -22h-27q-19 0 -19 22q0 38 7 456z" />
    <glyph glyph-name="five.denominator" 
d="M109 247q31 6 75 6q72 0 102 -27.5t30 -98.5q0 -135 -154 -135q-62 0 -98 10q-15 5 -15 13q0 7 6 23q2 8 11 8q1 0 26 -5q32 -7 71 -7q104 0 104 92q0 51 -23 67.5t-74 16.5q-18 0 -46 -3t-33 -3q-24 0 -24 25q0 12 1 28l7 139q0 16 15 16h190q13 0 13 -11v-21
q0 -11 -13 -11h-165z" />
    <glyph glyph-name="five.fitted" horiz-adv-x="536" 
d="M149 401q65 9 124 9q113 0 160.5 -46.5t47.5 -158.5q0 -218 -241 -218q-93 0 -150 17q-24 8 -24 21q0 3 8 27q3 10 14 10q4 0 39 -10q43 -12 119 -12q92 0 133.5 41t41.5 123q0 89 -39.5 121t-121.5 32q-32 0 -78.5 -5t-50.5 -5q-35 0 -35 37q0 16 2 58l11 209
q1 25 21 25h296q19 0 19 -17v-21q0 -16 -19 -16h-266z" />
    <glyph glyph-name="five.numerator" 
d="M109 511q31 6 75 6q72 0 102 -27.5t30 -98.5q0 -135 -154 -135q-62 0 -98 10q-15 5 -15 13q0 7 6 23q2 8 11 8q1 0 26 -5q32 -7 71 -7q104 0 104 92q0 51 -23 67.5t-74 16.5q-18 0 -46 -3t-33 -3q-24 0 -24 25q0 12 1 28l7 139q0 16 15 16h190q13 0 13 -11v-21
q0 -11 -13 -11h-165z" />
    <glyph glyph-name="five.oldstyle" horiz-adv-x="510" 
d="M141 245q66 11 116 11q115 0 161.5 -44.5t46.5 -155.5q0 -110 -60.5 -164t-171.5 -54q-93 0 -150 17q-24 8 -24 21q0 3 8 27q4 9 14 9q4 0 39 -10q44 -11 119 -11q166 0 166 164q0 89 -37.5 118.5t-120.5 29.5q-32 0 -75.5 -4.5t-47.5 -4.5q-35 0 -35 36q0 16 2 58
l10 203q2 25 21 25h290q18 0 18 -17v-21q0 -16 -19 -16h-261z" />
    <glyph glyph-name="five.taboldstyle" horiz-adv-x="535" 
d="M151 245q66 11 117 11q114 0 160.5 -44.5t46.5 -155.5q0 -110 -60 -164t-171 -54q-94 0 -151 17q-23 7 -23 21q0 6 7 27q4 9 15 9q2 0 39 -10q43 -11 118 -11q166 0 166 164q0 89 -37.5 118.5t-119.5 29.5q-32 0 -76 -4.5t-47 -4.5q-35 0 -35 36q0 37 1 58l10 203
q2 25 21 25h290q19 0 19 -17v-21q0 -16 -20 -16h-260z" />
    <glyph glyph-name="florin.denominator" horiz-adv-x="307" 
d="M253 653h-74l-17 -196q-5 -63 -30 -88q-26 -23 -78 -23q-22 0 -37 3q-8 1 -8 11q0 6 4 22q2 8 10 8q2 0 12.5 -1t18.5 -1q34 0 44 16q13 21 16 58l17 191h-53q-12 0 -12 10v13q0 11 12 11h56l4 46q5 58 32 85q25 22 76 22q27 0 42 -4q9 -2 9 -10q0 -11 -3 -23
q-2 -8 -11 -8q-1 0 -13.5 1.5t-21.5 1.5q-35 0 -46 -16q-12 -17 -16 -57l-4 -38h71q13 0 13 -11v-13q0 -10 -13 -10z" />
    <glyph glyph-name="florin.inferior" horiz-adv-x="307" 
d="M253 107h-74l-17 -196q-5 -63 -30 -88q-26 -23 -78 -23q-22 0 -37 3q-8 1 -8 11q0 6 4 22q2 8 10 8q2 0 12.5 -1t18.5 -1q34 0 44 16q13 21 16 58l17 191h-53q-12 0 -12 10v13q0 11 12 11h56l4 46q5 58 32 85q25 22 76 22q27 0 42 -4q9 -2 9 -10q0 -11 -3 -23
q-2 -8 -11 -8q-1 0 -13.5 1.5t-21.5 1.5q-35 0 -46 -16q-12 -17 -16 -57l-4 -38h71q13 0 13 -11v-13q0 -10 -13 -10z" />
    <glyph glyph-name="florin.numerator" horiz-adv-x="307" 
d="M253 497h-74l-17 -196q-5 -63 -30 -88q-26 -23 -78 -23q-22 0 -37 3q-8 1 -8 11q0 6 4 22q2 8 10 8q2 0 12.5 -1t18.5 -1q34 0 44 16q13 21 16 58l17 191h-53q-12 0 -12 10v13q0 11 12 11h56l4 46q5 58 32 85q25 22 76 22q27 0 42 -4q9 -2 9 -10q0 -11 -3 -23
q-2 -8 -11 -8q-1 0 -13.5 1.5t-21.5 1.5q-35 0 -46 -16q-12 -17 -16 -57l-4 -38h71q13 0 13 -11v-13q0 -10 -13 -10z" />
    <glyph glyph-name="florin.oldstyle" horiz-adv-x="424" 
d="M349 342h-111l-24 -284q-5 -61 -14.5 -91.5t-29.5 -50.5q-37 -37 -107 -37q-36 0 -55 5q-10 1 -10 13q0 15 3 28q3 11 15 11q1 0 17.5 -2t30.5 -2q50 0 68 29q18 33 24 100l24 281h-83q-17 0 -17 16v15q0 16 17 16h87l4 46q8 95 50 137q35 36 107 36q40 0 61 -6
q10 -3 10 -13q0 -16 -4 -28q-3 -10 -14 -10q-2 0 -20 2.5t-33 2.5q-53 0 -74 -32t-26 -97l-3 -38h107q18 0 18 -16v-15q0 -16 -18 -16z" />
    <glyph glyph-name="florin.superior" horiz-adv-x="307" 
d="M253 653h-74l-17 -196q-5 -63 -30 -88q-26 -23 -78 -23q-22 0 -37 3q-8 1 -8 11q0 6 4 22q2 8 10 8q2 0 12.5 -1t18.5 -1q34 0 44 16q13 21 16 58l17 191h-53q-12 0 -12 10v13q0 11 12 11h56l4 46q5 58 32 85q25 22 76 22q27 0 42 -4q9 -2 9 -10q0 -11 -3 -23
q-2 -8 -11 -8q-1 0 -13.5 1.5t-21.5 1.5q-35 0 -46 -16q-12 -17 -16 -57l-4 -38h71q13 0 13 -11v-13q0 -10 -13 -10z" />
    <glyph glyph-name="four.denominator" 
d="M281 12q0 -14 -13 -14h-21q-12 0 -12 14v95h-177q-26 0 -26 21q0 14 12 35l123 235q6 15 18 15q6 0 15.5 -0.5t10.5 -0.5q6 -2 6 -9q0 -6 -5 -15l-126 -238h149v102q0 13 12 13h21q13 0 13 -13v-102h57q13 0 13 -12v-20q0 -11 -13 -11h-57v-95z" />
    <glyph glyph-name="four.fitted" horiz-adv-x="562" 
d="M374 184h-298q-30 0 -30 31q0 17 15 48l201 399q11 24 25 24q20 0 32 -3q7 -3 7 -11q0 -10 -8 -26l-210 -408h266v183q0 20 18 20h22q18 0 18 -19v-184h98q19 0 19 -17v-21q0 -16 -19 -16h-98v-167q0 -20 -18 -20h-22q-18 0 -18 20v167z" />
    <glyph glyph-name="four.numerator" 
d="M281 276q0 -14 -13 -14h-21q-12 0 -12 14v95h-177q-26 0 -26 21q0 14 12 35l123 235q6 15 18 15q6 0 15.5 -0.5t10.5 -0.5q6 -2 6 -9q0 -6 -5 -15l-126 -238h149v102q0 13 12 13h21q13 0 13 -13v-102h57q13 0 13 -12v-20q0 -11 -13 -11h-57v-95z" />
    <glyph glyph-name="four.oldstyle" horiz-adv-x="552" 
d="M368 29h-292q-28 0 -28 28q0 13 15 45l198 394q12 24 25 24q25 0 29 -2q9 -3 9 -12q0 -10 -8 -26l-204 -398h256v182q0 20 17 20h21q18 0 18 -18v-184h98q19 0 19 -16v-20q0 -17 -19 -17h-98v-170q0 -20 -18 -20h-21q-17 0 -17 20v170z" />
    <glyph glyph-name="four.taboldstyle" horiz-adv-x="535" 
d="M353 29h-281q-29 0 -29 28q0 13 15 45l199 394q12 24 25 24q15 0 27 -2q11 -1 11 -12q0 -10 -8 -26l-205 -398h246v182q0 20 18 20h21q18 0 18 -18v-184h98q19 0 19 -16v-20q0 -17 -19 -17h-98v-170q0 -20 -18 -20h-21q-18 0 -18 20v170z" />
    <glyph glyph-name="fourfifths" horiz-adv-x="842" 
d="M285 -16q-8 -16 -22 -16t-18 2q-5 3 -5 9t8 22l331 688q11 22 24 22t17 -1q8 -1 8 -9q0 -7 -10 -27zM296 276q0 -14 -13 -14h-21q-12 0 -12 14v95h-177q-26 0 -26 21q0 14 12 35l123 235q6 15 18 15q6 0 15.5 -0.5t10.5 -0.5q6 -2 6 -9q0 -6 -5 -15l-126 -238h149v102
q0 13 12 13h21q13 0 13 -13v-102h57q13 0 13 -12v-20q0 -11 -13 -11h-57v-95zM578 247q32 6 75 6q72 0 102 -27.5t30 -98.5q0 -135 -154 -135q-62 0 -98 10q-15 5 -15 13q0 7 6 23q2 8 11 8q1 0 26 -5q32 -7 71 -7q104 0 104 92q0 51 -23 67.5t-74 16.5q-18 0 -46 -3t-33 -3
q-24 0 -24 25q0 12 1 28l7 139q0 16 15 16h190q13 0 13 -11v-21q0 -11 -13 -11h-165z" />
    <glyph glyph-name="grave.cap" horiz-adv-x="197" 
d="M145 773l-149 105q-11 8 -11 17q0 10 12 13q20 4 38 4q13 0 32 -14l134 -106q10 -7 10 -17q0 -7 -9 -10q-12 -4 -25 -4q-15 0 -32 12z" />
    <glyph glyph-name="guillemotleft.cap" horiz-adv-x="472" 
d="M101 314l132 -164q10 -13 10 -21t-8 -10q-11 -3 -28 -3q-13 0 -27 17l-126 156q-13 15 -13 25q0 8 9 20l128 158q2 2 5 6t4.5 5.5l4 4t4.5 3.5t5 2t6 1q18 0 30 -3q7 -3 7 -10t-12 -22zM287 314l131 -164q10 -13 10 -21q0 -9 -8 -10q-9 -3 -27 -3q-13 0 -27 17l-127 156
q-13 15 -13 25t9 20l128 158q2 2 5 6t4.5 5.5l4 4t4.5 3.5t5 2t6 1q18 0 30 -3q8 -3 8 -10t-12 -22z" />
    <glyph glyph-name="guillemotright.cap" horiz-adv-x="472" 
d="M370 315l-131 164q-10 13 -10 21t8 11q11 3 27 3q12 0 27 -18l126 -155q13 -15 13 -25q0 -9 -8 -20l-128 -159q-16 -21 -29 -21q-22 0 -30 3q-8 2 -8 9q0 8 12 23zM185 315l-132 164q-10 13 -10 21t8 11q14 3 28 3q12 0 27 -18l126 -155q13 -15 13 -25t-9 -20l-128 -159
q-1 -1 -4 -5t-4 -5l-3.5 -3.5t-4 -3.5t-3.5 -2t-4 -1.5t-5 -0.5q-22 0 -30 3q-8 2 -8 9q0 8 12 23z" />
    <glyph glyph-name="guilsinglleft.cap" horiz-adv-x="287" 
d="M101 314l132 -164q10 -13 10 -21t-8 -10q-11 -3 -28 -3q-13 0 -27 17l-126 156q-13 15 -13 25q0 8 9 20l128 158q2 2 5 6t4.5 5.5l4 4t4.5 3.5t5 2t6 1q18 0 30 -3q7 -3 7 -10q0 -8 -12 -22z" />
    <glyph glyph-name="guilsinglright.cap" horiz-adv-x="287" 
d="M185 315l-132 164q-10 13 -10 21t8 11q12 3 28 3q12 0 27 -18l126 -155q13 -15 13 -25t-9 -20l-128 -159q-1 -1 -4 -5t-4 -5l-3.5 -3.5t-4 -3.5t-3.5 -2t-4 -1.5t-5 -0.5q-22 0 -30 3q-8 2 -8 9q0 8 12 23z" />
    </font>
</defs>
</svg>
