<?xml version="1.0" standalone="no"?>
<!DOCTYPE svg PUBLIC "-//W3C//DTD SVG 1.1//EN" "http://www.w3.org/Graphics/SVG/1.1/DTD/svg11.dtd" >
<svg>
<metadata>
Created by FontForge 20090622 at Wed May 22 14:26:24 2019
 By deploy user
Copyright (c) 2015 by Dieter Hofrichter. All rights reserved.
</metadata>
<defs>
<font id="Carnas-MediumIt" horiz-adv-x="389" >
  <font-face 
    font-family="Carnas Medium"
    font-weight="500"
    font-style="italic"
    font-stretch="normal"
    units-per-em="1000"
    panose-1="2 0 6 3 0 0 0 9 0 4"
    ascent="750"
    descent="-250"
    x-height="495"
    cap-height="708"
    bbox="-197 -276 1212 988"
    underline-thickness="50"
    underline-position="-50"
    unicode-range="U+0020-U+FB04"
  />
<missing-glyph horiz-adv-x="501" 
d="M0 0v707h501v-707h-501zM251 399l170 257h-341zM280 354l172 -257v514zM80 50h341l-170 258zM50 611v-514l171 257z" />
    <glyph glyph-name="f_f" unicode="ff" horiz-adv-x="651" 
d="M167 26q-4 -28 -29 -28h-63q-19 0 -19 18q0 9 2 17l79 370h-52q-21 0 -21 18q0 11 9 50q5 24 29 24h55l7 32q22 110 74 149q68 54 190 54q34 0 34 -25q0 -19 -4 -44q-3 -21 -28 -23q-54 -4 -81.5 -12.5t-44.5 -26.5q-20 -21 -30 -76l-6 -28h203l11 55q21 106 74 146
q69 55 192 55q34 0 34 -25q0 -20 -4 -44q-5 -23 -28 -23q-93 -3 -128 -42q-19 -21 -31 -74l-10 -48h96q21 0 21 -19t-10 -53q-6 -20 -30 -20h-96l-81 -377q-6 -28 -29 -28h-63q-19 0 -19 18q0 9 2 17l80 370h-203z" />
    <glyph glyph-name="fi" unicode="fi" horiz-adv-x="596" 
d="M167 26q-4 -28 -29 -28h-63q-19 0 -19 18q0 9 2 17l79 370h-52q-21 0 -21 18q0 11 9 50q5 24 29 24h55l11 55q21 105 75 147q69 54 182 54q35 0 35 -23q0 -28 -4 -46q-3 -21 -27 -23q-95 -9 -121 -39q-21 -27 -31 -77l-9 -48h285q20 0 20 -18q0 -3 -4 -27l-92 -426
q-6 -26 -27 -26h-64q-20 0 -20 18q0 10 3 20l79 367h-199zM614 675q0 -43 -23 -63q-19 -17 -49 -17q-53 0 -53 47q0 42 20 61q19 19 50 19q55 0 55 -47z" />
    <glyph glyph-name="fl" unicode="fl" horiz-adv-x="620" 
d="M167 26q-4 -28 -29 -28h-63q-19 0 -19 18q0 9 2 17l79 370h-52q-21 0 -21 18q0 11 9 50q5 24 29 24h55l11 52q20 98 77 146q69 57 227 57q75 0 120 -8q29 -6 29 -29q0 -9 -5 -32l-110 -509q-6 -26 -6 -50q0 -20 12 -28.5t39 -12.5q18 -3 18 -23q0 -22 -10 -44
q-6 -19 -33 -19q-140 0 -140 100q0 32 8 68l106 489q-20 3 -58 3q-101 0 -129 -35q-24 -28 -36 -80l-10 -45h96q21 0 21 -19t-10 -53q-5 -20 -29 -20h-96z" />
    <glyph glyph-name="f_f_i" unicode="ffi" horiz-adv-x="909" 
d="M167 26q-4 -28 -29 -28h-63q-19 0 -19 18q0 9 2 17l79 370h-52q-21 0 -21 18q0 11 9 50q5 24 29 24h55l7 32q22 110 74 149q68 54 190 54q34 0 34 -25q0 -19 -4 -44q-3 -21 -28 -23q-54 -4 -81.5 -12.5t-44.5 -26.5q-20 -21 -30 -76l-6 -28h203l11 55q22 106 74 147
q70 54 182 54q35 0 35 -23q0 -28 -3 -46q-4 -21 -28 -23q-94 -9 -120 -39q-21 -27 -31 -77l-10 -48h285q21 0 21 -18q0 -3 -0.5 -7t-2 -9t-1.5 -7l-92 -430q-6 -26 -27 -26h-65q-19 0 -19 18q0 6 2 20l79 367h-199l-81 -377q-6 -28 -29 -28h-63q-19 0 -19 18q0 9 2 17
l80 370h-203zM927 675q0 -43 -23 -63q-19 -17 -48 -17q-54 0 -54 47q0 40 21 61q19 19 50 19q54 0 54 -47z" />
    <glyph glyph-name="f_f_l" unicode="ffl" horiz-adv-x="935" 
d="M167 26q-4 -28 -29 -28h-63q-19 0 -19 18q0 9 2 17l79 370h-52q-21 0 -21 18q0 11 9 50q5 24 29 24h55l7 32q22 110 74 149q68 54 190 54q34 0 34 -25q0 -19 -4 -44q-3 -21 -28 -23q-54 -4 -81.5 -12.5t-44.5 -26.5q-20 -21 -30 -76l-6 -28h203l11 52q20 98 77 146
q69 57 227 57q75 0 120 -8q29 -5 29 -29q0 -9 -5 -32l-110 -509q-6 -26 -6 -50q0 -20 12 -28.5t39 -12.5q18 -3 18 -23q0 -19 -8 -43q-5 -20 -33 -20q-142 0 -142 100q0 32 8 68l105 489q-20 3 -57 3q-99 0 -129 -35q-24 -28 -36 -80l-10 -45h96q22 0 22 -19q0 -15 -11 -53
q-5 -20 -29 -20h-97l-81 -377q-6 -28 -29 -28h-63q-19 0 -19 18q0 9 2 17l80 370h-203z" />
    <glyph glyph-name="T_h" unicode="Th" horiz-adv-x="1115" 
d="M296 25q-4 -27 -27 -27h-69q-20 0 -20 19q0 5 2 17l124 571h-178q-21 0 -21 15q0 10 11 63q5 23 28 23h567l4 18q6 24 28 24h60q22 0 22 -19q0 -2 -2 -14l-52 -246q57 41 163 41q133 0 133 -88q0 -32 -10 -77l-67 -321q-5 -26 -28 -26h-65q-20 0 -20 17q0 6 3 18l63 291
q5 23 5 50q0 41 -68 41q-58 0 -96 -17q-14 -6 -23 -14q-9 -9 -14 -33l-69 -327q-6 -26 -28 -26h-64q-21 0 -21 17q0 4 3 19l122 571h-271z" />
    <glyph glyph-name="Tcaron_h" unicode="&#x164;h" horiz-adv-x="1141" 
d="M296 25q-4 -27 -27 -27h-69q-20 0 -20 19q0 5 2 17l124 571h-178q-21 0 -21 15q0 10 11 63q5 23 28 23h567l4 18q6 24 28 24h60q22 0 22 -19q0 -2 -2 -14l-52 -246q57 41 163 41q133 0 133 -88q0 -32 -10 -77l-67 -321q-5 -26 -28 -26h-65q-20 0 -20 17q0 6 3 18l63 291
q5 23 5 50q0 41 -68 41q-58 0 -96 -17q-14 -6 -23 -14q-9 -9 -14 -33l-69 -327q-6 -26 -28 -26h-64q-21 0 -21 17q0 4 3 19l122 571h-271zM517 926q30 0 45 -3q16 -2 16 -16q0 -11 -13 -21l-116 -101q-28 -24 -51 -24h-41q-23 0 -39 21l-80 102q-8 9 -8 19q0 15 21 19
q24 3 38 3q19 0 38 -19l61 -63l86 64q25 19 43 19z" />
    <glyph glyph-name="f_b" unicode="fb" horiz-adv-x="897" 
d="M167 26q-4 -28 -29 -28h-63q-19 0 -19 18q0 9 2 17l79 370h-52q-21 0 -21 18q0 11 9 50q5 24 29 24h55l11 52q20 98 77 146q69 57 227 57q74 0 119 -8q30 -5 30 -29q0 -9 -5 -32l-45 -213q57 41 156 41q137 0 137 -146q0 -69 -21 -153.5t-61 -136.5q-37 -49 -89.5 -67.5
t-134.5 -18.5q-93 0 -151 20q-32 12 -32 44q0 16 5 39l120 562q-20 3 -58 3q-101 0 -129 -35q-24 -28 -36 -80l-10 -45h96q21 0 21 -19t-10 -53q-5 -20 -29 -20h-96zM498 129q-2 -12 -2 -22q0 -17 20 -22q26 -7 59 -7q87 0 121 52q24 37 39 100.5t15 107.5q0 38 -18.5 57.5
t-64.5 19.5q-31 0 -62 -9t-44 -22q-8 -8 -13 -27z" />
    <glyph glyph-name="f_f_b" unicode="ffb" horiz-adv-x="1211" 
d="M167 26q-4 -28 -29 -28h-63q-19 0 -19 18q0 9 2 17l79 370h-52q-21 0 -21 18q0 11 9 50q5 24 29 24h55l7 32q22 110 74 149q68 54 190 54q34 0 34 -25q0 -20 -5 -44q-4 -21 -29 -23q-55 -5 -81 -13t-43 -26q-20 -21 -30 -76l-6 -28h203l11 52q20 98 77 146q69 57 227 57
q74 0 119 -8q30 -5 30 -29q0 -9 -5 -32l-45 -213q58 41 156 41q136 0 136 -146q0 -70 -20.5 -154t-60.5 -136q-37 -49 -89.5 -67.5t-134.5 -18.5q-93 0 -151 20q-32 12 -32 44q0 16 5 39l119 562q-20 3 -57 3q-99 0 -131 -36q-22 -28 -34 -79l-10 -45h96q22 0 22 -19
q0 -15 -11 -53q-5 -20 -29 -20h-97l-81 -377q-6 -28 -29 -28h-63q-19 0 -19 18q0 9 2 17l80 370h-203zM813 129q-3 -15 -3 -22q0 -17 21 -22q26 -7 58 -7q88 0 122 52q24 36 38.5 100t14.5 108q0 38 -18.5 57.5t-64.5 19.5q-31 0 -61 -9t-44 -22q-9 -8 -14 -27z" />
    <glyph glyph-name="f_f_h" unicode="ffh" horiz-adv-x="1227" 
d="M167 26q-4 -28 -29 -28h-63q-19 0 -19 18q0 9 2 17l79 370h-52q-21 0 -21 18q0 11 9 50q5 24 29 24h55l7 32q22 110 74 149q68 54 190 54q34 0 34 -25q0 -15 -4 -44q-3 -21 -28 -23q-54 -4 -81.5 -12.5t-44.5 -26.5q-20 -21 -30 -76l-6 -28h203l11 52q20 98 77 146
q69 57 227 57q74 0 119 -8q30 -5 30 -29q0 -9 -5 -32l-45 -212q59 41 163 41q133 0 133 -86q0 -38 -9 -79l-68 -321q-5 -26 -28 -26h-64q-20 0 -20 17l3 18l62 291q5 23 5 50q0 41 -68 41q-60 0 -96 -17q-16 -6 -24 -14q-8 -10 -13 -33l-69 -327q-6 -26 -27 -26h-66
q-20 0 -20 17q0 7 3 19l131 618q-20 3 -57 3q-99 0 -129 -35q-24 -28 -36 -80l-10 -45h96q22 0 22 -19q0 -15 -11 -53q-5 -20 -29 -20h-97l-81 -377q-6 -28 -29 -28h-63q-19 0 -19 18q0 9 2 17l80 370h-203z" />
    <glyph glyph-name="f_f_j" unicode="ffj" horiz-adv-x="925" 
d="M167 26q-4 -28 -29 -28h-63q-19 0 -19 18q0 9 2 17l79 370h-52q-21 0 -21 18q0 11 9 50q5 24 29 24h55l7 32q22 110 74 149q68 54 190 54q34 0 34 -25q0 -19 -4 -44q-3 -21 -28 -23q-54 -4 -81.5 -12.5t-44.5 -26.5q-20 -21 -30 -76l-6 -28h203l11 55q22 106 74 147
q70 54 182 54q35 0 35 -23q0 -27 -4 -46q-4 -22 -28 -23q-93 -9 -119 -39q-21 -27 -31 -77l-10 -48h282q24 0 24 -18q0 -4 -2 -12.5t-2 -9.5l-103 -483q-22 -103 -69 -146q-27 -25 -79.5 -42.5t-96.5 -17.5q-23 0 -26 23q-3 19 -3 36q0 27 28 31q64 11 92 31q30 20 44 84
l91 432h-199l-81 -377q-6 -28 -29 -28h-63q-19 0 -19 18q0 9 2 17l80 370h-203zM927 675q0 -43 -23 -63q-19 -17 -48 -17q-54 0 -54 47q0 40 21 61q19 19 50 19q54 0 54 -47z" />
    <glyph glyph-name="f_f_k" unicode="ffk" horiz-adv-x="1183" 
d="M167 26q-4 -28 -29 -28h-63q-19 0 -19 18q0 9 2 17l79 370h-52q-21 0 -21 18q0 11 9 50q5 24 29 24h55l7 32q22 110 74 149q68 54 190 54q34 0 34 -25q0 -19 -4 -44q-3 -21 -28 -23q-54 -4 -81.5 -12.5t-44.5 -26.5q-20 -21 -30 -76l-6 -28h203l11 52q20 98 77 146
q69 57 227 57q74 0 119 -8q30 -5 30 -29q0 -9 -5 -32l-75 -357h47q32 0 48 19l123 135q16 19 36 19q65 0 76 -4q10 -3 10 -14q0 -9 -15 -27l-167 -180q34 -67 108 -227q6 -13 6 -26q0 -12 -14 -18q-11 -4 -75 -4q-19 0 -28 19l-89 195q-8 18 -35 18h-51l-44 -205
q-6 -26 -27 -26h-65q-21 0 -21 17q0 2 0.5 5.5t1.5 8t1 6.5l132 617q-20 3 -57 3q-99 0 -129 -35q-24 -28 -36 -80l-10 -45h96q22 0 22 -19q0 -15 -11 -53q-5 -20 -29 -20h-97l-81 -377q-6 -28 -29 -28h-63q-19 0 -19 18q0 9 2 17l80 370h-203z" />
    <glyph glyph-name="f_h" unicode="fh" horiz-adv-x="913" 
d="M167 26q-4 -28 -29 -28h-63q-19 0 -19 18q0 9 2 17l79 370h-52q-21 0 -21 18q0 11 9 50q5 24 29 24h55l11 52q20 98 77 146q69 57 227 57q74 0 119 -8q30 -5 30 -29q0 -9 -5 -32l-45 -212q59 41 163 41q133 0 133 -86q0 -38 -9 -79l-68 -321q-5 -26 -28 -26h-65
q-19 0 -19 17l3 18l61 290q7 33 7 51q0 41 -69 41q-53 0 -95 -16q-16 -6 -25 -15t-14 -33l-69 -327q-3 -13 -8.5 -19.5t-17.5 -6.5h-66q-20 0 -20 17q0 7 3 19l132 618q-20 3 -58 3q-101 0 -129 -35q-24 -28 -36 -80l-10 -45h96q21 0 21 -19t-10 -53q-5 -20 -29 -20h-96z
" />
    <glyph glyph-name="f_j" unicode="fj" horiz-adv-x="612" 
d="M167 26q-4 -28 -29 -28h-63q-19 0 -19 18q0 9 2 17l79 370h-52q-21 0 -21 18q0 11 9 50q5 24 29 24h55l11 55q22 106 75 147q69 54 182 54q35 0 35 -23q0 -22 -4 -46q-4 -21 -27 -23q-95 -9 -121 -39q-21 -27 -31 -77l-9 -48h285q20 0 20 -18q0 -10 -4 -28l-103 -477
q-22 -102 -69 -146q-28 -26 -80 -43t-96 -17q-23 0 -26 23q-3 19 -3 36q0 26 29 31q63 11 91 31q30 21 44 83l92 433h-199zM614 675q0 -43 -23 -63q-19 -17 -49 -17q-53 0 -53 47q0 42 20 61q19 19 50 19q55 0 55 -47z" />
    <glyph glyph-name="f_k" unicode="fk" horiz-adv-x="869" 
d="M167 26q-4 -28 -29 -28h-63q-19 0 -19 18q0 9 2 17l79 370h-52q-21 0 -21 18q0 11 9 50q5 24 29 24h55l11 52q20 98 77 146q69 57 227 57q74 0 119 -8q30 -5 30 -29q0 -9 -5 -32l-76 -357h49q32 0 49 20l122 135q16 19 36 19q62 0 75 -5q10 -3 10 -14q0 -9 -16 -27
l-166 -180q37 -70 107 -227q7 -16 7 -26q0 -12 -14 -18q-12 -4 -75 -4q-19 0 -28 19l-89 195q-8 18 -35 18h-51l-45 -205q-6 -26 -26 -26h-65q-21 0 -21 17q0 2 0.5 5.5t1.5 8t1 6.5l133 617q-20 3 -58 3q-101 0 -129 -35q-25 -28 -36 -80l-10 -45h96q21 0 21 -19t-10 -53
q-5 -20 -29 -20h-96z" />
    <glyph glyph-name="uni0162_h" unicode="&#x162;h" horiz-adv-x="1141" 
d="M249 -54q81 -5 81 -81q0 -70 -40 -98.5t-114 -28.5q-25 0 -47 5q-19 4 -19 21q0 12 5 30q5 20 25 20q7 0 23 -2q9 -1 28 -1q25 0 36 9t11 32q0 26 -33 26h-18q-20 0 -20 18q0 7 8 33l23 69q-18 2 -18 19q0 5 2 17l124 571h-178q-21 0 -21 15q0 10 11 63q5 23 28 23h567
l4 18q6 24 28 24h60q22 0 22 -19q0 -2 -2 -14l-52 -246q57 41 163 41q133 0 133 -88q0 -32 -10 -77l-67 -321q-5 -26 -28 -26h-65q-20 0 -20 17q0 6 3 18l63 291q5 23 5 50q0 41 -68 41q-58 0 -96 -17q-14 -6 -23 -14q-9 -9 -14 -33l-69 -327q-6 -26 -28 -26h-64
q-21 0 -21 17q0 4 3 19l122 571h-271l-125 -580q-4 -27 -27 -27h-5z" />
    <glyph glyph-name="uni021A_h" unicode="&#x21a;h" horiz-adv-x="1141" 
d="M296 25q-4 -27 -27 -27h-69q-20 0 -20 19q0 5 2 17l124 571h-178q-21 0 -21 15q0 10 11 63q5 23 28 23h567l4 18q6 24 28 24h60q22 0 22 -19q0 -2 -2 -14l-52 -246q57 41 163 41q133 0 133 -88q0 -32 -10 -77l-67 -321q-5 -26 -28 -26h-65q-20 0 -20 17q0 6 3 18l63 291
q5 23 5 50q0 41 -68 41q-58 0 -96 -17q-14 -6 -23 -14q-9 -9 -14 -33l-69 -327q-6 -26 -28 -26h-64q-21 0 -21 17q0 4 3 19l122 571h-271zM208 -55h32q27 0 27 -27q0 -20 -8 -47q-22 -67 -82 -129q-16 -18 -31 -18q-12 0 -25 10q-13 8 -13 20q0 11 11 26q39 47 50 127
q7 38 39 38z" />
    <glyph glyph-name=".notdef" horiz-adv-x="501" 
d="M0 0v707h501v-707h-501zM251 399l170 257h-341zM280 354l172 -257v514zM80 50h341l-170 258zM50 611v-514l171 257z" />
    <glyph glyph-name=".null" horiz-adv-x="0" 
 />
    <glyph glyph-name="nonmarkingreturn" horiz-adv-x="333" 
 />
    <glyph glyph-name="space" unicode=" " horiz-adv-x="222" 
 />
    <glyph glyph-name="exclam" unicode="!" horiz-adv-x="292" 
d="M224 261q-7 -29 -37 -29h-33q-30 0 -30 25q0 17 3 29l74 383q7 37 39 37h56q29 0 29 -27q0 -9 -101 -418zM212 86q0 -51 -26 -76q-21 -21 -59 -21q-64 0 -64 59q0 43 25 71q21 24 61 24q63 0 63 -57z" />
    <glyph glyph-name="quotedbl" unicode="&#x22;" horiz-adv-x="369" 
d="M189 459q-8 -30 -36 -30h-17q-25 0 -25 23q0 2 4 30q28 161 34 193q4 21 13 31t27 10h29q29 0 29 -23q0 -16 -4 -30q-15 -63 -54 -204zM362 459q-8 -30 -36 -30h-16q-26 0 -26 23q0 15 3 30l16.5 92.5t17.5 100.5q6 41 42 41h27q30 0 30 -23q0 -16 -4 -30
q-15 -63 -54 -204z" />
    <glyph glyph-name="numbersign" unicode="#" horiz-adv-x="596" 
d="M168 8q-6 -25 -26 -25q-25 0 -32 4t-7 14q0 2 5 25l43 170h-74q-22 0 -22 20q0 16 5 54q3 23 27 23h89l26 99h-81q-22 0 -22 19q0 21 6 54q3 23 25 23h96l46 178q3 14 9 20t21 6q36 0 36 -16q0 -6 -6 -28l-41 -160h142l45 177q6 27 30 27q22 0 29.5 -3.5t7.5 -12.5
t-6 -29l-41 -159h76q22 0 22 -19q0 -23 -5 -56q-3 -21 -26 -21h-91l-26 -99h81q23 0 23 -19q0 -13 -5 -57q-3 -21 -26 -21h-98l-48 -188q-6 -25 -27 -25q-24 0 -31 4t-7 14q0 8 5 25l43 170h-142zM266 392l-25 -99h142l25 99h-142z" />
    <glyph glyph-name="dollar" unicode="$" horiz-adv-x="558" 
d="M289 -4l-17 -79q-3 -21 -22 -21h-42q-18 0 -18 15q0 3 2 15l16 69q-91 2 -152 27q-18 8 -18 25q0 11 14 51q7 20 28 20q11 0 32 -8q68 -21 139 -21q68 0 104 20t36 77q0 29 -16 48t-65 39l-74 30q-116 46 -116 154q0 201 231 217l16 78q5 23 24 23h41q17 0 17 -13
q0 -6 -3 -21l-14 -66q59 -5 102 -19q19 -6 19 -24q0 -24 -10 -53q-7 -18 -25 -18q-8 0 -38 7q-62 14 -125 14q-119 0 -119 -95q0 -28 15.5 -48.5t58.5 -38.5l69 -28q70 -30 99.5 -63t29.5 -89q0 -204 -219 -224z" />
    <glyph glyph-name="percent" unicode="%" horiz-adv-x="862" 
d="M412 571q0 -57 -19.5 -139.5t-53.5 -124.5q-42 -52 -127 -52q-70 0 -103 26t-33 94q0 56 17.5 128.5t49.5 116.5q44 61 135 61q70 0 102 -22t32 -88zM330 560q0 31 -12.5 43t-46.5 12q-44 0 -66 -36q-20 -32 -34 -95t-14 -101q0 -34 14 -48t46 -14q45 0 65 33
q18 31 33 101.5t15 104.5zM258 -15q-12 -17 -26 -17q-15 0 -25 1t-10 9t10 21l448 690q13 22 30 22q15 0 25 -2q10 -1 10 -10q0 -8 -11 -23zM840 307q0 -57 -19.5 -140t-52.5 -124q-41 -52 -128 -52q-69 0 -102.5 26t-33.5 94q0 56 17.5 128.5t49.5 116.5q46 61 135 61
q70 0 102 -22t32 -88zM758 296q0 31 -12.5 43t-46.5 12q-44 0 -66 -36q-20 -32 -34 -95t-14 -101q0 -34 14 -48t46 -14q45 0 65 33q18 31 33 101.5t15 104.5z" />
    <glyph glyph-name="ampersand" unicode="&#x26;" horiz-adv-x="729" 
d="M513 58q-82 -71 -222 -71q-114 0 -172.5 50.5t-58.5 131.5q0 87 45.5 137t144.5 87q-49 61 -49 135q0 93 61 142t169 49q73 0 113 -11q24 -7 24 -25q0 -26 -11 -55q-5 -15 -22 -15q-4 0 -12 1t-18.5 3t-14.5 3q-27 5 -72 5q-108 0 -108 -92q0 -45 55 -115
q88 -111 168 -201q25 39 34 90q6 32 8 51q2 27 24 30q13 1 46 1q31 0 31 -26q0 -17 -5 -47q-19 -114 -74 -179q56 -66 71 -82q12 -12 12 -29q0 -18 -24 -23q-31 -7 -61 -7q-28 0 -42 17q-4 5 -19 21t-21 24zM459 129q-69 78 -162 197q-121 -42 -121 -136q0 -50 35.5 -79.5
t100.5 -29.5q97 0 147 48z" />
    <glyph glyph-name="quotesingle" unicode="'" horiz-adv-x="201" 
d="M189 459q-8 -30 -36 -30h-17q-25 0 -25 23q0 10 4 30q15 91 34 193q4 21 13 31t27 10h29q30 0 30 -24q0 -12 -5 -29q-15 -63 -54 -204z" />
    <glyph glyph-name="parenleft" unicode="(" horiz-adv-x="324" 
d="M406 711q-115 -70 -190 -223.5t-75 -334.5q0 -159 88 -265q6 -7 6 -15t-11 -19q-9 -9 -19 -9q-11 0 -30 12q-51 36 -90.5 116t-39.5 193q0 183 81 346.5t233 234.5q26 12 35 12q12 0 17 -9q8 -14 8 -20q0 -11 -13 -19z" />
    <glyph glyph-name="parenright" unicode=")" horiz-adv-x="323" 
d="M-50 -106q119 75 192 225.5t73 332.5q0 150 -87 261q-7 9 -7 16q0 11 12 22q10 8 17 8q12 0 28 -11q51 -35 91.5 -115.5t40.5 -194.5q0 -180 -80.5 -343.5t-229.5 -236.5q-24 -13 -38 -13q-11 0 -18 10q-8 11 -8 19q0 11 14 20z" />
    <glyph glyph-name="asterisk" unicode="*" horiz-adv-x="415" 
d="M258 449l-37 -38l-41 -42q-10 -10 -21 -10q-13 0 -33 21q-11 11 -11 22q0 10 12 22l85 76q-81 34 -99 44q-20 9 -20 28q0 10 11 30q10 17 28 17q9 0 25 -8l86 -48q3 54 10 105q2 16 8.5 23t22.5 7q9 0 27 -4q21 -5 21 -24q0 -3 -3 -24q-3 -19 -11 -51t-10 -43
q84 18 91 19q18 3 29 3q20 0 24 -23q3 -14 3 -32q-1 -20 -26 -25q-44 -6 -111 -12q19 -30 56 -96q5 -9 5 -19q0 -15 -17 -23q-20 -11 -33 -11q-15 0 -23 17q-31 61 -48 99z" />
    <glyph glyph-name="plus" unicode="+" horiz-adv-x="701" 
d="M362 59q-6 -24 -29 -24h-27q-24 0 -24 22q0 5 2 15l40 182h-193q-23 0 -23 23q0 14 4 33q6 25 28 25h197l40 194q5 25 28 25h30q22 0 22 -22q0 -7 -2 -17l-37 -180h191q24 0 24 -23q0 -7 -5 -32q-5 -26 -29 -26h-197z" />
    <glyph glyph-name="comma" unicode="," horiz-adv-x="241" 
d="M84 141h40q35 0 35 -32q0 -54 -44.5 -135.5t-98.5 -123.5q-25 -20 -37 -20q-15 0 -31 14q-16 13 -16 25q0 13 16 27q32 32 58.5 86.5t36.5 119.5q6 39 41 39z" />
    <glyph glyph-name="hyphen" unicode="-" horiz-adv-x="340" 
d="M271 221h-204q-20 0 -20 16q0 11 11 57q6 21 28 21h203q21 0 21 -16q0 -9 -12 -58q-5 -20 -27 -20z" />
    <glyph glyph-name="period" unicode="." horiz-adv-x="241" 
d="M167 86q0 -48 -27 -76q-20 -21 -58 -21q-64 0 -64 59q0 42 24 71q21 24 61 24q64 0 64 -57z" />
    <glyph glyph-name="slash" unicode="/" horiz-adv-x="381" 
d="M66 -76q-9 -25 -30 -25q-19 0 -41 2q-14 1 -14 14q0 8 7 22l354 789q7 15 12 20.5t15 5.5q27 0 43 -3q13 -3 13 -15q0 -7 -9 -27z" />
    <glyph glyph-name="zero" unicode="0" horiz-adv-x="573" 
d="M576 507q0 -92 -31 -227.5t-82 -204.5q-65 -88 -201 -88q-108 0 -160 42.5t-52 151.5q0 92 28 212t78 193q70 102 212 102q108 0 158 -37t50 -144zM461 493q0 54 -22 76.5t-83 22.5q-75 0 -113 -64q-33 -55 -55.5 -161.5t-22.5 -173.5q0 -61 23.5 -85.5t82.5 -24.5
q39 0 65 12.5t46 45.5q31 52 55 171.5t24 180.5z" />
    <glyph glyph-name="one" unicode="1" horiz-adv-x="573" 
d="M406 0h-292q-20 0 -20 16q0 8 10 58q5 23 29 23h89l100 464l-96 -33q-13 -5 -22 -5q-11 0 -16 11q-15 45 -15 55q0 15 19 22l133 50q41 15 67 15h8q46 0 46 -40q0 -17 -4 -35l-107 -504h88q20 0 20 -16q0 -15 -10 -61q-2 -12 -8 -16t-19 -4z" />
    <glyph glyph-name="two" unicode="2" horiz-adv-x="573" 
d="M455 0h-399q-24 0 -35 11.5t-11 27.5q0 54 27 73l89 62.5l115 82t92 71.5q46 38 69.5 75.5t23.5 90.5q0 97 -119 97q-49 0 -96 -12q-30 -8 -38 -8q-14 0 -17 14q-11 41 -11 51q0 18 29 28q79 24 175 24q197 0 197 -164q0 -71 -23.5 -122.5t-77.5 -100.5q-18 -16 -42 -35
l-44 -34t-51.5 -36.5l-48.5 -33l-51.5 -34.5l-46.5 -31q59 1 311 1q21 0 21 -18q0 -15 -10 -59q-3 -21 -28 -21z" />
    <glyph glyph-name="three" unicode="3" horiz-adv-x="573" 
d="M376 355q61 -6 89.5 -37t28.5 -90q0 -120 -63 -177q-69 -64 -228 -64q-97 0 -152 20q-20 8 -20 24t15 55q8 15 22 15q3 0 33 -7q50 -11 113 -11q97 0 135 41q30 34 30 100q0 40 -31 58.5t-107 19.5q-36 0 -36 35q0 60 47 62q95 6 129 30q35 27 35 89q0 73 -108 73
q-58 0 -99 -11q-33 -7 -39 -7q-9 0 -14 15q-11 38 -11 49q0 20 30 28q74 23 169 23q103 0 144 -37.5t41 -106.5q0 -158 -153 -189z" />
    <glyph glyph-name="four" unicode="4" horiz-adv-x="573" 
d="M424 24q-4 -26 -29 -26h-57q-21 0 -21 20q0 7 3 22l28 122h-250q-55 0 -55 46q0 31 35 78l275 371q21 27 40 27q34 0 67 -3q14 -3 14 -14q0 -12 -10 -27l-286 -379h191l29 135q5 28 27 28h61q19 0 19 -18q0 -1 -3 -22l-27 -123h70q22 0 22 -19q0 -9 -12 -60
q-5 -20 -28 -20h-73z" />
    <glyph glyph-name="five" unicode="5" horiz-adv-x="573" 
d="M225 415q41 8 105 8q92 0 139 -34.5t47 -112.5q0 -139 -68.5 -214t-234.5 -75q-112 0 -163 17q-18 6 -18 25q0 13 14 53q7 18 24 18q5 0 38 -7q55 -11 112 -11q93 0 135 39.5t42 122.5q0 48 -29.5 66.5t-89.5 18.5q-39 0 -78.5 -4t-46.5 -4q-37 0 -37 37q0 14 11 60
l58 226q8 32 31 32h311q20 0 20 -16q0 -17 -10 -62q-5 -21 -31 -21h-241z" />
    <glyph glyph-name="six" unicode="6" horiz-adv-x="573" 
d="M197 375q55 53 166 53q174 0 174 -150q0 -147 -72 -224q-63 -67 -204 -67q-102 0 -151.5 48t-49.5 147q0 100 35.5 225.5t96.5 191.5q85 89 238 89q89 0 125 -13q14 -4 14 -21q0 -21 -15 -57q-6 -14 -20 -14q-2 0 -34 4q-42 6 -80 6q-99 0 -150 -57q-44 -48 -73 -161z
M168 178q0 -46 23 -72t81 -26q89 0 123 49q32 46 32 121q0 40 -24.5 63t-74.5 23q-95 0 -131 -42q-10 -12 -17 -31q-12 -35 -12 -85z" />
    <glyph glyph-name="seven" unicode="7" horiz-adv-x="573" 
d="M434 578q-21 0 -122 -0.5t-192 -0.5q-23 0 -23 17q0 16 10 60q4 22 28 22h378q59 0 59 -40q0 -38 -26 -84l-306 -526q-16 -29 -40 -29q-11 0 -63 4q-24 3 -24 21q0 13 13 35z" />
    <glyph glyph-name="eight" unicode="8" horiz-adv-x="573" 
d="M425 353q52 -10 78.5 -43.5t26.5 -83.5q0 -122 -69.5 -180.5t-209.5 -58.5q-107 0 -160 42.5t-53 116.5q0 89 44 144t125 69q-42 12 -63.5 43.5t-21.5 72.5q0 213 253 213q199 0 199 -141q0 -158 -149 -194zM413 219q0 84 -109 84q-67 0 -109.5 -31.5t-42.5 -102.5
q0 -45 30.5 -67.5t82.5 -22.5q148 0 148 140zM462 522q0 72 -98 72q-131 0 -131 -120q0 -37 24.5 -56.5t69.5 -19.5q63 0 99 32.5t36 91.5z" />
    <glyph glyph-name="nine" unicode="9" horiz-adv-x="573" 
d="M427 303q-57 -55 -163 -55q-88 0 -132.5 41.5t-44.5 115.5q0 137 73 216q63 67 201 67q202 0 202 -195q0 -101 -34.5 -226t-96.5 -192q-82 -88 -239 -88q-91 0 -130 13q-13 5 -13 21q0 18 14 56q7 16 20 16q11 0 41 -6q28 -5 73 -5q105 0 156 57q25 27 40.5 63.5
t32.5 100.5zM455 496q0 98 -105 98q-87 0 -121 -48t-34 -119q0 -40 25.5 -64t74.5 -24q42 0 78.5 12.5t52.5 31.5q12 17 17 30q12 34 12 83z" />
    <glyph glyph-name="colon" unicode=":" horiz-adv-x="261" 
d="M182 86q0 -51 -26 -76q-21 -21 -58 -21q-64 0 -64 59q0 43 25 71q20 24 59 24q64 0 64 -57zM255 444q0 -50 -27 -77q-20 -20 -59 -20q-63 0 -63 59q0 43 24 70q21 24 60 24q65 0 65 -56z" />
    <glyph glyph-name="semicolon" unicode=";" horiz-adv-x="261" 
d="M255 444q0 -50 -27 -77q-20 -20 -59 -20q-63 0 -63 59q0 43 24 70q21 24 60 24q65 0 65 -56zM104 141h40q35 0 35 -32q0 -54 -44.5 -135.5t-98.5 -123.5q-25 -20 -37 -20q-15 0 -31 14q-16 13 -16 25q0 13 16 27q76 76 95 206q6 39 41 39z" />
    <glyph glyph-name="less" unicode="&#x3c;" horiz-adv-x="701" 
d="M556 64q-4 -21 -19 -21q-8 0 -16 5l-363 191q-17 9 -17 27q0 14 6 48q5 23 23 31l443 197q7 3 16 3q17 0 17 -18q0 -14 -7 -48q-4 -21 -24 -29l-385 -163l314 -156q17 -9 17 -28q0 -14 -5 -39z" />
    <glyph glyph-name="equal" unicode="=" horiz-adv-x="701" 
d="M608 175q-4 -24 -29 -24h-468q-24 0 -24 21q0 12 5 33q5 25 28 25h469q24 0 24 -22q0 -7 -5 -33zM652 381q-4 -24 -29 -24h-469q-23 0 -23 21q0 11 5 32q5 26 28 26h469q24 0 24 -22q0 -8 -5 -33z" />
    <glyph glyph-name="greater" unicode="&#x3e;" horiz-adv-x="701" 
d="M192 528q6 21 18 21q6 0 16 -5l364 -192q16 -8 16 -26q0 -14 -6 -49q-3 -21 -23 -30l-442 -196q-13 -5 -16 -5q-17 0 -17 19q0 13 6 47q4 22 24 30l385 163l-313 156q-18 9 -18 28q0 17 6 39z" />
    <glyph glyph-name="question" unicode="?" horiz-adv-x="435" 
d="M218 232h-39q-23 0 -23 20q0 8 7 46q8 40 24 63t58 49q62 40 86 69.5t24 76.5q0 30 -21 48t-64 18q-42 0 -92 -9q-24 -4 -25 -4q-15 0 -21 20q-7 30 -7 42q1 21 26 28q68 20 150 20q91 0 133 -35.5t42 -95.5q0 -73 -32 -118t-106 -87q-40 -23 -57 -40.5t-26 -48.5
l-5.5 -23t-6.5 -23q-5 -16 -25 -16zM250 86q0 -50 -26 -77q-20 -20 -58 -20q-65 0 -65 59q0 43 25 71q21 24 61 24q63 0 63 -57z" />
    <glyph glyph-name="at" unicode="@" horiz-adv-x="807" 
d="M485 110q-45 -53 -127 -53q-127 0 -127 120q0 65 30.5 137t81.5 115q55 46 145 46q58 0 111 -18q23 -8 23 -28q0 -17 -7 -40l-53 -205q-8 -29 -8 -42q0 -22 22 -22q20 0 41 14q50 33 78.5 101t28.5 139q0 114 -59.5 168t-181.5 54q-155 0 -254 -113t-99 -278
q0 -129 73 -200t210 -71q117 0 211 32q24 8 30 8q11 0 17 -20q4 -10 4 -17q-2 -11 -25 -20q-110 -42 -240 -42q-163 0 -254 84.5t-91 243.5q0 118 50 219t148 164t224 63q144 0 222 -68.5t78 -205.5q0 -72 -27 -143.5t-82 -122t-125 -50.5q-67 0 -68 51zM494 189l49 186
q5 17 5 23q0 10 -15 14q-26 6 -50 6q-64 0 -100 -34q-34 -33 -56 -87.5t-22 -102.5q0 -77 74 -77q51 0 87 28q9 6 16 16q4 6 12 28z" />
    <glyph glyph-name="A" unicode="A" horiz-adv-x="625" 
d="M186 198l-93 -171q-10 -18 -16.5 -24t-18.5 -6q-68 0 -82 3q-11 3 -11 16q0 9 12 33l327 587q24 44 42.5 59t58.5 15h26q37 0 51.5 -16.5t19.5 -55.5l72 -584q2 -18 2 -29q0 -17 -16 -24q-12 -4 -74 -4q-13 0 -19 7t-8 24l-21 170h-252zM235 295h198q-25 226 -31 315
q-38 -76 -167 -315z" />
    <glyph glyph-name="B" unicode="B" horiz-adv-x="635" 
d="M251 0h-99q-46 0 -67.5 17t-21.5 53q0 24 5 47l104 485q12 56 39.5 80t82.5 24h88q53 0 111 -7q66 -9 99 -44.5t33 -89.5q0 -160 -133 -197q100 -23 100 -128q0 -74 -34.5 -132.5t-104.5 -85.5q-60 -22 -202 -22zM227 319l-38 -174q-3 -12 -3 -23q0 -25 32 -25h75
q77 0 106 12q73 29 73 127q0 49 -37 68q-30 15 -97 15h-111zM247 412h103q68 0 92 10q66 29 66 111q0 56 -45 71q-22 7 -79 7h-63q-17 0 -25.5 -8.5t-13.5 -28.5z" />
    <glyph glyph-name="C" unicode="C" horiz-adv-x="578" 
d="M186 247q0 -163 149 -163q49 0 118 12q30 6 41 6q16 0 19 -17q8 -36 8 -52q0 -15 -26 -23q-82 -23 -198 -23q-231 0 -231 242q0 113 39 233.5t116 186.5q82 70 233 70q82 0 139 -12q24 -6 24 -26q0 -27 -15 -59q-5 -12 -19 -12q-1 0 -36 5q-39 7 -103 7q-100 0 -154 -56
q-49 -50 -76.5 -143t-27.5 -176z" />
    <glyph glyph-name="D" unicode="D" horiz-adv-x="688" 
d="M229 0h-77q-46 0 -67.5 17t-21.5 53q0 21 5 44l103 485q12 57 40 82t83 25h73q107 0 176 -23q62 -21 96 -76t34 -133q0 -73 -12 -138.5t-39 -128.5t-77 -111t-120 -71q-74 -25 -196 -25zM191 156q-4 -20 -4 -28q0 -27 31 -27h56q65 0 124 22q81 32 119 129t38 206
q0 94 -63 125q-42 22 -124 22h-47q-32 0 -40 -38z" />
    <glyph glyph-name="E" unicode="E" horiz-adv-x="548" 
d="M459 0h-307q-46 0 -67.5 17t-21.5 53q0 21 5 44l104 486q12 56 40 81t83 25h277q25 0 25 -19q0 -17 -12 -63q-5 -19 -30 -19h-234q-32 0 -40 -38l-34 -151h242q22 0 22 -17q0 -11 -13 -64q-5 -19 -27 -19h-245l-35 -158q-4 -16 -4 -30q0 -27 31 -27h258q24 0 24 -17
q0 -20 -12 -65q-4 -19 -29 -19z" />
    <glyph glyph-name="F" unicode="F" horiz-adv-x="527" 
d="M163 24q-6 -26 -29 -26h-67q-20 0 -20 18q0 2 3 20l122 565q12 56 40 80.5t83 24.5h267q23 0 23 -17q0 -12 -13 -65q-4 -19 -28 -19h-223q-32 0 -40 -38l-36 -164h227q22 0 22 -18q0 -4 -12 -64q-4 -18 -27 -18h-232z" />
    <glyph glyph-name="G" unicode="G" horiz-adv-x="656" 
d="M563 72q-7 -27 -15 -36t-30 -18q-77 -31 -215 -31q-114 0 -175.5 58t-61.5 173q0 119 38 240.5t115 187.5q46 39 103 56t142 17q92 0 151 -18q22 -6 22 -24q0 -23 -17 -59q-5 -13 -20 -13t-32 4q-56 13 -123 13q-105 0 -163 -63q-47 -50 -71.5 -140t-24.5 -172
q0 -163 151 -163q64 0 110 13q22 6 27 29l34 153h-130q-19 0 -19 15q0 14 13 67q5 19 24 19h206q22 0 22 -18q0 -5 -3 -20z" />
    <glyph glyph-name="H" unicode="H" horiz-adv-x="702" 
d="M163 24q-6 -26 -29 -26h-67q-20 0 -20 18q0 2 3 20l139 645q5 27 29 27h66q21 0 21 -18q0 -7 -4 -25l-54 -249h289l57 265q5 27 29 27h66q22 0 22 -18q0 -2 -5 -25l-137 -641q-6 -26 -29 -26h-67q-20 0 -20 18q0 2 3 20l61 279h-290z" />
    <glyph glyph-name="I" unicode="I" horiz-adv-x="298" 
d="M163 24q-6 -26 -29 -26h-67q-20 0 -20 18q0 2 3 20l139 645q5 27 29 27h66q21 0 21 -18q0 -7 -4 -25z" />
    <glyph glyph-name="J" unicode="J" horiz-adv-x="305" 
d="M307 665l-127 -595q-21 -98 -77 -149q-29 -27 -85 -47t-93 -20q-23 0 -26 21q-4 24 -4 43q0 25 28 30q59 11 90 31q37 23 51 87l131 615q5 27 29 27h66q21 0 21 -18q0 -7 -4 -25z" />
    <glyph glyph-name="K" unicode="K" horiz-adv-x="625" 
d="M163 24q-6 -26 -29 -26h-67q-20 0 -20 18q0 2 3 20l139 645q5 27 29 27h66q21 0 21 -18q0 -7 -4 -25l-54 -249h57q33 0 49 19l204 252q17 22 38 22q52 0 69 -3q17 -2 17 -20q0 -7 -16 -27l-246 -299q25 -47 144 -311q9 -23 9 -29q0 -8 -6.5 -13.5t-16.5 -6.5
q-25 -2 -73 -2q-19 0 -27 20l-124 278q-8 19 -36 19h-63z" />
    <glyph glyph-name="L" unicode="L" horiz-adv-x="545" 
d="M442 0h-290q-46 0 -67.5 17t-21.5 53q0 21 5 44l121 565q5 29 30 29h65q21 0 21 -18q0 -9 -4 -25l-110 -507q-3 -13 -3 -30q0 -27 31 -27h241q22 0 22 -16q0 -14 -12 -66q-4 -19 -28 -19z" />
    <glyph glyph-name="M" unicode="M" horiz-adv-x="831" 
d="M162 25q-5 -27 -29 -27h-66q-20 0 -20 19q0 9 3 21l127 584q10 44 29.5 66t67.5 22h25q41 0 53 -17t21 -72q44 -244 56 -330q40 76 195 329q16 27 23.5 37.5t22 26t30.5 21t38 5.5h29q64 0 64 -48q0 -18 -6 -50l-126 -584q-6 -30 -31 -30h-65q-19 0 -19 19q0 6 3 21
q90 422 123 556q-54 -98 -247 -410q-18 -29 -30.5 -40t-33.5 -11h-11q-19 0 -27.5 10.5t-13.5 37.5q-55 325 -66 412q-21 -114 -119 -568z" />
    <glyph glyph-name="N" unicode="N" horiz-adv-x="721" 
d="M160 25q-5 -27 -28 -27h-63q-22 0 -22 21q0 6 3 18l128 591q9 43 30 62.5t62 19.5h32q18 0 29 -3.5t17.5 -12.5t9.5 -17t8 -25q106 -373 138 -510q20 107 114 534q6 32 31 32h59q20 0 20 -19q0 -3 -3 -24l-129 -604q-15 -68 -77 -68h-27q-34 0 -48 13.5t-25 52.5
q-128 448 -142 517q-24 -123 -117 -551z" />
    <glyph glyph-name="O" unicode="O" horiz-adv-x="693" 
d="M678 511q0 -102 -33.5 -234.5t-94.5 -201.5q-43 -47 -98.5 -67.5t-134.5 -20.5q-122 0 -186.5 47.5t-64.5 172.5q0 108 34 232.5t99 194.5q81 86 224 86q48 0 83.5 -4.5t69.5 -17.5t55 -35.5t34 -60.5t13 -91zM558 492q0 76 -32 103t-111 27q-87 0 -134 -56
q-44 -51 -70 -157.5t-26 -186.5q0 -79 32.5 -108.5t109.5 -29.5q51 0 83.5 13.5t58.5 51.5q39 55 64 164.5t25 178.5z" />
    <glyph glyph-name="P" unicode="P" horiz-adv-x="623" 
d="M163 24q-6 -26 -30 -26h-66q-20 0 -20 19q0 7 5 27l119 555q13 58 38.5 82.5t82.5 24.5h80q130 0 186 -29q73 -35 73 -134q0 -194 -171 -241q-58 -16 -162 -16h-79zM239 379h84q72 0 108 13q39 15 59.5 49t20.5 79q0 54 -40 75q-30 14 -105 14h-46q-17 0 -25.5 -8.5
t-13.5 -28.5z" />
    <glyph glyph-name="Q" unicode="Q" horiz-adv-x="693" 
d="M678 511q0 -102 -33.5 -234.5t-94.5 -201.5q-18 -19 -37 -34l127 -79q11 -8 11 -18q0 -12 -36 -64q-7 -11 -16 -11q-10 0 -21 8l-184 116q-36 -6 -77 -6q-122 0 -186.5 47.5t-64.5 172.5q0 108 34 232.5t99 194.5q81 86 224 86q48 0 83.5 -4.5t69.5 -17.5t55 -35.5
t34 -60.5t13 -91zM558 492q0 76 -32 103t-111 27q-87 0 -134 -56q-44 -51 -70 -157.5t-26 -186.5q0 -79 32.5 -108.5t109.5 -29.5q51 0 83.5 13.5t58.5 51.5q39 55 64 164.5t25 178.5z" />
    <glyph glyph-name="R" unicode="R" horiz-adv-x="624" 
d="M164 27q-6 -29 -28 -29h-65q-22 0 -22 21q0 8 5 33l118 549q13 56 39.5 80.5t83.5 24.5h70q124 0 181 -26q72 -33 72 -131q0 -89 -38 -153.5t-121 -90.5l90 -257q5 -17 5 -27q0 -16 -17 -21q-12 -3 -72 -3q-21 0 -28 22l-89 269q-19 -1 -61 -1h-67zM239 380h65
q83 0 122 16q73 28 73 131q0 51 -37 69q-29 13 -102 13h-38q-33 0 -41 -37z" />
    <glyph glyph-name="S" unicode="S" horiz-adv-x="565" 
d="M309 290l-76 30q-124 47 -124 164q0 235 280 235q95 0 161 -21q19 -6 19 -27q0 -10 -13 -51q-5 -19 -25 -19q-19 0 -37 5q-67 16 -133 16q-130 0 -130 -108q0 -33 16.5 -55.5t62.5 -40.5l73 -29q73 -29 105 -65t32 -94q0 -126 -72 -184.5t-214 -58.5q-121 0 -194 30
q-19 8 -19 24q0 18 15 54q8 22 29 22q8 0 35 -9q72 -23 148 -23q71 0 109.5 24t38.5 86q0 31 -17 52.5t-70 42.5z" />
    <glyph glyph-name="T" unicode="T" horiz-adv-x="585" 
d="M296 25q-4 -27 -27 -27h-69q-20 0 -20 19q0 5 2 17l124 571h-178q-21 0 -21 15q0 10 11 63q5 23 28 23h469q23 0 23 -15q0 -17 -12 -68q-4 -18 -28 -18h-177z" />
    <glyph glyph-name="U" unicode="U" horiz-adv-x="682" 
d="M691 675l-84 -392q-19 -87 -32.5 -130t-37.5 -73q-38 -49 -97 -71t-153 -22q-40 0 -74.5 7t-67 23.5t-51.5 49t-19 77.5q0 52 18 137l85 402q6 25 29 25h68q19 0 19 -18q0 -10 -3 -21l-88 -415q-10 -46 -10 -78q0 -92 114 -92q95 0 134 45q29 32 48 119l93 435
q6 25 27 25h66q18 0 18 -16q0 -7 -2 -17z" />
    <glyph glyph-name="V" unicode="V" horiz-adv-x="610" 
d="M280 119q47 96 297 559q16 31 40 31q54 0 76 -5q11 -2 11 -18q0 -8 -13 -34l-329 -596q-12 -22 -20 -32.5t-24.5 -18.5t-40.5 -8h-32q-38 0 -52 16t-18 50l-68 591q-1 6 -1 22q0 23 16 28t79 5q13 0 18 -7t7 -24q47 -467 54 -559z" />
    <glyph glyph-name="W" unicode="W" horiz-adv-x="932" 
d="M534 557q-22 -51 -239 -500q-15 -33 -34 -46.5t-52 -13.5h-30q-59 0 -59 55q-2 328 -2 600q0 21 3 33q3 18 22 20q24 4 75 4q23 0 23 -27q-7 -466 -11 -562q50 120 243 512q15 30 28.5 42t40.5 12h29q30 0 40.5 -11.5t12.5 -41.5q20 -340 22 -514q27 81 228 560
q12 30 34 30q53 0 73 -4q13 -2 13 -16q0 -15 -11 -39l-256 -592q-13 -31 -31.5 -46t-52.5 -15h-26q-36 0 -49.5 14t-15.5 47q-16 328 -18 499z" />
    <glyph glyph-name="X" unicode="X" horiz-adv-x="639" 
d="M110 22q-21 -24 -42 -24q-70 0 -82 4q-10 4 -10 16q0 9 18 31l280 323l-136 283q-9 18 -9 29q0 15 17 20q19 4 72 4q22 0 32 -23q86 -180 111 -238q67 84 202 237q21 25 43 25q63 0 79 -5q11 -3 11 -16q0 -10 -18 -30l-259 -302l150 -309q8 -16 8 -27q0 -15 -15 -18
q-19 -4 -74 -4q-13 0 -20 5.5t-15 21.5l-122 256q-54 -67 -221 -259z" />
    <glyph glyph-name="Y" unicode="Y" horiz-adv-x="577" 
d="M307 28q-3 -30 -29 -30h-67q-20 0 -20 20q0 7 4 25l53 255l-142 358q-8 22 -8 30q0 14 13 19q11 4 84 4q20 0 30 -25q74 -194 99 -271q53 75 209 268q22 28 44 28q66 0 82 -4q9 -3 9 -15t-17 -32l-288 -357z" />
    <glyph glyph-name="Z" unicode="Z" horiz-adv-x="595" 
d="M507 0h-471q-51 0 -51 44q0 47 35 83l463 478h-342q-23 0 -23 19q0 8 10 54q7 28 32 28h414q56 0 56 -49q0 -51 -43 -95l-449 -461h383q26 0 26 -20q0 -16 -11 -60q-5 -21 -29 -21z" />
    <glyph glyph-name="bracketleft" unicode="[" horiz-adv-x="305" 
d="M191 -142h-166q-16 0 -16 16q0 8 3 23l175 824q6 24 23 24h170q15 0 15 -12q0 -7 -6 -29q-3 -14 -21 -14h-97l-165 -778h97q15 0 15 -12q0 -8 -5 -28q-3 -14 -22 -14z" />
    <glyph glyph-name="backslash" unicode="\" horiz-adv-x="448" 
d="M396 -64q4 -16 4 -21q0 -13 -14 -14q-5 -1 -38 -1q-19 0 -25 24l-208 783q-5 18 -5 25q0 17 17 18q12 1 38 1q15 0 22 -27z" />
    <glyph glyph-name="bracketright" unicode="]" horiz-adv-x="305" 
d="M150 745h164q19 0 19 -16q0 -9 -5 -29l-173 -819q-5 -23 -23 -23h-171q-14 0 -14 11q0 7 5 29q4 14 22 14h97l164 778h-97q-14 0 -14 12q0 6 4 28q4 15 22 15z" />
    <glyph glyph-name="asciicircum" unicode="^" horiz-adv-x="714" 
d="M602 318q3 -9 3 -17q0 -20 -23 -20h-33q-23 0 -29 23l-74 280l-197 -286q-11 -17 -31 -17h-40q-23 0 -23 17q0 8 6 17l240 342q12 18 33 18h46q24 0 30 -23z" />
    <glyph glyph-name="underscore" unicode="_" horiz-adv-x="493" 
d="M-43 -77h492l-11 -46h-492z" />
    <glyph glyph-name="grave" unicode="`" horiz-adv-x="197" 
d="M84 596l-105 119q-11 11 -11 23q0 17 22 19q28 2 62 2q21 0 37 -24l83 -116q9 -12 9 -22q0 -13 -19 -16q-9 -1 -39 -1q-24 0 -39 16z" />
    <glyph glyph-name="a" unicode="a" horiz-adv-x="537" 
d="M432 89q-8 -35 -22 -52q-11 -14 -38 -24q-72 -26 -182 -26q-161 0 -161 125q0 116 83 161q50 28 160 28q36 0 93 -5l5 24q6 28 6 47q0 45 -80 45q-60 0 -102 -9q-30 -7 -39 -7q-13 0 -17 17q-8 30 -8 45q0 19 26 28q70 22 163 22q30 0 52 -1.5t46.5 -8t39.5 -17t25 -29.5
t10 -46q0 -36 -11 -88zM350 217q-28 4 -79 4q-69 0 -99 -17q-36 -21 -36 -70q0 -62 78 -62q53 0 86 14q11 4 20 18q7 14 12 37z" />
    <glyph glyph-name="b" unicode="b" horiz-adv-x="561" 
d="M43 90l133 628q6 30 30 30h60q22 0 22 -19q0 -12 -1 -17l-52 -245q55 41 155 41q137 0 137 -146q0 -68 -20.5 -152.5t-60.5 -136.5q-37 -49 -89.5 -67.5t-134.5 -18.5q-94 0 -151 20q-33 12 -33 44q0 16 5 39zM162 129q-3 -7 -3 -22q0 -16 21 -22q33 -7 58 -7
q88 0 122 52q24 36 38.5 99.5t14.5 107.5q0 39 -18.5 58t-62.5 19q-31 0 -63 -9t-45 -22q-8 -7 -13 -26z" />
    <glyph glyph-name="c" unicode="c" horiz-adv-x="457" 
d="M156 183q0 -104 101 -104q29 0 77 8q5 0 17.5 3t16.5 3q15 0 18 -16q8 -37 8 -50q0 -16 -24 -22q-58 -18 -144 -18q-87 0 -136 43t-49 129q0 78 27 158.5t81 131.5q65 59 186 59q70 0 112 -13q16 -5 16 -21q0 -23 -15 -57q-7 -14 -21 -14q-4 0 -15.5 2.5t-14.5 2.5
q-36 6 -73 6q-69 0 -108 -41q-29 -31 -44.5 -85t-15.5 -105z" />
    <glyph glyph-name="d" unicode="d" horiz-adv-x="564" 
d="M457 81q-4 -24 -14 -38q-11 -18 -41 -29q-68 -27 -177 -27q-89 0 -136.5 42t-47.5 124t27 163t81 132q64 60 190 60q62 0 95 -14l46 224q7 30 30 30h61q21 0 21 -19q0 -11 -1 -17zM356 133l52 240q2 7 2 16q0 13 -10 17q-24 11 -70 11q-65 0 -102 -34q-34 -31 -54 -89.5
t-20 -121.5q0 -94 90 -94q51 0 82 12q15 6 20 16q8 16 10 27z" />
    <glyph glyph-name="e" unicode="e" horiz-adv-x="514" 
d="M157 216q-4 -21 -4 -47q0 -50 27.5 -70t84.5 -20q54 0 108 13q27 6 31 6q11 0 16 -14q10 -32 10 -47q0 -16 -22 -25q-64 -25 -173 -25q-194 0 -194 173q0 79 26 157t79 128q66 63 186 63q89 0 126 -34.5t37 -99.5q0 -64 -15 -120q-6 -24 -16 -32q-9 -6 -25 -6h-282z
M174 299h210q8 26 8 63q0 31 -17 46t-60 15q-60 0 -96 -34q-27 -27 -45 -90z" />
    <glyph glyph-name="f" unicode="f" horiz-adv-x="338" 
d="M167 26q-4 -28 -29 -28h-63q-19 0 -19 18q0 9 2 17l79 370h-52q-21 0 -21 18q0 11 9 50q5 24 29 24h55l11 54q22 108 74 147q69 55 191 55q35 0 35 -25q0 -20 -4 -44q-4 -22 -28 -23q-97 -5 -128 -42q-21 -22 -31 -76l-9 -46h95q21 0 21 -19t-10 -53q-5 -20 -29 -20h-96z
" />
    <glyph glyph-name="g" unicode="g" horiz-adv-x="559" 
d="M328 10q-39 -22 -116 -22q-171 0 -171 172q0 76 26.5 156.5t77.5 128.5q68 63 194 63q106 0 169 -23q25 -9 25 -28q0 -6 -4 -30l-81 -387q-17 -84 -42 -135q-36 -75 -116.5 -107t-224.5 -32q-31 0 -31 23q0 26 2 46q2 13 9 18t24 6q109 3 154.5 17.5t69.5 43.5
q19 24 31 71zM357 132l52 243q2 12 2 14q0 13 -13 18q-28 10 -71 10q-72 0 -109 -41q-28 -32 -46 -89t-18 -112q0 -95 90 -95q53 0 85 14q15 7 20 17q4 6 8 21z" />
    <glyph glyph-name="h" unicode="h" horiz-adv-x="576" 
d="M140 24q-5 -26 -26 -26h-65q-21 0 -21 17q0 7 3 19l145 685q6 29 31 29h59q22 0 22 -19q0 -8 -1 -14l-54 -247q57 40 164 40q133 0 133 -86q0 -34 -10 -79l-67 -319q-5 -26 -28 -26h-64q-20 0 -20 17q0 12 3 22l62 285q6 30 6 50q0 42 -69 42q-55 0 -96 -18
q-17 -6 -24 -13q-9 -9 -14 -34z" />
    <glyph glyph-name="i" unicode="i" horiz-adv-x="260" 
d="M142 24q-6 -26 -28 -26h-64q-20 0 -20 18q0 11 4 25l93 430q5 26 27 26h65q19 0 19 -18q0 -2 -0.5 -6.5t-2 -9.5t-1.5 -7zM277 675q0 -44 -22 -63q-19 -17 -48 -17q-54 0 -54 47q0 41 21 61q19 19 50 19q53 0 53 -47z" />
    <glyph glyph-name="j" unicode="j" horiz-adv-x="260" 
d="M130 -28q-20 -100 -69 -146q-28 -25 -80 -42.5t-96 -17.5q-14 0 -19 5t-7 17q-3 19 -3 38q0 26 28 30q64 11 92 31q29 20 43 83l108 501q5 26 27 26h65q19 0 19 -18q0 -5 -4 -21zM277 675q0 -44 -22 -63q-19 -17 -48 -17q-54 0 -54 47q0 41 21 61q19 19 50 19
q53 0 53 -47z" />
    <glyph glyph-name="k" unicode="k" horiz-adv-x="533" 
d="M140 24q-5 -26 -26 -26h-65q-21 0 -21 17q0 2 0.5 5.5t1.5 8t1 6.5l147 688q6 25 29 25h62q20 0 20 -18q0 -3 -2 -15l-83 -391h49q31 0 48 20l122 134q16 19 36 19q64 0 76 -4q10 -3 10 -14q0 -9 -16 -27q-129 -144 -168 -181q9 -15 109 -226q7 -16 7 -26q0 -12 -15 -18
q-9 -4 -74 -4q-19 0 -28 19l-89 195q-9 18 -36 18h-50z" />
    <glyph glyph-name="l" unicode="l" horiz-adv-x="285" 
d="M284 712l-115 -540q-7 -32 -7 -50q0 -20 12 -28.5t39 -12.5q18 -3 18 -22q0 -20 -8 -44q-7 -20 -33 -20q-142 0 -142 100q0 27 9 68l118 555q7 30 29 30h61q22 0 22 -19q0 -2 -0.5 -4.5t-1.5 -6.5t-1 -6z" />
    <glyph glyph-name="m" unicode="m" horiz-adv-x="865" 
d="M143 24q-7 -26 -28 -26h-64q-20 0 -20 17q0 8 3 20l79 371q9 45 47 61q98 42 223 42q81 0 110 -40q68 40 192 40q58 0 97.5 -20.5t39.5 -69.5q0 -37 -10 -86l-65 -309q-5 -26 -28 -26h-65q-19 0 -19 17q0 6 3 21l62 286q6 26 6 49q0 44 -64 44q-43 0 -92 -18
q-13 -6 -23 -13q-7 -8 -10 -20q-1 -3 -3.5 -17t-4.5 -23l-64 -300q-5 -26 -27 -26h-65q-19 0 -19 17q0 8 3 23l61 284q6 28 6 48q0 25 -15 35t-46 10q-46 0 -95 -18q-16 -7 -22 -12q-9 -9 -13 -28z" />
    <glyph glyph-name="n" unicode="n" horiz-adv-x="573" 
d="M142 24q-6 -26 -27 -26h-65q-20 0 -20 17q0 8 3 20l79 371q10 45 48 61q96 42 232 42q59 0 98.5 -20.5t39.5 -69.5q0 -42 -10 -86l-66 -309q-5 -26 -27 -26h-65q-20 0 -20 17q0 6 3 21l62 286q7 33 7 49q0 44 -69 44q-53 0 -98 -18q-17 -9 -22 -12q-7 -7 -12 -28z" />
    <glyph glyph-name="o" unicode="o" horiz-adv-x="548" 
d="M516 351q0 -64 -21 -149.5t-61 -137.5q-59 -77 -193 -77q-46 0 -79.5 6.5t-62.5 24t-43.5 51.5t-14.5 85q0 73 22.5 155t69.5 132q63 67 181 67q48 0 79.5 -5t62 -20.5t45.5 -48t15 -83.5zM403 335q0 47 -23.5 63.5t-74.5 16.5q-63 0 -94 -41q-26 -33 -41 -100.5
t-15 -109.5q0 -49 22 -67t72 -18q73 0 104 47q22 33 36 102t14 107z" />
    <glyph glyph-name="p" unicode="p" horiz-adv-x="567" 
d="M91 -209q-4 -14 -10.5 -19.5t-21.5 -5.5h-57q-23 0 -23 17q0 1 3 19l129 603q5 25 14 39q10 18 40 30q32 14 94 24t116 10q84 0 118 -35t34 -116q0 -63 -19 -144.5t-57 -133.5q-37 -52 -89.5 -72t-132.5 -20q-62 0 -93 16zM161 127q-2 -14 -2 -20q0 -13 12 -19
q20 -10 66 -10q53 0 81.5 14t48.5 50q20 35 33 96t13 95q0 42 -17.5 61.5t-63.5 19.5t-87 -17q-18 -8 -24 -17q-6 -7 -10 -26z" />
    <glyph glyph-name="q" unicode="q" horiz-adv-x="564" 
d="M287 -194l46 216q-51 -35 -129 -35q-76 0 -119.5 44.5t-43.5 119.5q0 83 28 164.5t85 131.5q37 34 83.5 47.5t115.5 13.5q87 0 146 -22q33 -14 33 -38q0 -15 -5 -35l-132 -621q-5 -26 -28 -26h-62q-22 0 -22 17q0 5 4 23zM357 137l49 228q3 12 3 23q0 13 -10 17
q-24 12 -66 12q-66 0 -100 -31q-38 -33 -58.5 -92t-20.5 -124q0 -44 22.5 -68t65.5 -24q56 0 92 21q9 5 16 17q3 5 7 21z" />
    <glyph glyph-name="r" unicode="r" horiz-adv-x="375" 
d="M142 24q-6 -26 -27 -26h-66q-19 0 -19 17q0 6 3 21l78 363q9 42 39 64q25 18 78.5 31.5t109.5 13.5q44 0 59 -5q13 -4 13 -22q0 -31 -11 -56q-6 -15 -25 -15q-5 0 -24 1t-26 1q-56 0 -82 -14q-14 -6 -20 -16q-5 -8 -10 -29z" />
    <glyph glyph-name="s" unicode="s" horiz-adv-x="435" 
d="M288 281q101 -36 101 -118q0 -83 -49 -129q-51 -47 -167 -47q-107 0 -163 24q-14 6 -14 19q0 18 16 56q7 16 24 16q12 0 26 -6q55 -19 124 -19q58 0 77 22q16 19 16 44q0 17 -11.5 27.5t-48.5 22.5l-59 19q-101 34 -101 119q0 91 61 137q50 40 161 40q76 0 123 -14
q18 -4 18 -20t-12 -56q-5 -14 -22 -14q-8 0 -23 3q-60 12 -101 12q-51 0 -73 -16q-21 -17 -21 -51q0 -30 59 -51z" />
    <glyph glyph-name="t" unicode="t" horiz-adv-x="348" 
d="M244 402l-45 -205q-6 -26 -6 -52q0 -30 20 -45q15 -11 68 -16q21 -3 21 -23q0 -15 -8 -47q-7 -22 -31 -22q-87 1 -136.5 25t-49.5 90q0 36 14 104l42 191h-51q-19 0 -19 16q0 15 9 54q7 23 30 23h52l27 111q7 27 29 27h57q19 0 19 -17q0 -14 -4 -30l-20 -91h84
q25 0 25 -19q0 -20 -10 -53q-5 -21 -30 -21h-87z" />
    <glyph glyph-name="u" unicode="u" horiz-adv-x="573" 
d="M468 86q-10 -46 -48 -61q-94 -38 -229 -38q-140 0 -140 94q0 37 10 84l66 306q5 26 26 26h65q20 0 20 -17q0 -6 -3 -21l-62 -285q-6 -28 -6 -49q0 -45 71 -45q56 0 94 14q14 6 23 15t12 26l72 336q5 26 27 26h64q20 0 20 -17q0 -5 -3 -20z" />
    <glyph glyph-name="v" unicode="v" horiz-adv-x="500" 
d="M218 114q55 109 201 358q15 26 35 26q31 0 68 -5q16 -1 16 -17q0 -11 -11 -31l-238 -393q-18 -30 -34 -42.5t-45 -12.5h-25q-32 0 -44.5 13t-17.5 44l-63 393q-2 12 -2 20q0 23 21 26q28 5 66 5q13 0 18.5 -6.5t7.5 -21.5q40 -280 47 -356z" />
    <glyph glyph-name="w" unicode="w" horiz-adv-x="748" 
d="M406 357q-29 -62 -156 -310q-15 -30 -33 -40t-49 -10h-19q-53 0 -56 52l-18 391q-1 12 -1 28q0 23 21 26q40 4 72 4q22 0 22 -26q4 -127 7 -362q43 98 154 311q17 31 31 43t39 12h14q25 0 36 -11t14 -40q21 -217 25 -314q36 90 155 359q12 28 34 28q42 0 70 -5
q12 -1 12 -18q0 -8 -12 -34l-184 -394q-12 -27 -30 -38.5t-48 -11.5h-19q-55 0 -59 50q-20 239 -22 310z" />
    <glyph glyph-name="x" unicode="x" horiz-adv-x="513" 
d="M252 180l-146 -160q-21 -22 -38 -22q-62 0 -78 3q-12 3 -12 16q0 12 17 29l200 210l-99 193q-8 14 -8 23q0 16 15 19q30 7 75 7q12 0 18 -5.5t14 -20.5q13 -25 68 -143q48 57 130 144q22 25 41 25q53 0 75 -6q11 -4 11 -14q0 -12 -16 -30l-184 -194l108 -207q8 -13 8 -26
t-15 -17q-14 -6 -77 -6q-19 0 -29 21q-53 106 -78 161z" />
    <glyph glyph-name="y" unicode="y" horiz-adv-x="573" 
d="M340 17q-63 -30 -150 -30q-140 0 -140 95q0 32 10 82l67 308q5 25 27 25h65q19 0 19 -17q0 -6 -3 -21l-61 -285q-7 -28 -7 -52q0 -42 71 -42q56 0 95 15q15 5 23 14q8 12 12 31l71 331q5 26 29 26h62q20 0 20 -17q0 -9 -2 -17l-92 -434q-18 -84 -38 -124
q-38 -76 -121 -107.5t-234 -31.5q-29 0 -29 24t3 39q5 32 28 32q119 1 172 18.5t74 51.5q17 28 25 67z" />
    <glyph glyph-name="z" unicode="z" horiz-adv-x="481" 
d="M392 0h-356q-49 0 -49 43q0 44 41 81l309 276h-246q-19 0 -19 16q0 12 11 55q7 24 29 24h314q53 0 53 -45q0 -43 -46 -86l-300 -269h279q20 0 20 -20q0 -8 -11 -56q-4 -19 -29 -19z" />
    <glyph glyph-name="braceleft" unicode="{" horiz-adv-x="339" 
d="M134 301q71 -17 71 -87q0 -16 -8 -58l-30 -141q-6 -30 -6 -50q0 -21 10 -34q14 -19 66 -21q15 -2 15 -16q0 -16 -3 -25q-7 -17 -26 -17q-99 0 -130 31q-25 25 -25 64q0 26 8 63l30 140q9 43 9 58q0 59 -60 67q-16 3 -16 16q0 6 4 23q6 22 23 25q44 8 68 35.5t37 84.5
l28 124q20 91 51 122q45 45 159 45q21 0 21 -16q0 -10 -3 -23q-4 -20 -25 -20q-62 -2 -86 -30q-15 -18 -27 -75l-30 -137q-14 -68 -44 -100.5t-81 -47.5z" />
    <glyph glyph-name="bar" unicode="|" horiz-adv-x="249" 
d="M98 -122q-6 -26 -27 -26h-45q-19 0 -19 17q0 5 3 20l180 842q5 26 26 26h46q19 0 19 -16l-4 -20z" />
    <glyph glyph-name="braceright" unicode="}" horiz-adv-x="352" 
d="M241 300q-70 16 -70 88q0 24 8 58l29 140q6 32 6 50q0 23 -10 34q-14 18 -66 22q-15 2 -15 15q0 16 3 25q7 18 26 18q98 0 130 -31q25 -23 25 -64q0 -23 -9 -64l-29 -139q-8 -38 -8 -58q0 -58 58 -67q17 -3 17 -16q0 -12 -3 -24q-8 -21 -24 -24q-45 -8 -68.5 -35
t-36.5 -86l-27 -124q-20 -88 -52 -120q-26 -26 -63 -36t-96 -10q-21 0 -21 16q0 9 3 24q4 19 26 19q60 0 85 29q15 19 27 76l30 136q15 69 44.5 101t80.5 47z" />
    <glyph glyph-name="asciitilde" unicode="~" horiz-adv-x="701" 
d="M171 243q-13 -13 -22 -13q-13 0 -29 14q-14 13 -14 25q0 10 8 20q75 86 149 86q43 0 116 -42q56 -32 93 -32q47 0 91 51q13 15 24 15q8 0 23 -11q21 -16 21 -28q0 -8 -8 -20q-69 -90 -152 -90q-52 0 -115 37q-61 36 -94 36q-43 0 -91 -48z" />
    <glyph glyph-name="exclamdown" unicode="&#xa1;" horiz-adv-x="292" 
d="M74 240q8 30 37 30h33q30 0 30 -24q0 -5 -2 -18l-2 -12l-32 -167l-21 -109l-11.5 -59t-6.5 -32.5t-3 -15.5q-7 -37 -38 -37h-56q-29 0 -29 27q0 16 101 417zM85 416q0 48 27 76q20 21 58 21q64 0 64 -59q0 -43 -25 -71q-20 -24 -60 -24q-64 0 -64 57z" />
    <glyph glyph-name="cent" unicode="&#xa2;" horiz-adv-x="508" 
d="M301 -4l-16 -79q-5 -21 -23 -21h-40q-18 0 -18 15q0 3 2 17l16 68q-144 17 -144 165q0 68 25 148.5t72 129.5q53 56 155 65l16 73q5 24 24 24h39q17 0 17 -15q0 -7 -3 -22l-13 -58q42 -3 77 -14q15 -4 15 -20q0 -21 -17 -57q-6 -15 -19 -15q-11 0 -29 4q-31 7 -74 7
q-72 0 -109 -43q-58 -65 -58 -187q0 -48 24 -70.5t75 -22.5q43 0 84 9q23 5 30 5q11 0 15 -11q12 -36 12 -50q0 -16 -20 -24q-42 -15 -115 -21z" />
    <glyph glyph-name="sterling" unicode="&#xa3;" horiz-adv-x="613" 
d="M504 0h-428q-20 0 -20 15q0 12 10 62q5 21 29 21h57l40 180h-69q-21 0 -21 16q0 14 9 49q5 24 30 24h68l23 100q22 102 61 146q38 43 87 59t123 16q77 0 127 -14q19 -5 19 -23q0 -25 -14 -58q-6 -14 -23 -14q-5 0 -19.5 3t-18.5 3q-58 8 -86 8q-69 0 -103 -31
q-27 -26 -42 -100l-21 -95h164q22 0 22 -18q0 -11 -9 -50q-5 -21 -28 -21h-168l-38 -180h257q21 0 21 -16q0 -17 -11 -64q-4 -18 -28 -18z" />
    <glyph glyph-name="currency" unicode="&#xa4;" horiz-adv-x="545" 
d="M501 117q-10 -10 -18 -10q-9 0 -18 9l-50 50q-48 -34 -116 -34t-117 33l-47 -49q-10 -10 -18 -10q-10 0 -20 10l-9 10q-9 11 -9 19t9 19l50 51q-37 51 -37 117q0 63 37 116l-50 50q-9 11 -9 18q0 12 9 20l9 9q12 10 19 10q9 0 18 -10l49 -50q47 37 116 37q71 0 115 -36
l50 49q10 10 18 10q9 0 18 -10l8 -8q10 -10 10 -20q0 -8 -10 -18l-49 -50q37 -49 37 -117t-37 -117l51 -51q8 -8 8 -18q0 -9 -9 -20zM428 332q0 60 -36.5 96.5t-92.5 36.5t-93 -37t-37 -95q0 -61 37 -98t93 -37t92.5 37t36.5 97z" />
    <glyph glyph-name="yen" unicode="&#xa5;" horiz-adv-x="637" 
d="M334 24q-6 -26 -29 -26h-65q-21 0 -21 19q0 3 1.5 8.5t1.5 7.5l33 160h-139q-17 0 -17 15q0 8 5 27q4 19 23 19h142l7 31l-19 43h-112q-17 0 -17 15q0 3 5 28q4 17 24 17h74l-102 235q-6 13 -6 25q0 18 17 24q11 4 74 4q20 0 30 -26q87 -207 105 -259l40.5 49.5l72 85
l103.5 122.5q23 28 43 28q72 0 81 -4q11 -5 11 -17q0 -9 -18 -31l-207 -236h73q20 0 20 -14q0 -10 -5 -29q-4 -17 -23 -17h-116l-35 -40l-8 -34h139q19 0 19 -16q0 -9 -5 -28q-4 -17 -22 -17h-143z" />
    <glyph glyph-name="brokenbar" unicode="&#xa6;" horiz-adv-x="249" 
d="M217 436q-6 -25 -27 -25h-45q-19 0 -19 16q0 6 3 21l53 244q5 26 26 26h46q19 0 19 -16q0 -1 -4 -21zM125 7q-6 -25 -27 -25h-45q-19 0 -19 16q0 5 3 20l53 245q5 26 26 26h46q19 0 19 -17q0 -1 -4 -21z" />
    <glyph glyph-name="section" unicode="&#xa7;" horiz-adv-x="515" 
d="M364 121q43 -34 43 -94q0 -87 -57.5 -137.5t-171.5 -50.5q-96 0 -158 25q-21 8 -21 26q0 21 16 55q6 13 21 13q7 0 28 -7q53 -20 127 -20q103 0 103 79q0 22 -16 38.5t-63 43.5l-53 31q-57 33 -82 66t-25 75q0 67 38.5 106.5t95.5 47.5q-39 28 -39 88q0 79 48.5 132
t159.5 54q76 0 132 -17q20 -6 20 -25q0 -22 -14 -54q-6 -14 -21 -14l-30 6q-60 12 -99 12q-90 0 -90 -77q0 -41 69 -80l46 -27q67 -39 92 -70t25 -72q0 -64 -33.5 -102t-90.5 -51zM383 247q0 40 -42 65q-47 31 -79 49q-13 6 -26 6q-11 0 -22 -4q-57 -17 -57 -73
q0 -34 46 -63q47 -31 88 -50q8 -5 19 -5q13 0 23 5q50 27 50 70z" />
    <glyph glyph-name="dieresis" unicode="&#xa8;" horiz-adv-x="197" 
d="M62 674q0 -43 -19 -61q-17 -16 -46 -16q-50 0 -50 45q0 38 19 57q18 19 47 19q49 0 49 -44zM250 674q0 -42 -20 -61q-16 -16 -46 -16q-49 0 -49 45q0 37 19 57q18 19 46 19q50 0 50 -44z" />
    <glyph glyph-name="copyright" unicode="&#xa9;" horiz-adv-x="830" 
d="M790 345q0 -155 -98 -257t-257 -102t-257 102t-98 257t98 257.5t256 102.5q163 0 259.5 -101.5t96.5 -258.5zM749 345q0 140 -85.5 230.5t-229.5 90.5q-141 0 -226.5 -91t-85.5 -230t85.5 -230t227.5 -91q143 0 228.5 91t85.5 230zM339 293q0 -96 93 -96q48 0 80 8
q20 4 23 4q11 0 14 -12q8 -28 8 -37q0 -13 -18 -18q-53 -17 -132 -17q-74 0 -116 41t-42 122q0 157 83 232q54 50 159 50q48 0 85 -8q17 -4 17 -18q0 -21 -9 -43q-4 -9 -15 -9q-5 0 -23 2q-23 4 -59 4q-66 0 -97 -34q-51 -56 -51 -171z" />
    <glyph glyph-name="ordfeminine" unicode="&#xaa;" horiz-adv-x="345" 
d="M314 319q-7 -25 -14 -32q-8 -10 -26 -16q-47 -15 -117 -15q-103 0 -103 76q0 71 51 99q31 17 103 17q21 0 55 -2q6 25 6 38q0 24 -47 24q-33 0 -63 -5q-3 0 -13 -2t-13 -2q-9 0 -12 12q-5 18 -5 31q0 14 17 20q42 13 106 13q26 0 43.5 -2t34.5 -8t26 -19.5t9 -33.5
q0 -21 -7 -52zM252 395q-13 2 -45 2q-42 0 -58 -8q-20 -10 -20 -41q0 -33 45 -33q34 0 49 5q8 3 13 11q5 9 16 64z" />
    <glyph glyph-name="guillemotleft" unicode="&#xab;" horiz-adv-x="514" 
d="M147 262l86 -158q7 -12 7 -21q0 -13 -17 -16q-24 -2 -52 -2q-18 0 -32 22l-93 157q-7 12 -7 24t15 27l152 148q23 23 45 23q39 0 53 -2q16 -3 16 -14q0 -10 -14 -24zM358 262l85 -158q8 -13 8 -21q0 -13 -19 -16q-20 -2 -50 -2q-18 0 -32 22l-93 157q-7 12 -7 24t15 27
l152 148q23 23 45 23q39 0 53 -2q14 -3 14 -14q0 -10 -13 -24z" />
    <glyph glyph-name="logicalnot" unicode="&#xac;" horiz-adv-x="701" 
d="M578 59q-4 -24 -29 -24h-27q-24 0 -24 20q0 6 2 14l40 185h-414q-24 0 -24 23q0 11 5 33q6 25 28 25h467q27 0 27 -22q0 -7 -3 -19z" />
    <glyph glyph-name="uni00AD" unicode="&#xad;" horiz-adv-x="333" 
d="M269 220h-204q-22 0 -22 20q0 34 5 54q3 21 26 21h203q22 0 22 -19q0 -38 -5 -56q-1 -20 -25 -20z" />
    <glyph glyph-name="registered" unicode="&#xae;" horiz-adv-x="830" 
d="M789 345q0 -155 -98 -257t-257 -102t-257 102t-98 257t98 257.5t256 102.5q163 0 259.5 -101.5t96.5 -258.5zM749 345q0 140 -86.5 230.5t-229.5 90.5q-141 0 -227 -91t-86 -230t86 -230t228 -91t228.5 91t86.5 230zM330 153q-3 -19 -20 -19h-41q-19 0 -19 16q0 2 1.5 8
t1.5 9l71 332q8 39 26.5 56t57.5 17h46q74 0 114 -19q46 -25 46 -84q0 -113 -98 -148l56 -149q4 -11 4 -18q0 -16 -19 -19q-18 -3 -41 -3q-17 0 -24 19l-52 157h-36h-39zM378 374h49q37 0 59 7q45 16 45 69q0 34 -25 46q-14 7 -53 7h-22q-25 0 -31 -26z" />
    <glyph glyph-name="macron" unicode="&#xaf;" horiz-adv-x="197" 
d="M202 600h-224q-22 0 -22 19q0 16 9 46q6 23 30 23h223q23 0 23 -18q0 -12 -10 -47q-5 -23 -29 -23z" />
    <glyph glyph-name="degree" unicode="&#xb0;" horiz-adv-x="336" 
d="M379 588q0 -69 -39.5 -110t-108.5 -41q-58 0 -92.5 33t-34.5 93q0 68 40.5 108.5t108.5 40.5q59 0 92.5 -32t33.5 -92zM331 583q0 87 -83 87q-44 0 -70 -27.5t-26 -80.5q0 -40 23 -62t62 -22q42 0 68 27t26 78z" />
    <glyph glyph-name="plusminus" unicode="&#xb1;" horiz-adv-x="701" 
d="M379 169q-3 -25 -28 -25h-27q-24 0 -24 21q0 7 2 17l38 177h-192q-23 0 -23 22q0 11 5 33q4 24 28 24h196l40 188q5 25 27 25h29q24 0 24 -23q0 -6 -2 -16l-37 -174h191q25 0 25 -22q0 -2 -6 -33q-5 -24 -28 -24h-197zM558 0h-470q-24 0 -24 22q0 12 5 33q6 25 28 25h472
q24 0 24 -23q0 -7 -6 -33q-5 -24 -29 -24z" />
    <glyph glyph-name="twosuperior" unicode="&#xb2;" 
d="M370 420h-253q-20 0 -26.5 7.5t-6.5 22.5q0 28 24 46q125 85 171 121q63 48 63 99q0 57 -71 57q-29 0 -57 -6q-25 -5 -26 -5q-10 0 -12 10q-5 25 -5 35q0 11 19 18q48 15 111 15q127 0 127 -102q0 -77 -67 -134q-55 -47 -163 -116h184q14 0 14 -13q0 -9 -6 -41
q-3 -14 -20 -14z" />
    <glyph glyph-name="threesuperior" unicode="&#xb3;" 
d="M321 637q74 -8 74 -78q0 -73 -42 -109q-46 -38 -145 -38q-62 0 -97 12q-13 5 -13 16q0 6 10 38q3 10 15 10q6 0 22 -4q33 -6 71 -6q60 0 79 22q18 19 18 55q0 22 -18 32.5t-66 11.5q-22 0 -22 23q0 44 33 44q54 0 76 17q19 16 19 49q0 41 -64 41q-39 0 -62 -6
q-20 -4 -22 -4q-8 0 -11 10q-7 31 -7 34q0 12 19 18q62 15 111 15q66 0 92 -22.5t26 -64.5q0 -95 -96 -116z" />
    <glyph glyph-name="acute" unicode="&#xb4;" horiz-adv-x="197" 
d="M78 596q-19 -17 -40 -17q-13 0 -37 3q-21 4 -21 18q0 11 11 22l106 116q18 21 40 21q39 0 62 -3q20 -4 20 -18q0 -12 -11 -22z" />
    <glyph glyph-name="mu" unicode="&#xb5;" horiz-adv-x="606" 
d="M119 -179q-6 -25 -28 -25h-62q-22 0 -22 17q0 6 4 22l135 636q5 26 26 26h67q18 0 18 -18q0 -11 -3 -23l-60 -277q-7 -33 -7 -51q0 -46 77 -46q58 0 92 14q14 6 22 13t13 26l72 336q5 26 27 26h65q20 0 20 -18q0 -4 -2 -12.5t-2 -9.5l-81 -375q-9 -46 -47 -62
q-82 -33 -184 -33q-72 0 -98 26z" />
    <glyph glyph-name="paragraph" unicode="&#xb6;" horiz-adv-x="570" 
d="M249 -109q-3 -19 -19 -19h-19q-14 0 -14 12q0 3 2 13l72 337q-96 0 -140 44.5t-44 118.5q0 82 32 150.5t94 108.5q75 50 209 50h132q25 0 25 -19q0 -5 -3 -23l-165 -772q-3 -20 -20 -20h-19q-14 0 -14 12q0 5 2 13l161 757h-110z" />
    <glyph glyph-name="periodcentered" unicode="&#xb7;" horiz-adv-x="241" 
d="M203 290q0 -51 -26 -77q-20 -20 -59 -20q-64 0 -64 59q0 42 25 70q21 24 60 24q64 0 64 -56z" />
    <glyph glyph-name="cedilla" unicode="&#xb8;" horiz-adv-x="197" 
d="M127 -52q80 -4 80 -77q0 -67 -39 -94.5t-112 -27.5q-32 0 -47 5q-17 6 -18 20q0 11 6 29q5 19 25 19q7 0 21 -2q9 -1 28 -1q24 0 34.5 8.5t10.5 30.5q0 25 -31 25h-18q-20 0 -20 18q0 8 8 32l27 77h65z" />
    <glyph glyph-name="onesuperior" unicode="&#xb9;" 
d="M333 420h-182q-14 0 -14 11q0 10 8 43q3 15 21 15h52l59 264l-56 -19q-9 -3 -16 -3q-6 0 -10 8q-11 32 -11 39q0 9 13 14l85 31q22 9 43 9h6q35 0 35 -29q0 -10 -6 -36l-61 -278h48q15 0 15 -11q0 -12 -8 -44q-4 -14 -21 -14z" />
    <glyph glyph-name="ordmasculine" unicode="&#xba;" horiz-adv-x="353" 
d="M366 478q0 -41 -13 -93t-39 -83q-40 -46 -123 -46q-62 0 -95.5 21.5t-33.5 81.5q0 46 14 95t44 79q41 42 115 42q64 0 97.5 -19t33.5 -78zM285 466q0 26 -13 35t-42 9q-36 0 -54 -23q-15 -19 -24 -57.5t-9 -62.5q0 -27 12.5 -37t41.5 -10q41 0 58 26q12 18 21 58.5
t9 61.5z" />
    <glyph glyph-name="guillemotright" unicode="&#xbb;" horiz-adv-x="514" 
d="M479 236l-152 -148q-23 -23 -45 -23q-39 0 -53 2q-15 3 -15 15q0 9 14 23l158 164l-86 158q-7 14 -7 21q0 13 18 16q11 2 51 2q19 0 32 -21l93 -158q7 -12 7 -24q0 -10 -15 -27zM175 269l-86 158q-7 12 -7 21q0 13 18 16q11 2 52 2q18 0 31 -21l93 -158q7 -12 7 -24
t-15 -27l-152 -148q-23 -23 -45 -23q-39 0 -53 2q-15 3 -15 15q0 9 14 23z" />
    <glyph glyph-name="onequarter" unicode="&#xbc;" horiz-adv-x="862" 
d="M690 15q-3 -16 -19 -16h-43q-14 0 -14 12q0 7 2 15l16 69h-149q-38 0 -38 31q0 28 20 53l169 217q12 17 27 17q31 0 49 -2q9 0 9 -10q0 -8 -6 -16l-173 -222h107l17 74q3 18 19 18h43q14 0 14 -11q0 -4 -3 -19l-14 -62h39q16 0 16 -12q0 -3 -10 -43q-3 -13 -18 -13h-41z
M293 264h-182q-14 0 -14 11q0 10 8 43q3 15 21 15h52l59 264l-56 -19q-9 -3 -16 -3q-5 0 -9 8q-12 35 -12 39q0 9 13 14l85 31q24 9 44 9h5q35 0 35 -29q0 -13 -5 -36l-62 -278h49q15 0 15 -11q0 -8 -9 -44q-4 -14 -21 -14zM235 -15q-12 -17 -26 -17q-15 0 -24 1
q-10 1 -10 9t9 21l448 690q15 22 30 22q16 0 26 -2q9 -1 9 -10q0 -8 -11 -23z" />
    <glyph glyph-name="onehalf" unicode="&#xbd;" horiz-adv-x="862" 
d="M736 0h-253q-19 0 -25.5 7.5t-6.5 22.5q0 28 24 46q143 99 171 121q30 24 46.5 46t16.5 53q0 57 -70 57q-32 0 -59 -6q-4 -1 -9.5 -2t-9.5 -2t-6 -1q-9 0 -12 10q-6 24 -6 35t20 18q48 15 110 15q127 0 127 -102q0 -77 -67 -134q-59 -50 -162 -116h184q14 0 14 -13
q0 -3 -7 -41q-3 -14 -20 -14zM280 264h-182q-14 0 -14 11q0 10 8 43q3 15 21 15h52l59 264l-56 -19q-9 -3 -16 -3q-5 0 -9 8q-12 35 -12 39q0 9 13 14l85 31q24 9 44 9h5q35 0 35 -29q0 -13 -5 -36l-62 -278h49q15 0 15 -11q0 -8 -9 -44q-3 -14 -21 -14zM221 -15
q-12 -17 -26 -17q-15 0 -24 1q-10 1 -10 9t9 21l448 690q15 22 30 22q16 0 26 -2q9 -1 9 -10q0 -8 -11 -23z" />
    <glyph glyph-name="threequarters" unicode="&#xbe;" horiz-adv-x="862" 
d="M277 -15q-12 -17 -26 -17q-15 0 -24 1q-10 1 -10 9t9 21l448 690q15 22 30 22q16 0 26 -2q9 -1 9 -10q0 -8 -11 -23zM314 481q73 -7 73 -78q0 -75 -41 -109q-45 -38 -146 -38q-62 0 -97 12q-13 5 -13 16t10 38q3 10 16 10q5 0 21 -4q33 -6 71 -6q57 0 79 22q18 19 18 55
q0 23 -18 33t-67 11q-21 0 -21 23q0 44 34 44q53 0 75 17q19 16 19 49q0 21 -14.5 31t-49.5 10t-61 -6q-20 -4 -23 -4q-8 0 -11 10q-6 25 -6 35q0 12 20 18q56 14 110 14q66 0 91.5 -22.5t25.5 -64.5q0 -95 -95 -116zM726 15q-3 -16 -19 -16h-43q-14 0 -14 12q0 7 2 15
l16 69h-149q-38 0 -38 31q0 28 20 53l169 217q12 17 27 17q31 0 49 -2q9 0 9 -10q0 -8 -6 -16l-173 -222h107l17 74q3 18 19 18h43q14 0 14 -11q0 -4 -3 -19l-14 -62h39q16 0 16 -12q0 -3 -10 -43q-3 -13 -18 -13h-41z" />
    <glyph glyph-name="questiondown" unicode="&#xbf;" horiz-adv-x="435" 
d="M233 271h39q23 0 23 -20q0 -13 -6 -46q-8 -40 -24.5 -63t-57.5 -49q-62 -40 -86.5 -69.5t-24.5 -76.5q0 -29 21 -47t65 -19q41 0 91 9q24 4 26 4q14 0 20 -20q7 -30 7 -42q0 -21 -26 -28q-73 -20 -149 -20q-92 0 -134 35.5t-42 95.5q0 73 32.5 118t105.5 87
q39 22 55.5 40t27.5 49q4 12 12 43q4 19 25 19zM201 417q0 48 27 76q19 21 58 21q64 0 64 -59q0 -43 -25 -71q-21 -24 -60 -24q-64 0 -64 57z" />
    <glyph glyph-name="Agrave" unicode="&#xc0;" horiz-adv-x="625" 
d="M163 198l-93 -171q-10 -18 -16.5 -24t-18.5 -6q-68 0 -82 3q-11 3 -11 16q0 9 12 33l327 587q24 44 42.5 59t58.5 15h26q37 0 51.5 -16.5t19.5 -55.5l72 -584q2 -18 2 -29q0 -17 -16 -24q-12 -4 -74 -4q-13 0 -19 7t-8 24l-21 170h-252zM212 295h198q-25 226 -31 315
q-38 -76 -167 -315zM364 772l-134 101q-14 11 -14 22q0 18 23 19q21 2 73 2q21 0 44 -21l102 -97q12 -11 12 -22q0 -13 -15 -16q-14 -3 -47 -3q-22 0 -44 15z" />
    <glyph glyph-name="Aacute" unicode="&#xc1;" horiz-adv-x="625" 
d="M186 198l-93 -171q-10 -18 -16.5 -24t-18.5 -6q-68 0 -82 3q-11 3 -11 16q0 9 12 33l327 587q24 44 42.5 59t58.5 15h26q37 0 51.5 -16.5t19.5 -55.5l72 -584q2 -18 2 -29q0 -17 -16 -24q-12 -4 -74 -4q-13 0 -19 7t-8 24l-21 170h-252zM235 295h198q-25 226 -31 315
q-38 -76 -167 -315zM429 763q-21 -14 -45 -14q-34 0 -44 2q-19 2 -19 16q0 13 14 23l128 97q27 20 47 20q40 0 70 -2q26 -3 26 -18t-15 -24z" />
    <glyph glyph-name="Acircumflex" unicode="&#xc2;" horiz-adv-x="625" 
d="M186 198l-93 -171q-10 -18 -16.5 -24t-18.5 -6q-68 0 -82 3q-11 3 -11 16q0 9 12 33l327 587q24 44 42.5 59t58.5 15h26q37 0 51.5 -16.5t19.5 -55.5l72 -584q2 -18 2 -29q0 -17 -16 -24q-12 -4 -74 -4q-13 0 -19 7t-8 24l-21 170h-252zM235 295h198q-25 226 -31 315
q-38 -76 -167 -315zM306 758q-30 0 -45 3q-16 4 -16 16q0 10 13 21l116 101q29 25 51 25h42q24 0 39 -22l79 -102q8 -11 8 -19q0 -14 -20 -19q-12 -3 -39 -3q-21 0 -38 19l-62 63l-84 -64q-25 -19 -44 -19z" />
    <glyph glyph-name="Atilde" unicode="&#xc3;" horiz-adv-x="625" 
d="M163 198l-93 -171q-10 -18 -16.5 -24t-18.5 -6q-68 0 -82 3q-11 3 -11 16q0 9 12 33l327 587q24 44 42.5 59t58.5 15h26q37 0 51.5 -16.5t19.5 -55.5l72 -584q2 -18 2 -29q0 -17 -16 -24q-12 -4 -74 -4q-13 0 -19 7t-8 24l-21 170h-252zM212 295h198q-25 226 -31 315
q-38 -76 -167 -315zM270 761q-22 0 -32 3q-12 5 -12 17q0 9 8 28q37 90 102 90q21 0 72 -27q34 -19 56 -19q25 0 42 30q11 21 32 21q18 0 29 -3q13 -4 13 -16q0 -13 -12 -39q-36 -81 -97 -81q-30 0 -79 26q-39 20 -54 20q-23 0 -39 -28q-4 -7 -6 -10t-5.5 -6.5t-7.5 -4.5
t-10 -1z" />
    <glyph glyph-name="Adieresis" unicode="&#xc4;" horiz-adv-x="625" 
d="M186 198l-93 -171q-10 -18 -16.5 -24t-18.5 -6q-68 0 -82 3q-11 3 -11 16q0 9 12 33l327 587q24 44 42.5 59t58.5 15h26q37 0 51.5 -16.5t19.5 -55.5l72 -584q2 -18 2 -29q0 -17 -16 -24q-12 -4 -74 -4q-13 0 -19 7t-8 24l-21 170h-252zM235 295h198q-25 226 -31 315
q-38 -76 -167 -315zM385 842q0 -41 -19 -60q-19 -17 -46 -17q-50 0 -50 45q0 38 19 58q19 19 47 19q49 0 49 -45zM581 842q0 -40 -20 -60q-19 -17 -47 -17q-48 0 -48 45q0 39 19 58q18 19 46 19q50 0 50 -45z" />
    <glyph glyph-name="Aring" unicode="&#xc5;" horiz-adv-x="625" 
d="M186 198l-93 -171q-10 -18 -16.5 -24t-18.5 -6q-68 0 -82 3q-11 3 -11 16q0 9 12 33l327 587q24 44 42.5 59t58.5 15h26q37 0 51.5 -16.5t19.5 -55.5l72 -584q2 -18 2 -29q0 -17 -16 -24q-12 -4 -74 -4q-13 0 -19 7t-8 24l-21 170h-252zM235 295h198q-25 226 -31 315
q-38 -76 -167 -315zM519 840q0 -49 -26.5 -76.5t-74.5 -27.5q-39 0 -61.5 22t-22.5 62q0 48 26.5 76.5t73.5 28.5q40 0 62.5 -22.5t22.5 -62.5zM479 838q0 49 -49 49q-25 0 -41.5 -17t-16.5 -45q0 -52 50 -52q26 0 41.5 17t15.5 48z" />
    <glyph glyph-name="AE" unicode="&#xc6;" horiz-adv-x="948" 
d="M111 24q-19 -26 -49 -26q-49 0 -77 2q-18 1 -18 17q0 12 16 30l494 590q33 40 57.5 54.5t66.5 14.5h373q23 0 23 -18q0 -12 -12 -64q-4 -19 -29 -19h-257l-42 -189h233q20 0 20 -17q0 -10 -11 -64q-4 -19 -28 -19h-234l-35 -159q-4 -18 -4 -29q0 -27 29 -27h252
q22 0 22 -18q0 -9 -12 -64q-6 -19 -29 -19h-302q-85 0 -85 67q0 25 6 50l20 88h-234zM339 303h179l67 300z" />
    <glyph glyph-name="Ccedilla" unicode="&#xc7;" horiz-adv-x="578" 
d="M311 -54q81 -5 81 -81q0 -70 -40 -98.5t-114 -28.5q-25 0 -47 5q-19 4 -19 21q0 12 5 30q5 20 25 20q7 0 23 -2q9 -1 28 -1q25 0 36 9t11 32q0 26 -33 26h-18q-20 0 -20 18q0 7 8 33l20 61q-191 19 -191 239q0 113 39 233.5t116 186.5q82 70 233 70q82 0 139 -12
q24 -6 24 -26q0 -27 -15 -59q-5 -12 -19 -12q-1 0 -36 5q-39 7 -103 7q-100 0 -154 -56q-49 -50 -76.5 -143t-27.5 -176q0 -163 149 -163q49 0 118 12q30 6 41 6q16 0 19 -17q8 -36 8 -52q0 -15 -26 -23q-77 -21 -172 -23z" />
    <glyph glyph-name="Egrave" unicode="&#xc8;" horiz-adv-x="548" 
d="M459 0h-307q-46 0 -67.5 17t-21.5 53q0 21 5 44l104 486q12 56 40 81t83 25h277q25 0 25 -19q0 -17 -12 -63q-5 -19 -30 -19h-234q-32 0 -40 -38l-34 -151h242q22 0 22 -17q0 -11 -13 -64q-5 -19 -27 -19h-245l-35 -158q-4 -16 -4 -30q0 -27 31 -27h258q24 0 24 -17
q0 -20 -12 -65q-4 -19 -29 -19zM373 772l-134 101q-14 11 -14 22q0 18 23 19q21 2 73 2q21 0 44 -21l102 -97q12 -11 12 -22q0 -13 -15 -16q-14 -3 -47 -3q-22 0 -44 15z" />
    <glyph glyph-name="Eacute" unicode="&#xc9;" horiz-adv-x="548" 
d="M459 0h-307q-46 0 -67.5 17t-21.5 53q0 21 5 44l104 486q12 56 40 81t83 25h277q25 0 25 -19q0 -17 -12 -63q-5 -19 -30 -19h-234q-32 0 -40 -38l-34 -151h242q22 0 22 -17q0 -11 -13 -64q-5 -19 -27 -19h-245l-35 -158q-4 -16 -4 -30q0 -27 31 -27h258q24 0 24 -17
q0 -20 -12 -65q-4 -19 -29 -19zM434 763q-21 -14 -45 -14q-34 0 -44 2q-19 2 -19 16q0 13 14 23l128 97q27 20 47 20q40 0 70 -2q26 -3 26 -18t-15 -24z" />
    <glyph glyph-name="Ecircumflex" unicode="&#xca;" horiz-adv-x="548" 
d="M459 0h-307q-46 0 -67.5 17t-21.5 53q0 21 5 44l104 486q12 56 40 81t83 25h277q25 0 25 -19q0 -17 -12 -63q-5 -19 -30 -19h-234q-32 0 -40 -38l-34 -151h242q22 0 22 -17q0 -11 -13 -64q-5 -19 -27 -19h-245l-35 -158q-4 -16 -4 -30q0 -27 31 -27h258q24 0 24 -17
q0 -20 -12 -65q-4 -19 -29 -19zM293 758q-30 0 -45 3q-16 4 -16 16q0 10 13 21l116 101q29 25 51 25h42q24 0 39 -22l79 -102q8 -11 8 -19q0 -14 -20 -19q-12 -3 -39 -3q-21 0 -38 19l-62 63l-84 -64q-25 -19 -44 -19z" />
    <glyph glyph-name="Edieresis" unicode="&#xcb;" horiz-adv-x="548" 
d="M459 0h-307q-46 0 -67.5 17t-21.5 53q0 21 5 44l104 486q12 56 40 81t83 25h277q25 0 25 -19q0 -17 -12 -63q-5 -19 -30 -19h-234q-32 0 -40 -38l-34 -151h242q22 0 22 -17q0 -11 -13 -64q-5 -19 -27 -19h-245l-35 -158q-4 -16 -4 -30q0 -27 31 -27h258q24 0 24 -17
q0 -20 -12 -65q-4 -19 -29 -19zM374 842q0 -41 -19 -60q-19 -17 -46 -17q-50 0 -50 45q0 38 19 58q19 19 47 19q49 0 49 -45zM570 842q0 -40 -20 -60q-19 -17 -47 -17q-48 0 -48 45q0 39 19 58q18 19 46 19q50 0 50 -45z" />
    <glyph glyph-name="Igrave" unicode="&#xcc;" horiz-adv-x="298" 
d="M163 24q-6 -26 -29 -26h-67q-20 0 -20 18q0 2 3 20l139 645q5 27 29 27h66q21 0 21 -18q0 -7 -4 -25zM240 772l-134 101q-14 11 -14 22q0 18 23 19q21 2 73 2q21 0 44 -21l102 -97q12 -11 12 -22q0 -13 -15 -16q-14 -3 -47 -3q-22 0 -44 15z" />
    <glyph glyph-name="Iacute" unicode="&#xcd;" horiz-adv-x="298" 
d="M163 24q-6 -26 -29 -26h-67q-20 0 -20 18q0 2 3 20l139 645q5 27 29 27h66q21 0 21 -18q0 -7 -4 -25zM270 772q-21 -14 -45 -14q-34 0 -44 2q-19 2 -19 16q0 13 14 23l128 97q27 20 47 20q40 0 70 -2q26 -3 26 -18t-15 -24z" />
    <glyph glyph-name="Icircumflex" unicode="&#xce;" horiz-adv-x="298" 
d="M163 24q-6 -26 -29 -26h-67q-20 0 -20 18q0 2 3 20l139 645q5 27 29 27h66q21 0 21 -18q0 -7 -4 -25zM144 758q-30 0 -45 3q-16 4 -16 16q0 10 13 21l116 101q29 25 51 25h42q24 0 39 -22l79 -102q8 -11 8 -19q0 -14 -20 -19q-12 -3 -39 -3q-21 0 -38 19l-62 63l-84 -64
q-25 -19 -44 -19z" />
    <glyph glyph-name="Idieresis" unicode="&#xcf;" horiz-adv-x="298" 
d="M163 24q-6 -26 -29 -26h-67q-20 0 -20 18q0 2 3 20l139 645q5 27 29 27h66q21 0 21 -18q0 -7 -4 -25zM220 842q0 -41 -19 -60q-19 -17 -46 -17q-50 0 -50 45q0 38 19 58q19 19 47 19q49 0 49 -45zM416 842q0 -40 -20 -60q-19 -17 -47 -17q-48 0 -48 45q0 39 19 58
q18 19 46 19q50 0 50 -45z" />
    <glyph glyph-name="Eth" unicode="&#xd0;" horiz-adv-x="688" 
d="M229 0h-77q-46 0 -67.5 17t-21.5 53q0 21 5 44l44 207h-67q-20 0 -20 18q0 16 7 49q5 22 26 22h73l40 189q12 57 40 82t83 25h73q107 0 176 -23q62 -21 96 -76t34 -133q0 -73 -12 -138.5t-39 -128.5t-77 -111t-120 -71q-74 -25 -196 -25zM191 156q-4 -20 -4 -28
q0 -27 31 -27h56q65 0 124 22q81 32 119 129t38 206q0 94 -63 125q-42 22 -124 22h-47q-32 0 -40 -38l-35 -157h127q21 0 21 -18q0 -13 -9 -52q-3 -12 -8 -15.5t-17 -3.5h-133z" />
    <glyph glyph-name="Ntilde" unicode="&#xd1;" horiz-adv-x="721" 
d="M160 25q-5 -27 -28 -27h-63q-22 0 -22 21q0 6 3 18l128 591q9 43 30 62.5t62 19.5h32q18 0 29 -3.5t17.5 -12.5t9.5 -17t8 -25q106 -373 138 -510q20 107 114 534q6 32 31 32h59q20 0 20 -19q0 -3 -3 -24l-129 -604q-15 -68 -77 -68h-27q-34 0 -48 13.5t-25 52.5
q-128 448 -142 517q-24 -123 -117 -551zM354 761q-22 0 -32 3q-12 5 -12 17q0 9 8 28q37 90 102 90q21 0 72 -27q34 -19 56 -19q25 0 42 30q11 21 32 21q18 0 29 -3q13 -4 13 -16q0 -13 -12 -39q-36 -81 -97 -81q-30 0 -79 26q-39 20 -54 20q-23 0 -39 -28q-4 -7 -6 -10
t-5.5 -6.5t-7.5 -4.5t-10 -1z" />
    <glyph glyph-name="Ograve" unicode="&#xd2;" horiz-adv-x="693" 
d="M678 511q0 -102 -33.5 -234.5t-94.5 -201.5q-43 -47 -98.5 -67.5t-134.5 -20.5q-122 0 -186.5 47.5t-64.5 172.5q0 108 34 232.5t99 194.5q81 86 224 86q48 0 83.5 -4.5t69.5 -17.5t55 -35.5t34 -60.5t13 -91zM558 492q0 76 -32 103t-111 27q-87 0 -134 -56
q-44 -51 -70 -157.5t-26 -186.5q0 -79 32.5 -108.5t109.5 -29.5q51 0 83.5 13.5t58.5 51.5q39 55 64 164.5t25 178.5zM414 772l-134 101q-14 11 -14 22q0 18 23 19q21 2 73 2q21 0 44 -21l102 -97q12 -11 12 -22q0 -13 -15 -16q-13 -3 -47 -3q-22 0 -44 15z" />
    <glyph glyph-name="Oacute" unicode="&#xd3;" horiz-adv-x="693" 
d="M678 511q0 -102 -33.5 -234.5t-94.5 -201.5q-43 -47 -98.5 -67.5t-134.5 -20.5q-122 0 -186.5 47.5t-64.5 172.5q0 108 34 232.5t99 194.5q81 86 224 86q48 0 83.5 -4.5t69.5 -17.5t55 -35.5t34 -60.5t13 -91zM558 492q0 76 -32 103t-111 27q-87 0 -134 -56
q-44 -51 -70 -157.5t-26 -186.5q0 -79 32.5 -108.5t109.5 -29.5q51 0 83.5 13.5t58.5 51.5q39 55 64 164.5t25 178.5zM460 772q-21 -14 -45 -14q-34 0 -44 2q-19 2 -19 16q0 13 14 23l128 97q27 20 47 20q40 0 70 -2q26 -3 26 -18t-15 -24z" />
    <glyph glyph-name="Ocircumflex" unicode="&#xd4;" horiz-adv-x="693" 
d="M678 511q0 -102 -33.5 -234.5t-94.5 -201.5q-43 -47 -98.5 -67.5t-134.5 -20.5q-122 0 -186.5 47.5t-64.5 172.5q0 108 34 232.5t99 194.5q81 86 224 86q48 0 83.5 -4.5t69.5 -17.5t55 -35.5t34 -60.5t13 -91zM558 492q0 76 -32 103t-111 27q-87 0 -134 -56
q-44 -51 -70 -157.5t-26 -186.5q0 -79 32.5 -108.5t109.5 -29.5q51 0 83.5 13.5t58.5 51.5q39 55 64 164.5t25 178.5zM341 758q-30 0 -45 3q-16 4 -16 16q0 10 13 21l116 101q29 25 51 25h42q24 0 39 -22l79 -102q8 -11 8 -19q0 -14 -20 -19q-12 -3 -39 -3q-21 0 -38 19
l-62 63l-84 -64q-25 -19 -44 -19z" />
    <glyph glyph-name="Otilde" unicode="&#xd5;" horiz-adv-x="693" 
d="M655 511q0 -102 -33.5 -234.5t-94.5 -201.5q-43 -47 -98.5 -67.5t-134.5 -20.5q-122 0 -186.5 47.5t-64.5 172.5q0 108 34 232.5t99 194.5q81 86 224 86q48 0 83.5 -4.5t69.5 -17.5t55 -35.5t34 -60.5t13 -91zM535 492q0 76 -32 103t-111 27q-87 0 -134 -56
q-44 -51 -70 -157.5t-26 -186.5q0 -79 32.5 -108.5t109.5 -29.5q51 0 83.5 13.5t58.5 51.5q39 55 64 164.5t25 178.5zM303 761q-21 0 -32 3q-12 5 -12 17q0 9 8 28q37 90 102 90q21 0 72 -27q34 -19 56 -19q25 0 42 30q11 21 32 21q19 0 29 -3q13 -4 13 -16q0 -13 -12 -39
q-36 -81 -97 -81q-30 0 -79 26q-39 20 -54 20q-23 0 -39 -28q-4 -7 -6 -10t-5.5 -6.5t-7.5 -4.5t-10 -1z" />
    <glyph glyph-name="Odieresis" unicode="&#xd6;" horiz-adv-x="693" 
d="M678 511q0 -102 -33.5 -234.5t-94.5 -201.5q-43 -47 -98.5 -67.5t-134.5 -20.5q-122 0 -186.5 47.5t-64.5 172.5q0 108 34 232.5t99 194.5q81 86 224 86q48 0 83.5 -4.5t69.5 -17.5t55 -35.5t34 -60.5t13 -91zM558 492q0 76 -32 103t-111 27q-87 0 -134 -56
q-44 -51 -70 -157.5t-26 -186.5q0 -79 32.5 -108.5t109.5 -29.5q51 0 83.5 13.5t58.5 51.5q39 55 64 164.5t25 178.5zM421 842q0 -41 -19 -60q-19 -17 -46 -17q-50 0 -50 45q0 38 19 58q19 19 47 19q49 0 49 -45zM617 842q0 -40 -20 -60q-19 -17 -47 -17q-48 0 -48 45
q0 39 19 58q18 19 46 19q50 0 50 -45z" />
    <glyph glyph-name="multiply" unicode="&#xd7;" horiz-adv-x="701" 
d="M564 153q8 -8 8 -20q0 -10 -9 -19l-23 -23q-9 -8 -20 -8q-9 0 -18 9l-132 144l-163 -147q-8 -8 -18 -8q-9 0 -18 11l-16 18q-9 10 -9 20t11 21l162 146l-134 145q-9 9 -9 18q0 12 11 21l23 21q9 9 18 9q10 0 19 -10l133 -146l166 149q10 8 17 8q11 0 19 -11l17 -20
q7 -9 7 -17q0 -12 -10 -21l-167 -147z" />
    <glyph glyph-name="Oslash" unicode="&#xd8;" horiz-adv-x="693" 
d="M96 -13q-9 -9 -15 -9q-8 0 -33 22q-7 6 -7 12q0 8 7 15l44 53q-26 49 -26 127q0 108 34 232.5t99 194.5q81 86 224 86q120 0 177 -34l42 50q7 8 14 8t12 -4q28 -21 28 -28t-6 -14l-45 -54q33 -49 33 -133q0 -102 -33.5 -234.5t-94.5 -201.5q-43 -47 -98.5 -67.5
t-134.5 -20.5q-125 0 -183 45zM327 84q51 0 83.5 13.5t58.5 51.5q39 55 64 164.5t25 178.5q0 18 -4 44l-345 -414q30 -38 118 -38zM185 222q0 -21 1 -30l338 404q-31 26 -109 26q-87 0 -134 -56q-44 -51 -70 -157.5t-26 -186.5z" />
    <glyph glyph-name="Ugrave" unicode="&#xd9;" horiz-adv-x="682" 
d="M691 675l-84 -392q-19 -87 -32.5 -130t-37.5 -73q-38 -49 -97 -71t-153 -22q-40 0 -74.5 7t-67 23.5t-51.5 49t-19 77.5q0 52 18 137l85 402q6 25 29 25h68q19 0 19 -18q0 -10 -3 -21l-88 -415q-10 -46 -10 -78q0 -92 114 -92q95 0 134 45q29 32 48 119l93 435
q6 25 27 25h66q18 0 18 -16q0 -7 -2 -17zM402 772l-134 101q-14 11 -14 22q0 18 23 19q21 2 73 2q21 0 44 -21l102 -97q12 -11 12 -22q0 -13 -15 -16q-14 -3 -47 -3q-22 0 -44 15z" />
    <glyph glyph-name="Uacute" unicode="&#xda;" horiz-adv-x="682" 
d="M691 675l-84 -392q-19 -87 -32.5 -130t-37.5 -73q-38 -49 -97 -71t-153 -22q-40 0 -74.5 7t-67 23.5t-51.5 49t-19 77.5q0 52 18 137l85 402q6 25 29 25h68q19 0 19 -18q0 -10 -3 -21l-88 -415q-10 -46 -10 -78q0 -92 114 -92q95 0 134 45q29 32 48 119l93 435
q6 25 27 25h66q18 0 18 -16q0 -7 -2 -17zM463 772q-21 -14 -45 -14q-34 0 -44 2q-19 2 -19 16q0 13 14 23l128 97q27 20 47 20q40 0 70 -2q26 -3 26 -18t-15 -24z" />
    <glyph glyph-name="Ucircumflex" unicode="&#xdb;" horiz-adv-x="682" 
d="M691 675l-84 -392q-19 -87 -32.5 -130t-37.5 -73q-38 -49 -97 -71t-153 -22q-40 0 -74.5 7t-67 23.5t-51.5 49t-19 77.5q0 52 18 137l85 402q6 25 29 25h68q19 0 19 -18q0 -10 -3 -21l-88 -415q-10 -46 -10 -78q0 -92 114 -92q95 0 134 45q29 32 48 119l93 435
q6 25 27 25h66q18 0 18 -16q0 -7 -2 -17zM332 758q-30 0 -45 3q-16 4 -16 16q0 10 13 21l116 101q29 25 51 25h42q24 0 39 -22l79 -102q8 -11 8 -19q0 -14 -20 -19q-12 -3 -39 -3q-21 0 -38 19l-62 63l-84 -64q-25 -19 -44 -19z" />
    <glyph glyph-name="Udieresis" unicode="&#xdc;" horiz-adv-x="682" 
d="M691 675l-84 -392q-19 -87 -32.5 -130t-37.5 -73q-38 -49 -97 -71t-153 -22q-40 0 -74.5 7t-67 23.5t-51.5 49t-19 77.5q0 52 18 137l85 402q6 25 29 25h68q19 0 19 -18q0 -10 -3 -21l-88 -415q-10 -46 -10 -78q0 -92 114 -92q95 0 134 45q29 32 48 119l93 435
q6 25 27 25h66q18 0 18 -16q0 -7 -2 -17zM419 842q0 -41 -19 -60q-19 -17 -46 -17q-50 0 -50 45q0 38 19 58q19 19 47 19q49 0 49 -45zM615 842q0 -40 -20 -60q-19 -17 -47 -17q-48 0 -48 45q0 39 19 58q18 19 46 19q50 0 50 -45z" />
    <glyph glyph-name="Yacute" unicode="&#xdd;" horiz-adv-x="577" 
d="M307 28q-3 -30 -29 -30h-67q-20 0 -20 20q0 7 4 25l53 255l-142 358q-8 22 -8 30q0 14 13 19q11 4 84 4q20 0 30 -25q74 -194 99 -271q53 75 209 268q22 28 44 28q66 0 82 -4q9 -3 9 -15t-17 -32l-288 -357zM410 768q-21 -14 -45 -14q-34 0 -44 2q-19 2 -19 16
q0 13 14 23l128 97q27 20 47 20q40 0 70 -2q26 -3 26 -18t-15 -24z" />
    <glyph glyph-name="Thorn" unicode="&#xde;" horiz-adv-x="626" 
d="M186 144l-27 -120q-4 -26 -28 -26h-67q-19 0 -19 18q0 8 2 18l138 647q7 27 29 27h66q21 0 21 -17q0 -4 -4 -26l-23 -101h66q133 0 187 -28q72 -35 72 -125q0 -205 -172 -252q-55 -15 -163 -15h-78zM205 236h82q75 0 113 13q39 15 58.5 51.5t19.5 82.5q0 54 -38 72
q-28 12 -110 12h-75z" />
    <glyph glyph-name="germandbls" unicode="&#xdf;" horiz-adv-x="566" 
d="M141 22q-6 -24 -28 -24h-61q-22 0 -22 18q0 4 2 16l95 454q25 116 52 161q32 51 82 77.5t136 26.5q82 0 124 -38t42 -99q0 -93 -48 -153q-34 -44 -97 -62q111 -16 111 -136q0 -151 -90 -217q-73 -53 -204 -53q-32 0 -32 20q0 19 2 43q3 25 26 26q106 8 142 41
q46 43 46 133q0 39 -28 60.5t-91 26.5q-29 2 -29 30q0 60 41 65q80 9 108 47q31 40 31 113q0 33 -20.5 50t-55.5 17q-63 0 -96 -48q-17 -25 -36 -110z" />
    <glyph glyph-name="agrave" unicode="&#xe0;" horiz-adv-x="537" 
d="M432 89q-8 -35 -22 -52q-11 -14 -38 -24q-72 -26 -182 -26q-161 0 -161 125q0 116 83 161q50 28 160 28q36 0 93 -5l5 24q6 28 6 47q0 45 -80 45q-60 0 -102 -9q-30 -7 -39 -7q-13 0 -17 17q-8 30 -8 45q0 19 26 28q70 22 163 22q30 0 52 -1.5t46.5 -8t39.5 -17t25 -29.5
t10 -46q0 -36 -11 -88zM350 217q-28 4 -79 4q-69 0 -99 -17q-36 -21 -36 -70q0 -62 78 -62q53 0 86 14q11 4 20 18q7 14 12 37zM292 596l-105 119q-11 11 -11 23q0 17 22 19q28 2 62 2q21 0 37 -24l83 -116q9 -12 9 -22q0 -13 -19 -16q-9 -1 -39 -1q-24 0 -39 16z" />
    <glyph glyph-name="aacute" unicode="&#xe1;" horiz-adv-x="537" 
d="M432 89q-8 -35 -22 -52q-11 -14 -38 -24q-72 -26 -182 -26q-161 0 -161 125q0 116 83 161q50 28 160 28q36 0 93 -5l5 24q6 28 6 47q0 45 -80 45q-60 0 -102 -9q-30 -7 -39 -7q-13 0 -17 17q-8 30 -8 45q0 19 26 28q70 22 163 22q30 0 52 -1.5t46.5 -8t39.5 -17t25 -29.5
t10 -46q0 -36 -11 -88zM350 217q-28 4 -79 4q-69 0 -99 -17q-36 -21 -36 -70q0 -62 78 -62q53 0 86 14q11 4 20 18q7 14 12 37zM368 596q-19 -17 -40 -17q-13 0 -37 3q-21 4 -21 18q0 11 11 22l106 116q18 21 40 21q39 0 62 -3q20 -4 20 -18q0 -12 -11 -22z" />
    <glyph glyph-name="acircumflex" unicode="&#xe2;" horiz-adv-x="537" 
d="M432 89q-8 -35 -22 -52q-11 -14 -38 -24q-72 -26 -182 -26q-161 0 -161 125q0 116 83 161q50 28 160 28q36 0 93 -5l5 24q6 28 6 47q0 45 -80 45q-60 0 -102 -9q-30 -7 -39 -7q-13 0 -17 17q-8 30 -8 45q0 19 26 28q70 22 163 22q30 0 52 -1.5t46.5 -8t39.5 -17t25 -29.5
t10 -46q0 -36 -11 -88zM350 217q-28 4 -79 4q-69 0 -99 -17q-36 -21 -36 -70q0 -62 78 -62q53 0 86 14q11 4 20 18q7 14 12 37zM234 575q-21 0 -39 2q-16 2 -16 16q0 11 13 24l106 117q22 24 44 24h46q20 0 33 -24l61 -120q5 -9 5 -19q0 -14 -19 -18q-18 -2 -35 -2
q-21 0 -33 19l-48 81l-81 -81q-19 -19 -37 -19z" />
    <glyph glyph-name="atilde" unicode="&#xe3;" horiz-adv-x="537" 
d="M432 89q-8 -35 -22 -52q-11 -14 -38 -24q-72 -26 -182 -26q-161 0 -161 125q0 116 83 161q50 28 160 28q36 0 93 -5l5 24q6 28 6 47q0 45 -80 45q-60 0 -102 -9q-30 -7 -39 -7q-13 0 -17 17q-8 30 -8 45q0 19 26 28q70 22 163 22q30 0 52 -1.5t46.5 -8t39.5 -17t25 -29.5
t10 -46q0 -36 -11 -88zM350 217q-28 4 -79 4q-69 0 -99 -17q-36 -21 -36 -70q0 -62 78 -62q53 0 86 14q11 4 20 18q7 14 12 37zM217 588q-15 0 -29 2q-15 2 -15 18q0 8 8 29q38 89 99 89q23 0 67 -26q33 -20 53 -20q24 0 40 30q11 21 26 21q24 0 33 -3q12 -2 12 -15
q0 -15 -11 -39q-37 -82 -95 -82q-30 0 -74 26q-32 19 -48 19q-25 0 -39 -26q-6 -11 -8 -14t-7 -6t-12 -3z" />
    <glyph glyph-name="adieresis" unicode="&#xe4;" horiz-adv-x="537" 
d="M432 89q-8 -35 -22 -52q-11 -14 -38 -24q-72 -26 -182 -26q-161 0 -161 125q0 116 83 161q50 28 160 28q36 0 93 -5l5 24q6 28 6 47q0 45 -80 45q-60 0 -102 -9q-30 -7 -39 -7q-13 0 -17 17q-8 30 -8 45q0 19 26 28q70 22 163 22q30 0 52 -1.5t46.5 -8t39.5 -17t25 -29.5
t10 -46q0 -36 -11 -88zM350 217q-28 4 -79 4q-69 0 -99 -17q-36 -21 -36 -70q0 -62 78 -62q53 0 86 14q11 4 20 18q7 14 12 37zM315 674q0 -43 -19 -61q-17 -16 -46 -16q-50 0 -50 45q0 38 19 57q18 19 47 19q49 0 49 -44zM503 674q0 -42 -20 -61q-16 -16 -46 -16
q-49 0 -49 45q0 37 19 57q18 19 46 19q50 0 50 -44z" />
    <glyph glyph-name="aring" unicode="&#xe5;" horiz-adv-x="537" 
d="M432 89q-8 -35 -22 -52q-11 -14 -38 -24q-72 -26 -182 -26q-161 0 -161 125q0 116 83 161q50 28 160 28q36 0 93 -5l5 24q6 28 6 47q0 45 -80 45q-60 0 -102 -9q-30 -7 -39 -7q-13 0 -17 17q-8 30 -8 45q0 19 26 28q70 22 163 22q30 0 52 -1.5t46.5 -8t39.5 -17t25 -29.5
t10 -46q0 -36 -11 -88zM350 217q-28 4 -79 4q-69 0 -99 -17q-36 -21 -36 -70q0 -62 78 -62q53 0 86 14q11 4 20 18q7 14 12 37zM436 682q0 -50 -29 -79.5t-78 -29.5q-41 0 -65 23.5t-24 65.5q0 47 29.5 77t77.5 30q41 0 65 -23t24 -64zM394 681q0 51 -52 51q-27 0 -44.5 -18
t-17.5 -48q0 -56 53 -56q29 0 45 18.5t16 52.5z" />
    <glyph glyph-name="ae" unicode="&#xe6;" horiz-adv-x="819" 
d="M376 48q-78 -61 -189 -61q-79 0 -118.5 34t-39.5 93q0 114 81 158q53 28 170 28q11 0 86 -3l6 29q4 19 4 42q0 44 -83 44q-52 0 -104 -11q-30 -5 -33 -5q-13 0 -19 19q-8 29 -8 43q0 21 29 29q76 21 166 21q65 0 99.5 -15t41.5 -52q59 67 169 67q86 0 124 -34.5t38 -99.5
q0 -60 -16 -123q-5 -22 -15 -29q-9 -6 -23 -6h-284q-4 -21 -4 -51q0 -86 109 -86q59 0 112 14q23 5 29 5q14 0 19 -18q9 -36 9 -42q0 -17 -21 -26q-61 -25 -168 -25q-121 0 -167 61zM350 218q-40 2 -82 2q-77 0 -104 -19q-28 -19 -28 -70q0 -59 80 -59q34 0 73.5 10.5
t59.5 27.5q-5 17 -5 36q0 33 6 72zM475 299h209q9 27 9 62q0 32 -17.5 47t-61.5 15q-110 0 -139 -124z" />
    <glyph glyph-name="ccedilla" unicode="&#xe7;" horiz-adv-x="457" 
d="M217 -52q80 -4 80 -77q0 -67 -39 -94.5t-112 -27.5q-32 0 -47 5q-17 6 -18 20q0 11 6 29q5 19 25 19q7 0 21 -2q9 -1 28 -1q24 0 34.5 8.5t10.5 30.5q0 25 -31 25h-18q-20 0 -20 18q0 8 8 32l21 60q-125 27 -125 166q0 78 27 158.5t81 131.5q65 59 186 59q70 0 112 -13
q16 -5 16 -21q0 -23 -15 -57q-7 -14 -21 -14q-4 0 -15.5 2.5t-14.5 2.5q-36 6 -73 6q-69 0 -108 -41q-29 -31 -44.5 -85t-15.5 -105q0 -104 101 -104q29 0 77 8q5 0 17.5 3t16.5 3q15 0 18 -16q8 -37 8 -50q0 -16 -24 -22q-61 -18 -141 -18z" />
    <glyph glyph-name="egrave" unicode="&#xe8;" horiz-adv-x="517" 
d="M157 216q-4 -21 -4 -47q0 -50 27.5 -70t84.5 -20q54 0 108 13q27 6 31 6q11 0 16 -14q10 -32 10 -47q0 -16 -22 -25q-64 -25 -173 -25q-194 0 -194 173q0 79 26 157t79 128q66 63 186 63q89 0 126 -34.5t37 -99.5q0 -64 -15 -120q-6 -24 -16 -32q-9 -6 -25 -6h-282z
M174 299h210q8 26 8 63q0 31 -17 46t-60 15q-60 0 -96 -34q-27 -27 -45 -90zM300 596l-105 119q-11 11 -11 23q0 17 22 19q28 2 62 2q21 0 37 -24l83 -116q9 -12 9 -22q0 -13 -19 -16q-9 -1 -39 -1q-24 0 -39 16z" />
    <glyph glyph-name="eacute" unicode="&#xe9;" horiz-adv-x="517" 
d="M157 216q-4 -21 -4 -47q0 -50 27.5 -70t84.5 -20q54 0 108 13q27 6 31 6q11 0 16 -14q10 -32 10 -47q0 -16 -22 -25q-64 -25 -173 -25q-194 0 -194 173q0 79 26 157t79 128q66 63 186 63q89 0 126 -34.5t37 -99.5q0 -64 -15 -120q-6 -24 -16 -32q-9 -6 -25 -6h-282z
M174 299h210q8 26 8 63q0 31 -17 46t-60 15q-60 0 -96 -34q-27 -27 -45 -90zM359 596q-19 -17 -40 -17q-13 0 -37 3q-21 4 -21 18q0 11 11 22l106 116q18 21 40 21q39 0 62 -3q20 -4 20 -18q0 -12 -11 -22z" />
    <glyph glyph-name="ecircumflex" unicode="&#xea;" horiz-adv-x="517" 
d="M157 216q-4 -21 -4 -47q0 -50 27.5 -70t84.5 -20q54 0 108 13q27 6 31 6q11 0 16 -14q10 -32 10 -47q0 -16 -22 -25q-64 -25 -173 -25q-194 0 -194 173q0 79 26 157t79 128q66 63 186 63q89 0 126 -34.5t37 -99.5q0 -64 -15 -120q-6 -24 -16 -32q-9 -6 -25 -6h-282z
M174 299h210q8 26 8 63q0 31 -17 46t-60 15q-60 0 -96 -34q-27 -27 -45 -90zM245 575q-21 0 -39 2q-16 2 -16 16q0 11 13 24l106 117q22 24 44 24h46q20 0 33 -24l61 -120q5 -9 5 -19q0 -14 -19 -18q-18 -2 -35 -2q-21 0 -33 19l-48 81l-81 -81q-19 -19 -37 -19z" />
    <glyph glyph-name="edieresis" unicode="&#xeb;" horiz-adv-x="517" 
d="M157 216q-4 -21 -4 -47q0 -50 27.5 -70t84.5 -20q54 0 108 13q27 6 31 6q11 0 16 -14q10 -32 10 -47q0 -16 -22 -25q-64 -25 -173 -25q-194 0 -194 173q0 79 26 157t79 128q66 63 186 63q89 0 126 -34.5t37 -99.5q0 -64 -15 -120q-6 -24 -16 -32q-9 -6 -25 -6h-282z
M174 299h210q8 26 8 63q0 31 -17 46t-60 15q-60 0 -96 -34q-27 -27 -45 -90zM317 674q0 -43 -19 -61q-17 -16 -46 -16q-50 0 -50 45q0 38 19 57q18 19 47 19q49 0 49 -44zM505 674q0 -42 -20 -61q-16 -16 -46 -16q-49 0 -49 45q0 37 19 57q18 19 46 19q50 0 50 -44z" />
    <glyph glyph-name="igrave" unicode="&#xec;" horiz-adv-x="260" 
d="M156 596l-105 119q-11 11 -11 23q0 17 22 19q28 2 62 2q21 0 37 -24l83 -116q9 -12 9 -22q0 -13 -19 -16q-9 -1 -39 -1q-24 0 -39 16zM142 24q-6 -26 -28 -26h-64q-20 0 -20 18q0 2 0.5 5.5t1.5 8t1 6.5l94 435q5 26 27 26h65q19 0 19 -18q0 -1 -4 -21z" />
    <glyph glyph-name="iacute" unicode="&#xed;" horiz-adv-x="260" 
d="M211 596q-19 -17 -40 -17q-13 0 -37 3q-21 4 -21 18q0 11 11 22l106 116q18 21 40 21q40 0 62 -3q20 -4 20 -18q0 -12 -11 -22zM142 24q-6 -26 -28 -26h-64q-20 0 -20 18q0 2 0.5 5.5t1.5 8t1 6.5l94 435q5 26 27 26h65q19 0 19 -18q0 -1 -4 -21z" />
    <glyph glyph-name="icircumflex" unicode="&#xee;" horiz-adv-x="260" 
d="M142 24q-6 -26 -28 -26h-64q-20 0 -20 18q0 2 0.5 5.5t1.5 8t1 6.5l94 435q5 26 27 26h65q19 0 19 -18q0 -1 -4 -21zM97 575q-21 0 -39 2q-16 2 -16 16q0 11 13 24l106 117q22 24 44 24h46q20 0 33 -24l61 -120q5 -9 5 -19q0 -14 -19 -18q-18 -2 -35 -2q-21 0 -33 19
l-48 81l-81 -81q-19 -19 -37 -19z" />
    <glyph glyph-name="idieresis" unicode="&#xef;" horiz-adv-x="260" 
d="M171 674q0 -43 -19 -61q-17 -16 -46 -16q-50 0 -50 45q0 38 19 57q18 19 47 19q49 0 49 -44zM359 674q0 -42 -20 -61q-16 -16 -46 -16q-49 0 -49 45q0 37 19 57q18 19 46 19q50 0 50 -44zM142 24q-6 -26 -28 -26h-64q-20 0 -20 18q0 2 0.5 5.5t1.5 8t1 6.5l94 435
q5 26 27 26h65q19 0 19 -18q0 -1 -4 -21z" />
    <glyph glyph-name="eth" unicode="&#xf0;" horiz-adv-x="559" 
d="M540 676l-57 -34q48 -69 48 -193q0 -264 -90 -385q-56 -76 -196 -76q-46 0 -80 6.5t-64.5 23.5t-46.5 51t-16 85q0 72 22 150t67 128q61 66 182 66q97 0 119 -41q-3 85 -36 131l-75 -44q-15 -9 -23 -9q-9 0 -16 12q-17 28 -17 37q0 11 16 20l59 35q-42 22 -110 28
q-17 2 -17 19t8 43q7 18 25 18q23 0 34 -1q96 -10 155 -51l69 41q12 7 21 7q8 0 14 -8q19 -29 19 -39q0 -12 -14 -20zM410 332q0 46 -26 62t-78 16q-67 0 -97 -40q-26 -34 -41 -98.5t-15 -106.5q0 -49 24.5 -67t77.5 -18q75 0 104 46q22 33 36.5 100.5t14.5 105.5z" />
    <glyph glyph-name="ntilde" unicode="&#xf1;" horiz-adv-x="573" 
d="M142 24q-6 -26 -27 -26h-65q-20 0 -20 17q0 8 3 20l79 371q10 45 48 61q96 42 232 42q59 0 98.5 -20.5t39.5 -69.5q0 -42 -10 -86l-66 -309q-5 -26 -27 -26h-65q-20 0 -20 17q0 6 3 21l62 286q7 33 7 49q0 44 -69 44q-53 0 -98 -18q-17 -9 -22 -12q-7 -7 -12 -28z
M234 588q-15 0 -29 2q-15 2 -15 18q0 8 8 29q38 89 99 89q23 0 67 -26q33 -20 53 -20q24 0 40 30q11 21 26 21q24 0 33 -3q12 -2 12 -15q0 -15 -11 -39q-37 -82 -95 -82q-30 0 -74 26q-32 19 -48 19q-25 0 -39 -26q-6 -11 -8 -14t-7 -6t-12 -3z" />
    <glyph glyph-name="ograve" unicode="&#xf2;" horiz-adv-x="548" 
d="M516 351q0 -64 -21 -149.5t-61 -137.5q-59 -77 -193 -77q-46 0 -79.5 6.5t-62.5 24t-43.5 51.5t-14.5 85q0 73 22.5 155t69.5 132q63 67 181 67q48 0 79.5 -5t62 -20.5t45.5 -48t15 -83.5zM403 335q0 47 -23.5 63.5t-74.5 16.5q-63 0 -94 -41q-26 -33 -41 -100.5
t-15 -109.5q0 -49 22 -67t72 -18q73 0 104 47q22 33 36 102t14 107zM290 596l-105 119q-11 11 -11 23q0 17 22 19q28 2 62 2q21 0 37 -24l83 -116q9 -12 9 -22q0 -13 -19 -16q-9 -1 -39 -1q-24 0 -39 16z" />
    <glyph glyph-name="oacute" unicode="&#xf3;" horiz-adv-x="548" 
d="M516 351q0 -64 -21 -149.5t-61 -137.5q-59 -77 -193 -77q-46 0 -79.5 6.5t-62.5 24t-43.5 51.5t-14.5 85q0 73 22.5 155t69.5 132q63 67 181 67q48 0 79.5 -5t62 -20.5t45.5 -48t15 -83.5zM403 335q0 47 -23.5 63.5t-74.5 16.5q-63 0 -94 -41q-26 -33 -41 -100.5
t-15 -109.5q0 -49 22 -67t72 -18q73 0 104 47q22 33 36 102t14 107zM352 596q-19 -17 -40 -17q-13 0 -37 3q-21 4 -21 18q0 11 11 22l106 116q18 21 40 21q39 0 62 -3q20 -4 20 -18q0 -12 -11 -22z" />
    <glyph glyph-name="ocircumflex" unicode="&#xf4;" horiz-adv-x="548" 
d="M516 351q0 -64 -21 -149.5t-61 -137.5q-59 -77 -193 -77q-46 0 -79.5 6.5t-62.5 24t-43.5 51.5t-14.5 85q0 73 22.5 155t69.5 132q63 67 181 67q48 0 79.5 -5t62 -20.5t45.5 -48t15 -83.5zM403 335q0 47 -23.5 63.5t-74.5 16.5q-63 0 -94 -41q-26 -33 -41 -100.5
t-15 -109.5q0 -49 22 -67t72 -18q73 0 104 47q22 33 36 102t14 107zM248 575q-21 0 -39 2q-16 2 -16 16q0 11 13 24l106 117q22 24 44 24h46q20 0 33 -24l61 -120q5 -9 5 -19q0 -14 -19 -18q-18 -2 -35 -2q-21 0 -33 19l-48 81l-81 -81q-19 -19 -37 -19z" />
    <glyph glyph-name="otilde" unicode="&#xf5;" horiz-adv-x="548" 
d="M516 351q0 -64 -21 -149.5t-61 -137.5q-59 -77 -193 -77q-46 0 -79.5 6.5t-62.5 24t-43.5 51.5t-14.5 85q0 73 22.5 155t69.5 132q63 67 181 67q48 0 79.5 -5t62 -20.5t45.5 -48t15 -83.5zM403 335q0 47 -23.5 63.5t-74.5 16.5q-63 0 -94 -41q-26 -33 -41 -100.5
t-15 -109.5q0 -49 22 -67t72 -18q73 0 104 47q22 33 36 102t14 107zM228 588q-15 0 -29 2q-15 2 -15 18q0 8 8 29q38 89 99 89q23 0 67 -26q33 -20 53 -20q24 0 40 30q11 21 26 21q24 0 33 -3q12 -2 12 -15q0 -15 -11 -39q-37 -82 -95 -82q-30 0 -74 26q-32 19 -48 19
q-25 0 -39 -26q-6 -11 -8 -14t-7 -6t-12 -3z" />
    <glyph glyph-name="odieresis" unicode="&#xf6;" horiz-adv-x="548" 
d="M516 351q0 -64 -21 -149.5t-61 -137.5q-59 -77 -193 -77q-46 0 -79.5 6.5t-62.5 24t-43.5 51.5t-14.5 85q0 73 22.5 155t69.5 132q63 67 181 67q48 0 79.5 -5t62 -20.5t45.5 -48t15 -83.5zM403 335q0 47 -23.5 63.5t-74.5 16.5q-63 0 -94 -41q-26 -33 -41 -100.5
t-15 -109.5q0 -49 22 -67t72 -18q73 0 104 47q22 33 36 102t14 107zM326 674q0 -43 -19 -61q-17 -16 -46 -16q-50 0 -50 45q0 38 19 57q18 19 47 19q49 0 49 -44zM514 674q0 -42 -20 -61q-16 -16 -46 -16q-49 0 -49 45q0 37 19 57q18 19 46 19q50 0 50 -44z" />
    <glyph glyph-name="divide" unicode="&#xf7;" horiz-adv-x="701" 
d="M458 480q0 -31 -15.5 -51t-46.5 -20q-46 0 -46 45q0 68 59 68q20 0 34.5 -10.5t14.5 -31.5zM600 256h-469q-22 0 -22 23q0 9 5 32q5 25 27 25h469q24 0 24 -21q0 -11 -5 -36q-6 -23 -29 -23zM387 133q0 -29 -16 -49t-46 -20q-47 0 -47 45q0 31 15.5 49t44.5 18
q20 0 34.5 -10.5t14.5 -32.5z" />
    <glyph glyph-name="oslash" unicode="&#xf8;" horiz-adv-x="548" 
d="M73 -28q-8 -8 -14 -8q-8 0 -30 20q-6 6 -6 11q0 6 7 13l36 42q-25 39 -25 104q0 74 22.5 156t69.5 132q63 67 181 67q84 0 128 -19l39 45q6 7 14 7q5 0 13 -6q22 -19 22 -24q0 -7 -6 -13l-37 -43q29 -39 29 -104q0 -64 -21.5 -150t-60.5 -138q-59 -77 -193 -77
q-88 0 -134 25zM249 78q73 0 106 49q21 33 36 102t15 106q0 10 -2 24l-227 -265q21 -16 72 -16zM151 163v-13l220 256q-23 11 -64 11q-67 0 -99 -43q-27 -34 -42 -101.5t-15 -109.5z" />
    <glyph glyph-name="ugrave" unicode="&#xf9;" horiz-adv-x="573" 
d="M468 86q-10 -46 -48 -61q-94 -38 -229 -38q-140 0 -140 94q0 37 10 84l66 306q5 26 26 26h65q20 0 20 -17q0 -6 -3 -21l-62 -285q-6 -28 -6 -49q0 -45 71 -45q56 0 94 14q14 6 23 15t12 26l72 336q5 26 27 26h64q20 0 20 -17q0 -5 -3 -20zM314 598l-105 119
q-11 11 -11 23q0 17 22 19q28 2 62 2q21 0 37 -24l83 -116q9 -12 9 -22q0 -13 -19 -16q-9 -1 -39 -1q-24 0 -39 16z" />
    <glyph glyph-name="uacute" unicode="&#xfa;" horiz-adv-x="573" 
d="M468 86q-10 -46 -48 -61q-94 -38 -229 -38q-140 0 -140 94q0 37 10 84l66 306q5 26 26 26h65q20 0 20 -17q0 -6 -3 -21l-62 -285q-6 -28 -6 -49q0 -45 71 -45q56 0 94 14q14 6 23 15t12 26l72 336q5 26 27 26h64q20 0 20 -17q0 -5 -3 -20zM378 596q-19 -17 -40 -17
q-13 0 -37 3q-21 4 -21 18q0 11 11 22l106 116q18 21 40 21q40 0 62 -3q20 -4 20 -18q0 -12 -11 -22z" />
    <glyph glyph-name="ucircumflex" unicode="&#xfb;" horiz-adv-x="573" 
d="M468 86q-10 -46 -48 -61q-94 -38 -229 -38q-140 0 -140 94q0 37 10 84l66 306q5 26 26 26h65q20 0 20 -17q0 -6 -3 -21l-62 -285q-6 -28 -6 -49q0 -45 71 -45q56 0 94 14q14 6 23 15t12 26l72 336q5 26 27 26h64q20 0 20 -17q0 -5 -3 -20zM256 575q-21 0 -39 2
q-16 2 -16 16q0 11 13 24l106 117q22 24 44 24h46q20 0 33 -24l61 -120q5 -9 5 -19q0 -14 -19 -18q-18 -2 -35 -2q-21 0 -33 19l-48 81l-81 -81q-19 -19 -37 -19z" />
    <glyph glyph-name="udieresis" unicode="&#xfc;" horiz-adv-x="573" 
d="M468 86q-10 -46 -48 -61q-94 -38 -229 -38q-140 0 -140 94q0 37 10 84l66 306q5 26 26 26h65q20 0 20 -17q0 -6 -3 -21l-62 -285q-6 -28 -6 -49q0 -45 71 -45q56 0 94 14q14 6 23 15t12 26l72 336q5 26 27 26h64q20 0 20 -17q0 -5 -3 -20zM330 674q0 -43 -19 -61
q-17 -16 -46 -16q-50 0 -50 45q0 38 19 57q18 19 47 19q49 0 49 -44zM518 674q0 -42 -20 -61q-16 -16 -46 -16q-49 0 -49 45q0 37 19 57q18 19 46 19q50 0 50 -44z" />
    <glyph glyph-name="yacute" unicode="&#xfd;" horiz-adv-x="573" 
d="M340 17q-63 -30 -150 -30q-140 0 -140 95q0 32 10 82l67 308q5 25 27 25h65q19 0 19 -17q0 -6 -3 -21l-61 -285q-7 -28 -7 -52q0 -42 71 -42q56 0 95 15q15 5 23 14q8 12 12 31l71 331q5 26 29 26h62q20 0 20 -17q0 -9 -2 -17l-92 -434q-18 -84 -38 -124
q-38 -76 -121 -107.5t-234 -31.5q-29 0 -29 24t3 39q5 32 28 32q119 1 172 18.5t74 51.5q17 28 25 67zM380 596q-19 -17 -40 -17q-13 0 -37 3q-21 4 -21 18q0 11 11 22l106 116q18 21 40 21q39 0 62 -3q20 -4 20 -18q0 -12 -11 -22z" />
    <glyph glyph-name="thorn" unicode="&#xfe;" horiz-adv-x="574" 
d="M142 14l-50 -231q-4 -15 -10.5 -21t-19.5 -6h-60q-21 0 -21 19q0 2 3 17l197 926q3 17 9.5 23.5t21.5 6.5h57q14 0 19 -4t5 -15q0 -1 -4 -21l-54 -252q53 50 154 50q149 0 149 -144q0 -62 -19 -140.5t-54 -131.5q-36 -55 -87.5 -75t-134.5 -20q-75 0 -101 19zM159 101
q28 -17 83 -17q50 0 80 12t49 41q23 34 37.5 93t14.5 103q0 41 -21 60t-70 19q-55 0 -94 -21q-13 -7 -16 -14q-5 -8 -8 -21z" />
    <glyph glyph-name="ydieresis" unicode="&#xff;" horiz-adv-x="573" 
d="M340 17q-63 -30 -150 -30q-140 0 -140 95q0 32 10 82l67 308q5 25 27 25h65q19 0 19 -17q0 -6 -3 -21l-61 -285q-7 -28 -7 -52q0 -42 71 -42q56 0 95 15q15 5 23 14q8 12 12 31l71 331q5 26 29 26h62q20 0 20 -17q0 -9 -2 -17l-92 -434q-18 -84 -38 -124
q-38 -76 -121 -107.5t-234 -31.5q-29 0 -29 24t3 39q5 32 28 32q119 1 172 18.5t74 51.5q17 28 25 67zM328 674q0 -43 -19 -61q-17 -16 -46 -16q-50 0 -50 45q0 38 19 57q18 19 47 19q49 0 49 -44zM516 674q0 -42 -20 -61q-16 -16 -46 -16q-49 0 -49 45q0 37 19 57
q18 19 46 19q50 0 50 -44z" />
    <glyph glyph-name="Amacron" unicode="&#x100;" horiz-adv-x="625" 
d="M186 198l-93 -171q-10 -18 -16.5 -24t-18.5 -6q-68 0 -82 3q-11 3 -11 16q0 9 12 33l327 587q24 44 42.5 59t58.5 15h26q37 0 51.5 -16.5t19.5 -55.5l72 -584q2 -18 2 -29q0 -17 -16 -24q-12 -4 -74 -4q-13 0 -19 7t-8 24l-21 170h-252zM235 295h198q-25 226 -31 315
q-38 -76 -167 -315zM550 782h-257q-21 0 -21 18q0 9 9 45q6 24 31 24h255q22 0 22 -17q0 -10 -9 -48q-6 -22 -30 -22z" />
    <glyph glyph-name="amacron" unicode="&#x101;" horiz-adv-x="537" 
d="M432 89q-8 -35 -22 -52q-11 -14 -38 -24q-72 -26 -182 -26q-161 0 -161 125q0 116 83 161q50 28 160 28q36 0 93 -5l5 24q6 28 6 47q0 45 -80 45q-60 0 -102 -9q-30 -7 -39 -7q-13 0 -17 17q-8 30 -8 45q0 19 26 28q70 22 163 22q30 0 52 -1.5t46.5 -8t39.5 -17t25 -29.5
t10 -46q0 -36 -11 -88zM350 217q-28 4 -79 4q-69 0 -99 -17q-36 -21 -36 -70q0 -62 78 -62q53 0 86 14q11 4 20 18q7 14 12 37zM448 600h-224q-22 0 -22 19q0 16 9 46q6 23 30 23h223q23 0 23 -18q0 -12 -10 -47q-5 -23 -29 -23z" />
    <glyph glyph-name="Abreve" unicode="&#x102;" horiz-adv-x="625" 
d="M186 198l-93 -171q-10 -18 -16.5 -24t-18.5 -6q-68 0 -82 3q-11 3 -11 16q0 9 12 33l327 587q24 44 42.5 59t58.5 15h26q37 0 51.5 -16.5t19.5 -55.5l72 -584q2 -18 2 -29q0 -17 -16 -24q-12 -4 -74 -4q-13 0 -19 7t-8 24l-21 170h-252zM235 295h198q-25 226 -31 315
q-38 -76 -167 -315zM548 915q22 0 29 -2q14 -4 14 -19q0 -18 -11 -45q-39 -94 -162 -94q-59 0 -99.5 29t-40.5 82q0 19 3 31q5 15 25 17q6 1 23 1q25 0 26 -19q2 -19 6 -30q14 -31 66 -31q40 0 59 15t31 45q5 12 11 16t20 4z" />
    <glyph glyph-name="abreve" unicode="&#x103;" horiz-adv-x="537" 
d="M432 89q-8 -35 -22 -52q-11 -14 -38 -24q-72 -26 -182 -26q-161 0 -161 125q0 116 83 161q50 28 160 28q36 0 93 -5l5 24q6 28 6 47q0 45 -80 45q-60 0 -102 -9q-30 -7 -39 -7q-13 0 -17 17q-8 30 -8 45q0 19 26 28q70 22 163 22q30 0 52 -1.5t46.5 -8t39.5 -17t25 -29.5
t10 -46q0 -36 -11 -88zM350 217q-28 4 -79 4q-69 0 -99 -17q-36 -21 -36 -70q0 -62 78 -62q53 0 86 14q11 4 20 18q7 14 12 37zM456 738q18 0 30 -3q12 -2 12 -19q0 -15 -11 -44q-20 -48 -56 -74t-101 -26q-64 0 -97 29.5t-33 74.5q0 22 3 36q6 21 18 23q12 3 27 3
q24 0 24 -20q0 -23 2 -30q9 -37 65 -37q38 0 56 16.5t32 48.5q8 22 29 22z" />
    <glyph glyph-name="Aogonek" unicode="&#x104;" horiz-adv-x="625" 
d="M569 7q-27 -16 -44 -27.5t-38.5 -30.5t-32 -40.5t-10.5 -44.5q0 -20 12 -31t34 -11q10 0 25.5 0.5t17.5 0.5q9 0 13.5 -3.5t6.5 -14.5q3 -14 3 -29q-1 -12 -6 -16.5t-19 -8.5q-21 -5 -67 -5q-110 0 -110 91q0 57 31.5 95t88.5 67q-12 4 -15 29l-21 170h-252l-93 -171
q-10 -18 -16.5 -24t-18.5 -6q-68 0 -82 3q-11 3 -11 16q0 9 12 33l327 587q24 44 42.5 59t58.5 15h26q37 0 51.5 -16.5t19.5 -55.5l72 -584q2 -18 2 -29q0 -12 -7 -18zM235 295h198q-25 226 -31 315q-38 -76 -167 -315z" />
    <glyph glyph-name="aogonek" unicode="&#x105;" horiz-adv-x="537" 
d="M432 89q-8 -34 -22 -51q-10 -13 -34 -23q-112 -72 -112 -146q0 -38 43 -38q9 0 23.5 0.5t16.5 0.5q17 0 21 -18q4 -16 4 -27q-1 -11 -6 -16t-19 -8q-24 -5 -65 -5q-106 0 -106 87q0 94 96 148q-25 -6 -82 -6q-161 0 -161 125q0 116 83 161q50 28 160 28q36 0 93 -5l5 24
q6 28 6 47q0 45 -80 45q-60 0 -102 -9q-30 -7 -39 -7q-13 0 -17 17q-8 30 -8 45q0 19 26 28q70 22 163 22q30 0 52 -1.5t46.5 -8t39.5 -17t25 -29.5t10 -46q0 -36 -11 -88zM350 217q-28 4 -79 4q-69 0 -99 -17q-36 -21 -36 -70q0 -62 78 -62q53 0 86 14q11 4 20 18
q7 14 12 37z" />
    <glyph glyph-name="Cacute" unicode="&#x106;" horiz-adv-x="578" 
d="M186 247q0 -163 149 -163q49 0 118 12q30 6 41 6q16 0 19 -17q8 -36 8 -52q0 -15 -26 -23q-82 -23 -198 -23q-231 0 -231 242q0 113 39 233.5t116 186.5q82 70 233 70q82 0 139 -12q24 -6 24 -26q0 -27 -15 -59q-5 -12 -19 -12q-1 0 -36 5q-39 7 -103 7q-100 0 -154 -56
q-49 -50 -76.5 -143t-27.5 -176zM460 772q-21 -14 -45 -14q-34 0 -44 2q-19 2 -19 16q0 13 14 23l128 97q27 20 47 20q40 0 70 -2q26 -3 26 -18t-15 -24z" />
    <glyph glyph-name="cacute" unicode="&#x107;" horiz-adv-x="457" 
d="M156 183q0 -104 101 -104q29 0 77 8q5 0 17.5 3t16.5 3q15 0 18 -16q8 -37 8 -50q0 -16 -24 -22q-58 -18 -144 -18q-87 0 -136 43t-49 129q0 78 27 158.5t81 131.5q65 59 186 59q70 0 112 -13q16 -5 16 -21q0 -23 -15 -57q-7 -14 -21 -14q-4 0 -15.5 2.5t-14.5 2.5
q-36 6 -73 6q-69 0 -108 -41q-29 -31 -44.5 -85t-15.5 -105zM363 596q-19 -17 -40 -17q-13 0 -37 3q-21 4 -21 18q0 11 11 22l106 116q18 21 40 21q40 0 62 -3q20 -4 20 -18q0 -12 -11 -22z" />
    <glyph glyph-name="Ccircumflex" unicode="&#x108;" horiz-adv-x="578" 
d="M186 247q0 -163 149 -163q49 0 118 12q30 6 41 6q16 0 19 -17q8 -36 8 -52q0 -15 -26 -23q-82 -23 -198 -23q-231 0 -231 242q0 113 39 233.5t116 186.5q82 70 233 70q82 0 139 -12q24 -6 24 -26q0 -27 -15 -59q-5 -12 -19 -12q-1 0 -36 5q-39 7 -103 7q-100 0 -154 -56
q-49 -50 -76.5 -143t-27.5 -176zM339 758q-30 0 -45 3q-16 4 -16 16q0 10 13 21l116 101q29 25 51 25h42q24 0 39 -22l79 -102q8 -11 8 -19q0 -14 -20 -19q-12 -3 -39 -3q-21 0 -38 19l-62 63l-84 -64q-25 -19 -44 -19z" />
    <glyph glyph-name="ccircumflex" unicode="&#x109;" horiz-adv-x="457" 
d="M156 183q0 -104 101 -104q29 0 77 8q5 0 17.5 3t16.5 3q15 0 18 -16q8 -37 8 -50q0 -16 -24 -22q-58 -18 -144 -18q-87 0 -136 43t-49 129q0 78 27 158.5t81 131.5q65 59 186 59q70 0 112 -13q16 -5 16 -21q0 -23 -15 -57q-7 -14 -21 -14q-4 0 -15.5 2.5t-14.5 2.5
q-36 6 -73 6q-69 0 -108 -41q-29 -31 -44.5 -85t-15.5 -105zM232 575q-21 0 -39 2q-16 2 -16 16q0 11 13 24l106 117q22 24 44 24h46q20 0 33 -24l61 -120q5 -9 5 -19q0 -14 -19 -18q-18 -2 -35 -2q-21 0 -33 19l-48 81l-81 -81q-19 -19 -37 -19z" />
    <glyph glyph-name="Cdotaccent" unicode="&#x10a;" horiz-adv-x="578" 
d="M186 247q0 -163 149 -163q49 0 118 12q30 6 41 6q16 0 19 -17q8 -36 8 -52q0 -15 -26 -23q-82 -23 -198 -23q-231 0 -231 242q0 113 39 233.5t116 186.5q82 70 233 70q82 0 139 -12q24 -6 24 -26q0 -27 -15 -59q-5 -12 -19 -12q-1 0 -36 5q-39 7 -103 7q-100 0 -154 -56
q-49 -50 -76.5 -143t-27.5 -176zM495 842q0 -41 -20 -60q-17 -17 -45 -17q-50 0 -50 45q0 38 20 58q18 19 45 19q50 0 50 -45z" />
    <glyph glyph-name="cdotaccent" unicode="&#x10b;" horiz-adv-x="457" 
d="M156 183q0 -104 101 -104q29 0 77 8q5 0 17.5 3t16.5 3q15 0 18 -16q8 -37 8 -50q0 -16 -24 -22q-58 -18 -144 -18q-87 0 -136 43t-49 129q0 78 27 158.5t81 131.5q65 59 186 59q70 0 112 -13q16 -5 16 -21q0 -23 -15 -57q-7 -14 -21 -14q-4 0 -15.5 2.5t-14.5 2.5
q-36 6 -73 6q-69 0 -108 -41q-29 -31 -44.5 -85t-15.5 -105zM393 674q0 -40 -20 -60q-16 -17 -45 -17q-50 0 -50 45q0 35 20 57q16 19 45 19q50 0 50 -44z" />
    <glyph glyph-name="Ccaron" unicode="&#x10c;" horiz-adv-x="578" 
d="M186 247q0 -163 149 -163q49 0 118 12q30 6 41 6q16 0 19 -17q8 -36 8 -52q0 -15 -26 -23q-82 -23 -198 -23q-231 0 -231 242q0 113 39 233.5t116 186.5q82 70 233 70q82 0 139 -12q24 -6 24 -26q0 -27 -15 -59q-5 -12 -19 -12q-1 0 -36 5q-39 7 -103 7q-100 0 -154 -56
q-49 -50 -76.5 -143t-27.5 -176zM558 926q30 0 45 -3q16 -2 16 -16q0 -11 -13 -21l-116 -101q-28 -24 -51 -24h-41q-23 0 -39 21l-80 102q-8 9 -8 19q0 15 21 19q24 3 38 3q19 0 38 -19l61 -63l86 64q25 19 43 19z" />
    <glyph glyph-name="ccaron" unicode="&#x10d;" horiz-adv-x="457" 
d="M156 183q0 -104 101 -104q29 0 77 8q5 0 17.5 3t16.5 3q15 0 18 -16q8 -37 8 -50q0 -16 -24 -22q-58 -18 -144 -18q-87 0 -136 43t-49 129q0 78 27 158.5t81 131.5q65 59 186 59q70 0 112 -13q16 -5 16 -21q0 -23 -15 -57q-7 -14 -21 -14q-4 0 -15.5 2.5t-14.5 2.5
q-36 6 -73 6q-69 0 -108 -41q-29 -31 -44.5 -85t-15.5 -105zM434 762q21 0 39 -2q17 -2 17 -16q0 -11 -13 -24l-106 -116q-23 -25 -41 -25h-50q-20 0 -32 25l-60 117q-6 10 -6 21q0 14 18 18q18 2 36 2q20 0 32 -19l48 -79l82 80q18 18 36 18z" />
    <glyph glyph-name="Dcaron" unicode="&#x10e;" horiz-adv-x="688" 
d="M229 0h-77q-46 0 -67.5 17t-21.5 53q0 21 5 44l103 485q12 57 40 82t83 25h73q107 0 176 -23q62 -21 96 -76t34 -133q0 -73 -12 -138.5t-39 -128.5t-77 -111t-120 -71q-74 -25 -196 -25zM191 156q-4 -20 -4 -28q0 -27 31 -27h56q65 0 124 22q81 32 119 129t38 206
q0 94 -63 125q-42 22 -124 22h-47q-32 0 -40 -38zM544 926q30 0 45 -3q16 -2 16 -16q0 -11 -13 -21l-116 -101q-28 -24 -51 -24h-41q-23 0 -39 21l-80 102q-8 9 -8 19q0 15 21 19q24 3 38 3q19 0 38 -19l61 -63l86 64q25 19 43 19z" />
    <glyph glyph-name="dcaron" unicode="&#x10f;" horiz-adv-x="564" 
d="M457 81q-4 -24 -14 -38q-11 -18 -41 -29q-68 -27 -177 -27q-89 0 -136.5 42t-47.5 124t27 163t81 132q64 60 190 60q62 0 95 -14l46 224q7 30 30 30h61q21 0 21 -19q0 -11 -1 -17zM356 133l52 240q2 7 2 16q0 13 -10 17q-24 11 -70 11q-65 0 -102 -34q-34 -31 -54 -89.5
t-20 -121.5q0 -94 90 -94q51 0 82 12q15 6 20 16q8 16 10 27zM707 748h32q27 0 27 -28q0 -20 -8 -47q-20 -64 -82 -128q-15 -17 -32 -17q-13 0 -24 7q-13 8 -13 21q0 10 11 26q39 53 50 128q7 38 39 38z" />
    <glyph glyph-name="Dcroat" unicode="&#x110;" horiz-adv-x="688" 
d="M229 0h-77q-46 0 -67.5 17t-21.5 53q0 21 5 44l44 207h-67q-20 0 -20 18q0 11 7 49q5 22 26 22h73l40 189q12 57 40 82t83 25h73q107 0 176 -23q62 -21 96 -76t34 -133q0 -73 -12 -138.5t-39 -128.5t-77 -111t-120 -71q-74 -25 -196 -25zM191 156q-4 -20 -4 -28
q0 -27 31 -27h56q65 0 124 22q81 32 119 129t38 206q0 94 -63 125q-42 22 -124 22h-47q-32 0 -40 -38l-35 -157h127q21 0 21 -18q0 -7 -9 -52q-2 -12 -7.5 -15.5t-17.5 -3.5h-133z" />
    <glyph glyph-name="dcroat" unicode="&#x111;" horiz-adv-x="564" 
d="M457 81q-4 -24 -14 -38q-11 -18 -41 -29q-68 -27 -177 -27q-89 0 -136.5 42t-47.5 124t27 163t81 132q64 60 190 60q62 0 95 -14l17 84h-95q-19 0 -19 17q0 12 7 41q7 22 27 22h96l13 60q7 30 30 30h61q21 0 21 -19q0 -11 -1 -17l-12 -54h39q19 0 19 -18q0 -11 -7 -43
q-5 -19 -27 -19h-41zM356 133l52 240q2 7 2 16q0 13 -10 17q-24 11 -70 11q-65 0 -102 -34q-34 -31 -54 -89.5t-20 -121.5q0 -94 90 -94q51 0 82 12q15 6 20 16q8 16 10 27z" />
    <glyph glyph-name="Emacron" unicode="&#x112;" horiz-adv-x="548" 
d="M459 0h-307q-46 0 -67.5 17t-21.5 53q0 21 5 44l104 486q12 56 40 81t83 25h277q25 0 25 -19q0 -17 -12 -63q-5 -19 -30 -19h-234q-32 0 -40 -38l-34 -151h242q22 0 22 -17q0 -11 -13 -64q-5 -19 -27 -19h-245l-35 -158q-4 -16 -4 -30q0 -27 31 -27h258q24 0 24 -17
q0 -20 -12 -65q-4 -19 -29 -19zM539 782h-257q-21 0 -21 18q0 9 9 45q6 24 31 24h255q22 0 22 -17q0 -10 -9 -48q-6 -22 -30 -22z" />
    <glyph glyph-name="emacron" unicode="&#x113;" horiz-adv-x="517" 
d="M157 216q-4 -21 -4 -47q0 -50 27.5 -70t84.5 -20q54 0 108 13q27 6 31 6q11 0 16 -14q10 -32 10 -47q0 -16 -22 -25q-64 -25 -173 -25q-194 0 -194 173q0 79 26 157t79 128q66 63 186 63q89 0 126 -34.5t37 -99.5q0 -64 -15 -120q-6 -24 -16 -32q-9 -6 -25 -6h-282z
M174 299h210q8 26 8 63q0 31 -17 46t-60 15q-60 0 -96 -34q-27 -27 -45 -90zM451 600h-224q-22 0 -22 19q0 16 9 46q6 23 30 23h223q23 0 23 -18q0 -12 -10 -47q-5 -23 -29 -23z" />
    <glyph glyph-name="Ebreve" unicode="&#x114;" horiz-adv-x="548" 
d="M459 0h-307q-46 0 -67.5 17t-21.5 53q0 21 5 44l104 486q12 56 40 81t83 25h277q25 0 25 -19q0 -17 -12 -63q-5 -19 -30 -19h-234q-32 0 -40 -38l-34 -151h242q22 0 22 -17q0 -11 -13 -64q-5 -19 -27 -19h-245l-35 -158q-4 -16 -4 -30q0 -27 31 -27h258q24 0 24 -17
q0 -20 -12 -65q-4 -19 -29 -19zM527 915q22 0 29 -2q14 -4 14 -19q0 -18 -11 -45q-39 -94 -162 -94q-59 0 -99.5 29t-40.5 82q0 19 3 31q5 15 25 17q6 1 23 1q25 0 26 -19q2 -19 6 -30q14 -31 66 -31q40 0 59 15t31 45q5 12 11 16t20 4z" />
    <glyph glyph-name="ebreve" unicode="&#x115;" horiz-adv-x="517" 
d="M157 216q-4 -21 -4 -47q0 -50 27.5 -70t84.5 -20q54 0 108 13q27 6 31 6q11 0 16 -14q10 -32 10 -47q0 -16 -22 -25q-64 -25 -173 -25q-194 0 -194 173q0 79 26 157t79 128q66 63 186 63q89 0 126 -34.5t37 -99.5q0 -64 -15 -120q-6 -24 -16 -32q-9 -6 -25 -6h-282z
M174 299h210q8 26 8 63q0 31 -17 46t-60 15q-60 0 -96 -34q-27 -27 -45 -90zM456 738q18 0 30 -3q12 -2 12 -19q0 -15 -11 -44q-20 -48 -56 -74t-101 -26q-64 0 -97 29.5t-33 74.5q0 22 3 36q6 21 18 23q12 3 27 3q24 0 24 -20q0 -23 2 -30q9 -37 65 -37q38 0 56 16.5
t32 48.5q8 22 29 22z" />
    <glyph glyph-name="Edotaccent" unicode="&#x116;" horiz-adv-x="548" 
d="M459 0h-307q-46 0 -67.5 17t-21.5 53q0 21 5 44l104 486q12 56 40 81t83 25h277q25 0 25 -19q0 -17 -12 -63q-5 -19 -30 -19h-234q-32 0 -40 -38l-34 -151h242q22 0 22 -17q0 -11 -13 -64q-5 -19 -27 -19h-245l-35 -158q-4 -16 -4 -30q0 -27 31 -27h258q24 0 24 -17
q0 -20 -12 -65q-4 -19 -29 -19zM465 842q0 -41 -20 -60q-17 -17 -45 -17q-50 0 -50 45q0 38 20 58q18 19 45 19q50 0 50 -45z" />
    <glyph glyph-name="edotaccent" unicode="&#x117;" horiz-adv-x="517" 
d="M157 216q-4 -21 -4 -47q0 -50 27.5 -70t84.5 -20q54 0 108 13q27 6 31 6q11 0 16 -14q10 -32 10 -47q0 -16 -22 -25q-64 -25 -173 -25q-194 0 -194 173q0 79 26 157t79 128q66 63 186 63q89 0 126 -34.5t37 -99.5q0 -64 -15 -120q-6 -24 -16 -32q-9 -6 -25 -6h-282z
M174 299h210q8 26 8 63q0 31 -17 46t-60 15q-60 0 -96 -34q-27 -27 -45 -90zM399 674q0 -40 -20 -60q-16 -17 -45 -17q-50 0 -50 45q0 35 20 57q16 19 45 19q50 0 50 -44z" />
    <glyph glyph-name="Eogonek" unicode="&#x118;" horiz-adv-x="548" 
d="M459 0h-10q-51 -31 -82 -62.5t-31 -73.5q0 -20 12 -31t34 -11q10 0 25.5 0.5t17.5 0.5q9 0 13.5 -3.5t6.5 -14.5q3 -14 3 -29q-1 -12 -6 -16.5t-19 -8.5q-21 -5 -67 -5q-110 0 -110 91q0 58 32 96t91 67h-217q-46 0 -67.5 17t-21.5 53q0 21 5 44l104 486q12 56 40 81
t83 25h277q25 0 25 -19q0 -17 -12 -63q-5 -19 -30 -19h-234q-32 0 -40 -38l-34 -151h242q22 0 22 -17q0 -11 -13 -64q-5 -19 -27 -19h-245l-35 -158q-4 -16 -4 -30q0 -27 31 -27h258q24 0 24 -17q0 -20 -12 -65q-4 -19 -29 -19z" />
    <glyph glyph-name="eogonek" unicode="&#x119;" horiz-adv-x="517" 
d="M157 216q-4 -21 -4 -47q0 -50 27.5 -70t84.5 -20q54 0 108 13q27 6 31 6q11 0 16 -14q10 -32 10 -47q0 -16 -22 -25q-20 -8 -40 -12q-32 -20 -52 -35.5t-38.5 -42t-18.5 -53.5q0 -38 43 -38q9 0 23.5 0.5t16.5 0.5q17 0 21 -18q4 -16 4 -27q-1 -11 -6 -16t-19 -8
q-24 -5 -65 -5q-106 0 -106 86q0 89 96 144q-11 -1 -32 -1q-194 0 -194 173q0 79 26 157t79 128q66 63 186 63q89 0 126 -34.5t37 -99.5q0 -64 -15 -120q-6 -24 -16 -32q-9 -6 -25 -6h-282zM174 299h210q8 26 8 63q0 31 -17 46t-60 15q-60 0 -96 -34q-27 -27 -45 -90z" />
    <glyph glyph-name="Ecaron" unicode="&#x11a;" horiz-adv-x="548" 
d="M459 0h-307q-46 0 -67.5 17t-21.5 53q0 21 5 44l104 486q12 56 40 81t83 25h277q25 0 25 -19q0 -17 -12 -63q-5 -19 -30 -19h-234q-32 0 -40 -38l-34 -151h242q22 0 22 -17q0 -11 -13 -64q-5 -19 -27 -19h-245l-35 -158q-4 -16 -4 -30q0 -27 31 -27h258q24 0 24 -17
q0 -20 -12 -65q-4 -19 -29 -19zM533 926q30 0 45 -3q16 -2 16 -16q0 -11 -13 -21l-116 -101q-28 -24 -51 -24h-41q-23 0 -39 21l-80 102q-8 9 -8 19q0 15 21 19q24 3 38 3q19 0 38 -19l61 -63l86 64q25 19 43 19z" />
    <glyph glyph-name="ecaron" unicode="&#x11b;" horiz-adv-x="517" 
d="M157 216q-4 -21 -4 -47q0 -50 27.5 -70t84.5 -20q54 0 108 13q27 6 31 6q11 0 16 -14q10 -32 10 -47q0 -16 -22 -25q-64 -25 -173 -25q-194 0 -194 173q0 79 26 157t79 128q66 63 186 63q89 0 126 -34.5t37 -99.5q0 -64 -15 -120q-6 -24 -16 -32q-9 -6 -25 -6h-282z
M174 299h210q8 26 8 63q0 31 -17 46t-60 15q-60 0 -96 -34q-27 -27 -45 -90zM450 762q21 0 39 -2q17 -2 17 -16q0 -11 -13 -24l-106 -116q-23 -25 -41 -25h-50q-20 0 -32 25l-60 117q-6 10 -6 21q0 14 18 18q18 2 36 2q20 0 32 -19l48 -79l82 80q18 18 36 18z" />
    <glyph glyph-name="Gcircumflex" unicode="&#x11c;" horiz-adv-x="656" 
d="M563 72q-7 -27 -15 -36t-30 -18q-77 -31 -215 -31q-114 0 -175.5 58t-61.5 173q0 119 38 240.5t115 187.5q46 39 103 56t142 17q92 0 151 -18q22 -6 22 -24q0 -23 -17 -59q-5 -13 -20 -13t-32 4q-56 13 -123 13q-105 0 -163 -63q-47 -50 -71.5 -140t-24.5 -172
q0 -163 151 -163q64 0 110 13q22 6 27 29l34 153h-130q-19 0 -19 15q0 14 13 67q5 19 24 19h206q22 0 22 -18q0 -5 -3 -20zM340 758q-30 0 -45 3q-16 4 -16 16q0 10 13 21l116 101q29 25 51 25h42q24 0 39 -22l79 -102q8 -11 8 -19q0 -14 -20 -19q-12 -3 -39 -3
q-21 0 -38 19l-62 63l-84 -64q-25 -19 -44 -19z" />
    <glyph glyph-name="gcircumflex" unicode="&#x11d;" horiz-adv-x="559" 
d="M328 10q-39 -22 -116 -22q-171 0 -171 172q0 76 26.5 156.5t77.5 128.5q68 63 194 63q106 0 169 -23q25 -9 25 -28q0 -6 -4 -30l-81 -387q-17 -84 -42 -135q-36 -75 -116.5 -107t-224.5 -32q-31 0 -31 23q0 26 2 46q2 13 9 18t24 6q109 3 154.5 17.5t69.5 43.5
q19 24 31 71zM357 132l52 243q2 12 2 14q0 13 -13 18q-28 10 -71 10q-72 0 -109 -41q-28 -32 -46 -89t-18 -112q0 -95 90 -95q53 0 85 14q15 7 20 17q4 6 8 21zM256 575q-21 0 -39 2q-16 2 -16 16q0 11 13 24l106 117q22 24 44 24h46q20 0 33 -24l61 -120q5 -9 5 -19
q0 -14 -19 -18q-18 -2 -35 -2q-21 0 -33 19l-48 81l-81 -81q-19 -19 -37 -19z" />
    <glyph glyph-name="Gbreve" unicode="&#x11e;" horiz-adv-x="656" 
d="M563 72q-7 -27 -15 -36t-30 -18q-77 -31 -215 -31q-114 0 -175.5 58t-61.5 173q0 119 38 240.5t115 187.5q46 39 103 56t142 17q92 0 151 -18q22 -6 22 -24q0 -23 -17 -59q-5 -13 -20 -13t-32 4q-56 13 -123 13q-105 0 -163 -63q-47 -50 -71.5 -140t-24.5 -172
q0 -163 151 -163q64 0 110 13q22 6 27 29l34 153h-130q-19 0 -19 15q0 14 13 67q5 19 24 19h206q22 0 22 -18q0 -5 -3 -20zM574 915q22 0 29 -2q14 -4 14 -19q0 -18 -11 -45q-39 -94 -162 -94q-59 0 -99.5 29t-40.5 82q0 19 3 31q5 15 25 17q6 1 23 1q25 0 26 -19
q2 -19 6 -30q14 -31 66 -31q40 0 59 15t31 45q5 12 11 16t20 4z" />
    <glyph glyph-name="gbreve" unicode="&#x11f;" horiz-adv-x="559" 
d="M328 10q-39 -22 -116 -22q-171 0 -171 172q0 76 26.5 156.5t77.5 128.5q68 63 194 63q106 0 169 -23q25 -9 25 -28q0 -6 -4 -30l-81 -387q-17 -84 -42 -135q-36 -75 -116.5 -107t-224.5 -32q-31 0 -31 23q0 26 2 46q2 13 9 18t24 6q109 3 154.5 17.5t69.5 43.5
q19 24 31 71zM357 132l52 243q2 12 2 14q0 13 -13 18q-28 10 -71 10q-72 0 -109 -41q-28 -32 -46 -89t-18 -112q0 -95 90 -95q53 0 85 14q15 7 20 17q4 6 8 21zM476 738q18 0 30 -3q12 -2 12 -19q0 -15 -11 -44q-20 -48 -56 -74t-101 -26q-64 0 -97 29.5t-33 74.5q0 22 3 36
q6 21 18 23q12 3 27 3q24 0 24 -20q0 -23 2 -30q9 -37 65 -37q38 0 56 16.5t32 48.5q8 22 29 22z" />
    <glyph glyph-name="Gdotaccent" unicode="&#x120;" horiz-adv-x="656" 
d="M563 72q-7 -27 -15 -36t-30 -18q-77 -31 -215 -31q-114 0 -175.5 58t-61.5 173q0 119 38 240.5t115 187.5q46 39 103 56t142 17q92 0 151 -18q22 -6 22 -24q0 -23 -17 -59q-5 -13 -20 -13t-32 4q-56 13 -123 13q-105 0 -163 -63q-47 -50 -71.5 -140t-24.5 -172
q0 -163 151 -163q64 0 110 13q22 6 27 29l34 153h-130q-19 0 -19 15q0 14 13 67q5 19 24 19h206q22 0 22 -18q0 -5 -3 -20zM512 842q0 -41 -20 -60q-17 -17 -45 -17q-50 0 -50 45q0 38 20 58q18 19 45 19q50 0 50 -45z" />
    <glyph glyph-name="gdotaccent" unicode="&#x121;" horiz-adv-x="559" 
d="M328 10q-39 -22 -116 -22q-171 0 -171 172q0 76 26.5 156.5t77.5 128.5q68 63 194 63q106 0 169 -23q25 -9 25 -28q0 -6 -4 -30l-81 -387q-17 -84 -42 -135q-36 -75 -116.5 -107t-224.5 -32q-31 0 -31 23q0 26 2 46q2 13 9 18t24 6q109 3 154.5 17.5t69.5 43.5
q19 24 31 71zM357 132l52 243q2 12 2 14q0 13 -13 18q-28 10 -71 10q-72 0 -109 -41q-28 -32 -46 -89t-18 -112q0 -95 90 -95q53 0 85 14q15 7 20 17q4 6 8 21zM419 674q0 -40 -20 -60q-16 -17 -45 -17q-50 0 -50 45q0 35 20 57q16 19 45 19q50 0 50 -44z" />
    <glyph glyph-name="Gcommaaccent" unicode="&#x122;" horiz-adv-x="656" 
d="M563 72q-7 -27 -15 -36t-30 -18q-77 -31 -215 -31q-114 0 -175.5 58t-61.5 173q0 119 38 240.5t115 187.5q46 39 103 56t142 17q92 0 151 -18q22 -6 22 -24q0 -23 -17 -59q-5 -13 -20 -13t-32 4q-56 13 -123 13q-105 0 -163 -63q-47 -50 -71.5 -140t-24.5 -172
q0 -163 151 -163q64 0 110 13q22 6 27 29l34 153h-130q-19 0 -19 15q0 14 13 67q5 19 24 19h206q22 0 22 -18q0 -5 -3 -20zM300 -55h32q27 0 27 -27q0 -20 -8 -47q-22 -67 -82 -129q-16 -18 -31 -18q-12 0 -25 10q-13 8 -13 20q0 11 11 26q39 47 50 127q7 38 39 38z" />
    <glyph glyph-name="gcommaaccent" unicode="&#x123;" horiz-adv-x="559" 
d="M328 10q-39 -22 -116 -22q-171 0 -171 172q0 76 26.5 157t77.5 129q68 63 194 63q106 0 169 -23q25 -9 25 -28q0 -6 -4 -30l-81 -388q-17 -84 -42 -135q-36 -75 -116.5 -107t-224.5 -32q-31 0 -31 24q0 36 2 45q6 24 33 24q108 3 154 17.5t70 43.5q18 23 31 72zM357 132
l52 244q2 10 2 14q0 12 -13 17q-24 10 -71 10q-73 0 -109 -40q-28 -32 -46 -89.5t-18 -112.5q0 -95 90 -95q53 0 85 14q15 7 20 17q4 6 8 21zM362 577h-33q-27 0 -27 28q0 20 9 47q22 70 81 128q17 17 32 17q12 0 25 -8t13 -20q0 -8 -12 -26q-40 -58 -50 -128
q-5 -38 -38 -38z" />
    <glyph glyph-name="Hcircumflex" unicode="&#x124;" horiz-adv-x="702" 
d="M163 24q-6 -26 -29 -26h-67q-20 0 -20 18q0 2 3 20l139 645q5 27 29 27h66q21 0 21 -18q0 -7 -4 -25l-54 -249h289l57 265q5 27 29 27h66q22 0 22 -18q0 -2 -5 -25l-137 -641q-6 -26 -29 -26h-67q-20 0 -20 18q0 2 3 20l61 279h-290zM341 758q-30 0 -45 3q-16 4 -16 16
q0 10 13 21l116 101q29 25 51 25h42q24 0 39 -22l79 -102q8 -11 8 -19q0 -14 -20 -19q-12 -3 -39 -3q-21 0 -38 19l-62 63l-84 -64q-25 -19 -44 -19z" />
    <glyph glyph-name="hcircumflex" unicode="&#x125;" horiz-adv-x="576" 
d="M140 24q-5 -26 -26 -26h-65q-21 0 -21 17q0 7 3 19l145 685q6 29 31 29h59q22 0 22 -19q0 -8 -1 -14l-54 -247q57 40 164 40q133 0 133 -86q0 -34 -10 -79l-67 -319q-5 -26 -28 -26h-64q-20 0 -20 17q0 12 3 22l62 285q6 30 6 50q0 42 -69 42q-55 0 -96 -18
q-17 -6 -24 -13q-9 -9 -14 -34zM149 778q-30 0 -45 3q-16 4 -16 16q0 10 13 21l116 101q29 25 51 25h42q24 0 39 -22l79 -102q8 -11 8 -19q0 -14 -20 -19q-12 -3 -39 -3q-21 0 -38 19l-62 63l-84 -64q-25 -19 -44 -19z" />
    <glyph glyph-name="Hbar" unicode="&#x126;" horiz-adv-x="702" 
d="M163 24q-6 -26 -29 -26h-67q-20 0 -20 18q0 2 3 20l98 454h-51q-19 0 -19 17q0 15 9 51q5 21 26 21h54l22 102q5 27 29 27h66q21 0 21 -18q0 -7 -4 -25l-19 -86h289l22 102q5 27 29 27h66q22 0 22 -18q0 -2 -5 -25l-19 -86h48q20 0 20 -16q0 -11 -10 -54q-4 -19 -28 -19
h-49l-99 -466q-6 -26 -29 -26h-67q-20 0 -20 18q0 2 3 20l61 279h-290zM247 416h289l16 74h-289z" />
    <glyph glyph-name="hbar" unicode="&#x127;" horiz-adv-x="576" 
d="M140 24q-5 -26 -26 -26h-65q-21 0 -21 17q0 7 3 19l115 544h-38q-21 0 -21 17q0 7 8 41q7 22 27 22h41l13 61q6 29 31 29h59q22 0 22 -19q0 -8 -1 -14l-13 -57h95q20 0 20 -18q0 -8 -9 -43q-4 -19 -27 -19h-96l-24 -110q57 40 164 40q133 0 133 -86q0 -34 -10 -79
l-67 -319q-5 -26 -28 -26h-64q-20 0 -20 17q0 12 3 22l62 285q6 30 6 50q0 42 -69 42q-55 0 -96 -18q-17 -6 -24 -13q-9 -9 -14 -34z" />
    <glyph glyph-name="Itilde" unicode="&#x128;" horiz-adv-x="298" 
d="M163 24q-6 -26 -29 -26h-67q-20 0 -20 18q0 2 3 20l139 645q5 27 29 27h66q21 0 21 -18q0 -7 -4 -25zM129 761q-21 0 -32 3q-12 5 -12 17q0 9 8 28q37 90 102 90q21 0 72 -27q34 -19 56 -19q25 0 42 30q11 21 32 21q19 0 29 -3q13 -4 13 -16q0 -13 -12 -39
q-36 -81 -97 -81q-30 0 -79 26q-39 20 -54 20q-23 0 -39 -28q-4 -7 -6 -10t-5.5 -6.5t-7.5 -4.5t-10 -1z" />
    <glyph glyph-name="itilde" unicode="&#x129;" horiz-adv-x="260" 
d="M82 588q-15 0 -29 2q-15 2 -15 18q0 8 8 29q38 89 99 89q23 0 67 -26q33 -20 53 -20q24 0 40 30q11 21 26 21q24 0 33 -3q12 -2 12 -15q0 -15 -11 -39q-37 -82 -95 -82q-30 0 -74 26q-32 19 -48 19q-25 0 -39 -26q-6 -11 -8 -14t-7 -6t-12 -3zM142 24q-6 -26 -28 -26h-64
q-20 0 -20 18q0 2 0.5 5.5t1.5 8t1 6.5l94 435q5 26 27 26h65q19 0 19 -18q0 -1 -4 -21z" />
    <glyph glyph-name="Imacron" unicode="&#x12a;" horiz-adv-x="298" 
d="M163 24q-6 -26 -29 -26h-67q-20 0 -20 18q0 2 3 20l139 645q5 27 29 27h66q21 0 21 -18q0 -7 -4 -25zM385 782h-257q-21 0 -21 18q0 9 9 45q6 24 31 24h255q22 0 22 -17q0 -10 -9 -48q-6 -22 -30 -22z" />
    <glyph glyph-name="imacron" unicode="&#x12b;" horiz-adv-x="260" 
d="M312 600h-224q-22 0 -22 19q0 16 9 46q6 23 30 23h223q23 0 23 -18q0 -12 -10 -47q-5 -23 -29 -23zM142 24q-6 -26 -28 -26h-64q-20 0 -20 18q0 2 0.5 5.5t1.5 8t1 6.5l94 435q5 26 27 26h65q19 0 19 -18q0 -1 -4 -21z" />
    <glyph glyph-name="Ibreve" unicode="&#x12c;" horiz-adv-x="298" 
d="M163 24q-6 -26 -29 -26h-67q-20 0 -20 18q0 2 3 20l139 645q5 27 29 27h66q21 0 21 -18q0 -7 -4 -25zM386 915q22 0 29 -2q14 -4 14 -19q0 -18 -11 -45q-39 -94 -162 -94q-59 0 -99.5 29t-40.5 82q0 19 3 31q5 15 25 17q6 1 23 1q25 0 26 -19q2 -19 6 -30q14 -31 66 -31
q40 0 59 15t31 45q5 12 11 16t20 4z" />
    <glyph glyph-name="ibreve" unicode="&#x12d;" horiz-adv-x="260" 
d="M321 738q18 0 30 -3q12 -2 12 -19q0 -15 -11 -44q-20 -48 -56 -74t-101 -26q-64 0 -97 29.5t-33 74.5q0 22 3 36q6 21 18 23q12 3 27 3q24 0 24 -20q0 -23 2 -30q9 -37 65 -37q38 0 56 16.5t32 48.5q8 22 29 22zM142 24q-6 -26 -28 -26h-64q-20 0 -20 18q0 2 0.5 5.5
t1.5 8t1 6.5l94 435q5 26 27 26h65q19 0 19 -18q0 -1 -4 -21z" />
    <glyph glyph-name="Iogonek" unicode="&#x12e;" horiz-adv-x="298" 
d="M163 24q-6 -22 -22 -25q-50 -31 -80 -62.5t-30 -72.5q0 -20 12 -31t34 -11q10 0 25.5 0.5t17.5 0.5q9 0 13.5 -3.5t6.5 -14.5q3 -13 3 -29q-1 -12 -6 -16.5t-19 -8.5q-21 -5 -67 -5q-110 0 -110 91q0 57 31.5 95t88.5 67q-14 2 -14 17q0 2 3 20l139 645q5 27 29 27h66
q21 0 21 -18q0 -7 -4 -25z" />
    <glyph glyph-name="iogonek" unicode="&#x12f;" horiz-adv-x="260" 
d="M142 24q-6 -23 -23 -26q-31 -20 -50.5 -35t-37.5 -41t-18 -53q0 -38 43 -38q9 0 23.5 0.5t16.5 0.5q17 0 21 -18q4 -16 4 -27q-1 -11 -6 -16t-19 -8q-24 -5 -65 -5q-106 0 -106 86q0 55 30.5 91t86.5 64q-12 3 -12 17q0 11 4 25l93 430q5 26 27 26h65q19 0 19 -18
q0 -2 -0.5 -6.5t-2 -9.5t-1.5 -7zM277 675q0 -44 -22 -63q-19 -17 -48 -17q-54 0 -54 47q0 41 21 61q19 19 50 19q53 0 53 -47z" />
    <glyph glyph-name="Idotaccent" unicode="&#x130;" horiz-adv-x="298" 
d="M163 24q-6 -26 -29 -26h-67q-20 0 -20 18q0 2 3 20l139 645q5 27 29 27h66q21 0 21 -18q0 -7 -4 -25zM328 842q0 -41 -20 -60q-17 -17 -45 -17q-50 0 -50 45q0 38 20 58q18 19 45 19q50 0 50 -45z" />
    <glyph glyph-name="dotlessi" unicode="&#x131;" horiz-adv-x="260" 
d="M142 24q-6 -26 -28 -26h-64q-20 0 -20 18q0 2 0.5 5.5t1.5 8t1 6.5l94 435q5 26 27 26h65q19 0 19 -18q0 -1 -4 -21z" />
    <glyph glyph-name="IJ" unicode="&#x132;" horiz-adv-x="603" 
d="M163 24q-6 -26 -29 -26h-67q-20 0 -20 18q0 2 3 20l139 645q5 27 29 27h66q21 0 21 -18q0 -7 -4 -25zM604 665l-127 -595q-21 -98 -77 -149q-29 -27 -85 -47t-93 -20q-23 0 -26 21q-4 24 -4 43q0 25 28 30q59 11 90 31q37 23 51 87l131 615q5 27 29 27h66q21 0 21 -18
q0 -7 -4 -25z" />
    <glyph glyph-name="ij" unicode="&#x133;" horiz-adv-x="520" 
d="M142 24q-6 -26 -28 -26h-64q-20 0 -20 18q0 11 4 25l93 430q5 26 27 26h65q19 0 19 -18q0 -2 -0.5 -6.5t-2 -9.5t-1.5 -7zM277 675q0 -44 -22 -63q-19 -17 -48 -17q-54 0 -54 47q0 41 21 61q19 19 50 19q53 0 53 -47zM390 -28q-20 -100 -69 -146q-28 -25 -80 -42.5
t-96 -17.5q-14 0 -19 5t-7 17q-3 19 -3 38q0 26 28 30q64 11 92 31q29 20 43 83l108 501q5 26 27 26h65q19 0 19 -18q0 -5 -4 -21zM537 675q0 -44 -22 -63q-19 -17 -48 -17q-54 0 -54 47q0 41 21 61q19 19 50 19q53 0 53 -47z" />
    <glyph glyph-name="Jcircumflex" unicode="&#x134;" horiz-adv-x="305" 
d="M307 665l-127 -595q-21 -98 -77 -149q-29 -27 -85 -47t-93 -20q-23 0 -26 21q-4 24 -4 43q0 25 28 30q59 11 90 31q37 23 51 87l131 615q5 27 29 27h66q21 0 21 -18q0 -7 -4 -25zM146 758q-30 0 -45 3q-16 4 -16 16q0 10 13 21l116 101q29 25 51 25h42q24 0 39 -22
l79 -102q8 -11 8 -19q0 -14 -20 -19q-12 -3 -39 -3q-21 0 -38 19l-62 63l-84 -64q-25 -19 -44 -19z" />
    <glyph glyph-name="jcircumflex" unicode="&#x135;" horiz-adv-x="260" 
d="M130 -28q-21 -103 -69 -146q-29 -26 -79 -43t-100 -17q-24 0 -26 23q0 17 4 41q3 24 29 28q57 8 87 29q29 20 43 83l108 501q5 26 27 26h65q19 0 19 -18q0 -1 -4 -21zM92 575q-21 0 -39 2q-16 2 -16 16q0 11 13 24l106 117q22 24 44 24h46q20 0 33 -24l61 -120
q5 -9 5 -19q0 -14 -19 -18q-18 -2 -35 -2q-21 0 -33 19l-48 81l-81 -81q-19 -19 -37 -19z" />
    <glyph glyph-name="Kcommaaccent" unicode="&#x136;" horiz-adv-x="623" 
d="M163 24q-6 -26 -29 -26h-67q-20 0 -20 18q0 2 3 20l139 645q5 27 29 27h66q21 0 21 -18q0 -7 -4 -25l-54 -249h57q33 0 49 19l204 252q17 22 38 22q52 0 69 -3q17 -2 17 -20q0 -7 -16 -27l-246 -299q25 -47 144 -311q9 -23 9 -29q0 -8 -6.5 -13.5t-16.5 -6.5
q-25 -2 -73 -2q-19 0 -27 20l-124 278q-8 19 -36 19h-63zM279 -55h32q27 0 27 -27q0 -20 -8 -47q-22 -67 -82 -129q-16 -18 -31 -18q-12 0 -25 10q-13 8 -13 20q0 11 11 26q39 47 50 127q7 38 39 38z" />
    <glyph glyph-name="kcommaaccent" unicode="&#x137;" horiz-adv-x="533" 
d="M140 24q-5 -26 -26 -26h-65q-21 0 -21 17q0 2 0.5 5.5t1.5 8t1 6.5l147 688q6 25 29 25h62q20 0 20 -18q0 -3 -2 -15l-83 -391h49q31 0 48 20l122 134q16 19 36 19q64 0 76 -4q10 -3 10 -14q0 -9 -16 -27q-129 -144 -168 -181q9 -15 109 -226q7 -16 7 -26q0 -12 -15 -18
q-9 -4 -74 -4q-19 0 -28 19l-89 195q-9 18 -36 18h-50zM224 -55h32q27 0 27 -27q0 -20 -8 -47q-22 -67 -82 -129q-16 -18 -31 -18q-12 0 -25 10q-13 8 -13 20q0 11 11 26q39 47 50 127q7 38 39 38z" />
    <glyph glyph-name="kgreenlandic" unicode="&#x138;" horiz-adv-x="536" 
d="M140 24q-5 -26 -26 -26h-65q-21 0 -21 17q0 2 0.5 5.5t1.5 8t1 6.5l94 438q5 24 28 24h63q19 0 19 -18q0 -10 -1 -17l-33 -148h48q30 0 49 20l129 144q16 19 37 19q59 0 71 -4q10 -3 10 -14q0 -7 -16 -27q-118 -137 -169 -189l112 -218q6 -13 6 -26q0 -12 -14 -18
q-11 -4 -76 -4q-18 0 -27 19l-93 185q-9 18 -36 18h-50z" />
    <glyph glyph-name="Lacute" unicode="&#x139;" horiz-adv-x="545" 
d="M442 0h-290q-46 0 -67.5 17t-21.5 53q0 21 5 44l121 565q5 29 30 29h65q21 0 21 -18q0 -9 -4 -25l-110 -507q-3 -13 -3 -30q0 -27 31 -27h241q22 0 22 -16q0 -14 -12 -66q-4 -19 -28 -19zM280 772q-21 -14 -45 -14q-34 0 -44 2q-19 2 -19 16q0 13 14 23l128 97
q27 20 47 20q40 0 70 -2q26 -3 26 -18t-15 -24z" />
    <glyph glyph-name="lacute" unicode="&#x13a;" horiz-adv-x="285" 
d="M284 712l-115 -540q-7 -32 -7 -50q0 -20 12 -28.5t39 -12.5q18 -3 18 -22q0 -20 -8 -44q-7 -20 -33 -20q-142 0 -142 100q0 27 9 68l118 555q7 30 29 30h61q22 0 22 -19q0 -2 -0.5 -4.5t-1.5 -6.5t-1 -6zM258 792q-21 -14 -45 -14q-34 0 -44 2q-19 2 -19 16q0 13 14 23
l128 97q27 20 47 20q40 0 70 -2q26 -3 26 -18t-15 -24z" />
    <glyph glyph-name="Lcommaaccent" unicode="&#x13b;" horiz-adv-x="545" 
d="M442 0h-290q-46 0 -67.5 17t-21.5 53q0 21 5 44l121 565q5 29 30 29h65q21 0 21 -18q0 -9 -4 -25l-110 -507q-3 -13 -3 -30q0 -27 31 -27h241q22 0 22 -16q0 -14 -12 -66q-4 -19 -28 -19zM248 -55h32q27 0 27 -27q0 -20 -8 -47q-22 -67 -82 -129q-16 -18 -31 -18
q-12 0 -25 10q-13 8 -13 20q0 11 11 26q39 47 50 127q7 38 39 38z" />
    <glyph glyph-name="lcommaaccent" unicode="&#x13c;" horiz-adv-x="285" 
d="M284 712l-115 -540q-7 -32 -7 -50q0 -20 12 -28.5t39 -12.5q18 -3 18 -22q0 -20 -8 -44q-7 -20 -33 -20q-142 0 -142 100q0 27 9 68l118 555q7 30 29 30h61q22 0 22 -19q0 -2 -0.5 -4.5t-1.5 -6.5t-1 -6zM105 -55h32q27 0 27 -27q0 -20 -8 -47q-22 -67 -82 -129
q-16 -18 -31 -18q-12 0 -25 10q-13 8 -13 20q0 11 11 26q39 47 50 127q7 38 39 38z" />
    <glyph glyph-name="Lcaron" unicode="&#x13d;" horiz-adv-x="545" 
d="M442 0h-290q-46 0 -67.5 17t-21.5 53q0 21 5 44l121 565q5 29 30 29h65q21 0 21 -18q0 -9 -4 -25l-110 -507q-3 -13 -3 -30q0 -27 31 -27h241q22 0 22 -16q0 -14 -12 -66q-4 -19 -28 -19zM447 708h32q27 0 27 -28q0 -20 -8 -47q-20 -64 -82 -128q-15 -17 -32 -17
q-13 0 -24 7q-13 8 -13 21q0 10 11 26q39 53 50 128q7 38 39 38z" />
    <glyph glyph-name="lcaron" unicode="&#x13e;" horiz-adv-x="285" 
d="M284 712l-115 -540q-7 -32 -7 -50q0 -20 12 -28.5t39 -12.5q18 -3 18 -22q0 -20 -8 -44q-7 -20 -33 -20q-142 0 -142 100q0 27 9 68l118 555q7 30 29 30h61q22 0 22 -19q0 -2 -0.5 -4.5t-1.5 -6.5t-1 -6zM404 748h32q27 0 27 -28q0 -20 -8 -47q-20 -64 -82 -128
q-15 -17 -32 -17q-13 0 -24 7q-13 8 -13 21q0 10 11 26q39 53 50 128q7 38 39 38z" />
    <glyph glyph-name="Ldot" unicode="&#x13f;" horiz-adv-x="545" 
d="M442 0h-290q-46 0 -67.5 17t-21.5 53q0 21 5 44l121 565q5 29 30 29h65q21 0 21 -18q0 -9 -4 -25l-110 -507q-3 -13 -3 -30q0 -27 31 -27h241q22 0 22 -16q0 -14 -12 -66q-4 -19 -28 -19zM508 372q0 -44 -25 -70q-18 -19 -51 -19q-58 0 -58 53q0 41 22 66q20 21 54 21
q58 0 58 -51z" />
    <glyph glyph-name="ldot" unicode="&#x140;" horiz-adv-x="381" 
d="M287 712l-116 -540q-6 -28 -6 -50q0 -20 11.5 -28.5t38.5 -12.5q19 -3 19 -23q0 -18 -10 -43q-8 -20 -33 -20q-140 0 -140 100q0 37 7 68l119 555q7 30 29 30h60q22 0 22 -19q0 -11 -1 -17zM407 370q0 -45 -22 -67q-20 -18 -50 -18q-57 0 -57 52q0 38 20 61q19 22 53 22
q56 0 56 -50z" />
    <glyph glyph-name="Lslash" unicode="&#x141;" horiz-adv-x="545" 
d="M442 0h-290q-46 0 -67.5 17t-21.5 53q0 21 5 44l27 127l-38 -21q-7 -4 -18 -4q-9 0 -17 15q-19 38 -19 46q0 11 12 19l104 58l70 325q5 29 30 29h65q21 0 21 -18q0 -9 -4 -25l-52 -238l110 61q10 5 18 5q7 0 16 -14q21 -37 21 -47q0 -12 -13 -18l-176 -100l-34 -156
q-3 -13 -3 -30q0 -27 31 -27h241q22 0 22 -16q0 -14 -12 -66q-4 -19 -28 -19z" />
    <glyph glyph-name="lslash" unicode="&#x142;" horiz-adv-x="285" 
d="M284 712l-58 -271l31 16q11 6 18 6q9 0 18 -16q15 -31 15 -41t-14 -17l-89 -47l-36 -170q-7 -32 -7 -50q0 -20 12 -28.5t39 -12.5q18 -3 18 -22q0 -20 -8 -44q-7 -20 -33 -20q-142 0 -142 100q0 27 9 68l24 114l-29 -15q-10 -6 -18 -6q-7 0 -15 14q-17 33 -17 43
q0 11 15 18l85 45l73 342q7 30 29 30h61q22 0 22 -19q0 -2 -0.5 -4.5t-1.5 -6.5t-1 -6z" />
    <glyph glyph-name="Nacute" unicode="&#x143;" horiz-adv-x="721" 
d="M160 25q-5 -27 -28 -27h-63q-22 0 -22 21q0 6 3 18l128 591q9 43 30 62.5t62 19.5h32q18 0 29 -3.5t17.5 -12.5t9.5 -17t8 -25q106 -373 138 -510q20 107 114 534q6 32 31 32h59q20 0 20 -19q0 -3 -3 -24l-129 -604q-15 -68 -77 -68h-27q-34 0 -48 13.5t-25 52.5
q-128 448 -142 517q-24 -123 -117 -551zM498 772q-21 -14 -45 -14q-34 0 -44 2q-19 2 -19 16q0 13 14 23l128 97q27 20 47 20q40 0 70 -2q26 -3 26 -18t-15 -24z" />
    <glyph glyph-name="nacute" unicode="&#x144;" horiz-adv-x="573" 
d="M142 24q-6 -26 -27 -26h-65q-20 0 -20 17q0 8 3 20l79 371q10 45 48 61q96 42 232 42q59 0 98.5 -20.5t39.5 -69.5q0 -42 -10 -86l-66 -309q-5 -26 -27 -26h-65q-20 0 -20 17q0 6 3 21l62 286q7 33 7 49q0 44 -69 44q-53 0 -98 -18q-17 -9 -22 -12q-7 -7 -12 -28z
M374 596q-19 -17 -40 -17q-13 0 -37 3q-21 4 -21 18q0 11 11 22l106 116q18 21 40 21q39 0 62 -3q20 -4 20 -18q0 -12 -11 -22z" />
    <glyph glyph-name="Ncommaaccent" unicode="&#x145;" horiz-adv-x="721" 
d="M160 25q-5 -27 -28 -27h-63q-22 0 -22 21q0 6 3 18l128 591q9 43 30 62.5t62 19.5h32q18 0 29 -3.5t17.5 -12.5t9.5 -17t8 -25q106 -373 138 -510q20 107 114 534q6 32 31 32h59q20 0 20 -19q0 -3 -3 -24l-129 -604q-15 -68 -77 -68h-27q-34 0 -48 13.5t-25 52.5
q-128 448 -142 517q-24 -123 -117 -551zM300 -55h32q27 0 27 -27q0 -20 -8 -47q-22 -67 -82 -129q-16 -18 -31 -18q-12 0 -25 10q-13 8 -13 20q0 11 11 26q39 47 50 127q7 38 39 38z" />
    <glyph glyph-name="ncommaaccent" unicode="&#x146;" horiz-adv-x="573" 
d="M142 24q-6 -26 -27 -26h-65q-20 0 -20 17q0 8 3 20l79 371q10 45 48 61q96 42 232 42q59 0 98.5 -20.5t39.5 -69.5q0 -42 -10 -86l-66 -309q-5 -26 -27 -26h-65q-20 0 -20 17q0 6 3 21l62 286q7 33 7 49q0 44 -69 44q-53 0 -98 -18q-17 -9 -22 -12q-7 -7 -12 -28z
M222 -55h32q27 0 27 -27q0 -20 -8 -47q-22 -67 -82 -129q-16 -18 -31 -18q-12 0 -25 10q-13 8 -13 20q0 11 11 26q39 47 50 127q7 38 39 38z" />
    <glyph glyph-name="Ncaron" unicode="&#x147;" horiz-adv-x="721" 
d="M160 25q-5 -27 -28 -27h-63q-22 0 -22 21q0 6 3 18l128 591q9 43 30 62.5t62 19.5h32q18 0 29 -3.5t17.5 -12.5t9.5 -17t8 -25q106 -373 138 -510q20 107 114 534q6 32 31 32h59q20 0 20 -19q0 -3 -3 -24l-129 -604q-15 -68 -77 -68h-27q-34 0 -48 13.5t-25 52.5
q-128 448 -142 517q-24 -123 -117 -551zM600 926q30 0 45 -3q16 -2 16 -16q0 -11 -13 -21l-116 -101q-28 -24 -51 -24h-41q-23 0 -39 21l-80 102q-8 9 -8 19q0 15 21 19q24 3 38 3q19 0 38 -19l61 -63l86 64q25 19 43 19z" />
    <glyph glyph-name="ncaron" unicode="&#x148;" horiz-adv-x="573" 
d="M142 24q-6 -26 -27 -26h-65q-20 0 -20 17q0 8 3 20l79 371q10 45 48 61q96 42 232 42q59 0 98.5 -20.5t39.5 -69.5q0 -42 -10 -86l-66 -309q-5 -26 -27 -26h-65q-20 0 -20 17q0 6 3 21l62 286q7 33 7 49q0 44 -69 44q-53 0 -98 -18q-17 -9 -22 -12q-7 -7 -12 -28z
M458 762q21 0 39 -2q17 -2 17 -16q0 -11 -13 -24l-106 -116q-23 -25 -41 -25h-50q-20 0 -32 25l-60 117q-6 10 -6 21q0 14 18 18q18 2 36 2q20 0 32 -19l48 -79l82 80q18 18 36 18z" />
    <glyph glyph-name="napostrophe" unicode="&#x149;" horiz-adv-x="573" 
d="M142 24q-6 -26 -27 -26h-65q-20 0 -20 17q0 8 3 20l79 371q10 45 48 61q96 42 232 42q59 0 98.5 -20.5t39.5 -69.5q0 -42 -10 -86l-66 -309q-5 -26 -27 -26h-65q-20 0 -20 17q0 6 3 21l62 286q7 33 7 49q0 44 -69 44q-53 0 -98 -18q-17 -9 -22 -12q-7 -7 -12 -28z
M218 792h32q27 0 27 -27q0 -20 -8 -47q-22 -67 -82 -129q-16 -18 -31 -18q-12 0 -25 10q-13 8 -13 20q0 11 11 26q39 47 50 127q7 38 39 38z" />
    <glyph glyph-name="Eng" unicode="&#x14a;" horiz-adv-x="721" 
d="M160 25q-6 -27 -28 -27h-63q-22 0 -22 21q0 6 3 18l128 591q9 44 29 63t61 19h33q31 0 42.5 -12.5t23.5 -47.5q129 -342 153 -426q8 49 98 452q7 32 31 32h59q20 0 20 -19q0 -3 -3 -24l-144 -670q-23 -106 -76 -150q-31 -27 -84 -46.5t-94 -19.5q-22 0 -25 20
q-3 14 -3 44q0 25 29 30q55 11 87 30q38 24 52 87l5 25q-177 502 -195 561q-25 -130 -117 -551z" />
    <glyph glyph-name="eng" unicode="&#x14b;" horiz-adv-x="573" 
d="M142 24q-6 -26 -27 -26h-65q-20 0 -20 17q0 8 3 20l79 371q10 45 48 61q96 42 232 42q59 0 98.5 -20.5t39.5 -69.5q0 -42 -10 -86l-77 -361q-21 -103 -69 -146q-29 -25 -79 -42.5t-98 -17.5q-25 0 -27 23q-1 12 -1 38q0 27 29 31q61 9 91 29q31 21 43 83l75 352
q7 35 7 49q0 44 -69 44q-53 0 -98 -18q-10 -3 -22 -12q-7 -7 -12 -28z" />
    <glyph glyph-name="Omacron" unicode="&#x14c;" horiz-adv-x="693" 
d="M678 511q0 -102 -33.5 -234.5t-94.5 -201.5q-43 -47 -98.5 -67.5t-134.5 -20.5q-122 0 -186.5 47.5t-64.5 172.5q0 108 34 232.5t99 194.5q81 86 224 86q48 0 83.5 -4.5t69.5 -17.5t55 -35.5t34 -60.5t13 -91zM558 492q0 76 -32 103t-111 27q-87 0 -134 -56
q-44 -51 -70 -157.5t-26 -186.5q0 -79 32.5 -108.5t109.5 -29.5q51 0 83.5 13.5t58.5 51.5q39 55 64 164.5t25 178.5zM584 782h-257q-21 0 -21 18q0 9 9 45q6 24 31 24h255q22 0 22 -17q0 -10 -9 -48q-6 -22 -30 -22z" />
    <glyph glyph-name="omacron" unicode="&#x14d;" horiz-adv-x="548" 
d="M516 351q0 -64 -21 -149.5t-61 -137.5q-59 -77 -193 -77q-46 0 -79.5 6.5t-62.5 24t-43.5 51.5t-14.5 85q0 73 22.5 155t69.5 132q63 67 181 67q48 0 79.5 -5t62 -20.5t45.5 -48t15 -83.5zM403 335q0 47 -23.5 63.5t-74.5 16.5q-63 0 -94 -41q-26 -33 -41 -100.5
t-15 -109.5q0 -49 22 -67t72 -18q73 0 104 47q22 33 36 102t14 107zM456 600h-224q-22 0 -22 19q0 16 9 46q6 23 30 23h223q23 0 23 -18q0 -12 -10 -47q-5 -23 -29 -23z" />
    <glyph glyph-name="Obreve" unicode="&#x14e;" horiz-adv-x="693" 
d="M678 511q0 -102 -33.5 -234.5t-94.5 -201.5q-43 -47 -98.5 -67.5t-134.5 -20.5q-122 0 -186.5 47.5t-64.5 172.5q0 108 34 232.5t99 194.5q81 86 224 86q48 0 83.5 -4.5t69.5 -17.5t55 -35.5t34 -60.5t13 -91zM558 492q0 76 -32 103t-111 27q-87 0 -134 -56
q-44 -51 -70 -157.5t-26 -186.5q0 -79 32.5 -108.5t109.5 -29.5q51 0 83.5 13.5t58.5 51.5q39 55 64 164.5t25 178.5zM589 915q22 0 29 -2q14 -4 14 -19q0 -18 -11 -45q-39 -94 -162 -94q-59 0 -99.5 29t-40.5 82q0 19 3 31q5 15 25 17q6 1 23 1q25 0 26 -19q2 -19 6 -30
q14 -31 66 -31q40 0 59 15t31 45q5 12 11 16t20 4z" />
    <glyph glyph-name="obreve" unicode="&#x14f;" horiz-adv-x="548" 
d="M516 351q0 -64 -21 -149.5t-61 -137.5q-59 -77 -193 -77q-46 0 -79.5 6.5t-62.5 24t-43.5 51.5t-14.5 85q0 73 22.5 155t69.5 132q63 67 181 67q48 0 79.5 -5t62 -20.5t45.5 -48t15 -83.5zM403 335q0 47 -23.5 63.5t-74.5 16.5q-63 0 -94 -41q-26 -33 -41 -100.5
t-15 -109.5q0 -49 22 -67t72 -18q73 0 104 47q22 33 36 102t14 107zM461 738q18 0 30 -3q12 -2 12 -19q0 -15 -11 -44q-20 -48 -56 -74t-101 -26q-64 0 -97 29.5t-33 74.5q0 22 3 36q6 21 18 23q12 3 27 3q24 0 24 -20q0 -23 2 -30q9 -37 65 -37q38 0 56 16.5t32 48.5
q8 22 29 22z" />
    <glyph glyph-name="Ohungarumlaut" unicode="&#x150;" horiz-adv-x="693" 
d="M678 511q0 -102 -33.5 -234.5t-94.5 -201.5q-43 -47 -98.5 -67.5t-134.5 -20.5q-122 0 -186.5 47.5t-64.5 172.5q0 108 34 232.5t99 194.5q81 86 224 86q48 0 83.5 -4.5t69.5 -17.5t55 -35.5t34 -60.5t13 -91zM558 492q0 76 -32 103t-111 27q-87 0 -134 -56
q-44 -51 -70 -157.5t-26 -186.5q0 -79 32.5 -108.5t109.5 -29.5q51 0 83.5 13.5t58.5 51.5q39 55 64 164.5t25 178.5zM381 772q-19 -14 -43 -14q-30 0 -39 2q-20 4 -20 16t15 25l117 97q23 18 46 18q37 0 57 -3q23 -2 23 -16q0 -15 -16 -26zM587 772q-20 -14 -44 -14
q-29 0 -40 2q-20 4 -20 16t16 25l117 97q22 18 46 18q38 0 56 -3q24 -3 24 -16q0 -15 -16 -26z" />
    <glyph glyph-name="ohungarumlaut" unicode="&#x151;" horiz-adv-x="548" 
d="M516 351q0 -64 -21 -149.5t-61 -137.5q-59 -77 -193 -77q-46 0 -79.5 6.5t-62.5 24t-43.5 51.5t-14.5 85q0 73 22.5 155t69.5 132q63 67 181 67q48 0 79.5 -5t62 -20.5t45.5 -48t15 -83.5zM403 335q0 47 -23.5 63.5t-74.5 16.5q-63 0 -94 -41q-26 -33 -41 -100.5
t-15 -109.5q0 -49 22 -67t72 -18q73 0 104 47q22 33 36 102t14 107zM299 596q-19 -17 -39 -17q-19 0 -31 3q-22 4 -22 19q0 9 11 22l101 115q18 21 41 21q33 0 52 -4q19 -3 19 -17t-10 -23zM470 596q-19 -17 -39 -17q-19 0 -31 3q-20 4 -20 19q0 11 9 22l102 115
q18 21 40 21q33 0 53 -4t20 -17q0 -11 -12 -23z" />
    <glyph glyph-name="OE" unicode="&#x152;" horiz-adv-x="959" 
d="M871 0h-301q-58 0 -68 41q-2 9 -2 31q-56 -85 -187 -85q-119 0 -183 47.5t-64 172.5q0 109 33.5 232.5t98.5 192.5q79 86 225 86q158 0 179 -93q1 2 2.5 6t3.5 10l3 9q12 32 31.5 44t62.5 12h280q23 0 23 -17q0 -16 -12 -65q-4 -19 -29 -19h-235q-32 0 -40 -38l-33 -151
h242q21 0 21 -17q0 -10 -13 -64q-4 -19 -27 -19h-244l-36 -159q-4 -20 -4 -31q0 -25 31 -25h261q22 0 22 -17q0 -12 -13 -65q-4 -19 -28 -19zM546 489q0 75 -29.5 103t-102.5 28q-88 0 -133 -56q-44 -53 -70 -158t-26 -184t31.5 -108.5t107.5 -29.5q45 0 75.5 13.5
t57.5 51.5q38 54 63.5 161.5t25.5 178.5z" />
    <glyph glyph-name="oe" unicode="&#x153;" horiz-adv-x="861" 
d="M413 66q-50 -79 -176 -79q-96 0 -146 35t-50 132q0 74 22.5 156t69.5 132q63 67 179 67q68 0 108.5 -16.5t58.5 -62.5q65 79 184 79q89 0 126.5 -35t37.5 -100t-15 -120q-8 -27 -18 -32q-8 -6 -23 -6h-282q-4 -26 -4 -47q0 -50 28 -70t85 -20q54 0 106 13q27 6 31 6
q13 0 18 -14q10 -40 10 -46q0 -17 -24 -26q-63 -25 -171 -25q-124 0 -155 79zM398 336q0 47 -22.5 63.5t-71.5 16.5q-62 0 -93 -42q-26 -33 -41 -100.5t-15 -109.5q0 -49 21 -67t72 -18q69 0 100 47q21 33 35.5 102.5t14.5 107.5zM507 299h209q9 29 9 63q0 31 -17.5 46
t-60.5 15q-63 0 -96 -34q-29 -30 -44 -90z" />
    <glyph glyph-name="Racute" unicode="&#x154;" horiz-adv-x="624" 
d="M164 27q-6 -29 -28 -29h-65q-22 0 -22 21q0 8 5 33l118 549q13 56 39.5 80.5t83.5 24.5h70q124 0 181 -26q72 -33 72 -131q0 -89 -38 -153.5t-121 -90.5l90 -257q5 -17 5 -27q0 -16 -17 -21q-12 -3 -72 -3q-21 0 -28 22l-89 269q-19 -1 -61 -1h-67zM239 380h65
q83 0 122 16q73 28 73 131q0 51 -37 69q-29 13 -102 13h-38q-33 0 -41 -37zM441 772q-21 -14 -45 -14q-34 0 -44 2q-19 2 -19 16q0 13 14 23l128 97q27 20 47 20q40 0 70 -2q26 -3 26 -18t-15 -24z" />
    <glyph glyph-name="racute" unicode="&#x155;" horiz-adv-x="375" 
d="M142 24q-6 -26 -27 -26h-66q-19 0 -19 17q0 6 3 21l78 363q9 42 39 64q25 18 78.5 31.5t109.5 13.5q44 0 59 -5q13 -4 13 -22q0 -31 -11 -56q-6 -15 -25 -15q-5 0 -24 1t-26 1q-56 0 -82 -14q-14 -6 -20 -16q-5 -8 -10 -29zM313 596q-19 -17 -40 -17q-13 0 -37 3
q-21 4 -21 18q0 11 11 22l106 116q18 21 40 21q40 0 62 -3q20 -4 20 -18q0 -12 -11 -22z" />
    <glyph glyph-name="Rcommaaccent" unicode="&#x156;" horiz-adv-x="624" 
d="M164 27q-6 -29 -28 -29h-65q-22 0 -22 21q0 8 5 33l118 549q13 56 39.5 80.5t83.5 24.5h70q124 0 181 -26q72 -33 72 -131q0 -89 -38 -153.5t-121 -90.5l90 -257q5 -17 5 -27q0 -16 -17 -21q-12 -3 -72 -3q-21 0 -28 22l-89 269q-19 -1 -61 -1h-67zM239 380h65
q83 0 122 16q73 28 73 131q0 51 -37 69q-29 13 -102 13h-38q-33 0 -41 -37zM277 -55h32q27 0 27 -27q0 -20 -8 -47q-22 -67 -82 -129q-16 -18 -31 -18q-12 0 -25 10q-13 8 -13 20q0 11 11 26q39 47 50 127q7 38 39 38z" />
    <glyph glyph-name="rcommaaccent" unicode="&#x157;" horiz-adv-x="375" 
d="M142 24q-6 -26 -27 -26h-66q-19 0 -19 17q0 6 3 21l78 363q9 42 39 64q25 18 78.5 31.5t109.5 13.5q44 0 59 -5q13 -4 13 -22q0 -31 -11 -56q-6 -15 -25 -15q-5 0 -24 1t-26 1q-56 0 -82 -14q-14 -6 -20 -16q-5 -8 -10 -29zM66 -55h32q27 0 27 -27q0 -20 -8 -47
q-22 -67 -82 -129q-16 -18 -31 -18q-12 0 -25 10q-13 8 -13 20q0 11 11 26q39 47 50 127q7 38 39 38z" />
    <glyph glyph-name="Rcaron" unicode="&#x158;" horiz-adv-x="624" 
d="M164 27q-6 -29 -28 -29h-65q-22 0 -22 21q0 8 5 33l118 549q13 56 39.5 80.5t83.5 24.5h70q124 0 181 -26q72 -33 72 -131q0 -89 -38 -153.5t-121 -90.5l90 -257q5 -17 5 -27q0 -16 -17 -21q-12 -3 -72 -3q-21 0 -28 22l-89 269q-19 -1 -61 -1h-67zM239 380h65
q83 0 122 16q73 28 73 131q0 51 -37 69q-29 13 -102 13h-38q-33 0 -41 -37zM526 926q30 0 45 -3q16 -2 16 -16q0 -11 -13 -21l-116 -101q-28 -24 -51 -24h-41q-23 0 -39 21l-80 102q-8 9 -8 19q0 15 21 19q24 3 38 3q19 0 38 -19l61 -63l86 64q25 19 43 19z" />
    <glyph glyph-name="rcaron" unicode="&#x159;" horiz-adv-x="375" 
d="M142 24q-6 -26 -27 -26h-66q-19 0 -19 17q0 6 3 21l78 363q9 42 39 64q25 18 78.5 31.5t109.5 13.5q44 0 59 -5q13 -4 13 -22q0 -31 -11 -56q-6 -15 -25 -15q-5 0 -24 1t-26 1q-56 0 -82 -14q-14 -6 -20 -16q-5 -8 -10 -29zM388 762q21 0 39 -2q17 -2 17 -16
q0 -11 -13 -24l-106 -116q-23 -25 -41 -25h-50q-20 0 -32 25l-60 117q-6 10 -6 21q0 14 18 18q18 2 36 2q20 0 32 -19l48 -79l82 80q18 18 36 18z" />
    <glyph glyph-name="Sacute" unicode="&#x15a;" horiz-adv-x="565" 
d="M309 290l-76 30q-124 47 -124 164q0 235 280 235q95 0 161 -21q19 -6 19 -27q0 -10 -13 -51q-5 -19 -25 -19q-19 0 -37 5q-67 16 -133 16q-130 0 -130 -108q0 -33 16.5 -55.5t62.5 -40.5l73 -29q73 -29 105 -65t32 -94q0 -126 -72 -184.5t-214 -58.5q-121 0 -194 30
q-19 8 -19 24q0 18 15 54q8 22 29 22q8 0 35 -9q72 -23 148 -23q71 0 109.5 24t38.5 86q0 31 -17 52.5t-70 42.5zM386 772q-21 -14 -45 -14q-34 0 -44 2q-19 2 -19 16q0 13 14 23l128 97q27 20 47 20q40 0 70 -2q26 -3 26 -18t-15 -24z" />
    <glyph glyph-name="sacute" unicode="&#x15b;" horiz-adv-x="435" 
d="M288 281q101 -36 101 -118q0 -83 -49 -129q-51 -47 -167 -47q-107 0 -163 24q-14 6 -14 19q0 18 16 56q7 16 24 16q12 0 26 -6q55 -19 124 -19q58 0 77 22q16 19 16 44q0 17 -11.5 27.5t-48.5 22.5l-59 19q-101 34 -101 119q0 91 61 137q50 40 161 40q76 0 123 -14
q18 -4 18 -20t-12 -56q-5 -14 -22 -14q-8 0 -23 3q-60 12 -101 12q-51 0 -73 -16q-21 -17 -21 -51q0 -30 59 -51zM296 596q-19 -17 -40 -17q-13 0 -37 3q-21 4 -21 18q0 11 11 22l106 116q18 21 40 21q39 0 62 -3q20 -4 20 -18q0 -12 -11 -22z" />
    <glyph glyph-name="Scircumflex" unicode="&#x15c;" horiz-adv-x="565" 
d="M309 290l-76 30q-124 47 -124 164q0 235 280 235q95 0 161 -21q19 -6 19 -27q0 -10 -13 -51q-5 -19 -25 -19q-19 0 -37 5q-67 16 -133 16q-130 0 -130 -108q0 -33 16.5 -55.5t62.5 -40.5l73 -29q73 -29 105 -65t32 -94q0 -126 -72 -184.5t-214 -58.5q-121 0 -194 30
q-19 8 -19 24q0 18 15 54q8 22 29 22q8 0 35 -9q72 -23 148 -23q71 0 109.5 24t38.5 86q0 31 -17 52.5t-70 42.5zM264 758q-30 0 -45 3q-16 4 -16 16q0 10 13 21l116 101q29 25 51 25h42q24 0 39 -22l79 -102q8 -11 8 -19q0 -14 -20 -19q-12 -3 -39 -3q-21 0 -38 19l-62 63
l-84 -64q-25 -19 -44 -19z" />
    <glyph glyph-name="scircumflex" unicode="&#x15d;" horiz-adv-x="435" 
d="M288 281q101 -36 101 -118q0 -83 -49 -129q-51 -47 -167 -47q-107 0 -163 24q-14 6 -14 19q0 18 16 56q7 16 24 16q12 0 26 -6q55 -19 124 -19q58 0 77 22q16 19 16 44q0 17 -11.5 27.5t-48.5 22.5l-59 19q-101 34 -101 119q0 91 61 137q50 40 161 40q76 0 123 -14
q18 -4 18 -20t-12 -56q-5 -14 -22 -14q-8 0 -23 3q-60 12 -101 12q-51 0 -73 -16q-21 -17 -21 -51q0 -30 59 -51zM177 575q-21 0 -39 2q-16 2 -16 16q0 11 13 24l106 117q22 24 44 24h46q20 0 33 -24l61 -120q5 -9 5 -19q0 -14 -19 -18q-18 -2 -35 -2q-21 0 -33 19l-48 81
l-81 -81q-19 -19 -37 -19z" />
    <glyph glyph-name="Scedilla" unicode="&#x15e;" horiz-adv-x="565" 
d="M260 -54q81 -5 81 -81q0 -70 -40 -98.5t-114 -28.5q-25 0 -47 5q-19 4 -19 21q0 12 5 30q5 20 25 20q7 0 23 -2q9 -1 28 -1q25 0 36 9t11 32q0 26 -33 26h-18q-20 0 -20 18q0 7 8 33l19 58q-101 3 -165 30q-19 8 -19 24q0 18 15 54q8 22 29 22q8 0 35 -9q72 -23 148 -23
q71 0 109.5 24t38.5 86q0 31 -17 52.5t-70 42.5l-76 30q-124 47 -124 164q0 235 280 235q95 0 161 -21q19 -6 19 -27q0 -10 -13 -51q-5 -19 -25 -19q-19 0 -37 5q-67 16 -133 16q-130 0 -130 -108q0 -33 16.5 -55.5t62.5 -40.5l73 -29q73 -29 105 -65t32 -94
q0 -117 -62.5 -175.5t-185.5 -66.5z" />
    <glyph glyph-name="scedilla" unicode="&#x15f;" horiz-adv-x="435" 
d="M194 -52q80 -4 80 -77q0 -67 -39 -94.5t-112 -27.5q-32 0 -47 5q-17 6 -18 20q0 11 6 29q5 19 25 19q7 0 21 -2q9 -1 28 -1q24 0 34.5 8.5t10.5 30.5q0 25 -31 25h-18q-20 0 -20 18q0 8 8 32l19 55q-87 4 -131 23q-14 6 -14 19q0 18 16 56q7 16 24 16q12 0 26 -6
q55 -19 124 -19q58 0 77 22q16 19 16 44q0 17 -11.5 27.5t-48.5 22.5l-59 19q-101 34 -101 119q0 91 61 137q50 40 161 40q76 0 123 -14q18 -4 18 -20t-12 -56q-5 -14 -22 -14q-8 0 -23 3q-60 12 -101 12q-51 0 -73 -16q-21 -17 -21 -51q0 -30 59 -51l59 -20
q101 -36 101 -118q0 -83 -49 -129q-44 -40 -133 -46z" />
    <glyph glyph-name="Scaron" unicode="&#x160;" horiz-adv-x="565" 
d="M309 290l-76 30q-124 47 -124 164q0 235 280 235q95 0 161 -21q19 -6 19 -27q0 -10 -13 -51q-5 -19 -25 -19q-19 0 -37 5q-67 16 -133 16q-130 0 -130 -108q0 -33 16.5 -55.5t62.5 -40.5l73 -29q73 -29 105 -65t32 -94q0 -126 -72 -184.5t-214 -58.5q-121 0 -194 30
q-19 8 -19 24q0 18 15 54q8 22 29 22q8 0 35 -9q72 -23 148 -23q71 0 109.5 24t38.5 86q0 31 -17 52.5t-70 42.5zM511 926q30 0 45 -3q16 -2 16 -16q0 -11 -13 -21l-116 -101q-28 -24 -51 -24h-41q-23 0 -39 21l-80 102q-8 9 -8 19q0 15 21 19q24 3 38 3q19 0 38 -19l61 -63
l86 64q25 19 43 19z" />
    <glyph glyph-name="scaron" unicode="&#x161;" horiz-adv-x="435" 
d="M288 281q101 -36 101 -118q0 -83 -49 -129q-51 -47 -167 -47q-107 0 -163 24q-14 6 -14 19q0 18 16 56q7 16 24 16q12 0 26 -6q55 -19 124 -19q58 0 77 22q16 19 16 44q0 17 -11.5 27.5t-48.5 22.5l-59 19q-101 34 -101 119q0 91 61 137q50 40 161 40q76 0 123 -14
q18 -4 18 -20t-12 -56q-5 -14 -22 -14q-8 0 -23 3q-60 12 -101 12q-51 0 -73 -16q-21 -17 -21 -51q0 -30 59 -51zM398 762q21 0 39 -2q17 -2 17 -16q0 -11 -13 -24l-106 -116q-23 -25 -41 -25h-50q-20 0 -32 25l-60 117q-6 10 -6 21q0 14 18 18q18 2 36 2q20 0 32 -19
l48 -79l82 80q18 18 36 18z" />
    <glyph glyph-name="uni0162" unicode="&#x162;" horiz-adv-x="585" 
d="M247 -54q81 -5 81 -81q0 -70 -40 -98.5t-114 -28.5q-25 0 -47 5q-19 4 -19 21q0 12 5 30q5 20 25 20q7 0 23 -2q9 -1 28 -1q25 0 36 9t11 32q0 26 -33 26h-18q-20 0 -20 18q0 7 8 33l23 69h-2q-20 0 -20 19q0 5 2 17l124 571h-178q-21 0 -21 15q0 10 11 63q5 23 28 23
h469q23 0 23 -15q0 -17 -12 -68q-4 -18 -28 -18h-177l-125 -580q-4 -27 -27 -27h-1z" />
    <glyph glyph-name="uni0163" unicode="&#x163;" horiz-adv-x="348" 
d="M191 -52q80 -4 80 -77q0 -67 -39 -94.5t-112 -27.5q-32 0 -47 5q-17 6 -18 20q0 12 6 31q6 17 25 17q7 0 21 -2q9 -1 28 -1q24 0 34.5 8.5t10.5 30.5q0 25 -31 25h-18q-20 0 -20 18q0 8 8 32l26 75q-68 27 -68 99q0 36 14 104l42 191h-51q-19 0 -19 16q0 15 9 54
q7 23 30 23h52l27 111q7 27 29 27h57q19 0 19 -17q0 -14 -4 -30l-20 -91h84q25 0 25 -19q0 -20 -10 -53q-5 -21 -30 -21h-87l-45 -205q-6 -26 -6 -52q0 -30 20 -45q15 -11 68 -16q21 -3 21 -23q0 -15 -8 -47q-7 -22 -31 -22q-30 0 -57 3z" />
    <glyph glyph-name="Tcaron" unicode="&#x164;" horiz-adv-x="585" 
d="M290 25q-4 -27 -27 -27h-69q-20 0 -20 19q0 5 2 17l124 571h-178q-21 0 -21 15q0 10 11 63q5 23 28 23h469q23 0 23 -15q0 -17 -12 -68q-4 -18 -28 -18h-177zM507 926q30 0 45 -3q16 -2 16 -16q0 -11 -13 -21l-116 -101q-28 -24 -51 -24h-41q-23 0 -39 21l-80 102
q-8 9 -8 19q0 15 21 19q24 3 38 3q19 0 38 -19l61 -63l86 64q25 19 43 19z" />
    <glyph glyph-name="tcaron" unicode="&#x165;" horiz-adv-x="348" 
d="M244 402l-45 -205q-6 -26 -6 -52q0 -30 20 -45q15 -11 68 -16q21 -3 21 -23q0 -15 -8 -47q-7 -22 -31 -22q-87 1 -136.5 25t-49.5 90q0 36 14 104l42 191h-51q-19 0 -19 16q0 15 9 54q7 23 30 23h52l27 111q7 27 29 27h57q19 0 19 -17q0 -14 -4 -30l-20 -91h84
q25 0 25 -19q0 -20 -10 -53q-5 -21 -30 -21h-87zM419 750h32q27 0 27 -28q0 -20 -8 -47q-20 -64 -82 -128q-15 -17 -32 -17q-13 0 -24 7q-13 8 -13 21q0 10 11 26q39 53 50 128q7 38 39 38z" />
    <glyph glyph-name="Tbar" unicode="&#x166;" horiz-adv-x="585" 
d="M296 25q-4 -27 -27 -27h-69q-20 0 -20 19q0 5 2 17l66 305h-115q-19 0 -19 17q0 10 9 50q4 22 27 22h117l39 177h-178q-21 0 -21 15q0 10 11 63q5 23 28 23h469q23 0 23 -15q0 -17 -12 -68q-4 -18 -28 -18h-177l-39 -177h127q19 0 19 -16q0 -7 -10 -54q-4 -19 -27 -19
h-128z" />
    <glyph glyph-name="tbar" unicode="&#x167;" horiz-adv-x="348" 
d="M244 402l-16 -73h78q19 0 19 -18q0 -12 -8 -43q-5 -19 -27 -19h-80l-11 -52q-6 -26 -6 -52q0 -30 20 -45q15 -11 68 -16q21 -3 21 -23q0 -15 -8 -47q-7 -22 -31 -22q-87 1 -136.5 25t-49.5 90q0 36 14 104l8 38h-37q-20 0 -20 17q0 19 7 40q7 23 27 23h41l16 73h-51
q-19 0 -19 16q0 15 9 54q7 23 30 23h52l27 111q7 27 29 27h57q19 0 19 -17q0 -14 -4 -30l-20 -91h84q25 0 25 -19q0 -20 -10 -53q-5 -21 -30 -21h-87z" />
    <glyph glyph-name="Utilde" unicode="&#x168;" horiz-adv-x="682" 
d="M691 675l-84 -392q-19 -87 -32.5 -130t-37.5 -73q-38 -49 -97 -71t-153 -22q-40 0 -74.5 7t-67 23.5t-51.5 49t-19 77.5q0 52 18 137l85 402q6 25 29 25h68q19 0 19 -18q0 -10 -3 -21l-88 -415q-10 -46 -10 -78q0 -92 114 -92q95 0 134 45q29 32 48 119l93 435
q6 25 27 25h66q18 0 18 -16q0 -7 -2 -17zM333 761q-21 0 -32 3q-12 5 -12 17q0 9 8 28q37 90 102 90q21 0 72 -27q34 -19 56 -19q25 0 42 30q11 21 32 21q19 0 29 -3q13 -4 13 -16q0 -13 -12 -39q-36 -81 -97 -81q-30 0 -79 26q-39 20 -54 20q-23 0 -39 -28q-4 -7 -6 -10
t-5.5 -6.5t-7.5 -4.5t-10 -1z" />
    <glyph glyph-name="utilde" unicode="&#x169;" horiz-adv-x="573" 
d="M468 86q-10 -46 -48 -61q-94 -38 -229 -38q-140 0 -140 94q0 37 10 84l66 306q5 26 26 26h65q20 0 20 -17q0 -6 -3 -21l-62 -285q-6 -28 -6 -49q0 -45 71 -45q56 0 94 14q14 6 23 15t12 26l72 336q5 26 27 26h64q20 0 20 -17q0 -5 -3 -20zM245 588q-15 0 -29 2
q-15 2 -15 18q0 8 8 29q38 89 99 89q23 0 67 -26q33 -20 53 -20q24 0 40 30q11 21 26 21q24 0 33 -3q12 -2 12 -15q0 -15 -11 -39q-37 -82 -95 -82q-30 0 -74 26q-32 19 -48 19q-25 0 -39 -26q-6 -11 -8 -14t-7 -6t-12 -3z" />
    <glyph glyph-name="Umacron" unicode="&#x16a;" horiz-adv-x="682" 
d="M691 675l-84 -392q-19 -87 -32.5 -130t-37.5 -73q-38 -49 -97 -71t-153 -22q-40 0 -74.5 7t-67 23.5t-51.5 49t-19 77.5q0 52 18 137l85 402q6 25 29 25h68q19 0 19 -18q0 -10 -3 -21l-88 -415q-10 -46 -10 -78q0 -92 114 -92q95 0 134 45q29 32 48 119l93 435
q6 25 27 25h66q18 0 18 -16q0 -7 -2 -17zM568 782h-257q-21 0 -21 18q0 9 9 45q6 24 31 24h255q22 0 22 -17q0 -10 -9 -48q-6 -22 -30 -22z" />
    <glyph glyph-name="umacron" unicode="&#x16b;" horiz-adv-x="573" 
d="M468 86q-10 -46 -48 -61q-94 -38 -229 -38q-140 0 -140 94q0 37 10 84l66 306q5 26 26 26h65q20 0 20 -17q0 -6 -3 -21l-62 -285q-6 -28 -6 -49q0 -45 71 -45q56 0 94 14q14 6 23 15t12 26l72 336q5 26 27 26h64q20 0 20 -17q0 -5 -3 -20zM459 600h-224q-22 0 -22 19
q0 16 9 46q6 23 30 23h223q23 0 23 -18q0 -12 -10 -47q-5 -23 -29 -23z" />
    <glyph glyph-name="Ubreve" unicode="&#x16c;" horiz-adv-x="682" 
d="M691 675l-84 -392q-19 -87 -32.5 -130t-37.5 -73q-38 -49 -97 -71t-153 -22q-40 0 -74.5 7t-67 23.5t-51.5 49t-19 77.5q0 52 18 137l85 402q6 25 29 25h68q19 0 19 -18q0 -10 -3 -21l-88 -415q-10 -46 -10 -78q0 -92 114 -92q95 0 134 45q29 32 48 119l93 435
q6 25 27 25h66q18 0 18 -16q0 -7 -2 -17zM569 915q22 0 29 -2q14 -4 14 -19q0 -18 -11 -45q-39 -94 -162 -94q-59 0 -99.5 29t-40.5 82q0 19 3 31q5 15 25 17q6 1 23 1q25 0 26 -19q2 -19 6 -30q14 -31 66 -31q40 0 59 15t31 45q5 12 11 16t20 4z" />
    <glyph glyph-name="ubreve" unicode="&#x16d;" horiz-adv-x="573" 
d="M468 86q-10 -46 -48 -61q-94 -38 -229 -38q-140 0 -140 94q0 37 10 84l66 306q5 26 26 26h65q20 0 20 -17q0 -6 -3 -21l-62 -285q-6 -28 -6 -49q0 -45 71 -45q56 0 94 14q14 6 23 15t12 26l72 336q5 26 27 26h64q20 0 20 -17q0 -5 -3 -20zM474 738q18 0 30 -3
q12 -2 12 -19q0 -15 -11 -44q-20 -48 -56 -74t-101 -26q-64 0 -97 29.5t-33 74.5q0 22 3 36q6 21 18 23q12 3 27 3q24 0 24 -20q0 -23 2 -30q9 -37 65 -37q38 0 56 16.5t32 48.5q8 22 29 22z" />
    <glyph glyph-name="Uring" unicode="&#x16e;" horiz-adv-x="682" 
d="M691 675l-84 -392q-19 -87 -32.5 -130t-37.5 -73q-38 -49 -97 -71t-153 -22q-40 0 -74.5 7t-67 23.5t-51.5 49t-19 77.5q0 52 18 137l85 402q6 25 29 25h68q19 0 19 -18q0 -10 -3 -21l-88 -415q-10 -46 -10 -78q0 -92 114 -92q95 0 134 45q29 32 48 119l93 435
q6 25 27 25h66q18 0 18 -16q0 -7 -2 -17zM540 840q0 -49 -26.5 -76.5t-74.5 -27.5q-39 0 -61.5 22t-22.5 62q0 48 26.5 76.5t73.5 28.5q40 0 62.5 -22.5t22.5 -62.5zM500 838q0 49 -49 49q-25 0 -41.5 -17t-16.5 -45q0 -52 50 -52q26 0 41.5 17t15.5 48z" />
    <glyph glyph-name="uring" unicode="&#x16f;" horiz-adv-x="573" 
d="M468 86q-10 -46 -48 -61q-94 -38 -229 -38q-140 0 -140 94q0 37 10 84l66 306q5 26 26 26h65q20 0 20 -17q0 -6 -3 -21l-62 -285q-6 -28 -6 -49q0 -45 71 -45q56 0 94 14q14 6 23 15t12 26l72 336q5 26 27 26h64q20 0 20 -17q0 -5 -3 -20zM451 682q0 -50 -29 -79.5
t-78 -29.5q-41 0 -65 23.5t-24 65.5q0 47 29.5 77t77.5 30q41 0 65 -23t24 -64zM409 681q0 51 -52 51q-27 0 -44.5 -18t-17.5 -48q0 -56 53 -56q29 0 45 18.5t16 52.5z" />
    <glyph glyph-name="Uhungarumlaut" unicode="&#x170;" horiz-adv-x="682" 
d="M691 675l-84 -392q-19 -87 -32.5 -130t-37.5 -73q-38 -49 -97 -71t-153 -22q-40 0 -74.5 7t-67 23.5t-51.5 49t-19 77.5q0 52 18 137l85 402q6 25 29 25h68q19 0 19 -18q0 -10 -3 -21l-88 -415q-10 -46 -10 -78q0 -92 114 -92q95 0 134 45q29 32 48 119l93 435
q6 25 27 25h66q18 0 18 -16q0 -7 -2 -17zM378 772q-19 -14 -43 -14q-30 0 -39 2q-20 4 -20 16t15 25l117 97q23 18 46 18q38 0 57 -3q23 -2 23 -16q0 -15 -16 -26zM584 772q-20 -14 -44 -14q-29 0 -40 2q-20 4 -20 16t16 25l117 97q23 18 46 18q38 0 56 -3q24 -3 24 -16
q0 -15 -16 -26z" />
    <glyph glyph-name="uhungarumlaut" unicode="&#x171;" horiz-adv-x="573" 
d="M468 86q-10 -46 -48 -61q-94 -38 -229 -38q-140 0 -140 94q0 37 10 84l66 306q5 26 26 26h65q20 0 20 -17q0 -6 -3 -21l-62 -285q-6 -28 -6 -49q0 -45 71 -45q56 0 94 14q14 6 23 15t12 26l72 336q5 26 27 26h64q20 0 20 -17q0 -5 -3 -20zM303 596q-19 -17 -39 -17
q-19 0 -31 3q-22 4 -22 19q0 9 11 22l101 115q18 21 41 21q33 0 52 -4q19 -3 19 -17t-10 -23zM474 596q-19 -17 -39 -17q-19 0 -31 3q-20 4 -20 19q0 11 9 22l102 115q18 21 40 21q33 0 53 -4t20 -17q0 -11 -12 -23z" />
    <glyph glyph-name="Uogonek" unicode="&#x172;" horiz-adv-x="682" 
d="M691 675l-84 -392q-19 -87 -32.5 -130t-37.5 -73q-60 -77 -184 -90q-44 -29 -70.5 -58.5t-26.5 -67.5q0 -20 12 -31t34 -11q10 0 25.5 0.5t17.5 0.5q9 0 13.5 -3.5t6.5 -14.5q3 -14 3 -29q-1 -12 -6 -16.5t-19 -8.5q-21 -5 -67 -5q-110 0 -110 91q0 92 100 151
q-38 2 -69.5 10t-60 25t-45 48t-16.5 73q0 52 18 137l85 402q6 25 29 25h68q19 0 19 -18q0 -10 -3 -21l-88 -415q-10 -46 -10 -78q0 -92 114 -92q95 0 134 45q29 32 48 119l93 435q6 25 27 25h66q18 0 18 -16q0 -7 -2 -17z" />
    <glyph glyph-name="uogonek" unicode="&#x173;" horiz-adv-x="573" 
d="M468 86q-6 -25 -16 -38.5t-29 -21.5q-4 -2 -25 -15t-29 -18.5l-26.5 -18t-27 -22.5l-20 -23.5t-16 -28t-4.5 -29.5q0 -40 43 -40q9 0 23.5 0.5t16.5 0.5q17 0 21 -18q4 -16 4 -27q-1 -11 -6 -16t-19 -8q-24 -5 -65 -5q-106 0 -106 88q0 51 27.5 84.5t76.5 64.5
q-41 -8 -100 -8q-140 0 -140 94q0 37 10 84l66 306q5 26 26 26h65q20 0 20 -17q0 -6 -3 -21l-62 -285q-6 -28 -6 -49q0 -45 71 -45q56 0 94 14q14 6 23 15t12 26l72 336q5 26 27 26h64q20 0 20 -17q0 -5 -3 -20z" />
    <glyph glyph-name="Wcircumflex" unicode="&#x174;" horiz-adv-x="932" 
d="M534 557q-22 -51 -239 -500q-15 -33 -34 -46.5t-52 -13.5h-30q-59 0 -59 55q-2 328 -2 600q0 21 3 33q3 18 22 20q24 4 75 4q23 0 23 -27q-7 -466 -11 -562q50 120 243 512q15 30 28.5 42t40.5 12h29q30 0 40.5 -11.5t12.5 -41.5q20 -340 22 -514q27 81 228 560
q12 30 34 30q53 0 73 -4q13 -2 13 -16q0 -15 -11 -39l-256 -592q-13 -31 -31.5 -46t-52.5 -15h-26q-36 0 -49.5 14t-15.5 47q-16 328 -18 499zM454 758q-30 0 -45 3q-16 4 -16 16q0 10 13 21l116 101q29 25 51 25h42q24 0 39 -22l79 -102q8 -11 8 -19q0 -14 -20 -19
q-12 -3 -39 -3q-21 0 -38 19l-62 63l-84 -64q-25 -19 -44 -19z" />
    <glyph glyph-name="wcircumflex" unicode="&#x175;" horiz-adv-x="748" 
d="M406 357q-29 -62 -156 -310q-15 -30 -33 -40t-49 -10h-19q-53 0 -56 52l-18 391q-1 12 -1 28q0 23 21 26q40 4 72 4q22 0 22 -26q4 -127 7 -362q43 98 154 311q17 31 31 43t39 12h14q25 0 36 -11t14 -40q21 -217 25 -314q36 90 155 359q12 28 34 28q42 0 70 -5
q12 -1 12 -18q0 -8 -12 -34l-184 -394q-12 -27 -30 -38.5t-48 -11.5h-19q-55 0 -59 50q-20 239 -22 310zM343 575q-21 0 -39 2q-16 2 -16 16q0 11 13 24l106 117q22 24 44 24h46q20 0 33 -24l61 -120q5 -9 5 -19q0 -14 -19 -18q-18 -2 -35 -2q-21 0 -33 19l-48 81l-81 -81
q-19 -19 -37 -19z" />
    <glyph glyph-name="Ycircumflex" unicode="&#x176;" horiz-adv-x="577" 
d="M307 28q-3 -30 -29 -30h-67q-20 0 -20 20q0 7 4 25l53 255l-142 358q-8 22 -8 30q0 14 13 19q11 4 84 4q20 0 30 -25q74 -194 99 -271q53 75 209 268q22 28 44 28q66 0 82 -4q9 -3 9 -15t-17 -32l-288 -357zM273 758q-30 0 -45 3q-16 4 -16 16q0 10 13 21l116 101
q29 25 51 25h42q24 0 39 -22l79 -102q8 -11 8 -19q0 -14 -20 -19q-12 -3 -39 -3q-21 0 -38 19l-62 63l-84 -64q-25 -19 -44 -19z" />
    <glyph glyph-name="ycircumflex" unicode="&#x177;" horiz-adv-x="573" 
d="M340 17q-63 -30 -150 -30q-140 0 -140 95q0 32 10 82l67 308q5 25 27 25h65q19 0 19 -17q0 -6 -3 -21l-61 -285q-7 -28 -7 -52q0 -42 71 -42q56 0 95 15q15 5 23 14q8 12 12 31l71 331q5 26 29 26h62q20 0 20 -17q0 -9 -2 -17l-92 -434q-18 -84 -38 -124
q-38 -76 -121 -107.5t-234 -31.5q-29 0 -29 24t3 39q5 32 28 32q119 1 172 18.5t74 51.5q17 28 25 67zM252 575q-21 0 -39 2q-16 2 -16 16q0 11 13 24l106 117q22 24 44 24h46q20 0 33 -24l61 -120q5 -9 5 -19q0 -14 -19 -18q-18 -2 -35 -2q-21 0 -33 19l-48 81l-81 -81
q-19 -19 -37 -19z" />
    <glyph glyph-name="Ydieresis" unicode="&#x178;" horiz-adv-x="577" 
d="M307 28q-3 -30 -29 -30h-67q-20 0 -20 20q0 7 4 25l53 255l-142 358q-8 22 -8 30q0 14 13 19q11 4 84 4q20 0 30 -25q74 -194 99 -271q53 75 209 268q22 28 44 28q66 0 82 -4q9 -3 9 -15t-17 -32l-288 -357zM357 842q0 -41 -19 -60q-19 -17 -46 -17q-50 0 -50 45
q0 38 19 58q19 19 47 19q49 0 49 -45zM553 842q0 -40 -20 -60q-19 -17 -47 -17q-48 0 -48 45q0 39 19 58q18 19 46 19q50 0 50 -45z" />
    <glyph glyph-name="Zacute" unicode="&#x179;" horiz-adv-x="595" 
d="M507 0h-471q-51 0 -51 44q0 47 35 83l463 478h-342q-23 0 -23 19q0 8 10 54q7 28 32 28h414q56 0 56 -49q0 -51 -43 -95l-449 -461h383q26 0 26 -20q0 -16 -11 -60q-5 -21 -29 -21zM412 772q-21 -14 -45 -14q-34 0 -44 2q-19 2 -19 16q0 13 14 23l128 97q27 20 47 20
q40 0 70 -2q26 -3 26 -18t-15 -24z" />
    <glyph glyph-name="zacute" unicode="&#x17a;" horiz-adv-x="481" 
d="M392 0h-356q-49 0 -49 43q0 44 41 81l309 276h-246q-19 0 -19 16q0 12 11 55q7 24 29 24h314q53 0 53 -45q0 -43 -46 -86l-300 -269h279q20 0 20 -20q0 -8 -11 -56q-4 -19 -29 -19zM326 596q-19 -17 -40 -17q-13 0 -37 3q-21 4 -21 18q0 11 11 22l106 116q18 21 40 21
q39 0 62 -3q20 -4 20 -18q0 -12 -11 -22z" />
    <glyph glyph-name="Zdotaccent" unicode="&#x17b;" horiz-adv-x="595" 
d="M507 0h-471q-51 0 -51 44q0 47 35 83l463 478h-342q-23 0 -23 19q0 8 10 54q7 28 32 28h414q56 0 56 -49q0 -51 -43 -95l-449 -461h383q26 0 26 -20q0 -16 -11 -60q-5 -21 -29 -21zM447 842q0 -41 -20 -60q-17 -17 -45 -17q-50 0 -50 45q0 38 20 58q18 19 45 19
q50 0 50 -45z" />
    <glyph glyph-name="zdotaccent" unicode="&#x17c;" horiz-adv-x="481" 
d="M392 0h-356q-49 0 -49 43q0 44 41 81l309 276h-246q-19 0 -19 16q0 12 11 55q7 24 29 24h314q53 0 53 -45q0 -43 -46 -86l-300 -269h279q20 0 20 -20q0 -8 -11 -56q-4 -19 -29 -19zM358 674q0 -40 -20 -60q-16 -17 -45 -17q-50 0 -50 45q0 35 20 57q16 19 45 19
q50 0 50 -44z" />
    <glyph glyph-name="Zcaron" unicode="&#x17d;" horiz-adv-x="595" 
d="M507 0h-471q-51 0 -51 44q0 47 35 83l463 478h-342q-23 0 -23 19q0 8 10 54q7 28 32 28h414q56 0 56 -49q0 -51 -43 -95l-449 -461h383q26 0 26 -20q0 -16 -11 -60q-5 -21 -29 -21zM510 926q30 0 45 -3q16 -2 16 -16q0 -11 -13 -21l-116 -101q-28 -24 -51 -24h-41
q-23 0 -39 21l-80 102q-8 9 -8 19q0 15 21 19q24 3 38 3q19 0 38 -19l61 -63l86 64q25 19 43 19z" />
    <glyph glyph-name="zcaron" unicode="&#x17e;" horiz-adv-x="481" 
d="M392 0h-356q-49 0 -49 43q0 44 41 81l309 276h-246q-19 0 -19 16q0 12 11 55q7 24 29 24h314q53 0 53 -45q0 -43 -46 -86l-300 -269h279q20 0 20 -20q0 -8 -11 -56q-4 -19 -29 -19zM409 762q21 0 39 -2q17 -2 17 -16q0 -11 -13 -24l-106 -116q-23 -25 -41 -25h-50
q-19 0 -32 25l-60 117q-6 10 -6 21q0 14 18 18q18 2 36 2q20 0 32 -19l48 -79l82 80q18 18 36 18z" />
    <glyph glyph-name="longs" unicode="&#x17f;" horiz-adv-x="272" 
d="M142 26q-4 -28 -29 -28h-63q-20 0 -20 18q0 5 3 17l110 517q24 109 74 147q70 54 189 54q34 0 34 -25q0 -22 -5 -44q-5 -23 -28 -23q-51 -1 -79 -11t-46 -31q-19 -22 -30 -74z" />
    <glyph glyph-name="florin" unicode="&#x192;" horiz-adv-x="499" 
d="M338 363l-63 -300q-22 -110 -67 -145q-48 -39 -142 -39q-46 0 -65 7q-12 4 -12 23q0 15 11 52q6 17 24 17q2 0 18.5 -1.5t28.5 -1.5q44 0 63 22q18 20 30 80l61 286h-82q-19 0 -19 15q0 11 7 39q4 19 25 19h83l16 74q21 99 68 140q46 39 143 39q52 0 70 -7q13 -5 13 -24
q0 -15 -10 -51q-4 -17 -24 -17q-3 0 -21.5 2t-30.5 2q-48 0 -68 -24q-19 -24 -31 -77l-12 -57h111q19 0 19 -17q0 -18 -6 -39q-4 -17 -26 -17h-112z" />
    <glyph glyph-name="Aringacute" unicode="&#x1fa;" horiz-adv-x="625" 
d="M507 765q0 -46 -28 -71q17 -13 23 -56l72 -584q2 -18 2 -29q0 -17 -16 -24q-12 -4 -76 -4q-13 0 -18 6.5t-7 24.5l-21 170h-252l-93 -170q-10 -18 -16.5 -24.5t-18.5 -6.5q-67 0 -82 4q-11 3 -11 14q0 10 12 34l327 587q28 50 51 61q-16 21 -16 51q0 42 24.5 67t66.5 25
q36 0 56.5 -19.5t20.5 -55.5zM235 295h198q-25 229 -31 315zM468 871q-19 -11 -36 -11q-19 0 -35 2t-16 15q0 11 11 19l101 78q19 14 39 14q26 0 59 -3q18 -1 18 -15t-12 -21zM469 765q0 41 -43 41q-21 0 -36 -14.5t-15 -38.5q0 -22 12 -34t33 -12q22 0 35.5 15t13.5 43z
" />
    <glyph glyph-name="aringacute" unicode="&#x1fb;" horiz-adv-x="537" 
d="M432 89q-8 -35 -22 -52q-11 -14 -38 -24q-72 -26 -182 -26q-161 0 -161 125q0 114 83 160q49 27 160 27q41 0 93 -4l5 24q6 28 6 49q0 45 -80 45q-50 0 -103 -10l-39 -6q-13 0 -17 17q-6 30 -6 44q0 21 27 29q70 22 161 22q38 0 65 -3.5t53.5 -13t40.5 -31t14 -54.5
q0 -35 -11 -86zM350 220q-28 4 -79 4q-69 0 -99 -17q-36 -21 -36 -73q0 -62 78 -62q53 0 86 14q11 4 20 18q7 14 12 37zM438 679q0 -49 -28 -78t-77 -29q-42 0 -65 22.5t-23 64.5q0 48 29 77.5t77 29.5q41 0 64 -22.5t23 -64.5zM396 679q0 50 -50 50q-26 0 -43.5 -17.5
t-17.5 -47.5q0 -26 14 -40t38 -14q59 0 59 69zM383 810q-16 -16 -35 -16t-40 3q-18 4 -18 17q0 8 10 20l110 119q18 20 37 20q38 0 61 -5q17 -3 17 -16q0 -10 -11 -21z" />
    <glyph glyph-name="AEacute" unicode="&#x1fc;" horiz-adv-x="948" 
d="M111 24q-19 -26 -49 -26q-49 0 -77 2q-18 1 -18 17q0 12 16 30l494 590q33 40 57.5 54.5t66.5 14.5h373q23 0 23 -18q0 -12 -12 -64q-4 -19 -29 -19h-257l-42 -189h233q20 0 20 -17q0 -10 -11 -64q-4 -19 -28 -19h-234l-35 -159q-4 -18 -4 -29q0 -27 29 -27h252
q22 0 22 -18q0 -9 -12 -64q-6 -19 -29 -19h-302q-85 0 -85 67q0 25 6 50l20 88h-234zM339 303h179l67 300zM772 772q-21 -14 -45 -14q-34 0 -44 2q-19 2 -19 16q0 13 14 23l128 97q27 20 47 20q40 0 70 -2q26 -3 26 -18t-15 -24z" />
    <glyph glyph-name="aeacute" unicode="&#x1fd;" horiz-adv-x="819" 
d="M376 48q-78 -61 -189 -61q-79 0 -118.5 34t-39.5 93q0 114 81 158q53 28 170 28q11 0 86 -3l6 29q4 19 4 42q0 44 -83 44q-52 0 -104 -11q-30 -5 -33 -5q-13 0 -19 19q-8 29 -8 43q0 21 29 29q76 21 166 21q65 0 99.5 -15t41.5 -52q59 67 169 67q86 0 124 -34.5t38 -99.5
q0 -60 -16 -123q-5 -22 -15 -29q-9 -6 -23 -6h-284q-4 -21 -4 -51q0 -86 109 -86q59 0 112 14q23 5 29 5q14 0 19 -18q9 -36 9 -42q0 -17 -21 -26q-61 -25 -168 -25q-121 0 -167 61zM350 218q-40 2 -82 2q-77 0 -104 -19q-28 -19 -28 -70q0 -59 80 -59q34 0 73.5 10.5
t59.5 27.5q-5 17 -5 36q0 33 6 72zM475 299h209q9 27 9 62q0 32 -17.5 47t-61.5 15q-110 0 -139 -124zM517 596q-19 -17 -40 -17q-13 0 -37 3q-21 4 -21 18q0 11 11 22l106 116q18 21 40 21q40 0 62 -3q20 -4 20 -18q0 -12 -11 -22z" />
    <glyph glyph-name="Oslashacute" unicode="&#x1fe;" horiz-adv-x="693" 
d="M96 -13q-9 -9 -15 -9q-8 0 -33 22q-7 6 -7 12q0 8 7 15l44 53q-26 49 -26 127q0 108 34 232.5t99 194.5q81 86 224 86q120 0 177 -34l42 50q7 8 14 8t12 -4q28 -21 28 -28t-6 -14l-45 -54q33 -49 33 -133q0 -102 -33.5 -234.5t-94.5 -201.5q-43 -47 -98.5 -67.5
t-134.5 -20.5q-125 0 -183 45zM327 84q51 0 83.5 13.5t58.5 51.5q39 55 64 164.5t25 178.5q0 18 -4 44l-345 -414q30 -38 118 -38zM185 222q0 -21 1 -30l338 404q-31 26 -109 26q-87 0 -134 -56q-44 -51 -70 -157.5t-26 -186.5zM472 772q-21 -14 -45 -14q-34 0 -44 2
q-19 2 -19 16q0 13 14 23l128 97q27 20 47 20q40 0 70 -2q26 -3 26 -18t-15 -24z" />
    <glyph glyph-name="oslashacute" unicode="&#x1ff;" horiz-adv-x="548" 
d="M73 -28q-8 -8 -14 -8q-8 0 -30 20q-6 6 -6 11q0 6 7 13l36 42q-25 39 -25 104q0 74 22.5 156t69.5 132q63 67 181 67q84 0 128 -19l39 45q6 7 14 7q5 0 13 -6q22 -19 22 -24q0 -7 -6 -13l-37 -43q29 -39 29 -104q0 -64 -21.5 -150t-60.5 -138q-59 -77 -193 -77
q-88 0 -134 25zM249 78q73 0 106 49q21 33 36 102t15 106q0 10 -2 24l-227 -265q21 -16 72 -16zM151 163v-13l220 256q-23 11 -64 11q-67 0 -99 -43q-27 -34 -42 -101.5t-15 -109.5zM357 596q-19 -17 -40 -17q-13 0 -37 3q-21 4 -21 18q0 11 11 22l106 116q18 21 40 21
q40 0 62 -3q20 -4 20 -18q0 -12 -11 -22z" />
    <glyph glyph-name="uni0218" unicode="&#x218;" horiz-adv-x="565" 
d="M309 290l-76 30q-124 47 -124 164q0 235 280 235q95 0 161 -21q19 -6 19 -27q0 -10 -13 -51q-5 -19 -25 -19q-19 0 -37 5q-67 16 -133 16q-130 0 -130 -108q0 -33 16.5 -55.5t62.5 -40.5l73 -29q73 -29 105 -65t32 -94q0 -126 -72 -184.5t-214 -58.5q-121 0 -194 30
q-19 8 -19 24q0 18 15 54q8 22 29 22q8 0 35 -9q72 -23 148 -23q71 0 109.5 24t38.5 86q0 31 -17 52.5t-70 42.5zM234 -55h32q27 0 27 -27q0 -20 -8 -47q-22 -67 -82 -129q-16 -18 -31 -18q-12 0 -25 10q-13 8 -13 20q0 11 11 26q39 47 50 127q7 38 39 38z" />
    <glyph glyph-name="uni0219" unicode="&#x219;" horiz-adv-x="435" 
d="M288 281q101 -36 101 -118q0 -83 -49 -129q-51 -47 -167 -47q-107 0 -163 24q-14 6 -14 19q0 18 16 56q7 16 24 16q12 0 26 -6q55 -19 124 -19q58 0 77 22q16 19 16 44q0 17 -11.5 27.5t-48.5 22.5l-59 19q-101 34 -101 119q0 91 61 137q50 40 161 40q76 0 123 -14
q18 -4 18 -20t-12 -56q-5 -14 -22 -14q-8 0 -23 3q-60 12 -101 12q-51 0 -73 -16q-21 -17 -21 -51q0 -30 59 -51zM158 -55h32q27 0 27 -27q0 -20 -8 -47q-22 -67 -82 -129q-16 -18 -31 -18q-12 0 -25 10q-13 8 -13 20q0 11 11 26q39 47 50 127q7 38 39 38z" />
    <glyph glyph-name="uni021A" unicode="&#x21a;" horiz-adv-x="585" 
d="M290 25q-4 -27 -27 -27h-69q-20 0 -20 19q0 5 2 17l124 571h-178q-21 0 -21 15q0 10 11 63q5 23 28 23h469q23 0 23 -15q0 -17 -12 -68q-4 -18 -28 -18h-177zM207 -55h32q27 0 27 -27q0 -20 -8 -47q-22 -67 -82 -129q-16 -18 -31 -18q-12 0 -25 10q-13 8 -13 20
q0 11 11 26q39 47 50 127q7 38 39 38z" />
    <glyph glyph-name="uni021B" unicode="&#x21b;" horiz-adv-x="348" 
d="M244 402l-45 -205q-6 -26 -6 -52q0 -30 20 -45q15 -11 68 -16q21 -3 21 -23q0 -15 -8 -47q-7 -22 -31 -22q-87 1 -136.5 25t-49.5 90q0 36 14 104l42 191h-51q-19 0 -19 16q0 15 9 54q7 23 30 23h52l27 111q7 27 29 27h57q19 0 19 -17q0 -14 -4 -30l-20 -91h84
q25 0 25 -19q0 -20 -10 -53q-5 -21 -30 -21h-87zM151 -55h32q27 0 27 -27q0 -20 -8 -47q-22 -67 -82 -129q-16 -18 -31 -18q-12 0 -25 10q-13 8 -13 20q0 11 11 26q39 47 50 127q7 38 39 38z" />
    <glyph glyph-name="circumflex" unicode="&#x2c6;" horiz-adv-x="197" 
d="M0 575q-21 0 -39 2q-16 2 -16 16q0 11 13 24l106 117q22 24 44 24h46q20 0 33 -24l61 -120q5 -9 5 -19q0 -14 -19 -18q-18 -2 -35 -2q-21 0 -33 19l-48 81l-81 -81q-19 -19 -37 -19z" />
    <glyph glyph-name="caron" unicode="&#x2c7;" horiz-adv-x="197" 
d="M197 762q21 0 39 -2q17 -2 17 -16q0 -11 -13 -24l-106 -116q-23 -25 -41 -25h-50q-19 0 -32 25l-60 117q-6 11 -6 21q0 14 18 18q18 2 36 2q20 0 32 -19l48 -79l82 80q18 18 36 18z" />
    <glyph glyph-name="breve" unicode="&#x2d8;" horiz-adv-x="197" 
d="M207 738q18 0 30 -3q12 -2 12 -19q0 -15 -11 -44q-20 -48 -56 -74t-101 -26q-64 0 -97 29.5t-33 74.5q0 22 3 36q6 21 18 23q12 3 27 3q24 0 24 -20q0 -23 2 -30q9 -37 65 -37q38 0 56 16.5t32 48.5q8 22 29 22z" />
    <glyph glyph-name="dotaccent" unicode="&#x2d9;" horiz-adv-x="197" 
d="M156 674q0 -40 -20 -60q-16 -17 -45 -17q-50 0 -50 45q0 35 20 57q16 19 45 19q50 0 50 -44z" />
    <glyph glyph-name="ring" unicode="&#x2da;" horiz-adv-x="197" 
d="M196 682q0 -50 -29 -79.5t-78 -29.5q-41 0 -65 23.5t-24 65.5q0 47 29.5 77t77.5 30q41 0 65 -23t24 -64zM154 681q0 51 -52 51q-27 0 -44.5 -18t-17.5 -48q0 -56 53 -56q29 0 45 18.5t16 52.5z" />
    <glyph glyph-name="ogonek" unicode="&#x2db;" horiz-adv-x="197" 
d="M204 7q-27 -16 -42 -27t-36.5 -29.5t-32 -39t-10.5 -42.5q0 -38 43 -38q9 0 23.5 0.5t16.5 0.5q17 0 21 -18q4 -16 4 -27q-1 -11 -6 -16t-19 -8q-24 -5 -65 -5q-106 0 -106 86q0 59 34.5 96t99.5 67h75z" />
    <glyph glyph-name="tilde" unicode="&#x2dc;" horiz-adv-x="197" 
d="M-27 588q-15 0 -29 2q-15 2 -15 18q0 8 8 29q38 89 99 89q23 0 67 -26q33 -20 53 -20q24 0 40 30q11 21 26 21q24 0 33 -3q12 -2 12 -15q0 -15 -11 -39q-37 -82 -95 -82q-30 0 -74 26q-32 19 -48 19q-25 0 -39 -26q-6 -11 -8 -14t-7 -6t-12 -3z" />
    <glyph glyph-name="hungarumlaut" unicode="&#x2dd;" horiz-adv-x="197" 
d="M-8 596q-19 -17 -39 -17q-19 0 -31 3q-22 4 -22 19q0 9 11 22l101 115q18 21 41 21q33 0 52 -4q19 -3 19 -17t-10 -23zM163 596q-19 -17 -39 -17q-19 0 -31 3q-20 4 -20 19q0 11 9 22l102 115q18 21 40 21q33 0 53 -4t20 -17q0 -11 -12 -23z" />
    <glyph glyph-name="uni0394" unicode="&#x394;" horiz-adv-x="673" 
d="M627 45q3 -12 3 -23q0 -22 -26 -22h-599q-19 0 -19 15q0 8 9 24l388 615q14 22 34 22h66q19 0 23 -22zM434 580q-37 -63 -311 -497h403q-83 439 -92 497z" />
    <glyph glyph-name="uni03A9" unicode="&#x3a9;" horiz-adv-x="733" 
d="M298 23q-4 -23 -29 -23h-205q-21 0 -21 14q0 7 7 46q3 14 8 18t17 4h159q-138 59 -138 213q0 76 25 158t75 139q88 97 257 97q126 0 183 -54t57 -159q0 -170 -77 -276q-55 -76 -157 -118h164q21 0 21 -16q0 -8 -7 -45q-3 -13 -7.5 -17t-17.5 -4h-217q-23 0 -23 18t11 69
q5 25 24 33q90 39 132 112q54 95 54 223q0 78 -37 115t-118 37q-115 0 -171 -72q-35 -44 -54 -114t-19 -130q0 -125 101 -171q15 -8 15 -26q0 -8 -12 -71z" />
    <glyph glyph-name="uni03BC" unicode="&#x3bc;" horiz-adv-x="606" 
d="M119 -179q-6 -25 -28 -25h-62q-22 0 -22 17q0 6 4 22l135 636q5 26 26 26h67q18 0 18 -18q0 -11 -3 -23l-60 -277q-7 -33 -7 -51q0 -46 77 -46q58 0 92 14q14 6 22 13t13 26l72 336q5 26 27 26h65q20 0 20 -18q0 -4 -2 -12.5t-2 -9.5l-81 -375q-9 -46 -47 -62
q-82 -33 -184 -33q-72 0 -98 26z" />
    <glyph glyph-name="pi" unicode="&#x3c0;" horiz-adv-x="618" 
d="M175 25q-2 -15 -8 -20t-21 -5h-59q-23 0 -23 17q0 8 4 24l77 358h-37q-21 0 -21 16q0 12 10 56q5 24 32 24h473q25 0 25 -18q0 -13 -10 -54q-6 -24 -30 -24h-39l-46 -215q-14 -67 -18 -112q-2 -28 -2 -46q0 -26 -30 -26h-58q-15 0 -19 7t-4 24q0 45 23 154l45 214h-183z
" />
    <glyph glyph-name="Wgrave" unicode="&#x1e80;" horiz-adv-x="932" 
d="M534 557q-22 -51 -239 -500q-15 -33 -34 -46.5t-52 -13.5h-30q-59 0 -59 55q-2 328 -2 600q0 21 3 33q3 18 22 20q24 4 75 4q23 0 23 -27q-7 -466 -11 -562q50 120 243 512q15 30 28.5 42t40.5 12h29q30 0 40.5 -11.5t12.5 -41.5q20 -340 22 -514q27 81 228 560
q12 30 34 30q53 0 73 -4q13 -2 13 -16q0 -15 -11 -39l-256 -592q-13 -31 -31.5 -46t-52.5 -15h-26q-36 0 -49.5 14t-15.5 47q-16 328 -18 499zM531 772l-134 101q-14 11 -14 22q0 18 23 19q21 2 73 2q21 0 44 -21l102 -97q12 -11 12 -22q0 -13 -15 -16q-14 -3 -47 -3
q-22 0 -44 15z" />
    <glyph glyph-name="wgrave" unicode="&#x1e81;" horiz-adv-x="748" 
d="M406 357q-29 -62 -156 -310q-15 -30 -33 -40t-49 -10h-19q-53 0 -56 52l-18 391q-1 12 -1 28q0 23 21 26q40 4 72 4q22 0 22 -26q4 -127 7 -362q43 98 154 311q17 31 31 43t39 12h14q25 0 36 -11t14 -40q21 -217 25 -314q36 90 155 359q12 28 34 28q42 0 70 -5
q12 -1 12 -18q0 -8 -12 -34l-184 -394q-12 -27 -30 -38.5t-48 -11.5h-19q-55 0 -59 50q-20 239 -22 310zM395 596l-105 119q-11 11 -11 23q0 17 22 19q28 2 62 2q21 0 37 -24l83 -116q9 -12 9 -22q0 -13 -19 -16q-9 -1 -39 -1q-24 0 -39 16z" />
    <glyph glyph-name="Wacute" unicode="&#x1e82;" horiz-adv-x="932" 
d="M534 557q-22 -51 -239 -500q-15 -33 -34 -46.5t-52 -13.5h-30q-59 0 -59 55q-2 328 -2 600q0 21 3 33q3 18 22 20q24 4 75 4q23 0 23 -27q-7 -466 -11 -562q50 120 243 512q15 30 28.5 42t40.5 12h29q30 0 40.5 -11.5t12.5 -41.5q20 -340 22 -514q27 81 228 560
q12 30 34 30q53 0 73 -4q13 -2 13 -16q0 -15 -11 -39l-256 -592q-13 -31 -31.5 -46t-52.5 -15h-26q-36 0 -49.5 14t-15.5 47q-16 328 -18 499zM587 772q-21 -14 -45 -14q-34 0 -44 2q-19 2 -19 16q0 13 14 23l128 97q27 20 47 20q40 0 70 -2q26 -3 26 -18t-15 -24z" />
    <glyph glyph-name="wacute" unicode="&#x1e83;" horiz-adv-x="748" 
d="M406 357q-29 -62 -156 -310q-15 -30 -33 -40t-49 -10h-19q-53 0 -56 52l-18 391q-1 12 -1 28q0 23 21 26q40 4 72 4q22 0 22 -26q4 -127 7 -362q43 98 154 311q17 31 31 43t39 12h14q25 0 36 -11t14 -40q21 -217 25 -314q36 90 155 359q12 28 34 28q42 0 70 -5
q12 -1 12 -18q0 -8 -12 -34l-184 -394q-12 -27 -30 -38.5t-48 -11.5h-19q-55 0 -59 50q-20 239 -22 310zM471 596q-19 -17 -40 -17q-13 0 -37 3q-21 4 -21 18q0 11 11 22l106 116q18 21 40 21q40 0 62 -3q20 -4 20 -18q0 -12 -11 -22z" />
    <glyph glyph-name="Wdieresis" unicode="&#x1e84;" horiz-adv-x="932" 
d="M534 557q-22 -51 -239 -500q-15 -33 -34 -46.5t-52 -13.5h-30q-59 0 -59 55q-2 328 -2 600q0 21 3 33q3 18 22 20q24 4 75 4q23 0 23 -27q-7 -466 -11 -562q50 120 243 512q15 30 28.5 42t40.5 12h29q30 0 40.5 -11.5t12.5 -41.5q20 -340 22 -514q27 81 228 560
q12 30 34 30q53 0 73 -4q13 -2 13 -16q0 -15 -11 -39l-256 -592q-13 -31 -31.5 -46t-52.5 -15h-26q-36 0 -49.5 14t-15.5 47q-16 328 -18 499zM534 842q0 -41 -19 -60q-19 -17 -46 -17q-50 0 -50 45q0 38 19 58q19 19 47 19q49 0 49 -45zM730 842q0 -40 -20 -60
q-19 -17 -47 -17q-48 0 -48 45q0 39 19 58q18 19 46 19q50 0 50 -45z" />
    <glyph glyph-name="wdieresis" unicode="&#x1e85;" horiz-adv-x="748" 
d="M406 357q-29 -62 -156 -310q-15 -30 -33 -40t-49 -10h-19q-53 0 -56 52l-18 391q-1 12 -1 28q0 23 21 26q40 4 72 4q22 0 22 -26q4 -127 7 -362q43 98 154 311q17 31 31 43t39 12h14q25 0 36 -11t14 -40q21 -217 25 -314q36 90 155 359q12 28 34 28q42 0 70 -5
q12 -1 12 -18q0 -8 -12 -34l-184 -394q-12 -27 -30 -38.5t-48 -11.5h-19q-55 0 -59 50q-20 239 -22 310zM422 674q0 -43 -19 -61q-17 -16 -46 -16q-50 0 -50 45q0 38 19 57q18 19 47 19q49 0 49 -44zM610 674q0 -42 -20 -61q-16 -16 -46 -16q-49 0 -49 45q0 37 19 57
q18 19 46 19q50 0 50 -44z" />
    <glyph glyph-name="Ygrave" unicode="&#x1ef2;" horiz-adv-x="577" 
d="M307 28q-3 -30 -29 -30h-67q-20 0 -20 20q0 7 4 25l53 255l-142 358q-8 22 -8 30q0 14 13 19q11 4 84 4q20 0 30 -25q74 -194 99 -271q53 75 209 268q22 28 44 28q66 0 82 -4q9 -3 9 -15t-17 -32l-288 -357zM337 772l-134 101q-14 11 -14 22q0 18 23 19q21 2 73 2
q21 0 44 -21l102 -97q12 -11 12 -22q0 -13 -15 -16q-14 -3 -47 -3q-22 0 -44 15z" />
    <glyph glyph-name="ygrave" unicode="&#x1ef3;" horiz-adv-x="573" 
d="M340 17q-63 -30 -150 -30q-140 0 -140 95q0 32 10 82l67 308q5 25 27 25h65q19 0 19 -17q0 -6 -3 -21l-61 -285q-7 -28 -7 -52q0 -42 71 -42q56 0 95 15q15 5 23 14q8 12 12 31l71 331q5 26 29 26h62q20 0 20 -17q0 -9 -2 -17l-92 -434q-18 -84 -38 -124
q-38 -76 -121 -107.5t-234 -31.5q-29 0 -29 24t3 39q5 32 28 32q119 1 172 18.5t74 51.5q17 28 25 67zM301 596l-105 119q-11 11 -11 23q0 17 22 19q28 2 62 2q21 0 37 -24l83 -116q9 -12 9 -22q0 -13 -19 -16q-9 -1 -39 -1q-24 0 -39 16z" />
    <glyph glyph-name="endash" unicode="&#x2013;" horiz-adv-x="565" 
d="M499 222h-432q-20 0 -20 17q0 11 11 54q5 22 28 22h430q22 0 22 -17q0 -7 -13 -56q-5 -20 -26 -20z" />
    <glyph glyph-name="emdash" unicode="&#x2014;" horiz-adv-x="849" 
d="M783 222h-716q-20 0 -20 17q0 9 11 54q5 22 28 22h716q20 0 20 -17q0 -13 -11 -56q-5 -20 -28 -20z" />
    <glyph glyph-name="quoteleft" unicode="&#x2018;" horiz-adv-x="201" 
d="M158 462h-37q-32 0 -32 28q0 51 41 123.5t95 117.5q21 18 32 18q14 0 30 -12q14 -13 14 -27q0 -11 -15 -26q-72 -73 -90 -184q-3 -20 -11 -29t-27 -9z" />
    <glyph glyph-name="quoteright" unicode="&#x2019;" horiz-adv-x="201" 
d="M206 749h39q18 0 24.5 -7t6.5 -21q0 -51 -42.5 -125.5t-93.5 -115.5q-23 -18 -32 -18q-15 0 -29 14q-15 12 -15 25q0 10 15 27q73 77 91 184q3 20 11 28.5t25 8.5z" />
    <glyph glyph-name="quotesinglbase" unicode="&#x201a;" horiz-adv-x="210" 
d="M77 109h38q18 0 24.5 -7t6.5 -21q0 -51 -42.5 -125t-93.5 -117q-18 -17 -33 -17q-14 0 -29 12q-13 12 -13 27q0 10 14 26q73 75 91 184q3 20 11 29t26 9z" />
    <glyph glyph-name="quotedblleft" unicode="&#x201c;" horiz-adv-x="391" 
d="M343 462h-38q-32 0 -32 28q0 51 43 126t93 115q23 18 33 18q13 0 29 -12q14 -13 14 -26q0 -11 -14 -27q-73 -75 -91 -184q-3 -20 -11 -29t-26 -9zM158 462h-37q-32 0 -32 28q0 51 41 123.5t95 117.5q21 18 32 18q14 0 30 -12q14 -13 14 -26q0 -12 -15 -27
q-72 -73 -90 -184q-3 -20 -11 -29t-27 -9z" />
    <glyph glyph-name="quotedblright" unicode="&#x201d;" horiz-adv-x="391" 
d="M207 749h39q31 0 31 -28q0 -51 -42.5 -125.5t-93.5 -115.5q-23 -18 -32 -18q-14 0 -29 13q-15 14 -15 26q0 10 15 27q73 77 90 184q3 19 11.5 28t25.5 9zM392 749h38q31 0 31 -28q0 -51 -42.5 -125.5t-93.5 -115.5q-23 -18 -32 -18q-14 0 -29 13q-15 14 -15 26
q0 10 15 27q74 78 90 184q3 20 11.5 28.5t26.5 8.5z" />
    <glyph glyph-name="quotedblbase" unicode="&#x201e;" horiz-adv-x="392" 
d="M77 109h38q18 0 24.5 -7t6.5 -21q0 -51 -42.5 -125t-93.5 -117q-18 -17 -33 -17q-14 0 -29 13q-13 10 -13 26q0 10 14 26q73 75 91 184q3 20 11 29t26 9zM261 109h38q18 0 24.5 -7t6.5 -21q0 -50 -42.5 -124t-93.5 -118q-20 -17 -32 -17q-13 0 -29 12q-14 13 -14 27
q0 10 14 26q73 75 91 184q3 20 11 29t26 9z" />
    <glyph glyph-name="dagger" unicode="&#x2020;" horiz-adv-x="475" 
d="M230 -63q-3 -23 -24 -23h-59q-19 0 -19 14q0 2 3 17l101 475h-134q-16 0 -16 13q0 10 12 63q4 19 22 19h137l38 178q5 23 24 23h60q18 0 18 -15q0 -6 -3 -18l-36 -168h133q17 0 17 -16q0 -11 -13 -65q-4 -14 -23 -14h-135z" />
    <glyph glyph-name="daggerdbl" unicode="&#x2021;" horiz-adv-x="475" 
d="M229 -63q-5 -23 -24 -23h-60q-19 0 -19 14q0 2 3 17l35 168h-130q-16 0 -16 13q0 9 12 64q4 19 22 19h133l45 211h-134q-16 0 -16 13q0 4 12 63q4 19 23 19h135l38 178q5 23 26 23h59q17 0 17 -15q0 -6 -3 -18l-36 -168h134q17 0 17 -12q0 -6 -14 -69q-3 -14 -22 -14
h-135l-44 -211h136q17 0 17 -13q0 -6 -14 -69q-3 -14 -22 -14h-138z" />
    <glyph glyph-name="bullet" unicode="&#x2022;" horiz-adv-x="363" 
d="M324 308q0 -93 -49 -138q-36 -35 -105 -35q-53 0 -84.5 25t-31.5 79q0 79 46 128q39 40 107 40q117 0 117 -99z" />
    <glyph glyph-name="ellipsis" unicode="&#x2026;" horiz-adv-x="978" 
d="M222 86q0 -50 -27 -76q-21 -21 -58 -21q-65 0 -65 59q0 41 25 71q23 24 61 24q64 0 64 -57zM527 86q0 -52 -26 -76q-21 -21 -59 -21q-64 0 -64 59q0 43 25 71q21 24 60 24q64 0 64 -57zM833 86q0 -50 -27 -76q-21 -21 -58 -21q-65 0 -65 59q0 43 25 71q21 24 61 24
q64 0 64 -57z" />
    <glyph glyph-name="perthousand" unicode="&#x2030;" horiz-adv-x="1239" 
d="M412 571q0 -57 -19.5 -139.5t-53.5 -124.5q-42 -52 -127 -52q-70 0 -103 26t-33 94q0 56 17.5 128.5t49.5 116.5q44 61 135 61q70 0 102 -22t32 -88zM330 560q0 31 -12.5 43t-46.5 12q-44 0 -66 -36q-20 -32 -34 -95t-14 -101q0 -34 14 -48t46 -14q45 0 65 33
q18 31 33 101.5t15 104.5zM258 -15q-12 -17 -26 -17q-15 0 -25 1t-10 9t10 21l448 690q13 22 30 22q15 0 25 -2q10 -1 10 -10q0 -7 -11 -24zM840 307q0 -57 -19.5 -139.5t-52.5 -124.5q-42 -52 -128 -52q-69 0 -102.5 26t-33.5 94q0 56 17.5 128.5t49.5 116.5q46 61 135 61
q70 0 102 -22t32 -88zM758 296q0 31 -12.5 43t-46.5 12q-44 0 -66 -36q-20 -32 -34 -95t-14 -101q0 -34 14 -48t46 -14q45 0 65 33q18 31 33 101.5t15 104.5zM1212 307q0 -57 -19.5 -139.5t-53.5 -124.5q-42 -52 -128 -52q-68 0 -101 26t-33 94q0 56 17 129t49 116
q44 61 135 61q70 0 102 -22t32 -88zM1131 296q0 31 -12.5 43t-47.5 12q-44 0 -66 -36q-19 -32 -33 -94.5t-14 -101.5q0 -34 13.5 -48t45.5 -14q45 0 65 33q19 31 34 101.5t15 104.5z" />
    <glyph glyph-name="guilsinglleft" unicode="&#x2039;" horiz-adv-x="311" 
d="M147 262l86 -158q7 -12 7 -21q0 -13 -17 -16q-24 -2 -52 -2q-18 0 -32 22l-93 157q-7 12 -7 24t15 27l152 148q23 23 45 23q39 0 53 -2q16 -3 16 -14q0 -10 -14 -24z" />
    <glyph glyph-name="guilsinglright" unicode="&#x203a;" horiz-adv-x="311" 
d="M175 269l-86 158q-7 12 -7 21q0 13 18 16q11 2 52 2q18 0 31 -21l93 -158q7 -12 7 -24t-15 -27l-152 -148q-23 -23 -45 -23q-39 0 -53 2q-15 3 -15 15q0 9 14 23z" />
    <glyph glyph-name="fraction" unicode="&#x2044;" horiz-adv-x="84" 
d="M-137 -15q-12 -17 -26 -17q-15 0 -24 1q-10 1 -10 9t9 21l448 690q15 22 30 22q16 0 26 -2q9 -1 9 -10q0 -8 -11 -23z" />
    <glyph glyph-name="zero.superior" unicode="&#x2070;" 
d="M447 727q0 -57 -19.5 -139.5t-53.5 -124.5q-44 -52 -128 -52q-69 0 -102 26t-33 94q0 57 17.5 129.5t49.5 115.5q44 61 135 61q69 0 101.5 -22t32.5 -88zM365 716q0 31 -12.5 43t-47.5 12q-43 0 -65 -36q-20 -32 -34 -94.5t-14 -101.5q0 -34 13.5 -48t45.5 -14
q46 0 66 33q18 31 33 101.5t15 104.5z" />
    <glyph glyph-name="four.superior" unicode="&#x2074;" 
d="M352 435q-4 -16 -20 -16h-43q-13 0 -13 12q0 7 2 15l16 69h-150q-38 0 -38 31q0 26 21 53l167 217q14 17 28 17q32 0 48 -2q11 0 11 -10q0 -6 -7 -16l-174 -222h108l17 74q5 18 19 18h44q13 0 13 -12q0 -7 -3 -16l-14 -64h39q15 0 15 -12q0 -7 -9 -43q-3 -13 -18 -13h-42
z" />
    <glyph glyph-name="five.superior" unicode="&#x2075;" 
d="M229 674q26 5 61 5q118 0 118 -90q0 -86 -43 -131.5t-150 -45.5q-77 0 -105 9q-13 4 -13 17q0 10 11 37q5 13 17 13q2 0 12 -2l15 -3q38 -6 66 -6q55 0 80.5 21t25.5 68q0 48 -71 48q-22 0 -46.5 -2t-26.5 -2q-29 0 -29 27q0 14 8 42l35 132q6 21 21 21h200q14 0 14 -10
q0 -8 -7 -44q-3 -14 -21 -14h-150z" />
    <glyph glyph-name="six.superior" unicode="&#x2076;" 
d="M213 649q32 34 101 34q108 0 108 -91q0 -93 -46 -139q-41 -41 -131 -41q-129 0 -129 121q0 60 22.5 134.5t61.5 115.5q56 57 152 57q50 0 79 -9q11 -3 11 -15q0 -13 -11 -39q-3 -9 -13 -9q-3 0 -27 3q-28 3 -47 3q-60 0 -89 -32q-26 -28 -42 -93zM193 530q0 -53 61 -53
q53 0 72 28q18 26 18 67q0 48 -58 48q-45 0 -72 -23q-8 -8 -12 -18q-9 -23 -9 -49z" />
    <glyph glyph-name="seven.superior" unicode="&#x2077;" 
d="M344 764h-190q-16 0 -16 11q0 10 7 42q3 15 19 15h239q40 0 40 -31q0 -22 -20 -57l-185 -307q-11 -19 -27 -19q-15 0 -45 3q-17 1 -17 15q0 8 8 21z" />
    <glyph glyph-name="eight.superior" unicode="&#x2078;" 
d="M348 636q66 -14 66 -77q0 -75 -44 -111t-135 -36q-70 0 -104.5 26t-34.5 71q0 54 28 87.5t79 42.5q-54 15 -54 72q0 129 164 129q129 0 129 -87q0 -97 -94 -117zM332 553q0 48 -66 48q-90 0 -90 -77q0 -50 68 -50q88 0 88 79zM363 736q0 40 -57 40q-79 0 -79 -68
q0 -43 57 -43q38 0 58.5 18.5t20.5 52.5z" />
    <glyph glyph-name="nine.superior" unicode="&#x2079;" 
d="M343 604q-32 -34 -101 -34q-54 0 -81.5 25t-27.5 70q0 86 48 133q42 42 129 42q128 0 128 -121q0 -62 -20.5 -137.5t-58.5 -115.5q-54 -55 -154 -55q-59 0 -85 9q-10 2 -10 14q0 18 9 38q6 13 14 13q4 0 24 -4q32 -4 52 -4q63 0 93 33q25 28 41 94zM361 722
q0 26 -13 39.5t-47 13.5q-50 0 -71 -28q-19 -27 -19 -66q0 -48 57 -48q47 0 73 24q9 9 12 18q8 22 8 47z" />
    <glyph glyph-name="parenleft.superior" unicode="&#x207d;" horiz-adv-x="218" 
d="M347 851q-74 -47 -121 -138.5t-47 -200.5q0 -94 55 -158q4 -5 4 -9q0 -6 -8 -14q-8 -6 -15 -6q-6 0 -18 7q-33 23 -59.5 72t-26.5 118q0 110 51.5 207.5t151.5 147.5q14 7 24 7q9 0 14 -7t5 -13q0 -7 -10 -13z" />
    <glyph glyph-name="parenright.superior" unicode="&#x207e;" horiz-adv-x="218" 
d="M26 358q73 46 121 138.5t48 201.5q0 92 -56 158q-4 5 -4 9q0 5 8 13q9 7 14 7q8 0 19 -8q34 -23 60.5 -71.5t26.5 -117.5q0 -110 -54 -211t-152 -145q-16 -7 -24 -7q-9 0 -12 7q-5 8 -5 13q0 7 10 13z" />
    <glyph glyph-name="n.superior" unicode="&#x207f;" horiz-adv-x="368" 
d="M134 280q-5 -17 -18 -17h-49q-13 0 -13 11q0 5 2 13l49 225q6 27 31 38q62 25 151 25q88 0 88 -56q0 -24 -7 -53l-39 -186q-3 -17 -19 -17h-49q-13 0 -13 11q0 7 2 13l39 172q0 2 1.5 7.5t2 10.5t0.5 9q0 23 -40 23q-32 0 -54 -8q-4 -1 -14 -7q-5 -4 -7 -16z" />
    <glyph glyph-name="zero.inferior" unicode="&#x2080;" 
d="M337 181q0 -57 -19.5 -139.5t-53.5 -124.5q-44 -52 -128 -52q-69 0 -102 26t-33 94q0 57 17.5 129.5t49.5 115.5q44 61 135 61q69 0 101.5 -22t32.5 -88zM255 170q0 31 -12.5 43t-47.5 12q-43 0 -65 -36q-20 -32 -34 -94.5t-14 -101.5q0 -34 13.5 -48t45.5 -14
q46 0 66 33q18 31 33 101.5t15 104.5z" />
    <glyph glyph-name="one.inferior" unicode="&#x2081;" 
d="M222 -126h-181q-14 0 -14 11q0 10 8 43q3 15 20 15h52l60 264l-57 -19q-9 -3 -15 -3t-10 8q-11 32 -11 39q0 10 13 14l84 31q24 9 44 9h5q36 0 36 -29q0 -10 -6 -36l-62 -278h49q15 0 15 -11q0 -12 -8 -44q-5 -14 -22 -14z" />
    <glyph glyph-name="two.inferior" unicode="&#x2082;" 
d="M259 -126h-254q-19 0 -25.5 7.5t-6.5 22.5q0 28 24 46q138 96 171 121q63 48 63 99q0 57 -72 57q-29 0 -57 -6q-4 -1 -9.5 -2t-9.5 -2t-6 -1q-9 0 -12 10q-7 27 -7 35q0 13 19 18q48 15 112 15q128 0 128 -102q0 -77 -67 -135q-57 -48 -163 -115h184q14 0 14 -13t-7 -41
q-3 -14 -19 -14z" />
    <glyph glyph-name="three.inferior" unicode="&#x2083;" 
d="M211 91q73 -7 73 -78q0 -73 -42 -109q-46 -38 -145 -38q-63 0 -97 12q-13 5 -13 16q0 14 10 38q3 10 15 10q6 0 22 -4q31 -6 70 -6q61 0 80 22q17 18 17 55q0 23 -17.5 33t-65.5 11q-22 0 -22 23q0 44 34 44q52 0 74 17q21 17 21 49q0 41 -65 41q-38 0 -61 -6
q-18 -4 -22 -4q-8 0 -11 10q-7 24 -7 35q0 12 20 18q56 14 110 14q65 0 90.5 -22.5t25.5 -64.5q0 -49 -22 -77t-72 -39z" />
    <glyph glyph-name="four.inferior" unicode="&#x2084;" 
d="M241 -111q-4 -16 -19 -16h-44q-13 0 -13 12q0 8 2 16l15 68h-149q-38 0 -38 31q0 27 20 53l169 217q12 17 27 17q31 0 49 -2q10 0 10 -10q0 -6 -7 -16l-174 -222h108l17 74q5 18 18 18h45q13 0 13 -11q0 -8 -3 -21l-14 -60h39q16 0 16 -12q0 -3 -10 -43q-3 -13 -18 -13
h-41z" />
    <glyph glyph-name="five.inferior" unicode="&#x2085;" 
d="M118 128q26 5 61 5q119 0 119 -90q0 -86 -43.5 -131.5t-150.5 -45.5q-61 0 -103 10q-13 4 -13 17q0 9 9 36q5 13 17 13q6 0 26 -5q30 -6 68 -6q54 0 79.5 21.5t25.5 67.5q0 48 -70 48q-23 0 -48 -2t-26 -2q-29 0 -29 27q0 12 8 40l36 134q5 21 21 21h199q15 0 15 -10
q0 -5 -9 -44q-3 -14 -20 -14h-149z" />
    <glyph glyph-name="six.inferior" unicode="&#x2086;" 
d="M111 103q32 34 101 34q108 0 108 -91q0 -93 -46 -139q-41 -41 -131 -41q-129 0 -129 121q0 60 22.5 134.5t61.5 115.5q56 57 152 57q50 0 79 -9q11 -3 11 -15q0 -13 -11 -39q-3 -9 -13 -9q-3 0 -27 3q-29 3 -47 3q-60 0 -89 -32q-26 -28 -42 -93zM91 -16q0 -53 61 -53
q53 0 72 28q18 26 18 67q0 48 -58 48q-45 0 -72 -23q-8 -8 -12 -18q-9 -23 -9 -49z" />
    <glyph glyph-name="seven.inferior" unicode="&#x2087;" 
d="M233 218h-190q-17 0 -17 11q0 4 8 42q3 15 19 15h240q39 0 39 -31q0 -22 -20 -57l-185 -307q-11 -19 -26 -19q-22 0 -46 3q-17 3 -17 15q0 8 8 21z" />
    <glyph glyph-name="eight.inferior" unicode="&#x2088;" 
d="M246 90q66 -14 66 -77q0 -75 -44 -111t-135 -36q-70 0 -104.5 26t-34.5 71q0 54 28 87.5t79 42.5q-54 15 -54 72q0 129 164 129q129 0 129 -87q0 -97 -94 -117zM230 7q0 48 -66 48q-90 0 -90 -77q0 -50 68 -50q88 0 88 79zM261 190q0 40 -57 40q-79 0 -79 -68
q0 -43 57 -43q38 0 58.5 18.5t20.5 52.5z" />
    <glyph glyph-name="nine.inferior" unicode="&#x2089;" 
d="M233 58q-32 -34 -101 -34q-54 0 -81.5 25t-27.5 70q0 86 48 133q42 42 129 42q128 0 128 -121q0 -62 -20.5 -137.5t-58.5 -115.5q-54 -55 -154 -55q-60 0 -85 9q-10 2 -10 14q0 18 9 38q6 13 14 13q4 0 24 -4q32 -4 52 -4q63 0 93 33q25 28 41 94zM251 176q0 26 -13 39.5
t-47 13.5q-50 0 -71 -28q-19 -27 -19 -66q0 -48 57 -48q47 0 73 24q9 9 12 18q8 22 8 47z" />
    <glyph glyph-name="parenleft.inferior" unicode="&#x208d;" horiz-adv-x="218" 
d="M237 305q-74 -47 -121 -138.5t-47 -200.5q0 -94 55 -158q4 -5 4 -9q0 -6 -8 -14q-8 -6 -15 -6q-6 0 -18 7q-33 23 -59.5 72t-26.5 118q0 110 51.5 207.5t151.5 147.5q14 7 24 7q9 0 14 -7t5 -13q0 -7 -10 -13z" />
    <glyph glyph-name="parenright.inferior" unicode="&#x208e;" horiz-adv-x="218" 
d="M-84 -188q73 46 121 138.5t48 201.5q0 92 -56 158q-4 5 -4 9q0 5 8 13q9 7 14 7q8 0 19 -8q34 -23 60.5 -71.5t26.5 -117.5q0 -110 -54 -211t-152 -145q-16 -7 -24 -7q-9 0 -12 7q-5 8 -5 13q0 7 10 13z" />
    <glyph glyph-name="Euro" unicode="&#x20ac;" horiz-adv-x="638" 
d="M495 242h-203v-24q0 -131 129 -131q67 0 108 8q32 6 35 6q14 0 17 -14q9 -32 9 -53q0 -20 -25 -27q-71 -19 -173 -19q-101 0 -157 55.5t-56 167.5q0 20 1 31h-64q-19 0 -19 15q0 8 5 27q4 18 24 18h60q6 36 15 76h-59q-19 0 -19 13q0 3 5 28q4 19 24 19h68q36 97 86 154
q82 96 244 96q69 0 113 -10q22 -5 22 -23q0 -16 -14 -60q-6 -13 -19 -13q-6 0 -36 5q-33 4 -78 4q-96 0 -146 -61q-30 -35 -54 -92h193q18 0 18 -14q0 -2 -5 -30q-4 -16 -23 -16h-204q-12 -37 -18 -76h206q18 0 18 -14q0 -11 -5 -29q-4 -17 -23 -17z" />
    <glyph glyph-name="afii61289" unicode="&#x2113;" horiz-adv-x="471" 
d="M206 217q-3 -18 -3 -49q0 -90 90 -90q41 0 89 21q16 8 24 8q15 0 21 -14q13 -28 13 -40q0 -17 -23 -28q-73 -38 -158 -38q-65 0 -107.5 35t-46.5 100q-1 8 -1 33q-4 -2 -19 -10.5l-24 -13.5q-12 -5 -20 -5t-13 5t-12 21q-7 14 -7 25q0 14 22 25q48 26 73 41q10 87 17 118
q30 141 63 202q35 64 81 94.5t117 30.5q62 0 93.5 -34t31.5 -85q0 -64 -28 -114t-83 -102q-54 -52 -190 -136zM214 315q81 55 132 105q69 67 69 131q0 52 -51 52q-47 0 -79 -46q-33 -51 -57 -161q-6 -26 -14 -81z" />
    <glyph glyph-name="trademark" unicode="&#x2122;" horiz-adv-x="801" 
d="M246 382q-5 -19 -18 -19h-35q-15 0 -15 13q0 2 3 17l54 252h-85q-14 0 -14 12q0 7 6 33q4 16 19 16h234q16 0 16 -13t-6 -35q-3 -13 -20 -13h-83zM475 380q-3 -17 -18 -17h-33q-15 0 -15 12q0 4 2 14l58 271q10 47 50 47h27q15 0 20.5 -7t9.5 -23q25 -114 32 -157
q27 51 95 154q22 33 51 33h24q31 0 31 -28q0 -1 -4 -29l-57 -269q-3 -18 -19 -18h-36q-13 0 -13 11q0 4 3 22q51 224 57 247q-24 -45 -112 -187q-11 -19 -31 -19h-11q-19 0 -23 20q-30 156 -34 186q-15 -83 -54 -263z" />
    <glyph glyph-name="Omega" unicode="&#x2126;" horiz-adv-x="740" 
d="M302 27q-2 -16 -10 -21.5t-24 -5.5h-204q-25 0 -25 16q0 15 9 58q3 15 11 20t22 5h148q-68 29 -102 78t-34 127q0 76 25.5 156t76.5 135q88 94 259 94q131 0 189.5 -53t58.5 -158q0 -164 -77 -268q-54 -71 -154 -111h157q25 0 25 -18q0 -14 -9 -56q-3 -15 -8.5 -20
t-20.5 -5h-215q-28 0 -28 21q0 18 14 85q6 28 29 40q78 35 115 100q49 89 49 206q0 73 -34 105t-108 32q-105 0 -156 -64q-33 -42 -50.5 -107.5t-17.5 -121.5q0 -109 86 -151q18 -9 18 -31q0 -8 -15 -87z" />
    <glyph glyph-name="estimated" unicode="&#x212e;" horiz-adv-x="845" 
d="M831 336h-616q-6 0 -6 -4v-195q0 -10 10 -22q95 -106 233 -106q147 0 244 118h57q-54 -64 -133 -101.5t-169 -37.5q-158 0 -269.5 105t-111.5 253t111.5 252.5t269.5 104.5t269 -104.5t111 -252.5v-10zM693 362v195q0 13 -11 24q-98 101 -230 101q-66 0 -126.5 -28.5
t-105.5 -76.5q-11 -11 -11 -24v-191q0 -5 6 -5h472q6 0 6 5z" />
    <glyph glyph-name="onethird" unicode="&#x2153;" horiz-adv-x="862" 
d="M711 217q72 -7 72 -78q0 -76 -40 -109q-46 -38 -146 -38q-63 0 -97 12q-13 5 -13 16t10 38q3 10 15 10q6 0 22 -4q33 -6 71 -6q57 0 79 22q17 18 17 55q0 23 -17 33t-66 11q-22 0 -22 23q0 44 34 44q53 0 75 17q19 16 19 49q0 41 -64 41q-35 0 -62 -6q-18 -4 -23 -4
q-6 0 -9 10q-7 32 -7 34q0 14 20 18q60 15 110 15q65 0 90.5 -22.5t25.5 -64.5q0 -49 -22 -77t-72 -39zM293 264h-182q-14 0 -14 11q0 10 8 43q3 15 21 15h52l59 264l-56 -19q-9 -3 -16 -3q-5 0 -9 8q-12 35 -12 39q0 9 13 14l85 31q24 9 44 9h5q35 0 35 -29q0 -13 -5 -36
l-62 -278h49q15 0 15 -11q0 -8 -9 -44q-4 -14 -21 -14zM238 -15q-12 -17 -26 -17q-15 0 -24 1q-10 1 -10 9t9 21l448 690q15 22 30 22q16 0 26 -2q9 -1 9 -10q0 -8 -11 -23z" />
    <glyph glyph-name="twothirds" unicode="&#x2154;" horiz-adv-x="862" 
d="M280 -15q-12 -17 -26 -17q-15 0 -24 1q-10 1 -10 9t9 21l448 690q15 22 30 22q16 0 26 -2q9 -1 9 -10q0 -8 -11 -23zM343 264h-253q-19 0 -25.5 7.5t-6.5 22.5q0 30 25 46q138 96 171 121q62 49 62 99q0 57 -71 57q-30 0 -57 -6q-25 -5 -27 -5q-9 0 -11 10q-5 25 -5 35
q0 11 20 18q48 15 109 15q127 0 127 -102q0 -78 -66 -134q-55 -47 -163 -116h184q14 0 14 -13q0 -8 -7 -41q-3 -14 -20 -14zM741 217q72 -7 72 -78q0 -76 -40 -109q-46 -38 -146 -38q-63 0 -97 12q-13 5 -13 16t10 38q3 10 15 10q6 0 22 -4q33 -6 71 -6q57 0 79 22
q17 18 17 55q0 23 -17 33t-66 11q-22 0 -22 23q0 44 34 44q53 0 75 17q19 16 19 49q0 41 -64 41q-35 0 -62 -6q-18 -4 -23 -4q-6 0 -9 10q-7 32 -7 34q0 14 20 18q60 15 110 15q65 0 90.5 -22.5t25.5 -64.5q0 -49 -22 -77t-72 -39z" />
    <glyph glyph-name="oneeighth" unicode="&#x215b;" horiz-adv-x="862" 
d="M723 216q66 -14 66 -77q0 -75 -44 -111t-135 -36q-70 0 -104.5 26t-34.5 71q0 54 28 87.5t79 42.5q-54 15 -54 72q0 129 164 129q129 0 129 -87q0 -97 -94 -117zM285 264h-182q-14 0 -14 11q0 10 8 43q3 15 21 15h52l59 264l-56 -19q-9 -3 -16 -3q-5 0 -9 8
q-12 35 -12 39q0 9 13 14l85 31q24 9 44 9h5q35 0 35 -29q0 -13 -5 -36l-62 -278h49q15 0 15 -11q0 -8 -9 -44q-4 -14 -21 -14zM225 -15q-12 -17 -26 -17q-15 0 -24 1q-10 1 -10 9t9 21l448 690q15 22 30 22q16 0 26 -2q9 -1 9 -10q0 -8 -11 -23zM707 133q0 48 -66 48
q-90 0 -90 -77q0 -50 68 -50q88 0 88 79zM738 316q0 40 -57 40q-79 0 -79 -68q0 -43 57 -43q38 0 58.5 18.5t20.5 52.5z" />
    <glyph glyph-name="threeeighths" unicode="&#x215c;" horiz-adv-x="862" 
d="M248 -15q-12 -17 -26 -17q-15 0 -24 1q-10 1 -10 9t9 21l448 690q15 22 30 22q16 0 26 -2q9 -1 9 -10q0 -8 -11 -23zM289 481q73 -7 73 -78q0 -75 -41 -109q-45 -38 -146 -38q-63 0 -97 12q-13 5 -13 16t10 38q3 10 16 10q5 0 21 -4q33 -6 71 -6q57 0 79 22q18 19 18 55
q0 23 -18 33t-67 11q-21 0 -21 23q0 44 34 44q53 0 75 17q19 16 19 49q0 21 -14.5 31t-49.5 10q-36 0 -61 -6q-20 -4 -23 -4q-8 0 -11 10q-6 25 -6 35q0 12 20 18q56 14 110 14q66 0 91.5 -22.5t25.5 -64.5q0 -95 -95 -116zM740 216q66 -14 66 -77q0 -75 -44 -111t-135 -36
q-70 0 -104.5 26t-34.5 71q0 54 28 87.5t79 42.5q-54 15 -54 72q0 129 164 129q129 0 129 -87q0 -97 -94 -117zM724 133q0 48 -66 48q-90 0 -90 -77q0 -50 68 -50q88 0 88 79zM755 316q0 40 -57 40q-79 0 -79 -68q0 -43 57 -43q38 0 58.5 18.5t20.5 52.5z" />
    <glyph glyph-name="fiveeighths" unicode="&#x215d;" horiz-adv-x="862" 
d="M256 -15q-12 -17 -26 -17q-15 0 -24 1q-10 1 -10 9t9 21l448 690q15 22 30 22q16 0 26 -2q9 -1 9 -10q0 -8 -11 -23zM203 518q26 5 62 5q118 0 118 -90q0 -86 -43.5 -131.5t-150.5 -45.5q-71 0 -103 9q-13 4 -13 17q0 8 9 37q5 13 17 13q1 0 11 -2l15 -3q40 -6 68 -6
q55 0 80 21.5t25 67.5q0 48 -70 48q-23 0 -47.5 -2t-26.5 -2q-28 0 -28 27q0 15 7 40l35 134q5 21 21 21h200q15 0 15 -10q0 -9 -8 -44q-3 -14 -21 -14h-149zM745 216q66 -14 66 -77q0 -75 -44 -111t-135 -36q-70 0 -104.5 26t-34.5 71q0 54 28 87.5t79 42.5q-54 15 -54 72
q0 129 164 129q129 0 129 -87q0 -97 -94 -117zM729 133q0 48 -66 48q-90 0 -90 -77q0 -50 68 -50q88 0 88 79zM760 316q0 40 -57 40q-79 0 -79 -68q0 -43 57 -43q38 0 58.5 18.5t20.5 52.5z" />
    <glyph glyph-name="seveneighths" unicode="&#x215e;" horiz-adv-x="862" 
d="M203 -15q-12 -17 -26 -17q-15 0 -24 1q-10 1 -10 9t9 21l448 690q15 22 30 22q16 0 26 -2q9 -1 9 -10q0 -8 -11 -23zM326 608h-190q-17 0 -17 13q0 12 7 40q4 15 18 15h241q39 0 39 -31q0 -25 -20 -57l-185 -307q-11 -19 -27 -19t-43 3q-18 3 -18 15q0 7 9 23zM700 216
q66 -14 66 -77q0 -75 -44 -111t-135 -36q-70 0 -104.5 26t-34.5 71q0 54 28 87.5t79 42.5q-54 15 -54 72q0 129 164 129q129 0 129 -87q0 -97 -94 -117zM684 133q0 48 -66 48q-90 0 -90 -77q0 -50 68 -50q88 0 88 79zM715 316q0 40 -57 40q-79 0 -79 -68q0 -43 57 -43
q38 0 58.5 18.5t20.5 52.5z" />
    <glyph glyph-name="arrowleft" unicode="&#x2190;" horiz-adv-x="768" 
d="M694 389q39 0 39 -32v-40q0 -34 -34 -34q-418 0 -497 2l205 -191q17 -15 17 -31q0 -11 -8 -21l-24 -28q-10 -10 -23 -12q-10 0 -23 11l-300 298q-11 10 -11 25t11 25l304 302q10 11 21 11q12 0 22 -11l23 -26q11 -11 11 -22q0 -15 -12 -26l-213 -202q77 2 492 2z" />
    <glyph glyph-name="arrowup" unicode="&#x2191;" horiz-adv-x="768" 
d="M331 35q0 407 2 484q-59 -66 -206 -202q-11 -11 -24 -11t-21 8l-22 24q-12 12 -12 24t11 23l303 302q11 11 24 11q14 0 24 -11l299 -299q11 -11 11 -23q0 -13 -12 -25l-23 -24q-9 -9 -20 -9q-16 0 -32 16l-194 196q1 -78 1 -484q0 -35 -31 -35h-47q-31 0 -31 35z" />
    <glyph glyph-name="arrowright" unicode="&#x2192;" horiz-adv-x="768" 
d="M74 388q413 0 491 -2l-214 203q-12 10 -12 25q0 13 10 23l24 25q11 12 24 12q8 0 21 -11l304 -302q11 -10 11 -25t-11 -25l-301 -298q-10 -10 -23 -10q-11 0 -22 11l-25 28q-9 9 -9 21q0 17 16 31l208 192q-80 -2 -498 -2q-15 0 -24 9t-9 25v38q0 32 39 32z" />
    <glyph glyph-name="arrowdown" unicode="&#x2193;" horiz-adv-x="768" 
d="M331 635q0 40 31 40h47q31 0 31 -35q0 -407 -1 -485l194 197q16 16 32 16q11 0 19 -8l24 -25q12 -12 12 -24q0 -13 -11 -24l-298 -299q-12 -12 -25 -12q-12 0 -24 12l-303 302q-11 11 -11 23t12 24l24 24q8 8 21 8t24 -11q110 -103 204 -202q-2 78 -2 479z" />
    <glyph glyph-name="uni2196" unicode="&#x2196;" horiz-adv-x="768" 
d="M190 77q-16 -16 -28 -16q-13 0 -25 12q-26 27 -32 36t-6 17q0 12 12 23l356 341q-140 -5 -290 -5q-21 0 -31 9q-8 8 -8 23v39q0 14 8 24q8 8 25 8h423q15 0 25 -10q9 -7 9 -30v-422q0 -17 -8 -25q-8 -9 -24 -9h-37q-17 0 -23 8q-9 11 -9 28q0 211 3 286
q-90 -96 -340 -337z" />
    <glyph glyph-name="uni2197" unicode="&#x2197;" horiz-adv-x="768" 
d="M116 520q-16 14 -16 28q0 13 14 27q35 36 48 36q12 0 23 -10q295 -288 348 -346q0 7 -1.5 40.5t-2.5 96.5t-1 142q0 21 10 32q9 9 20 9h40q12 0 23 -9q8 -8 8 -26v-420q0 -16 -10 -26q-9 -10 -29 -10h-425q-16 0 -24 8q-7 7 -7 25v34q0 17 7 24q10 9 30 9q196 0 296 -4z
" />
    <glyph glyph-name="uni2198" unicode="&#x2198;" horiz-adv-x="768" 
d="M579 598q14 14 27 14q12 0 25 -12q37 -36 37 -51q0 -14 -12 -26l-356 -342q145 5 291 5q19 0 30 -10q9 -8 9 -22v-37q0 -16 -8 -24q-9 -9 -25 -9h-416q-20 0 -31 11q-10 9 -10 34v419q0 17 8 25t25 8h38q15 0 23 -8q8 -9 8 -29q0 -183 -4 -283q83 88 341 337z" />
    <glyph glyph-name="uni2199" unicode="&#x2199;" horiz-adv-x="768" 
d="M331 635q0 40 31 40h47q31 0 31 -35q0 -407 -1 -485l194 197q16 16 32 16q11 0 19 -8l24 -25q12 -12 12 -24q0 -13 -11 -24l-298 -299q-12 -12 -25 -12q-12 0 -24 12l-303 302q-11 11 -11 23t12 24l24 24q8 8 21 8t24 -11q110 -103 204 -202q-2 78 -2 479z" />
    <glyph glyph-name="partialdiff" unicode="&#x2202;" horiz-adv-x="558" 
d="M426 392q10 67 10 100q0 62 -27 88.5t-81 26.5q-55 0 -98 -13q-16 -4 -21 -4q-14 0 -19 17q-7 23 -7 36q0 17 19 24q64 21 142 21q94 0 143.5 -42.5t49.5 -145.5q0 -101 -28.5 -232.5t-81.5 -196.5q-67 -84 -198 -84q-82 0 -130.5 39t-48.5 120q0 146 86 225
q62 58 171 58q80 0 119 -37zM415 303q-30 47 -113 47q-66 0 -101 -32q-57 -56 -57 -156q0 -94 98 -94q50 0 81 21t53 75q24 56 39 139z" />
    <glyph glyph-name="Delta" unicode="&#x2206;" horiz-adv-x="693" 
d="M644 51q3 -15 3 -25q0 -26 -30 -26h-608q-23 0 -23 17q0 9 10 26l381 607q16 26 40 26h85q13 0 18.5 -6t7.5 -20zM440 557q-36 -63 -284 -456h365q-74 405 -81 456z" />
    <glyph glyph-name="product" unicode="&#x220f;" horiz-adv-x="715" 
d="M139 -103q-3 -17 -10 -23.5t-24 -6.5h-56q-25 0 -25 19q0 4 3 22l157 735q4 17 11.5 25t23.5 8h459q28 0 28 -21q0 -12 -4 -28l-157 -731q-4 -17 -9.5 -23t-19.5 -6h-63q-24 0 -24 18q0 9 2 19l144 671h-292z" />
    <glyph glyph-name="summation" unicode="&#x2211;" horiz-adv-x="602" 
d="M485 -132h-453q-52 0 -52 45q0 37 35 75l290 303l-148 249q-21 37 -21 64q0 31 18 51.5t53 20.5h396q27 0 27 -19q0 -9 -9 -59q-3 -15 -11.5 -19t-28.5 -4h-315l158 -257q8 -13 8 -34q0 -16 -27 -43l-270 -271h371q27 0 27 -19q0 -20 -10 -61q-5 -22 -38 -22z" />
    <glyph glyph-name="minus" unicode="&#x2212;" horiz-adv-x="701" 
d="M599 254h-468q-23 0 -23 22q0 11 5 35t27 24h469q24 0 24 -22q0 -9 -5 -34q-3 -25 -29 -25z" />
    <glyph glyph-name="uni2215" unicode="&#x2215;" horiz-adv-x="84" 
d="M-137 -15q-12 -17 -26 -17q-15 0 -24 1q-10 1 -10 9t9 21l448 690q15 22 30 22q16 0 26 -2q9 -1 9 -10q0 -8 -11 -23z" />
    <glyph glyph-name="uni2219" unicode="&#x2219;" horiz-adv-x="241" 
d="M203 290q0 -51 -26 -77q-20 -20 -59 -20q-64 0 -64 59q0 42 25 70q21 24 60 24q64 0 64 -56z" />
    <glyph glyph-name="radical" unicode="&#x221a;" horiz-adv-x="638" 
d="M292 -165q-8 -21 -31 -21h-37q-19 0 -28 22l-85 241l-43 -16q-5 -2 -13 -2q-16 0 -23 21q-5 14 -5 24q0 15 18 22l98 37q10 4 20 4q14 0 22 -20l72 -213l322 732q10 22 31 22q24 0 38 -3q12 -2 12 -16q0 -8 -5 -21z" />
    <glyph glyph-name="infinity" unicode="&#x221e;" horiz-adv-x="730" 
d="M389 351q91 96 182 96q59 0 93.5 -37.5t34.5 -98.5q0 -76 -45.5 -125t-116.5 -49q-47 0 -81 23t-74 75q-52 -51 -92 -74t-88 -23q-59 0 -95.5 36.5t-36.5 98.5q0 75 45.5 125t117.5 50q46 0 81 -23t75 -74zM339 294q-32 41 -57 60t-57 19q-39 0 -61 -25.5t-22 -63.5
q0 -32 18.5 -51.5t49.5 -19.5q34 0 63.5 19.5t65.5 61.5zM430 292q35 -45 59 -62.5t56 -17.5q37 0 59 26t22 64q0 32 -18 50.5t-49 18.5q-54 0 -129 -79z" />
    <glyph glyph-name="integral" unicode="&#x222b;" horiz-adv-x="333" 
d="M81 -19q6 27 16 82l83 429q11 58 16 79q30 138 162 138q23 0 47 -4q19 -4 19 -20q0 -19 -9 -42q-6 -16 -27 -16q-2 0 -17 1.5t-25 1.5q-48 0 -66 -70q-6 -24 -14 -66l-82 -431q0 -2 -6.5 -37t-10.5 -53q-16 -72 -57 -103t-110 -31q-23 0 -41 4q-14 5 -14 17q0 14 9 41
q6 20 25 20q2 0 15.5 -1t22.5 -1q26 0 41 12.5t23 49.5z" />
    <glyph glyph-name="approxequal" unicode="&#x2248;" horiz-adv-x="714" 
d="M161 145q-12 -14 -22 -14q-16 0 -31 16q-12 13 -12 23q0 11 8 21q76 85 150 85q42 0 116 -41q54 -32 93 -32q47 0 91 51q12 14 24 14q10 0 23 -10q20 -17 20 -29q0 -9 -8 -19q-35 -46 -69.5 -68t-81.5 -22q-53 0 -115 37q-61 36 -95 36q-44 0 -91 -48zM207 347
q-11 -13 -22 -13t-29 15q-14 14 -14 25q0 9 8 19q76 86 150 86q44 0 116 -41q56 -33 92 -33q45 0 92 51q13 15 23 15t23 -11q21 -16 21 -28q0 -10 -8 -20q-35 -45 -70 -67t-82 -22q-52 0 -115 37q-63 36 -94 36q-45 0 -91 -49z" />
    <glyph glyph-name="notequal" unicode="&#x2260;" horiz-adv-x="701" 
d="M217 22q-12 -18 -32 -18h-14q-21 0 -21 16q0 11 7 19l83 112h-130q-24 0 -24 21q0 12 6 34q6 24 28 24h171l91 127h-228q-24 0 -24 21q0 3 7 33q6 25 27 25h270l85 117q12 17 31 17h17q22 0 22 -16q0 -6 -7 -17l-77 -101h128q24 0 24 -22q0 -9 -6 -33q-5 -24 -29 -24
h-168l-90 -127h224q24 0 24 -22q0 -8 -6 -33q-4 -24 -28 -24h-267z" />
    <glyph glyph-name="lessequal" unicode="&#x2264;" horiz-adv-x="701" 
d="M569 181q-4 -20 -20 -20q-7 0 -17 5l-362 174q-18 9 -18 28q0 16 7 48q5 23 22 30l443 180q12 4 16 4q17 0 17 -19q0 -13 -6 -47q-4 -22 -24 -30l-386 -144l316 -141q18 -9 18 -28q0 -6 -6 -40zM511 0h-408q-24 0 -24 21q0 11 6 34q6 25 28 25h409q24 0 24 -23
q0 -2 -0.5 -5.5t-2 -11t-2.5 -16.5q-5 -24 -30 -24z" />
    <glyph glyph-name="greaterequal" unicode="&#x2265;" horiz-adv-x="701" 
d="M210 610q4 21 20 21q7 0 15 -4l365 -176q17 -9 17 -26t-7 -49q-4 -22 -23 -29l-443 -181q-12 -4 -16 -4q-16 0 -16 18q0 16 6 48q4 22 24 30l386 144l-316 141q-19 9 -19 29q0 10 7 38zM524 0h-408q-24 0 -24 22q0 6 6 33q6 25 28 25h409q24 0 24 -23q0 -7 -5 -33
q-5 -24 -30 -24z" />
    <glyph glyph-name="lozenge" unicode="&#x25ca;" horiz-adv-x="714" 
d="M411 676q12 16 34 16h44q24 0 30 -25l77 -296q3 -15 3 -16q0 -12 -10 -25l-224 -313q-13 -17 -32 -17h-45q-25 0 -31 23l-82 299q-4 12 -4 18q0 14 9 24zM260 341l66 -249l186 263l-59 248z" />
    <glyph glyph-name="commaaccent" unicode="&#xf6c3;" horiz-adv-x="185" 
d="M112 -55h32q27 0 27 -27q0 -20 -8 -47q-22 -67 -82 -129q-16 -18 -31 -18q-12 0 -25 10q-13 8 -13 20q0 11 11 26q39 47 50 127q7 38 39 38z" />
    <glyph glyph-name="Dotlessi" horiz-adv-x="297" 
d="M163 24q-6 -26 -29 -26h-67q-20 0 -20 18q0 2 3 20l139 645q5 27 29 27h66q21 0 21 -18q0 -7 -4 -25z" />
    <glyph glyph-name="Euro.denominator" horiz-adv-x="422" 
d="M316 145h-123v-9q0 -75 79 -75q38 0 61 4q18 4 24 4q9 0 12 -9q8 -26 8 -39q0 -12 -16 -16q-42 -12 -112 -12q-64 0 -100 35t-36 104v13h-40q-12 0 -12 10q0 4 4 18q3 13 15 13h37q1 11 8 43h-35q-12 0 -12 9q0 4 3 18q3 12 15 12h41q18 50 52 90q54 62 157 62
q44 0 73 -6q15 -3 15 -17q0 -12 -10 -40q-3 -10 -13 -10q-2 0 -5.5 0.5t-9 1.5t-8.5 1q-30 2 -46 2q-61 0 -90 -35q-12 -13 -30 -49h118q10 0 10 -9q0 -4 -2 -18q-1 -12 -16 -12h-125l-10 -43h126q11 0 11 -10q0 -8 -3 -19q-2 -12 -15 -12z" />
    <glyph glyph-name="Euro.inferior" horiz-adv-x="422" 
d="M286 19h-123v-9q0 -75 79 -75q38 0 61 4q18 4 24 4q9 0 12 -9q8 -26 8 -39q0 -12 -16 -16q-42 -12 -112 -12q-64 0 -100 35t-36 104v13h-40q-12 0 -12 10q0 4 4 18q3 13 15 13h37q1 11 8 43h-35q-12 0 -12 9q0 4 3 18q3 12 15 12h41q18 50 52 90q54 62 157 62q44 0 73 -6
q15 -3 15 -17q0 -12 -10 -40q-3 -10 -13 -10q-2 0 -5.5 0.5t-9 1.5t-8.5 1q-30 2 -46 2q-61 0 -90 -35q-12 -13 -30 -49h118q10 0 10 -9q0 -4 -2 -18q-1 -12 -16 -12h-124q-5 -15 -11 -43h126q11 0 11 -10q0 -8 -3 -19q-2 -12 -15 -12z" />
    <glyph glyph-name="Euro.numerator" horiz-adv-x="422" 
d="M361 409h-122v-9q0 -75 78 -75q40 0 63 4q18 4 22 4q9 0 12 -9q8 -26 8 -39q0 -12 -15 -16q-43 -12 -113 -12q-64 0 -100 35t-36 104v13h-40q-12 0 -12 10q0 1 0.5 4t1.5 7t1 7q3 13 16 13h37q2 10 8 43h-35q-13 0 -13 9q0 6 4 18q3 12 16 12h40q18 50 52 90
q54 62 157 62q45 0 73 -6q15 -3 15 -17q0 -12 -10 -40q-3 -10 -13 -10q-2 0 -5.5 0.5t-9 1.5t-8.5 1q-30 2 -46 2q-60 0 -89 -35q-13 -15 -30 -49h117q11 0 11 -9q0 -1 -0.5 -4.5t-1.5 -7.5t-1 -7q-2 -11 -16 -11h-123q-5 -15 -11 -43h125q11 0 11 -10q0 -5 -2 -19
q-2 -12 -16 -12z" />
    <glyph glyph-name="Euro.oldstyle" horiz-adv-x="624" 
d="M276 208v-18q0 -110 116 -110q43 0 105 11q5 1 11.5 2t11 2t7.5 1q11 0 15 -12q10 -33 10 -50q0 -18 -26 -26q-71 -21 -170 -21q-90 0 -138 40.5t-55 126.5q-1 13 -1 54h-61q-18 0 -18 15q0 3 5 25q4 18 22 18h58q4 33 14 70h-56q-18 0 -18 15q0 8 4 24q6 19 23 19h62
q30 92 82 143q74 73 213 73q69 0 112 -10q18 -4 18 -20q0 -22 -14 -58q-6 -12 -18 -12q-8 0 -32 4q-31 5 -79 5q-81 0 -122 -42q-28 -30 -47 -83h192q18 0 18 -15q0 -9 -5 -27q-3 -16 -22 -16h-200q-10 -35 -14 -70h199q18 0 18 -14q0 -2 -5 -27q-3 -17 -23 -17h-192z" />
    <glyph glyph-name="Euro.superior" horiz-adv-x="422" 
d="M396 565h-123v-9q0 -75 79 -75q38 0 61 4q18 4 24 4q9 0 12 -9q8 -26 8 -39q0 -12 -16 -16q-42 -12 -112 -12q-64 0 -100 35t-36 104v13h-40q-12 0 -12 10q0 4 4 18q3 13 15 13h37q1 10 8 43h-35q-12 0 -12 9q0 4 3 18q3 12 15 12h41q18 50 52 90q54 62 157 62
q44 0 73 -6q15 -3 15 -17q0 -12 -10 -40q-3 -10 -13 -10q-2 0 -5.5 0.5t-9 1.5t-8.5 1q-30 2 -46 2q-61 0 -90 -35q-12 -13 -30 -49h118q10 0 10 -9q0 -4 -2 -18q-1 -12 -16 -12h-125l-10 -43h126q11 0 11 -10q0 -8 -3 -19q-2 -12 -15 -12z" />
    <glyph glyph-name="Kgreenlandic" horiz-adv-x="799" 
d="M722 449h-35q-27 0 -27 25q0 51 41 123.5t92 111.5q18 16 29 16q13 0 26 -11q12 -12 12 -24q0 -9 -13 -24q-75 -73 -92 -183q-2 -18 -9.5 -26t-23.5 -8zM163 24q-6 -26 -29 -26h-67q-20 0 -20 18q0 2 3 20l139 645q5 27 29 27h66q21 0 21 -18q0 -7 -4 -25l-54 -249h57
q33 0 49 19l204 252q17 22 38 22q52 0 69 -3q17 -2 17 -20q0 -7 -16 -27l-246 -299q25 -47 144 -311q9 -23 9 -29q0 -8 -6.5 -13.5t-16.5 -6.5q-25 -2 -73 -2q-19 0 -27 20l-124 278q-8 19 -36 19h-63z" />
    <glyph glyph-name="S_S" horiz-adv-x="1151" 
d="M309 290l-76 30q-124 47 -124 164q0 235 280 235q95 0 161 -21q19 -6 19 -27q0 -10 -13 -51q-5 -19 -25 -19q-19 0 -37 5q-67 16 -133 16q-130 0 -130 -108q0 -33 16.5 -55.5t62.5 -40.5l73 -29q73 -29 105 -65t32 -94q0 -126 -72 -184.5t-214 -58.5q-121 0 -194 30
q-19 8 -19 24q0 18 15 54q8 22 29 22q8 0 35 -9q72 -23 148 -23q71 0 109.5 24t38.5 86q0 31 -17 52.5t-70 42.5zM882 290l-76 30q-124 47 -124 164q0 235 280 235q95 0 161 -21q19 -6 19 -27q0 -10 -13 -51q-5 -19 -25 -19q-19 0 -37 5q-67 16 -133 16q-130 0 -130 -108
q0 -33 16.5 -55.5t62.5 -40.5l73 -29q73 -29 105 -65t32 -94q0 -126 -72 -184.5t-214 -58.5q-121 0 -194 30q-19 8 -19 24q0 18 15 54q8 22 29 22q8 0 35 -9q72 -23 148 -23q71 0 109.5 24t38.5 86q0 31 -17 52.5t-70 42.5z" />
    <glyph glyph-name="a.superior" horiz-adv-x="345" 
d="M314 319q-7 -25 -14 -32q-8 -10 -26 -16q-47 -15 -117 -15q-103 0 -103 76q0 71 51 99q31 17 103 17q21 0 55 -2q6 25 6 38q0 24 -47 24q-33 0 -63 -5q-3 0 -13 -2t-13 -2q-9 0 -12 12q-3 15 -3 30q0 14 18 21q45 13 103 13q35 0 56.5 -3.5t38.5 -18t17 -41.5
q0 -26 -6 -52zM252 395q-13 2 -45 2q-43 0 -58 -8q-20 -11 -20 -41q0 -33 45 -33q34 0 49 5q8 3 13 11q5 9 16 64z" />
    <glyph glyph-name="acute.cap" horiz-adv-x="197" 
d="M63 772q-21 -14 -45 -14q-34 0 -44 2q-19 2 -19 16q0 13 14 23l128 97q27 20 47 20q40 0 70 -2q26 -3 26 -18t-15 -24z" />
    <glyph glyph-name="b.superior" horiz-adv-x="360" 
d="M61 322l84 378q5 20 20 20h45q15 0 15 -12q0 -6 -2 -12l-31 -145q35 24 95 24q86 0 86 -90q0 -41 -13.5 -93t-38.5 -83q-24 -30 -57.5 -41.5t-85.5 -11.5q-62 0 -99 13q-21 6 -21 27q0 14 3 26zM147 352q-2 -12 -2 -16q0 -11 13 -14q14 -3 33 -3q50 0 68 29
q14 23 23.5 59.5t9.5 60.5q0 41 -46 41q-43 0 -61 -16q-5 -5 -9 -18z" />
    <glyph glyph-name="braceleft.cap" horiz-adv-x="339" 
d="M140 336q72 -16 72 -87q0 -16 -8 -58l-24 -115q-7 -35 -7 -51q0 -19 10 -34q14 -19 66 -21q15 -1 15 -16q0 -13 -4 -25q-6 -17 -25 -17q-98 0 -130 31q-25 22 -25 64q0 28 8 63l26 115q7 34 7 58q0 59 -58 67q-17 3 -17 17q0 10 3 23q6 21 23 24q45 8 69.5 35t36.5 85
l21 99q20 90 52 122q45 45 159 45q21 0 21 -16q0 -10 -3 -23q-4 -20 -25 -20q-62 -2 -86 -30q-15 -18 -27 -75l-24 -112q-14 -68 -44 -100.5t-82 -47.5z" />
    <glyph glyph-name="braceright.cap" horiz-adv-x="352" 
d="M255 335q-72 16 -72 88q0 15 8 57l24 116q7 29 7 50t-10 34q-14 18 -66 22q-15 1 -15 15q0 13 4 25q4 18 24 18q100 0 131 -31q25 -25 25 -64q0 -27 -8 -64l-25 -114q-8 -38 -8 -58q0 -31 14 -46t44 -21q17 -4 17 -17t-3 -24q-5 -20 -23 -23q-46 -8 -70 -35.5t-36 -85.5
l-21 -99q-20 -88 -52 -120q-26 -26 -63 -36t-97 -10q-20 0 -20 16q0 9 3 24q2 19 25 19q61 0 85 29q17 21 28 76l24 111q15 70 44.5 101.5t81.5 46.5z" />
    <glyph glyph-name="bracketleft.cap" horiz-adv-x="305" 
d="M202 -82h-166q-17 0 -17 16q0 6 3 18l165 779q6 24 23 24h170q15 0 15 -12q0 -8 -6 -29q-3 -14 -21 -14h-97l-154 -728h97q14 0 14 -12q0 -1 -5 -28q-2 -14 -21 -14z" />
    <glyph glyph-name="bracketright.cap" horiz-adv-x="305" 
d="M148 755h166q16 0 16 -16q0 -10 -2 -18l-166 -780q-5 -23 -23 -23h-170q-13 0 -13 11q0 5 4 29q3 14 21 14h97l155 728h-97q-13 0 -13 12q0 6 4 28q4 15 21 15z" />
    <glyph glyph-name="breve.cap" horiz-adv-x="197" 
d="M212 915q22 0 29 -2q14 -4 14 -19q0 -18 -11 -45q-39 -94 -162 -94q-59 0 -99.5 29t-40.5 82q0 19 3 31q5 15 25 17q6 1 23 1q25 0 26 -19q2 -19 6 -30q14 -31 66 -31q40 0 59 15t31 45q5 12 11 16t20 4z" />
    <glyph glyph-name="bullet.cap" horiz-adv-x="363" 
d="M337 358q0 -93 -49 -138q-38 -35 -105 -35q-53 0 -84.5 25t-31.5 79q0 82 46 128q39 40 107 40q117 0 117 -99z" />
    <glyph glyph-name="caron.alt" horiz-adv-x="188" 
d="M112 719h32q27 0 27 -28q0 -20 -8 -47q-20 -64 -82 -128q-15 -17 -32 -17q-13 0 -24 7q-13 8 -13 21q0 9 11 26q39 53 50 128q7 38 39 38z" />
    <glyph glyph-name="caron.cap" horiz-adv-x="197" 
d="M212 926q30 0 45 -3q16 -2 16 -16q0 -11 -13 -21l-116 -101q-28 -24 -51 -24h-41q-23 0 -39 21l-80 102q-8 9 -8 19q0 15 21 19q24 3 38 3q19 0 38 -19l61 -63l86 64q25 19 43 19z" />
    <glyph glyph-name="cedilla.cap" horiz-adv-x="197" 
d="M128 -54q81 -5 81 -81q0 -70 -40 -98.5t-114 -28.5q-25 0 -47 5q-19 4 -19 21q0 12 5 30q5 20 25 20q7 0 23 -2q9 -1 28 -1q25 0 36 9t11 32q0 26 -33 26h-18q-20 0 -20 18q0 7 8 33l27 81h66z" />
    <glyph glyph-name="cent.denominator" horiz-adv-x="329" 
d="M193 -3l-10 -46q-3 -14 -16 -14h-28q-12 0 -12 10q0 5 2 13l9 38q-90 11 -90 100q0 42 15.5 91.5t44.5 78.5q34 34 98 40l10 43q3 15 16 15h27q13 0 13 -9q0 -4 -2 -14l-8 -34q21 -1 45 -8q10 -3 10 -14q0 -10 -11 -40q-3 -10 -13 -10q-4 0 -22 3q-19 3 -42 3
q-44 0 -64 -23q-34 -38 -34 -107q0 -52 58 -52q25 0 50 6q18 3 19 3q8 0 11 -10q7 -21 7 -33q0 -11 -13 -16q-32 -11 -70 -14z" />
    <glyph glyph-name="cent.inferior" horiz-adv-x="329" 
d="M163 -129l-10 -46q-3 -14 -16 -14h-28q-12 0 -12 10q0 5 2 13l9 38q-90 11 -90 100q0 42 15.5 91.5t44.5 78.5q34 34 98 40l10 43q3 15 16 15h27q13 0 13 -9q0 -4 -2 -14l-8 -34q21 -1 45 -8q10 -3 10 -14q0 -10 -11 -40q-3 -10 -13 -10q-4 0 -22 3q-20 3 -42 3
q-44 0 -64 -23q-34 -38 -34 -107q0 -52 58 -52q25 0 50 6q18 3 19 3q8 0 11 -10q7 -21 7 -33q0 -11 -13 -16q-32 -11 -70 -14z" />
    <glyph glyph-name="cent.numerator" horiz-adv-x="329" 
d="M238 261l-10 -46q-3 -14 -16 -14h-28q-12 0 -12 10q0 5 2 13l9 38q-90 11 -90 100q0 41 16 90.5t45 79.5q33 34 97 40l10 43q3 15 16 15h27q13 0 13 -9q0 -4 -2 -14l-8 -34q21 -1 45 -8q10 -3 10 -14q0 -16 -11 -40q-3 -10 -13 -10q-4 0 -22 3t-42 3q-43 0 -63 -23
q-35 -41 -35 -107q0 -52 58 -52q24 0 50 6q18 3 20 3q7 0 10 -10q7 -28 7 -33q0 -11 -13 -16q-33 -11 -70 -14z" />
    <glyph glyph-name="cent.oldstyle" horiz-adv-x="469" 
d="M276 -2l-17 -81q-5 -21 -22 -21h-41q-18 0 -18 15q0 3 2 15l17 73q-132 14 -132 146q0 68 23 136t69 113q48 48 134 57l17 84q5 22 24 22h40q17 0 17 -13q0 -2 -0.5 -5.5t-1.5 -8.5t-1 -7l-15 -70q50 -2 69 -8q14 -4 14 -21q0 -23 -12 -53q-6 -12 -18 -12q-11 0 -25 2
q-27 4 -67 4q-73 0 -104 -37q-53 -59 -53 -164q0 -40 20.5 -59t66.5 -19q50 0 91 8q18 4 26 4q11 0 14 -11q9 -25 9 -50q0 -14 -20 -21q-45 -15 -106 -18z" />
    <glyph glyph-name="cent.superior" horiz-adv-x="329" 
d="M273 417l-10 -46q-3 -14 -16 -14h-28q-12 0 -12 10q0 5 2 13l9 38q-90 11 -90 100q0 42 15.5 91.5t44.5 78.5q34 34 98 40l10 43q3 15 16 15h27q13 0 13 -9q0 -4 -2 -14l-8 -34q21 -1 45 -8q10 -3 10 -14q0 -10 -11 -40q-3 -10 -13 -10q-4 0 -22 3q-19 3 -42 3
q-44 0 -64 -23q-34 -38 -34 -107q0 -52 58 -52q25 0 50 6q18 3 19 3q8 0 11 -10q7 -21 7 -33q0 -11 -13 -16q-32 -11 -70 -14z" />
    <glyph glyph-name="circumflex.cap" horiz-adv-x="197" 
d="M-14 758q-30 0 -45 3q-16 4 -16 16q0 10 13 21l116 101q29 25 51 25h42q24 0 39 -22l79 -102q8 -11 8 -19q0 -14 -20 -19q-12 -3 -39 -3q-21 0 -38 19l-62 63l-84 -64q-25 -19 -44 -19z" />
    </font>
</defs>
</svg>
